/* XPM */
static char * bottom_xpm[] = {
"32 32 128 2",
"  	c #2B4C29",
". 	c #498400",
"+ 	c #63A100",
"@ 	c #4B8B00",
"# 	c #70B200",
"$ 	c #377B00",
"% 	c #2B452D",
"& 	c #20530D",
"* 	c #174C27",
"= 	c #475409",
"- 	c #407300",
"; 	c #235C02",
"> 	c #3A6600",
", 	c #213E1D",
"' 	c #183918",
") 	c #196803",
"! 	c #457C00",
"~ 	c #3E6E00",
"{ 	c #163B08",
"] 	c #1D3321",
"^ 	c #175B15",
"/ 	c #237200",
"( 	c #276B01",
"_ 	c #1E5320",
": 	c #264531",
"< 	c #185628",
"[ 	c #28450E",
"} 	c #1F610D",
"| 	c #2F640C",
"1 	c #2C4B16",
"2 	c #315900",
"3 	c #1A3023",
"4 	c #255C18",
"5 	c #1D4216",
"6 	c #2A5224",
"7 	c #293D27",
"8 	c #326B0C",
"9 	c #3E8200",
"0 	c #4D8200",
"a 	c #20481C",
"b 	c #1B3C22",
"c 	c #10590C",
"d 	c #346D00",
"e 	c #66A600",
"f 	c #518C00",
"g 	c #2D6612",
"h 	c #363D29",
"i 	c #4C7F00",
"j 	c #11551A",
"k 	c #4F8D00",
"l 	c #3C7300",
"m 	c #589600",
"n 	c #529200",
"o 	c #1D7100",
"p 	c #37561F",
"q 	c #354D30",
"r 	c #3A6217",
"s 	c #297400",
"t 	c #267A00",
"u 	c #0E620A",
"v 	c #156900",
"w 	c #539100",
"x 	c #5F9D00",
"y 	c #3B7B00",
"z 	c #358200",
"A 	c #354D2E",
"B 	c #5B9B00",
"C 	c #467D00",
"D 	c #3B7206",
"E 	c #608C00",
"F 	c #547705",
"G 	c #385B0A",
"H 	c #335B19",
"I 	c #75B700",
"J 	c #76B800",
"K 	c #556D19",
"L 	c #476619",
"M 	c #617009",
"N 	c #405F14",
"O 	c #5E8100",
"P 	c #3A6400",
"Q 	c #2D5900",
"R 	c #1B4E00",
"S 	c #204C08",
"T 	c #366D00",
"U 	c #69A700",
"V 	c #6AAA00",
"W 	c #697800",
"X 	c #3D4409",
"Y 	c #2B3406",
"Z 	c #424D00",
"` 	c #334D02",
" .	c #273D00",
"..	c #1F3900",
"+.	c #253D00",
"@.	c #435B00",
"#.	c #455B00",
"$.	c #345500",
"%.	c #1E5500",
"&.	c #0C4308",
"*.	c #437800",
"=.	c #374D00",
"-.	c #1C2700",
";.	c #0D1A00",
">.	c #2C4B00",
",.	c #202F00",
"'.	c #274100",
").	c #1B3300",
"!.	c #1A3000",
"~.	c #1D3300",
"{.	c #233200",
"].	c #1A2C00",
"^.	c #1B2A0D",
"/.	c #102800",
"(.	c #071F07",
"_.	c #1C3D00",
":.	c #325300",
"<.	c #0C1000",
"[.	c #080C00",
"}.	c #000000",
"|.	c #152B00",
"1.	c #284500",
"2.	c #102400",
"3.	c #111E00",
"4.	c #020900",
"5.	c #0A1500",
"6.	c #081100",
"7.	c #11110A",
"  . + @ # $ % % & * = - ; > , ' ) ! ~ , { ] ~ ^ / ( _ : ] { '   ",
"< ] [ } | 1 ^ ^ % | 2 3 ! ) } } ' ' : 4 _ 5 % 6 _ ^ 7 <   } 8 9 ",
"0 a b ] 3 c d e f ! 9 & & d g ! 3 ' | 4 * h i ~ ) . h j j 8 ( ( ",
"k $ ) j % l d m # . - @ @ | } n * 0 n o _   p . f ! ^ q r m ; ^ ",
"s t ( u v 9 _ _ w f s d t $ . $ j ! n ( q k # x 0 @ d y y g u u ",
"t ) ( 9 o ) q < u ! ! _ 4 ( @ 9 l n + z A 9 w + + # . B x 8 o 9 ",
"C D E l 8 F 8 G / $     H e f v + z B @ A r e # # I @ m B z B J ",
"K L M N L O - P Q R S 2 | i G S > T 9 | ^ @ U 9 n U - B u o m V ",
"W X Y Z ` =  ...+.+.+.@.> #.`  . . .$.7 %.- P 3 &.*.%.T a - m t ",
"=.-.;...>.,.-.,.'.).!.~.{.].].].].~.{.^.{.~./.(./.^._.R :.Q T & ",
"<.[.}.+.'.|.;.,.1.!.|.-.<.[./.2.;.3.+.2.;.|.;.;.4.;.!.].'.>...^.",
"4.}.4.~...3.}.!.'.2.2.,.5.6.|.2.;.4.).+.2.2.[.|.;.6.|.;.|. .;.7.",
"}.}.[.|.|.4.4.2...;.5.).2./.|.2.4.}.6.).).;.4.)...2.|.6.5.!.2.7.",
"}.4.5.3.4.}.}.2.|.6.4.|.).|.|.4.}.}.}.5.|.6.}.2.+.|.;.4.}.2.-.[.",
"}.}.[.[.}.}.}.5.2.6.}.[.|.2.;.4.4.}.}.}.[.}.}.;.).|.4.}.}.[.2.;.",
"}.4.4.4.}.}.}.4.5.[.}.4.;.2.5.4.4.4.}.4.}.}.}.[./.6.}.}.}.[.2.5.",
"}.}.}.}.}.}.}.}.4.4.}.}.6.;.[.}.}.}.}.}.}.}.}.}.;.4.}.}.}.}.5.6.",
"}.}.}.}.}.}.}.}.}.}.}.}.}.6.4.}.}.}.}.}.}.}.}.}.4.}.}.}.}.}.4.}.",
"}.}.}.}.}.}.}.}.}.}.}.}.}.4.4.}.}.}.}.}.}.}.}.}.}.}.}.}.}.}.}.}.",
"}.}.}.}.}.}.}.}.}.}.}.}.}.}.}.}.}.}.}.}.}.}.}.}.}.}.}.}.}.}.}.}.",
"}.}.}.}.}.}.}.}.}.}.}.}.}.}.}.}.}.}.}.}.}.}.}.}.}.}.}.}.}.}.}.}.",
"}.}.}.}.}.}.}.}.}.}.}.}.}.}.}.}.}.}.}.}.}.}.}.}.}.}.}.}.}.}.}.}.",
"}.}.}.}.}.}.}.}.}.}.}.}.}.}.}.}.}.}.}.}.}.}.}.}.}.}.}.}.}.}.}.}.",
"}.}.}.}.}.}.}.}.}.}.}.}.}.}.}.}.}.}.}.}.}.}.}.}.}.}.}.}.}.}.}.}.",
"}.}.}.}.}.}.}.}.}.}.}.}.}.}.}.}.}.}.}.}.}.}.}.}.}.}.}.}.}.}.}.}.",
"}.}.}.}.}.}.}.}.}.}.}.}.}.}.}.}.}.}.}.}.}.}.}.}.}.}.}.}.}.}.}.}.",
"}.}.}.}.}.}.}.}.}.}.}.}.}.}.}.}.}.}.}.}.}.}.}.}.}.}.}.}.}.}.}.}.",
"}.}.}.}.}.}.}.}.}.}.}.}.}.}.}.}.}.}.}.}.}.}.}.}.}.}.}.}.}.}.}.}.",
"}.}.}.}.}.}.}.}.}.}.}.}.}.}.}.}.}.}.}.}.}.}.}.}.}.}.}.}.}.}.}.}.",
"}.}.}.}.}.}.}.}.}.}.}.}.}.}.}.}.}.}.}.}.}.}.}.}.}.}.}.}.}.}.}.}.",
"}.}.}.}.}.}.}.}.}.}.}.}.}.}.}.}.}.}.}.}.}.}.}.}.}.}.}.}.}.}.}.}.",
"}.}.}.}.}.}.}.}.}.}.}.}.}.}.}.}.}.}.}.}.}.}.}.}.}.}.}.}.}.}.}.}."};
