/* XPM */
static char * corner_topright_xpm[] = {
"32 32 85 1",
" 	c #000000",
".	c #000100",
"+	c #010100",
"@	c #050500",
"#	c #040600",
"$	c #020400",
"%	c #141800",
"&	c #0C1600",
"*	c #111B00",
"=	c #192300",
"-	c #1D2306",
";	c #111307",
">	c #040400",
",	c #284700",
"'	c #324B00",
")	c #355200",
"!	c #375400",
"~	c #3A5500",
"{	c #243305",
"]	c #0B0F03",
"^	c #010101",
"/	c #1A560B",
"(	c #3E7000",
"_	c #5B8F00",
":	c #5D9100",
"<	c #619300",
"[	c #2B5201",
"}	c #222E00",
"|	c #0C0C00",
"1	c #538700",
"2	c #1D5123",
"3	c #388300",
"4	c #66A000",
"5	c #397D00",
"6	c #357100",
"7	c #516000",
"8	c #211F00",
"9	c #030500",
"0	c #375A20",
"a	c #1E5424",
"b	c #428B00",
"c	c #619B00",
"d	c #1D6A06",
"e	c #3B6B16",
"f	c #41660D",
"g	c #424E00",
"h	c #0C1200",
"i	c #000200",
"j	c #599100",
"k	c #2E7200",
"l	c #518D00",
"m	c #65A300",
"n	c #3B6222",
"o	c #406C13",
"p	c #4A7300",
"q	c #262A00",
"r	c #4A8800",
"s	c #438300",
"t	c #4C8E00",
"u	c #8AC000",
"v	c #77B100",
"w	c #6A9100",
"x	c #4F602E",
"y	c #394A1C",
"z	c #1D2900",
"A	c #000001",
"B	c #70A000",
"C	c #3E670E",
"D	c #4B7F00",
"E	c #96C800",
"F	c #6EAA00",
"G	c #5E830B",
"H	c #495833",
"I	c #3E4223",
"J	c #212304",
"K	c #020200",
"L	c #587300",
"M	c #24371E",
"N	c #616B00",
"O	c #6B9D00",
"P	c #546F1C",
"Q	c #4E612B",
"R	c #54630A",
"S	c #1F2E00",
"T	c #030300",
"                                ",
"                                ",
"                                ",
"                                ",
"                                ",
"                                ",
"                                ",
"                                ",
"                                ",
"                                ",
"                                ",
"                                ",
"                                ",
"                                ",
"                                ",
"                                ",
"                                ",
"                                ",
"                                ",
" .                              ",
"                                ",
"    ++                          ",
"+++@#$                          ",
"%&*=-;>                         ",
",')!~{]^                        ",
"/(_:<[}|+                       ",
"123456789                       ",
"0abcdefghi                      ",
"jklm5nopq^     i                ",
"rstuvwxyzA     i                ",
"BCDEFGHIJK     K                ",
"LMNO1PQRSK    .T                "};
