/* XPM */
static char * corner_bottomleft_xpm[] = {
"32 32 117 2",
"  	c #000000",
". 	c #000300",
"+ 	c #1F3500",
"@ 	c #347300",
"# 	c #428800",
"$ 	c #568D00",
"% 	c #418400",
"& 	c #164F09",
"* 	c #19321E",
"= 	c #153813",
"- 	c #19160F",
"; 	c #344A1F",
"> 	c #417D00",
", 	c #5C9300",
"' 	c #387E00",
") 	c #2D7800",
"! 	c #115711",
"~ 	c #156000",
"{ 	c #16190A",
"] 	c #35411E",
"^ 	c #44670F",
"/ 	c #245E10",
"( 	c #337600",
"_ 	c #448C00",
": 	c #216700",
"< 	c #3C7B00",
"[ 	c #161800",
"} 	c #3E4D00",
"| 	c #375520",
"1 	c #2C5124",
"2 	c #3B6D00",
"3 	c #316506",
"4 	c #136102",
"5 	c #489300",
"6 	c #060B00",
"7 	c #3D4200",
"8 	c #466900",
"9 	c #367200",
"0 	c #1F7C00",
"a 	c #2A7F00",
"b 	c #3C8700",
"c 	c #357900",
"d 	c #010401",
"e 	c #1F3300",
"f 	c #3F6900",
"g 	c #28501E",
"h 	c #225C0E",
"i 	c #1B6900",
"j 	c #448A00",
"k 	c #2C8100",
"l 	c #010101",
"m 	c #102E00",
"n 	c #213A1F",
"o 	c #254820",
"p 	c #305814",
"q 	c #5FA700",
"r 	c #488C00",
"s 	c #0A6900",
"t 	c #071800",
"u 	c #123200",
"v 	c #165200",
"w 	c #2A5F02",
"x 	c #487C00",
"y 	c #335B00",
"z 	c #1B4D00",
"A 	c #010100",
"B 	c #050A00",
"C 	c #132200",
"D 	c #384F00",
"E 	c #3C6400",
"F 	c #405B00",
"G 	c #344D00",
"H 	c #223D00",
"I 	c #000400",
"J 	c #091500",
"K 	c #162500",
"L 	c #1E2D00",
"M 	c #1B2A00",
"N 	c #182E00",
"O 	c #152E00",
"P 	c #000100",
"Q 	c #030A00",
"R 	c #0A1900",
"S 	c #061000",
"T 	c #070A00",
"U 	c #112700",
"V 	c #102600",
"W 	c #010600",
"X 	c #071300",
"Y 	c #122D00",
"Z 	c #020200",
"` 	c #0C1800",
" .	c #0A1B00",
"..	c #0D2600",
"+.	c #0E2200",
"@.	c #071100",
"#.	c #102400",
"$.	c #102900",
"%.	c #0F2A00",
"&.	c #050C00",
"*.	c #010400",
"=.	c #020500",
"-.	c #0B1C00",
";.	c #0F2500",
">.	c #0B1A00",
",.	c #040400",
"'.	c #000200",
").	c #081500",
"!.	c #0D2100",
"~.	c #040900",
"{.	c #030D00",
"].	c #081900",
"^.	c #050F00",
"/.	c #010300",
"(.	c #020A00",
"_.	c #030600",
":.	c #020700",
"                                              . + @ # $ % & * = ",
"                                                - ; > , ' ) ! ~ ",
"                                                { ] ^ / ( _ : < ",
"                                                [ } | 1 2 3 4 5 ",
"                                                6 7 8 9 0 a b c ",
"                                                d e f g h i j k ",
"                                                l m n o p q r s ",
"                                                . t u v w x y z ",
"                                                A B C D E F G H ",
"                                                  I J K L M N O ",
"                                                  P Q R S T U V ",
"                                                    W R S X Y V ",
"                                                    Z `  ...Y +.",
"                                                      @.#.$.%.&.",
"                                  A *.A               =.-.;.>.,.",
"                                  '.*.Z               A ).!.J ~.",
"                            P =.    A A                 {.].^.A ",
"                            '.=.                        /.S (.A ",
"                              '.                          _.:.A ",
"                                                          A A   ",
"                                                                ",
"                                                                ",
"                                                                ",
"                                                                ",
"                                                                ",
"                                                                ",
"                                                                ",
"                                                                ",
"                                                                ",
"                                                                ",
"                                                                ",
"                                                                "};
