/* XPM */
static char * corner_bottomright_xpm[] = {
"32 32 119 2",
"  	c #0D4112",
". 	c #173517",
"+ 	c #1E4D00",
"@ 	c #076100",
"# 	c #286A00",
"$ 	c #4C7B00",
"% 	c #517500",
"& 	c #417500",
"* 	c #1C3A00",
"= 	c #000300",
"- 	c #000000",
"; 	c #010100",
"> 	c #010400",
", 	c #020200",
"' 	c #153615",
") 	c #0C430C",
"! 	c #134710",
"~ 	c #2F550B",
"{ 	c #538A00",
"] 	c #8EA900",
"^ 	c #608900",
"/ 	c #153300",
"( 	c #080D00",
"_ 	c #030300",
": 	c #18311E",
"< 	c #0C3B17",
"[ 	c #275301",
"} 	c #1A3517",
"| 	c #2A5B11",
"1 	c #408A00",
"2 	c #528E00",
"3 	c #7D8B00",
"4 	c #434800",
"5 	c #0D1000",
"6 	c #000200",
"7 	c #074E12",
"8 	c #408200",
"9 	c #428F00",
"0 	c #075F00",
"a 	c #4E9300",
"b 	c #478E00",
"c 	c #446A00",
"d 	c #3B510F",
"e 	c #222A01",
"f 	c #010600",
"g 	c #00570D",
"h 	c #357C00",
"i 	c #449100",
"j 	c #196E00",
"k 	c #3F7600",
"l 	c #5B8F00",
"m 	c #809900",
"n 	c #6C7700",
"o 	c #1C2100",
"p 	c #207500",
"q 	c #52A200",
"r 	c #248100",
"s 	c #304E25",
"t 	c #407C00",
"u 	c #4B6C00",
"v 	c #3E4C00",
"w 	c #1A1700",
"x 	c #529F00",
"y 	c #238600",
"z 	c #4B9800",
"A 	c #3E8B00",
"B 	c #28492B",
"C 	c #2C5806",
"D 	c #376000",
"E 	c #181D00",
"F 	c #020500",
"G 	c #2B6500",
"H 	c #2A6F00",
"I 	c #3C8100",
"J 	c #275E00",
"K 	c #075705",
"L 	c #367800",
"M 	c #3B6F00",
"N 	c #102600",
"O 	c #223D00",
"P 	c #1E4200",
"Q 	c #305400",
"R 	c #263F1E",
"S 	c #165200",
"T 	c #2E5D00",
"U 	c #1D3B00",
"V 	c #040C07",
"W 	c #162900",
"X 	c #193200",
"Y 	c #1E3400",
"Z 	c #1A280D",
"` 	c #1E2E00",
" .	c #0F2800",
"..	c #041200",
"+.	c #000500",
"@.	c #0E1E00",
"#.	c #0C1F00",
"$.	c #193A00",
"%.	c #112100",
"&.	c #091700",
"*.	c #0B1E00",
"=.	c #040900",
"-.	c #081B00",
";.	c #020700",
">.	c #173200",
",.	c #1E3C00",
"'.	c #0D2000",
").	c #061600",
"!.	c #020A00",
"~.	c #021000",
"{.	c #0D2E00",
"].	c #0F2A00",
"^.	c #0C2500",
"/.	c #000A00",
"(.	c #010401",
"_.	c #000100",
":.	c #060900",
"<.	c #040702",
"[.	c #040401",
"  . + @ # $ % & * = - - - - ; > - - - - - - - - - - - - - , - - ",
". ' ) ! ~ { ] ^ / ( - - - - ; _ - - - - - - - - - - - - - - - - ",
": < [ } | 1 2 3 4 5 - - - - - 6 - - - - - - - - - - - - - - - - ",
"7 8 9 0 a b c d e f - - - - - ; - - - - - - - - - - - - - - - - ",
"g h i j k l m n o 6 - - - - - - - - - - - - - - - - - - - - - - ",
"p i q r s t u v w ; - - - - - - - - - - - - - - - - - - - - - - ",
"x y z A B C D E F - - - - - - - - - - - - - - - - - - - - - - - ",
"G H I J K L M N ; - - - - - - - - - - - - - - - - - - - - - - - ",
"O P Q R S T U V 6 - - - - - - - - - - - - - - - - - - - - - - - ",
"W X Y Z `  ...+.- - - - - - - - - - - - - - - - - - - - - - - - ",
"@.#.$.%.&.*.=.; - - - - - - - - - - - - - - - - - - - - - - - - ",
"-.;.>.,.'.)._ ; - - - - - - - - - - - - - - - - - - - - - - - - ",
"!.; ~.{.].~.; - - - - - - - - - - - - - - - - - - - - - - - - - ",
", = , ).^./.- - - - - - - - - - - - - - - - - - - - - - - - - - ",
"> (., _.!.6 - - - - - - - - - - - - - - - - - - - - - - - - - - ",
":.<.[.> _.- - ; _.- - - - - - - - - - - - - - - - - - - - - - - ",
"- - - - - - - - ; - - - - - - - - - - - - - - - - - - - - - - - ",
"- - - - - - - - - - - - - - - - - - - - - - - - - - - - - - - - ",
"- - - - - - - - - - - - - - - - - - - - - - - - - - - - - - - - ",
"- - - - - - - - - - - - - - - - - - - - - - - - - - - - - - - - ",
"- - - - - - - - - - - - - - - - - - - - - - - - - - - - - - - - ",
"- - - - - - - - - - - - - - - - - - - - - - - - - - - - - - - - ",
"- - - - - - - - - - - - - - - - - - - - - - - - - - - - - - - - ",
"- - - - - - - - - - - - - - - - - - - - - - - - - - - - - - - - ",
"- - - - - - - - - - - - - - - - - - - - - - - - - - - - - - - - ",
"- - - - - - - - - - - - - - - - - - - - - - - - - - - - - - - - ",
"- - - - - - - - - - - - - - - - - - - - - - - - - - - - - - - - ",
"- - - - - - - - - - - - - - - - - - - - - - - - - - - - - - - - ",
"- - - - - - - - - - - - - - - - - - - - - - - - - - - - - - - - ",
"- - - - - - - - - - - - - - - - - - - - - - - - - - - - - - - - ",
"- - - - - - - - - - - - - - - - - - - - - - - - - - - - - - - - ",
"- - - - - - - - - - - - - - - - - - - - - - - - - - - - - - - - "};
