/* XPM */
static char * corner_topleft_xpm[] = {
"32 32 83 1",
" 	c #000000",
".	c #010100",
"+	c #020200",
"@	c #010001",
"#	c #000002",
"$	c #070705",
"%	c #0A0A03",
"&	c #050700",
"*	c #000200",
"=	c #010101",
"-	c #0A0C02",
";	c #1F2900",
">	c #222402",
",	c #1A1A0E",
"'	c #13130C",
")	c #171C00",
"!	c #0C1600",
"~	c #020402",
"{	c #1B1D0C",
"]	c #2F4009",
"^	c #4C6409",
"/	c #687B00",
"(	c #4A5604",
"_	c #3D4B03",
":	c #273A0C",
"<	c #050503",
"[	c #2E3A07",
"}	c #536B00",
"|	c #619100",
"1	c #618A00",
"2	c #418000",
"3	c #3E6E00",
"4	c #28580B",
"5	c #020400",
"6	c #13130E",
"7	c #475801",
"8	c #537200",
"9	c #577107",
"0	c #426419",
"a	c #377F00",
"b	c #3B8600",
"c	c #468200",
"d	c #2B2D13",
"e	c #536D03",
"f	c #476415",
"g	c #4E7900",
"h	c #487B00",
"i	c #135E0F",
"j	c #137100",
"k	c #244D29",
"l	c #292B1A",
"m	c #454C32",
"n	c #587E00",
"o	c #5E9800",
"p	c #236B00",
"q	c #325426",
"r	c #266E00",
"s	c #3D630F",
"t	c #030303",
"u	c #26281C",
"v	c #596C09",
"w	c #669B00",
"x	c #408100",
"y	c #295400",
"z	c #357600",
"A	c #67AA00",
"B	c #5FA200",
"C	c #2D3707",
"D	c #5D7500",
"E	c #537900",
"F	c #215B18",
"G	c #284C2A",
"H	c #2B6000",
"I	c #478A00",
"J	c #040400",
"K	c #233401",
"L	c #437A00",
"M	c #3E5D21",
"N	c #3F6D00",
"O	c #154F1A",
"P	c #1B3322",
"Q	c #1E361C",
"R	c #386800",
"                                ",
"                                ",
"                                ",
"                                ",
"                                ",
"                                ",
"                                ",
"                                ",
"                                ",
"                                ",
"                                ",
"                                ",
"                                ",
"                                ",
"                                ",
"                                ",
"                                ",
"                                ",
"                                ",
"                                ",
"                                ",
"                            .+. ",
"                          @#$%&*",
"                        =-;>,')!",
"                        ~{]^/(_:",
"                       =<[}|1234",
"                       567890abc",
"                       5defghijk",
"                       <lmnopqrs",
"                       tuvwxyzAB",
"                       tCDEFGHIB",
"                       JKLMNOPQR"};
