/* XPM */
static char * left_xpm[] = {
"32 32 111 2",
"  	c #000000",
". 	c #030800",
"+ 	c #070A00",
"@ 	c #272F00",
"# 	c #273900",
"$ 	c #313E1F",
"% 	c #145416",
"& 	c #175D08",
"* 	c #216400",
"= 	c #106A00",
"- 	c #2E6C00",
"; 	c #126000",
"> 	c #19331F",
", 	c #102400",
"' 	c #324A1E",
") 	c #386107",
"! 	c #317700",
"~ 	c #1D6B00",
"{ 	c #126200",
"] 	c #103C13",
"^ 	c #1A4300",
"/ 	c #464B00",
"( 	c #426E00",
"_ 	c #397C00",
": 	c #0F4D21",
"< 	c #1A2E00",
"[ 	c #1F3100",
"} 	c #2D5E00",
"| 	c #3C5625",
"1 	c #285419",
"2 	c #1D2F00",
"3 	c #2D4F00",
"4 	c #347A00",
"5 	c #528D00",
"6 	c #406200",
"7 	c #0B1500",
"8 	c #1C3900",
"9 	c #396000",
"0 	c #3E8900",
"a 	c #62AD00",
"b 	c #67B200",
"c 	c #3C6D00",
"d 	c #446100",
"e 	c #538900",
"f 	c #61A700",
"g 	c #417A00",
"h 	c #0F1400",
"i 	c #2B3500",
"j 	c #487600",
"k 	c #0B0E04",
"l 	c #303A0E",
"m 	c #358300",
"n 	c #2F7A00",
"o 	c #276000",
"p 	c #444C23",
"q 	c #488600",
"r 	c #3B5D1D",
"s 	c #175D00",
"t 	c #1A4E00",
"u 	c #2A2D1B",
"v 	c #1B1E11",
"w 	c #556D00",
"x 	c #5A7400",
"y 	c #4F8D00",
"z 	c #184416",
"A 	c #2D3509",
"B 	c #4A640F",
"C 	c #0F5200",
"D 	c #454D30",
"E 	c #5E8500",
"F 	c #509900",
"G 	c #25281E",
"H 	c #629B00",
"I 	c #3B8100",
"J 	c #295700",
"K 	c #125800",
"L 	c #507900",
"M 	c #244B27",
"N 	c #115401",
"O 	c #203400",
"P 	c #337300",
"Q 	c #3F8200",
"R 	c #144F06",
"S 	c #19190F",
"T 	c #5A9300",
"U 	c #094728",
"V 	c #38421B",
"W 	c #085315",
"X 	c #161B00",
"Y 	c #445100",
"Z 	c #046300",
"` 	c #0B1000",
" .	c #497000",
"..	c #2A4400",
"+.	c #0B3700",
"@.	c #154E2F",
"#.	c #164A00",
"$.	c #2E5C0E",
"%.	c #2D452B",
"&.	c #385700",
"*.	c #579000",
"=.	c #579A00",
"-.	c #123E1A",
";.	c #283A00",
">.	c #4F7B00",
",.	c #92CB00",
"'.	c #78AE00",
").	c #81C100",
"!.	c #0F1900",
"~.	c #25250D",
"{.	c #4D6719",
"                                        . + @ # $ % & * = - ; > ",
"                                            , # ' ) ! ~ ~ * { ] ",
"                                          . , ^ / ( ' * _ : : ] ",
"                                            , < [ } * | 1 > > > ",
"                                          . , , 2 3 4 5 6 > > > ",
"                                            7 , 8 9 0 a b c > > ",
"                                            . 7 2 d e f a g ] > ",
"                                              + h i j b = ~ % ] ",
"                                                k l g m % n o ] ",
"                                              . h p q r q s t u ",
"                                              . v w x y y - 4 z ",
"                                                A x B g = C 1 z ",
"                                              . u D E F ~ ; ] u ",
"                                              . G ( H I J { K ] ",
"                                              . A x L | M s N > ",
"                                                A _ r c : > > > ",
"                                              . O P 0 y Q R > > ",
"                                                S ' I T g n U > ",
"                                                S V B | n F W > ",
"                                                X Y | % 1 0 Z > ",
"                                                ` /  .g m % N > ",
"                                                + ..Q ~ ~ = > u ",
"                                                + +.s | M M @.> ",
"                                                + #.- $.%.@.z > ",
"                                                k ..e $.%.M @.] ",
"                                              . X &.5 ) M M > > ",
"                                              + [ 6 *.0 =.L -.> ",
"                                            . h ;.>.0 a ,.'.| > ",
"                                            . ;.) r g F ).=.K > ",
"                                            + ;.T B | m =.j ~ z ",
"                                          . !.~.B {.| Z ~ ( C > ",
"                                          . , ~.p | | | Z C ] > "};
