/* XPM */
static char * right_xpm[] = {
"32 32 132 2",
"  	c #1C3122",
". 	c #396201",
"+ 	c #3B7B00",
"@ 	c #457D00",
"# 	c #89B900",
"$ 	c #587B11",
"% 	c #576C1D",
"& 	c #4D5500",
"* 	c #1F2B00",
"= 	c #000000",
"- 	c #1D3221",
"; 	c #205614",
"> 	c #1A3B1A",
", 	c #1E4513",
"' 	c #51680D",
") 	c #244300",
"! 	c #2A3D24",
"~ 	c #406518",
"{ 	c #314E05",
"] 	c #1C2400",
"^ 	c #195D14",
"/ 	c #11531D",
"( 	c #2C4B2A",
"_ 	c #233A00",
": 	c #1E200D",
"< 	c #0B0D07",
"[ 	c #040800",
"} 	c #325321",
"| 	c #1B6605",
"1 	c #376D00",
"2 	c #223501",
"3 	c #15190D",
"4 	c #0F1300",
"5 	c #274C10",
"6 	c #468200",
"7 	c #217000",
"8 	c #2F6300",
"9 	c #2F4000",
"0 	c #253400",
"a 	c #192300",
"b 	c #4D8100",
"c 	c #4E7500",
"d 	c #14521A",
"e 	c #265A18",
"f 	c #2A5600",
"g 	c #3F4900",
"h 	c #080A00",
"i 	c #184C18",
"j 	c #247100",
"k 	c #528400",
"l 	c #465F00",
"m 	c #2E4D00",
"n 	c #2E3400",
"o 	c #151900",
"p 	c #1C2F25",
"q 	c #679D00",
"r 	c #859400",
"s 	c #566500",
"t 	c #091100",
"u 	c #27690C",
"v 	c #356B03",
"w 	c #518900",
"x 	c #7D9C00",
"y 	c #165A11",
"z 	c #5F9B00",
"A 	c #306215",
"B 	c #396B14",
"C 	c #4E7312",
"D 	c #5C6B00",
"E 	c #202400",
"F 	c #99C900",
"G 	c #7FB900",
"H 	c #3B6222",
"I 	c #486D12",
"J 	c #303400",
"K 	c #447400",
"L 	c #6DA300",
"M 	c #8CC000",
"N 	c #77B100",
"O 	c #619300",
"P 	c #4B5C28",
"Q 	c #394C1C",
"R 	c #2B4427",
"S 	c #6EAA00",
"T 	c #5E830B",
"U 	c #3E4223",
"V 	c #54650A",
"W 	c #292D00",
"X 	c #216310",
"Y 	c #5D7619",
"Z 	c #1A431A",
"` 	c #264326",
" .	c #618A07",
"..	c #94A900",
"+.	c #658C00",
"@.	c #365B23",
"#.	c #588C00",
"$.	c #7C8D00",
"%.	c #454900",
"&.	c #293E1F",
"*.	c #475321",
"=.	c #292D0E",
"-.	c #689100",
";.	c #8EA300",
">.	c #7F8900",
",.	c #719400",
"'.	c #597E00",
").	c #334400",
"!.	c #0E1400",
"~.	c #1B3A27",
"{.	c #2F3900",
"].	c #579100",
"^.	c #5B7A08",
"/.	c #225420",
"(.	c #548C00",
"_.	c #4B6003",
":.	c #1B1B08",
"<.	c #15170D",
"[.	c #3C5F1D",
"}.	c #77A700",
"|.	c #15472E",
"1.	c #3F5000",
"2.	c #1D4909",
"3.	c #377101",
"4.	c #6B8C05",
"5.	c #58690A",
"6.	c #95C500",
"7.	c #585E13",
"8.	c #194F1F",
"9.	c #5B6E21",
"0.	c #6E870B",
"a.	c #52632B",
"  . + @ # $ % & * = = = = = = = = = = = = = = = = = = = = = = = ",
"- ; > , ' % ' ) * = = = = = = = = = = = = = = = = = = = = = = = ",
"- - - > ! ~ { ) ] = = = = = = = = = = = = = = = = = = = = = = = ",
"- - ^ / ( . _ : < [ = = = = = = = = = = = = = = = = = = = = = = ",
"- - ^ } | 1 2 3 4 = = = = = = = = = = = = = = = = = = = = = = = ",
"- - 5 6 7 8 9 0 a [ = = = = = = = = = = = = = = = = = = = = = = ",
"- > b + ^ c 8 ) : [ = = = = = = = = = = = = = = = = = = = = = = ",
"- / b d e 8 f g ] 4 h = = = = = = = = = = = = = = = = = = = = = ",
"- i ; } j k l m n ] o = = = = = = = = = = = = = = = = = = = = = ",
"- - p c 6 q r s g o t = = = = = = = = = = = = = = = = = = = = = ",
"- e u v @ w x & * 4 [ = = = = = = = = = = = = = = = = = = = = = ",
"> y z w A B C D E h = = = = = = = = = = = = = = = = = = = = = = ",
"> 6 F G + H I b J = = = = = = = = = = = = = = = = = = = = = = = ",
"> K L M N O P Q * = = = = = = = = = = = = = = = = = = = = = = = ",
"> R b F S T P U E = = = = = = [ = = = = = = = = = = = = = = = = ",
"- - D q w % P V W = = = = = = = = = = = = = = = = = = = = = = = ",
"-   5 X B Y Y c _ [ = = = = = = = = = = = = = = = = = = = = = = ",
"-   Z ` }  ...+.2 h = = = = = [ = = = = = = = = = = = = = = = = ",
"- - -   @.#.+.$.%.h = = = = = = = = = = = = = = = = = = = = = = ",
"- - &.d O #.I *.=.[ = = = = = = = = = = = = = = = = = = = = = = ",
"  ` A # S -.;.>.W = = = = = = = = = = = = = = = = = = = = = = = ",
"- - w F q ,.'.s W = = = = = = = = = = = = = = = = = = = = = = = ",
"- ; k L O $.).W !.= = = = = = = = = = = = = = = = = = = = = = = ",
"~.w ^ @ O '.{.E h = = = = = = = = = = = = = = = = = = = = = = = ",
"H ].} ^.].. 0 4 h = = = = = = = = = = = = = = = = = = = = = = = ",
"/.5 e (.]._.:.<.o h = = = = = = = = = = = = = = = = = = = = = = ",
"- - [.# }.& > n n o t [ = = = = = = = = = = = = = = = = = = = = ",
"- |.u }.I P ' 1.) 4 !.= = = = = = = = = = = = = = = = = = = = = ",
"2.3.(.#.P P 4.5.E < h = = = = = = = = = = = = = = = = = = = = = ",
"> #.6.x % ,.,.7.<.[ = = = = = = = = = = = = = = = = = = = = = = ",
"- 8.;.^.Y ,.9.*.:.[ = = = = = = = = = = = = = = = = = = = = = = ",
"p e @ 9.0.0.a.5.E = = = = = = = = = = = = = = = = = = = = = = = "};
