/* XPM */
static char * top_1_xpm[] = {
"32 32 143 2",
"  	c #547B00",
". 	c #5E9E00",
"+ 	c #4C7300",
"@ 	c #4D7400",
"# 	c #568500",
"$ 	c #48650F",
"% 	c #405D0C",
"& 	c #3F541F",
"* 	c #395D0C",
"= 	c #5A7700",
"- 	c #71A500",
"; 	c #599400",
"> 	c #558B00",
", 	c #4A9C00",
"' 	c #3D6900",
") 	c #384529",
"! 	c #3D7300",
"~ 	c #6BAB00",
"{ 	c #486500",
"] 	c #3C6500",
"^ 	c #5E8D00",
"/ 	c #6BA100",
"( 	c #306003",
"_ 	c #465C00",
": 	c #406C00",
"< 	c #297200",
"[ 	c #3F7C00",
"} 	c #3B4D20",
"| 	c #588E00",
"1 	c #569B00",
"2 	c #2D4419",
"3 	c #4F7800",
"4 	c #4A8200",
"5 	c #6F9100",
"6 	c #22351C",
"7 	c #1F4208",
"8 	c #536D05",
"9 	c #285A00",
"0 	c #388200",
"a 	c #357900",
"b 	c #315209",
"c 	c #334309",
"d 	c #307A00",
"e 	c #71AC00",
"f 	c #418B00",
"g 	c #39530C",
"h 	c #2B6300",
"i 	c #487400",
"j 	c #3B6400",
"k 	c #4B7E00",
"l 	c #273B15",
"m 	c #2D351E",
"n 	c #313E22",
"o 	c #1C3916",
"p 	c #214C00",
"q 	c #206100",
"r 	c #3C7200",
"s 	c #305C00",
"t 	c #1A3A02",
"u 	c #295900",
"v 	c #3B9900",
"w 	c #3F6D00",
"x 	c #205200",
"y 	c #394C00",
"z 	c #124100",
"A 	c #1C2B0D",
"B 	c #183012",
"C 	c #425300",
"D 	c #263B03",
"E 	c #1D4300",
"F 	c #153008",
"G 	c #24241F",
"H 	c #2C2C15",
"I 	c #212121",
"J 	c #1B4800",
"K 	c #1D211C",
"L 	c #263109",
"M 	c #43430B",
"N 	c #365C00",
"O 	c #295500",
"P 	c #184C00",
"Q 	c #1D1D1D",
"R 	c #201E1D",
"S 	c #213310",
"T 	c #1C1C0D",
"U 	c #34320E",
"V 	c #215100",
"W 	c #24221A",
"X 	c #356B00",
"Y 	c #4C7800",
"Z 	c #2F4400",
"` 	c #284B16",
" .	c #1E2A18",
"..	c #302C0F",
"+.	c #282414",
"@.	c #2C280E",
"#.	c #4B4B00",
"$.	c #525200",
"%.	c #3A3A0A",
"&.	c #355900",
"*.	c #715B00",
"=.	c #514A00",
"-.	c #2D5300",
";.	c #386600",
">.	c #4F7B00",
",.	c #202020",
"'.	c #434100",
").	c #595200",
"!.	c #433A00",
"~.	c #5C5700",
"{.	c #6B5A00",
"].	c #383608",
"^.	c #555700",
"/.	c #3D3D0D",
"(.	c #625600",
"_.	c #493F00",
":.	c #384B00",
"<.	c #306100",
"[.	c #6B5F00",
"}.	c #665700",
"|.	c #796300",
"1.	c #556D00",
"2.	c #335700",
"3.	c #4A7900",
"4.	c #705A00",
"5.	c #707500",
"6.	c #7E7700",
"7.	c #447000",
"8.	c #477300",
"9.	c #616100",
"0.	c #466D00",
"a.	c #6D6600",
"b.	c #5A6100",
"c.	c #6E6200",
"d.	c #817F00",
"e.	c #746500",
"f.	c #828400",
"g.	c #776800",
"h.	c #7A7000",
"i.	c #807B00",
"j.	c #737A00",
"k.	c #748000",
"l.	c #555C00",
"  . + @ # $ @   @ % & *   = # - ; > , ' ) ! ~ + { @ ] ^ ^ / + ( ",
"_ # = : @ % ] < [ } } { ] @ # ; | > 1 ' 2 3 . 4 {   # . . 5 : 6 ",
"7 { 8 @ ] ] 9 0 a b + : c b # > d 4 e f g 4 , f h i j k 5 9 6 l ",
"m n $ 4 * : * g 7 l # ] o p ' ; q r e / i [ < i j s l t u 6 t 7 ",
"o n : v ( [ ] g 6 l k p w x 9 y 6 j > a f d 9 l s 6 t z t A B p ",
"y C [ a ' i [ b D h x x E F t G G y f d * k 2 H H G 7 I J J K L ",
"p M + ] N _ r c c O u P P Q R R G m j h 2 b D Q S R Q T O O T F ",
"z S b 2 m U V t A W X x Y Z U G H l k ] ` 2 D Q p A Q Q X V T K ",
" .t 7 H ..+. .p @.+.w P x #.$.%.+.6 j } % J t D t p E &.w 7 R Q ",
"I s B G +.R Q  .E t X 7 W M *.=.Q t o m y s p X -.t ;.>.E W H Q ",
"S -.,.%.'.R +.@.Q p J K Q R ).=.+.z 6 %.m E V E Q Q A F ,.!.#.U ",
"D l W ~.{.].R R t s A @.G ,.%.^.U B G M #.' P P W /./.+.G %...@.",
" .Q @.~.(.%._.@.s  .H M '. .R !.$.+.W ].:.6 <.p ..).#.@.../.G  .",
"V @.@.H /._.*.)...R W %.7 m W G =.W Q H +.E j B !.*.(.W ]./.K S ",
"t D H Q W M $.~.{.].Q  .m ).#.H Q Q Q W D s A R $.{./.'.j <.o K ",
"#._.U W +.../.{.*.$.W W +.=.*.#.Q Q  .z t L R +.%.H %.{._ u t G ",
"[.=.Q U /.H ..#.}.|.#.J E H %.M U ,.Q Q U ].H D Z %./.$.C z S ].",
"=.'.Q +.#.#.U %._.*.*.P 1.2.G m '.H Q W Q U :.3.>.&.c ' x V z c ",
"(...W Q ~.4.#.+.#.5.6.3.' ).H M #./...'.H Q W t 2.u s O h < 7.).",
"M %.U Q =.4.#._ 8.q N u y {.!.%.(.$.].=.'.W Q U y u E H u 3.7._.",
"G #.M H ].#.%.].;.X w p #.9.=.W =.[.]./.M H A 7 P t m ).(.s r ].",
"G $.$.#.H ].M #.U p [ O $.).(.W ].M ].(.#.H 6 #.J s :.{.{.$.Z U ",
"].#.(.*.U U _.#.M 0.O k _ $.-.].U /.@._.%. .H (.C i 1.#.#.@.].#.",
"U %.*.(.'...c $.$.' V < = $.-._ ].$.U @.m G %.).$._ 0.U ..@.M $.",
"#...#.).$.].Z 3.7.V E a.b.'.E _ C c.c L C ].=.d.{.$.@.].%.U =.*.",
"#.].U #.#.M C >.s t $.e.~.Z c h Y = /.E $.=.).f.{.{./.U /.#.'.(.",
"y o H ].(.4.}.O @.6 ^.g.e.^.#.p s D ).~.Z c ].{.h.f.a.].#.e.).M ",
"t ].U +._.{.4.#.G G 9.f.i.1.r p K ].).{.{.].+.}.f.f.j.P $.i.(.D ",
"{.$.E G H ~.4.~.M ..6.f.6.1.3.D Q W ].c /.,.'.C f.k.u D #.4.(.].",
"#.-.#.M Q +.=.=.%.M f.f.[.M x R W U ..G R Q &.8.l.;.r : (.^.(.].",
" .U #._.Q Q @.%.].{.k.g.#.].+.+.].$.].E H ..R p p -.>.1 [.} !.!.",
"Q K U ..Q Q W +.].9.|.}.M H H H #.*.$.E ..'.].S j y ).; a.[.!.M "};
