/* XPM */
static char * top_2_xpm[] = {
"32 32 107 2",
"  	c #075300",
". 	c #0E6500",
"+ 	c #383000",
"@ 	c #3A3A00",
"# 	c #2D2800",
"$ 	c #342F00",
"% 	c #28250A",
"& 	c #535D00",
"* 	c #6C6200",
"= 	c #525700",
"- 	c #3F4400",
"; 	c #2C2400",
"> 	c #005900",
", 	c #003C00",
"' 	c #525200",
") 	c #504600",
"! 	c #2B4C00",
"~ 	c #3D6300",
"{ 	c #4E5800",
"] 	c #6B6B00",
"^ 	c #6B5200",
"/ 	c #004900",
"( 	c #066A00",
"_ 	c #113400",
": 	c #274300",
"< 	c #245400",
"[ 	c #594500",
"} 	c #173B00",
"| 	c #157100",
"1 	c #126900",
"2 	c #006200",
"3 	c #302800",
"4 	c #6B4800",
"5 	c #291D00",
"6 	c #412F00",
"7 	c #4C4700",
"8 	c #0C5D00",
"9 	c #004300",
"0 	c #076100",
"a 	c #263300",
"b 	c #24241A",
"c 	c #207C00",
"d 	c #005100",
"e 	c #443F00",
"f 	c #704500",
"g 	c #634500",
"h 	c #1A4500",
"i 	c #206D00",
"j 	c #004800",
"k 	c #355B00",
"l 	c #157600",
"m 	c #086E00",
"n 	c #1B3200",
"o 	c #201D1B",
"p 	c #065800",
"q 	c #244A00",
"r 	c #004200",
"s 	c #6B5C00",
"t 	c #1C6400",
"u 	c #1D7400",
"v 	c #616100",
"w 	c #784C00",
"x 	c #3D3D00",
"y 	c #1D1D1D",
"z 	c #5C5200",
"A 	c #7F8400",
"B 	c #7C5E00",
"C 	c #241D10",
"D 	c #033403",
"E 	c #027200",
"F 	c #004D00",
"G 	c #5E6300",
"H 	c #005200",
"I 	c #018500",
"J 	c #005D00",
"K 	c #1D201B",
"L 	c #6B7500",
"M 	c #008900",
"N 	c #794D00",
"O 	c #664D00",
"P 	c #714500",
"Q 	c #065C00",
"R 	c #6B7A00",
"S 	c #3D6D00",
"T 	c #2D5300",
"U 	c #085400",
"V 	c #807600",
"W 	c #735500",
"X 	c #7A6600",
"Y 	c #217800",
"Z 	c #1A3900",
"` 	c #827D00",
" .	c #1A2A00",
"..	c #112A11",
"+.	c #262B29",
"@.	c #6E7800",
"#.	c #004000",
"$.	c #678000",
"%.	c #273700",
"&.	c #007E00",
"*.	c #3D7700",
"=.	c #376700",
"-.	c #7C7700",
";.	c #195800",
">.	c #1D7900",
",.	c #129B00",
"'.	c #1B9500",
"  . + @ @ # $ % % & * = - ; $ ; - @ > , # ' ) ! ~ % $ { ] ^ - / ",
"( $ _ - - @ ! : < ^ [ } | 1 @ ; - @ 2 ; 3 - [ 4 ' @ 5 $ 6 7 8 9 ",
"> 0 a ; b 6 . ( @ ' @ 3 > c $ $ - > d } @ $ e f g @ $ 5 h i j @ ",
"k l m n o + l 9 g [ - 5 n p $ $ q l / r - + 5 @ 7 + % o q j s 4 ",
"7 t u q o 3 9 v w g x o - ) $ $ h   _ j } ! 9 $ ; 5 y $ } z A B ",
"@ $ h } % C + [ * ' ; ; ' 4 @ ; $ n y D d 2 E | + b C $ F F G ] ",
"e 7 } } 3 % - f ' @ b + e 4 - + @ @ o _ H d i F $ b ! | m I F = ",
"4 < ( J ; $ - ) @ C ; $ + - ) @ @ ! > ( F ( K y 5 [ L c M . 9 4 ",
"N [ r K 5 5 $ $ ; $ 3 $ 3 g 4 6 3 g u   a 0 C ; e 4 ^ I E n $ 4 ",
"] O x e 3 o o o 6 ) 7 3 C 7 P [ o 3 Q @ } 9 9 q R v h S n $   0 ",
"[ & - g 7 o o 5 ' T ) + 9 C ' 7 % 5 $ - h U j 7 V ) 7 7 C - ( : ",
"7 W g g 4 + y o 7 7 [ - Q K @ ' 3 y x - u U 9 - 7 [ X ) C @ } ; ",
"P V 4 z g @ 7 6 5 # p Y 2 9 C x ) % % @ t b , Z 6 W g @ $ x _ b ",
"z W [ % @ { ` v e o  .h F u k C 6 # o % % o ..b 6 B g C $ x 9 +.",
"* A 7 y C 7 4 W w @ o , r T t % o 5 y b 3 @ $ b [ g x - 7 x , +.",
"A @.- C 5 $ - R V [ . > , 7 4 7 y y y y + - - $ @ 3 @ 4 O 9 b $ ",
"4 ) y 3 @ % $ 7 z w 7 / 9 % @ - $ o y y $ $ % h h $ e ' T r D + ",
"' - y ; 7 ' 3 @ 7 w s F u U % $ - % y b o $ ! Y Y Q } i H d #.: ",
"g 3 C y z P 7 5 7 L $.l ~ k 3 - 7 x $ 6 % o C , p > 0 H 2 m | k ",
"! $ $ y ) P 7 k | Q = > ! 4 - + v ' + ) : b y $ 7 > 9 # > l u 7 ",
"% ! - % + ' + + 1 ( ( F ! 4 7 C ) 4 + 6 ! +.; 9 j , } [ g 8 i $ ",
"b ) [ ) % %.- 7 $ F &.U T [ g C 6 - + g 7 +.D ! / J q 4 4 ' : $ ",
"$ 7 g P %.$ ! 7 - i U I k '   + 3 @ 3 e @ b 3 O T l S 7 e 3 $ ! ",
"$ + P g 6 3 6 ' T ( d m *.= H = + ' $ 5 $ C + z [ T S $ 3 3 - ' ",
"' # ) [ ' $ e u u H 9 W =.@ 9 k T 4 6 a ' + ) A 4 ' 3 $ @ $ ) W ",
"! Z $ ! 7 ! T c > , ) W z e : 2 l c x 9 ' 7 [ A s 4 x $ 6 7 - z ",
"! Z # + z P ~ < # D [ B W ' T F Q @ [ z h : + 4 X A * + 7 W ' - ",
"} $ $ % 7 4 f 7 % o v A V S l / b $ k s O + ; g A A R / ) A g + ",
"4 k 9 C ; [ P g - $ X A -.i l } y C @ : x C h T A $.  } 7 f 4 $ ",
"7 F 7 - y % ) ) @ - A A ^ -   o K $ # 5 o y ;.u & ( E m g [ [ + ",
"..$ 7 7 y y ; $ + 4 ` W 7 $ 5 ; + ) @ 9 ; 3 o 9 F   >.,.^ 7 - 6 ",
"y o 3 3 y y 5 ; $ G N O - 3 % 3 ) f < 9 % - x _ . ! z '.* ^ - - "};
