/* XPM */
static char * top_3_xpm[] = {
"32 32 128 2",
"  	c #005700",
". 	c #106A00",
"+ 	c #393300",
"@ 	c #363C00",
"# 	c #2C2C02",
"$ 	c #333400",
"% 	c #292415",
"& 	c #565D00",
"* 	c #696900",
"= 	c #555800",
"- 	c #434500",
"; 	c #1A2C00",
"> 	c #2C2800",
", 	c #005C00",
"' 	c #003D00",
") 	c #525100",
"! 	c #504A00",
"~ 	c #484200",
"{ 	c #2F6900",
"] 	c #646D00",
"^ 	c #6E5600",
"/ 	c #004600",
"( 	c #006D00",
"_ 	c #254600",
": 	c #355400",
"< 	c #595100",
"[ 	c #227800",
"} 	c #006700",
"| 	c #312B00",
"1 	c #433600",
"2 	c #006400",
"3 	c #2E3300",
"4 	c #25220F",
"5 	c #3C3E00",
"6 	c #085E00",
"7 	c #277C00",
"8 	c #005400",
"9 	c #655500",
"0 	c #2B2200",
"a 	c #207100",
"b 	c #004B00",
"c 	c #243C00",
"d 	c #365F00",
"e 	c #1D7A00",
"f 	c #007200",
"g 	c #003500",
"h 	c #211D19",
"i 	c #343603",
"j 	c #655200",
"k 	c #2B4C00",
"l 	c #004D00",
"m 	c #696500",
"n 	c #4D4700",
"o 	c #286700",
"p 	c #004E00",
"q 	c #326700",
"r 	c #7C5D00",
"s 	c #294500",
"t 	c #1D1D1D",
"u 	c #5C5300",
"v 	c #7E8700",
"w 	c #7E6B00",
"x 	c #1A3500",
"y 	c #05360B",
"z 	c #007600",
"A 	c #157500",
"B 	c #004F00",
"C 	c #5C6800",
"D 	c #424400",
"E 	c #494C00",
"F 	c #755600",
"G 	c #005500",
"H 	c #344E00",
"I 	c #008A00",
"J 	c #006000",
"K 	c #192211",
"L 	c #717100",
"M 	c #008D00",
"N 	c #008E00",
"O 	c #004700",
"P 	c #217D00",
"Q 	c #1F3100",
"R 	c #685800",
"S 	c #7A7A00",
"T 	c #005B00",
"U 	c #736400",
"V 	c #005800",
"W 	c #24251D",
"X 	c #7F8000",
"Y 	c #243B00",
"Z 	c #4E5A00",
"` 	c #182A15",
" .	c #272B2A",
"..	c #053D00",
"+.	c #6D7A00",
"@.	c #7E7B00",
"#.	c #757E00",
"$.	c #304800",
"%.	c #2F5500",
"&.	c #126D00",
"*.	c #709A00",
"=.	c #009200",
"-.	c #007000",
";.	c #1C9500",
">.	c #211E00",
",.	c #1F1C00",
"'.	c #221F00",
").	c #132500",
"!.	c #033500",
"~.	c #2D6700",
"{.	c #2D4E00",
"].	c #2F5F00",
"^.	c #2D440A",
"/.	c #2D5D00",
"(.	c #228300",
"_.	c #364C13",
":.	c #3B4523",
"<.	c #009A00",
"[.	c #007500",
"}.	c #267A00",
"|.	c #009600",
"1.	c #336D00",
"2.	c #2A5206",
"3.	c #345313",
"4.	c #2E7D00",
"5.	c #327100",
"6.	c #188600",
"7.	c #365300",
"  . + @ @ # $ % % & * = - ; $ > - @ , ' # ) ! ~ { > $ = ] ^ - / ",
"( $ $ - - @ ~ _ : ^ < / [ . + > - @ } # | - < ^ ! @ > $ 1 ! } / ",
", 2 3 # 4 5 . ( @ ) @ | 6 7 + $ - , 8 ' @ | ~ ^ 9 @ $ 0 - a b c ",
"d e f g h i [ b j < - 0 > 6 3 + k e l / - @ 0 1 ~ + > h 8 b m ^ ",
"n o 7 p 4 $ c q r j 5 4 - n $ $ s   g p c ~ / $ # 0 t $ $ u v w ",
"5 $ s $ 0 4 + < * ) > 0 ) ^ 5 0 + x h y 8 } z A @ 4 h i 8 B C ] ",
"D E + / $ % D F ) @ 4 i D ^ ~ + + @ t y G G A B | % H a f I B ) ",
"m : ( J ; $ D ! @ 4 > + i ~ ! @ s ~ , ( l ( K t 0 < L M N . s ^ ",
"r < O K 0 0 $ | | i | $ $ j ^ 1 | j P 8 ' 2 K > ~ j * I z Q + R ",
"* j 5 D | h h h 1 ! ~ | 4 E F ) h | 6 @ $ / / D S R s a 3 $ T 2 ",
"< & - j ! h t 0 ) ! ) + / 4 ) E # 4 $ - D 8 p n S E ! E 0 - . _ ",
"n U j j 9 @ t h ~ n ) ~ 6 K @ ) | t 5 - 7 V O H E < S n W @ c > ",
"F X ^ u j @ n 1 0 | 6 7 2 / 4 5 ! W # @ o 4 ' Y D U ^ i | 5 x W ",
"u U ) # @ Z v ^ D h 4 p B [ d W 1 # t % % h ` W D U j W i 5 /  .",
"* v n t W E 9 U L @ h ' / : o % h 0 t 4 | @ $ % ) j 5 D n @ .. .",
"v +.- 4 0 $ D S @.< o , ' n R E t t t t i - ~ | 1 | @ ^ ^ / W $ ",
"#.& t $ 5 > $ 9 w @.E p / # + $.$ h t t $ i > @ s @ s ) %./ Y ~ ",
"j D t 0 E ! | 5 j v ^ l a : % Y - % t % t $ k 7 7 6 @ &.G 8 p : ",
"^ | 4 t u F n % & *.*.e &.< $ 1 E 1 $ 1 # t 4 ' 6 , 2 V 2 e =.^ ",
"- @ $ t ! F n d e z -., H ^ 1 $ 9 ) i ! 5 W t $ H T / ; 6 ;.=.E ",
"% ~ - % + ! @ $ . e z B ~ ^ E W ) ^ @ 5 ~ # > / p ' i < R { A c ",
"W ! < ) > @ - E i T A B ) < j W @ - + j n % x E O p _ ^ m ) s # ",
"> E ) ^ # 0 - - - a T ( 6 ! _ @ # $ > D @ W | j H . o ~ - > + ~ ",
"0 > < ) | >.@ = H ( G 6 [ - l : | ! 0 h 0 h | ! : H a 4 ,.'.5 ) ",
"E ).E n ~ 4 + ( } O c < : + ' H s ) $ ).- > @ C ) E ,.0 > 4 1 < ",
"@ '.4 @ - @ _ f l !.s u ~ + x b 6 ~.$ x B 1 - ] ) ) 3 0 3 1 + H ",
"+ ; 4 > n ) : l K ).1 q < 5 c O B Q ~ E + c ; : & C n > 5 < - i ",
"y % > ; 5 ) ) 5 ,.t E < ) V 8 ' W ; - : ~  .4 E < < n g D < n x ",
"- @ @ _ 3 s ) E $ ,.~ ) ) V p Q # Q Q + $ + {.@ ! : g !.+ ) E > ",
"+ : f ].@ $ @ @ > > 5 D 5 c 3  .^.^.+ + /.(.]._ s / x $ $ 5 5 > ",
"c {._.:.].: # # @ _ > 0 0 ; _ %.-.<.[.].}.|.1._.$._ %.1.x % > 3 ",
"$.2._.3.4.5.^._ /.%.Y x 3 T ~.I M I 3._.~.}.6.7._._.3.1.^._ o Z "};
