/* XPM */
static char *result[] = {
/* columns rows colors chars-per-pixel */
"48 48 13 1 ",
"  c black",
". c #171724",
"X c #2E2B3B",
"o c #3E463E",
"O c #45454F",
"+ c #4A5455",
"@ c #5A5F67",
"# c #69837B",
"$ c #7B838D",
"% c #A8B9B8",
"& c #D5DDDD",
"* c #F4F4F4",
"= c None",
/* pixels */
"================================================",
"================================================",
"================================================",
"================================================",
"=====================XXXXX..====================",
"==================XXX@$$$$$$...=================",
"================XXO@@$$$$$$$$$$..===============",
"===============XO@@$$$$$$$$$$$$$$.==============",
"==============.O@@$$$$$$$$$$$$$$$$.=============",
"=============.O@@$$$$$$$$$$$$$$$$$$.============",
"============.O@@@$$@$$$$$$$$$$$$$$$O.===========",
"===========.XO@@@@@$$$$$$$$$$$$$$$@@O.==========",
"===========.XOO@@@@$$$@@@@$$$$$@@@@@O.==========",
"===========.XOOO@@$$$@@@$$$$@@@@@@@@OO.=========",
"==========.XOOOOO@$$@@@$$@@@@OOOOOOOOO.=========",
"==========.XOOOO@@$$@@$$@@OOO......OOO.=========",
"==========.XOOOO@$$@@$$$@OO..+####+.OO.=========",
"==========.XOOOO@$$@$$@@OO.+#######+.O.=========",
"=========.XOOXOO@$@@$$OOO.#%%%%%%%%+..==========",
"=========.XOXXOO@@@@$@OO.+%&&*&&&&%+..==========",
"=========.XOXXOO@@@@$@OO.#%#++#%&&#o..==========",
"========..XXXXO@@@@@$@OO.##+ooo#&&#o.===========",
"========..XXXXOO@@@@$@O.%&+oooo+%&%#.===========",
"========..XXXXXOO@@@@@O.%&+oooo+%&%#============",
"========..XXXXXXOOOO@@O.%&#+oo+#&&+#============",
"========..XXXXXXOOOO@@O.%&&#++#%&%++============",
"======== ..XXXXXXXOOOOO.#&&&&****+++============",
"========= ..XXXXXXXXXXX.#&%&&&&&&&##============",
"========= ......XXXXXXXO.%ooo##&#%#=============",
"========== ........XXXXO.o##+++#++o=============",
"===========  ..........OO.  #%#&#%+=============",
"=============  .........OO..      ==============",
"===============  ...XXXX.OOO.. =================",
"=================  XOOOOX..OOO =================",
"================= XO@$@OX .... =================",
"================= O@OO@OX ... ==================",
"================ .O@@@OXX XX ===================",
"================ .XXOOX.. XX ===================",
"================ O.XXX..O XX ===================",
"================  O@@@OO. OX. ==================",
"================ X       XOOX ==================",
"=============== XXX % # XO@OX. =================",
"============== XXXXX   XXXXXX. =================",
"============= .X..XOOOOOOOX..X. ================",
"============= .OX..XXXOXXX..XO. ================",
"============= ..OOO@@@@@@@OOO.. ================",
"============== ...XXOOOOOXX... =================",
"===============               =================="
};
