/* XPM */
static char *result[] = {
/* columns rows colors chars-per-pixel */
"48 48 11 1 ",
"  c black",
". c #171724",
"X c #2E2B3B",
"o c #4E1841",
"O c #75395E",
"+ c #45454F",
"@ c #4A5455",
"# c #5A5F67",
"$ c #7B838D",
"% c #A8B9B8",
"& c None",
/* pixels */
"&&&&&&&&&&&&&&&&&&&&&&&&&&&&&&&&&&&&&&&&&&&&&&&&",
"&&&&&&&&&&&&&&&&&&&&&&&&&&&&&&&&&&&&&&&&&&&&&&&&",
"&&&&&&&&&&&&&&&&&&&&&&&&&&&&&&&&&&&&&&&&&&&&&&&&",
"&&&&&&&&&&&&&&&&&&&&&XXXXX&&&&&&&&&&&&&&&&&&&&&&",
"&&&&&&&&&&&&&&&&&&XXX+++++XXX&&&&&&&&&&&&&&&&&&&",
"&&&&&&&&&&&&&&&&XX+++++++++++XX&&&&&&&&&&&&&&&&&",
"&&&&&&&&&&&&&&&X++++#######++++X&&&&&&&&&&&&&&&&",
"&&&&&&&&&&&&&&X+++###########+++X&&&&&&&&&&&&&&&",
"&&&&&&&&&&&&&.+++####$$$$$####+##X&&&&&&&&&&&&&&",
"&&&&&&&&&&&&.+++###$$$$$$$$$#####+X&&&&&&&&&&&&&",
"&&&&&&&&&&&.X++##$$$$$$$$$$$$$##++X.&&&&&&&&&&&&",
"&&&&&&&&&&&.++##$$$#####$$$$$$##++XX.&&&&&&&&&&&",
"&&&&&&&&&&.++##$$####$$$$$$$$##+++XX.&&&&&&&&&&&",
"&&&&&&&&&.++##$###############+++++XX.&&&&&&&&&&",
"&&&&&&&&&.+##$################+++++XX.&&&&&&&&&&",
"&&&&&&&&.X+#$###############+++++++XXX.&&&&&&&&&",
"&&&&&&&&.X+########++++++++++++++++XXX.&&&&&&&&&",
"&&&&&&&&.+#############+++++++++++XXXX.&&&&&&&&&",
"&&&&&&&&.+##################+++++XXXXX.&&&&&&&&&",
"&&&&&&&&.+###+############++++++XXXXXX.&&&&&&&&&",
"&&&&&&&&.+###++++++++++++++++++XXXXXXX.&&&&&&&&&",
"&&&&&&&&.+####++XXX++++++++XXXXXX+++XX.&&&&&&&&&",
"&&&&&&&&.+#####+++XXXXXXXXXXXXX+++++XX.&&&&&&&&&",
"&&&&&&&&.X+#####++++XXXXXXX+++++++++XX.&&&&&&&&&",
"&&&&&&&&.X++######++++++++++###++++XXX.&&&&&&&&&",
"&&&&&&&&.XX++################++++XXXXX.&&&&&&&&&",
"&&&&&&&& XXX+++############++++XXXXXXX &&&&&&&&&",
"&&&&&&&& .XXXX++++######++++++XXXXXXX. &&&&&&&&&",
"&&&&&&&&& .XXXXXX+++++++++++XXXXXXXX. &&&&&&&&&&",
"&&&&&&&&&& .XXXXXXXXXXXXXXXXXXXXXXX. &&&&&&&&&&&",
"&&&&&&&&&&& .XXXXXXXXXXXXXXXXXXXXX. &&&&&&&&&&&&",
"&&&&&&&&&&&&   ..XXXXXXXXXXXXX..   &&&&&&&&&&&&&",
"&&&&&&&&&&&.++   .XXXXXXXXXXX.   ++.&&&&&&&&&&&&",
"&&&&&&&&&&.+#+X                 X+#+.&&&&&&&&&&&",
"&&&&&&&&&.+$$#+..  .........  ..+#$$+.&&&&&&&&&&",
"&&&&&&&&&.+###+.  ..X+++++X..  .+###+.&&&&&&&&&&",
"&&&&&&&&.X+#$#+X  XX++###++XX  X+#$#+X.&&&&&&&&&",
"&&&&&&&&.XX+#++ & X+#######+X & ++#+XX.&&&&&&&&&",
"&&&&&&&&.++++XX & X++#####++X & XX++++.&&&&&&&&&",
"&&&&&&&&&..##++ & XXX+###+XXX & ++##..&&&&&&&&&&",
"&&&&&&&&&  .... O X+XX+++XX+X o ....  &&&&&&&&&&",
"&&&&&&&&&@%      XX++#####++XX      %@&&&&&&&&&&",
"&&&&&&&&&&   && ..XX++###++XX.. &&   &&&&&&&&&&&",
"&&&&&&&&&&&&&& .X..X+++++++X..X. &&&&&&&&&&&&&&&",
"&&&&&&&&&&&&&& .+X..XXX+XXX..X+. &&&&&&&&&&&&&&&",
"&&&&&&&&&&&&&& ..+++#######+++.. &&&&&&&&&&&&&&&",
"&&&&&&&&&&&&&&& ...XX+++++XX... &&&&&&&&&&&&&&&&",
"&&&&&&&&&&&&&&&&               &&&&&&&&&&&&&&&&&"
};
