/* XPM */
static char * ennemis_face_walk_2_xpm[] = {
"32 32 397 2",
"  	c #59750A",
". 	c #538200",
"+ 	c #449B00",
"@ 	c #405B24",
"# 	c #4A4D45",
"$ 	c #65A200",
"% 	c #567B01",
"& 	c #464744",
"* 	c #4C5735",
"= 	c #4A533C",
"- 	c #4D6B18",
"; 	c #516E13",
"> 	c #638E00",
", 	c #4B5C30",
"' 	c #51730B",
") 	c #4A6226",
"! 	c #749C00",
"~ 	c #494C42",
"{ 	c #3E7400",
"] 	c #328A00",
"^ 	c #495334",
"/ 	c #474A42",
"( 	c #3C8200",
"_ 	c #5A8500",
": 	c #4B7402",
"< 	c #4E6521",
"[ 	c #438A00",
"} 	c #465935",
"| 	c #2B6219",
"1 	c #369300",
"2 	c #48A200",
"3 	c #4F9200",
"4 	c #444642",
"5 	c #4A6222",
"6 	c #50681F",
"7 	c #49513C",
"8 	c #306A0C",
"9 	c #569700",
"0 	c #44523B",
"a 	c #48720D",
"b 	c #308200",
"c 	c #578B00",
"d 	c #3D4833",
"e 	c #394733",
"f 	c #403F4A",
"g 	c #393741",
"h 	c #37363E",
"i 	c #337117",
"j 	c #36631A",
"k 	c #377306",
"l 	c #4D7B00",
"m 	c #5D9E00",
"n 	c #4A5D2A",
"o 	c #353341",
"p 	c #45454F",
"q 	c #4A4B54",
"r 	c #4B4D56",
"s 	c #3A3845",
"t 	c #36473A",
"u 	c #539807",
"v 	c #6A9300",
"w 	c #3F6A2B",
"x 	c #41414C",
"y 	c #555961",
"z 	c #595E66",
"A 	c #5A5F67",
"B 	c #555962",
"C 	c #44444E",
"D 	c #4B5B3A",
"E 	c #639B00",
"F 	c #82AD00",
"G 	c #589400",
"H 	c #6B8400",
"I 	c #456B1C",
"J 	c #3F3F49",
"K 	c #464750",
"L 	c #565A63",
"M 	c #5C626A",
"N 	c #646A73",
"O 	c #7B838D",
"P 	c #6B717A",
"Q 	c #61676F",
"R 	c #314B2D",
"S 	c #4D8F02",
"T 	c #347B00",
"U 	c #355B24",
"V 	c #7BA500",
"W 	c #353B2C",
"X 	c #32313E",
"Y 	c #6E757E",
"Z 	c #767D87",
"` 	c #79818B",
" .	c #737B84",
"..	c #3F3F4A",
"+.	c #2E5025",
"@.	c #3E8C00",
"#.	c #4C6B0D",
"$.	c #72A300",
"%.	c #44611D",
"&.	c #2F2F36",
"*.	c #5C616A",
"=.	c #32323C",
"-.	c #6A8E0A",
";.	c #7CA900",
">.	c #417B00",
",.	c #292A30",
"'.	c #646A72",
").	c #757D87",
"!.	c #707780",
"~.	c #303732",
"{.	c #46700A",
"].	c #436918",
"^.	c #4FA900",
"/.	c #4A6417",
"(.	c #2B2B36",
"_.	c #696F78",
":.	c #626770",
"<.	c #7A818B",
"[.	c #767E87",
"}.	c #5D626A",
"|.	c #3D3D47",
"1.	c #3A4B26",
"2.	c #2B3327",
"3.	c #464751",
"4.	c #747B85",
"5.	c #5E636C",
"6.	c #4B4C56",
"7.	c #52555E",
"8.	c #50545C",
"9.	c #262531",
"0.	c #2B3427",
"a.	c #4A4C55",
"b.	c #575B63",
"c.	c #3B3A46",
"d.	c #282435",
"e.	c #2A2E35",
"f.	c #374344",
"g.	c #3B4848",
"h.	c #2A2F35",
"i.	c #282735",
"j.	c #302E3B",
"k.	c #51545C",
"l.	c #585D65",
"m.	c #737A84",
"n.	c #282833",
"o.	c #559B00",
"p.	c #314C1E",
"q.	c #545761",
"r.	c #474751",
"s.	c #3C3B47",
"t.	c #2A2C35",
"u.	c #566A65",
"v.	c #627973",
"w.	c #688179",
"x.	c #69847C",
"y.	c #5E746E",
"z.	c #3A4145",
"A.	c #494A54",
"B.	c #6A7079",
"C.	c #272732",
"D.	c #32511E",
"E.	c #585B64",
"F.	c #2A2D36",
"G.	c #495354",
"H.	c #475150",
"I.	c #4E5C59",
"J.	c #9AACAA",
"K.	c #A7B9B8",
"L.	c #A8B9B8",
"M.	c #5C706B",
"N.	c #47504F",
"O.	c #485251",
"P.	c #353C40",
"Q.	c #302E3C",
"R.	c #545861",
"S.	c #707781",
"T.	c #2F481E",
"U.	c #282535",
"V.	c #414A4C",
"W.	c #404943",
"X.	c #3E463E",
"Y.	c #404843",
"Z.	c #738782",
"`.	c #CBD4D4",
" +	c #CBD5D5",
".+	c #97A8A4",
"++	c #3E463D",
"@+	c #3F473F",
"#+	c #1D1C2A",
"$+	c #51555E",
"%+	c #2C3129",
"&+	c #3B3B48",
"*+	c #485655",
"=+	c #728682",
"-+	c #D5DDDD",
";+	c #D6DEDE",
">+	c #9AAAA7",
",+	c #3E463F",
"'+	c #1E1C2A",
")+	c #4D5059",
"!+	c #1E1C2B",
"~+	c #2D3823",
"{+	c #27272F",
"]+	c #4A4B55",
"^+	c #262233",
"/+	c #879896",
"(+	c #4D5B58",
"_+	c #B7C2C1",
":+	c #E7EAEA",
"<+	c #A5B3B0",
"[+	c #DCE2E2",
"}+	c #D5DCDC",
"|+	c #8FA29F",
"1+	c #1E1D2B",
"2+	c #454650",
"3+	c #3C3C45",
"4+	c #151521",
"5+	c #1A3217",
"6+	c #2C2938",
"7+	c #889896",
"8+	c #B6C4C3",
"9+	c #EFF0F0",
"0+	c #F4F4F4",
"a+	c #DADDDC",
"b+	c #4A5A58",
"c+	c #9AA4A1",
"d+	c #F5F5F5",
"e+	c #F3F3F3",
"f+	c #9EB0AE",
"g+	c #21202D",
"h+	c #42414C",
"i+	c #2E352B",
"j+	c #719A00",
"k+	c #337200",
"l+	c #3F522E",
"m+	c #44581C",
"n+	c #2D2B37",
"o+	c #354042",
"p+	c #6E7875",
"q+	c #818988",
"r+	c #A8B5B2",
"s+	c #DEE4E4",
"t+	c #D6DCDC",
"u+	c #BDC5C5",
"v+	c #C6CDCD",
"w+	c #CDD5D4",
"x+	c #848F8E",
"y+	c #79817E",
"z+	c #485553",
"A+	c #3A3945",
"B+	c #263708",
"C+	c #333B22",
"D+	c #292635",
"E+	c #2E2B3B",
"F+	c #374341",
"G+	c #51635B",
"H+	c #8A9494",
"I+	c #787F80",
"J+	c #C3C8C6",
"K+	c #909D99",
"L+	c #868B8B",
"M+	c #ADB5B5",
"N+	c #55645F",
"O+	c #50645E",
"P+	c #2A2736",
"Q+	c #2D2A39",
"R+	c #435616",
"S+	c #316219",
"T+	c #12121D",
"U+	c #43424C",
"V+	c #6F7B7A",
"W+	c #657171",
"X+	c #ACB8B6",
"Y+	c #849490",
"Z+	c #798282",
"`+	c #899897",
" @	c #414E4B",
".@	c #3E3D47",
"+@	c #353441",
"@@	c #14121C",
"#@	c #32461E",
"$@	c #61A000",
"%@	c #3F701C",
"&@	c #44454F",
"*@	c #1E1E24",
"=@	c #43434D",
"-@	c #4E5159",
";@	c #16171C",
">@	c #121518",
",@	c #252B2B",
"'@	c #202526",
")@	c #05050C",
"!@	c #3C3F45",
"~@	c #33333B",
"{@	c #2D2C38",
"]@	c #4F525B",
"^@	c #313B2E",
"/@	c #558802",
"(@	c #46631D",
"_@	c #3E6219",
":@	c #32303D",
"<@	c #565A62",
"[@	c #242231",
"}@	c #27272E",
"|@	c #3B3B45",
"1@	c #393A43",
"2@	c #2B3136",
"3@	c #31343B",
"4@	c #30323A",
"5@	c #212127",
"6@	c #191825",
"7@	c #626870",
"8@	c #2A3229",
"9@	c #376B0D",
"0@	c #4F9A00",
"a@	c #30431E",
"b@	c #41414B",
"c@	c #50535C",
"d@	c #000000",
"e@	c #282834",
"f@	c #363640",
"g@	c #252531",
"h@	c #0C0B13",
"i@	c #373640",
"j@	c #363442",
"k@	c #22212E",
"l@	c #509B00",
"m@	c #408300",
"n@	c #397F0B",
"o@	c #4C5058",
"p@	c #2F3C38",
"q@	c #33313F",
"r@	c #3C3C46",
"s@	c #14121B",
"t@	c #363932",
"u@	c #292934",
"v@	c #3C4D2A",
"w@	c #3F6123",
"x@	c #316119",
"y@	c #232A2E",
"z@	c #133300",
"A@	c #100E16",
"B@	c #44434E",
"C@	c #1D1A26",
"D@	c #3B4925",
"E@	c #314819",
"F@	c #28461E",
"G@	c #1D3E1E",
"H@	c #50655D",
"I@	c #496809",
"J@	c #479900",
"K@	c #386320",
"L@	c #1A2320",
"M@	c #262A21",
"N@	c #565B63",
"O@	c #343140",
"P@	c #25272B",
"Q@	c #4E8A00",
"R@	c #4D8E00",
"S@	c #44601C",
"T@	c #40433B",
"U@	c #88B000",
"V@	c #559000",
"W@	c #223010",
"X@	c #1C1B29",
"Y@	c #252332",
"Z@	c #40404B",
"`@	c #2A2837",
" #	c #191926",
".#	c #100F19",
"+#	c #4E7E00",
"@#	c #3C7A00",
"##	c #357A00",
"$#	c #13131E",
"%#	c #262432",
"&#	c #353340",
"*#	c #302F3C",
"=#	c #312F3D",
"-#	c #253608",
";#	c #517900",
">#	c #182219",
",#	c #252530",
"'#	c #555861",
")#	c #4D505A",
"!#	c #3D3D48",
"~#	c #13131F",
"{#	c #323E1F",
"]#	c #07070E",
"^#	c #06060D",
"/#	c #13111B",
"(#	c #1E1D24",
"_#	c #212126",
":#	c #0A0911",
"<#	c #506404",
"[#	c #3F493C",
"}#	c #3C3C3C",
"|#	c #334326",
"  . + @ #   $ % & & * = * %   - ; > -   % , ' % ; # # ) - , ' ! ",
"~ { ] ^ / * ( _ / / :   # , < * % ; < % ; < ' ( [ & # ;   } } ' ",
"_ <   ; @ | 1 2 3 ) )   % , 4 5 6 7 = < ) : 8 + 9 < # / = 0 & a ",
"  ' = % ! % b [ ' c % ) d e f f f g h i j ' < @ ~ # # # # = = k ",
"# # / , l 9 m .   ' n o p q r r r r p s t u - * ) l c >   ' - } ",
"< = ^   )   v m 3 w x p y z A A A A B q C D c c E F m v l , ^ # ",
"< ~ | G H < < - I J K L M N O O O P Q z q p R S G _ : T # & / & ",
"~ U @ V V   % W X p L Y Z O O O O O `  .z q ..+.[ % c @.' #.= < ",
"& & ~ [ $.% %.&.K L P O O O O O O O O O Z *.q =.-.F ;.;.3 >.% % ",
"& ~ # >.3 % ,...L Y P O Z '.'.'.'.'.P O ).!.z q ~.{.1 a ].) - , ",
", ' ].^.+ /.(.B _.:.<.:.A A A A A A A A [.N !.}.|.1.k ].~ ^ # ~ ",
"' - a [ } 2.3.z 4.z 5.6.r r r r r r r r 7.}.N N 8.9.* # #.: = _ ",
"' -   - * 0.a.4.b.b.c.d.e.f.g.g.g.g.h.i.j.k.l.m.y n.. l : , ' o.",
"9 F m ' ) p.q._.r.s.t.u.v.w.x.x.x.x.v.y.z.j.A.}.B.C.c V _ ' _ _ ",
"V ; = # ; D.E.N c.F.G.H.I.J.K.K.K.L.M.N.O.P.Q.R.S.C.  ! F c % < ",
"- } # = . T.E.N U.V.W.X.Y.Z.`.`. +.+N.++@+O.#+$+S.C., ) H 9 G % ",
"' c ; l % %+&+z U.*+Y.X.Y.=+-+;+;+>+N.++,+I.'+$+)+!+# # # < - % ",
"_ - -   ; ~+{+]+^+/+M.N.(+_+:+<+[+}+M.N.I.|+1+2+3+4+! 3 _ - = } ",
"% } = ) ) : 5+J 6+7+8+;+9+0+a+b+c+d+e+[+ +f+g+h+i+j+;.! $.' ].* ",
"k+/ l+k+@ : m+n+J o+p+q+r+s+t+u+v+s+w+x+y+z+X A+B+[ + T j = % ' ",
"- @ 8 ] { E - C+D+E+F+G+H+I+J+J+K+L+M+N+O+P+Q+R+_ + 2 + >.% . ) ",
"H > ( T >.V _ S+T+D+U+F+V+W+X+X+Y+Z+`+ @.@+@@@#@$@9 b b   >.k+#.",
"- . > #.>.F %@&@L s.*@=@-@;@>@,@'@)@!@a.~@{@]@]@^@/@% < - ) _ V ",
"- j #.(@< _@:@<@Y r [@*@}@|@1@2@3@|.4@5@6@..7@7@..8@1 9@< c F 0@",
"> - 0 ].8 a@o b@c@..d@d@1+9.e@|.f@g@1+h@d@i@3.q j@k@< ' . 3   ) ",
"l@m@(@- + n@n.o@c@..p@p@q@k.J r@|.8.s.s@t@f@3.B u@v@_ o.c ] w@# ",
"^ k+{ - % G ! x@y@y@z@A@q@B@A A A r s.C@D@E@F@G@H@I@_ - ].+ l@' ",
"/ @.J@c l ' k+0@K@L@M@Q+f c@A A A N@f O@P@Q@R@S@T@' ; = } ].. c ",
"~ _ U@> k+@ 8 + V@W@X@Y@o p B y B q Z@`@ #.#+#^ & ~ < _ 3 ' @#+ ",
"; l@E ].2 T , j ##$#c.X@%#o &#b@o o *#6@=#C.-#/ / ; G m l l ( ) ",
"c ' , - 2 % } * ;#>#,#|.2+'#B B B B )#!#f@~#{#, < %   , / l+: ' ",
"' * ) ; - , , c l@I@]#^#/#(#_#_#_#_#/#:#^#<#. G ' ( ^ l+[#}#|##."};
