/* XPM */
static char * ennemis_face_stand_xpm[] = {
"32 32 420 2",
"  	c #59750A",
". 	c #538200",
"+ 	c #449B00",
"@ 	c #405B24",
"# 	c #4A4D45",
"$ 	c #65A200",
"% 	c #567B01",
"& 	c #464744",
"* 	c #4C5735",
"= 	c #4A533C",
"- 	c #4D6B18",
"; 	c #516E13",
"> 	c #638E00",
", 	c #4B5C30",
"' 	c #51730B",
") 	c #4A6226",
"! 	c #749C00",
"~ 	c #494C42",
"{ 	c #3E7400",
"] 	c #328A00",
"^ 	c #495334",
"/ 	c #474A42",
"( 	c #3C8200",
"_ 	c #5A8500",
": 	c #4B7402",
"< 	c #4E6521",
"[ 	c #438A00",
"} 	c #465935",
"| 	c #2B6219",
"1 	c #369300",
"2 	c #48A200",
"3 	c #4F9200",
"4 	c #4E6D1B",
"5 	c #455233",
"6 	c #353341",
"7 	c #40453D",
"8 	c #444B3B",
"9 	c #4D6323",
"0 	c #306A0C",
"a 	c #569700",
"b 	c #44523B",
"c 	c #48720D",
"d 	c #308200",
"e 	c #578B00",
"f 	c #507117",
"g 	c #373E37",
"h 	c #403F4A",
"i 	c #45454F",
"j 	c #41414C",
"k 	c #35483A",
"l 	c #324B2F",
"m 	c #377306",
"n 	c #4D7B00",
"o 	c #5D9E00",
"p 	c #4C6A1B",
"q 	c #3A3845",
"r 	c #4B4D56",
"s 	c #565B63",
"t 	c #5A5F67",
"u 	c #464751",
"v 	c #477929",
"w 	c #6A9300",
"x 	c #488509",
"y 	c #3B4142",
"z 	c #51545D",
"A 	c #747B84",
"B 	c #747B85",
"C 	c #616770",
"D 	c #3E6219",
"E 	c #639B00",
"F 	c #82AD00",
"G 	c #589400",
"H 	c #6B8400",
"I 	c #46611B",
"J 	c #2C2B37",
"K 	c #4F525B",
"L 	c #6B717A",
"M 	c #7B838D",
"N 	c #767D87",
"O 	c #646A72",
"P 	c #565A63",
"Q 	c #464750",
"R 	c #3D3D47",
"S 	c #3D7018",
"T 	c #347B00",
"U 	c #355B24",
"V 	c #7BA500",
"W 	c #2A2F29",
"X 	c #41414B",
"Y 	c #7A818B",
"Z 	c #6E757E",
"` 	c #44444E",
" .	c #262631",
"..	c #3E8C00",
"+.	c #4C6B0D",
"@.	c #72A300",
"#.	c #374C22",
"$.	c #626870",
"%.	c #757D86",
"&.	c #79818B",
"*.	c #737B84",
"=.	c #686F78",
"-.	c #494A54",
";.	c #3B4C25",
">.	c #7FA803",
",.	c #7CA900",
"'.	c #417B00",
").	c #262531",
"!.	c #50545C",
"~.	c #696F78",
"{.	c #61676F",
"].	c #595E66",
"^.	c #5C626A",
"/.	c #646A73",
"(.	c #6D747D",
"_.	c #383843",
":.	c #436B0D",
"<.	c #436918",
"[.	c #4FA900",
"}.	c #2E3D20",
"|.	c #3C3B47",
"1.	c #6D737D",
"2.	c #555961",
"3.	c #555962",
"4.	c #5F646C",
"5.	c #656B73",
"6.	c #5B5F68",
"7.	c #21202D",
"8.	c #2B3427",
"9.	c #343240",
"0.	c #282833",
"a.	c #32303D",
"b.	c #3B3A46",
"c.	c #5D626A",
"d.	c #707780",
"e.	c #292933",
"f.	c #4E505A",
"g.	c #4A4B55",
"h.	c #464852",
"i.	c #292835",
"j.	c #374444",
"k.	c #536361",
"l.	c #637B74",
"m.	c #68827A",
"n.	c #546361",
"o.	c #435150",
"p.	c #2A2D35",
"q.	c #6A7079",
"r.	c #5D626B",
"s.	c #282832",
"t.	c #559B00",
"u.	c #314C1E",
"v.	c #585B65",
"w.	c #252431",
"x.	c #434C4E",
"y.	c #52605F",
"z.	c #596C68",
"A.	c #90A4A0",
"B.	c #9BADAB",
"C.	c #647C75",
"D.	c #485253",
"E.	c #393844",
"F.	c #707781",
"G.	c #272732",
"H.	c #32511E",
"I.	c #292635",
"J.	c #414A4C",
"K.	c #454E4C",
"L.	c #3E463E",
"M.	c #404843",
"N.	c #8B9C9A",
"O.	c #B5C3C3",
"P.	c #A2B3B1",
"Q.	c #475150",
"R.	c #404943",
"S.	c #495354",
"T.	c #1E1C2A",
"U.	c #51555E",
"V.	c #707680",
"W.	c #252430",
"X.	c #2F481E",
"Y.	c #454752",
"Z.	c #414944",
"`.	c #617872",
" +	c #D5DDDD",
".+	c #D6DEDE",
"++	c #8FA19C",
"@+	c #5A5E68",
"#+	c #1D1B2A",
"$+	c #2B3129",
"%+	c #312F3B",
"&+	c #52555D",
"*+	c #272334",
"=+	c #6E817D",
"-+	c #4D5C59",
";+	c #3D4640",
">+	c #3F4B46",
",+	c #A2B0AF",
"'+	c #DCE2E2",
")+	c #C6D0CF",
"!+	c #D8DFE0",
"~+	c #C1CCCC",
"{+	c #4B5A57",
"]+	c #434E49",
"^+	c #748984",
"/+	c #4D5059",
"(+	c #3F3F49",
"_+	c #1B1A28",
":+	c #475C22",
"<+	c #18161E",
"[+	c #252132",
"}+	c #93A2A2",
"|+	c #A5B4B2",
"1+	c #BEC5C5",
"2+	c #D9DADA",
"3+	c #E8EAEA",
"4+	c #E0E3E2",
"5+	c #647471",
"6+	c #B1BCB9",
"7+	c #F0F1F1",
"8+	c #DADDDC",
"9+	c #C5CACA",
"0+	c #B5BFBF",
"a+	c #A5B6B5",
"b+	c #1E1D2B",
"c+	c #2D2B37",
"d+	c #467809",
"e+	c #295C09",
"f+	c #363640",
"g+	c #516460",
"h+	c #A1ADAC",
"i+	c #BDC5C5",
"j+	c #CDD5D4",
"k+	c #EDEFEF",
"l+	c #D7DADA",
"m+	c #808889",
"n+	c #A7ACAD",
"o+	c #EEF0F0",
"p+	c #E2E6E5",
"q+	c #BEC6C6",
"r+	c #B3BDBC",
"s+	c #6E827D",
"t+	c #2C2C37",
"u+	c #42414C",
"v+	c #405900",
"w+	c #337200",
"x+	c #3F522E",
"y+	c #4C6220",
"z+	c #202B1C",
"A+	c #333140",
"B+	c #292636",
"C+	c #35433D",
"D+	c #485650",
"E+	c #86918F",
"F+	c #9EA6A6",
"G+	c #D8DDDC",
"H+	c #D9DEDD",
"I+	c #B0BBB8",
"J+	c #3F4B47",
"K+	c #52665F",
"L+	c #23202D",
"M+	c #302E3D",
"N+	c #201E29",
"O+	c #456115",
"P+	c #36631A",
"Q+	c #12111B",
"R+	c #2C2A39",
"S+	c #3D3D46",
"T+	c #50645E",
"U+	c #8A9998",
"V+	c #556060",
"W+	c #849591",
"X+	c #697976",
"Y+	c #64706F",
"Z+	c #7A8786",
"`+	c #6D817C",
" @	c #2E2E35",
".@	c #363441",
"+@	c #201E2B",
"@@	c #7A9B02",
"#@	c #316119",
"$@	c #23222A",
"%@	c #51565B",
"&@	c #394040",
"*@	c #696F6E",
"=@	c #4E5855",
"-@	c #464A4B",
";@	c #586061",
">@	c #3F4049",
",@	c #464650",
"'@	c #28272F",
")@	c #3C3C45",
"!@	c #394A2D",
"~@	c #61A000",
"{@	c #3F701B",
"]@	c #4E515A",
"^@	c #3B3B47",
"/@	c #06060D",
"(@	c #33333B",
"_@	c #41434B",
":@	c #363841",
"<@	c #31343B",
"[@	c #3C4346",
"}@	c #4A4E56",
"|@	c #3B3B44",
"1@	c #06060E",
"2@	c #2E2C38",
"3@	c #53565F",
"4@	c #5B5F69",
"5@	c #313B2E",
"6@	c #558703",
"7@	c #46631D",
"8@	c #5E636B",
"9@	c #141420",
"0@	c #000002",
"a@	c #12121E",
"b@	c #252530",
"c@	c #2F2F39",
"d@	c #3C3C46",
"e@	c #383842",
"f@	c #292934",
"g@	c #141421",
"h@	c #030308",
"i@	c #0B0B15",
"j@	c #415525",
"k@	c #376B0D",
"l@	c #4F9A00",
"m@	c #31441E",
"n@	c #33303F",
"o@	c #50535C",
"p@	c #494B54",
"q@	c #2F382B",
"r@	c #1F2D00",
"s@	c #302D3C",
"t@	c #2B2B36",
"u@	c #343140",
"v@	c #14121C",
"w@	c #242526",
"x@	c #509B00",
"y@	c #408300",
"z@	c #254D1E",
"A@	c #43434E",
"B@	c #1A5000",
"C@	c #1E3E00",
"D@	c #4E5059",
"E@	c #40404B",
"F@	c #14121B",
"G@	c #40433C",
"H@	c #474751",
"I@	c #403F4B",
"J@	c #3F6123",
"K@	c #0D0B1A",
"L@	c #444850",
"M@	c #3D3C47",
"N@	c #183D00",
"O@	c #273908",
"P@	c #302D3D",
"Q@	c #415029",
"R@	c #34343C",
"S@	c #42434D",
"T@	c #4F535B",
"U@	c #0A0818",
"V@	c #476411",
"W@	c #479900",
"X@	c #606A6A",
"Y@	c #4F5858",
"Z@	c #315D0C",
"`@	c #101308",
" #	c #26252F",
".#	c #52565F",
"+#	c #545860",
"@#	c #454650",
"##	c #292634",
"$#	c #1B2E06",
"%#	c #04040A",
"&#	c #24450C",
"*#	c #1F2D11",
"=#	c #839090",
"-#	c #4C6923",
";#	c #88B000",
">#	c #2B600A",
",#	c #205100",
"'#	c #100F19",
")#	c #191926",
"!#	c #2A2837",
"~#	c #4A4B54",
"{#	c #51555D",
"]#	c #2D2A3A",
"^#	c #1D1C29",
"/#	c #1A1925",
"(#	c #567C03",
"_#	c #313822",
":#	c #2E2F2D",
"<#	c #3C7A00",
"[#	c #253608",
"}#	c #312F3D",
"|#	c #191825",
"1#	c #302F3C",
"2#	c #252332",
"3#	c #393843",
"4#	c #385A00",
"5#	c #13131F",
"6#	c #3D3D48",
"7#	c #4D505A",
"8#	c #3F3F4A",
"9#	c #161623",
"0#	c #2C410B",
"a#	c #384523",
"b#	c #0A0911",
"c#	c #13111B",
"d#	c #212126",
"e#	c #212127",
"f#	c #17161E",
"g#	c #110F18",
"h#	c #05050D",
"i#	c #3F520B",
"j#	c #688100",
"k#	c #3F493C",
"l#	c #3C3C3C",
"m#	c #334326",
"  . + @ #   $ % & & * = * %   - ; > -   % , ' % ; # # ) - , ' ! ",
"~ { ] ^ / * ( _ / / :   # , < * % ; < % ; < ' ( [ & # ;   } } ' ",
"_ <   ; @ | 1 2 3 ) )   4 5 6 6 6 7 8 9 ) : 0 + a < # / = b & c ",
"  ' = % ! % d [ ' e f g h h i i i j h k l ' < @ ~ # # # # = = m ",
"# # / , n a o .   p q i r s t t t t r u j v - * ) n e >   ' - } ",
"< = ^   )   w o x y i z t t A A B C t s i j D e E F o w n , ^ # ",
"< ~ | G H < < I J i K C L M M M M M N O P Q R S G _ : T # & / & ",
"~ U @ V V   % W X z C Y M M M M M M M M Z P `  .[ % e ..' +.= < ",
"& & ~ [ @.% #.R K $.%.M &.*.A A A A N M &.=.-.i ;.>.,.,.3 '.% % ",
"& ~ # '.3 % ).!.$.~.N L {.].t t t t ^./.&.=.(.-._.:.1 c <.) - , ",
", ' <.[.+ }.|.P B t 1.2.3.3.3.3.3.3.3.3.4.$.5.6.j 7.m <.~ ^ # ~ ",
"' - c [ } 8.r Z C t u 9.0.0.0.0.0.0.0.a.b.s c.d.i e.* # +.: = _ ",
"' -   - * 8.f.d.g.h.i.j.k.l.m.m.m.m.n.o.p.b.z q.r.s.. n : , ' t.",
"a F o ' ) u.v./.j w.x.y.z.A.B.B.B.B.C.n.D.p.E.2.F.G.e V _ ' _ _ ",
"V ; = # ; H.v.5.I.J.K.L.M.N.O.O.O.P.Q.L.R.S.T.U.V.W.  ! F e % < ",
"- } # = . X.Y.r.I.J.L.L.Z.`. + +.+++Q.L.L.Q.T.U.@+#+, ) H a G % ",
"' e ; n % $+%+&+*+=+-+;+>+,+'+)+!+~+{+;+]+^+T./+(+_+# # # < - % ",
"_ - -   ; :+<+j [+}+|+1+2+3+4+5+6+7+8+9+0+a+b+h c+d+! 3 _ - = } ",
"% } = ) ) : e+f+R g+h+i+j+k+l+m+n+o+p+q+r+s+t+u+v+,.,.! @.' <.* ",
"w+/ x+w+@ : y+z+A+B+C+D+E+F+G+H+I+n+q+J+K+L+M+N+O+[ + T P+= % ' ",
"- @ 0 ] { E - * Q+R+S+T+U+V+W+W+X+Y+Z+`+ @.@+@@@_ + 2 + '.% . ) ",
"H > ( T '.V _ #@S+$@i S+%@&@*@*@=@-@;@>@,@'@)@!@~@a d d   '.w++.",
"- . > +.'.F {@]@4.^@/@(@_@:@<@J.[@e.}@|@1@2@3@4@5@6@% < - ) _ V ",
"- P++.7@< e s.8@$.r 9@0@a@b@c@d@e@f@g@h@i@R c.5.R j@1 k@< e F l@",
"> - b <.0 m@n@o@(.p@q@r@s@u a.0.t@u u@v@w@(+4.4.|.b+< ' . 3   ) ",
"x@y@7@- + z@h A@u 6 B@C@6 g.3.3.3.D@E@F@G@c+^@H@I@ ._ t.e ] J@# ",
"^ w+{ - % G K@L@}@M@N@O@P@s@u 2.o@n@u@F@Q@R@S@T@U@V@_ - <.+ x@' ",
"/ ..W@e n ' X@Y@Z@/@`@ #6 u+.#2.+#@#E@##$#%#&#*#=#-#; = } <.. e ",
"~ _ ;#> w+@ >#,#G O+'#)#!#E@~#3.{#i ]#^#/#(#e _#:#~ < _ 3 ' <#+ ",
"; x@E <.2 T , P+..[#G.}#|#1#6 X 6 6 ^#2#3#/@- / / ; G o n n ( ) ",
"e ' , - 2 % } * _ 4#5#f+6#7#3.3.3..#8#R 9#0#, , < %   , / x+: ' ",
"' * ) ; - , , e x@' a#/@b#c#d#d#e#f#g#h#i#j#. G ' ( ^ x+k#l#m#+."};
