/* XPM */
static char *result[] = {
/* columns rows colors chars-per-pixel */
"48 48 13 1 ",
"  c black",
". c #171724",
"X c #2E2B3B",
"o c #3E463E",
"O c #45454F",
"+ c #4A5455",
"@ c #5A5F67",
"# c #69837B",
"$ c #7B838D",
"% c #A8B9B8",
"& c #D5DDDD",
"* c #F4F4F4",
"= c None",
/* pixels */
"================================================",
"================================================",
"================================================",
"================================================",
"====================..XXXXX=====================",
"=================...$$$$$$@XXX==================",
"===============..$$$$$$$$$$@@OXX================",
"==============.$$$$$$$$$$$$$$@@OX===============",
"=============.$$$$$$$$$$$$$$$$@@O.==============",
"============.$$$$$$$$$$$$$$$$$$@@O.=============",
"===========.O$$$$$$$$$$$$$$$@$$@@@O.============",
"==========.O@@$$$$$$$$$$$$$$$@@@@@OX.===========",
"==========.O@@@@@$$$$$@@@@$$$@@@@OOX.===========",
"=========.OO@@@@@@@@$$$$@@@$$$@@OOOX.===========",
"=========.OOOOOOOOO@@@@$$@@@$$@OOOOOX.==========",
"=========.OOO......OOO@@$$@@$$@@OOOOX.==========",
"=========.OO.+####+..OO@$$$@@$$@OOOOX.==========",
"=========.O.+#######+.OO@@$$@$$@OOOOX.==========",
"==========..+%%%%%%%%#.OOO$$@@$@OOXOOX.=========",
"==========..+%&&&&*&&%+.OO@$@@@@OOXXOX.=========",
"==========..o#&&%#++#%#.OO@$@@@@OOXXOX.=========",
"===========.o#&&#ooo+##.OO@$@@@@@OXXXX..========",
"===========.#%&%+oooo+&%.O@$@@@@OOXXXX..========",
"============#%&%+oooo+&%.O@@@@@OOXXXXX..========",
"============#+&&#+oo+#&%.O@@OOOOXXXXXX..========",
"============++%&%#++#&&%.O@@OOOOXXXXXX..========",
"============+++****&&&&#.OOOOOXXXXXXX.. ========",
"============##&&&&&&&%&#.XXXXXXXXXXX.. =========",
"=============#%#&##ooo%.OXXXXXXX...... =========",
"=============o++#+++##o.OXXXX........ ==========",
"=============+%#&#%#  .OO..........  ===========",
"==============      ..OO.........  =============",
"================= ..OOO.XXXX...  ===============",
"================= OOO..XOOOOX  =================",
"================= .... XO@$@OX =================",
"================== ... XO@OO@O =================",
"=================== XX XXO@@@O. ================",
"=================== XX ..XOOXX. ================",
"=================== XX O..XXX.O ================",
"================== .XO .OO@@@O  ================",
"================== XOOX       X ================",
"================= .XO@OX # % XXX ===============",
"================= .XXXXXX   XXXXX ==============",
"================ .X..XOOOOOOOX..X. =============",
"================ .OX..XXXOXXX..XO. =============",
"================ ..OOO@@@@@@@OOO.. =============",
"================= ...XXOOOOOXX... ==============",
"==================               ==============="
};
