/* XPM */
static char * wallwater_top_border_left_3_xpm[] = {
"32 32 194 2",
"  	c #507B00",
". 	c #5D9500",
"+ 	c #54A900",
"@ 	c #497400",
"# 	c #355C1D",
"$ 	c #518100",
"% 	c #538B00",
"& 	c #476511",
"* 	c #4A6D09",
"= 	c #527300",
"- 	c #416700",
"; 	c #1B3800",
"> 	c #008FBB",
", 	c #0F7183",
"' 	c #003A56",
") 	c #004C6A",
"! 	c #005A83",
"~ 	c #005A7B",
"{ 	c #005E7D",
"] 	c #006091",
"^ 	c #006692",
"/ 	c #005F8A",
"( 	c #325500",
"_ 	c #729300",
": 	c #578500",
"< 	c #536C05",
"[ 	c #385B07",
"} 	c #344300",
"| 	c #0C6B78",
"1 	c #1C6C85",
"2 	c #004462",
"3 	c #005579",
"4 	c #00628D",
"5 	c #2F4A00",
"6 	c #567C00",
"7 	c #405E00",
"8 	c #3A6203",
"9 	c #1D5304",
"0 	c #1F7600",
"a 	c #035D6A",
"b 	c #005069",
"c 	c #005573",
"d 	c #005B77",
"e 	c #383A13",
"f 	c #364E0F",
"g 	c #365314",
"h 	c #267A00",
"i 	c #339500",
"j 	c #1A7924",
"k 	c #0783A7",
"l 	c #257793",
"m 	c #005874",
"n 	c #005372",
"o 	c #005576",
"p 	c #37370D",
"q 	c #2F3520",
"r 	c #406B00",
"s 	c #3D4E1F",
"t 	c #00546D",
"u 	c #00485C",
"v 	c #004760",
"w 	c #00516D",
"x 	c #004C65",
"y 	c #282C1C",
"z 	c #223222",
"A 	c #2B3C27",
"B 	c #369800",
"C 	c #205C00",
"D 	c #3F7200",
"E 	c #00424C",
"F 	c #004861",
"G 	c #2C3C12",
"H 	c #397E00",
"I 	c #2F4141",
"J 	c #114A00",
"K 	c #3B8500",
"L 	c #366E00",
"M 	c #374023",
"N 	c #368587",
"O 	c #0E6672",
"P 	c #004F63",
"Q 	c #005055",
"R 	c #00565B",
"S 	c #005F62",
"T 	c #006A65",
"U 	c #295900",
"V 	c #4E5D00",
"W 	c #566A00",
"X 	c #498B66",
"Y 	c #508A83",
"Z 	c #147373",
"` 	c #003D51",
" .	c #003B4C",
"..	c #0B6227",
"+.	c #006047",
"@.	c #006351",
"#.	c #2A2A25",
"$.	c #555500",
"%.	c #355A00",
"&.	c #302B10",
"*.	c #22241C",
"=.	c #369279",
"-.	c #004153",
";.	c #00585D",
">.	c #334E00",
",.	c #2D6200",
"'.	c #4A727C",
").	c #4D9492",
"!.	c #187772",
"~.	c #006746",
"{.	c #006157",
"].	c #005D4E",
"^.	c #212121",
"/.	c #2B3218",
"(.	c #2C250C",
"_.	c #173B01",
":.	c #123600",
"<.	c #1D1D1D",
"[.	c #218267",
"}.	c #126E55",
"|.	c #202020",
"1.	c #245400",
"2.	c #547C7E",
"3.	c #4B9A8E",
"4.	c #0B745B",
"5.	c #005165",
"6.	c #006065",
"7.	c #218271",
"8.	c #066567",
"9.	c #0A6B5A",
"0.	c #004C5E",
"a.	c #0A696B",
"b.	c #15797C",
"c.	c #007263",
"d.	c #715A00",
"e.	c #47470B",
"f.	c #609C89",
"g.	c #4F8A96",
"h.	c #186F79",
"i.	c #60927D",
"j.	c #448495",
"k.	c #507682",
"l.	c #2A777E",
"m.	c #136F68",
"n.	c #067A70",
"o.	c #4C8998",
"p.	c #06727C",
"q.	c #796200",
"r.	c #117D8A",
"s.	c #1F8B93",
"t.	c #2E7F5A",
"u.	c #76A082",
"v.	c #0B7B94",
"w.	c #1C8592",
"x.	c #3E8563",
"y.	c #8AAE7C",
"z.	c #69ABA9",
"A.	c #309E94",
"B.	c #1AA0A3",
"C.	c #19889A",
"D.	c #087391",
"E.	c #8DB384",
"F.	c #8DC29E",
"G.	c #65B6B4",
"H.	c #2EACB4",
"I.	c #1FA3AD",
"J.	c #22949E",
"K.	c #8DB78A",
"L.	c #71CAC0",
"M.	c #42BBB8",
"N.	c #3BC1B2",
"O.	c #198085",
"P.	c #258C89",
"Q.	c #91D8D8",
"R.	c #83D4D4",
"S.	c #1D92A6",
"T.	c #1D97AB",
"U.	c #9ADCDA",
"V.	c #6FD3C7",
"W.	c #56BDCA",
"X.	c #31BABA",
"Y.	c #21909A",
"Z.	c #30A9AC",
"`.	c #24A3B2",
" +	c #4A7B00",
".+	c #73B79C",
"++	c #6AC7D1",
"@+	c #3EBCC1",
"#+	c #54AD99",
"$+	c #27A0A5",
"%+	c #BBE5E0",
"&+	c #A6E0DE",
"*+	c #35B3B8",
"=+	c #82BEB9",
"  . + @ # $ %   & * = - ; > , ' ' ) ! ~ { { { ! ] ] ^ ^ / ^ ^ / ",
"( _ % $ - @ : < [ @ @ } | > 1 2 2 3 ~ 3 3 3 ! { 4 4 / ^ ! { / / ",
"5 6 :   @ - @ & 7 8 9 0 ; > 1 a b c c 3 3 ! ! ! / / ! / { ~ d d ",
"e f = < = @ g @ [ 9 h i j k l m b ) ) c n ! ~ ~ { ! ! { d d o o ",
"p q f * < = # 8 r s 9 h # 1 l | t u v n n 3 3 n o 3 3 n d w o x ",
"y z A & & B C - D - f f A E l 1 m F v x x ) w w w w x v w o 3 w ",
"G z q g B i 9 % H 8 f f A I l 1 m x v x w w w w x v u v w n o o ",
"J p f [ + i [ K L D 8 C z M N N O P F F x x u u u Q Q R R R S T ",
"U } V D B g [ 6 W K r e y C X Y Z R Q Q u Q Q ` `  .Q ..+.+.R @.",
"( #.$.6 * [ %.r V H L &.*.D X =.Z R Q u u -.` E  . .E Q +.R F ;.",
"J #.p C - g 5 >.>.,.U *.*.L '.).!.;.~.{.u u -.` `  .E ].;.+.P x ",
"J ^./.9 >.q z p (._.U :.<.<.'.).[.S T }.F ;.Q ` -. .-.~.{.{.S S ",
":.|._.J G #.p y *.<.J 1.<.(.2.3.[.x S 4.5.6.].Q Q  .-.+.;.S T 6.",
"z <.1.:.<.#.*.y (.<.<.J 1.(.X 3.7.) R S 8.}.9.0.u  .-.R u F T a.",
"<.<.- z <.(.(.<.<.<.<.<.:.J X 3.b.6.F S 8.}.}.5.u E Q R 0.;.P c.",
"<.1.1.<.<.p p <.<.(.(.(.<.<.Y 3.!.F F F 5.9.}.6.F ` Q u F S 6.;.",
"<.L (.<.(.$.d.e.<.<.(.(.<.<.f.g.h.P 2 P P a.9.9.5.-.Q u 5.6.a.F ",
"<.L <.<.p d.d.$.p <.<.<.<.L i.j.h.8.5.P P S a 9.5.0.0.v S 8.a.4.",
"<.<.<.(.p d.d.e.p p <.<.L 5 k.g.l.m.a.a.5.5.5.8.9.5.u v 6.6.a.n.",
"J <.|.(.p e.$.p p d.d.(.<.|.k.o.l.O a.c.m 5.2 a }.6.u F ;.8.8.8.",
"5 J ; (.(.<.p p $.d.d.$.p (.k.g.l.O Z | c.a P P m.5.v F 2 6.a b ",
"; 5 (.(.<.<.<.p >.$.$.$.d.$.k.o.h.p.p.N 7.Z a P 5.P v P 5.6.a.n.",
"(.p p p <.<.<.(.e.e.p q.d.d.f.o.1 , r.s.=.t.m.a.5.b F P b b n.[.",
"$.$.e.p <.(.(.(.(.p e.q.q.$.u.f.N v.v.k w.x.t.Z t t F ) T c.p.r.",
"d.d.e.<.<.p p p <.(.e.$.$.q.y.z.A.B.B.B.C.h.!.!.p.c P P b m D.w.",
"e.$.e.<.<.p e.e.p <.p e.$.d.E.F.G.H.I.I.C.b.!.!., b.b 5.b | v.J.",
"$.$.p <.<.(.e.$.$.p (.p p $.K.L.L.M.N.N.I., O.1 P.r.a b m , C.k ",
"d.p (.<.<.<.$.d.d.$.(.(.e.d.F.Q.R.L.N.H.H.v.r.P.P.P.p.a.b.w.S.T.",
"$.e.p p <.<.$.d.d.$.(.<.p ( G.U.Q.V.W.X.M.A.w.Y.A.s.O.O O.A.Z.`.",
"e.p p p <.<.p d.d.$.(. + + +.+U.U.++W.@+M.T.Y.k #+A.N b.r.$+`.H.",
"|.p e.e.p <.(.$.$.p p (.L  +F.%+&+R.W.W.M.Z.S.S.G.#+=., w.S.*+*+",
"|.e.$.$.>.(.(.e.p p e.e.y J F.%+&+R.R.W.M.Z.T.`.=+.+P.1 J.`.H.*+"};
