/* XPM */
static char * wallwater_bottom_border_left_3_xpm[] = {
"32 32 203 2",
"  	c #545100",
". 	c #626B00",
"+ 	c #373705",
"@ 	c #715700",
"# 	c #474701",
"$ 	c #1D1A1D",
"% 	c #2C2406",
"& 	c #5B8A82",
"* 	c #4F9B95",
"= 	c #137A6C",
"- 	c #005E67",
"; 	c #004E65",
"> 	c #004C63",
", 	c #005A6B",
"' 	c #006B5D",
") 	c #003D57",
"! 	c #00545F",
"~ 	c #005D66",
"{ 	c #007E48",
"] 	c #795F00",
"^ 	c #6EA07F",
"/ 	c #027460",
"( 	c #00405D",
"_ 	c #007A52",
": 	c #048249",
"< 	c #828500",
"[ 	c #20230E",
"} 	c #209270",
"| 	c #004B68",
"1 	c #004461",
"2 	c #238470",
"3 	c #01825A",
"4 	c #744F00",
"5 	c #678400",
"6 	c #7C9300",
"7 	c #2D887F",
"8 	c #3B8296",
"9 	c #066D7B",
"0 	c #00745A",
"a 	c #006C77",
"b 	c #07855A",
"c 	c #007D83",
"d 	c #057474",
"e 	c #5F9186",
"f 	c #3A879B",
"g 	c #15878D",
"h 	c #0A7C85",
"i 	c #129693",
"j 	c #00676A",
"k 	c #00516B",
"l 	c #05747D",
"m 	c #4AAE94",
"n 	c #25979D",
"o 	c #0D8B94",
"p 	c #0A8BA2",
"q 	c #198855",
"r 	c #005670",
"s 	c #0A7485",
"t 	c #82AF74",
"u 	c #5DA4B2",
"v 	c #17A1A4",
"w 	c #00859C",
"x 	c #005979",
"y 	c #007794",
"z 	c #0A8394",
"A 	c #81BC87",
"B 	c #7DC093",
"C 	c #5AB2B8",
"D 	c #1CA8B4",
"E 	c #10A8AB",
"F 	c #1DA2AD",
"G 	c #00637A",
"H 	c #10929D",
"I 	c #82C08B",
"J 	c #78C7C4",
"K 	c #5AC9CC",
"L 	c #32B9BC",
"M 	c #1FBABA",
"N 	c #00728C",
"O 	c #08868C",
"P 	c #1086A0",
"Q 	c #2F271A",
"R 	c #3E5B00",
"S 	c #87CE7C",
"T 	c #99D9D3",
"U 	c #83D5D5",
"V 	c #3EBDC8",
"W 	c #2AC2B4",
"X 	c #1CB1A6",
"Y 	c #00788C",
"Z 	c #1490A4",
"` 	c #1097AB",
" .	c #326C00",
"..	c #70B69F",
"+.	c #90D6DC",
"@.	c #83D8DB",
"#.	c #63D2C4",
"$.	c #29B8C4",
"%.	c #3BB6B6",
"&.	c #006074",
"*.	c #25A08F",
"=.	c #19A0B1",
"-.	c #447B00",
";.	c #378800",
">.	c #7ABAA1",
",.	c #11A4B8",
"'.	c #67C6D1",
").	c #6FC7CD",
"!.	c #48A9BA",
"~.	c #2A5500",
"{.	c #83CAD2",
"].	c #2CA2B3",
"^.	c #7DBAC0",
"/.	c #0F859C",
"(.	c #383812",
"_.	c #77BDBD",
":.	c #58BFCA",
"<.	c #4EB5C3",
"[.	c #35ADAD",
"}.	c #7CBAC5",
"|.	c #20879E",
"1.	c #38A8B9",
"2.	c #53A0AB",
"3.	c #469EB8",
"4.	c #2497AB",
"5.	c #8FC4CA",
"6.	c #3E9FB3",
"7.	c #62A8AB",
"8.	c #3E99AA",
"9.	c #2C90A4",
"0.	c #138097",
"a.	c #1C1C07",
"b.	c #13180C",
"c.	c #554F0F",
"d.	c #443600",
"e.	c #47A0AB",
"f.	c #007491",
"g.	c #006989",
"h.	c #365A1F",
"i.	c #006A84",
"j.	c #204500",
"k.	c #18AEC2",
"l.	c #62CED4",
"m.	c #3AB3C1",
"n.	c #65BECC",
"o.	c #0096AA",
"p.	c #71DDE3",
"q.	c #50C8D1",
"r.	c #9FDFE5",
"s.	c #93DAE2",
"t.	c #2398BB",
"u.	c #95E7EA",
"v.	c #8CDEE4",
"w.	c #B8EDF0",
"x.	c #CAF0F3",
"y.	c #B5E7EA",
"z.	c #CFEAEF",
"A.	c #DBF5F5",
"B.	c #1D3300",
"C.	c #1D3215",
"D.	c #456400",
"E.	c #507B00",
"F.	c #A7EAED",
"G.	c #AFEFF2",
"H.	c #ECFBFB",
"I.	c #6ED7DD",
"J.	c #222A0D",
"K.	c #3A4519",
"L.	c #336311",
"M.	c #407901",
"N.	c #528900",
"O.	c #5A9100",
"P.	c #277640",
"Q.	c #CFF8F8",
"R.	c #FEFEFE",
"S.	c #495A1A",
"T.	c #639400",
"U.	c #5BAC00",
"V.	c #607413",
"W.	c #56CED7",
"X.	c #3D4002",
"Y.	c #2F4900",
"Z.	c #59A400",
"`.	c #26ADB3",
" +	c #1DA7BB",
".+	c #2F3500",
"++	c #476025",
"@+	c #4F5434",
"#+	c #547600",
"$+	c #005E84",
"%+	c #003F70",
"&+	c #004977",
"*+	c #007592",
"=+	c #414C2F",
"-+	c #3B7A05",
";+	c #006D84",
">+	c #00456A",
",+	c #609D00",
"'+	c #5F9900",
")+	c #4C8000",
"!+	c #424735",
"~+	c #477482",
"{+	c #007CA4",
"    .   + @ @ # $ $ $ %     & * = - - ; > , ' ' > ) ) ! ~ ~ ' { ",
"+ @ ] @ + @ @   + $ $ $ +   ^ * = / / - ; ; - ' ; ( ) ! ' - _ : ",
"@ @ < ] + @ @ # + + + [ % % & * } : / - | ; ~ , ' ! 1 ! ; ~ : ~ ",
"@ @ < ] + #   + + ] ]   % $ = * 2 : / : 3 ; > ~ ' ~ 1 1 ; ~ ' - ",
"    @   % $ + + 4 5 6     % 7 8 9 0 a 3 b b > > ~ ; > 1 > ; - ~ ",
"  < <   $ $ $ +   @ @ @ ]   & 8 9 9 b c b b - > ; ; > 1 > ~ , d ",
"6 < <   $ $ $ %     # < < ] e f } g h i } _ / j k ; 1 > ; ; 9 l ",
"< < . # $ % % % % +   < < @ ^ m n i o p i b q d r , 1 > ; ~ s h ",
"< < # $ $ + + + $ %   ] ] < t u v v v v w d d = 9 x > ; | r y z ",
"  . # $ $ + # # + $ +   ] < A B C D E F w l 9 l s l | ; | G y H ",
"@   + $ $ % #     + % + # ] I J K L M M v N c h O h , ~ k N P p ",
"] + % $ $ $   @ @   % Q R < S T U V W M X z Y o z g 9 j l y Z ` ",
"  # + + $ $   @ @   % $ +  ...+.@.#.$.M %.v z H n i b &.h *.=.=.",
"# + + + $ $ + @ @   % -.-.;.>.T @.#.V W L v w H m n 7 l g v ,.,.",
"$ + # # + $ %     + + %  .;.I T T '.).$.L F v p !.m } h z v ,.,.",
"$ #     # % % # + + # # % ~.>.T {.).).V M F ` ].^...g h /.E ,.M ",
"$ +         % % + #   # (.(.>.^._.^.:.<.].[.C }.^.^.|.s /.[.=.1.",
"% %     @ @ % % % #   # # (.u C u 2.3.C 4.=.5.}.6._.7.s /.[.=.!.",
"% % #       % % % % # #   (.7.8.9.|.9.4.Z 8.u 2.z 8.7.g 0.8.4.6.",
"% a.%       + % b.%   c.(.d.!.e.0.Y 0.P P |.z f.g.Y 8 g |.|.|.|.",
"  % a.        + a.%   + [ h.1.6.P y P =.=./.i.g.g.G s 8.6.9.v /.",
"# + a.% # # # (.% a.j.b.$ k.l.V ].].:.:.m.8.g.g 9.8 f ^.n.3.<.1.",
"+ + a.a.% + + # + j.b.$ o.m.p.q.V q.r.s.'.m.4.t.).}.5.r.s.'.:.m.",
"+ j.a.$ % % # R R ~.Q / i.3.u.p.@.v.w.x.s.:.<.n.s.y.z.A.A.s.:.].",
"B.C.% % a.% # D.E. .+ } F n.F.F.G.F.G.x.s.l.@.+.y.A.H.H.H.G.I.{.",
"C.J.% J.J.[ K.L.M.N.O.P.*.l.F.G.Q.x.u.u.I.I.r.r.x.H.H.H.R.y.v.x.",
"# (.(.+ C.K.K.S.M.T.U.V.v l.I.I.F.G.l.m.W.v.y.F.x.A.y.Q.H.I.q.u.",
"X.Y.Y.~.< Z.5 S.T.U.T.4 y `.].Y L I. +w L u.r.l.s.@. +'.r.'.=.V ",
".+j.  N.5 ++@+#+U.U.T.4 &.$+i.%+1.:.N x w W.].&+Z m.f.z Z *+x f.",
".+Y.S.++=+=+M.< U.N.-+c.r g.0.;+5.u. +y w ` i.>+N 3.4.$+&+, >+, ",
"j.c.++=+=+S.#+,+'+)+-+4 - s i.;+u {.t. +=.w *+$+y t.].*+x &+%+%+",
"c.++S.@+!+++V.T.'+-+)+4 8.k.P w ~+y Y y P ` ` P p 6.k.{+$+&+&+&+"};
