/* XPM */
static char * wallwater_middle_middle_2_xpm[] = {
"32 32 174 2",
"  	c #003B4F",
". 	c #003651",
"+ 	c #005149",
"@ 	c #004252",
"# 	c #004E54",
"$ 	c #005B48",
"% 	c #00504A",
"& 	c #003B4D",
"* 	c #00454E",
"= 	c #00394C",
"- 	c #00544F",
"; 	c #004D5A",
"> 	c #005F69",
", 	c #015C49",
"' 	c #0D5748",
") 	c #004868",
"! 	c #00584E",
"~ 	c #006250",
"{ 	c #005A36",
"] 	c #003858",
"^ 	c #00555C",
"/ 	c #006450",
"( 	c #005F50",
"_ 	c #004C61",
": 	c #003F5C",
"< 	c #006B54",
"[ 	c #004F5D",
"} 	c #004F64",
"| 	c #007558",
"1 	c #00724C",
"2 	c #005E65",
"3 	c #003B60",
"4 	c #115547",
"5 	c #006663",
"6 	c #006A55",
"7 	c #003C61",
"8 	c #007A44",
"9 	c #0F755B",
"0 	c #037A51",
"a 	c #007348",
"b 	c #007454",
"c 	c #00686B",
"d 	c #006B60",
"e 	c #026E53",
"f 	c #008251",
"g 	c #004F6B",
"h 	c #007B5F",
"i 	c #00813D",
"j 	c #277C54",
"k 	c #016D6A",
"l 	c #007C57",
"m 	c #28835A",
"n 	c #006071",
"o 	c #137F58",
"p 	c #0D7E6F",
"q 	c #00727C",
"r 	c #00883B",
"s 	c #04756C",
"t 	c #008C71",
"u 	c #004C70",
"v 	c #005479",
"w 	c #007279",
"x 	c #1B9D7C",
"y 	c #048C8C",
"z 	c #007171",
"A 	c #008C76",
"B 	c #0A816E",
"C 	c #005F89",
"D 	c #006D82",
"E 	c #038B53",
"F 	c #01AB92",
"G 	c #009094",
"H 	c #007D79",
"I 	c #00907A",
"J 	c #00A48A",
"K 	c #007E85",
"L 	c #00829C",
"M 	c #0094AB",
"N 	c #006E75",
"O 	c #159262",
"P 	c #00AC79",
"Q 	c #1C8D65",
"R 	c #189A70",
"S 	c #009393",
"T 	c #0091AB",
"U 	c #00789B",
"V 	c #005A7B",
"W 	c #0093B3",
"X 	c #008CA3",
"Y 	c #005673",
"Z 	c #0AA376",
"` 	c #009B82",
" .	c #00B39C",
"..	c #009D5F",
"+.	c #20976E",
"@.	c #30A17C",
"#.	c #059E97",
"$.	c #00B0B4",
"%.	c #0083A4",
"&.	c #008CB9",
"*.	c #17A583",
"=.	c #0CA5A2",
"-.	c #00998A",
";.	c #00945D",
">.	c #007684",
",.	c #18AB90",
"'.	c #00AA97",
").	c #00B4BC",
"!.	c #00A284",
"~.	c #0099B9",
"{.	c #0082B3",
"].	c #006691",
"^.	c #0084B5",
"/.	c #00989C",
"(.	c #22C1B3",
"_.	c #007194",
":.	c #008C3F",
"<.	c #00917B",
"[.	c #00B087",
"}.	c #00878E",
"|.	c #00ACAC",
"1.	c #00A4B7",
"2.	c #00728C",
"3.	c #00A3BA",
"4.	c #20C4C4",
"5.	c #0074A0",
"6.	c #17BB90",
"7.	c #1BAEA4",
"8.	c #2EAFB6",
"9.	c #0EBABE",
"0.	c #00648A",
"a.	c #029BBD",
"b.	c #20A7C4",
"c.	c #0094A4",
"d.	c #17B09F",
"e.	c #3FC18D",
"f.	c #7CC0BB",
"g.	c #44C1C1",
"h.	c #00BAA7",
"i.	c #00969A",
"j.	c #006A99",
"k.	c #009DA4",
"l.	c #77C7CC",
"m.	c #4FCCC9",
"n.	c #43ABC5",
"o.	c #50BCAD",
"p.	c #A8CAC4",
"q.	c #32B48D",
"r.	c #6FC4C1",
"s.	c #B5D1CD",
"t.	c #5DC9C3",
"u.	c #007A94",
"v.	c #9DCCD0",
"w.	c #98D1CB",
"x.	c #53A8B9",
"y.	c #61B0A8",
"z.	c #2694A8",
"A.	c #D2D8D6",
"B.	c #B8CECF",
"C.	c #007EAA",
"D.	c #9FCCCC",
"E.	c #BBD2D1",
"F.	c #B4CCD0",
"G.	c #36BEBE",
"H.	c #52B5BE",
"I.	c #73AC99",
"J.	c #76A9AF",
"K.	c #D4D4D4",
"L.	c #68BDC8",
"M.	c #92C1C5",
"N.	c #A1B0B2",
"O.	c #7BB5B9",
"P.	c #54AEB4",
"Q.	c #41A6B2",
"    . + @ # $ % + + + + + & & * =   - % # - & ; > - + @ * * * , ",
". = @ ' # $ $ $ * * + * & = * * @ # - - - , * # ) @ + @ @ @ ' # ",
"  . # $ ! ! ~ { & * & & = * * + . ] # ' + ' * @ ^ * * @ $ . $ # ",
"  . - - $ $ # ! & & & & = * + + # # # , ' + # @ ; * + + - ! $ ! ",
"@ # , ~ ~ ^ $ . & @ @ * & @ ' , ^ # ] ! % # - # # % % $ ~ ! ! ! ",
"# ^ / / ~ ~ ( # . @ # # @ . ' , ~ _ : # # { + # %   { ~ ~ ! ! ! ",
"^ ; < < / < / ; @ @ @ # - @ - ^ ^ ~ [ ] * * * + * * { { [ [ ] [ ",
"} : ( / < | 1 ~ @ - ; $ , - - ^ 2 2 3 ] * * { ' 4 % { ! [ [ : ~ ",
"[ [ 2 5 | | | < ^ # ^ ( / ' - ^ 6 ^ 7 ; @ @ - ' ' ' # @ ; 7 [ 2 ",
"^ : ^ < 8 9 9 1 $ [ ^ ( / ( ; ; ^ } 2 ^ @ @ # $ , , , , 7 7 : 6 ",
": ; ^ < 0 0 0 6 [ # ^ ~ , ( ^ ^ 1 < > 6 ] ] @ ; , , / ( 2 7 ; 1 ",
"3 a a 6 1 0 8 a [ 2 ( ( / / } ^ 1 | b 7 ^ ] ] ] - / / ~ 5 ) 2 0 ",
"7 7 a 8 c 8 6 a a 6 / 2 ~ ~ 6 ^ 2 d 2 d ~ ( : ] : ; ( 2 2 2 > 0 ",
"} 7 7 < < d < 8 b 8 e 5 2 2 2 } 2 2 5 < 5 2 : : : ; ^ } 2 2 9 f ",
"g 2 7 d 6 h c < i 8 1 < 6 } 6 5 _ } 2 g } } 7 ] : : 7 } 5 5 j 9 ",
"k c 5 ) l f > k a i b 1 e 2 } 5 } } ) ) } _ 7 7 ; ^ ; } 5 < 9 j ",
"9 9 k k m n ) 5 2 | | 9 1 g 2 d ) o f > 2 2 2 2 7 ^ 7 7 } c o j ",
"9 9 k j p q 5 ) 2 g 1 | 5 2 d d l r n > 2 5 > 2 } > c g > s s j ",
"s s j o t t u 5 ) 5 g 2 < b b d f l v 5 g c c } c 5 c d | m m s ",
"w s o o x y k c 2 2 c 1 8 c z c 8 A y ) } g ) _ c 5 8 f c p B k ",
"C D s E F G n k > ) c l 5 g B B H I J r 2 } } } c i f h z K t q ",
"L C n D M L q k } ) h N 6 m O O t P F A h > ) > c i f q Q R S K ",
"T U V y W X D Y g c V q r Q Z R ` M  ...E k g Y c b V S +.@.#.S ",
"$. .y %.&.M C v u k K D o +.*.*.=.&.M -.;.Y Y V Y u >.Z Z ,.'.%.",
").$.!. .~.{.].D w k A G H A =.F M ~.^.L A V D q Y V y /.=.F W T ",
"$.(.J ~.).$._._.;.:.<.[...}.=.|.&.).1.X ].C 2.>.V p ` F =.1.1.3.",
"4.$.5.&.~.{.X J ,.r Z 6.` G 7.8.3.9.9. .J /.-.0.>.y *.7.|.&.a.b.",
"4.~.c.~.~.1.|.d.e.E ,.f.-.G 8.f.(.g.g.h.'.i.j.2.2.}.k.W W &.b.l.",
"m.n.^.~.).3.d.o.p.R q.r.L U o.s.l.t.t.3.X j.L _.2.u.%.{.{.a.l.v.",
"w.l.x.~.).3.d.l.p.x y.r.z./.g.w.A.w.B.r.C.5.5.u.2.U T {.1.D.E.v.",
"v.w.F.g.9.G.H.F.p.I.J.x.J.=.n.H.K.K.K.B.8.7.T ].2.%.n.a.L.A.D.l.",
"g.g.E.D.g.L.M.p.f.N.J.T O.P.8.|.r.E.p.p.M.r.Q.u.j.P.D.L.B.s.b.4."};
