/* XPM */
static char * wallwater_top_middle_3_xpm[] = {
"32 32 164 2",
"  	c #004F8B",
". 	c #00578C",
"+ 	c #004B7A",
"@ 	c #00557E",
"# 	c #005582",
"$ 	c #1B7272",
"% 	c #005371",
"& 	c #005376",
"* 	c #005D92",
"= 	c #005F84",
"- 	c #095665",
"; 	c #04586A",
"> 	c #00537B",
", 	c #004B72",
"' 	c #005063",
") 	c #004E6D",
"! 	c #004E69",
"~ 	c #005276",
"{ 	c #005E63",
"] 	c #004681",
"^ 	c #004D64",
"/ 	c #004B6B",
"( 	c #004860",
"_ 	c #0D6969",
": 	c #004968",
"< 	c #00475C",
"[ 	c #004458",
"} 	c #00545D",
"| 	c #004F5C",
"1 	c #166358",
"2 	c #0D5254",
"3 	c #024654",
"4 	c #06414D",
"5 	c #1A524C",
"6 	c #004052",
"7 	c #0B595D",
"8 	c #265E52",
"9 	c #1A5754",
"0 	c #2B544D",
"a 	c #1D5A52",
"b 	c #0A6159",
"c 	c #02444F",
"d 	c #004A61",
"e 	c #136A52",
"f 	c #16494E",
"g 	c #08695E",
"h 	c #186165",
"i 	c #11634A",
"j 	c #0C7260",
"k 	c #166D5D",
"l 	c #237562",
"m 	c #075268",
"n 	c #197A60",
"o 	c #2D6365",
"p 	c #3B6E60",
"q 	c #23636A",
"r 	c #296B6B",
"s 	c #2F7C69",
"t 	c #357272",
"u 	c #3E7676",
"v 	c #427064",
"w 	c #366E68",
"x 	c #437669",
"y 	c #557E71",
"z 	c #587C6D",
"A 	c #228365",
"B 	c #2B6B72",
"C 	c #578F7D",
"D 	c #54786A",
"E 	c #3D8484",
"F 	c #51937D",
"G 	c #1A7B68",
"H 	c #327579",
"I 	c #0A5A70",
"J 	c #3E9593",
"K 	c #4B9287",
"L 	c #258157",
"M 	c #046174",
"N 	c #2F787C",
"O 	c #1B7D8B",
"P 	c #5D8678",
"Q 	c #11677C",
"R 	c #0A607A",
"S 	c #2C979C",
"T 	c #198493",
"U 	c #448176",
"V 	c #2B9181",
"W 	c #648876",
"X 	c #45877D",
"Y 	c #438A7F",
"Z 	c #11869B",
"` 	c #076681",
" .	c #0086A8",
"..	c #188381",
"+.	c #53A594",
"@.	c #3299A2",
"#.	c #258B79",
"$.	c #589A86",
"%.	c #1798AB",
"&.	c #2AA482",
"*.	c #2DBCA7",
"=.	c #1EA8A3",
"-.	c #208B70",
";.	c #0F7F78",
">.	c #218C9B",
",.	c #40ABA9",
"'.	c #086C88",
").	c #3B8D87",
"!.	c #33A38E",
"~.	c #5D9F8C",
"{.	c #129AB0",
"].	c #2BB096",
"^.	c #2DC1AE",
"/.	c #28B2A5",
"(.	c #428464",
"_.	c #12827B",
":.	c #23858E",
"<.	c #40A6A2",
"[.	c #30B5B5",
"}.	c #077791",
"|.	c #147184",
"1.	c #097E93",
"2.	c #4EAFA2",
"3.	c #4CAD9A",
"4.	c #0198B9",
"5.	c #0CA9AF",
"6.	c #258E95",
"7.	c #299E88",
"8.	c #2B9B7A",
"9.	c #159A9A",
"0.	c #44B4A4",
"a.	c #179FB5",
"b.	c #0891B0",
"c.	c #48BDAF",
"d.	c #09B0BC",
"e.	c #0EA8B6",
"f.	c #46AC8F",
"g.	c #23B7BC",
"h.	c #33A3A3",
"i.	c #7F938C",
"j.	c #598C7A",
"k.	c #77C4C4",
"l.	c #1895A2",
"m.	c #08A9BB",
"n.	c #2BA077",
"o.	c #4EA7B4",
"p.	c #1DA8BB",
"q.	c #38A6BD",
"r.	c #44B9BE",
"s.	c #51B3C1",
"t.	c #209EB9",
"u.	c #7DA8AB",
"v.	c #75A396",
"w.	c #67B4B4",
"x.	c #7DB8BF",
"y.	c #AAD3CF",
"z.	c #72B8C4",
"A.	c #BEBEBE",
"B.	c #91ABA4",
"C.	c #BFC4C3",
"D.	c #7DB5BA",
"E.	c #B9C5C8",
"F.	c #AECDCB",
"G.	c #D1DBD9",
"          . . + @ @ @ # $ + % @ @ @ @ @ @ & # * = # % . . @ @ - ",
"  #   # + + ; > > @ @ & @   + , @ + & @ @ - ; * * @ @ + , , ' ) ",
"+ # # & , ) ! ~ ~ ~ { + = # @ ] ) ~ & & ' ! ! & = @ ~ # # + ^ ! ",
"^ ) ! ) ~ > # @ , / ( ~ & ~ ] > ~ ' / ^ ) ) ) _ = @ > @ > > ~ ' ",
"^ : , + + ] ] ] + / / / , / + + ~ ^ { / ^ ) ) ~   + ~ + + + + ^ ",
", / : , > ] + + , / / < ^ ^ / , ) ) , , ) / ) + @ ~ , ~ + + , : ",
"/ , / , + ] + + , ^ ( < < ( ^ ^ , , + ~ / / / ) + , , , / , / , ",
"{ ^ ^ < : : : ( < [ [ < } [ < } / ) ) ) { { ^ { { | } ^ ^ : ^ / ",
"1 } 2 3 < < 2 < 4 4 5 2 5 4 4 6 7 7 1 1 8 9 0 8 8 8 a 2 2 7 b a ",
"b [ [ 3 < } [ 6 c c 9 9 2 4 4 2 b d 8 e a 3 0 0 5 9 0 f < 1 a 7 ",
"{ { [ [ b < < [ 6 6 a b 2 4 6 < { d 7 7 a 3 5 3 f 5 5 c [ g 3 g ",
"' ( < < h { < [ 3 6 i b 3 6 6 [ { ( - 7 9 3 3 3 f f 0 2 < } [ g ",
"{ ^ } } ' g { < [ } 1 1 3 6 [ [ ' d { { [ 3 3 3 6 4 2 b } | | j ",
"g 7 g j } { g k e e h 2 3 2 [ < ' d g 7 [ 3 3 0 3 6 6 | g ^ } j ",
"g g 7 _ j d { g e e } < 3 } < } ^ - l ' [ | | 3 3 6 3 < { { 7 j ",
"{ g g b d ' ' ' } } } } ' 1 | { d g k } < 7 | [ [ 9 < 7 d d g g ",
"j _ g _ - m d d < < } | h h d h ' n ; d 7 o p - [ [ | | ' ' l g ",
"l _ k h - q r q - ' ( - ' | ( - ' s - ' - p p e 7 | | d - t k ' ",
"! k n g ' u v w h ' d q - 7 ( { m m m - h p p o - 7 | d s w ' m ",
"- n x ; q y z w h d h q h d ' { r m m h h ; p h - p x - ' m ' o ",
"l A _ - B C z D o d o h h ' h ; l j B m - d o m p x v p r q m m ",
"A _ m m E F z w m q w l g { _ m _ G H o ' ' d o q k p x y y I m ",
"t I m r J K r o r D L n l _ M ; r N O r m - ' - q q q z y P H m ",
"E Q q R S T I r x z n r g _ R t U V J B m m m o h h B W W X Y B ",
"Z O B `  .Z H B x x u G g ; ..N F +.@.R ; r r B - ; Q #.U $.$.X ",
"%.S $ &.*.=.E t u l -.;.$ $ O O >.,.%.'.M t t t r m N ).).!.+.~.",
"{.%.C ].^./.V N G (...#.G _.:.S <.[.%.}.R R N U y R |.1.).@.2.3.",
"4.%.'.5.*.*.6.:.#.n E 7.#.8.9.!.0.a.b.Z |.Q Y C P y E 6.S 2.c.c.",
"4.b.1.a.d.e.9.7.|.t 8.f.V $.!.0.[.g.a.h.'.'.6.i.j.X 1.Z @./.[.k.",
"4.a.l.m.g.g.h.9.6.B :.0.n.&.,.o.p.q.q.%.T }.T $.F ).Z /.[.c.r.k.",
"s.t.%.d.d.m.l.=.u.P v.w.!.&.w.x.t.s.k.t.S 1.6.J ).).l.%.[.^.k.y.",
"z.z.e.d.m.a.%.o.A.i.B.C.h.h.D.E.z.k.F.w.%.>.>.6.:.T =.e.a.r.y.G."};
