/* XPM */
static char * wallwater_top_border_right_1_xpm[] = {
"32 32 177 2",
"  	c #008CAC",
". 	c #00788E",
"+ 	c #008096",
"@ 	c #0087A9",
"# 	c #0089A9",
"$ 	c #0086B7",
"% 	c #008ABB",
"& 	c #0093BA",
"* 	c #009CBD",
"= 	c #2699B3",
"- 	c #43A9C1",
"; 	c #679E93",
"> 	c #759B71",
", 	c #648F4D",
"' 	c #4F8600",
") 	c #689100",
"! 	c #4F9100",
"~ 	c #57AC00",
"{ 	c #3C7A00",
"] 	c #275100",
"^ 	c #397200",
"/ 	c #208898",
"( 	c #0F8AA2",
"_ 	c #0092AF",
": 	c #059DB3",
"< 	c #0095B7",
"[ 	c #0096C1",
"} 	c #0395AA",
"| 	c #0098B8",
"1 	c #008EBC",
"2 	c #0CA5CC",
"3 	c #56B9CF",
"4 	c #64C7D4",
"5 	c #7BA98C",
"6 	c #76AD4A",
"7 	c #60A800",
"8 	c #6C9E00",
"9 	c #509B00",
"0 	c #254520",
"a 	c #1C95AB",
"b 	c #359EB7",
"c 	c #009EC4",
"d 	c #0098C2",
"e 	c #47B4C8",
"f 	c #5DB9CF",
"g 	c #6BA9A9",
"h 	c #7AB89C",
"i 	c #76AF42",
"j 	c #579E00",
"k 	c #76AC00",
"l 	c #307400",
"m 	c #253A25",
"n 	c #272E14",
"o 	c #11A2BC",
"p 	c #32A6BC",
"q 	c #32ADC9",
"r 	c #41B6CF",
"s 	c #83B58B",
"t 	c #85BBA2",
"u 	c #476500",
"v 	c #498800",
"w 	c #223424",
"x 	c #58B7C8",
"y 	c #5BADBE",
"z 	c #80B29E",
"A 	c #7AB097",
"B 	c #2F6E19",
"C 	c #245E00",
"D 	c #418100",
"E 	c #133C01",
"F 	c #085000",
"G 	c #007895",
"H 	c #00819B",
"I 	c #40A5BE",
"J 	c #61B5BE",
"K 	c #6B9798",
"L 	c #36792B",
"M 	c #3A3B2A",
"N 	c #222604",
"O 	c #0E3B00",
"P 	c #006986",
"Q 	c #007880",
"R 	c #008CA5",
"S 	c #2DB3B4",
"T 	c #2896AE",
"U 	c #576463",
"V 	c #232317",
"W 	c #113A00",
"X 	c #1C1C08",
"Y 	c #1E5900",
"Z 	c #00546E",
"` 	c #00676A",
" .	c #006B80",
"..	c #00869B",
"+.	c #0AA2A6",
"@.	c #32A2B3",
"#.	c #20818D",
"$.	c #007B90",
"%.	c #3F4645",
"&.	c #004E5B",
"*.	c #004D51",
"=.	c #00545B",
"-.	c #007587",
";.	c #006777",
">.	c #008EA8",
",.	c #1AADA2",
"'.	c #10A19C",
").	c #049699",
"!.	c #3F8E93",
"~.	c #006B6A",
"{.	c #025465",
"].	c #3A7D8A",
"^.	c #639089",
"/.	c #3E4725",
"(.	c #103900",
"_.	c #004754",
":.	c #005C6C",
"<.	c #005764",
"[.	c #008C98",
"}.	c #00868D",
"|.	c #087980",
"1.	c #00574C",
"2.	c #00465C",
"3.	c #0A6A7A",
"4.	c #3C452D",
"5.	c #1C1C1C",
"6.	c #005859",
"7.	c #006475",
"8.	c #005E6B",
"9.	c #004F53",
"0.	c #5D878C",
"a.	c #2F2F30",
"b.	c #00554D",
"c.	c #035F52",
"d.	c #005D65",
"e.	c #004257",
"f.	c #236108",
"g.	c #005E61",
"h.	c #007C87",
"i.	c #006C74",
"j.	c #3F7E82",
"k.	c #5C8487",
"l.	c #00676B",
"m.	c #06695C",
"n.	c #587C87",
"o.	c #2D2810",
"p.	c #00757D",
"q.	c #5F9883",
"r.	c #2D2D2D",
"s.	c #37380D",
"t.	c #00605F",
"u.	c #005368",
"v.	c #454808",
"w.	c #505700",
"x.	c #006762",
"y.	c #005E55",
"z.	c #505B13",
"A.	c #004D67",
"B.	c #00495F",
"C.	c #726600",
"D.	c #757000",
"E.	c #397984",
"F.	c #6C977D",
"G.	c #3A7D00",
"H.	c #428B90",
"I.	c #439787",
"J.	c #66A680",
"K.	c #2C6500",
"L.	c #006F62",
"M.	c #007759",
"N.	c #1D7960",
"O.	c #398800",
"P.	c #0D7460",
"Q.	c #62948C",
"R.	c #007262",
"S.	c #006C70",
"T.	c #175D13",
"  . + + @ @     #   $ $ $ % # & * = - ; > > , , ' ) ! ~ ~ { ] ^ ",
"/ ( ( & % _ : < [ } | $ 1 [ < * 2 3 4 ; 5 5 5 6 7 8 ! 9 ~ ! 0 0 ",
"( a a | & * b * & c c & d 2 c - e f 4 g 5 h 5 i j ~ k ~ ! l m n ",
"  ( } b * o | & 1 d p c 2 q q r e 3 4 5 s t h , u 9 k v ] w w 0 ",
"@ + } : b o _ 1 [ & : q q q r x - y f h z A 6 B m C D C m w E F ",
". G | o p a H # & _ * q - I 3 r I - x J t K L M N E C w w O O F ",
"P Q # * p   H R | & : S p p e q T T I x z U M V F w O W X w O Y ",
"Z `  ...+.... # < _ * S o o @.= #.$.a g K %.n F F w W F O X w Y ",
"&.*.=. ./ -.;.$.>...a S ,.'.).!.~.{.].g ^./.V F n X F Y F X X (.",
"*.*._.:.-.;.<.-.( ..} : +.[.}.|.1.2.3.= ^.4.5.5.5.X Y Y ] X X (.",
"*.*.6.=.7.8.=.-.R H ( +.'.[.-.;.9.1.8.0.^.a.5.5.5.5.] l ] X X w ",
"b.*.1.c.:.{.&. .}.$.[.'.).}.3.d.e.e.:.].^.f.5.5.5.5.l l O 5.5.5.",
"b.e.e.b.g.=.b.;.$.-.$.).[.h.i.6.e._.6.j.k.f.F 5.5.] l l w 5.5.5.",
"b.e.e.*.=.b.1.;.|. .-.}.$.i.l.6._._.m.j.n.F Y l D D l W X o.5.5.",
"*.e.0 e.b.1.1.8. . .p.h.-.7.<.=._.9.6.j.q.r.O ] D D W 5.o.s.5.5.",
"e.e.e.e._.b.1.t. .8.P -. .8.u._._.9.{.j.n.r.X (.(.O 5.o.v.w.o.s.",
"e.e.e.e.e.9.b.d.7.:.8.3.;.t.=._.1.*.x.j.n.M 5.5.5.5.5.o.v.v.o.s.",
"e.*.e._.e._.9.{.8.<.Z 8.8.y.=.=.1.*.c.j.n.v.v.v.s.o.5.s.s.o.5.o.",
"_.&.&.9.e.e.*.=.t.<.&.Z d.6.9.y.e.b.m.j.n.z.w.w.s.o.5.v.s.o.5.n ",
"9.&._.&.&.e.e.&.{.&.e.A.=.&.B.*.e.6.m.j.0.z.C.w.s.5.s.v.v.5.5.n ",
"_.&.&.&.=._._.e.6.&.e._.B.B.*.*.b.y.t.#.n.D.C.C.s.5.s.s.s.5.W w ",
"2.=.A.=.6.=.2._._.e.e.e.B.*.B.A.g.B.d.E.F.G.C.v.o.s.v.l Y r.W 5.",
"B.&.B.g.t.c.=.B.e.e.e.e.e.e.=.=.9.B.:.j.F.z.s.o.v.C.D l l F w 5.",
"A.B.B.u.d.c.c.A.e.e.e.e.=.=.A.=.&.B.8.].n./.V s.w.C.w.F Y (.5.o.",
"=.g.g.g.g.=.=.=.&._.e.2.2.B.u.u.u.=.l.].H.M s.s.w.w.v.Y (.n s.s.",
"d.g.g.x.u.A.&.=.9._.e.2.B.B.u.u.<.<.l.I.J.K.v.s.v.v.l F F (.s.s.",
"x.x.L.M.` u.=.=.=.9._.2.B.u.u.u.d.d.N.I.J.O.Y s.] D F Y ] F (.v.",
"L.M.M.x.l.u.=.{.y.9.&.&.<.<.u.u.u.Z ~.H.; O.F Y l Y Y l l D F w.",
"M.M.` ~.P.l.=.d.c.b.=.=.d.x.:.d.Z Z 7.H.Q.f.] l (.(.l D l D Y C.",
"L.` l.R.P.l.d.d.m.6.6.<.d.l.l.l.Z Z ;.!.q.G.Y (.w o.(.l D D Y s.",
"S.` ~.;.N.~.:.u.8.c.c.<.d.t.l.~.Z Z 3.!.; T.(.w v.w.C.(.l D Y s.",
"R.~.R.i.N.R.l.Z t.c.d.d.l.~.;.~.Z ` |.!.I.0 w o.w.C.C.w.v.l s.X "};
