/* XPM */
static char * wallwater_bottom_middle_3_xpm[] = {
"32 32 206 2",
"  	c #00695D",
". 	c #005565",
"+ 	c #006D49",
"@ 	c #00764E",
"# 	c #006266",
"$ 	c #00345C",
"% 	c #004B5F",
"& 	c #004C64",
"* 	c #006C54",
"= 	c #004363",
"- 	c #006D65",
"; 	c #007B5F",
"> 	c #007149",
", 	c #006B6B",
"' 	c #005A6A",
") 	c #007F47",
"! 	c #007B43",
"~ 	c #007343",
"{ 	c #005965",
"] 	c #00646C",
"^ 	c #003961",
"/ 	c #008844",
"( 	c #007A4A",
"_ 	c #004068",
": 	c #004B6B",
"< 	c #00725A",
"[ 	c #008545",
"} 	c #008D49",
"| 	c #006272",
"1 	c #007256",
"2 	c #004870",
"3 	c #008585",
"4 	c #009474",
"5 	c #069662",
"6 	c #007672",
"7 	c #00777B",
"8 	c #009195",
"9 	c #005272",
"0 	c #009757",
"a 	c #00A272",
"b 	c #008A4A",
"c 	c #008D8D",
"d 	c #006874",
"e 	c #007C9C",
"f 	c #007797",
"g 	c #00587C",
"h 	c #007D69",
"i 	c #00A480",
"j 	c #008F57",
"k 	c #009256",
"l 	c #008971",
"m 	c #008367",
"n 	c #006991",
"o 	c #005D85",
"p 	c #0083A3",
"q 	c #00869E",
"r 	c #007272",
"s 	c #008C6C",
"t 	c #009D71",
"u 	c #00AD8D",
"v 	c #0085A5",
"w 	c #008474",
"x 	c #0098A4",
"y 	c #00919D",
"z 	c #00C2A6",
"A 	c #00AA9E",
"B 	c #003F7C",
"C 	c #009D7D",
"D 	c #029FAF",
"E 	c #0092AA",
"F 	c #005D89",
"G 	c #00AB6F",
"H 	c #009E96",
"I 	c #0090B0",
"J 	c #00B189",
"K 	c #00B890",
"L 	c #00847C",
"M 	c #00794D",
"N 	c #008840",
"O 	c #008995",
"P 	c #00B0B4",
"Q 	c #007094",
"R 	c #006084",
"S 	c #007494",
"T 	c #13B39B",
"U 	c #008CB9",
"V 	c #009FAF",
"W 	c #00688C",
"X 	c #00A2BA",
"Y 	c #007E96",
"Z 	c #00A363",
"` 	c #00AC88",
" .	c #00BA9E",
"..	c #00A2B6",
"+.	c #007498",
"@.	c #00C78F",
"#.	c #0081B2",
"$.	c #009FBB",
"%.	c #00B063",
"&.	c #009666",
"*.	c #00B1BD",
"=.	c #008EBA",
"-.	c #00708C",
";.	c #0094B4",
">.	c #0074A0",
",.	c #0091A5",
"'.	c #00A5AD",
").	c #009AB2",
"!.	c #00A4BC",
"~.	c #00699A",
"{.	c #00B5C5",
"].	c #1BC4D0",
"^.	c #0098C0",
"/.	c #0081A9",
"(.	c #21A1AD",
"_.	c #1BA37F",
":.	c #31A5B5",
"<.	c #27A7C3",
"[.	c #06AFC3",
"}.	c #3ECACA",
"|.	c #55D4BC",
"1.	c #20BDC5",
"2.	c #169EB2",
"3.	c #53BABE",
"4.	c #3FA2A6",
"5.	c #5EC1C5",
"6.	c #1AA6BA",
"7.	c #5AB9C9",
"8.	c #49C4C0",
"9.	c #50C3CB",
"0.	c #83D1C9",
"a.	c #19A6BE",
"b.	c #73C9B5",
"c.	c #359C80",
"d.	c #4EB59D",
"e.	c #31B1BD",
"f.	c #63BACA",
"g.	c #5BC2D2",
"h.	c #7DC7CF",
"i.	c #00B696",
"j.	c #47AEC2",
"k.	c #73C5CD",
"l.	c #0099A5",
"m.	c #0089A5",
"n.	c #0DA6B6",
"o.	c #3AA9B9",
"p.	c #4C9FAB",
"q.	c #0B8FAB",
"r.	c #188CA4",
"s.	c #007D9D",
"t.	c #007490",
"u.	c #005783",
"v.	c #00558A",
"w.	c #008BAB",
"x.	c #6FCAD6",
"y.	c #86CCD8",
"z.	c #85E4EC",
"A.	c #24C9D5",
"B.	c #0076A7",
"C.	c #006491",
"D.	c #0FC0CC",
"E.	c #55D5DD",
"F.	c #3CD4DC",
"G.	c #4DC9D5",
"H.	c #00A7C3",
"I.	c #26CFDB",
"J.	c #33DCE0",
"K.	c #41CDD9",
"L.	c #40D8E0",
"M.	c #71E8EC",
"N.	c #65DCE4",
"O.	c #03BCC8",
"P.	c #C8E9ED",
"Q.	c #A9D4E3",
"R.	c #72C1D1",
"S.	c #8FD5E1",
"T.	c #5BE7EB",
"U.	c #9FDDE5",
"V.	c #96ECF0",
"W.	c #9CF2F2",
"X.	c #ABE9ED",
"Y.	c #FDFDFD",
"Z.	c #D4F1F5",
"`.	c #E2F4F7",
" +	c #B9F3F3",
".+	c #CBF8F8",
"++	c #ABE1E9",
"@+	c #CBECF0",
"#+	c #44C8D0",
"$+	c #E1FAFA",
"%+	c #CBF4F8",
"&+	c #79E4E8",
"*+	c #66D9E1",
"=+	c #25CED6",
"-+	c #69D8D0",
";+	c #7DE0E4",
">+	c #002D6E",
",+	c #004374",
"'+	c #005179",
")+	c #004D82",
"!+	c #00527E",
"~+	c #003E6E",
"{+	c #004272",
"]+	c #37DCE4",
"^+	c #0DBACA",
"/+	c #007999",
"    . + @   # + + . $ % & * = . + - ; * % + + % $ $ $ % > - # + ",
".   . , - ' @ ) + & % & & % $ & # ! ! ~ { + + # % $ $ % # > * - ",
"& { ] # ' ; ! ~ ' & ^ # . % % = ! ) / ( & > + # { % % % _ # : < ",
"& : ]   ' / [ @ { = { ' { . . . ! ) } ) { ' * { { ~ ~ > # & & # ",
"_ _ ' _ | } ! ! # = # & _   : : ~ @ [ ~ & = & : 1 ( ( - @ # # _ ",
"| ' 2 _ 3 4 ) - & # , # .   ] : @ } 5 @ = = = { - ~ @ ( [ 6 2 _ ",
"7 7 - , 8 8 - # - ( ! , * . : 9 } 0 a @ _ = = & - - - b } } 7 _ ",
"c 3 d | e f 2 , @ ; ) < . _ g h 0 a i 6 _ _ : # &   @ j j k l m ",
"e n | o p q ; r @ @ 6 h   ] s 3 t u v g ' , - 9 & # 7 k } a t w ",
"x y | i z A 3 d 6 1 s 7 ] B c c C D E F 9 | 6 6 - _ 7 c 5 G u H ",
"I E k J z K c L M N L s N m O y u P I Q g g 7 m 7 6 R S 8 u T u ",
"U V W V X z Y s s M s C k Z C `  ...E +.R R l j / 7 3 e H  .@.@.",
"U #.Q U $.U C C L r C %.&.Z ` T P *.=.x -.F 4 4 k m n q v X z @.",
"=.;.>.X *.*.,.e f d c T G %.'.).$.!.!.V ~.n S t k c e K K z {.].",
"^.^.E *.*.X ,./.(.b _.:.Z i  .<.=.[.<...y S O 8 c c p E  .z }.|.",
"<.1.P X X ..E 2.3.5 4.5.G i 6.7.<.8.9.!.E q e 8 -.S E ;.V z |.0.",
"9.7.a.!.X ..'.5.b.c.d.5.(.y e.f.g.9.h.8.'.x y S -.y i.=.P 9.g.|.",
"j.8.k.e.P  .e.0.b.4.:.:.2.v e.a.g.k.h.0.e.2.v n n l.3.6.j.k.8.e.",
"m.2.f.5.n.!.j.b.o.p.4.m.:.(.).).e.7.5.f.7.o.q.S e 2.5.e.e.o.l.x ",
"W S e.e.2.o.o.2.r.r.f +.(.(.m.p v :.2.6.j.o.q.e s.q.:.o.e.x t.t.",
"u.v.q.w.r.:.q.f v r.S W s.r.S +.~.p w.<.(.m.m.v s.s.m.5.x.I Q t.",
"Q v.Q S e /.>.e r.p.f R F S S >.e ~./.n.m./.n.n.:.D D y.z.A.!.V ",
"'.B.C.~.~.~.+.m.o.j.q.R R S S m.p e >.m.n.[.D.9.j.j.8.E.E.F.G.[.",
"v =.H.,.v.F >.:.j.y.j.>.S p r.<.6././.<.g.I.J.K.y.y.G.K.L.M.N.F.",
"f.g.K.O.v /.=.<.y.P.Q.k.j.3.R.S.g.n.<.S.M.T.M.N.S.U.S.L.J.M.V.M.",
"W.X.z.N.G.].}.y.P.Y.Y.Z.P.Q.W.W.L.<.R.`. +W..+X.++P.++N.L.T.V.W.",
"T.M. +@+Q.K.#+U.$+Y.Y.$+`.Z.Z.z.}.).R.%+W. +$+Z.@+P.&+*+].=+J.L.",
"I.K.K.-+X.X.++Z.Y.Y.Y..+%+%+%+G.e R 2.*+N.N.`.`.@+++*+K.).=.w.Q ",
"p p W o #+.+$+.+.+$+ +M.z.;+&+K.C.>+,+v O.O.N.W.&+A.O.*.W '+)+!+",
"~+] {+~+v L.M.z.W. +M.]+]+$.*.D.n >+,+)+).*.P ^+!.e W )+B )+Q e ",
">+{+B o O E *.D.=+E.F.]+I.p Q y t./+B.e !.A.;.W o W u.)+v.~.B.B.",
"B )+C.e >.p P U q >.$.I.A.{.V e U {.H.[.^+D.P Y /+x B.~.#.U U E "};
