/* XPM */
static char * wallwater_top_border_right_3_xpm[] = {
"32 32 196 2",
"  	c #005471",
". 	c #005D7D",
"+ 	c #006693",
"@ 	c #00608D",
"# 	c #005989",
"$ 	c #005784",
"% 	c #005380",
"& 	c #005272",
"* 	c #006481",
"= 	c #04697B",
"- 	c #1F5E1A",
"; 	c #376516",
"> 	c #457019",
", 	c #437A00",
"' 	c #6C8C00",
") 	c #568B00",
"! 	c #5C9C00",
"~ 	c #62A400",
"{ 	c #407400",
"] 	c #235400",
"^ 	c #3B6D00",
"/ 	c #00526C",
"( 	c #00597B",
"_ 	c #005378",
": 	c #005479",
"< 	c #037993",
"[ 	c #31573B",
"} 	c #30693C",
"| 	c #3B681F",
"1 	c #538A00",
"2 	c #739800",
"3 	c #3F8100",
"4 	c #24461B",
"5 	c #005575",
"6 	c #007989",
"7 	c #306C51",
"8 	c #3F7135",
"9 	c #4B8500",
"0 	c #80A500",
"a 	c #233921",
"b 	c #262D12",
"c 	c #004E63",
"d 	c #00606D",
"e 	c #004660",
"f 	c #004C64",
"g 	c #007F8F",
"h 	c #3A7F2B",
"i 	c #578321",
"j 	c #285900",
"k 	c #2A2F32",
"l 	c #203322",
"m 	c #213E10",
"n 	c #004E6B",
"o 	c #148999",
"p 	c #32794E",
"q 	c #497B00",
"r 	c #185600",
"s 	c #143900",
"t 	c #004B6A",
"u 	c #067390",
"v 	c #3A7B7B",
"w 	c #48844D",
"x 	c #393B28",
"y 	c #232504",
"z 	c #123700",
"A 	c #103800",
"B 	c #0E4B00",
"C 	c #00475C",
"D 	c #006B82",
"E 	c #1E858D",
"F 	c #4B8C55",
"G 	c #3E433F",
"H 	c #232315",
"I 	c #1C1C09",
"J 	c #005C64",
"K 	c #003F59",
"L 	c #00545C",
"M 	c #005C73",
"N 	c #20777F",
"O 	c #1D1D1D",
"P 	c #00555A",
"Q 	c #005055",
"R 	c #004453",
"S 	c #003C51",
"T 	c #003A4C",
"U 	c #006341",
"V 	c #006147",
"W 	c #006065",
"X 	c #006351",
"Y 	c #004F69",
"Z 	c #287582",
"` 	c #113600",
" .	c #00454F",
"..	c #00585D",
"+.	c #4E838A",
"@.	c #00615C",
"#.	c #00695F",
"$.	c #003950",
"%.	c #2A7489",
"&.	c #558591",
"*.	c #2A2D32",
"=.	c #346E00",
"-.	c #00725D",
";.	c #006C4A",
">.	c #398A85",
",.	c #4E9583",
"'.	c #40492B",
").	c #007758",
"!.	c #00546B",
"~.	c #50848E",
"{.	c #2D6000",
"].	c #004761",
"^.	c #0F6E54",
"/.	c #046B5C",
"(.	c #077967",
"_.	c #3A918E",
":.	c #005264",
"<.	c #056767",
"[.	c #07686B",
"}.	c #3B958B",
"|.	c #5DA183",
"1.	c #2C250B",
"2.	c #37370C",
"3.	c #3A8491",
"4.	c #474709",
"5.	c #555500",
"6.	c #12796C",
"7.	c #056169",
"8.	c #126E69",
"9.	c #1A846A",
"0.	c #4F5622",
"a.	c #096473",
"b.	c #669597",
"c.	c #5A6405",
"d.	c #715900",
"e.	c #0D7471",
"f.	c #0D8263",
"g.	c #7A7000",
"h.	c #157179",
"i.	c #1A8484",
"j.	c #027971",
"k.	c #438392",
"l.	c #73A9A9",
"m.	c #127C89",
"n.	c #1C8E93",
"o.	c #479898",
"p.	c #5C6607",
"q.	c #21949E",
"r.	c #2D815B",
"s.	c #0B7882",
"t.	c #66A6B5",
"u.	c #1896A0",
"v.	c #15A2A5",
"w.	c #138393",
"x.	c #1B8E9B",
"y.	c #4B98AA",
"z.	c #3B4133",
"A.	c #1D98AA",
"B.	c #25A7AA",
"C.	c #15797C",
"D.	c #0D86A5",
"E.	c #73C7B0",
"F.	c #306602",
"G.	c #18A0B5",
"H.	c #2FC1B1",
"I.	c #26A3A3",
"J.	c #005970",
"K.	c #1D92A7",
"L.	c #1EA1B3",
"M.	c #2CA9AC",
"N.	c #69B29B",
"O.	c #75C9C9",
"P.	c #579400",
"Q.	c #37B9B1",
"R.	c #22AFB7",
"S.	c #097C99",
"T.	c #4F9EB3",
"U.	c #76CDD2",
"V.	c #79C5BD",
"W.	c #38C5C0",
"X.	c #2CB7BC",
"Y.	c #35B2B5",
"Z.	c #34B4C1",
"`.	c #45B2C2",
" +	c #72B9C3",
".+	c #83CCD4",
"++	c #4EAA98",
"@+	c #0F858F",
"#+	c #29A6BB",
"$+	c #7BD0DA",
"%+	c #37B9BC",
"&+	c #319076",
"*+	c #7CC3D0",
"=+	c #50C2C5",
"-+	c #7DB9BE",
";+	c #9AD3D8",
"    . . . . . . + + @ + # + + $ % & * = - ; ; > , ' ) ! ~ { ] ^ ",
"/ ( ( . _ . $ . @ @ # + . . # # $ : < [ } | ; 1 ! 2 3 ! ~ ' 4 4 ",
"/ _ _ _ : $ $ $ # # # @ . . 5 _ & _ 6 7 8 > ; 9 ) ~ 0 ! ) ^ a b ",
"c 5 5 5 5 % ( ( $ ( $ $ ( d d _ e f g 8 h i , { j ! 0 , ] k l m ",
"f f n 5 5 : : 5 & : : & 5 & & e e f o } p | q r a j q j a l s m ",
"& / n f f n n n & n f e & & : & t f u v w [ r x y s j l l z A B ",
"/ & n f / n n n n C C e n & 5 5 t t D E F G a H B l A A I l A j ",
"n J J J n n f f e C K L L e J d / c M N v x O B B l A B A I l ] ",
"P Q Q K C R Q S S T Q U V V L W X C Y Z v [ H B H I B ] B I I ` ",
"V L Q K C R T T T T  .Q V L ....P C W Z +.x O H O I ] ] ] I I ` ",
"V @.#.@.C K R $. .T  .P V @.c c #.#.Y %.&.*.O O O O ] =.] I O l ",
"#.V #.-.c P Q R  .T  .;.X J J c c C W >.,.'.O O O O ^ =.` O O O ",
"#.J J ).@.W P Q Q T Q X ..W #.#.P c !.>.~.{.B O O ] =.=.l O O O ",
"#.J ].J W ^.^...Q T  .C C P #./.#.c (._.+.4 ] =.q q =.` O H O O ",
"#.J L :.<.^.^...R $.Q C C c c /.#.#.[.}.|.*.` ] q q ` O 1.2.O O ",
"#.f ].c :./.^.W P  .P C c W W c @.#.(.3.+.*.O ` ` ` O 1.4.5.1.2.",
"c c c c :.<.<.<.:.R C C W W [.P -.#.(.}.~.x O O O O O 1.4.4.1.2.",
":.W :.:.:.:.<./.:.C C C :.<.[.(.).#.6._.~.'.4.4.2.1.O 2.2.1.O 1.",
"7.8.8.7.:.c W 7./.:.C ].W W 7.(.c -.9.3.~.0.5.5.2.1.O 4.2.1.O ` ",
"7.8.[.a.7.:.c W /.#.]...:.W 7.W :.(.9._.b.c.d.5.2.O 2.4.4.O O ` ",
"7.a.e.= e.7.c :.^.:.].].].!.W !.).f.= 3.b.g.d.d.2.O 2.2.2.O ` l ",
"!.h.D i.9.8.W :.:.].].c :.!.[.j.f.[.a.k.l.g.d.4.H 2.4.=.] l ` O ",
"M 6 m.n.F f.8.[.Y Y ].c :.Y j.9.e.7.a.o.l.p.2.1.4.d.q =.=.B b O ",
"D u < q.E r.v a.  Y c c -.-.6 6 s.= h.b.t.'.O 2.5.d.5.B ] ` O b ",
"E u.v.v.< e.h.6.h.  c :.Y M w.n.x.m.v y.t.z.2.2.5.5.4.] ` l 2.2.",
"A.B.B.B.n.= h.C.s.= :.:.Y D < D.A.q.3.E.E.F.4.2.4.4.=.B B ` 2.2.",
"G.G.H.H.I.s.i.i.E i.!.Y J.m.D.K.L.M.N.O.E.P.] 2.] q B ] ] B ` 4.",
"H.Q.H.R.M.< 6 E w.E e.[.Z S.u.A.G.T.T.U.V.1 B ] =.] ] =.=.q B 5.",
"W.H.R.X.Y.q.w.x.o.n.f.e.%.I.L.L.Z.`. +.+ +- ] =.` ` =.q =.q ] d.",
"W.R.Z.Z.Q.I.x.q.++x.i.f.@+A.L.#+`.`. +$+O., ] ` l H ` =.q q ] 2.",
"O.X.Z.%+Q.M.A.K.T.++&+i.n.A.#+Z. +*+O.$+V.- ` l 4.5.d.` =.q ] 2.",
"*+Z.=+%+%+M.A.T.-+N.>.m.q.M.#+`.$+;+.+$+-+4 l 1.5.d.d.5.4.=.2.O "};
