/* XPM */
static char * wallwater_bottom_middle_1_xpm[] = {
"32 32 181 2",
"  	c #00444D",
". 	c #00354D",
"+ 	c #005347",
"@ 	c #003F4B",
"# 	c #005D54",
"$ 	c #004352",
"% 	c #005062",
"& 	c #006473",
"* 	c #00595C",
"= 	c #004B5A",
"- 	c #00665D",
"; 	c #003550",
"> 	c #00504A",
", 	c #005451",
"' 	c #005463",
") 	c #005B49",
"! 	c #005F6B",
"~ 	c #00465B",
"{ 	c #006164",
"] 	c #006271",
"^ 	c #00654D",
"/ 	c #003A52",
"( 	c #005950",
"_ 	c #006F5A",
": 	c #004E54",
"< 	c #00634E",
"[ 	c #003A58",
"} 	c #006B53",
"| 	c #006253",
"1 	c #00545A",
"2 	c #006A43",
"3 	c #00584F",
"4 	c #036E53",
"5 	c #004260",
"6 	c #007349",
"7 	c #006143",
"8 	c #004361",
"9 	c #006B47",
"0 	c #006063",
"a 	c #007646",
"b 	c #007B3F",
"c 	c #007E3F",
"d 	c #006A5B",
"e 	c #006C66",
"f 	c #007459",
"g 	c #006D64",
"h 	c #00794C",
"i 	c #007355",
"j 	c #00586A",
"k 	c #006E74",
"l 	c #0F775C",
"m 	c #007A62",
"n 	c #006E71",
"o 	c #00667B",
"p 	c #208273",
"q 	c #2D8885",
"r 	c #0E7676",
"s 	c #0E796D",
"t 	c #007B78",
"u 	c #078573",
"v 	c #006883",
"w 	c #006A85",
"x 	c #1591A3",
"y 	c #008297",
"z 	c #0D6F81",
"A 	c #19878D",
"B 	c #3B949D",
"C 	c #00658C",
"D 	c #00738B",
"E 	c #00748C",
"F 	c #057D86",
"G 	c #097D7A",
"H 	c #468F95",
"I 	c #62A7A7",
"J 	c #45A1AD",
"K 	c #278992",
"L 	c #1C98AA",
"M 	c #45B1BD",
"N 	c #4CA5B4",
"O 	c #1995A7",
"P 	c #14909F",
"Q 	c #1A8C95",
"R 	c #298894",
"S 	c #217483",
"T 	c #66A6B2",
"U 	c #66B5C1",
"V 	c #C9E8E5",
"W 	c #CDE3E6",
"X 	c #39A5B4",
"Y 	c #35AAB9",
"Z 	c #4BBAC6",
"` 	c #6EC6CC",
" .	c #70BFC8",
"..	c #58B1BA",
"+.	c #408698",
"@.	c #279CAE",
"#.	c #4CBECA",
"$.	c #55C4CD",
"%.	c #94D6DC",
"&.	c #49B2C1",
"*.	c #26A5B7",
"=.	c #3AACBB",
"-.	c #5CB5BE",
";.	c #83CFD5",
">.	c #C0ECEC",
",.	c #77CCD5",
"'.	c #89CCD8",
").	c #AFE2E8",
"!.	c #B8E1E4",
"~.	c #4A9FA5",
"{.	c #4F92A1",
"].	c #659EAA",
"^.	c #58C4D0",
"/.	c #D8EBEB",
"(.	c #E1F4F4",
"_.	c #6ED0D9",
":.	c #C1DADD",
"<.	c #A8D1D4",
"[.	c #71C7D3",
"}.	c #ABD7DD",
"|.	c #F1FAFA",
"1.	c #E0F9F9",
"2.	c #83B6BF",
"3.	c #CDE4E9",
"4.	c #FCFCFC",
"5.	c #B2E8EB",
"6.	c #CAF3F3",
"7.	c #DCF5F8",
"8.	c #F6F6F6",
"9.	c #EAF0EE",
"0.	c #9BCDCA",
"a.	c #95C1C4",
"b.	c #E1EEEE",
"c.	c #B9EFF2",
"d.	c #8FE4EA",
"e.	c #D2ECF1",
"f.	c #7EDAE0",
"g.	c #E5F6F8",
"h.	c #A5E1E4",
"i.	c #6BD6DC",
"j.	c #88E0E3",
"k.	c #79D5DE",
"l.	c #2CA4B3",
"m.	c #33A8B7",
"n.	c #64CCD5",
"o.	c #0086A1",
"p.	c #008BA3",
"q.	c #007C94",
"r.	c #007691",
"s.	c #0B879C",
"t.	c #007590",
"u.	c #0692AA",
"v.	c #0D8C9E",
"w.	c #00839B",
"x.	c #00608A",
"y.	c #3BB0C2",
"z.	c #007D9B",
"A.	c #006182",
"B.	c #005879",
"C.	c #006189",
"D.	c #007799",
"E.	c #006E90",
"F.	c #007395",
"G.	c #006A8F",
"H.	c #46AFCA",
"I.	c #007EA9",
"J.	c #0074A5",
"K.	c #005FA3",
"L.	c #006287",
"M.	c #0496B4",
"N.	c #1FABC6",
"O.	c #005B79",
"P.	c #089AB8",
"Q.	c #0C9EB9",
"R.	c #005E98",
"S.	c #005F99",
"T.	c #006E93",
"U.	c #00739E",
"V.	c #00669D",
"W.	c #005F7A",
"X.	c #005D97",
"    .   + @   + + # $ % & * . @   + + + = - # & & = ; $ + + @ + ",
"        >   + + + , ; = '   . . @ + + + , # ) ! & ~ ; ;   $     ",
".         + + +     . , = @ . . + + ) + $ # , { ] $   ; @ @ @   ",
".         ) ^ + @ . .   , @ . . ) ) ) )   , , = ! ) + + ; . .   ",
". . / ;   ) ( ,   . @       . . , , ( , @     = _ ) ) + ,   . . ",
"$   / . : ) ) , .           / . , < < , . . . : { , + , ) , ; ; ",
": : [   ( * :   $ + + : >   . / < ^ ^ , . . ; $ # $ $ ) < ) [ ; ",
"= = , $ [ = / $ + ) + >   .   : ^ } < = . . . $ $   + < ^ | , | ",
": : : / [ 1 1 $ , , : : > / : : } } % [ . $ $ $ $   , ) ^ ^ ^ = ",
"= = ~ 2 2 | * : = , * : >   : 3 | } ' / . @ + $ @ . @ , ^ 4 ^ ^ ",
"* 5 2 2 6 6 | 1 3 7 3 3 : : : # } - 8 [ . @ + + > @ @ : # 9 4 ^ ",
"5 1 [ 0 0 6 0 * | 3 ( | 7 2 ( ^ 4 ' 8 [ ; ; + ) ) + @ $ - a b c ",
"5 ~ ~ % % 0 d d 1 1 < < 7 < | } - { ' * / $ , ) ) , $ [ % e d f ",
"5 5 5 0 d f d 5 ~ 1 1 < 6 9 | * { { { ' [ / = < ) ( $ } 6 f 6 g ",
"5 5 % 0 g d 0 % * < - 1 2 < | ' 8 { ! { = ~ = # # , = = 6 h 6 6 ",
"5 % d 0 0 0 ' % { } 4 < | d * 8 8 e e } 0 = = * = = # { 0 g i h ",
"' ' ' i g g e d e _ _ } e j % j ' ] k _ 4 } ' ' 0 { } ! ! ! d h ",
"' % e l e f m m ] k n ] o o ] n j ! k & p q & ! ] & k k k ! f _ ",
"% ! r s r t u u v v k w x y z w ] ! e k A B C w D D E D F k G G ",
"j z q H I J q K E D D L M N B F & ! G o w x x x L O P Q Q A Q R ",
"S T I U V W J X L Y Y Z `  ...Q S S +.q @.#.$.%.%.&.*.*.=.M -.J ",
"U U  .;.>.V  .`  .,.,.'.).!.;.~.{.+.{.].,.'.^./.(.%.` _.%.!.!. .",
"/.:.<.<.!.<.[.%.}.W !.(.|.1.}.2.U ].{.<./.3.;.(.4.(.5.6.7.6.7.).",
"8.8.9.9./.0.a.:./.b.9.(.6.(.(././.<.2./.!.:.3.|.4.|.7.1.c.d.6.(.",
"8.4.8.8.(./././.e.>.(.5.f.6.|.|.g.}.!.(.h.;.h.(.7.g.g.c.i.Z 5.c.",
"U }.3.W /.(.|.b.%.f.j.$.Y %.>.6.e.;.k.` l.m.M $.n.i.i.Z O O Z $.",
"o.&.,.[.'.!.>.j.@.x p.q.r.x Y ,.,.m.s.C w q.y q.t.t.r.s.u.L v.y ",
"x x w.o.x l.Y =.x q.C x.x.w t.p.u.w w E p.o.w.w.r.F v.L x p.v.y ",
"j.y.z.w.x *.*.@.x y x.x.x.x.v w A.B.C.D.r.D.E.C q.t.D F.v v G.r.",
"6.H.z.w.I.u.x v.I.I.J.J.J.D.K.A.j L.C.E.D.q.q.p.x x O u.M.u.p.y ",
"N.M.u.I.p.F.O.q.M.P.Q.Q.Q.P.M.o.F.R.R.S.G.A.A.D D D z.J.J.J.J.T.",
"S.S.S.S.S.C.S.U.x.V.V.K.K.V.E.A.C.R.R.C.L.B.B.L.L.W.W.C.S.X.X.L."};
