/* XPM */
static char * wallwater_top_middle_1_xpm[] = {
"32 32 125 2",
"  	c #0078AC",
". 	c #0070A8",
"+ 	c #006CA3",
"@ 	c #00639D",
"# 	c #006B8C",
"$ 	c #007394",
"% 	c #00799A",
"& 	c #006C92",
"* 	c #07778C",
"= 	c #007292",
"- 	c #227B8C",
"; 	c #006F95",
"> 	c #006682",
", 	c #00678D",
"' 	c #006A8B",
") 	c #0075AA",
"! 	c #0075B3",
"~ 	c #048FB3",
"{ 	c #0077A4",
"] 	c #0082A2",
"^ 	c #2A8394",
"/ 	c #0F7F94",
"( 	c #218AA1",
"_ 	c #298199",
": 	c #007E9D",
"< 	c #026A7C",
"[ 	c #1F8FA4",
"} 	c #489BAD",
"| 	c #388D9D",
"1 	c #5A929F",
"2 	c #3A818F",
"3 	c #4692A6",
"4 	c #0085A4",
"5 	c #096C83",
"6 	c #2B94AB",
"7 	c #058AAA",
"8 	c #4894A8",
"9 	c #0084B3",
"0 	c #468896",
"a 	c #2B96B0",
"b 	c #1193BB",
"c 	c #0094B9",
"d 	c #00719A",
"e 	c #0D869C",
"f 	c #45A0B5",
"g 	c #309DBA",
"h 	c #339EB3",
"i 	c #008FB7",
"j 	c #006A8F",
"k 	c #128997",
"l 	c #177A91",
"m 	c #3BA1BB",
"n 	c #3B6A6B",
"o 	c #14656E",
"p 	c #106B80",
"q 	c #219DA6",
"r 	c #6EAEB3",
"s 	c #485D5C",
"t 	c #295254",
"u 	c #226672",
"v 	c #1F7684",
"w 	c #295C63",
"x 	c #266A76",
"y 	c #37888C",
"z 	c #348184",
"A 	c #3E7877",
"B 	c #3D7D7D",
"C 	c #369083",
"D 	c #3A8E94",
"E 	c #589B9D",
"F 	c #83AEAA",
"G 	c #73A8A8",
"H 	c #38A29C",
"I 	c #3E9896",
"J 	c #505B59",
"K 	c #1D625A",
"L 	c #384C4D",
"M 	c #1C424C",
"N 	c #2C5B5C",
"O 	c #1E606E",
"P 	c #3F8484",
"Q 	c #24767E",
"R 	c #4E6E69",
"S 	c #3F7474",
"T 	c #63A2A3",
"U 	c #499FA3",
"V 	c #339B9D",
"W 	c #336363",
"X 	c #445454",
"Y 	c #084858",
"Z 	c #215A61",
"` 	c #205D6A",
" .	c #25525A",
"..	c #1C6C7C",
"+.	c #345955",
"@.	c #2C4347",
"#.	c #3C514F",
"$.	c #31484C",
"%.	c #264046",
"&.	c #204550",
"*.	c #274D52",
"=.	c #224A4D",
"-.	c #235854",
";.	c #074E61",
">.	c #525252",
",.	c #437368",
"'.	c #456565",
").	c #506560",
"!.	c #0B4250",
"~.	c #094453",
"{.	c #0B4F5B",
"].	c #3D625B",
"^.	c #0B565B",
"/.	c #246958",
"(.	c #206A60",
"_.	c #29735C",
":.	c #3F6A61",
"<.	c #4E6961",
"[.	c #004C60",
"}.	c #196163",
"|.	c #397361",
"1.	c #356055",
"2.	c #516C65",
"3.	c #287263",
"4.	c #2B7B5F",
"  . . + + + @ . . # $ % $ & * = - % % % ; & & > , @ $ $ ' )   % ",
"  ! ~   . . { ] ^ / % % % ' % { ( _ ( ] : % $ < > {   : ] [ ^ / ",
"] ] } ~   ( | 1 2 ] ] % 2 ] ] . ! ~ ( [ 3 4 - 5 5 _ 6 7 6 ~   ] ",
": { | } 8 8 } 9 ! 8 % $ 0 7 { %   ~ ] ^ 1 1 | = _ 3 a b c ! ) ) ",
"d * e 6 f g g     ~ { d [ 6 : { . ! : / ( } 6 e [ h i b c ) { ) ",
"d d   7 8 a b       : : [ ( / { {   % % 7 h h a } i 9 i i . d . ",
"' j 4   e 7 8 {     { % [ ( * k l ] { : 4 i h m m 6 9 i i d j $ ",
"n o * / p l l = e % * l [ ^ j k # % ^ * e q } r h q 4 4 : < o < ",
"s t u v w p x v - l y y [ y x z A v B B C D E F G H I l - n J K ",
"L M N u N x O x - l P y 3 - u Q n O R S P y 0 T U V C v v W L X ",
"L t Y N N w Z ` # - v y V v ` u Z  .N n B P v 1 V C z ..u +.@.#.",
"$.%.&.*.X Z Y Z ..z B P e ..Z w X @. .` S 5 p 0 k z ..u w M @.#.",
"M M @.=.#.+.-.t u z S z / u  .*.=.@.*.N O x u # l ..n n ;.$.@.>.",
"L @.#.#.M L X +.,.B n S - n &.$.M @.t X w u w v - O w Z N $.@.#.",
"#.L @.#.#.M L t '.S N O v w M %.@.@.X Y ;.` w ..v `  . .t L @.#.",
"@.#.L @.@.@.M =.t W  .` ..s M $.@.L #.$. .w N u p w Y t =.@.=.#.",
"#.=.=.M @.$.M %.$. .*.N n -.M M M t =.M  .w J x x  .&.*.&.%.>.=.",
"-.=.#.L M L &.>.$.&.&.X W L @.M M t M M *.).J '.x  .$.&.$.t L @.",
"M #.X =.M Y X #.$.$.M  . .M M M M M M $.*.J +.w O >.%.&.X #.M M ",
"@.-.X $.$.X X #.$.@.$.L t @.M =.*.!.!.=.L X t N ` J >.&.M !.M $.",
"#.-.=.=.&.J +.J $.M $.$.#.@.=.=.t t ~.=.$.=.$.X '.X >.#.*.*.M M ",
"-.=.M =.t J J t M &.L +.=.=.=.@.~.-.*.~.M M M  .s >.>.X +.X !.!.",
"~.!.~.~.+.N t $.L >.+.X t =.!.M ~.t t t !.M !.*.N &.$.J J J t ~.",
"t ~.t ~.t {.Y t X J #.#.t L M ~.N K N t M !.&.&.*.*.X J ].N X Y ",
"-.t Y ~.Y {.^.t X +.t -.L ~.L t ).).w ~.$.L *.*.&.L t X s ).). .",
"^.{.t /.(.K Z t t -.+.t t =.t t Z W Z ~.M M >.#.L @.$.>.s ).).).",
"N  .(.(.(._./.{.-.].t -.-.t ~.N W :.Z Y !.$.X >.>.$.$.t N ).).<.",
"[.^.{.}.(.|.}.N K +.N K 1.1.^.K 2.Z Z Y !.!.X J J >.L Y Z <.|.,.",
"{.[.{.Z K }.(.(.{.{./.].K 1.N 2.:.W Z s ~.~.J J J X &.t w (.}.,.",
"[.[.[.}.W 3.(.N ^. .^.K 1.].K N W ` ` Z Y ~. .s ).+.t (.|.|.(.}.",
"[.[.Z }.(.o }.Z N K :.-././.}.Z  .` n W N Y {.s J  . . .3.4._.3.",
"[.Z (.(.}.}.}.Z W 2.2.W N (.Z [.Z n R :.W  . .s  .X Z W Z (.(.4."};
