/* XPM */
static char * wallwater_top_border_right_2_xpm[] = {
"32 32 196 2",
"  	c #006282",
". 	c #006B8D",
"+ 	c #00648C",
"@ 	c #006888",
"# 	c #005587",
"$ 	c #006693",
"% 	c #006191",
"& 	c #006999",
"* 	c #007A9A",
"= 	c #128287",
"- 	c #4A7E4D",
"; 	c #4F7C40",
"> 	c #366612",
", 	c #3F7309",
"' 	c #477800",
") 	c #6C8C00",
"! 	c #4C8300",
"~ 	c #5C9C00",
"{ 	c #62A400",
"] 	c #407400",
"^ 	c #274D00",
"/ 	c #476900",
"( 	c #006B93",
"_ 	c #006A97",
": 	c #0898A8",
"< 	c #428B56",
"[ 	c #739800",
"} 	c #568B00",
"| 	c #579400",
"1 	c #24461B",
"2 	c #00789A",
"3 	c #00799E",
"4 	c #007297",
"5 	c #00829F",
"6 	c #4F9375",
"7 	c #629B73",
"8 	c #80A500",
"9 	c #233921",
"0 	c #2C250B",
"a 	c #007EA3",
"b 	c #0082A4",
"c 	c #006E83",
"d 	c #5DAE74",
"e 	c #346E00",
"f 	c #285700",
"g 	c #203322",
"h 	c #213E10",
"i 	c #008AA7",
"j 	c #0097B9",
"k 	c #006E9B",
"l 	c #4B9792",
"m 	c #71ADA1",
"n 	c #366E1D",
"o 	c #497B00",
"p 	c #185600",
"q 	c #143900",
"r 	c #0E4B00",
"s 	c #008BB3",
"t 	c #005D6A",
"u 	c #0C9AB4",
"v 	c #3895A5",
"w 	c #78C7A9",
"x 	c #35572C",
"y 	c #232504",
"z 	c #009BC3",
"A 	c #05A3C3",
"B 	c #008EB3",
"C 	c #0095BA",
"D 	c #57ACBB",
"E 	c #232315",
"F 	c #113600",
"G 	c #1C1C09",
"H 	c #235400",
"I 	c #08A9C3",
"J 	c #1AAABA",
"K 	c #098371",
"L 	c #007A8A",
"M 	c #2BB6C3",
"N 	c #179AAC",
"O 	c #5DB2C4",
"P 	c #383C37",
"Q 	c #1D1D1D",
"R 	c #33C3B6",
"S 	c #1CA2B4",
"T 	c #1FA5B7",
"U 	c #067B93",
"V 	c #0E908D",
"W 	c #08768D",
"X 	c #037188",
"Y 	c #0B787D",
"Z 	c #18986E",
"` 	c #20A58E",
" .	c #1EA1AE",
"..	c #27B7BC",
"+.	c #38B5BA",
"@.	c #1A8A9C",
"#.	c #5AB9C9",
"$.	c #7DB9BE",
"%.	c #42462E",
"&.	c #0A829A",
"*.	c #046E7E",
"=.	c #3499AB",
"-.	c #67C9CE",
";.	c #67B4BE",
">.	c #44C4BF",
",.	c #1991A1",
"'.	c #2297A7",
").	c #0F7F94",
"!.	c #15909A",
"~.	c #27A7AC",
"{.	c #39C3C0",
"].	c #48A8BA",
"^.	c #67C2D4",
"/.	c #73C1C4",
"(.	c #32353A",
"_.	c #1499B9",
":.	c #50A0AF",
"<.	c #2B8D9D",
"[.	c #26AEBB",
"}.	c #4CB1C3",
"|.	c #5DBCC4",
"1.	c #80CDD7",
"2.	c #80CFD4",
"3.	c #63AFAF",
"4.	c #429AAC",
"5.	c #88C7D1",
"6.	c #77BECB",
"7.	c #81BAC2",
"8.	c #123700",
"9.	c #ABD9D2",
"0.	c #49ACB6",
"a.	c #95CBCB",
"b.	c #86B5BC",
"c.	c #2D8C94",
"d.	c #1187A1",
"e.	c #A1DADA",
"f.	c #87C3C5",
"g.	c #69BBC8",
"h.	c #63A8B7",
"i.	c #9FBBC2",
"j.	c #50A3B2",
"k.	c #1F8FA9",
"l.	c #B0DCE1",
"m.	c #C0E1E3",
"n.	c #37370C",
"o.	c #7EC7CA",
"p.	c #248FA4",
"q.	c #399EB3",
"r.	c #474709",
"s.	c #555500",
"t.	c #8CC8CD",
"u.	c #046F84",
"v.	c #6CB1BB",
"w.	c #006572",
"x.	c #555C28",
"y.	c #005761",
"z.	c #01616E",
"A.	c #6C9A9A",
"B.	c #5C660A",
"C.	c #715900",
"D.	c #004451",
"E.	c #004B5A",
"F.	c #036A7A",
"G.	c #5099A1",
"H.	c #498892",
"I.	c #796F00",
"J.	c #003B4A",
"K.	c #004A4D",
"L.	c #015E6B",
"M.	c #076C74",
"N.	c #0D6464",
"O.	c #1B7E95",
"P.	c #59A4B3",
"Q.	c #003A47",
"R.	c #1D7777",
"S.	c #005C64",
"T.	c #3D8386",
"U.	c #005154",
"V.	c #096476",
"W.	c #65967E",
"X.	c #126C64",
"Y.	c #065A5D",
"Z.	c #5A8385",
"`.	c #004B4B",
" +	c #03505A",
".+	c #006178",
"++	c #004D64",
"@+	c #003F4C",
"#+	c #136250",
"$+	c #004855",
"%+	c #2C5F00",
"&+	c #005442",
"*+	c #005149",
"=+	c #568A7E",
"-+	c #37787B",
";+	c #1B5511",
"    . . . + @ # $ % + % + % & $ $ # * = - ; > , ' ) ! ~ { ] ^ / ",
"  ( ( _ ( . $ . $ % + % + + & & $ + : < < ; > ) [ [ } ~ { | 1 1 ",
"@ 2 2 3 4 & $ & $ % % $ + + ( ( + $ 5 6 7 ; > ! } { 8 ~ } / 9 0 ",
"@ a b b 3 & & & & % % $ + . 2 2 c ( : 6 d < ' e f ~ 8 ! f g g h ",
"2 b i j b k k & _ & + $ $ & b 2 4 i : l m n o p 9 f o f g g q r ",
"s j j j : & 4 2 2 & t + ( 3 s j s 5 u v w x p 1 y q f 9 g q q r ",
"z z A A B 5 2 3 b 4 # + . b j j z s C D w 1 9 E r g F F G g F H ",
"I J I J u b 3 3 5 k K K L 5 j J M j N O D P Q r r 9 F r F G g H ",
"R S T C N U V W W X Y < Z `  ...+.S @.#.$.%.E r Q G r H r G G F ",
"M J J T N &.U U &.W *.K Z ` S J ..S =.-.;.%.Q Q Q G H H H G G F ",
">...R J u ,.@.@.'.).K V !.~.T J {.>.].^./.(.Q Q Q Q f e ^ G Q g ",
"-...>.{._.'.'.'.:.<.= Z ` T [.[.}.O |.1.w x Q Q Q Q e e F Q Q Q ",
"2.R >.>._.~.~.3.$.4.= Z ,.S [...-.5.6.^.7.> r G Q ^ e e 8.Q Q Q ",
"9.|.O M T 0.a.a.w b.c.V d.N [.|.e.9.e.1.;.1 p e o o e F Q 0 Q Q ",
"2.f.g.}.T /.9.a.h.i.j.).k.0.[.^.e.l.m.l.w (.F H o o F Q 0 n.Q Q ",
"a.f.7.O 0.o.9.b.v $.b.p.q.f.7.5.o.e.m.l.b.(.Q F F F Q 0 r.s.0 n.",
"v j.D O ].f.;.=.d.=.7.j.;.t.t.t./.2.l.m.i.%.Q Q Q Q Q 0 r.r.0 n.",
"u.c.+.D D D @.@.@.d.j.v./.t.t.6.;./.1.9.i.x r.r.n.0 Q n.n.0 Q 0 ",
"w.u.=.0.D =.U &.p.@.k.v.$.D 7.O :.;.2.1.b.x.s.s.n.0 Q r.n.0 Q 0 ",
"y.z.W '.j.@.u.U ,.!.p.D 0.0.O ].A.3.f.o.m B.C.s.n.Q n.r.r.Q Q F ",
"D.E.w.).l W F.W ,.&.@.q.=.=.4.G.c.H.:.$.A.I.C.C.n.Q n.n.n.Q F g ",
"J.K.E.F.c.Y L.u.&.U &.k.,.@.@.c.M.N.O.P.A.I.C.r.0 n.r.e H g F Q ",
"Q.J.K.N.= R.S.c U W &.d.&.W T.u.U.K.V.A.W.B.n.0 r.C.o e e r g Q ",
"Q.Q.Q.E.X.X.Y.*.U u.U &.&.= F.L.J.J.N.H.Z.%.Q n.s.C.s.r H 0 Q 0 ",
"Q.`.`.K.y. +U.F.L c W U W c .+++Q.@+#+X Z.n.n.n.s.s.r.p F 8.n.n.",
"`.`.`.K.U.D.K.w.= Y u.X u..+++$+Q.@+ +T.W.%+r.n.r.r.e r r F n.n.",
"`.`.&+&+U.J.K.t c F.F.c c z.++@+Q.@+#+< 6 I.H n.^ o r H H r F r.",
"*+&+&+`.U.J.@+y.F.M..+*.*.L.E.J.Q.@+ +R.=+! r H e H H e e o r s.",
"*+&+K.K.&+K.@+y.M.z.X.F.V.N.E.@+Q.Q. +-+Z.;+H e F F e o e o ^ C.",
"`.K.K.*+&+K.J.E.X.N.N.M.L.Y.E.@+Q.Q.E.-+=+B.H F g 0 F e o o H n.",
"*+`.K.K.U.K.K.D.S.N.#+L.y.E.$+D.Q.J.#+-+=+%+F g r.s.C.F e o H n.",
"*+*+&+U.&+D.D.@+E.Y.E.y.Y. +D.D.J.J. +-+X r g 0 s.C.C.s.r.e n.G "};
