/* XPM */
static char * wallwater_middle_border_left_1_xpm[] = {
"32 32 178 2",
"  	c #1D1D1D",
". 	c #373700",
"+ 	c #555500",
"@ 	c #2C2302",
"# 	c #474700",
"$ 	c #239668",
"% 	c #45A382",
"& 	c #008368",
"* 	c #006C58",
"= 	c #006B6B",
"- 	c #00715D",
"; 	c #007655",
"> 	c #005263",
", 	c #003F61",
"' 	c #004A5B",
") 	c #005B65",
"! 	c #00734B",
"~ 	c #715300",
"{ 	c #53A450",
"] 	c #379C8C",
"^ 	c #008445",
"/ 	c #007951",
"( 	c #006565",
"_ 	c #004B62",
": 	c #00505D",
"< 	c #383800",
"[ 	c #108763",
"} 	c #00844B",
"| 	c #007F46",
"1 	c #147D4F",
"2 	c #00725B",
"3 	c #005869",
"4 	c #155400",
"5 	c #4CA063",
"6 	c #1C8C6B",
"7 	c #007D58",
"8 	c #008340",
"9 	c #138352",
"0 	c #006D74",
"a 	c #006969",
"b 	c #005B6C",
"c 	c #3A7B00",
"d 	c #429968",
"e 	c #3F9396",
"f 	c #006F4E",
"g 	c #40947A",
"h 	c #009281",
"i 	c #00737D",
"j 	c #007673",
"k 	c #017F65",
"l 	c #16321C",
"m 	c #004A00",
"n 	c #549D8A",
"o 	c #129378",
"p 	c #049A90",
"q 	c #007E85",
"r 	c #006E64",
"s 	c #073700",
"t 	c #3EAA9D",
"u 	c #18A48D",
"v 	c #0DA382",
"w 	c #17AA9D",
"x 	c #009595",
"y 	c #007B60",
"z 	c #008365",
"A 	c #007D84",
"B 	c #00858C",
"C 	c #063600",
"D 	c #13B499",
"E 	c #008EA2",
"F 	c #008D65",
"G 	c #00717B",
"H 	c #00667A",
"I 	c #299996",
"J 	c #008B95",
"K 	c #4A8D9A",
"L 	c #5DB5B8",
"M 	c #18C3B6",
"N 	c #16BAA9",
"O 	c #00A1B9",
"P 	c #01B08B",
"Q 	c #07965A",
"R 	c #74C1BB",
"S 	c #00A06A",
"T 	c #006C83",
"U 	c #004F70",
"V 	c #005E72",
"W 	c #019BA5",
"X 	c #0093AB",
"Y 	c #246E00",
"Z 	c #6BB1A4",
"` 	c #65D1CA",
" .	c #0099B4",
"..	c #007893",
"+.	c #00758C",
"@.	c #006673",
"#.	c #8FDCD9",
"$.	c #7BD9D2",
"%.	c #00A3BB",
"&.	c #007A95",
"*.	c #00809B",
"=.	c #0090B2",
"-.	c #95C48C",
";.	c #99E2D8",
">.	c #57CAC0",
",.	c #04B0BD",
"'.	c #007EA0",
").	c #048EA5",
"!.	c #009A9D",
"~.	c #00A1A4",
"{.	c #0091B6",
"].	c #B5E6DD",
"^.	c #A3E2DC",
"/.	c #5FC2D2",
"(.	c #38C1C4",
"_.	c #13B1C2",
":.	c #52ADB0",
"<.	c #048C85",
"[.	c #A3C9A8",
"}.	c #BFE9E0",
"|.	c #72D4D1",
"1.	c #0E97AB",
"2.	c #1897B5",
"3.	c #74BEC4",
"4.	c #7DBCA9",
"5.	c #86C2C5",
"6.	c #C3E6E0",
"7.	c #41B5C2",
"8.	c #099CAD",
"9.	c #8FC8CE",
"0.	c #329B9B",
"a.	c #2CBFAE",
"b.	c #87BB93",
"c.	c #ADDBDE",
"d.	c #3CADBA",
"e.	c #A1D2D2",
"f.	c #42ABB5",
"g.	c #7FC6CC",
"h.	c #61AFB5",
"i.	c #2AACB6",
"j.	c #67C2C9",
"k.	c #7BD6D0",
"l.	c #1ABEB7",
"m.	c #5CBEC5",
"n.	c #5FB1C1",
"o.	c #25A0AD",
"p.	c #67ADA0",
"q.	c #00859C",
"r.	c #539DAA",
"s.	c #75CDD0",
"t.	c #61C6CD",
"u.	c #5A9DA0",
"v.	c #00A099",
"w.	c #1FA7A0",
"x.	c #616B00",
"y.	c #795A00",
"z.	c #347781",
"A.	c #5E9270",
"B.	c #005761",
"C.	c #157781",
"D.	c #508888",
"E.	c #075C6C",
"F.	c #004451",
"G.	c #005A5D",
"H.	c #408282",
"I.	c #003E4B",
"J.	c #00474E",
"K.	c #1C7E88",
"L.	c #4C7673",
"M.	c #003949",
"N.	c #42747A",
"O.	c #00525F",
"P.	c #00908D",
"Q.	c #557F70",
"R.	c #005649",
"S.	c #005245",
"T.	c #5A8463",
"U.	c #00494C",
"  . + + + + @ @ . # + # . . $ % & * * = - ; > , > ' ' ' ) ! * ) ",
". . + + ~ ~ . @ . # + # # . { ] & ^ * ; / * ( _ : : : : : * * _ ",
". @ # ~ ~ ~ . @ . . # # + < { ] [ } | 1 - 2 = = ) ) ) > _ 3 3 _ ",
". @ . ~ ~ + # . @ < + + + 4 5 ] 6 7 8 9 0 a / ! _ a ( > , ) b b ",
"+ . @ + + + + # @ < + c c 4 d e 6 9 & & 0 * / - 3 * f 3 _ ) / 0 ",
"+ # @ . + + + # < @ c c c 4 g e 6 $ 6 h i = 2 a / ! ! a ) 2 j k ",
"# # l @ . # # + # # c c 4 m g n d $ o p q 0 2 7 ^ 8 / ) r a k 6 ",
"# 4 l   . . + ~ ~ + c 4 @ s e t u v u w x j 2 y z 2 ) r / ; A B ",
"4 C . . @ . + ~ ~ ~ # @ @ l e t t D D D E F 7 y G H 3 - 1 [ I J ",
"C . . .   @ . + ~ ~ ~ # @ @ K L M N N O P Q F G G H b ; ; 6 u u ",
"~ + # 4 l   @ . ~ ~ ~ + # @ % R M M M N P S h T T T U V 0 B W X ",
"~ ~ Y C .     @ . ~ ~ + # < Z ` ` M M M  .u ..+.+.+.@.@.i J X X ",
". m C + + #     @ . + # . . Z #.$.M M N %.E ..&.x &.i 0 i *.X =.",
"l C . + + #       @ . . . . -.;.;.>.M ,.O E *.'.).!.q i +.~.=.{.",
"    @ . . .         @ . . < -.].^./.(._.O X E X :.t 6 <.J X {.O ",
"      @ . @       @   @ . < [.}.].|.>._.{.X 1.2.3.4.o <.p X =.%.",
"  Y Y . . . . . @ @ @     < 5.6.}.#.|.7.{.8.3.9.3.5.0.B !.X {.a.",
"Y c @ . . # # . @ # # < @ + b.^.6.c.$./.{.d.e.9.f.g.h.p W i.%.j.",
"Y 4   @ . # # @ # # # m 4 ~ b.$.c.c.#.k.l.m.e.n.1.L 5.o.o.n.7.g.",
"4 Y 4     . @   # # Y Y l + p./.3.9.$.$.m.3.i.).q.1.4.f.d.9./.3.",
"m 4 Y c         # c c m s + r.9.h.L /.s.g.7.q.*.q.E i.4.m.j.t.d.",
"+ c c Y 4 @   @ < c 4 C ~ ~ n n.r.u.n.n.g.d.&.&.*.v.w.7.n.i.7.=.",
"+ . c c c @   @ < 4   x.y.y.n L e z.o.h.n.r.+...'.v.~.i.i.8.1.E ",
"+ . @ 4 c     @ @   < y.y.y.A.r.T B.C.).:.q.H T '.J q.o.1.E q.&.",
". . . @ 4   @ @   . # + x.+ D.K E.F.G.H.0.T ( T *...*.E E *.+.A ",
". # # @     @ @   . + ~ + + z.D.B.I.J.- K.0 : H J B *.'.*...A H ",
"+ + + 4 Y Y 4   . # ~ ~ + . L.z.B.I.M.' 0 = F.H ..+...J J B G V ",
"y.+ 4 Y Y m   @ < < # # . @ L.z.G.I.I.J.) B.F.= B A ..J x q V ) ",
"y.~ # m C   @ @ @ < < < @ @ N.N.B.M.M.M.O.G.J.) T i q h P.z a ' ",
"y.y.+ .       @ @ @ @   @ # Q.z.B.M.M.M.R.R.S.( G 0 i B A V _ F.",
"x.y.+ # @ + .           # # T.H.B.M.M.M.F.S.S.> V U V T G = _ U.",
"+ x.+ # . ~ #         @ + # T.H.( M.I.M.I.J.J._ U > ) H H 3 ' F."};
