/* XPM */
static char * wallwater_middle_border_right_2_xpm[] = {
"32 32 171 2",
"  	c #005353",
". 	c #00514B",
"+ 	c #005B4A",
"@ 	c #00454D",
"# 	c #00384E",
"$ 	c #004651",
"% 	c #00465C",
"& 	c #004F5A",
"* 	c #005A4C",
"= 	c #003750",
"- 	c #003E52",
"; 	c #005061",
"> 	c #3E7E7E",
", 	c #528D7D",
"' 	c #225C00",
") 	c #306E00",
"! 	c #1F5400",
"~ 	c #545400",
"{ 	c #715700",
"] 	c #373708",
"^ 	c #2C2409",
"/ 	c #005441",
"( 	c #04654F",
"_ 	c #167280",
": 	c #5A6804",
"< 	c #457B00",
"[ 	c #474704",
"} 	c #006153",
"| 	c #003E4F",
"1 	c #14755C",
"2 	c #66987E",
"3 	c #586000",
"4 	c #00595C",
"5 	c #0B6C56",
"6 	c #005D57",
"7 	c #004561",
"8 	c #096D6D",
"9 	c #00545A",
"0 	c #00695E",
"a 	c #117275",
"b 	c #5E9080",
"c 	c #6C9B7E",
"d 	c #766800",
"e 	c #006B55",
"f 	c #005F65",
"g 	c #005563",
"h 	c #808B00",
"i 	c #828500",
"j 	c #795F00",
"k 	c #007450",
"l 	c #09735D",
"m 	c #409287",
"n 	c #5FA587",
"o 	c #0E7A56",
"p 	c #00724E",
"q 	c #016562",
"r 	c #00666C",
"s 	c #70A585",
"t 	c #084A00",
"u 	c #0E3600",
"v 	c #00626A",
"w 	c #006169",
"x 	c #6DAB7B",
"y 	c #006161",
"z 	c #004460",
"A 	c #088061",
"B 	c #478D85",
"C 	c #147B5D",
"D 	c #0D855B",
"E 	c #499B85",
"F 	c #5A9A87",
"G 	c #377500",
"H 	c #388800",
"I 	c #005770",
"J 	c #4F9F00",
"K 	c #207B52",
"L 	c #208F95",
"M 	c #387900",
"N 	c #004D69",
"O 	c #177E60",
"P 	c #0D7179",
"Q 	c #007673",
"R 	c #086E74",
"S 	c #414B25",
"T 	c #007B78",
"U 	c #1C946D",
"V 	c #00735F",
"W 	c #3A8963",
"X 	c #6BAB96",
"Y 	c #4F5A22",
"Z 	c #047785",
"` 	c #0C9385",
" .	c #19A684",
"..	c #00647A",
"+.	c #80B898",
"@.	c #047D94",
"#.	c #0E8A95",
"$.	c #0FA4A1",
"%.	c #169A73",
"&.	c #007E8C",
"*.	c #006C82",
"=.	c #0A747C",
"-.	c #227D7A",
";.	c #83BEA3",
">.	c #434D27",
",.	c #1D1D1D",
"'.	c #00869A",
").	c #0B8FA3",
"!.	c #139AAB",
"~.	c #0D9A8C",
"{.	c #0089A0",
"].	c #52A2AA",
"^.	c #67AEB9",
"/.	c #22ACA6",
"(.	c #18949F",
"_.	c #028975",
":.	c #2B9BA9",
"<.	c #49A5B3",
"[.	c #3D422D",
"}.	c #068EB0",
"|.	c #13A3BA",
"1.	c #29B6B6",
"2.	c #18A2A5",
"3.	c #087E89",
"4.	c #14A9AC",
"5.	c #1EB3A8",
"6.	c #52B0C4",
"7.	c #77B8BD",
"8.	c #10A0B4",
"9.	c #24BCBC",
"0.	c #30B1A6",
"a.	c #0E878F",
"b.	c #1BADB3",
"c.	c #2DBABD",
"d.	c #5ECAD0",
"e.	c #72BCC1",
"f.	c #636B00",
"g.	c #2BA9C0",
"h.	c #3EC8C2",
"i.	c #158E99",
"j.	c #43B899",
"k.	c #3CB2C3",
"l.	c #1DA7BB",
"m.	c #3B9693",
"n.	c #6BBFD2",
"o.	c #383A37",
"p.	c #58BCC4",
"q.	c #2DA59D",
"r.	c #128487",
"s.	c #62BBC9",
"t.	c #6EC7D8",
"u.	c #50B1BF",
"v.	c #75BCCA",
"w.	c #6CD0CA",
"x.	c #8ECCCC",
"y.	c #93CED1",
"z.	c #39B7B1",
"A.	c #84C4C1",
"B.	c #9CD7DA",
"C.	c #87C5D3",
"D.	c #A3D5D2",
"E.	c #B6DCD4",
"F.	c #9BCACD",
"G.	c #33A6BA",
"H.	c #6BC9C9",
"I.	c #B2DEE1",
"J.	c #B8D9E1",
"K.	c #92CDB8",
"L.	c #879200",
"M.	c #2DA0B4",
"N.	c #CBE3E5",
"  . .     + @ #   $ $ % & *   @ = - ; > , ' ) ! ~ { { ~ ~ ] ^ ] ",
". + . /   . @ @ @ $ @ @ $   $ = $ = ( _ , : < < [ ~ ~ ] ^ ^ [ [ ",
"} } + +     @ . | $ @ @ $ @ @ = # @ ( _ , ' < < ] ] ] ^ ^ ] [ ~ ",
"  + } + &   +   # / / @ # @ $ $ @   1 _ 2 3 [ < ^ ] ^ ^ ^ [ ~ ~ ",
"& } } 4     &   . / / @ - @ &   $   5 , 2 3 ~ ^ ^ ] ] ] ^ [ { { ",
"6 } } } 4       + / *   .   4 }   7 8 , 2 3 ~ ] ^ ] [ [ ] ] { { ",
"( } 6 } 9 +   + + / +       9 0 7 & a b c d { [ ^ ] ] [ ~ ] ~ ~ ",
"( ( e e f 4 9   + @ @   + 4 9 } g & 8 , c h i { ] ] [ ~ j ~ [ [ ",
"k l l 5 f 0 + 9 . | - + } } e 4 4 4 8 m n h i i [ ] [ { i { ] [ ",
"o k k 5 p p } 9 - # $ + 6 q 5 q 7 7 r m s h i i ! t [ { i { ] u ",
"o 1 o k k p v & - # $ % & g f g % 7 w m x h i ! t u ] { { { [ ^ ",
"o o o 5 0 p y % % $ $ & 4 ; ; 7 z k A B s h < ) u ~ [ ~ { { ~ ^ ",
"C o 1 f w f & z % $   & & z 7 7 7 7 D E F G ! ) H ) { [ ~ ~ ~ ^ ",
"A 1 5 q v g 7 ; 4 & 4 ; 7 f g g ; ; I m F ' ! < H J { ~ [ [ [ ] ",
"K 1 5 w f g ; ; g f ( q f 0 f v f f I L m M [ ~ J J j ~ ~ ] [ [ ",
"K k r w q N f g w 5 5 e 0 y g w r r a B x M ] ~ ~ J { { { [ ] [ ",
"O l 8 v w f q g v f y 0 e f g 8 1 1 P E x t ^ ] ] d : j { [ ] t ",
"a Q o A I w w N f f f k v f N R 1 a P F s S ^ ^ ] ] ~ : [ ] ! t ",
"a T U U U q q f r q f V f v r R R C W c X Y ] ^ ^ ] ] ] ~ ) ! ^ ",
"T Z `  .U r v w R r 0 0 f r T ..P R W X +.Y ] ] ^ ^ ] ~ < ! u u ",
"Z @.#.$.%.R w 8 R V V p v v ` &.*.=.-.X ;.>.] ] ^ ,.] ) ! u ~ ~ ",
"#.'.).!.~.P 8 R ..D A v v A ~.~.{.*.P ].^.>.] ^ ,.,.! t u j j { ",
").).!./.(.=...=.=._.0 0 v _.'.$.:.@.-.<.^.[.^ ,.,.] u ] { i i j ",
"}.!.|.1.2.3.=.Z *._.v f Q &.$.4.|.5.~.6.7.[.,.,.,.] [ ^ ~ i i j ",
"|.8.|.9.0.L 3.&.a.3.8 v ..'.4.b.c.0. .d.e.>.,.,.] ] ! t t [ f.f.",
"g.|.8.h.1.(.#.i.i.a.=.I *.{.b.b.9.c.j.d.e.>.,.] ~ < ! H H t ~ ~ ",
"k.|.|.l.1.2.i.).(.m.=...a.$.8.|.9.9.<.n.7.o.] ~ H ! H H < t [ ~ ",
"p.g.g.g.l./.2.:.<.q.3.r. .5.8.h.h.6.s.t.u.>.{ { J < H H t u ~ j ",
"v.g.k.g.1.0./.<.7.X B %.2.4.b.c.w.x.d.t.7.: { { H H H ! ^ ^ [.j ",
"y.6.6.g.9.z.A.x.e.7.m.L ).!.8.g.y.B.C.t.A.: ~ ~ ! < ! ^ ^ ] ! ) ",
"D.v.p.k.|.7.E.F.<.e.].@.2.z.G.H.D.I.J.B.K.L.~ ] t < ^ ^ ] ! ) ! ",
"F.v.H.6.M.K.D.7.].7.7.(.M.A.p.x.C.B.N.I.F.L.] ] [ [ ^ ^ [ ) ! [ "};
