/* XPM */
static char * wallwater_bottom_border_left_1_xpm[] = {
"32 32 185 2",
"  	c #545100",
". 	c #626B00",
"+ 	c #373708",
"@ 	c #715700",
"# 	c #474703",
"$ 	c #1D1D1D",
"% 	c #2C2408",
"& 	c #4D7479",
"* 	c #528A87",
"= 	c #1A6761",
"- 	c #00464E",
"; 	c #00364D",
"> 	c #005C49",
", 	c #006764",
"' 	c #004F63",
") 	c #005263",
"! 	c #005C73",
"~ 	c #005454",
"{ 	c #795F00",
"] 	c #5A846F",
"^ 	c #407F84",
"/ 	c #00444C",
"( 	c #004D5B",
"_ 	c #015266",
": 	c #00555D",
"< 	c #828500",
"[ 	c #0C7155",
"} 	c #005A49",
"| 	c #004E54",
"1 	c #005E53",
"2 	c #004452",
"3 	c #347684",
"4 	c #00694A",
"5 	c #003D59",
"6 	c #455900",
"7 	c #004B53",
"8 	c #00625A",
"9 	c #003750",
"0 	c #443600",
"a 	c #116D67",
"b 	c #358394",
"c 	c #10756F",
"d 	c #5E9800",
"e 	c #00686B",
"f 	c #005A5A",
"g 	c #00445B",
"h 	c #003952",
"i 	c #55A289",
"j 	c #4F9F86",
"k 	c #5CA05F",
"l 	c #509486",
"m 	c #007149",
"n 	c #006464",
"o 	c #312516",
"p 	c #515900",
"q 	c #74AE52",
"r 	c #138173",
"s 	c #2F6E00",
"t 	c #489577",
"u 	c #006069",
"v 	c #447B00",
"w 	c #378800",
"x 	c #659A6A",
"y 	c #3A9991",
"z 	c #117C79",
"A 	c #006B5A",
"B 	c #157455",
"C 	c #2C5600",
"D 	c #45574C",
"E 	c #3C3A21",
"F 	c #67A3AB",
"G 	c #00536A",
"H 	c #0E7D8E",
"I 	c #176E82",
"J 	c #0D6C5E",
"K 	c #4A5211",
"L 	c #44491A",
"M 	c #17778B",
"N 	c #57A5B3",
"O 	c #03748B",
"P 	c #005675",
"Q 	c #006172",
"R 	c #4F5436",
"S 	c #5AAEB9",
"T 	c #1F7F93",
"U 	c #005E7D",
"V 	c #0E7F93",
"W 	c #006D84",
"X 	c #006879",
"Y 	c #1C1C07",
"Z 	c #282A21",
"` 	c #47765C",
" .	c #69BAC5",
"..	c #71B3BE",
"+.	c #22889C",
"@.	c #006D89",
"#.	c #449EAC",
"$.	c #10879B",
"%.	c #1B92A3",
"&.	c #2CA3B4",
"*.	c #3EA7B5",
"=.	c #269BA6",
"-.	c #006D8A",
";.	c #006C89",
">.	c #2F5300",
",.	c #88AFA0",
"'.	c #85D5DB",
").	c #73C1C9",
"!.	c #52A9B7",
"~.	c #5CB6C1",
"{.	c #8DCFD7",
"].	c #108A9B",
"^.	c #189BB2",
"/.	c #23280A",
"(.	c #BFE8EB",
"_.	c #CDEEEE",
":.	c #82B8C3",
"<.	c #088BA2",
"[.	c #98D4D9",
"}.	c #B8DFE4",
"|.	c #95D7DC",
"1.	c #35A9BA",
"2.	c #52BEC9",
"3.	c #65C8D0",
"4.	c #8FE0E8",
"5.	c #CCF0F3",
"6.	c #E1F7F9",
"7.	c #73BEC9",
"8.	c #DBEEF0",
"9.	c #F4F9FA",
"0.	c #8CD1D9",
"a.	c #284400",
"b.	c #75C3D7",
"c.	c #DFF2F4",
"d.	c #AFD6DB",
"e.	c #EDF4F6",
"f.	c #1E3214",
"g.	c #517600",
"h.	c #456700",
"i.	c #333B0F",
"j.	c #44B3C1",
"k.	c #99D5E3",
"l.	c #A6E1E4",
"m.	c #3B510A",
"n.	c #376013",
"o.	c #407804",
"p.	c #598700",
"q.	c #28919C",
"r.	c #46B8C6",
"s.	c #9FC9CE",
"t.	c #3C5927",
"u.	c #639400",
"v.	c #55A300",
"w.	c #437822",
"x.	c #24818F",
"y.	c #3FA8B3",
"z.	c #23A0AE",
"A.	c #3B4019",
"B.	c #647E00",
"C.	c #486028",
"D.	c #5BAC00",
"E.	c #5A9100",
"F.	c #5B690D",
"G.	c #00829C",
"H.	c #485D28",
"I.	c #4F7700",
"J.	c #595624",
"K.	c #236E7C",
"L.	c #007E9B",
"M.	c #007999",
"N.	c #007395",
"O.	c #008CAE",
"P.	c #434738",
"Q.	c #39909E",
"R.	c #0079A1",
"S.	c #007AA2",
"T.	c #006A8D",
"U.	c #006784",
"V.	c #4D8000",
"W.	c #767908",
"X.	c #005C6A",
"Y.	c #006587",
"Z.	c #00639A",
"`.	c #0992AC",
" +	c #00669A",
"    .   + @ @ # $ $ $ %     & * = - - ; ; - - > , ' ) ! ! ) ~ > ",
"+ @ { @ + @ @   + $ $ $ +   ] ^ = ~ ~ / ; / - ~ ' ( ( _ = : > ~ ",
"@ @ < { + @ @ # + + + % % % & ^ [ } ~ / ; ; - | 1 ( 2 : : ~ ~ - ",
"@ @ < { + #   + + { {   % $ & 3 4 } - } | ; ; - ~ ~ ; 5 ~ 2 - / ",
"6 6 @   % $ + + . < <     % & 3 4 - 7 | 8 } ; ; 2 - ; ; 2 - 9 9 ",
"  < <   $ $ $ +   @ @ @ {   & 3 = - 7 7 } } / / / ; ; ; 9 9 2 2 ",
"< < <   $ $ $ %     0 < < { & 3 a | 7 ( 8 } - - ; ; ; ; 9 9 2 2 ",
"< < . # $ % % % % +   < < @ * b c } 7 ( } } } | 9 ; ; 9 ; 9 2 ( ",
"< < # $ $ + + + $ %   { { < d b e f f f g ( ~ ~ 2 ; ; 9 9 h ( ( ",
"6 . # $ $ + # # + $ +   { < i j c 8 f : g | 2 2 - / ; 9 9 h 5 ( ",
"@   + $ $ % #     + % + # { k l c : 4 m n 5 | 2 ~ - - 9 9 5 5 5 ",
"{ + % $ $ $   @ @   % o p < q k r m m n n g | : ~ - - - ( ( g ' ",
"  # + + $ $   @ @   % $ + s t i r m u 8 [ n g : > - ~ 2 : 1 ' ' ",
"# 0 + + $ $ o @ @   % v v w x y z n n n [ n g : 4 ~ ~ ( ( 8 n ) ",
"$ + # # + $ %     + + % s w x y r u n A B , u g 1 > > ~ : : n , ",
"$ #     # % % # + + # # % C x i r u A A B , ' g ' D : : n n , , ",
"$ +         % % + #   # E 0 j F z G ! H y I G u n ( ( : n [ J n ",
"# %     @ @ % % % # K # L L F F I ) G M N O P Q Q ) ' ' ) e e ) ",
"0 % #       % % % % # # p R S S 3 Q G b S T U T V W X P Q Q P G ",
"E Y %       + Z Y %     K `  ...+.@.z T #.$.O %.&.*.=.-.;.W X G ",
"L % Y         + Y %   >.D ,.'.).#.%.b I %.!.!.~.).{.S ].^.&.=.M ",
"L + Y % # # # + % Y >./.* (._.'.:.:.F * <.*.:.[.}.(.|.1.2.3.{.[.",
"E + Y Y % + + # + + Y Z 4.5.6._.}.}.[...S 7.[.8.9.9._.0.|.|.8.9.",
"# a.Y $ % % #   6 C o +.b.4.5.c.8.}.d.d.{.[.}.c.9.6.e._._.8.9.9.",
">.f.% % Y % #   g.h.i.].!.j.}._.}.}.(.e.c.k.l.5.8.4.5.6.5.e.c.5.",
"m.Z % /.% /.+ n.o.p.p.` V q.r. .S s.}.e.6.b.).'.j.T b.(.4.4. .1.",
"h.a.+ f.Z i.L t.o.u.v.w.x.q.V O V &.S 7.{.y.V V O -.*.j.&.z.V O ",
"K A.a.  B.d p.C.u.D.E.F.M M O O @.W -.<.].G.O V <.z.=.<.G.].].=.",
"s a.  g.p.H.R I.D.D.d J.K.' ' @.M V G.G.L.M.N.-.+.^.O.O.O.q.O.r.",
"g.a.m.H.P.P.F.p.D.p.o.H.Q.V I H V G.R.S.T.T.N.U.-.U.-.N.-.-.S.'.",
"g.L H.P.L R I.D.d V.F.W.3 U._ X.X.U Y.Z.Y.P U.O.`.z.^.1.1.1.1.r.",
"K H.C.R P.H.W.u.d o.p.F.x. +h 5 ' P Q U U T.T.M.L.M.S.S.T.T.Z. +"};
