/* XPM */
static char * wallwater_top_border_left_1_xpm[] = {
"32 32 197 2",
"  	c #507B00",
". 	c #5D9500",
"+ 	c #54A900",
"@ 	c #3C5E14",
"# 	c #518100",
"$ 	c #538B00",
"% 	c #48651B",
"& 	c #4A6D09",
"* 	c #567C00",
"= 	c #416700",
"- 	c #3F8989",
"; 	c #007DA9",
"> 	c #004965",
", 	c #004059",
"' 	c #005571",
") 	c #006381",
"! 	c #007192",
"~ 	c #007D99",
"{ 	c #007695",
"] 	c #00769C",
"^ 	c #006F9D",
"/ 	c #0074A0",
"( 	c #007596",
"_ 	c #0077A3",
": 	c #2A5500",
"< 	c #729300",
"[ 	c #406B00",
"} 	c #578500",
"| 	c #527300",
"1 	c #3C5418",
"2 	c #497400",
"3 	c #475D13",
"4 	c #1C8D95",
"5 	c #125763",
"6 	c #006074",
"7 	c #007E9D",
"8 	c #118DA4",
"9 	c #0483A2",
"0 	c #0289A5",
"a 	c #0081AA",
"b 	c #47470B",
"c 	c #3A6203",
"d 	c #405E00",
"e 	c #375732",
"f 	c #458F01",
"g 	c #008BB1",
"h 	c #02697B",
"i 	c #065B74",
"j 	c #0A6D86",
"k 	c #1E8BA9",
"l 	c #1A91AD",
"m 	c #088AAB",
"n 	c #1A91B2",
"o 	c #007FA3",
"p 	c #058AB8",
"q 	c #364200",
"r 	c #1D5304",
"s 	c #536C05",
"t 	c #2F5612",
"u 	c #385B07",
"v 	c #348300",
"w 	c #5FA61D",
"x 	c #5A9C77",
"y 	c #035A6C",
"z 	c #287F96",
"A 	c #259ABB",
"B 	c #2F3520",
"C 	c #384E0F",
"D 	c #246413",
"E 	c #4A9615",
"F 	c #5B9D93",
"G 	c #4F97A3",
"H 	c #397483",
"I 	c #1F919B",
"J 	c #368B9D",
"K 	c #4999AA",
"L 	c #369DB4",
"M 	c #259AB6",
"N 	c #2B3218",
"O 	c #2E2E2B",
"P 	c #2A3D25",
"Q 	c #379B00",
"R 	c #225B00",
"S 	c #52725E",
"T 	c #4E9898",
"U 	c #438EA2",
"V 	c #499BB2",
"W 	c #4CA6BD",
"X 	c #50AAC1",
"Y 	c #4BA5B7",
"Z 	c #2A8FA6",
"` 	c #173B01",
" .	c #339500",
"..	c #4B6E75",
"+.	c #49A6BA",
"@.	c #017692",
"#.	c #37ADA5",
"$.	c #369AAC",
"%.	c #114A00",
"&.	c #2F3B11",
"*.	c #334E00",
"=.	c #3D8200",
"-.	c #566A00",
";.	c #302B10",
">.	c #025344",
",.	c #589277",
"'.	c #257584",
").	c #186D79",
"!.	c #087084",
"~.	c #0B889C",
"{.	c #295900",
"].	c #4E5D00",
"^.	c #417100",
"/.	c #367000",
"(.	c #1C5500",
"_.	c #296D68",
":.	c #00474E",
"<.	c #004E5B",
"[.	c #187C7C",
"}.	c #00586A",
"|.	c #0C798D",
"1.	c #2AA89B",
"2.	c #1E9A92",
"3.	c #11838D",
"4.	c #128088",
"5.	c #282C1C",
"6.	c #385600",
"7.	c #355A00",
"8.	c #22241C",
"9.	c #548669",
"0.	c #1B6A5E",
"a.	c #00494B",
"b.	c #055E54",
"c.	c #1EA199",
"d.	c #097D94",
"e.	c #0F7D85",
"f.	c #086E76",
"g.	c #24261E",
"h.	c #383A13",
"i.	c #2F4A00",
"j.	c #2D6200",
"k.	c #202020",
"l.	c #366E00",
"m.	c #538D86",
"n.	c #116554",
"o.	c #004249",
"p.	c #004D54",
"q.	c #17908D",
"r.	c #1D1D1D",
"s.	c #223222",
"t.	c #37370D",
"u.	c #2C250C",
"v.	c #143800",
"w.	c #123600",
"x.	c #00594F",
"y.	c #005062",
"z.	c #003C53",
"A.	c #00575C",
"B.	c #567674",
"C.	c #00384C",
"D.	c #005454",
"E.	c #05676C",
"F.	c #212121",
"G.	c #245400",
"H.	c #527977",
"I.	c #488482",
"J.	c #004652",
"K.	c #006B7F",
"L.	c #4B806F",
"M.	c #006065",
"N.	c #555500",
"O.	c #715A00",
"P.	c #407884",
"Q.	c #116565",
"R.	c #005662",
"S.	c #003950",
"T.	c #1A6769",
"U.	c #796200",
"V.	c #0B5C4B",
"W.	c #005A5A",
"X.	c #779667",
"Y.	c #00475B",
"Z.	c #1A7476",
"`.	c #00605D",
" +	c #01724F",
".+	c #779A6B",
"++	c #5E9A98",
"@+	c #1D8172",
"#+	c #006467",
"$+	c #59A06F",
"%+	c #056155",
"&+	c #4A7B00",
"*+	c #4B9292",
"=+	c #076B5A",
"-+	c #1A7158",
";+	c #1E7557",
">+	c #51A587",
"  . +   @ # $   % & * = - ; > , > , ' ) ! ! ~ ~ { ~ ] ^ ^ / ( _ ",
": < $   = [ } | 1 2 & 3 4 ; 5 , , ' 6 ( ~ 7 8 9 0 9 a / _ ; ~ 9 ",
"b * #   2 [ | 3 c d e f & g h > > i j 9 0 k l m _ m n o a p 0 k ",
"q r | s s 2 t 2 u r v w x k i y ) j z l l m 9 ; o ; p m p A n n ",
"B B C s s | 3 c = C D E F G H j I J G K L k 7 o ; 7 m M A M L l ",
"N O P @ % Q R = 2 = 1 % S T U U K V W X Y Z { { o o 0 L L Z M g ",
"` O B t Q  .r $ v c C 1 e ..U G U Z L +.+.Z @.{ 0 o 0 #.$.0 l a ",
"%.&.*.u +  .u =.[ -.= C ;.>.,.K '.).H 8 K z h !.~.~ 0 $.#.I 4 4 ",
"{.b ].^. .t u * -.=./.&.;.(.,.T _.:.<.).z [.}.) 4 |.I #.1.2.3.4.",
": 5.6.* s u 7.[ ].* ^.;.8./.9.,.0.a.a.b.[.6 <.i ~ |.~ 1.c.d.e.f.",
"%.g.h.: = t i.*.*.j.{.8.k.l...m.n.o.>.p.y > , i @.!.q.I 2.3.h y ",
"%.r.B C *.B s.t.u.v.{.w.r.r...- 0.a.>.x.> y.z.y |.!.|.I 4 e.f.A.",
"w.k.v.%.&.5.N 5.8.r.%.(.r.u.B.9.0.C.o.>.x.D.:.5 !.h e.q.3.[.E.A.",
"s.r.(.` F.g.g.u.u.r.r.%.G.u.H.I.0.C.C.a.D.>.>.5 h 6 f.e.j 6 }.x.",
"r.r.l.s.F.u.u.r.r.r.r.r.w.%.B.I.n.C.C.o.J.>.>.b.6 }.f.K.h y A.D.",
"r.G.G.r.r.t.t.r.r.u.u.u.r.r.L.L.b.C.C.C.C.:.>.A.y }.}.h i M.<.C.",
"r.l.5.r.u.N.O.b r.r.u.u.k.k.,.P.5 C.C.C.C.:.:.x.Q.y.> y E.R.D.C.",
"r.l.r.r.t.O.O.N.t.r.r.r.k.l.H.P.5 o.C.C.C.C.:.x.b.<.<.> M.A.J.D.",
"r.r.r.u.t.O.O.b t.t.r.r.= G...P.Q.J.:.:.C.C.:.J.b.<.S.<.A.D.J.x.",
"%.r.k.u.t.b N.t.t.O.O.u.r.r...P.T.p.:.J.z.C.C.J.<.D.C., D.J.J.o.",
"G.%.u.u.u.r.t.t.N.O.O.N.;.;...P.T.:.p.z.p.a.C.C.D.z.C.C.z.:.S.S.",
"w.G.u.u.r.r.r.t.b N.N.N.O.N...P.5 :.J.p.x.p.o.C.C.C.C.C.S.S.J.p.",
"u.t.t.t.r.r.k.u.b b t.U.O.O.P.P.y J.z.<.b.V.p.J.C.C.C.C.S.C.J.W.",
"N.N.b t.r.u.u.u.u.t.b U.O.N.X.P.y , z.<.A.b.V.p.S.C.C.C.z.p.J.p.",
"O.O.b r.r.t.t.t.r.u.b N.N.U.X.- E.W.W.W.Y.Y.D.D.p.C.C.C.z.z.Y.<.",
"b N.b r.r.t.b b t.r.t.b N.O.X.x Z.A.W.`.Y.Y.J.J.:.C.C.C.z.z., <.",
"N.N.t.r.r.u.b N.N.t.u.t.t.N.w T Z.`.n. +M.p.p.p.D.:.C.z.z.Y.Y.Y.",
"O.t.u.r.r.r.N.O.O.N.u.u.b O..+++@+ + +#+M.Y.p.A.x.:.:.J.A.Y.Y.Y.",
"N.b t.t.r.r.N.O.O.N.u.r.t.(.,.$+@+ +`.M.0.M.Y.A.b.:.>.J.A.%+y.A.",
"b t.t.t.r.r.t.O.O.N.u.&+&+&+,.*+@+#+M.=+-+M.<.A.n.D.D.W.Y.M.M.M.",
"k.t.b b t.r.u.N.N.t.t.u.l.&+x T @+#+M.=+;+=+R.Y.R.V.V.<.A.A.M.M.",
"r.b N.N.b u.u.b t.t.b b u.%.,.>+@+E.=+E.;+=+R.Y.A.n.A.A.M.=+M.E."};
