/* XPM */
static char * wallwater_bottom_middle_2_xpm[] = {
"32 32 187 2",
"  	c #1CA5AB",
". 	c #20A0B3",
"+ 	c #5CC9D2",
"@ 	c #8ACDD3",
"# 	c #78C5C5",
"$ 	c #7BBCCB",
"% 	c #88CBCB",
"& 	c #6EC1BB",
"* 	c #4AADB6",
"= 	c #63BFB9",
"- 	c #19869C",
"; 	c #18959E",
"> 	c #60BCB9",
", 	c #209AA6",
"' 	c #0085AB",
") 	c #5BBBC7",
"! 	c #3DB4BD",
"~ 	c #84CABE",
"{ 	c #1E8EA4",
"] 	c #6DB4C3",
"^ 	c #72BFC8",
"/ 	c #77C4D3",
"( 	c #0295AB",
"_ 	c #17A6B6",
": 	c #008797",
"< 	c #009BA4",
"[ 	c #35B1A8",
"} 	c #2CA3AC",
"| 	c #4CA3AC",
"1 	c #0D7D96",
"2 	c #03839C",
"3 	c #007CA2",
"4 	c #0D8DA3",
"5 	c #4596A5",
"6 	c #4CB2C2",
"7 	c #2699AC",
"8 	c #3CA2B2",
"9 	c #28A5BB",
"0 	c #008AA3",
"a 	c #009EAE",
"b 	c #006789",
"c 	c #007B91",
"d 	c #007E8E",
"e 	c #007FA1",
"f 	c #0F9CA5",
"g 	c #189895",
"h 	c #32ACB5",
"i 	c #099CB2",
"j 	c #00829B",
"k 	c #007B94",
"l 	c #01949D",
"m 	c #005C78",
"n 	c #006C82",
"o 	c #129595",
"p 	c #007092",
"q 	c #00637C",
"r 	c #008A81",
"s 	c #004C68",
"t 	c #005164",
"u 	c #006F91",
"v 	c #007998",
"w 	c #037379",
"x 	c #0C898C",
"y 	c #006E8A",
"z 	c #005B6B",
"A 	c #00455B",
"B 	c #004053",
"C 	c #006E68",
"D 	c #127C88",
"E 	c #048077",
"F 	c #006884",
"G 	c #008175",
"H 	c #0A908D",
"I 	c #00777D",
"J 	c #0E82A1",
"K 	c #004460",
"L 	c #004F40",
"M 	c #006660",
"N 	c #005F75",
"O 	c #005E74",
"P 	c #03796D",
"Q 	c #007262",
"R 	c #005685",
"S 	c #00474D",
"T 	c #038383",
"U 	c #006F75",
"V 	c #006959",
"W 	c #00676D",
"X 	c #007C85",
"Y 	c #005B42",
"Z 	c #00384B",
"` 	c #00535C",
" .	c #00757B",
"..	c #005E64",
"+.	c #00624F",
"@.	c #005748",
"#.	c #005949",
"$.	c #007D9C",
"%.	c #005243",
"&.	c #00566C",
"*.	c #005451",
"=.	c #004E54",
"-.	c #006A67",
";.	c #007171",
">.	c #00545A",
",.	c #005347",
"'.	c #005D5D",
").	c #0E8787",
"!.	c #00445A",
"~.	c #004261",
"{.	c #004C62",
"].	c #004C72",
"^.	c #005773",
"/.	c #00658B",
"(.	c #006A8D",
"_.	c #007CAB",
":.	c #005470",
"<.	c #007BA7",
"[.	c #009CBB",
"}.	c #0094B3",
"|.	c #006C91",
"1.	c #2DADC3",
"2.	c #06A3C5",
"3.	c #00A2C5",
"4.	c #0DA3BC",
"5.	c #7ED8E1",
"6.	c #B4EAED",
"7.	c #4BBECE",
"8.	c #00A1C0",
"9.	c #00597B",
"0.	c #006D96",
"a.	c #5DCDD6",
"b.	c #62C5CE",
"c.	c #46BFD2",
"d.	c #71D7DD",
"e.	c #C9EFEF",
"f.	c #48C5DB",
"g.	c #1DB4D0",
"h.	c #0086AF",
"i.	c #1D99A9",
"j.	c #AFDFE5",
"k.	c #ABE2E8",
"l.	c #68D5DB",
"m.	c #6DDDE3",
"n.	c #71D5E1",
"o.	c #93DDE6",
"p.	c #23B9D2",
"q.	c #8DD4DD",
"r.	c #33B9CF",
"s.	c #63C6D9",
"t.	c #3EAABA",
"u.	c #D5F5F5",
"v.	c #BBEBF1",
"w.	c #A3E9EC",
"x.	c #9EEEF1",
"y.	c #92E8EB",
"z.	c #7DE3E9",
"A.	c #E5F5F8",
"B.	c #FDFDFD",
"C.	c #C4F1F4",
"D.	c #CBF8F8",
"E.	c #EAFAFA",
"F.	c #63CDD6",
"G.	c #A4DDDD",
"H.	c #D5F5F8",
"I.	c #89E0E9",
"J.	c #88E1E4",
"K.	c #CBE8F1",
"L.	c #54BECA",
"M.	c #00768C",
"N.	c #2EB4C7",
"O.	c #006E9D",
"P.	c #00689D",
"Q.	c #00527B",
"R.	c #005E87",
"S.	c #0091B7",
"T.	c #006089",
"U.	c #006D90",
"V.	c #37BACA",
"W.	c #0073A5",
"X.	c #00619A",
"Y.	c #006EA0",
"Z.	c #005A80",
"`.	c #005D99",
" +	c #0075B1",
".+	c #005F98",
"++	c #005678",
"  . + @ # $ % & * = - ; > > , ' . ) ! * $ ~ = ; { ] ^ / % ! ( _ ",
": < . ) # # ~ [ } | 1 2 * * 3 ' 4 * 5   6 ~ & 7 8 > 9 ] 6 ( 0 a ",
"b c a _ * = = ; 4 4 d 2 . 8 1 e ;   f g } = > 8 * h i 9 _ j k l ",
"m n 0 f g } | o j 1 d j 7 { c e o f < o 3 . * * * 8   . ( p q r ",
"s t u v w g o x : k d c ( l y v r g o r c 0 7 * *   f 4 4 q z m ",
"A B q b C D E F k v d c 0 : q u G H x I b k J } } f l g o C A K ",
"L B M N t w C q k o r d f c O n P P P Q R y c 4 f : k H x M B B ",
"S S A t A z t C d o T r e b z U V V V W q F X 1 l c T T E Y S S ",
"Z Z S B B ` ` t T x  .X j G ..W +.@.` K O I n k c y w w C Y L S ",
"Z Z Z @.#.#.` ` U y  . .$.U ` ` %.L A A &.q N x v n W W V Y @.L ",
"Z Z %.%.#.#.*.=.W G -. .d ;.>.,.%.S B B t O W T x q t t '.%.@.L ",
"Z Z Z S ,.#.=.,.-.;...U r Q ,.%.%.Z S B K s M E ).Q A ` @.@.Y Y ",
"B B B =.!.>.=.>.>.....Q G ..,.%.L S S B A t t w T V A A B *.*.Y ",
"~.~.~.{.&.-...!.!...A V G +.S Z S Z S B !.A A U T ..A ..'.+.` ` ",
"].].].^.y n ].&.z M '.` V +.S Z Z Z L B B A =.W q ` ` {...-.W -.",
"/.(.n (._.j X n x w M t +.#.S Z Z *.*.B A !.!.:. .z -.^.^.n r X ",
"<.0 - J [.}.{ d 5 D O z ..` A A !.A t ` '.t ..w k |.d c p j 6 = ",
"[.1.* 2.3.4.. c ; b q q q N N N ].O U z z U F ; 8 h 9 9 i _ 5.6.",
"2.+ ^ 7.1.8.( l b 9./.v - 1 u k u 0.: r I d { 6 a.a.b.7.c.+ d.e.",
"c.5.@ f.g.8.h.j p u v h 8 | 8 * h }.9 i.2 j 6 j.k.d.l.m.n.m.n.o.",
"o.6.j.n.p.3.4.. 1.= ) q.@ @ q.j.q.r.s./ t.( b.u.v.k.w.x.y.y.y.z.",
"A.B.A.k.f.g.s.q.k.6.6.u.C.e.A.B.u.n.6.k.d.7.) v.w.x.D.D.x.y.y.x.",
"B.B.B.u.n.f.o.C.u.u.w.u.C.x.E.B.E.v.u.v.k.n.F.d.! x.E.D.z.m.y.x.",
"E.B.B.A.j.G.e.H.u.C.I.v.J.w.D.E.C.w.e.w.o.5.l.! } J.J.) t.c.m.w.",
"K.E.B.E.A.H.A.w.F.d.F.w.! ) c.+ ! a.) 7 ! + t.1 2 4 2 u 2 6 6 s.",
"5.H.A.D.u.D.6.} |.4 , l.{ u 1 2 2 6 - R |.2 k b 2 y u 3 ' h 3 2 ",
"n.x.v.n.F.L.! 4 |.y b { |.R M.u j - u k J -   . { 2 j 0 3 { 2 m ",
"n.L.t.9 1.h , , 4 |.b R F R b c F O q 0 _ 9 9 { k 1 2 { . 1.t.J ",
"N.. ( . ! ! h . ( ' O.O.P./.O O Q.R./.b j e y q Q.n 0.v 2 4 2 j ",
"_.' ( 4._ _ } i S.h.h.' _.<.y q T.R.U.$.0 2 { f { ,   S.' j n (.",
"P.h._ 1.V.6 1.V.r.V.V.V.1.1.. i W.X.X.U.y n y u c e _._.W.Y.U.Z.",
"`.Y.W.W.$.<.<.j _._. +' _.' 2 <.Y..+T.R.++++R.R.++Q.T.`.`.`.R.R."};
