/* XPM */
static char * wallwater_bottom_border_right_3_xpm[] = {
"32 32 191 2",
"  	c #146E69",
". 	c #025F66",
"+ 	c #0C6B5F",
"@ 	c #004F63",
"# 	c #006A63",
"$ 	c #0A6767",
"% 	c #004157",
"& 	c #127E52",
"* 	c #4B9496",
"= 	c #7CA383",
"- 	c #404928",
"; 	c #37370E",
"> 	c #715B00",
", 	c #47470C",
"' 	c #1D1D1D",
") 	c #2C250D",
"! 	c #436500",
"~ 	c #0D745E",
"{ 	c #0B7A58",
"] 	c #005165",
"^ 	c #00435C",
"/ 	c #448791",
"( 	c #679898",
"_ 	c #838500",
": 	c #168251",
"< 	c #128163",
"[ 	c #004861",
"} 	c #00446E",
"| 	c #217B71",
"1 	c #796F00",
"2 	c #1D3222",
"3 	c #2D2A23",
"4 	c #035E72",
"5 	c #0C7876",
"6 	c #34816E",
"7 	c #19854C",
"8 	c #00556B",
"9 	c #0A6269",
"0 	c #005268",
"a 	c #0E6E7A",
"b 	c #104A00",
"c 	c #005373",
"d 	c #0F7E83",
"e 	c #158466",
"f 	c #0A676C",
"g 	c #147173",
"h 	c #1A7479",
"i 	c #74AAAA",
"j 	c #1A898B",
"k 	c #1F8B95",
"l 	c #1A7A7C",
"m 	c #255400",
"n 	c #2F9179",
"o 	c #299395",
"p 	c #2B93A4",
"q 	c #1B7E85",
"r 	c #258A8C",
"s 	c #5399A3",
"t 	c #50543A",
"u 	c #545200",
"v 	c #133600",
"w 	c #1DA1A3",
"x 	c #1A8293",
"y 	c #208D9C",
"z 	c #0D7283",
"A 	c #4E9CAB",
"B 	c #63ABB5",
"C 	c #3D412F",
"D 	c #2DA7A9",
"E 	c #27A3B2",
"F 	c #10829B",
"G 	c #1489A2",
"H 	c #2499AA",
"I 	c #36989D",
"J 	c #78C8AD",
"K 	c #73CBBA",
"L 	c #376E00",
"M 	c #2EAFB4",
"N 	c #36C1B5",
"O 	c #32B9BB",
"P 	c #2BA4A2",
"Q 	c #137B8C",
"R 	c #1C91A2",
"S 	c #6CB49E",
"T 	c #578B00",
"U 	c #4B7B00",
"V 	c #34A6AD",
"W 	c #218197",
"X 	c #219BB9",
"Y 	c #51AEB5",
"Z 	c #63A7B3",
"` 	c #71CED5",
" .	c #50A300",
"..	c #3BB2C1",
"+.	c #3DB9AF",
"@.	c #25949E",
"#.	c #4CB3C2",
"$.	c #5EB6C2",
"%.	c #87C8D2",
"&.	c #256325",
"*.	c #428800",
"=.	c #777200",
"-.	c #59A9A9",
";.	c #2E867C",
">.	c #34A9BA",
",.	c #6DBECA",
"'.	c #81BAC1",
").	c #7FCDD7",
"!.	c #78C1C3",
"~.	c #457B14",
"{.	c #589F00",
"].	c #5DC2CC",
"^.	c #43B7BC",
"/.	c #92C4CB",
"(.	c #7FBECA",
"_.	c #7AD2D9",
":.	c #215F1F",
"<.	c #80CBCD",
"[.	c #4EC2C4",
"}.	c #50A3B4",
"|.	c #92D0DA",
"1.	c #78C6D0",
"2.	c #222208",
"3.	c #61BEC5",
"4.	c #57B4BB",
"5.	c #7FBDBD",
"6.	c #8ABEC5",
"7.	c #43A1B2",
"8.	c #ACD1D3",
"9.	c #70AFBB",
"0.	c #6BB9BB",
"a.	c #5DAEBA",
"b.	c #79B2B4",
"c.	c #3A6B13",
"d.	c #2890A9",
"e.	c #47701E",
"f.	c #05758B",
"g.	c #399BAA",
"h.	c #0A7790",
"i.	c #3A90A4",
"j.	c #828756",
"k.	c #3E3E15",
"l.	c #1C1C0A",
"m.	c #007185",
"n.	c #006A85",
"o.	c #5DBFC9",
"p.	c #47ACBB",
"q.	c #A7E0E5",
"r.	c #A1DADF",
"s.	c #97C6D2",
"t.	c #BADFE6",
"u.	c #99DCE1",
"v.	c #2D9AB8",
"w.	c #8DD6DD",
"x.	c #99E2E4",
"y.	c #C7EEF0",
"z.	c #D3EFEF",
"A.	c #C3EAEC",
"B.	c #D9EEF0",
"C.	c #DDF9F9",
"D.	c #B1EAEC",
"E.	c #C5EFF1",
"F.	c #EEFBFB",
"G.	c #F2FAFA",
"H.	c #498127",
"I.	c #5D7602",
"J.	c #CFF3F3",
"K.	c #A0E9EB",
"L.	c #7AD7DC",
"M.	c #41B0AB",
"N.	c #67CAD1",
"O.	c #DEF5F5",
"P.	c #3E782B",
"Q.	c #3A651A",
"R.	c #4A740A",
"S.	c #9AD3D5",
"T.	c #AAD297",
"U.	c #669800",
"V.	c #6B8400",
"W.	c #385C07",
"X.	c #00708B",
"Y.	c #00637C",
"Z.	c #0D7F93",
"`.	c #77A618",
" +	c #49612B",
".+	c #004F6F",
"++	c #005277",
"@+	c #5B864B",
"#+	c #3A4400",
"$+	c #007AA0",
"%+	c #A0B200",
"  . + @ @ # $ $ @ % % @ . + + & + #   * = - ; > > , ' ) , ! ) ; ",
"~ $ { . ] ] $ + . ^ % ] . + & & @ # ~ / ( , > _ > ; ' ; ; ) ' ) ",
": & { # ] @ . $ + @ ^ @ ] . : $ @ . { / ( ! > > , ; ' , ; ) ) ' ",
"~ : ~ < < ] @ $ + $ [ [ @ $ $ $ } # | / ( 1 _ > ; ' ; , , ; 2 3 ",
". 4 5 < 6 7 @ @ 8 ] [ [ @ ] 9 8 ] 0 a / ( 1 > > ; ' ; ; ; b 2 3 ",
"c 5 d d e 7 8 @ @ ] @ [ ] . f g   9 h / i 1 > , ) ; , ; ; b 2 3 ",
"< j j k 6 & ~ f 0 } [ @ ] 0 h l l | h ( i ! ; ) , > > , m 2 ' 3 ",
"n o k p n 6 | g 4 0 [ @ 0 8 q q r q | s i t ' ; u > > m v ' 3 ; ",
"k w w w x g h h a 4 @ @ 0 4 x x y r z A B C ; ; u u , m v 2 , , ",
"D D E E F l h h d h } ] 8 a F G H I / J K ! u ; , , L b b v , , ",
"M M N O P z q q r q 8 0 f Q G R E A S K J T m ; m U b m m m b u ",
"N N N M V j Q x W r g f z F H H X Y Z ` J T b m L m m L U  .m > ",
"N N M ..+.@.x @.I o e g Q P E X ..#.$.%.$.&.b L v v L U U *.L =.",
"N O ....+.w y R -.* ;.l r D M >...,.'.).!.~.m v 3 ) v U {.{.m ; ",
"].N ^.O +.V P H Y -.n d W H >...,./.(._.J :.) 3 , u > v U U m ; ",
"<.N [...+.E V }.J S ;.q @.V >...%.|.1.` J C ) 3 u > > u u L ; 2.",
"<.$.3.4.M Y 5.6.5.5./ Q R 7.>.$.8.8.'.1.9.&.m b u > > u u ; ) ; ",
"6.J $.0.V a.8./.b.5.-.Q p Y Y (.%./.'.'.9.c.L L , u u ) ) ) , , ",
"-.-.-.Y H a.6.b.I Z b.W d.}.}.a.A }.'.'.5.e.L U 3 ) ) ) ) ) , u ",
"f.Q y P p g.I F h./ s I i.A A i.W i.'.a.Z j.k.U l.) l.l.l.; u u ",
"m.Q R V g.F m.z z z x }.}.A g.G n.h.A i.s j.u l.l.) ) ) l.; u u ",
"R 7.,.o.p.d.z x i./ s '.,.a.$.>.F n.y i.Z ( , ) l.) ; ; ) ) u u ",
"[.1.q.r.1.#.g.Z /.'.s.t.u.1.].^.X G F v.5.g.t k.l.) ) ; , ) , , ",
"w.x.y.z.w.,.$.%.q.A.B.C.z.u.o.A d.v.#.a.b.G c.! ) ) ; , u , ; ; ",
"D.D.E.E.w.` w.r.A.F.F.G.F.D.|.s.6.)._.3.+.n H.I.! ) ; u > u ) ; ",
"C.J.K.x.L.w.q.K.J.F.F.G.G.K.K.J.E.A.D.w.M.L T ~.c.! ; u u u ) 2 ",
"E.D.N.[._.q.A.D.J.O.A.F.F._.` K.K.K.O.A.J P.c.Q.R.T ! u u u ; 2.",
"[.L.X G [.K.r.1.x.).O _.q.o.E o.` _.w.S.T.~.Q.Q.e.U.V.W.u u k.2.",
"$.$.X.Y.p ` H Y.E p.f.k G f.n.Z.R R f.f.J `.R.R.~.V.I. +! ; ; 2.",
"|.x.E h.y H n..+Z.p.d.Y.c } } .+c c .+c I `.~.R.T I.I.t Q.W.) ; ",
"!.S.>.>.E Z.Q X.F Y M h.++c .+} .+++Y.X.6 @+~.~.T U. +t  +V.=.#+",
"R G Q Z.G E E R R }.X $+++++++++++++f.x & t R.P.T T t  +I.%+%+U "};
