/* XPM */
static char * wallwater_top_middle_2_xpm[] = {
"32 32 183 2",
"  	c #006299",
". 	c #00689B",
"+ 	c #006186",
"@ 	c #005D86",
"# 	c #00648A",
"$ 	c #005C7D",
"% 	c #00577B",
"& 	c #00688E",
"* 	c #006194",
"= 	c #005A77",
"- 	c #006C8E",
"; 	c #006E97",
"> 	c #005E80",
", 	c #005B91",
"' 	c #006894",
") 	c #00607E",
"! 	c #006182",
"~ 	c #007193",
"{ 	c #007695",
"] 	c #00729B",
"^ 	c #00678C",
"/ 	c #007CA9",
"( 	c #04768A",
"_ 	c #006CA3",
": 	c #007082",
"< 	c #007D99",
"[ 	c #006DA0",
"} 	c #0090BA",
"| 	c #0087B8",
"1 	c #0064A1",
"2 	c #007BA4",
"3 	c #00759E",
"4 	c #0074A8",
"5 	c #0083AC",
"6 	c #0099CA",
"7 	c #008DC1",
"8 	c #0070AA",
"9 	c #008CB2",
"0 	c #0082B2",
"a 	c #00819D",
"b 	c #0098C5",
"c 	c #0079B0",
"d 	c #0089A5",
"e 	c #0EB6C4",
"f 	c #0F9BB9",
"g 	c #0298B4",
"h 	c #00818E",
"i 	c #0B96A9",
"j 	c #00A1C4",
"k 	c #009CBC",
"l 	c #129C94",
"m 	c #008994",
"n 	c #0097B6",
"o 	c #4BBABC",
"p 	c #1E9FB4",
"q 	c #10798D",
"r 	c #1996AB",
"s 	c #1F878C",
"t 	c #0C6279",
"u 	c #1A6163",
"v 	c #138881",
"w 	c #269393",
"x 	c #148178",
"y 	c #107285",
"z 	c #0D7F93",
"A 	c #279A9C",
"B 	c #37A7AC",
"C 	c #18AABA",
"D 	c #2EB8AE",
"E 	c #2AAC9D",
"F 	c #17A56C",
"G 	c #35967C",
"H 	c #37807C",
"I 	c #1F9469",
"J 	c #11879B",
"K 	c #1EA4AC",
"L 	c #26B0AD",
"M 	c #2DB8BB",
"N 	c #0A7E98",
"O 	c #12606B",
"P 	c #23947F",
"Q 	c #3FA497",
"R 	c #298A78",
"S 	c #208C9D",
"T 	c #29B0B3",
"U 	c #2DACBB",
"V 	c #25A293",
"W 	c #318A6E",
"X 	c #1890A2",
"Y 	c #39ACC3",
"Z 	c #1387A1",
"` 	c #178394",
" .	c #0B6474",
"..	c #64AFB5",
"+.	c #1C8EAA",
"@.	c #2E9FB8",
"#.	c #21A1A3",
"$.	c #3B9492",
"%.	c #4EA8BB",
"&.	c #8ACBC4",
"*.	c #0E8BA8",
"=.	c #6BA4A2",
"-.	c #116C7A",
";.	c #74C1B5",
">.	c #4AA5B3",
",.	c #5EB1C3",
"'.	c #2FA2A4",
").	c #AAD7D1",
"!.	c #73C0C8",
"~.	c #84C0C9",
"{.	c #83B0BC",
"].	c #408D81",
"^.	c #68ADA2",
"/.	c #BECAC8",
"(.	c #A5C3C9",
"_.	c #A3CACB",
":.	c #7AC3C3",
"<.	c #C7CECF",
"[.	c #66A38C",
"}.	c #80B2B5",
"|.	c #8CC2C5",
"1.	c #4E92A3",
"2.	c #C3D2D3",
"3.	c #B9D1CF",
"4.	c #3A9AAB",
"5.	c #B8CBCC",
"6.	c #67ADBC",
"7.	c #D6D6D6",
"8.	c #95ADA5",
"9.	c #A5AFB1",
"0.	c #7EABB3",
"a.	c #55A2AA",
"b.	c #74B5C1",
"c.	c #8BB7BC",
"d.	c #97BBC4",
"e.	c #99BDBC",
"f.	c #7AA3AB",
"g.	c #65A8B2",
"h.	c #63C0C0",
"i.	c #B5C6C9",
"j.	c #469EA7",
"k.	c #458F9E",
"l.	c #37B4B2",
"m.	c #A6C1C6",
"n.	c #A0C0BE",
"o.	c #367F7D",
"p.	c #2F93A4",
"q.	c #4A8B97",
"r.	c #0A676B",
"s.	c #186965",
"t.	c #28717D",
"u.	c #17757C",
"v.	c #05586A",
"w.	c #1D5E5A",
"x.	c #064753",
"y.	c #187171",
"z.	c #1B686C",
"A.	c #2F8484",
"B.	c #004859",
"C.	c #014E62",
"D.	c #034A4C",
"E.	c #053F4A",
"F.	c #338C8A",
"G.	c #076A80",
"H.	c #246563",
"I.	c #004350",
"J.	c #0E5963",
"K.	c #1F5452",
"L.	c #187C85",
"M.	c #2E564F",
"N.	c #174C4C",
"O.	c #0E5153",
"P.	c #13565C",
"Q.	c #22534A",
"R.	c #0A515B",
"S.	c #207175",
"T.	c #2B4F4B",
"U.	c #155A4D",
"V.	c #277A7C",
"W.	c #205D53",
"X.	c #0F504C",
"Y.	c #207165",
"Z.	c #20655A",
"          .   + @ # @ @ $ % % + # & & # @ $ @ & @ @ $ *   & # = ",
".       - ; + # @ + # > @ , @ + * & ' # @ = $ * , @ @ @ + + ) ! ",
"* .   * ~ { ! # # # $ + , * *   #   ] # $ = $ $ @ @ @     ; ) ! ",
"^ - ^ ^ / / .   # + ! # @ # . . ' ( { ! ! > > ! @ *     . _ ; : ",
"< ] ; [ } | [ 1   # ^ # # # [ _ ] < 2 - ^ ! + & * * ; 3 [ 4 4 & ",
"| 5 ; 2 6 7 8 1 ; ' ; ^ # ^ 4 4 2 9 } 2 ; ' '   ' ' 1 4 4 0 5 a ",
"6 } ] 9 6 b c 8 1 . ] { # ~ 2 d 9 b b 0 _ ; ; ; ' . 4 0 0 | } 9 ",
"e f < g e b 2 ] h ! ( { : h d i g j k 9 l a m m h h a d d i n } ",
"o p q r f p q s t u v w x y z A B C D E F s s G H I l A J K D L ",
"M p N n C p N q y O P Q R y S r T U D L V G w G W G V d X D M o ",
"Y o Z f e n J J `  .G ..P q +.@.C U o T #.A $.w v P V i i M %.&.",
"Y Y *.C M C Z *.=.-.Q ;.` ` >.,.o Y ,.T #.J J z v s '.K i p ,.).",
"!.~.p C C C K >.{.].^./.A N %.(.~.,.~.U r J Z ` ( z i T n %._.).",
")._.:.M f T >./.<.[.}.|.1.S {.(.2.~.3.|.r Z Z ` ( N 4.f o _.2.2.",
"5.5.2.:.M @.6.7./.8.9.0.0.1.6.6.<.5.7.<.6.a.+.z q 1.b.,.~.7._._.",
"c.:.7._.%.,.d./.e.9.f.=.c.}.>.4.c.5._.(.d.e.g.` J 6.5.(.5.5.Y h.",
"B f &.2.e.(.i.{.f.9.1.X {.{.j.r r ~.g.g.(./.c.k.j.d.(.5.(.%.K p ",
"A #.l.|.d.(.m.4.+.f.` S }.6.S *.X ..Z *.c./.n.B g.c.%.!.,.4.X *.",
"y w p >.0.c.}.k.X 1.q S a.g.< X J *.J J a.d.e.g.}...4.%.M Z q J ",
" .o.#.p.q.=.=.$.S ` s J B 1.q S z Z z z S >.}.}.}.>.4.4.r ( -.( ",
"r.s.q z t.q.$.].N ` q ` r J y N v J ` y q X a.g...j.'.p.S u.v. .",
"w.x.y.y z.A.o.y ` N q w '.m u.( -.v y -.y ` k.a.B X $.` $.z.B.C.",
"D.E.C.t u u.z.t ` $.F.P '.z  .u.O z. .z.G.y ` p.p.$.s ].A.H.I.x.",
"E.E.B.J.K.O C.z.s w L.( X ( v. .u w.J.v.t y y J S z L.H t.M.N.E.",
"E.E.N.O.x.P.P.u L.s u.L.J : u u w.Q.R.C. .t.-.` ` y -.S.z.M.T.N.",
"E.E.E.U.U.K.R.R.S.v S.V.a S.R.R.x.N.K.B.v.-.t F.z G.z.z.H.T.T.T.",
"E.E.Q.Q.U.W.O.O.s.x r.u.s y.O.O.T.N.x.x.J. .O A.` S.J.J.M.T.Q.Q.",
"E.E.E.E.D.Q.O.O.r.y.u S.R z.N.N.T.E.x.I.C.J.H.W F.z.R.R.M.Q.M.M.",
"E.E.E.E.E.X.X.X.O.u u Y.o.Z.N.T.T.N.N.x.B.J.J.t.A.s.O.O.x.N.N.M.",
"E.E.E.D.N.X.X.D.x.R.O.u Y.W.N.E.N.E.I.T.x.C.B.S.o.J.I.W.K.Q.N.D.",
"E.E.E.D.X.D.D.D.N.W.U.B.s.W.N.I.E.I.N.x.O.B.x.z.S.R.N.x.X.U.X.K.",
"E.E.X.D.D.D.D.E.N.Q.K.U.P.Q.E.E.E.x.K.T.O.x.I.J.z.K.X.X.D.D.X.U."};
