/* XPM */
static char * wallwater_middle_border_right_1_xpm[] = {
"32 32 184 2",
"  	c #006C5B",
". 	c #006969",
"+ 	c #0C7054",
"@ 	c #08725F",
"# 	c #13745B",
"$ 	c #005D65",
"% 	c #004561",
"& 	c #005263",
"* 	c #00495A",
"= 	c #00525D",
"- 	c #005F67",
"; 	c #0A6E55",
"> 	c #005768",
", 	c #006573",
"' 	c #409893",
") 	c #5B9B88",
"! 	c #2A6200",
"~ 	c #306E00",
"{ 	c #1F5400",
"] 	c #545400",
"^ 	c #715700",
"/ 	c #373708",
"( 	c #2C2409",
"_ 	c #00725C",
": 	c #008350",
"< 	c #026666",
"[ 	c #00666C",
"} 	c #004E62",
"| 	c #11756F",
"1 	c #679699",
"2 	c #377800",
"3 	c #457B00",
"4 	c #474704",
"5 	c #088348",
"6 	c #39777C",
"7 	c #005F6A",
"8 	c #00625A",
"9 	c #0F7B65",
"0 	c #007957",
"a 	c #056C74",
"b 	c #177E68",
"c 	c #68A388",
"d 	c #5B6602",
"e 	c #27825E",
"f 	c #0A8569",
"g 	c #005F73",
"h 	c #2D8867",
"i 	c #71AC87",
"j 	c #32966A",
"k 	c #269271",
"l 	c #188D87",
"m 	c #08727A",
"n 	c #096D65",
"o 	c #80B89B",
"p 	c #2D9776",
"q 	c #17957C",
"r 	c #199A92",
"s 	c #007583",
"t 	c #207E76",
"u 	c #69AC9F",
"v 	c #795F00",
"w 	c #30A58F",
"x 	c #44A5AB",
"y 	c #268D8D",
"z 	c #007870",
"A 	c #007E84",
"B 	c #0B8C89",
"C 	c #0F8593",
"D 	c #08777D",
"E 	c #85BDB8",
"F 	c #839100",
"G 	c #828500",
"H 	c #32B39F",
"I 	c #1A7E52",
"J 	c #0B8D95",
"K 	c #01839C",
"L 	c #02788C",
"M 	c #127E84",
"N 	c #74B496",
"O 	c #83CCB1",
"P 	c #2CB9A2",
"Q 	c #30BAAC",
"R 	c #1FB293",
"S 	c #108B77",
"T 	c #006281",
"U 	c #005975",
"V 	c #1BABA0",
"W 	c #0F96AA",
"X 	c #017A99",
"Y 	c #208184",
"Z 	c #57C1B9",
"` 	c #084A00",
" .	c #0E3600",
"..	c #33C0B8",
"+.	c #33BDBA",
"@.	c #189FA5",
"#.	c #0593B5",
"$.	c #0685A1",
"%.	c #6EC3C3",
"&.	c #89D2BC",
"*.	c #7D8800",
"=.	c #42C0C3",
"-.	c #2FC4BC",
";.	c #18A57E",
">.	c #03908D",
",.	c #0E9CB5",
"'.	c #40B28B",
").	c #76CBC8",
"!.	c #45C9C1",
"~.	c #1BABBC",
"{.	c #169D9A",
"].	c #007B92",
"^.	c #0F9FB9",
"/.	c #61B9B1",
"(.	c #75CED9",
"_.	c #388800",
":.	c #66CDBC",
"<.	c #0D8BA2",
"[.	c #1F92A3",
"}.	c #1F8F97",
"|.	c #2EADC1",
"1.	c #62BABD",
"2.	c #60B9CA",
"3.	c #335820",
"4.	c #4F9F00",
"5.	c #3BC2BA",
"6.	c #279AAB",
"7.	c #56AEB4",
"8.	c #258C76",
"9.	c #51BDC3",
"0.	c #81C1B9",
"a.	c #87D3D3",
"b.	c #37A7BB",
"c.	c #64B7C2",
"d.	c #7EC8D0",
"e.	c #3B7E00",
"f.	c #636B00",
"g.	c #A9D5D0",
"h.	c #2EA1B2",
"i.	c #95C4C1",
"j.	c #8CC7CC",
"k.	c #7FC0C5",
"l.	c #57B3C1",
"m.	c #B1DDDA",
"n.	c #9FD7DA",
"o.	c #B5CFB9",
"p.	c #3E402B",
"q.	c #52ABB9",
"r.	c #67ABB0",
"s.	c #A9D8D5",
"t.	c #BCDFDF",
"u.	c #BDE3E0",
"v.	c #454F29",
"w.	c #71BBC9",
"x.	c #8EC9D1",
"y.	c #CDE7E2",
"z.	c #595E26",
"A.	c #48A7B2",
"B.	c #67CBBD",
"C.	c #6BC0BB",
"D.	c #1D1D1D",
"E.	c #006A7B",
"F.	c #3F92A0",
"G.	c #004351",
"H.	c #005154",
"I.	c #38A4A4",
"J.	c #007E89",
"K.	c #307285",
"L.	c #003E4C",
"M.	c #004D5B",
"N.	c #3E4528",
"O.	c #003E49",
"P.	c #004C4C",
"Q.	c #005B5E",
"R.	c #00524A",
"S.	c #679677",
"T.	c #003C47",
"U.	c #00484B",
"V.	c #5C8888",
"W.	c #2C2E32",
"X.	c #005048",
"Y.	c #424A24",
"Z.	c #04594E",
"`.	c #575F00",
"  . +   @ # $ % & * * = - + ; & > > , ' ) ! ~ { ] ^ ^ ] ] / ( / ",
"_ : _ + @   < = = = % % = _ [ } > % | ' 1 2 3 3 4 ] ] / ( ( 4 4 ",
"5 5 5 6 @ _   7 $ $ $ & 8 . $ } & & 9 ) 1 ! 3 3 / / / ( ( / 4 ] ",
"_ 0 5 5 a . 0 @ =   $ $ % $ 7 [ & < b ) c d 4 3 ( / ( ( ( 4 ] ] ",
"9 e f f a . 0 ; .   ; 7 } & # a 7 g h c i d ] ( ( / / / ( 4 ^ ^ ",
"9 j k l m . _ [ 0 0 ;   . 0 m : n | j c o d ] / ( / 4 4 / / ^ ^ ",
"h p q r s , _ : : 0 0 < n . f h t , j u o v v 4 ( / / 4 ] / ] ] ",
"j w w x y z _ 0 f @ & n # 9 A B C D h u E F G ^ / / 4 ] ^ ] 4 ] ",
"w H H H r f : z z z . @ I h ' J K L M N O F G G 4 / 4 ^ G ^ / 4 ",
"P P Q P R k S z T U [ @ 9 k w V W X Y Z O F G G { ` 4 ^ G ^ /  .",
"..+.+.Q R r l s s T U [ | C @.W #.$.y %.&.F *.{ `  ./ ^ ^ ^ 4 ( ",
"=.+.-.+.V ;.>.L L A , a D K W #.,.P '.).O F 3 ~  .] 4 ] ^ ^ ] ( ",
"!.-.+.~.,.{.].X X ].D , s K W #.^.,./.(.%._.` ~ _.~ ^ 4 ] ] ] ( ",
":...+.~.^.<.K <.[.}.M s B W #.^.|.|.1.(.2.3.{ 3 _.4.^ ] 4 4 { / ",
").5.-.~.,.W <.6.7.x 8.8.K V ,.~.9.2.2.(.0._.4 ] 4.4.v ] ] / 4 4 ",
"a.=.=.|.,.W W b.c.o y 8.{.W ,.~.d.a.d.(.0.e./ ] ] 4.f.^ ^ 4 / 4 ",
"g.2.2.|.#.h.i.j.i.k.}.B [.W ,.l.m.m.n.(.o.p.( / / f.d v ^ 4 / p.",
"g.).:.9.,.l.g.j.q.i.r.q W b.b.d.s.t.u.n.c.v.( ( / / ] f.4 / { ` ",
"j.k.).:.b.w.x.1.x E c.x h.k.c.a.d.s.y.u.c.z./ ( ( / / / ] ~ {  .",
"[.A.l.B.Z k.A.[.$.6.0.7.1.j.j.x.c.d.u.y.o.z./ / ( ( / ] 3 {  . .",
"s C h.l.%.q.K K $.<.7.C.%.k.x.k.q.c.a.m.o.v./ / ( D./ ~ {  .] ] ",
"[ E.[.A./.x ].].K @.x Z 9.l.).l.A.q.w.x.c.v./ ( D.D.{ `  .v v ^ ",
"% & L @.A.}.s ].$.{.@.q.b.7.q.A.' F.q.w.u p.( D.D./  ./ ^ G G v ",
"G.H.n C I.L E.J.K J $.x 6.@.6.[.K.t I.q.c p.D.D.D./ 4 ( ] G G v ",
"L.L.M.D p D 7 s K ].K @.$.J J 8.< $ y 7.1 N.D.D./ / { ` ` 4 f.f.",
"O.O.P.n s , Q.s X B K $.].].A m R.H.t 1 S.N.D./ ] 3 { _._.` ] ] ",
"O.O.O.M., < G.E.].L X X K J.m _ T.U.& V.K.W./ ] _.{ _._.3 ` ] ] ",
"O.T.O.H.$ Q.H.E.B A ].J J A U 8 X.T.M.K.V.Y.^ ^ 4.3 _._.`  .] ^ ",
"O.O.L.L.< Z.R.[ s T Y l l E.- * X.O.* 6 V.`.^ ^ _._._.{ ( ( 4 v ",
"L.T.O.O.R.R.R.[ E.E.s B A [ } G.U.T.H.6 V.`.] ] { 3 { ( ( / { ~ ",
"O.T.T.O.X.R.R.$ U . U s m . Z.P.L.P.* 6 S.*.] / ` 3 ( ( / { ~ { ",
"L.O.L.T.O.X.X.Q.U & . E., $ H.L.U.P.M.6 S.*./ / 4 4 ( ( 4 ~ { 4 "};
