/* XPM */
static char * wallwater_bottom_border_right_1_xpm[] = {
"32 32 197 2",
"  	c #00474E",
". 	c #004249",
"+ 	c #00394D",
"@ 	c #00464D",
"# 	c #00504B",
"$ 	c #005A46",
"% 	c #035E6A",
"& 	c #005362",
"* 	c #006374",
"= 	c #0D6C6A",
"- 	c #005763",
"; 	c #025454",
"> 	c #0A5C5C",
", 	c #41777C",
"' 	c #6F8E78",
") 	c #404423",
"! 	c #37370E",
"~ 	c #715B00",
"{ 	c #47470C",
"] 	c #1D1D1D",
"^ 	c #302914",
"/ 	c #606205",
"( 	c #2C250D",
"_ 	c #005355",
": 	c #004652",
"< 	c #004F5B",
"[ 	c #00596A",
"} 	c #0F5C4B",
"| 	c #5B8484",
"1 	c #838500",
"2 	c #595B06",
"3 	c #133600",
"4 	c #003F58",
"5 	c #347781",
"6 	c #746A00",
"7 	c #2E2A1C",
"8 	c #003C52",
"9 	c #003A50",
"0 	c #26777E",
"a 	c #5D7602",
"b 	c #104A00",
"c 	c #1D3222",
"d 	c #28282B",
"e 	c #766000",
"f 	c #004A5B",
"g 	c #004F54",
"h 	c #595B34",
"i 	c #255400",
"j 	c #00615A",
"k 	c #00575C",
"l 	c #0C6666",
"m 	c #608E89",
"n 	c #545200",
"o 	c #005A5A",
"p 	c #383A28",
"q 	c #3D888D",
"r 	c #649F79",
"s 	c #385C07",
"t 	c #396D00",
"u 	c #00695F",
"v 	c #007153",
"w 	c #006361",
"x 	c #237558",
"y 	c #3E9380",
"z 	c #488400",
"A 	c #1E6640",
"B 	c #5F988A",
"C 	c #508200",
"D 	c #4B7B00",
"E 	c #589F00",
"F 	c #126F5B",
"G 	c #004861",
"H 	c #004760",
"I 	c #5A9385",
"J 	c #796200",
"K 	c #016365",
"L 	c #49730C",
"M 	c #1C7159",
"N 	c #056C58",
"O 	c #499B8A",
"P 	c #275A05",
"Q 	c #147373",
"R 	c #3E908E",
"S 	c #222208",
"T 	c #4E914B",
"U 	c #247979",
"V 	c #11778D",
"W 	c #4C98B3",
"X 	c #6AA3AD",
"Y 	c #4B602F",
"Z 	c #456300",
"` 	c #0E7084",
" .	c #268B97",
"..	c #076F7B",
"+.	c #046B75",
"@.	c #005477",
"#.	c #317F8B",
"$.	c #6BA2A9",
"%.	c #4C95A4",
"&.	c #497A22",
"*.	c #447A18",
"=.	c #147362",
"-.	c #1E7B85",
";.	c #2D8594",
">.	c #00728B",
",.	c #005F7D",
"'.	c #005F7A",
").	c #398596",
"!.	c #72ABB2",
"~.	c #607C46",
"{.	c #5C881C",
"].	c #578B00",
"^.	c #2893A4",
"/.	c #1F8293",
"(.	c #3EA3B2",
"_.	c #56AEBA",
":.	c #0D7286",
"<.	c #006585",
"[.	c #318A9B",
"}.	c #499CAB",
"|.	c #7DC1C8",
"1.	c #B5DADC",
"2.	c #ACB094",
"3.	c #6B7A00",
"4.	c #1C1C0A",
"5.	c #499299",
"6.	c #4FAFBB",
"7.	c #8DBAC1",
"8.	c #96CFC8",
"9.	c #92CED5",
"0.	c #5EB3BD",
"a.	c #1C899D",
"b.	c #45AABB",
"c.	c #309BAC",
"d.	c #6FAEB5",
"e.	c #A9D6E2",
"f.	c #F1F9F9",
"g.	c #DBE0D8",
"h.	c #6CB4BE",
"i.	c #B2D6D6",
"j.	c #BCE3E8",
"k.	c #CBEAEC",
"l.	c #6BC0CA",
"m.	c #77CAD4",
"n.	c #94D5DC",
"o.	c #9BC7C9",
"p.	c #E2F2F4",
"q.	c #C4DCE0",
"r.	c #778968",
"s.	c #9ED9DE",
"t.	c #F8FAFB",
"u.	c #D5E8EC",
"v.	c #6DA680",
"w.	c #D8F2F2",
"x.	c #EEF6F3",
"y.	c #77BDB1",
"z.	c #C2EBF0",
"A.	c #A2E0E5",
"B.	c #DFECE1",
"C.	c #C5D4BD",
"D.	c #608C28",
"E.	c #CFECF0",
"F.	c #89CFD6",
"G.	c #75CBD2",
"H.	c #30909F",
"I.	c #BFE6EB",
"J.	c #1F8EA2",
"K.	c #4DB2C3",
"L.	c #018099",
"M.	c #027792",
"N.	c #229FB5",
"O.	c #47701E",
"P.	c #12879D",
"Q.	c #2193AC",
"R.	c #4E9969",
"S.	c #309FAE",
"T.	c #58AAAA",
"U.	c #366619",
"V.	c #669800",
"W.	c #6B8400",
"X.	c #0888A8",
"Y.	c #007A95",
"Z.	c #0C8EAE",
"`.	c #5DB27F",
" +	c #007BA1",
".+	c #006B8B",
"++	c #00708E",
"@+	c #5C9555",
"#+	c #6EA738",
"$+	c #50543A",
"%+	c #006E94",
"&+	c #00698A",
"*+	c #566C12",
"=+	c #3A4400",
"-+	c #00809B",
";+	c #306313",
">+	c #A0B200",
"      . + @ # $ % & & * = - ; ; .   > , ' ) ! ~ ~ { ] ^ { / ( ! ",
"#   _ @ + . : $ - < < % [ < } ; .   } , | ) ~ 1 ~ ! ] ! ! ( ] ( ",
"$ $ $ @ + +   ; > < : - > : ;   + + > , ' 2 ~ ~ { ! ] { ! ( 3 ] ",
"# $   $ ; + + : < ; + 4 ; :     + : > , 5 6 1 ~ ! ] ! { { ! 3 7 ",
"8 @   _ $ $ + + : : + . 9 : 8 9 + + > 0 5 a ~ ~ ! ] ! ! ! b c d ",
"8 @ _ : _ $   @ + + + + 9 . : : :   - , ' e ~ { ( ! { ! ! b c 7 ",
"_ _ _ f } _ : : + + + + + 9 g g g ; - , ' h ! ( { ~ ~ { i c ] 7 ",
"j $ : < k } $ ; + + + + 9 9 g _ ; < l 5 m ) ] ! n ~ ~ i c ] 7 ! ",
"_ o o o f f g ; : + + + 9 8 f f < : - 5 | p ! ! n n { i 3 c { { ",
"k j o o f g : :   . + 9 8 8 4 f f ; l q r s { ! { { t b b 3 { { ",
"j j u v w : : g ; # + 8 : _ f f k k x y r z i ! i z b i i i b n ",
"u u A u l < g k ;   : : < < f f f k % q B C b i t i i t D E i ~ ",
"u v w u F - f k >   ; : k > k G H H - q I $ i t 3 3 t D D z t J ",
"u u u = F K < k A # ; < k j K K H H % q I L i 3 7 ( 3 D E E i ! ",
"u u u u M N k f & } } < k k u l H G * q O P c 7 { n ~ 3 D D i ! ",
"u u u = x l - f k } > k K l % % G - Q R I b ( ( n ~ ~ n n t ! S ",
"u N F Q T U K - [ G < & u M F - - [ V W X Y s P Z e ~ n n ! ( ! ",
"u l % `  ...[ +.* - - K - Q * @.[ [ #.$.%.&.*.*.h 2 n ^ ^ ( { { ",
"Q = =.R W -.*  .;.>.U ,.'.'.* * @.U ).X !.~.{.].^ ( ( ^ 7 ( { n ",
"5 ` 0 R ^./.#.(._._.^.:.V >.<.* ..[.}.|.1.2.h 3.4.7 4.4.4.! n n ",
"5.5.).` }.6._.7.8.9.0.a.(.b.c.#.).0.d.e.f.g.~.S 4.( ( ( 4.! n n ",
"h.7.X R ^._.|.i.j.k.9._.l.m.n.9.o.|.8.e.p.q.r.^ 4.( ! ! ( ( n n ",
"e.q.o.7.h.|.1.p.f.f.k.n.n.s.p.t.u.1.i.q.u.j.v.) 4.( ( ! { ( { { ",
"w.k.j.j.s.s.j.x.f.p.w.w.w.w.f.t.x.x.p.x.u.|.y.L ( ( ! { n { ! ! ",
"j.z.w.f.p.A.j.w.z.A.p.p.w.f.p.w.f.t.f.f.x.B.C.D.s ( ! n ~ n ( ! ",
"l.A.E.t.p.F.G.n.b.H.s.I.A.n.l.0.7.1.k.B.B.x.B.T L Z ! n n n ( c ",
"J.K.l.F.F.W L.M.V V b.K.N.c./.V J.y.8.8.C.I.8.O.O.].Z n n n ! S ",
"V M./.^.J.P././.J.c.^.J.J.J.J.^.Q.a./.R.S.T.| U.O.V.W.s { n { S ",
"/.X.J.J.P.Y.Y.V H.S.X.Z.^.X.Z.l.s.}.M.R.`.`.&.O.&.W.a Y t ! ! S ",
"X.X.X. +.+++Y.:.:.<.V Y.:..+X.n.I.T.Z.y @+#+&.O.].a a $+U.Z ( ^ ",
".+++++%+&+'..+Q.S.N.N.b.K.b.K.K.K.X.N.Q.@+D.*.&.].V.Y $+*+W.3.=+",
"&+&+,.,.'..+%+-+L.L. + +.+&+%+&+&+@.@.>.;+Y L L ].].$+h L >+>+D "};
