/* XPM */
static char * wallwater_middle_middle_1_xpm[] = {
"32 32 183 2",
"  	c #005066",
". 	c #005163",
"+ 	c #006E64",
"@ 	c #006969",
"# 	c #00715B",
"$ 	c #007A47",
"% 	c #006C52",
"& 	c #006663",
"* 	c #006D54",
"= 	c #006158",
"- 	c #004C61",
"; 	c #00555C",
"> 	c #005F69",
", 	c #007152",
"' 	c #006B5B",
") 	c #016155",
"! 	c #006164",
"~ 	c #00813B",
"{ 	c #00686B",
"] 	c #057657",
"^ 	c #007A64",
"/ 	c #007C46",
"( 	c #007358",
"_ 	c #004C69",
": 	c #1B7B55",
"< 	c #127E59",
"[ 	c #188950",
"} 	c #20865C",
"| 	c #008666",
"1 	c #006173",
"2 	c #01834A",
"3 	c #03746E",
"4 	c #129476",
"5 	c #058D72",
"6 	c #006D7B",
"7 	c #007F7C",
"8 	c #178E57",
"9 	c #139B80",
"0 	c #1D835C",
"a 	c #007B63",
"b 	c #008185",
"c 	c #007A7A",
"d 	c #00607A",
"e 	c #006E75",
"f 	c #007C93",
"g 	c #006C83",
"h 	c #00AA97",
"i 	c #49A48B",
"j 	c #199665",
"k 	c #00898D",
"l 	c #007199",
"m 	c #005872",
"n 	c #008176",
"o 	c #00829D",
"p 	c #00BBA4",
"q 	c #03B391",
"r 	c #006289",
"s 	c #008B8B",
"t 	c #00998E",
"u 	c #0086A2",
"v 	c #007C7C",
"w 	c #006890",
"x 	c #007292",
"y 	c #009CA4",
"z 	c #2D9996",
"A 	c #00C0AC",
"B 	c #199B73",
"C 	c #1D8E68",
"D 	c #198A58",
"E 	c #008C94",
"F 	c #008EAA",
"G 	c #00718C",
"H 	c #0080B2",
"I 	c #007BA8",
"J 	c #01C2AF",
"K 	c #11A46F",
"L 	c #007A85",
"M 	c #008F96",
"N 	c #00A4AC",
"O 	c #00BAA6",
"P 	c #0097B3",
"Q 	c #004F79",
"R 	c #00959D",
"S 	c #00A269",
"T 	c #00ABB3",
"U 	c #00A08D",
"V 	c #009876",
"W 	c #049D9D",
"X 	c #04B0B4",
"Y 	c #08BDB9",
"Z 	c #005980",
"` 	c #00A099",
" .	c #008CA3",
"..	c #008FB9",
"+.	c #00A977",
"@.	c #00B8BC",
"#.	c #0C9EA5",
"$.	c #009BBC",
"%.	c #0096AE",
"&.	c #006B8A",
"*.	c #0092A6",
"=.	c #008CB1",
"-.	c #2FC8B6",
";.	c #009FBB",
">.	c #008CB9",
",.	c #007CA0",
"'.	c #0BAA82",
").	c #009E3E",
"!.	c #0EA6AD",
"~.	c #009DC0",
"{.	c #05A3BA",
"].	c #46BCC3",
"^.	c #55D2C5",
"/.	c #1DAFC1",
"(.	c #46C392",
"_.	c #00A247",
":.	c #8FC2BA",
"<.	c #00779B",
"[.	c #27ABB5",
"}.	c #6ABFC5",
"|.	c #3AAEC2",
"1.	c #7CCBC8",
"2.	c #A5D2CC",
"3.	c #59C4CA",
"4.	c #00C0C0",
"5.	c #3AB5BC",
"6.	c #51B1A5",
"7.	c #19AC89",
"8.	c #55AFBB",
"9.	c #BDCDCE",
"0.	c #52B2C9",
"a.	c #A7D4CE",
"b.	c #8AC1C8",
"c.	c #AAC5C6",
"d.	c #86B3B1",
"e.	c #9CC9C1",
"f.	c #AAC9D2",
"g.	c #7BD0CB",
"h.	c #B0D8D3",
"i.	c #8CC3C5",
"j.	c #239DAB",
"k.	c #92C9D0",
"l.	c #9ACDCB",
"m.	c #CAD5D4",
"n.	c #78A1A5",
"o.	c #67B9BC",
"p.	c #4FAFB5",
"q.	c #43A7BA",
"r.	c #2FA0B1",
"s.	c #D9D9D9",
"t.	c #75BCBF",
"u.	c #8FAEB1",
"v.	c #4795A7",
"w.	c #6FB6C4",
"x.	c #0086A8",
"y.	c #ADC6C9",
"z.	c #009CB3",
"A.	c #0D8195",
"B.	c #33BBAD",
"C.	c #00A9A1",
"D.	c #4EA5B4",
"E.	c #008C9C",
"F.	c #009283",
"G.	c #005B4E",
"H.	c #005047",
"I.	c #005345",
"J.	c #2F97A0",
"K.	c #004C4C",
"L.	c #003F53",
"M.	c #00484B",
"N.	c #003649",
"O.	c #004556",
"P.	c #008A7B",
"Q.	c #00575D",
"R.	c #005451",
"S.	c #002F46",
"T.	c #005A49",
"U.	c #00475B",
"V.	c #00414A",
"W.	c #003B47",
"X.	c #006681",
"Y.	c #025747",
"Z.	c #0B4F45",
"    . + @ # $ % & * * % = - ; - - > , ' & ) ; ; ; - = ! ! @ % ~ ",
"  - { ] + ^ / $ ! ! & = - ; ! @ @ > , + * , ! ; - ! = @ > > $ ' ",
". . + ] ( $ ~ $ ! . ! . - - @ ' > > ( ] , * ! - - ; @ ' , @ ~ # ",
". _ ( ] : < # ~ - ! . . - @ ' , > > + : , ' @ ! - ! & , $ $ $ # ",
"> + : [ } | ] _ . & & _ . > ] : ] 1 1 ] + * + &   ! ' ~ 2 $ ^ @ ",
"+ 3 [ [ 4 5 ] > _ & + > _ . : : : 6 6 > * + * { ! ; $ ~ 2 $ ^ @ ",
"7 3 8 8 9 9 0 ( _ & > + * _ a a 3 b b > > { { + { ' ~ 2 $ c d e ",
"f g a 8 h i j < { > e ] ] ( 7 7 7 k l m + > ( : : , ~ n 1 g g a ",
"o f 6 4 p q j 8 $ + 6 2 2 < r b s t u g 1 { ] < : : 6 v d w x s ",
"y o 6 z A p B 8 $ 1 v C D D k s E F F G m 1 1 a < < 8 k b x l t ",
"H I v h J p K n ^ > L j } C M E N O P t g Q d 6 0 0 4 t M R I q ",
"P O S T A A U V c a 5 t C j W u X Y O R r Z d g d D B `  .F P J ",
"..H +.A @.@.U U S | B #.5 4 #.F T $.T %.t k &.g 6 L t *. .=.@.-.",
";.>.,.@.@.T +.h '.).B q E M !.X T ~.{.T W M x &.Z &.R F %.P ].^.",
"/./.I ;.$.A F T (._.i :.9 <.[.}.>.~.|.T u o l w g &.,.%.P $.1.2.",
"3.3.>.$.4.@.F 5.:.K 6.:.7.o 8.9.0.|.0.X I ,.<.w r f u =.T /.a.a.",
"2.2.|.@.Y P !.b.c.i d.e.6. .8.b.f.g.h.i.%. .u E G <.j.P >.k.h.a.",
"l.9.m.].;.;.8.9.i.n.d.o.p.#.5.5.a.a.9.2.q.r.j.x x j.}./.b.m.1.k.",
"8.].s.2.5.}.c.c.t.u.6.v.t.p.[.F ].l.w.b.b.w.r.l  .o.m.1.2.2././.",
"x.N 1.m.c.1.y.8.r.u.W R :.8.F I N }.r.z.b.c.8.,.j.i.y.a.b.{.%.=.",
"x ,.X }.c.c.w.x. .v.A.I B.p. .C.u X C.C.q.w.q.x.[.}.B.}./.F u F ",
"&.G F z.D.q.D.E ,.A.k E.!.6.z y t N U R N q.q.r.p.B.P {.[.W s E.",
"d Q ,.u A.x. .x l M w E !.!.M W E ,.R E R N r.D.p.N u z.!.k g s ",
"@ @ F.x 6 f r &.x E x x #.` k t b E x b M R x.r.!.u R y ` 7 { m ",
"G.G.c s > g d Z x <.s x *.E L k d g g d G f o x.x.,.<.E E { ; - ",
"H.I.' d - e _ d F.E.b F.C.x e L { m m > Z r f J.,.E k k b ) K.L.",
"M.N.O.- O._   1 F.F.P.F.*.&.# e & Q.! ' 7 b G l o f b v 6 R.S.N.",
"H.N.M.L.O.- ) ' P.F.n P.E.n @ { T.K.U.' d g d f <.&.6 e > V.S.W.",
"R.S.S.K.K.Q.T.) v P.^ X.x Q G.= Y.Z.R.; > Q m r f Z m _ - N.N.N.",
"K.V.S.V.Z.R.R.U.' n ' d s + R.R.Y.I.R.R.. m . r G m . - U.K.K.V.",
"M.V.S.K.Y.T.R.K.! 3 . { L @ R.K.I.I.Z.U.Q.m _ Q r _ O.U.U.K.K.K.",
"M.K.N.K.Y.Y.K.K.U.> U._ d ! K.V.K.R.Z.O.U.* . Q Z . O.O.Y.K.K.K."};
