/* XPM */
static char * wallwater_bottom_border_right_2_xpm[] = {
"32 32 199 2",
"  	c #5CA4AE",
". 	c #6BAEB8",
"+ 	c #4AB7C8",
"@ 	c #59B3BD",
"# 	c #42AFBB",
"$ 	c #84C0CA",
"% 	c #6CB7BE",
"& 	c #3BA8AA",
"* 	c #1F91A2",
"= 	c #419CAD",
"- 	c #7BB5C1",
"; 	c #99C5CA",
"> 	c #91C7CC",
", 	c #9AD3D3",
"' 	c #74C4A9",
") 	c #88C9D3",
"! 	c #C0E0E7",
"~ 	c #B3CDBC",
"{ 	c #50543A",
"] 	c #37370E",
"^ 	c #715B00",
"/ 	c #47470C",
"( 	c #1D1D1D",
"_ 	c #2C250D",
": 	c #446900",
"< 	c #188489",
"[ 	c #25929E",
"} 	c #66C0BE",
"| 	c #21899D",
"1 	c #54A2B3",
"2 	c #75BEC5",
"3 	c #68C5CC",
"4 	c #7DCED5",
"5 	c #B6DDDF",
"6 	c #838500",
"7 	c #1B7678",
"8 	c #4B8465",
"9 	c #4CACB6",
"0 	c #399BAA",
"a 	c #0B7E94",
"b 	c #1D8796",
"c 	c #4093A4",
"d 	c #5EB6C2",
"e 	c #7ECBCB",
"f 	c #A1BDA7",
"g 	c #5C6616",
"h 	c #025F64",
"i 	c #117566",
"j 	c #007994",
"k 	c #65B0B5",
"l 	c #12859B",
"m 	c #07768A",
"n 	c #2E90A4",
"o 	c #4AACBB",
"p 	c #5596A2",
"q 	c #71AFAA",
"r 	c #796F00",
"s 	c #133600",
"t 	c #28282B",
"u 	c #004453",
"v 	c #004B5A",
"w 	c #036372",
"x 	c #56AB9C",
"y 	c #319193",
"z 	c #00677D",
"A 	c #0E88A6",
"B 	c #197F95",
"C 	c #43A3B2",
"D 	c #3A7E8A",
"E 	c #358392",
"F 	c #61A7B3",
"G 	c #104A00",
"H 	c #1D3222",
"I 	c #003B4A",
"J 	c #004A4A",
"K 	c #00575C",
"L 	c #087279",
"M 	c #248381",
"N 	c #02626E",
"O 	c #006D83",
"P 	c #256970",
"Q 	c #195F6B",
"R 	c #6F9B9B",
"S 	c #2D2A23",
"T 	c #003C52",
"U 	c #00636D",
"V 	c #0F6F7E",
"W 	c #10788C",
"X 	c #076F85",
"Y 	c #0B5858",
"Z 	c #025254",
"` 	c #68967F",
" .	c #36321C",
"..	c #255400",
"+.	c #005544",
"@.	c #196B6B",
"#.	c #0F5C5C",
"$.	c #056F88",
"%.	c #00484D",
"&.	c #5C9286",
"*.	c #5A8883",
"=.	c #545200",
"-.	c #003D47",
";.	c #005662",
">.	c #0A6D74",
",.	c #3B392E",
"'.	c #163905",
").	c #066675",
"!.	c #004D66",
"~.	c #345D05",
"{.	c #376E00",
"].	c #00566A",
"^.	c #066B7A",
"/.	c #004E62",
"(.	c #00404C",
"_.	c #21613B",
":.	c #3E7781",
"<.	c #428800",
"[.	c #4B7B00",
"}.	c #045C6B",
"|.	c #3C757C",
"1.	c #589F00",
"2.	c #004B55",
"3.	c #005248",
"4.	c #106565",
"5.	c #4F5118",
"6.	c #777200",
"7.	c #317E00",
"8.	c #64A298",
"9.	c #3D6419",
"0.	c #735D00",
"a.	c #00708E",
"b.	c #2E919D",
"c.	c #1C1C0A",
"d.	c #289DB3",
"e.	c #60ABBA",
"f.	c #39723E",
"g.	c #58BDC9",
"h.	c #45B0C6",
"i.	c #006386",
"j.	c #007DA3",
"k.	c #447D49",
"l.	c #7DD3DA",
"m.	c #95D6E2",
"n.	c #A3E2E9",
"o.	c #6DCDD9",
"p.	c #1E7F9A",
"q.	c #0F94AF",
"r.	c #79C4D3",
"s.	c #8FCEDA",
"t.	c #97DDE4",
"u.	c #B2E8ED",
"v.	c #A3E9EB",
"w.	c #84D5E1",
"x.	c #6BC0CA",
"y.	c #39B0C9",
"z.	c #50772A",
"A.	c #D0F4F4",
"B.	c #C5EAF1",
"C.	c #CBEAEC",
"D.	c #D1EEF0",
"E.	c #BADAE1",
"F.	c #BEF2F2",
"G.	c #E6F6F8",
"H.	c #DFF4F6",
"I.	c #FDFDFD",
"J.	c #EDFAFA",
"K.	c #EDF5F7",
"L.	c #DDF9F9",
"M.	c #88DBDD",
"N.	c #81C857",
"O.	c #46770D",
"P.	c #3C6300",
"Q.	c #E9F6F8",
"R.	c #2C690F",
"S.	c #47701E",
"T.	c #588C00",
"U.	c #222208",
"V.	c #5EBBC5",
"W.	c #80D1DD",
"X.	c #4AA5AC",
"Y.	c #669800",
"Z.	c #2595AB",
"`.	c #6DBA9B",
" +	c #6B8400",
".+	c #5D7602",
"++	c #4B602F",
"@+	c #006999",
"#+	c #0062A1",
"$+	c #007E99",
"%+	c #72B580",
"&+	c #559146",
"*+	c #007393",
"=+	c #00678A",
"-+	c #006687",
";+	c #005B76",
">+	c #006797",
",+	c #006491",
"'+	c #A0B200",
"  . + @ # $ % & * = -   % ; > , ' ) ! ! ~ { ] ^ ^ / ( _ / : _ ] ",
"< [ } } @ . [ [ | [ 1 % 2 > , > . 3 4 5 ~ { ^ 6 ^ ] ( ] ] _ ( _ ",
"7 8 & 9 . 0 a b * | c d - @ > @   % e , f g ^ ^ / ] ( / ] _ _ ( ",
"h i j & k l m b n l n k o 9 @ k p   2 $ q r 6 ^ ] ( ] / / ] s t ",
"u v w b x y z m A B A C 0 = 1 p D E F - p r ^ ^ ] ( ] ] ] G H t ",
"I J K L y M N O l a | n * | | E P Q E F R r ^ / _ ] / ] ] G H S ",
"J J T U 8 i h V a W B A l W D X Y Z 7 p ` g  ._ / ^ ^ / ..H ( S ",
"+.J J K w @.#.V a $.a l B $.V Q %.u Q &.*./ (  .=.^ ^ ..s ( S ] ",
"-.J J %.;.K Z >.W X W B W O w ;.-.-.#.D *.,.] ] =.=./ ..s './ / ",
"%.%.%.%.v u T w $.V X $.$.).!.v -.-.Y D &.~./ ] / / {.G G s / / ",
"%.J +.+.Z J %.].X ^.^.X O w /.T (.(._.:.` <...] ..[.G ......G =.",
"+.+.+.J %.(.(.U 7 ).).O V }.v I -.-.Z |.*.<.G ..{.....{.[.1...^ ",
"Z Y 2.3.Z %.I ;.).N @.^.>.4.v J -.I v |.*.5.G {.] s {.[.[.<.{.6.",
"K h 4.h Y 3.J v @.4.4.).N #.v %.I I v :.&.7...'. . .'.[.1.1...] ",
"U L M 7 4.v 2.2.4.4.4.N ].v Z 2.T T 4.D 8.9. .,.g g 0.s [.[...] ",
"a.m a b.V ].K /.].4.;.}.].;.h ;.!.].^.p . _. . .5.^ ^ =.=.{.] c.",
"d.A B o l O U U w !.!.!.}.).^.^.O $.E e.2 f...G =.^ ^ =.=.] _ ] ",
"g.h.g.4 # n $.z i.i.).O O m j j.c C F $ ) k.{.{./ =.=._ _ _ / / ",
"l.l.m.n.o.g.d.l a a B c p.* A q.h.r.- m.s.f.: [._ _ _ _ _ S / =.",
"t.n.u.v.w.l.4 x.d - $ $ C 9 y.y.o.m.m.m.s.z.] [.c._ c.c.c. .=.=.",
"u.A.B.u.v.v.v.C.C.C.D.C., r.w.m.u.D.E.n.m.z.=.c.c._ _ _ c.] =.=.",
"F.G.H.A.A.F.F.I.I.H.A.H.A.C.B.A.J.J.H.C.n.:./ _ c._ ] ] _ _ =.=.",
"H.K.G.H.G.H.A.I.I.L.A.A.A.A.J.J.I.I.I.H.! h.{ ] c._ _ ] / _ / / ",
"C.H.H.G.I.H.u.G.A.m.4 v.H.G.J.J.I.I.I.K.E.; q : _ _ ] / =./ ] ] ",
"m.B.H.J.H.n.r.u.e | n M.H.H.F.F.L.I.I.J.K.H.N.O.P._ ] =.^ =._ ] ",
"0 % l.v.l.@ 3 o B i.B l.n.d @ 3 u.Q.H.H.H.D.N.7.O.P. .=.=.=._ H ",
"m B b.0 9 3 3 B b n [ C 1 b n 3 v.F.u.l.r.% *.R.S.T.: =.=.=.] U.",
"0 # 0 b.@ M.4 V.g.3 d C C @ V.W.l.} 9 @ } X.k.R.S.Y.r ~./ =./ U.",
"j.A A A d.+ k 9 C d.d.Z.c h.h.h.# c Z.`.' `.8 O.z. +.+++{.] ] U.",
"@+#+@+a.j $+X X z i.@+O $.j.j.j.l l &   %+%+&+{.T..+.+{ R.P._ ] ",
"*+A Z.n b.b.q.j =+-+-+;+;+>+,+,+*+* + V.' %+&+z.T.Y.++{ S. +6.G ",
"a.O $.X j j *+=+=+>+>+-+-+>+,+,+=+-+D A 8 8 z.S.T.T.{ { .+'+'+0."};
