/* XPM */
static char * wallwater_middle_border_left_2_xpm[] = {
"32 32 166 2",
"  	c #1D1D1D",
". 	c #373700",
"+ 	c #555500",
"@ 	c #2C2302",
"# 	c #474700",
"$ 	c #408660",
"% 	c #368D83",
"& 	c #006D4F",
"* 	c #005154",
"= 	c #00543D",
"- 	c #004451",
"; 	c #00544D",
"> 	c #00464D",
", 	c #00334E",
"' 	c #004D5A",
") 	c #00594C",
"! 	c #715300",
"~ 	c #4E9451",
"{ 	c #278289",
"] 	c #268B71",
"^ 	c #007554",
"/ 	c #00603F",
"( 	c #005A49",
"_ 	c #00584B",
": 	c #00384F",
"< 	c #155400",
"[ 	c #588C7D",
"} 	c #006C69",
"| 	c #00614D",
"1 	c #003A58",
"2 	c #3A7B00",
"3 	c #25838A",
"4 	c #005E51",
"5 	c #00455C",
"6 	c #005858",
"7 	c #398670",
"8 	c #017861",
"9 	c #006C51",
"0 	c #003F50",
"a 	c #16321C",
"b 	c #004A00",
"c 	c #457D7D",
"d 	c #187D60",
"e 	c #00654E",
"f 	c #004D61",
"g 	c #00595C",
"h 	c #063600",
"i 	c #006E82",
"j 	c #328690",
"k 	c #00675A",
"l 	c #006360",
"m 	c #1C8164",
"n 	c #007456",
"o 	c #00734B",
"p 	c #006A56",
"q 	c #629A72",
"r 	c #007247",
"s 	c #509D8D",
"t 	c #007951",
"u 	c #005064",
"v 	c #005E65",
"w 	c #246E00",
"x 	c #52A282",
"y 	c #004061",
"z 	c #54A484",
"A 	c #249069",
"B 	c #005C69",
"C 	c #719D57",
"D 	c #383800",
"E 	c #79A263",
"F 	c #2E8C5E",
"G 	c #00686B",
"H 	c #004869",
"I 	c #338E61",
"J 	c #353800",
"K 	c #669E79",
"L 	c #00725E",
"M 	c #007174",
"N 	c #00826B",
"O 	c #1B8787",
"P 	c #00777A",
"Q 	c #00925C",
"R 	c #009A61",
"S 	c #008B70",
"T 	c #484800",
"U 	c #007485",
"V 	c #00927E",
"W 	c #02A681",
"X 	c #069574",
"Y 	c #006771",
"Z 	c #00617C",
"` 	c #008192",
" .	c #00A0A3",
"..	c #00A377",
"+.	c #008386",
"@.	c #68A788",
"#.	c #51A8A8",
"$.	c #0595A2",
"%.	c #007F9D",
"&.	c #008AA2",
"*.	c #0098A9",
"=.	c #00999C",
"-.	c #007178",
";.	c #005873",
">.	c #008957",
",.	c #00606A",
"'.	c #008B95",
").	c #009097",
"!.	c #616B00",
"~.	c #795A00",
"{.	c #6DAC9F",
"].	c #4EA6BA",
"^.	c #1799AD",
"/.	c #0095B0",
"(.	c #139DB4",
"_.	c #00A2A2",
":.	c #00727C",
"<.	c #1FACC3",
"[.	c #009CB4",
"}.	c #01A6BA",
"|.	c #0BA8A1",
"1.	c #007D8A",
"2.	c #008A83",
"3.	c #69ABA8",
"4.	c #82BBC1",
"5.	c #18BCB9",
"6.	c #23B3B6",
"7.	c #007B93",
"8.	c #005879",
"9.	c #62BECE",
"0.	c #48B8C9",
"a.	c #0FA9C1",
"b.	c #00AAB4",
"c.	c #00B0AD",
"d.	c #7ECCD9",
"e.	c #70C8D5",
"f.	c #06B5BC",
"g.	c #00879B",
"h.	c #0CA3A6",
"i.	c #ACDDE0",
"j.	c #87D1DB",
"k.	c #3AB8C9",
"l.	c #08ACA9",
"m.	c #3EA7B1",
"n.	c #3BA4A1",
"o.	c #7AB3B9",
"p.	c #B6DDE3",
"q.	c #A6E1DE",
"r.	c #60C3D0",
"s.	c #14B1A7",
"t.	c #3AB5C2",
"u.	c #5DA7B1",
"v.	c #9CBFA8",
"w.	c #5FC4C4",
"x.	c #7CC6CC",
"y.	c #7BBEC4",
"z.	c #309299",
"A.	c #C5E4E4",
"B.	c #A6D1DA",
"C.	c #72C4D4",
"D.	c #47BBBE",
"E.	c #ABD8C6",
"F.	c #A3D4CE",
"G.	c #7FB798",
"H.	c #B9DFDF",
"I.	c #1194AB",
"  . + + + + @ @ . # + # . . $ % & * = - ; = > , * * > ; ' ) ; , ",
". . + + ! ! . @ . # + # # . ~ { & ) * ; ; * > > - - > > - ; - , ",
". @ # ! ! ! . @ . . # # + . ~ ] ^ / ( ) * _ - - > > > : - - > : ",
". @ . ! ! + # . @ . + + + < [ { } / ( | ' _ ; _ : ; ; : , : - 1 ",
"+ . @ + + + + # @ . + 2 2 < [ 3 ^ 4 4 4 5 1 6 ; > = = > , > ' ' ",
"+ # @ . + + + # . @ 2 2 2 < 7 % 8 9 | 4 6 1 _ * ) ) ) * 0 ' ' 4 ",
"# # a @ . # # + # # 2 2 < b c [ d e ) 4 f g * ( ( = ; * * 1 g e ",
"# < a   . . + ! ! + 2 < @ h i j d k e & l 4 6 * / > > ( ( g 5 / ",
"< h . . @ . + ! ! ! # @ @ a i j m n o & l p ( 6 * > 0 ) 4 | k g ",
"h . . .   @ . + ! ! ! # @   c q ] n n 9 r r p 5 : , - ) 4 k & k ",
"! + # < h   @ . ! ! ! + # @ 7 s ] n t o o r p 5 * , 0 ' 5 u v u ",
"! ! w h .     @ . ! ! + # . [ x ] t t r p o l 5 * 0 0 ' g 4 y y ",
". b h + + #     @ . + # . . [ z A t o k B v 5 5 ' - * 5 y 5 y y ",
"a h . + + #       @ . . . . C z A ^ } k B u y u f g ' 4 f l u v ",
"    @ . . .         @ . . D E x F ^ G B v H f u u v k k v v v v ",
"      @ . @       @   @ . . C x I n } B B u v u k & 9 B p l v B ",
"  w w . . . . . @ @ @     J K z % n L B B B B u k v u p 9 l H } ",
"w 2 @ . . # # . @ # # D @ + q z ] M 8 N } G B u v v l L p v H M ",
"w <   @ . # # @ # # # b < ! E s O P Q R S G B B } B l L v v G M ",
"< w <     . @   # # w w a T K s O U V W X } B B Y Y p 9 v B M Z ",
"b < w 2         # 2 2 b h + x s X ` `  ...M B } n L L L L G +.+.",
"+ 2 2 w < @   @ . 2 < h ! ! @.#.$.%.&.*.=.-.;.M M >.N ,.L P '.).",
"+ . 2 2 2 @   @ . <   !.~.~.{.].^.&./.(._.i M -.:.Q ,.,.,.N '.&.",
"+ . @ < 2     @ @   . ~.~.! {.<.(./.[.}.|.1.i i i S G ,.;.2. .*.",
". . . @ <   @ @   . # + !.+ 3.4.<.[.}.5.6.).1.1.7.1.8.v ;.7.*.[.",
". # # @     @ @   . + ! + + 3.9.0.a.b.5.6.&.'.'.).'.-.;.i %.c.b.",
"+ + + < w w <   . # ! ! + D 3.d.e.<.b.a.f.|.g.&.h.=.i 8.V  .b.f.",
"~.+ < w w b   @ . . # # . @ 3.i.j.k.a.f.}.l.*.*.m.n.1.S ..c.b.f.",
"~.! # b h   @ @ @ . . . @ @ o.p.q.r.k.a.f.s.|.m.t.u.X X W *.[.b.",
"~.~.+ .       @ @ @ @   @ # v.p.p.d.r.<.6.6.w.x.4.y.z.X =.*.b.a.",
"!.~.+ # @ + .           # # v.q.A.B.C.k.b.D.E.F.].4.u.` $.6.b.0.",
"+ !.+ # . ! #         @ + # G.j.H.B.d.9.(.w.F.y.I.].4.$.I.w.t.x."};
