/* XPM */
static char * wallwater_middle_middle_3_xpm[] = {
"32 32 135 2",
"  	c #7EC8CB",
". 	c #A2CCCC",
"+ 	c #20AAC0",
"@ 	c #00AFBB",
"# 	c #00A5BA",
"$ 	c #00B2B6",
"% 	c #00AFB3",
"& 	c #90C5C5",
"* 	c #D3D3D3",
"= 	c #619C8D",
"- 	c #97AEAF",
"; 	c #A3C7C7",
"> 	c #54A7AD",
", 	c #00849B",
"' 	c #5BAEBA",
") 	c #9BC6D0",
"! 	c #65C1CA",
"~ 	c #B8CFD0",
"{ 	c #6AC3C3",
"] 	c #00A7AB",
"^ 	c #00A0A4",
"/ 	c #008E9D",
"( 	c #007692",
"_ 	c #007E8D",
": 	c #059EB1",
"< 	c #009EBA",
"[ 	c #B4D2D1",
"} 	c #94DBCA",
"| 	c #3BC3BC",
"1 	c #3FC1B4",
"2 	c #BFD7CE",
"3 	c #6EB9C1",
"4 	c #86A4A1",
"5 	c #008CA3",
"6 	c #5DBCBC",
"7 	c #50B4C1",
"8 	c #33B0A9",
"9 	c #0B9AA5",
"0 	c #86D3C6",
"a 	c #2FB3BD",
"b 	c #28BBC2",
"c 	c #A6CAC4",
"d 	c #B9D1CE",
"e 	c #6CA6AD",
"f 	c #41A6A3",
"g 	c #7AB1B5",
"h 	c #29A6B7",
"i 	c #9BC4CA",
"j 	c #B6CECD",
"k 	c #73C0B8",
"l 	c #2AA1B2",
"m 	c #007D94",
"n 	c #50AFB5",
"o 	c #2491A1",
"p 	c #008DA1",
"q 	c #0096A9",
"r 	c #0095A9",
"s 	c #009CB5",
"t 	c #008994",
"u 	c #0EBAB6",
"v 	c #76BDBB",
"w 	c #008AA8",
"x 	c #00738A",
"y 	c #85BAB4",
"z 	c #039D9D",
"A 	c #2AA9AC",
"B 	c #00829A",
"C 	c #006B7E",
"D 	c #006181",
"E 	c #005A6C",
"F 	c #006164",
"G 	c #1A857F",
"H 	c #159790",
"I 	c #008C88",
"J 	c #006989",
"K 	c #00516B",
"L 	c #00657C",
"M 	c #003D5B",
"N 	c #005053",
"O 	c #006A7C",
"P 	c #00766C",
"Q 	c #008484",
"R 	c #006883",
"S 	c #004A5B",
"T 	c #003F4B",
"U 	c #00344B",
"V 	c #006666",
"W 	c #00797C",
"X 	c #006D51",
"Y 	c #008177",
"Z 	c #007B61",
"` 	c #006D74",
" .	c #005D73",
"..	c #006573",
"+.	c #005451",
"@.	c #002D47",
"#.	c #006550",
"$.	c #007357",
"%.	c #00656C",
"&.	c #005D57",
"*.	c #005462",
"=.	c #008071",
"-.	c #004152",
";.	c #005346",
">.	c #005B47",
",.	c #145547",
"'.	c #017E7B",
").	c #00583B",
"!.	c #005148",
"~.	c #005A46",
"{.	c #00886E",
"].	c #00474D",
"^.	c #014E49",
"/.	c #006E65",
"(.	c #003A60",
"_.	c #004F61",
":.	c #00555C",
"<.	c #006448",
"[.	c #003758",
"}.	c #00454C",
"|.	c #003152",
"1.	c #003050",
"2.	c #006041",
"3.	c #00613E",
"4.	c #00545B",
"5.	c #006052",
"6.	c #006945",
"7.	c #006B4D",
"8.	c #006E37",
"9.	c #00714B",
"0.	c #00635F",
"a.	c #006A56",
"b.	c #09744C",
"c.	c #027F51",
"d.	c #007754",
"  . + @ # $ % & * = - ; > , '   ) ! ~ { ] ^ / ( _ / : % <   [ } ",
")   ~ | < @ 1 2 3 4 - ' > 5 6 7 ~ ) * ~ 6 8 9 ( ( 9 { + { * 0   ",
"+ 7 * ~ a b c d 3 - e f g > h : 3 . i j c k l m , n ~ ! . j b b ",
"5 : ) ~ & c . { h - o p ' ' q r ] 3 n 6 d & ' / o & . j . a s # ",
"t p u   c c ; q o e , , n ' ^ q r l p r 3 ! v q > 1 1   { ] w w ",
"x t % a y 6 ' , p z m , A > z r / q B p l 6 6 h n h $ 1 u / ( B ",
"C D r A = > f t B , _ B ] q t / m p B ( , l h n n A ] $ ] ( C _ ",
"E F t / G z H I B m m t ] z x B x B ( J m 5 > n n r ^ w B C K L ",
"M N O I P I Q I t t ( m ] H C _ R R R D R , o e A z , ( ( E S K ",
"T U V W X Y Z Y ( t x I q m ` D  . ... .R R m f ^ / t _ R S T +.",
"@.U N V #.` $.%._ ( R G 5 I  . .V &.*.E D R R , z t G =.O -.U ;.",
"@.;.>.S >.X F V D _ C Q z Q V V &.,.*.*. .D D m , I '.` %.-.T ,.",
"@.@.;.).!.&.~.F =.{.P R , O &.S ].T -.&...O  .R m D ..E *.].].,.",
"U @.U ^.!.!.N >.` {./.O ( /.+.].T U -.&.E ..*.R R ..V *.S T ^.,.",
"U U @.T T ).N +.$.=.X ` Q K -.].@.@.T +.*.E (.D R E S _.+.].;.;.",
"].].U U !.!.].;.:.$.<.$.'.&.T ].U @.T ]._.*.S  .D K N [.^.T ^.;.",
"^.].].].;.U U ].].V &.X P ~.}.}.@.+.+.].S _.+. .L S -.|.1.T +.^.",
"].^.].^.!.].T U T N +.&.V !.}.}.+.+.}.].-.&.+.K ..S ^.-.T ^.^.+.",
"].;.;.;.!.-.].U U ].].-.&.!.}.}.N N U U N S -.*...S ].-.!.,.,.].",
"].].;.,.+.+.-.}.T T }.;.~.].T T N ~.N U 1.N T M E +.+.+.}.-.^.-.",
"}.U N +.~.-.-.|.U @.1.+.!.U ].!.N N ~.~.T }.U [.F ~.~.].}.+.-.-.",
"-.U ].].-.N -.}.@.1.].].T ;.).,.).2.3.4.!.}.U -.:.~.!.].~.>.+.+.",
"N |.-.|.-.-.-.1.U ].}.].;.>.>.~.4.M <.~.~.}.U -.S !.T +.>.&.+.N ",
"4.~.&.-.M M |.1.U ].-.].;.>.>.>.~.M N ).~.U U |.N U ].>.3.#.+.N ",
"2.5.5.<.4.4.[.|.].].N N -.N ~.&.M M 4.N N U -.].|.-.+.+.<.&.S N ",
"5.<.6.4.4.:.[.N 4.5.).<.2.}.~.~.:.F _.N U U U U U U ^.>.&.&.M [.",
":.4.M [.(.M (.5.6.).6.<.2.N 4.~.<.F 6.:.~.N N U T ].,.>.F :.[.[.",
"7.M M M (._.X #.8.2.6.6.N N 4.#.9.V 0.7.~.N 1.|.].].+.+.:.(.M S ",
"7.M (.:.0.V 9.a.6.6.7.4.-.N ~.a.9.9.F 5.N |.-.-.-.-.-.M :.(.(.:.",
"F :.(.0.V a.X <.5.6.5.N -.N :.7.9.b.a._.[.|.|.-.-.-.-.[.(.F F F ",
"0.7.(.V Z c.V 0._.7.S M M 5.a.7.$.d.%.F S &.S -.-.-.-.M F K 7.%.",
"7.7.(.X c.c.F *.*.F M :.:.7.0.F /.$./.7.:.a._.[.[.[.M :.a.V V X "};
