/* XPM */
static char * wallwater_top_border_left_2_xpm[] = {
"32 32 207 2",
"  	c #507B00",
". 	c #5D9500",
"+ 	c #54A900",
"@ 	c #497400",
"# 	c #355C1D",
"$ 	c #538B00",
"% 	c #49690D",
"& 	c #416700",
"* 	c #157C7C",
"= 	c #0082AB",
"- 	c #126A83",
"; 	c #1C6973",
"> 	c #005778",
", 	c #006485",
"' 	c #00678B",
") 	c #006793",
"! 	c #00638C",
"~ 	c #006B99",
"{ 	c #334E00",
"] 	c #729300",
"^ 	c #518100",
"/ 	c #578500",
"( 	c #527300",
"_ 	c #2B7700",
": 	c #536C05",
"< 	c #344300",
"[ 	c #15170C",
"} 	c #008FB5",
"| 	c #2A7C93",
"1 	c #067084",
"2 	c #006283",
"3 	c #006E94",
"4 	c #006B8F",
"5 	c #006490",
"6 	c #0069A1",
"7 	c #567C00",
"8 	c #406B00",
"9 	c #405E00",
"0 	c #1D5304",
"a 	c #133800",
"b 	c #388289",
"c 	c #2B90A4",
"d 	c #00688C",
"e 	c #00769A",
"f 	c #00719A",
"g 	c #364E0F",
"h 	c #365314",
"i 	c #3B8500",
"j 	c #245400",
"k 	c #1299B5",
"l 	c #1F939D",
"m 	c #3F8998",
"n 	c #128395",
"o 	c #007596",
"p 	c #007BA1",
"q 	c #007197",
"r 	c #2F3520",
"s 	c #2F4A00",
"t 	c #3D4E1F",
"u 	c #1F5B00",
"v 	c #126646",
"w 	c #0084AA",
"x 	c #358FA6",
"y 	c #1688A1",
"z 	c #007EA2",
"A 	c #223222",
"B 	c #2B3C27",
"C 	c #369800",
"D 	c #2C3C12",
"E 	c #1B5867",
"F 	c #4199AD",
"G 	c #3EA0B2",
"H 	c #0092BB",
"I 	c #0FA5BF",
"J 	c #173B01",
"K 	c #339500",
"L 	c #3A6203",
"M 	c #1F3234",
"N 	c #4EA1B2",
"O 	c #5AB2C1",
"P 	c #2AABC2",
"Q 	c #009EC4",
"R 	c #00849B",
"S 	c #066B7A",
"T 	c #114A00",
"U 	c #383A13",
"V 	c #385B07",
"W 	c #366E00",
"X 	c #37370D",
"Y 	c #57A4AE",
"Z 	c #59C4C7",
"` 	c #32A1B8",
" .	c #007D99",
"..	c #00738A",
"+.	c #0C8270",
"@.	c #05887B",
"#.	c #22ABBA",
"$.	c #2C5700",
"%.	c #4E5D00",
"&.	c #566A00",
"*.	c #282C1C",
"=.	c #215300",
"-.	c #75BC97",
";.	c #7CC6CD",
">.	c #23A9B6",
",.	c #23A4AC",
"'.	c #12908D",
").	c #0E788C",
"!.	c #0F838D",
"~.	c #097B85",
"{.	c #159657",
"].	c #20A38A",
"^.	c #38B1B9",
"/.	c #2A2A25",
"(.	c #555500",
"_.	c #355A00",
":.	c #72B49C",
"<.	c #85CFD4",
"[.	c #6EC0CA",
"}.	c #10829B",
"|.	c #0A7A93",
"1.	c #1D9673",
"2.	c #1E9DB6",
"3.	c #47470B",
"4.	c #276C00",
"5.	c #22241C",
"6.	c #202020",
"7.	c #AED8D1",
"8.	c #3CC5B8",
"9.	c #4EC2BA",
"0.	c #1F93A2",
"a.	c #1C9595",
"b.	c #1A8B9D",
"c.	c #302B10",
"d.	c #2C250C",
"e.	c #1D1D1D",
"f.	c #212121",
"g.	c #70A2AC",
"h.	c #BCE6E1",
"i.	c #A2E1DC",
"j.	c #4AC0C3",
"k.	c #219AAC",
"l.	c #2FA8AD",
"m.	c #91B6B4",
"n.	c #CCE6E2",
"o.	c #79C9D0",
"p.	c #96D1D8",
"q.	c #8AC2C4",
"r.	c #8BC6CD",
"s.	c #87BAC1",
"t.	c #B0E2E0",
"u.	c #B7DADC",
"v.	c #6BB7BC",
"w.	c #62A7B6",
"x.	c #73B3B5",
"y.	c #7FBFCB",
"z.	c #67AABB",
"A.	c #79BBC5",
"B.	c #715A00",
"C.	c #94C4D3",
"D.	c #57AFBB",
"E.	c #99CCCE",
"F.	c #509DA9",
"G.	c #76B6C2",
"H.	c #5E969D",
"I.	c #4E8190",
"J.	c #087891",
"K.	c #2E98AC",
"L.	c #26707A",
"M.	c #59797B",
"N.	c #07545E",
"O.	c #1A6B6B",
"P.	c #025E6B",
"Q.	c #036D7F",
"R.	c #796200",
"S.	c #003C4B",
"T.	c #00414B",
"U.	c #005968",
"V.	c #0D7176",
"W.	c #06738C",
"X.	c #598869",
"Y.	c #51818B",
"Z.	c #03585A",
"`.	c #718D60",
" +	c #57867F",
".+	c #004A4A",
"++	c #00504E",
"@+	c #004652",
"#+	c #006F81",
"$+	c #026473",
"%+	c #005862",
"&+	c #156464",
"*+	c #00484D",
"=+	c #004A56",
"-+	c #005454",
";+	c #005445",
">+	c #004F63",
",+	c #004751",
"'+	c #73946A",
")+	c #4F8B7F",
"!+	c #1A695F",
"~+	c #528467",
"{+	c #0B6A72",
"]+	c #04636D",
"^+	c #00505A",
"/+	c #4A7B00",
"(+	c #0C6059",
"  . + @ #   $   % %   & * = - - ; > > , ' ' ' , ) ! ! ) ! ) ~ ~ ",
"{ ] $ ^ & @ / ( # _ : < [ } - | 1 2 2 3 3 4 3 ' ) 5 ! ! ' ' ~ 6 ",
"{ 7 ^   @ 8 @ % 9 9 0 _ a } b c 1 d d e f ~ 3 3 ) ) ! ) ' ' ) 3 ",
"< g ( : ( @ h 8 9 0 _ i j k l m n o p = p f ~ ~ ~ ) ! ) 4 4 q e ",
"r r s % : ( # 9 8 t u _ v w x x y z w } w f f 3 q 3 5 5 4 3 z e ",
"r A B % % C u & 8 & t g D E F G k } H I } e f f e 3 ! > 3 e } } ",
"J A r h C K 0 $ i L h { B M N O P Q Q Q } R e R z e ! S 4 R H H ",
"T U g V + K V ^ W W L { X r Y Z P ` Q ` k R o  .R R ..+.@.R k #.",
"$.< %.@ K h V 7 &.i 8 U *.=.-.;.Z #.>.k ,. .'.).!.~.* {.{.].,.^.",
"$./.(.7 ( _.h 8 %.i W *./.W :.<.[.P >.>.k }.|.|.n |.* +.1.].2.#.",
"T /.r _.& h s { 3.4.$.5.6.W Y 7.<.8.9.#.2.0.a.b.x a.- 1.1.,.>.#.",
"T 6.c.0 { r A X d.J $.a e.f.g.h.i.Z Z j.2.k.c k.Y x !.1.].l.#.#.",
"a e.J T r /.X *.5.e.T =.e.d.m.n.h.o.Z Z #.,.,.N m.Y ).1.].k ^.^.",
"A e.=.J e./.5.*.d.e.e.T =.d.m.n.n.p.o.j.^.G q.r.q.s.m !.y k.#.8.",
"e.e.W A e.d.d.e.e.e.e.e.a T -.t.n.u.<.[.` v.7.7.w.q.x.n 0.N ` ;.",
"e.=.j e.e.X X e.e.d.d.d.e.e.:.p.u.u.p.;.G q.7.y.x z.q.c G A.Z ;.",
"e.W *.e.d.(.B.3.e.e.d.d.e.6.:.<.y.C.<.o.D.y.v.F l x s.G z.E.r.y.",
"e.W e.e.X B.B.(.X e.e.e.e.8 F.y.x.m.o.y.G.O 0.b.l b.N w.G.y.r.9.",
"e.e.e.d.X B.B.3.X X e.e.W j H.s.g.g.G.s.A.N n a.0.y c v.O z.v.G ",
"T e.6.d.X 3.(.X X B.B.d.e.6.I.m.H.H.N O s.N - J.0.a.y w.D.K.G l ",
"j T d.d.d.e.X X (.B.B.(.X d.- g.I.L.I.F.w.c * 1 0.n y G K.l b.J.",
"a =.d.d.e.e.e.X 3.(.(.(.B.(.M.H.L.N.O.b H.b P.Q.}.J.R c 0.}.).~.",
"d.X X X e.e.e.d.3.3.X R.B.B.M.I.E S.T.; b * U.V.n W.n y }.!.~.V.",
"(.(.3.X e.d.d.d.d.X 3.R.R.(.X.Y.E S.S.N.V.O.Z.V.o 1 J.}.R !.Q.U.",
"B.B.3.e.e.X X X e.d.3.(.(.R.`. +N..+.+++U.N.@+O.).1 W.|.|.#+$+%+",
"3.(.3.e.e.X 3.3.X e.X 3.(.B.`. +&+*+.+*+=+=+T.U.1 Q.#+W.d S %+-+",
"(.(.X e.e.d.3.(.(.X d.X X (.`.X.v *+;+;+@+.+S.U.- V.S 1 1 $+>+,+",
"B.X d.e.e.e.(.B.B.(.d.d.3.B.'+)+!+;+;+.+@+S.S.N.V.V.$+S 1 P.>+S.",
"(.3.X X e.e.(.B.B.(.d.e.X j ~+)+!+;+*+*+;+@+T.Z.{+]+$+S S &+^+,+",
"3.X X X e.e.X B.B.(.d./+/+/+~+b &+*+*+++;+*+T.@+O.&+U.$+P.%+^+T.",
"6.X 3.3.X e.d.(.(.X X d.W /+X.)+!+*+*+@+;+-+.+*+U.(+v U.U.^+,+,+",
"6.3.(.(.3.d.d.3.X X 3.3.d.T ~+1.!+@+++,+-+,+.+.+Z.(+-+N.%+Z.,+,+"};
