/* XPM */
static char * wallwater_bottom_border_left_2_xpm[] = {
"32 32 200 2",
"  	c #545100",
". 	c #626B00",
"+ 	c #373708",
"@ 	c #715700",
"# 	c #474703",
"$ 	c #1D1D1D",
"% 	c #2C2408",
"& 	c #6AABA0",
"* 	c #79C1D2",
"= 	c #88CCCC",
"- 	c #A1D1DF",
"; 	c #94C7CF",
"> 	c #7FC4C9",
", 	c #49ACBA",
"' 	c #77BEBE",
") 	c #3BA6AC",
"! 	c #0B8EA2",
"~ 	c #2795AC",
"{ 	c #47A1AF",
"] 	c #65ADBB",
"^ 	c #8CD3C3",
"/ 	c #795F00",
"( 	c #71C2CD",
"_ 	c #52AFC3",
": 	c #1B8FA3",
"< 	c #128F9A",
"[ 	c #0F869D",
"} 	c #00819B",
"| 	c #6CB7C2",
"1 	c #53BCC4",
"2 	c #828500",
"3 	c #58979C",
"4 	c #64BEC9",
"5 	c #6CB3A5",
"6 	c #79BEC6",
"7 	c #319FB3",
"8 	c #008397",
"9 	c #0F98AC",
"0 	c #71C4C4",
"a 	c #23280A",
"b 	c #528A8D",
"c 	c #8EB8B5",
"d 	c #4AA3A3",
"e 	c #5CA398",
"f 	c #5BAEB1",
"g 	c #64B7BD",
"h 	c #007687",
"i 	c #007693",
"j 	c #38ACBA",
"k 	c #312516",
"l 	c #508580",
"m 	c #437D8D",
"n 	c #13707B",
"o 	c #4A9491",
"p 	c #4A9EA9",
"q 	c #006D84",
"r 	c #0F8097",
"s 	c #4F7976",
"t 	c #03595C",
"u 	c #016D75",
"v 	c #308189",
"w 	c #398F8F",
"x 	c #00646C",
"y 	c #00737B",
"z 	c #0088A5",
"A 	c #00738D",
"B 	c #7C9300",
"C 	c #60846B",
"D 	c #136C6C",
"E 	c #00504D",
"F 	c #005353",
"G 	c #126E74",
"H 	c #1B898C",
"I 	c #006358",
"J 	c #007E98",
"K 	c #006F8C",
"L 	c #007390",
"M 	c #00677B",
"N 	c #096265",
"O 	c #00494C",
"P 	c #003A4B",
"Q 	c #047B95",
"R 	c #6F8C5D",
"S 	c #004A4A",
"T 	c #004253",
"U 	c #005462",
"V 	c #006273",
"W 	c #006983",
"X 	c #6F9462",
"Y 	c #00404B",
"Z 	c #004C5A",
"` 	c #004259",
" .	c #005B6C",
"..	c #00627C",
"+.	c #00556C",
"@.	c #464617",
"#.	c #005440",
"$.	c #036A83",
"%.	c #006074",
"&.	c #3F5B00",
"*.	c #76AB7E",
"=.	c #005844",
"-.	c #004665",
";.	c #376A00",
">.	c #00565C",
",.	c #116767",
"'.	c #447B00",
").	c #378800",
"!.	c #005866",
"~.	c #42A5B3",
"{.	c #005569",
"].	c #005B72",
"^.	c #485600",
"/.	c #007595",
"(.	c #003F64",
"_.	c #006B8E",
":.	c #37392D",
"<.	c #424C31",
"[.	c #97E4E1",
"}.	c #007191",
"|.	c #004B70",
"1.	c #005173",
"2.	c #007C9C",
"3.	c #4F5505",
"4.	c #78CED4",
"5.	c #DEF6F6",
"6.	c #77D1DF",
"7.	c #45B4C2",
"8.	c #28A8C5",
"9.	c #006287",
"0.	c #487816",
"a.	c #69CCD4",
"b.	c #C1EAED",
"c.	c #9ADCE1",
"d.	c #6FCFDA",
"e.	c #99E1E9",
"f.	c #4FBEC9",
"g.	c #34A8B6",
"h.	c #2591A5",
"i.	c #0196B6",
"j.	c #1B1D05",
"k.	c #87D1D7",
"l.	c #7DDAE2",
"m.	c #98E8EB",
"n.	c #B5E2EA",
"o.	c #60C9DA",
"p.	c #3AB1C8",
"q.	c #3D4005",
"r.	c #749B96",
"s.	c #8BDEE4",
"t.	c #A3EDF0",
"u.	c #BCECF1",
"v.	c #CAECF1",
"w.	c #ABE9EC",
"x.	c #224600",
"y.	c #2E2C25",
"z.	c #EBF8FA",
"A.	c #CAF1F4",
"B.	c #B4EFF2",
"C.	c #F4FAFA",
"D.	c #E0F6F8",
"E.	c #14180F",
"F.	c #DDF8F8",
"G.	c #303500",
"H.	c #365500",
"I.	c #1E3300",
"J.	c #1F3217",
"K.	c #304900",
"L.	c #507B00",
"M.	c #4BB4BC",
"N.	c #346313",
"O.	c #407804",
"P.	c #508900",
"Q.	c #3F7A52",
"R.	c #21909E",
"S.	c #5CC2CD",
"T.	c #4A5A1C",
"U.	c #639400",
"V.	c #59A400",
"W.	c #5F6A08",
"X.	c #678400",
"Y.	c #5BAC00",
"Z.	c #486028",
"`.	c #4F5436",
" +	c #4E7600",
".+	c #2C686D",
"++	c #11A0BA",
"@+	c #31ABBF",
"#+	c #5A9100",
"$+	c #00587A",
"%+	c #004C80",
"&+	c #0077A5",
"*+	c #434738",
"=+	c #5E9800",
"-+	c #736A00",
";+	c #27879E",
">+	c #00557A",
",+	c #005F99",
"'+	c #005D79",
")+	c #006097",
"    .   + @ @ # $ $ $ %     & * = - ; > , > ' ) ! ~ ' { ] ; = ^ ",
"+ @ / @ + @ @   + $ $ $ +   & ( ] ' ; ( _ ] : < [ } { ] | > ^ 1 ",
"@ @ 2 / + @ @ # + + + % % % 3 4 5 5 4 4 6 7 8 8 ! < 9 ] 0 , 0 ) ",
"@ @ 2 / + #   + + / @   % a b c d e f g > ) h i ! < [ j j ~ 7 ! ",
"    @   % $ + + . 2 2     k l { m n o p g d q q [ r [ 7 ~ ! [ i ",
"  2 2   $ $ $ +   @ @ @ /   s 3 s t u v ~ w x y } i } : z 8 A h ",
"B 2 2   $ $ $ %     # 2 2 / C m D E F G H y I u J K J z [ L q M ",
"2 2 . # $ % % % % +   2 2 @ C b N O P t G D I u i q i } Q K M x ",
"2 2 # $ $ + + + $ %   / / 2 R b t S S T U t F V L W A i i W V U ",
"  . # $ $ + # # + $ +   / 2 X l N O S Y Z ` P  .h y W A h ..+.Z ",
"@   + $ $ % #     + % + @./ R l N O #.#.F P P U $.M ..q q %.U Y ",
"/ + % $ $ $   @ @   % k &.2 *.o D =.#.O F P P t M u V M y  .-.T ",
"  # + + $ $   @ @   % $ + ;.e e G I O O =.O P >.u x x ..M ,.>.` ",
"# + + + $ $ + @ @   % '.'.).& d n !.U >.=.O P ` D  .N V %.!.!.-.",
"$ + # # + $ %     + + % ;.).5 ~.H ..y u I =.T T !.N ,.M %.{.].%.",
"$ #     # % % # + + # # % ^.' g : /.q v y {.(.>.+.x  .....%.W _.",
"$ +         % % + #   # :.<.= [.1 9 }.~ 8 y ].+...].|.1.M q J 2.",
"% %     @ @ % % % #   # 3.s 4.5.6.7.8.( j 9 A ..W 9.M K L 8 z z ",
"% % #       % % % % # # 0.5 a.b.c.d.6.e.d.f.g.! 2.J A h.: z i.i.",
"% j.%       + % j.%   3.C k.l.m.e.e.e.n.l.d.o.( _ | 6 ; 7.g.p.8.",
"  % j.        + j.%   q.r.s.t.m.t.u.v.t.w.e.e.w.n.u.u.v.c.* d.l.",
"# + j.% # # @.+ % j.x.y.c m.t.t.u.5.z.v.A.A.B.z.C.D.A.D.v.u.n.v.",
"+ + j.j.% + + @.+ x.E.:.= l.e.u.A.D.z.5.D.F.5.z.C.C.B.5.5.A.5.C.",
"+ x.j.$ % G.@.&.&.H.k n j 1 d.e.n.v.5.D.z.C.t.A.D.t.a.c.v.D.z.C.",
"I.J.% % a % K.3.L.;.+ H Q ~.M.( k.n.v.F.F.u.a.w.c.p r | B.D.B.B.",
"J.a % % a a # N.O.P.P.Q.< R.: H R.g.S.e.s.7.1 1 : q W 7.m.* 7.7.",
"q.:.+ J.J.@.<.T.0.U.V.W.F $.w $...H [ h.7 1 a.: i : } h.j : } , ",
"q.# x.H.2 V.X.T.U.Y.U.  T Q , : [ 7 7 [ ) a.6.4 _ S.4 g.~ , M.a.",
"G.x.  P.X.Z.`. +Y.Y.U.3..+q v $.q L J } 9 8.j , j ++++9 : j @+7.",
"G.x.T.Z.@.<.W.#+Y.#+O.@.V 9.$+|.+.%+%+9.}./.q y W W _.W q &+&+&+",
"+ 3.Z.*+*+`. +V.=+0.0.-+D $+|.-.|.$.! ! [ ;+z i _.%+%+>+>+,+,+,+",
"T.Z.Z.`.*+Z.X.U.=+O.X.W.;+9.(.(.-.1.'+W /.K W >+_.,+)+9.9.,+,+,+"};
