/* XPM */
static char * wallwater_middle_border_left_3_xpm[] = {
"32 32 158 2",
"  	c #1D1D1D",
". 	c #373700",
"+ 	c #555500",
"@ 	c #2C2302",
"# 	c #474700",
"$ 	c #91C2A0",
"% 	c #B4E8E2",
"& 	c #C0E6E0",
"* 	c #8EDBD8",
"= 	c #84D8D2",
"- 	c #55C2CF",
"; 	c #0CA7BB",
"> 	c #13B1B4",
", 	c #50B2BC",
"' 	c #6EBFC5",
") 	c #77BAC0",
"! 	c #308892",
"~ 	c #006D84",
"{ 	c #0094A1",
"] 	c #22A7B1",
"^ 	c #34ACC0",
"/ 	c #715300",
"( 	c #383800",
"_ 	c #91CA8B",
": 	c #9FE1E1",
"< 	c #AFE3D7",
"[ 	c #99DFD5",
"} 	c #80D1D4",
"| 	c #15B0BD",
"1 	c #3AB4BB",
"2 	c #A0D4D4",
"3 	c #8ED0CD",
"4 	c #4FABB8",
"5 	c #89C4C1",
"6 	c #5DABB1",
"7 	c #00828F",
"8 	c #31A9B6",
"9 	c #76C383",
"0 	c #48B1C2",
"a 	c #59C9C9",
"b 	c #1496AA",
"c 	c #61B5BF",
"d 	c #008AA1",
"e 	c #53B6C3",
"f 	c #155400",
"g 	c #58B68C",
"h 	c #7CC9CC",
"i 	c #22A7AE",
"j 	c #00839E",
"k 	c #36ADB0",
"l 	c #66BECB",
"m 	c #3A7B00",
"n 	c #4CA0AA",
"o 	c #4FAAAD",
"p 	c #0EA1AB",
"q 	c #00949E",
"r 	c #56B4AA",
"s 	c #004A00",
"t 	c #4EA989",
"u 	c #54B7C4",
"v 	c #258E95",
"w 	c #218D8D",
"x 	c #008B95",
"y 	c #009FA2",
"z 	c #0C8E9F",
"A 	c #27A8A5",
"B 	c #16321C",
"C 	c #459285",
"D 	c #258076",
"E 	c #00704F",
"F 	c #08908D",
"G 	c #369FA9",
"H 	c #42ACB9",
"I 	c #1291A5",
"J 	c #00768A",
"K 	c #05A2A2",
"L 	c #00A19A",
"M 	c #063600",
"N 	c #42887E",
"O 	c #1A7164",
"P 	c #006348",
"Q 	c #007477",
"R 	c #0D8E95",
"S 	c #00677B",
"T 	c #007F86",
"U 	c #00869A",
"V 	c #007A95",
"W 	c #4C8077",
"X 	c #46909A",
"Y 	c #176B5B",
"Z 	c #005E51",
"` 	c #006450",
" .	c #017178",
"..	c #007F8C",
"+.	c #006B6E",
"@.	c #007792",
"#.	c #10A6A3",
"$.	c #406C78",
"%.	c #005343",
"&.	c #005945",
"*.	c #006955",
"=.	c #008877",
"-.	c #00787B",
";.	c #006363",
">.	c #507673",
",.	c #47867D",
"'.	c #005A40",
").	c #007373",
"!.	c #007066",
"~.	c #006172",
"{.	c #007784",
"].	c #005D6A",
"^.	c #246E00",
"/.	c #56836E",
"(.	c #006B57",
"_.	c #004152",
":.	c #004F70",
"<.	c #00778B",
"[.	c #004061",
"}.	c #005646",
"|.	c #00404A",
"1.	c #00555C",
"2.	c #004C59",
"3.	c #00384C",
"4.	c #005562",
"5.	c #00435A",
"6.	c #598A65",
"7.	c #004F42",
"8.	c #00414E",
"9.	c #006D74",
"0.	c #6A8C58",
"a.	c #036C55",
"b.	c #005D6E",
"c.	c #007069",
"d.	c #588C70",
"e.	c #0B6666",
"f.	c #005569",
"g.	c #004D54",
"h.	c #5A926A",
"i.	c #005147",
"j.	c #00434D",
"k.	c #005061",
"l.	c #616B00",
"m.	c #006067",
"n.	c #00544D",
"o.	c #00594F",
"p.	c #003250",
"q.	c #795A00",
"r.	c #003A51",
"s.	c #006843",
"t.	c #00585B",
"u.	c #006273",
"v.	c #457A7D",
"w.	c #2B7C89",
"x.	c #3B888B",
"y.	c #005B62",
"z.	c #41988B",
"A.	c #0C7C7C",
"  . + + + + @ @ . # + # . . $ % & * = - ; > , ' $ ) ! ~ { ] > ^ ",
". . + + / / . @ . # + # # ( _ : & < [ } | 1 2 3 4 5 6 7 { 8 ^ ^ ",
". @ # / / / . @ . . # # + ( 9 = < < [ * 0 a 2 ' b c ' d b e ^ a ",
". @ . / / + # . @ . + + + f g 3 h 3 = = a 3 ' i j i $ k 8 l l l ",
"+ . @ + + + + # @ . + m m f n a o o a h l ' p q j q r , 0 ) h 0 ",
"+ # @ . + + + # . @ m m m s t u v w k e ' 8 x x y z A e e ^ e ] ",
"# # B @ . # # + # # m m f s C 4 D E F G H I J x K L K H 1 p ] I ",
"# f B   . . + / / + m f @ M N n O P Q R G x S T L U d 8 ] y d V ",
"f M . . @ . + / / / # @ @ B W X Y Z `  .v ..+.~ U @.d #.K q x ~ ",
"M . . .   @ . + / / / # @   $.w Y %.&.*.=.-.;.S V J U y d U =.-.",
"/ + # f B   @ . / / / + # @ >.,.Y %.'.Z ).!.Z ~.@.{.@.d x ..-.].",
"/ / ^.M .     @ . / / + # . /.,.Y &.%.%.(.` _.:.J ~ <.@.@.~ ~.[.",
". s M + + #     @ . + # . . /.N Y }.%.|.1.2.3.4.~ S {...<.S 4.5.",
"B M . + + #       @ . . . . 6.N Y %.7.|._.8.3.4.S S -.{.~ 9.4._.",
"    @ . . .         @ . . . 0./.a.%.|.|.|.|.3.1.S ).Q {.~ b.[._.",
"      @ . @       @   @ . . 0.6.Y %.8.|.3.3.|.2.c.b.b.-.).4.2.8.",
"  ^.^.. . . . . @ @ @     ( d.d.e.%.8.|.|.3.|._.].f.4.).~.1._.g.",
"^.m @ . . # # . @ # # . @ + /.h.e.8.i.8.|.j.j._.4.4.Z c.f.5.j._.",
"^.f   @ . # # @ # # # s # / 0.~ e.j.'.'.g.8.|._.1.Z _.;.k._._.j.",
"f ^.f     . @   # # ^.l.@ + 0.d.m.8.i.'.'._.|.8.2.n._.1.2._.8.3.",
"s f ^.m         # m m s @ + d.~ e.8.8.g.'.8.3._.i.i.i.o.o.j.g.8.",
"+ m m ^.f @   @ . m f @ / / ~ d.].p._._.o.g.3.j.j.'.'.j.g._._.n.",
"+ . m m m @   @ . f   l.q.q.0.h.].r._.1.o._.8.8.8.'.j.j.j.g._.o.",
"+ . @ f m     @ @   . q.q.q.d.~ ]._.2.1.1.g.r._.3.i.3.3.r._.5.g.",
". . . @ f   @ @   . # + l.+ h.d.b.g.2.s.` 2._._._.8.3.p.p.r.t.t.",
". # # @     @ @   ( + / + + ~ ~ u.2.2.*.*.2._._.8.|.8.3.p.g.P t.",
"+ + + f ^.^.f   ( # / / + ( v.w.u.1.5.;.(.P _.g._.8.8.p.o.t.t.(.",
"q.+ f ^.^.s   @ ( ( # # ( @ $.x.u.Z 1.k.f.P 2.o.g.%.%.o.s.y.t.(.",
"q./ # s M   @ @ @ ( ( ( @ @ ~ x.u.k.k.[.E *.P 5._.%.&.P s.t.1.(.",
"q.q.+ .       @ @ @ @   @ # h.!  .k.[.4.E a.*.k.5.i.i.P t.t.1.k.",
"l.q.+ # @ + .           # # h.z. .k.[.4.].E *.;.5.p._.1.k.k.k.y.",
"+ l.+ # . / #         @ + # h.z.A.4.f.k.4.*.*.f.[.r.g.5.1.f.;.k."};
