/* XPM */
static char * wallwater_middle_border_right_3_xpm[] = {
"32 32 169 2",
"  	c #94D4D4",
". 	c #56BFC5",
"+ 	c #63CAC4",
"@ 	c #3EB6BC",
"# 	c #1DAFB5",
"$ 	c #47B0B3",
"% 	c #62B7BD",
"& 	c #74C1C9",
"* 	c #92C4C1",
"= 	c #77B8BD",
"- 	c #228691",
"; 	c #047A8B",
"> 	c #1992A3",
", 	c #32B0AD",
"' 	c #29ABB9",
") 	c #5EB7C2",
"! 	c #98D8DB",
"~ 	c #AFD9DE",
"{ 	c #83CAD8",
"] 	c #84C1C4",
"^ 	c #306E00",
"/ 	c #084A00",
"( 	c #545400",
"_ 	c #715700",
": 	c #795F00",
"< 	c #373708",
"[ 	c #2C2409",
"} 	c #85D1C3",
"| 	c #70CEC8",
"1 	c #68C0BB",
"2 	c #2FADB3",
"3 	c #46B9C1",
"4 	c #A5D4D1",
"5 	c #8FC5CD",
"6 	c #64B1B9",
"7 	c #51A6AC",
"8 	c #277D88",
"9 	c #44AEB9",
"0 	c #83C4D2",
"a 	c #BBE1E1",
"b 	c #3F7D00",
"c 	c #457B00",
"d 	c #474704",
"e 	c #95D3C3",
"f 	c #319EA9",
"g 	c #22929D",
"h 	c #38A5AD",
"i 	c #75B9C1",
"j 	c #9ED1D9",
"k 	c #95C8D3",
"l 	c #C8E5E5",
"m 	c #306800",
"n 	c #51ADBB",
"o 	c #10899D",
"p 	c #51AAB2",
"q 	c #A4CABD",
"r 	c #646A03",
"s 	c #08898C",
"t 	c #369D9A",
"u 	c #43B0BE",
"v 	c #1B9FA2",
"w 	c #18999C",
"x 	c #68B7AC",
"y 	c #B8CFBA",
"z 	c #027174",
"A 	c #2FAAA2",
"B 	c #4BAFB7",
"C 	c #048394",
"D 	c #0F9093",
"E 	c #0F9FA2",
"F 	c #ACC6B3",
"G 	c #616905",
"H 	c #026958",
"I 	c #087264",
"J 	c #3C9EA6",
"K 	c #007B89",
"L 	c #2DA5AB",
"M 	c #2EA3A6",
"N 	c #007182",
"O 	c #006F88",
"P 	c #8CBBB1",
"Q 	c #7B7000",
"R 	c #055A4C",
"S 	c #086355",
"T 	c #04796B",
"U 	c #249093",
"V 	c #017D91",
"W 	c #02757D",
"X 	c #05899A",
"Y 	c #005A6B",
"Z 	c #74A981",
"` 	c #828D00",
" .	c #828500",
"..	c #005345",
"+.	c #1F7A7A",
"@.	c #13857F",
"#.	c #006374",
"$.	c #004E54",
"%.	c #004C5A",
"&.	c #808B00",
"*.	c #0B6C64",
"=.	c #006C58",
"-.	c #007081",
";.	c #003B4C",
">.	c #003750",
",.	c #117275",
"'.	c #589B90",
").	c #6E9D83",
"!.	c #1F5400",
"~.	c #0E3600",
"{.	c #005A5D",
"].	c #00595C",
"^.	c #006A7B",
"/.	c #004F68",
"(.	c #003346",
"_.	c #4E8C8C",
":.	c #005A47",
"<.	c #00544E",
"[.	c #006164",
"}.	c #056663",
"|.	c #004452",
"1.	c #006A6D",
"2.	c #034F44",
"3.	c #00464E",
"4.	c #024F5A",
"5.	c #41847C",
"6.	c #5C8B7E",
"7.	c #377500",
"8.	c #388800",
"9.	c #00404B",
"0.	c #017785",
"a.	c #005462",
"b.	c #003947",
"c.	c #36797C",
"d.	c #15560A",
"e.	c #4F9F00",
"f.	c #43817C",
"g.	c #00656B",
"h.	c #007177",
"i.	c #006363",
"j.	c #579275",
"k.	c #636B00",
"l.	c #005149",
"m.	c #669276",
"n.	c #393927",
"o.	c #00454D",
"p.	c #3D4522",
"q.	c #4B531B",
"r.	c #528487",
"s.	c #006251",
"t.	c #003C52",
"u.	c #287583",
"v.	c #6A9379",
"w.	c #1D1D1D",
"x.	c #00465A",
"y.	c #006849",
"z.	c #00565C",
"A.	c #0C7057",
"B.	c #568E8E",
"C.	c #282C31",
"D.	c #005361",
"E.	c #00644E",
"F.	c #3D4721",
"G.	c #004561",
"H.	c #0A6E55",
"I.	c #00516A",
"J.	c #596100",
"K.	c #2D8B85",
"L.	c #40928A",
"  . + @ # $ % & * = - ; > , ' ) ! ~ { { ] ^ ^ / ( _ : ( ( < [ < ",
"  } | 1 2 3 4 5 6 * 7 8 > 9 3 0 ~ ~ a ! 1 b c c d ( ( < [ [ d d ",
"e } | + ' & 4 1 f = = g h i & j k j l a * m c c < < < [ [ < d ( ",
"7 % + 1 n ] 1 h o p * 7 3 k { j ) 5 ~ l q r d c [ < [ [ [ d ( ( ",
"s t u . % n v w w v x % i 5 4 & h 9 | a y r ( [ [ < < < [ d _ _ ",
"z 8 A B % h C D E v h i ) % & B o > u   F G ( < [ < d d < < _ _ ",
"H I D J $ w K D v w L n 9 L p M N O p & P Q _ d [ < < d ( < ( ( ",
"R S T U J V W s E X > $ , v w C Y Y g 6 Z `  ._ < < d ( _ ( d d ",
"..R H +.U @.#.K X V o L M o D N $.%.; p Z &. . .d < d _  ._ < d ",
"R ..R *.@.T =.-.V K o v w - @.z ;.>.,.'.).&. . .!./ d _  ._ < ~.",
"R ..R {.T *.].^.V O V o C ; ^./.(.;.Y _.).&. .!./ ~.< : _ _ d [ ",
"....:.<.[.}.|.#.O O K X V N 1.%.(...*.C ` &.c ^ ~.( d ( _ _ ( [ ",
"..R 2.3.4.$.;.Y O -.K K K #./.|.(.;.S 5.6.7./ ^ 8.^ _ d ( ( ( [ ",
"..2.3.9.$.3.;.Y -.#.^.0.-.#.a.3.(.b.%.c.6.d.!.8.8.e._ ( d d d < ",
"..2.3.9.9.b.9.a.#.#.,.f.W g.%.3.9.(.%.c.f.7.d ( e.e.: ( ( < d d ",
"..2.2.9.9.9.3.%.#.I z W h.i.%.9.9.9.4.c.j.k.< ( ( e.k._ : d < d ",
"l.2.3.9.;.;.9.%.Y Y [.z 1.%.|.|.2.3.4.c.m.n.[ < < k.k._ _ d < / ",
"l.o.l.l.;.o.3.|.a.a.].1.[.%.;.|.2.2.{.c.6.p.[ [ < < ( k.d < !./ ",
"l.9.:.:.$.3.3.|.{.%.<.=.].|.3.o.|.2.S c.6.q.< [ [ < < < ( ^ !.~.",
"3.3.l.:.:.3.9.|.<.%.$.].%.|.o.o.3.2.S r.m.q.< < [ [ < ( c !.~.~.",
"3.o.o.$.s.o.9.3.|.l.<.$.$.o.l.t.9.>.a.u.v.p.< < [ w.< ^ !.~.( ( ",
"$.;.o.$.$.3.9.o.3.:...3.$.$.$.$.|.>.{.c.6.p.< [ w.w.!./ ~.: : _ ",
"|.t.|.].%.$.o.o.o.:.l.o.o.$.l.$.%.t.{.u.r.n.[ w.w.< ~.< _  . .: ",
"t.|.<.].].$.|.t.;.l.;.;.t.$.$.$.<.].H u.6.n.w.w.w.< d [ (  . .: ",
"x.x.%.S y.%.3.|.|.3.9.;.t.t.z.s.s.s.A._.6.p.w.w.< < !./ / p.k.k.",
"x.x.%.}.S ].3.|.3.9.3.>.t.x.s.z.].y.I 8 B.p.w.< ( c !.8.8./ ( ( ",
"].].x.i.[.s.$.$.|.2.|.;.z.z.z.=.z.z./.u.r.C.< ( 8.!.8.8.c / ( d ",
"%.D.D.a.[.E.%.$.|.2.|.%.E.s.z.=.=.z./.u.B.F._ _ e.c 8.8./ ~.( : ",
"G.D.D.D.H.H {.%.$.|.R E.y.z.z.i.=.G.I.8 B.J._ _ 8.8.8.!.[ [ p.: ",
"a.D.D.D.A.H.H {.$.|.<.E.].z.a.D.=.D.I.K.).J.( ( !.c !.[ [ < !.^ ",
"[.D.D.a.H A.H [.x.>.|.].i.a.a.i.i.[.g.L.Z ` ( < / c [ [ < !.^ !.",
"}.D.i.D.a.H }.[.%.t.$.x.].[.[.a.=.g.#.L.Z ` < < d d [ [ d ^ !.d "};
