/* XPM */
static char * sprite_mc_back_walk_1_xpm[] = {
"32 32 365 2",
"  	c #59750A",
". 	c #538200",
"+ 	c #449B00",
"@ 	c #405B24",
"# 	c #4A4D45",
"$ 	c #65A200",
"% 	c #567B01",
"& 	c #464744",
"* 	c #4C5735",
"= 	c #4A533C",
"- 	c #4D6B18",
"; 	c #516E13",
"> 	c #638E00",
", 	c #4B5C30",
"' 	c #51730B",
") 	c #4A6226",
"! 	c #749C00",
"~ 	c #494C42",
"{ 	c #3E7400",
"] 	c #328A00",
"^ 	c #495334",
"/ 	c #474A42",
"( 	c #3C8200",
"_ 	c #5A8500",
": 	c #4B7402",
"< 	c #4E6521",
"[ 	c #438A00",
"} 	c #465935",
"| 	c #2B6219",
"1 	c #369300",
"2 	c #48A200",
"3 	c #4F9200",
"4 	c #306A0C",
"5 	c #569700",
"6 	c #44523B",
"7 	c #48720D",
"8 	c #308200",
"9 	c #578B00",
"0 	c #64521E",
"a 	c #63521E",
"b 	c #5F581D",
"c 	c #624F20",
"d 	c #61432E",
"e 	c #62442E",
"f 	c #42730B",
"g 	c #36631A",
"h 	c #377306",
"i 	c #4D7B00",
"j 	c #5D9E00",
"k 	c #6D6B2C",
"l 	c #946F53",
"m 	c #DFB592",
"n 	c #E0B692",
"o 	c #AC8668",
"p 	c #856F48",
"q 	c #559700",
"r 	c #6A9300",
"s 	c #5E6F18",
"t 	c #CEA685",
"u 	c #E0B693",
"v 	c #DAB18E",
"w 	c #8D7C48",
"x 	c #639B00",
"y 	c #82AD00",
"z 	c #589400",
"A 	c #6B8400",
"B 	c #6A7727",
"C 	c #D4AE93",
"D 	c #DFB591",
"E 	c #877448",
"F 	c #4F8F00",
"G 	c #347B00",
"H 	c #355B24",
"I 	c #7BA500",
"J 	c #5B4A2C",
"K 	c #F9D5C9",
"L 	c #EEC8B4",
"M 	c #877948",
"N 	c #3E8C00",
"O 	c #4C6B0D",
"P 	c #72A300",
"Q 	c #48611C",
"R 	c #86664E",
"S 	c #E7C4AC",
"T 	c #FDECEA",
"U 	c #FAD8CE",
"V 	c #EDCCBA",
"W 	c #F3CEBE",
"X 	c #E4BB9E",
"Y 	c #DEB491",
"Z 	c #E7BEA3",
"` 	c #E1B897",
" .	c #E7BFA4",
"..	c #72900B",
"+.	c #7CA900",
"@.	c #417B00",
"#.	c #4F473A",
"$.	c #C8A180",
"%.	c #E7BEA4",
"&.	c #EDCAB7",
"*.	c #FAD8CD",
"=.	c #FDE9E6",
"-.	c #F8D4C7",
";.	c #FAE1DB",
">.	c #F7DED6",
",.	c #E1B796",
"'.	c #F4CEBF",
").	c #E5BC9F",
"!.	c #F5D1C2",
"~.	c #6F6A1D",
"{.	c #436918",
"].	c #4FA900",
"^.	c #565B1D",
"/.	c #CBA282",
"(.	c #E5BCA0",
"_.	c #DCB28F",
":.	c #D3A887",
"<.	c #9B7053",
"[.	c #515A24",
"}.	c #593F2E",
"|.	c #D3A987",
"1.	c #A87A5D",
"2.	c #A6795C",
"3.	c #745637",
"4.	c #333B22",
"5.	c #685E31",
"6.	c #794C31",
"7.	c #AA7B5C",
"8.	c #7C5438",
"9.	c #A67353",
"0.	c #559B00",
"a.	c #686229",
"b.	c #D18561",
"c.	c #DE8D6B",
"d.	c #B98062",
"e.	c #C49979",
"f.	c #D98969",
"g.	c #927929",
"h.	c #6C6C1D",
"i.	c #C37F5D",
"j.	c #FAD2BD",
"k.	c #A08371",
"l.	c #B98E6F",
"m.	c #D6AC8A",
"n.	c #9F7356",
"o.	c #C99F7E",
"p.	c #F9C5A5",
"q.	c #D89B82",
"r.	c #936E2B",
"s.	c #4B7600",
"t.	c #AC7F69",
"u.	c #A17A61",
"v.	c #B98D6E",
"w.	c #C49A7A",
"x.	c #BA8E6F",
"y.	c #6D4629",
"z.	c #B68A6B",
"A.	c #7D5539",
"B.	c #D89375",
"C.	c #535C19",
"D.	c #466408",
"E.	c #5A371D",
"F.	c #9F7456",
"G.	c #AA7D5F",
"H.	c #D7AD8A",
"I.	c #A97C5E",
"J.	c #C99E7E",
"K.	c #674021",
"L.	c #90664A",
"M.	c #674022",
"N.	c #215200",
"O.	c #3F6123",
"P.	c #416501",
"Q.	c #7D563A",
"R.	c #AE8163",
"S.	c #AD8162",
"T.	c #9E7255",
"U.	c #8A6145",
"V.	c #785034",
"W.	c #684123",
"X.	c #184000",
"Y.	c #2B600A",
"Z.	c #71521F",
"`.	c #674023",
" +	c #785135",
".+	c #9C7154",
"++	c #A67A5C",
"@+	c #9C7054",
"#+	c #865E42",
"$+	c #7A4F24",
"%+	c #557600",
"&+	c #337200",
"*+	c #3F522E",
"=+	c #814A28",
"-+	c #A16B27",
";+	c #885C36",
">+	c #663F21",
",+	c #A06C28",
"'+	c #944F29",
")+	c #682F28",
"!+	c #BC4B27",
"~+	c #B13B25",
"{+	c #815425",
"]+	c #643F1D",
"^+	c #5B391D",
"/+	c #694123",
"(+	c #643E21",
"_+	c #56351A",
":+	c #805425",
"<+	c #A13821",
"[+	c #C1542E",
"}+	c #872622",
"|+	c #3C7D00",
"1+	c #6E4B1F",
"2+	c #744D28",
"3+	c #774E1F",
"4+	c #B8765A",
"5+	c #B4735A",
"6+	c #301C0A",
"7+	c #351F0E",
"8+	c #774B37",
"9+	c #CD8468",
"0+	c #694518",
"a+	c #6E4724",
"b+	c #855C2D",
"c+	c #566F04",
"d+	c #61A000",
"e+	c #448002",
"f+	c #632E0F",
"g+	c #4F2411",
"h+	c #DDAB8B",
"i+	c #FAC4A1",
"j+	c #FAC9AA",
"k+	c #EEA382",
"l+	c #F7C0A1",
"m+	c #FAC8A7",
"n+	c #FAC29D",
"o+	c #010302",
"p+	c #4D2008",
"q+	c #653A19",
"r+	c #5F6C1A",
"s+	c #46631D",
"t+	c #479900",
"u+	c #4A4812",
"v+	c #68371E",
"w+	c #532917",
"x+	c #856A59",
"y+	c #967B6B",
"z+	c #E7CAB8",
"A+	c #F9C19D",
"B+	c #FBD6BE",
"C+	c #988376",
"D+	c #977966",
"E+	c #0D0B09",
"F+	c #542B1A",
"G+	c #66331B",
"H+	c #4C3327",
"I+	c #376B0D",
"J+	c #4F9A00",
"K+	c #2F5615",
"L+	c #794F3A",
"M+	c #9E4F27",
"N+	c #24211D",
"O+	c #7F3C1C",
"P+	c #AB9C8B",
"Q+	c #A09D97",
"R+	c #8E8B88",
"S+	c #9A9897",
"T+	c #969492",
"U+	c #8A8681",
"V+	c #C2BCB1",
"W+	c #945A3E",
"X+	c #312F29",
"Y+	c #4A4034",
"Z+	c #974D2B",
"`+	c #642B0F",
" @	c #A66E51",
".@	c #50523A",
"+@	c #509B00",
"@@	c #408300",
"#@	c #836C19",
"$@	c #D38B6F",
"%@	c #AE6C4B",
"&@	c #8B5130",
"*@	c #634131",
"=@	c #A27A6B",
"-@	c #B88B7D",
";@	c #C1988E",
">@	c #BE9388",
",@	c #B58576",
"'@	c #57493B",
")@	c #453025",
"!@	c #323E18",
"~@	c #615043",
"{@	c #C2A99A",
"]@	c #E6BDA6",
"^@	c #635A20",
"/@	c #594417",
"(@	c #9C5931",
"_@	c #2F390E",
":@	c #873B13",
"<@	c #C0B6B3",
"[@	c #605F5E",
"}@	c #40362F",
"|@	c #3F362E",
"1@	c #5E5D5C",
"2@	c #89827F",
"3@	c #AA7B6F",
"4@	c #554028",
"5@	c #3E5D00",
"6@	c #522812",
"7@	c #E3A482",
"8@	c #E1A382",
"9@	c #66690A",
"0@	c #3F7800",
"a@	c #404F29",
"b@	c #636051",
"c@	c #B7B2AA",
"d@	c #7D3B1F",
"e@	c #924727",
"f@	c #8F4118",
"g@	c #8F4016",
"h@	c #8F4C35",
"i@	c #B3A7A1",
"j@	c #7E7A68",
"k@	c #558D1A",
"l@	c #467001",
"m@	c #754735",
"n@	c #794E3C",
"o@	c #58710C",
"p@	c #88B000",
"q@	c #525839",
"r@	c #B0ADA6",
"s@	c #BEBBB4",
"t@	c #AEAA9B",
"u@	c #B4B0A5",
"v@	c #C4C1BB",
"w@	c #4C543D",
"x@	c #6D971C",
"y@	c #3C7A00",
"z@	c #826920",
"A@	c #9A6A53",
"B@	c #8A8682",
"C@	c #907D73",
"D@	c #8E4D2A",
"E@	c #7D9E00",
"F@	c #340E09",
"G@	c #772417",
"H@	c #893F1C",
"I@	c #593612",
"J@	c #542F22",
"K@	c #602217",
"L@	c #701222",
"M@	c #1E2711",
"N@	c #400612",
"O@	c #D23419",
"P@	c #400412",
"Q@	c #4F700A",
"R@	c #544D31",
"S@	c #56433E",
"T@	c #418600",
"U@	c #8BB100",
"V@	c #3F493C",
"W@	c #3C3C3C",
"X@	c #334326",
"  . + @ #   $ % & & * = * %   - ; > -   % , ' % ; # # ) - , ' ! ",
"~ { ] ^ / * ( _ / / :   # , < * % ; < % ; < ' ( [ & # ;   } } ' ",
"_ <   ; @ | 1 2 3 ) )   % , # ;   = = < ) : 4 + 5 < # / = 6 & 7 ",
"  ' = % ! % 8 [ ' 9 % ) 0 a b 0 c d e f g ' < @ ~ # # # # = = h ",
"# # / , i 5 j .   ' k l m m m m m m n o p q - * ) i 9 >   ' - } ",
"< = ^   )   r j 3 s t u m m m m m m m n v w 9 9 x y j r i , ^ # ",
"< ~ | z A < < - B C D m m m m m m m m m m m E F z _ : G # & / & ",
"~ H @ I I   % J C K L D m m m m m m m m m m v M [ % 9 N ' O = < ",
"& & ~ [ P % Q R S T U V W X W Y Z ` D m  .` n o ..y +.+.3 @.% % ",
"& ~ # @.3 % #.$.%.&.*.=.-.;.W L >.,.'.).!.,.m n ~.i 1 7 {.) - , ",
", ' {.].+ ; ^./.m m (.(.D L D L m m L D m m _.:.<.[.h {.~ ^ # ~ ",
"' - 7 [ } , }.|.m m m m m D m D m m D m m m :.1.2.3.4.# O : = _ ",
"' -   - * 5.6.7.m m m m m m m m m m m m m m |.8.9.6.. i : , ' 0.",
"5 y j ' a.b.c.d.e.m m m m m m m m m m e.m m |.8.f.c.g.I _ ' _ _ ",
"I ; = # h.i.j.k.l.m m m m m m m.m m.u l.n.o.|.8.p.q.r.! y 9 % < ",
"- } # = . s.t.u.l.m e.m m e.m v.m v.w.x.y.n.z.A.B.C., ) A 5 z % ",
"' 9 ; i % * D.E.F.G.l.H.o.I.J.I.z.z.I.I.<.K.L.M.N.O.# # # < - % ",
"_ - -   ; < P.E.y.Q.R.S.T.n.I.U.I.I.U.I.2.V.M.W.X.j ! 3 _ - = } ",
"% } = ) ) : Y.Z.`. +.+V.U.G.++V.F.G.F.y.@+#+`.$+%++.+.! P ' {.* ",
"&+/ *+&+@ : < =+-+;+>+L.G.U.V.M.y.Q.I.F.K. +,+'+- [ + G g = % ' ",
"- @ 4 ] { x - )+!+~+{+]+^+/+/+/+/+/+(+_+:+<+[+}+_ + 2 + @.% . ) ",
"A > ( G @.I _ |+1+2+3+4+5+6+7+7+7+7+8+9+0+a+b+c+d+5 8 8   @.&+O ",
"- . > O @.y 3 3 e+f+g+h+i+j+k+k+k+l+m+n+o+p+q+r+- 9 % < - ) _ I ",
"- g O s+< 9 t+d+u+v+w+x+y+z+A+A+A+B+C+D+E+F+G+H+/ ) 1 I+< 9 y J+",
"> - 6 {.4 % [ K+L+M+N+O+P+Q+R+S+T+U+V+W+X+Y+Z+`+ @.@< ' . 3   ) ",
"+@@@s+- + N +.#@$@%@&@N+*@=@-@;@>@,@'@)@# !@~@{@]@^@_ 0.9 ] O.# ",
"^ &+{ - % z ! [ /@(@_@:@<@[@}@}@|@1@2@3@4@5@6@7@8@9@_ - {.+ +@' ",
"/ N t+9 i ' &+J+0@a@b@c@d@e@f@f@f@g@h@i@j@k@l@m@n@o@; = } {.. 9 ",
"~ _ p@> &+@ 4 + z - q@r@s@t@t@t@t@t@u@v@w@x@9 ^ & ~ < _ 3 ' y@+ ",
"; +@x {.2 G , g N - 9 z@A@B@U+U+U+U+C@D@. P - / / ; z j i i ( ) ",
"9 ' , - 2 % } * _ . ' E@F@G@H@I@J@K@L@M@P > , , < %   , / *+: ' ",
"' * ) ; - , , 9 +@' , , N@O@O@P@Q@R@S@T@U@A . z ' ( ^ *+V@W@X@O "};
