/* XPM */
static char * sprite_mc_back_stand_xpm[] = {
"32 32 383 2",
"  	c #59750A",
". 	c #538200",
"+ 	c #449B00",
"@ 	c #405B24",
"# 	c #4A4D45",
"$ 	c #65A200",
"% 	c #567B01",
"& 	c #464744",
"* 	c #4C5735",
"= 	c #4A533C",
"- 	c #4D6B18",
"; 	c #516E13",
"> 	c #638E00",
", 	c #4B5C30",
"' 	c #51730B",
") 	c #4A6226",
"! 	c #749C00",
"~ 	c #494C42",
"{ 	c #3E7400",
"] 	c #328A00",
"^ 	c #495334",
"/ 	c #474A42",
"( 	c #3C8200",
"_ 	c #5A8500",
": 	c #4B7402",
"< 	c #4E6521",
"[ 	c #438A00",
"} 	c #465935",
"| 	c #2B6219",
"1 	c #369300",
"2 	c #48A200",
"3 	c #4F9200",
"4 	c #586E06",
"5 	c #51542A",
"6 	c #50483C",
"7 	c #556313",
"8 	c #5B690C",
"9 	c #504D35",
"0 	c #504D34",
"a 	c #4F6320",
"b 	c #306A0C",
"c 	c #569700",
"d 	c #44523B",
"e 	c #48720D",
"f 	c #308200",
"g 	c #578B00",
"h 	c #5A730B",
"i 	c #624B24",
"j 	c #C8A080",
"k 	c #C8A180",
"l 	c #856F48",
"m 	c #56531F",
"n 	c #377306",
"o 	c #4D7B00",
"p 	c #5D9E00",
"q 	c #546B0C",
"r 	c #AC8668",
"s 	c #E0B692",
"t 	c #DFB592",
"u 	c #CEA685",
"v 	c #6A8229",
"w 	c #6A9300",
"x 	c #528603",
"y 	c #B59270",
"z 	c #616B18",
"A 	c #639B00",
"B 	c #82AD00",
"C 	c #589400",
"D 	c #6B8400",
"E 	c #53651A",
"F 	c #AE896E",
"G 	c #F6D0C2",
"H 	c #E4BC9F",
"I 	c #DFB591",
"J 	c #697D2B",
"K 	c #347B00",
"L 	c #355B24",
"M 	c #7BA500",
"N 	c #614628",
"O 	c #E8C4AD",
"P 	c #FDE8E4",
"Q 	c #F9D4C9",
"R 	c #EEC8B4",
"S 	c #E0B693",
"T 	c #946F53",
"U 	c #3E8C00",
"V 	c #4C6B0D",
"W 	c #72A300",
"X 	c #4D5A1B",
"Y 	c #E7BEA3",
"Z 	c #F7DED6",
"` 	c #FBDBD2",
" .	c #FDECEA",
"..	c #F5D0C2",
"+.	c #F6D5C9",
"@.	c #F3CEBF",
"#.	c #E4BC9E",
"$.	c #F9D9D0",
"%.	c #E7BFA4",
"&.	c #E1B897",
"*.	c #6B631C",
"=.	c #7CA900",
"-.	c #417B00",
";.	c #4F473A",
">.	c #E1B796",
",.	c #ECC5AF",
"'.	c #EDCAB7",
").	c #E6BEA3",
"!.	c #E5C2A8",
"~.	c #F5D1C2",
"{.	c #916E4A",
"].	c #527208",
"^.	c #436918",
"/.	c #4FA900",
"(.	c #593F2E",
"_.	c #D4A988",
":.	c #D3A987",
"<.	c #A97C5E",
"[.	c #9F7356",
"}.	c #60592B",
"|.	c #316805",
"1.	c #5A402F",
"2.	c #B68A6B",
"3.	c #896044",
"4.	c #AA7D5F",
"5.	c #654733",
"6.	c #444E2F",
"7.	c #565835",
"8.	c #B37149",
"9.	c #C3754D",
"0.	c #B17A5A",
"a.	c #D6AC8A",
"b.	c #7C5438",
"c.	c #B66946",
"d.	c #C3764F",
"e.	c #6E7D16",
"f.	c #559B00",
"g.	c #71632A",
"h.	c #DD8C6B",
"i.	c #F8CEB8",
"j.	c #A9836E",
"k.	c #B98D6E",
"l.	c #F6BE9F",
"m.	c #EEA88C",
"n.	c #A27131",
"o.	c #3B6700",
"p.	c #DB9F86",
"q.	c #A1816D",
"r.	c #B98E6F",
"s.	c #D7AD8A",
"t.	c #775034",
"u.	c #A67A5C",
"v.	c #C99F7E",
"w.	c #7D5539",
"x.	c #EDAC8B",
"y.	c #735934",
"z.	c #585637",
"A.	c #724E35",
"B.	c #AD8163",
"C.	c #AC8062",
"D.	c #AD8062",
"E.	c #C49A7A",
"F.	c #BA8E6F",
"G.	c #AD8162",
"H.	c #AE8163",
"I.	c #90664A",
"J.	c #6D4629",
"K.	c #736134",
"L.	c #4F700A",
"M.	c #466408",
"N.	c #5A371D",
"O.	c #785135",
"P.	c #9C7154",
"Q.	c #A6795B",
"R.	c #A5795B",
"S.	c #9F7456",
"T.	c #684123",
"U.	c #215200",
"V.	c #3F6123",
"W.	c #416501",
"X.	c #674022",
"Y.	c #8A6145",
"Z.	c #865D41",
"`.	c #AA7C5E",
" +	c #946A4D",
".+	c #7D563A",
"++	c #184000",
"@+	c #937723",
"#+	c #7F5324",
"$+	c #946A4A",
"%+	c #795135",
"&+	c #8B6246",
"*+	c #90674A",
"=+	c #7F5325",
"-+	c #9C6328",
";+	c #337200",
">+	c #3F522E",
",+	c #743228",
"'+	c #B94421",
")+	c #AE311F",
"!+	c #7E563A",
"~+	c #674123",
"{+	c #9C301F",
"]+	c #B94521",
"^+	c #922627",
"/+	c #36631A",
"(+	c #333B22",
"_+	c #A57230",
":+	c #885D30",
"<+	c #9E6A24",
"[+	c #865536",
"}+	c #764936",
"|+	c #553317",
"1+	c #56351A",
"2+	c #563418",
"3+	c #633C25",
"4+	c #804F3D",
"5+	c #9A661E",
"6+	c #7A4F25",
"7+	c #B88340",
"8+	c #65600D",
"9+	c #4C7603",
"0+	c #341E0E",
"a+	c #7D6B60",
"b+	c #F0BB9D",
"c+	c #EFB492",
"d+	c #D9A889",
"e+	c #CC8367",
"f+	c #D6A081",
"g+	c #E2AD8C",
"h+	c #F6B895",
"i+	c #C1A899",
"j+	c #2F1600",
"k+	c #373C09",
"l+	c #618B00",
"m+	c #61A000",
"n+	c #807C21",
"o+	c #EAAF8D",
"p+	c #FAD4BD",
"q+	c #E4B599",
"r+	c #DDB297",
"s+	c #F5D7C3",
"t+	c #FAC29E",
"u+	c #FAC19D",
"v+	c #FCD6BF",
"w+	c #DEBDA8",
"x+	c #DDAC8C",
"y+	c #F8D0BA",
"z+	c #FAC7A7",
"A+	c #A36341",
"B+	c #536918",
"C+	c #46631D",
"D+	c #479900",
"E+	c #6F4735",
"F+	c #97735E",
"G+	c #D89374",
"H+	c #8B472B",
"I+	c #9B978A",
"J+	c #A5988F",
"K+	c #977966",
"L+	c #988375",
"M+	c #B6B3AB",
"N+	c #8E5A42",
"O+	c #A76D55",
"P+	c #B3836A",
"Q+	c #8F6450",
"R+	c #4C463C",
"S+	c #376B0D",
"T+	c #4F9A00",
"U+	c #458701",
"V+	c #304B16",
"W+	c #AC5522",
"X+	c #522A1A",
"Y+	c #415900",
"Z+	c #556527",
"`+	c #8C563A",
" @	c #BFB3A9",
".@	c #D7C9C3",
"+@	c #EADFDD",
"@@	c #E3D8D4",
"#@	c #CFC0B8",
"$@	c #88745F",
"%@	c #5E3828",
"&@	c #40423B",
"*@	c #201A15",
"=@	c #9B491C",
"-@	c #65361D",
";@	c #4A423E",
">@	c #509B00",
",@	c #408300",
"'@	c #48551E",
")@	c #A25327",
"!@	c #7D3A19",
"~@	c #10110F",
"{@	c #397704",
"]@	c #834116",
"^@	c #B3B3B2",
"/@	c #735C57",
"(@	c #693C27",
"_@	c #683A24",
":@	c #7C6059",
"<@	c #7A7775",
"[@	c #A37C72",
"}@	c #52382D",
"|@	c #24310C",
"1@	c #502919",
"2@	c #48352C",
"3@	c #445A24",
"4@	c #6E4635",
"5@	c #A27D67",
"6@	c #734C3A",
"7@	c #4C3127",
"8@	c #4C6836",
"9@	c #84756E",
"0@	c #8F4D36",
"a@	c #694439",
"b@	c #5D2C16",
"c@	c #886157",
"d@	c #8E6E64",
"e@	c #656253",
"f@	c #2B3E0B",
"g@	c #855946",
"h@	c #96745F",
"i@	c #8E6350",
"j@	c #51660E",
"k@	c #B26644",
"l@	c #EFA281",
"m@	c #613522",
"n@	c #585030",
"o@	c #585049",
"p@	c #C7C4BE",
"q@	c #BBB2A9",
"r@	c #9B846D",
"s@	c #9C856E",
"t@	c #A79686",
"u@	c #D7D4CE",
"v@	c #665F55",
"w@	c #4C7822",
"x@	c #754735",
"y@	c #D49072",
"z@	c #D88868",
"A@	c #676A0E",
"B@	c #88B000",
"C@	c #2B600A",
"D@	c #205100",
"E@	c #677408",
"F@	c #734F37",
"G@	c #9F857B",
"H@	c #C3C1BB",
"I@	c #C3C0BB",
"J@	c #B7AEA8",
"K@	c #745143",
"L@	c #765B18",
"M@	c #4E7E00",
"N@	c #232917",
"O@	c #2E2F2D",
"P@	c #3C7A00",
"Q@	c #8E6B19",
"R@	c #E79D7D",
"S@	c #DCAB8B",
"T@	c #BF7A5E",
"U@	c #62711B",
"V@	c #9E5C40",
"W@	c #D9A384",
"X@	c #E1A787",
"Y@	c #415400",
"Z@	c #A86728",
"`@	c #B26727",
" #	c #8F5922",
".#	c #43581B",
"+#	c #583511",
"@#	c #AF6827",
"##	c #252E15",
"$#	c #A32124",
"%#	c #E63A0E",
"&#	c #6F0E22",
"*#	c #4A6B01",
"=#	c #400412",
"-#	c #D13319",
";#	c #8BB100",
">#	c #3F493C",
",#	c #3C3C3C",
"'#	c #334326",
"  . + @ #   $ % & & * = * %   - ; > -   % , ' % ; # # ) - , ' ! ",
"~ { ] ^ / * ( _ / / :   # , < * % ; < % ; < ' ( [ & # ;   } } ' ",
"_ <   ; @ | 1 2 3 ) )   4 5 6 7 8 9 0 a ) : b + c < # / = d & e ",
"  ' = % ! % f [ ' g h i j j j j j j k l m ' < @ ~ # # # # = = n ",
"# # / , o c p .   q r s t t t t t t t t u v - * ) o g >   ' - } ",
"< = ^   )   w p x y s t t t t t t t t t t u z g A B p w o , ^ # ",
"< ~ | C D < < E F G H t I t I t t t t t t t u J C _ : K # & / & ",
"~ L @ M M   % N O P Q H R I R I t t t t t t S T [ % g U ' V = < ",
"& & ~ [ W % X j Y Z `  ...+.@.#.$.H %.&.Q H t t *.B =.=.3 -.% % ",
"& ~ # -.3 % ;.j &.>.,.'.).+.#.@.!.I ~.>.H t t t {.].1 e ^.) - , ",
", ' ^./.+ ; (._.t t t t t t t t t t t t t t :.<.[.}.|.^.~ ^ # ~ ",
"' - e [ } , 1.2.t t t t t t t t t t t t t t :.3.4.5.6.# V : = _ ",
"' -   - 7.8.9.0.a.t t t t t t t t t t a.t t :.b.c.d.e.o : , ' f.",
"c B p ' g.h.i.j.k.t t t t t t t t t t k.k.a.:.b.l.m.n.M _ ' _ _ ",
"M ; = # ; o.p.q.r.S a.t t a.S r.S r.s.r.t.u.v.w.x.y.  ! B g % < ",
"- } # = . . z.A.B.r.k.t a.C.a.D.E.F.G.H.I.t.[.J.K.L., ) D c C % ",
"' g ; o % * M.N.O.P.2.2.Q.R.<.[.<.<.[.4.S.J.T.T.U.V.# # # < - % ",
"_ - -   ; < W.N.T.X.<.Y.Z.Q.`.w.<.<. +w.4..+T.T.++p ! 3 _ - = } ",
"% } = ) ) : b @+#+$+T.%+4.S.I.X.O.P.4.&+X.*+=+-+=.=.=.! W ' ^.* ",
";+/ >+;+@ : < ,+'+)+T.%+.+J.X.T.T.X.w.!+~+{+]+^+- [ + K /+= % ' ",
"- @ b ] { A - (+_+:+<+[+}+|+1+1+1+2+3+4+5+6+7+8+_ + 2 + -.% . ) ",
"D > ( K -.M _ [ 9+0+a+b+c+d+e+e+e+f+g+h+i+j+k+l+m+c f f   -.;+V ",
"- . > V -.B 3 3 n+o+p+q+r+s+t+t+u+v+w+x+y+z+A+B+- g % < - ) _ M ",
"- /+V C+< g D+m+E+F+G+H+I+J+K+K+K+L+M+N+O+P+Q+R+/ ) 1 S+< g B T+",
"> - d ^.b % U+V+W+X+Y+Z+`+ @.@+@@@#@$@%@&@*@=@-@;@= < ' . 3   ) ",
">@,@C+- + U '@)@!@~@{@]@^@/@(@_@_@:@<@[@}@|@1@W+2@3@_ f.g ] V.# ",
"^ ;+{ - % C 4@5@6@7@8@9@0@a@b@b@b@b@c@d@e@f@g@h@i@j@_ - ^.+ >@' ",
"/ U D+g o ' k@l@m@n@o@p@q@r@s@s@s@s@t@u@v@w@x@y@z@A@; = } ^.. g ",
"~ _ B@> ;+@ C@D@o.- E@F@G@H@I@I@H@I@J@K@L@W M@N@O@~ < _ 3 ' P@+ ",
"; >@A ^.2 K , /+U - g Q@R@S@T@U@V@W@X@k@. W - / / ; C p o o ( ) ",
"g ' , - 2 % } * _ . ' Y@Z@`@ #.#+#@#@#+#W > , , < %   , / >+: ' ",
"' * ) ; - , , g >@' , ##$#%#&#*#=#-#-#=#;#D . C ' ( ^ >+>#,#'#V "};
