/* XPM */
static char * sprite_mc_right_stand_xpm[] = {
"32 32 383 2",
"  	c #59750A",
". 	c #538200",
"+ 	c #449B00",
"@ 	c #405B24",
"# 	c #4A4D45",
"$ 	c #65A200",
"% 	c #567B01",
"& 	c #464744",
"* 	c #4C5735",
"= 	c #4A533C",
"- 	c #4D6B18",
"; 	c #516E13",
"> 	c #638E00",
", 	c #4B5C30",
"' 	c #51730B",
") 	c #4A6226",
"! 	c #749C00",
"~ 	c #494C42",
"{ 	c #3E7400",
"] 	c #328A00",
"^ 	c #495334",
"/ 	c #474A42",
"( 	c #3C8200",
"_ 	c #5A8500",
": 	c #4B7402",
"< 	c #4E6521",
"[ 	c #438A00",
"} 	c #465935",
"| 	c #2B6219",
"1 	c #369300",
"2 	c #48A200",
"3 	c #4F9200",
"4 	c #567802",
"5 	c #51542A",
"6 	c #50483C",
"7 	c #556313",
"8 	c #5B690C",
"9 	c #504D35",
"0 	c #4E4E37",
"a 	c #306A0C",
"b 	c #569700",
"c 	c #44523B",
"d 	c #48720D",
"e 	c #308200",
"f 	c #578B00",
"g 	c #5C5224",
"h 	c #886E48",
"i 	c #C8A180",
"j 	c #C8A080",
"k 	c #B59072",
"l 	c #5C531A",
"m 	c #36631A",
"n 	c #377306",
"o 	c #4D7B00",
"p 	c #5D9E00",
"q 	c #546B0C",
"r 	c #936E52",
"s 	c #CFA685",
"t 	c #DFB592",
"u 	c #946F53",
"v 	c #6C832B",
"w 	c #6A9300",
"x 	c #528603",
"y 	c #B59270",
"z 	c #E0B693",
"A 	c #CEA685",
"B 	c #616B18",
"C 	c #639B00",
"D 	c #82AD00",
"E 	c #589400",
"F 	c #6B8400",
"G 	c #53651A",
"H 	c #AE8A6F",
"I 	c #E7BFA4",
"J 	c #DFB591",
"K 	c #697D2A",
"L 	c #347B00",
"M 	c #355B24",
"N 	c #7BA500",
"O 	c #614628",
"P 	c #FBD7CC",
"Q 	c #EEC8B4",
"R 	c #E6BDA0",
"S 	c #9D7C6C",
"T 	c #3E8C00",
"U 	c #4C6B0D",
"V 	c #72A300",
"W 	c #4C5A19",
"X 	c #F5D1C2",
"Y 	c #FCF3F1",
"Z 	c #ECC4AE",
"` 	c #F6D9CD",
" .	c #E1B796",
"..	c #E4BC9F",
"+.	c #E4BB9E",
"@.	c #DCB28F",
"#.	c #F6D4C6",
"$.	c #BC967D",
"%.	c #E7C2AA",
"&.	c #ECC9B4",
"*.	c #E7C2A9",
"=.	c #EDD2C1",
"-.	c #6A621A",
";.	c #7CA900",
">.	c #417B00",
",.	c #86674E",
"'.	c #DAB08E",
").	c #E1B897",
"!.	c #F5D8CD",
"~.	c #F5D0C2",
"{.	c #FBDFD7",
"].	c #E7BEA3",
"^.	c #F8D4C8",
"/.	c #FAEAE5",
"(.	c #CBA282",
"_.	c #AB8163",
":.	c #FCE2DB",
"<.	c #AB9B93",
"[.	c #CDA995",
"}.	c #FBDAD0",
"|.	c #C6A086",
"1.	c #F6DCD2",
"2.	c #B69571",
"3.	c #517204",
"4.	c #436918",
"5.	c #4FA900",
"6.	c #7C5438",
"7.	c #D3A987",
"8.	c #D6AC8A",
"9.	c #B98D6E",
"0.	c #E5BC9F",
"a.	c #F4CEBF",
"b.	c #95684B",
"c.	c #804C28",
"d.	c #AC8264",
"e.	c #8F6A4F",
"f.	c #875636",
"g.	c #C79D7C",
"h.	c #D4A988",
"i.	c #BE9576",
"j.	c #505923",
"k.	c #C49979",
"l.	c #D48461",
"m.	c #C07C5F",
"n.	c #6C4629",
"o.	c #C77E5E",
"p.	c #754E32",
"q.	c #9A5C35",
"r.	c #9A6F52",
"s.	c #52552C",
"t.	c #593F2E",
"u.	c #B98E6F",
"v.	c #DDB390",
"w.	c #B5896B",
"x.	c #8D6448",
"y.	c #875231",
"z.	c #E18F6E",
"A.	c #C58460",
"B.	c #B87A5A",
"C.	c #AB6444",
"D.	c #E5AF8D",
"E.	c #DEAB8A",
"F.	c #8E6448",
"G.	c #607218",
"H.	c #559B00",
"I.	c #5A402F",
"J.	c #B68A6B",
"K.	c #B78666",
"L.	c #B06C44",
"M.	c #8A6145",
"N.	c #BC785B",
"O.	c #9E7155",
"P.	c #EEA180",
"Q.	c #B16544",
"R.	c #E9AF8D",
"S.	c #E6AE8B",
"T.	c #6A5924",
"U.	c #523A29",
"V.	c #A67A5C",
"W.	c #A87B5D",
"X.	c #C99E7E",
"Y.	c #B97A58",
"Z.	c #FAC6A6",
"`.	c #D28769",
" +	c #8D6549",
".+	c #9A7053",
"++	c #D59172",
"@+	c #FAC29E",
"#+	c #C88660",
"$+	c #976447",
"%+	c #421900",
"&+	c #684851",
"*+	c #EAAF8C",
"=+	c #E9AF8B",
"-+	c #705D30",
";+	c #3B4522",
">+	c #956C51",
",+	c #A97C5E",
"'+	c #8D644C",
")+	c #B9856B",
"!+	c #D18768",
"~+	c #BC785C",
"{+	c #764E32",
"]+	c #DFAB8A",
"^+	c #BEBBAC",
"/+	c #7A7B7C",
"(+	c #875F60",
"_+	c #F6B895",
":+	c #768215",
"<+	c #509B00",
"[+	c #496809",
"}+	c #826246",
"|+	c #A5795B",
"1+	c #A6795C",
"2+	c #AA7D5E",
"3+	c #654732",
"4+	c #8F522C",
"5+	c #DC9878",
"6+	c #E5B18F",
"7+	c #F9C19D",
"8+	c #D69874",
"9+	c #D8CAB9",
"0+	c #9498FC",
"a+	c #896687",
"b+	c #F9D0B9",
"c+	c #EFCAB4",
"d+	c #8D8C34",
"e+	c #3F6123",
"f+	c #1C4500",
"g+	c #9B7053",
"h+	c #775034",
"i+	c #AA7C5E",
"j+	c #7D563A",
"k+	c #4D2F16",
"l+	c #CE8468",
"m+	c #E9CDD1",
"n+	c #E9CDD2",
"o+	c #FBDBC5",
"p+	c #FBD6BF",
"q+	c #575729",
"r+	c #765034",
"s+	c #795135",
"t+	c #674023",
"u+	c #875D30",
"v+	c #EDB690",
"w+	c #F9C29E",
"x+	c #FBD5BE",
"y+	c #FBD6BE",
"z+	c #ECAC8B",
"A+	c #B17D43",
"B+	c #337200",
"C+	c #3F522E",
"D+	c #474A40",
"E+	c #372A20",
"F+	c #684123",
"G+	c #A9693C",
"H+	c #A14C37",
"I+	c #E79779",
"J+	c #F7BA96",
"K+	c #D38E69",
"L+	c #725136",
"M+	c #4C6320",
"N+	c #2C4A00",
"O+	c #513C18",
"P+	c #8F5922",
"Q+	c #7C0F27",
"R+	c #B43226",
"S+	c #BC4B26",
"T+	c #D08668",
"U+	c #CC8367",
"V+	c #CC8468",
"W+	c #AA6644",
"X+	c #89522A",
"Y+	c #2A4500",
"Z+	c #8BB100",
"`+	c #608600",
" @	c #425805",
".@	c #B88044",
"+@	c #835829",
"@@	c #79371E",
"#@	c #A21215",
"$@	c #960F19",
"%@	c #7C371B",
"&@	c #465B1D",
"*@	c #61A000",
"=@	c #6F4A37",
"-@	c #462310",
";@	c #755036",
">@	c #BD937D",
",@	c #8E694D",
"'@	c #634B3C",
")@	c #9D8E83",
"!@	c #DFC3B1",
"~@	c #7D7B74",
"{@	c #4A4C44",
"]@	c #46631D",
"^@	c #479900",
"/@	c #793E1E",
"(@	c #9B491C",
"_@	c #573D2B",
":@	c #E9C5B7",
"<@	c #E3BA9E",
"[@	c #987767",
"}@	c #E4E3E0",
"|@	c #C2BFBA",
"1@	c #9C988B",
"2@	c #4B4B44",
"3@	c #376B0D",
"4@	c #4F9A00",
"5@	c #221E1A",
"6@	c #512A19",
"7@	c #0F0F0E",
"8@	c #B89375",
"9@	c #DFB79E",
"0@	c #C39B87",
"a@	c #716965",
"b@	c #AC9988",
"c@	c #31342E",
"d@	c #408300",
"e@	c #75381A",
"f@	c #C15F25",
"g@	c #7D5444",
"h@	c #865843",
"i@	c #BC9176",
"j@	c #BC9276",
"k@	c #361C11",
"l@	c #6A3E2C",
"m@	c #29221D",
"n@	c #92745F",
"o@	c #F4C6AE",
"p@	c #AC603C",
"q@	c #675645",
"r@	c #946C51",
"s@	c #58260E",
"t@	c #5C2A10",
"u@	c #4F4B44",
"v@	c #726F5F",
"w@	c #D18F72",
"x@	c #E19674",
"y@	c #733D1B",
"z@	c #ACA799",
"A@	c #5D4738",
"B@	c #B3551A",
"C@	c #BDAAA2",
"D@	c #4C5A36",
"E@	c #88B000",
"F@	c #546433",
"G@	c #8A8573",
"H@	c #514D43",
"I@	c #21201F",
"J@	c #777363",
"K@	c #ABA69C",
"L@	c #765E55",
"M@	c #B0551E",
"N@	c #7E7564",
"O@	c #465B35",
"P@	c #3C7A00",
"Q@	c #547E20",
"R@	c #7E552B",
"S@	c #B37A5A",
"T@	c #DFBEA9",
"U@	c #CCAD9C",
"V@	c #9A552C",
"W@	c #6C2E13",
"X@	c #4D4B32",
"Y@	c #7D9E00",
"Z@	c #274D00",
"`@	c #B26826",
" #	c #B16727",
".#	c #613517",
"+#	c #A26728",
"@#	c #412121",
"##	c #49592E",
"$#	c #2B5000",
"%#	c #C7261B",
"&#	c #E63A0E",
"*#	c #C03110",
"=#	c #6D0C22",
"-#	c #97171C",
";#	c #397800",
">#	c #3F493C",
",#	c #3C3C3C",
"'#	c #334326",
"  . + @ #   $ % & & * = * %   - ; > -   % , ' % ; # # ) - , ' ! ",
"~ { ] ^ / * ( _ / / :   # , < * % ; < % ; < ' ( [ & # ;   } } ' ",
"_ <   ; @ | 1 2 3 ) )   4 5 6 7 8 9 0 < ) : a + b < # / = c & d ",
"  ' = % ! % e [ ' f % g h i j j j j k l m ' < @ ~ # # # # = = n ",
"# # / , o b p .   q r s t t t t t t t t u v - * ) o f >   ' - } ",
"< = ^   )   w p x y z t t t t t t t t t z A B f C D p w o , ^ # ",
"< ~ | E F < < G H I J t t t t t t t t t t t A K E _ : L # & / & ",
"~ M @ N N   % O I P Q J t t t t t t t t t t R S [ % f T ' U = < ",
"& & ~ [ V % W j I X Y Z `  ...+.@.@.#.$.%.&.*.=.-.D ;.;.3 >.% % ",
"& ~ # >.3 % ,.'.). .!.~.{.].^./.(._.:.<.[.}.|.1.2.3.1 d 4.) - , ",
", ' 4.5.+ ; 6.7.t t t 8.t 9.0.a.b.c.d.e.f.g.6.h.i.j.n 4.~ ^ # ~ ",
"' - d [ } , 6.7.t t t 9.t 8.k.t c.l.m.n.o.p.q.d.r.s.* # U : = _ ",
"' -   - * , t.h.u.t v.w.w.v.i x.y.z.A.B.C.D.E.F.G.- . o : , ' H.",
"b D p ' ) f I.J.u.t K.L.M.w.j N.O.P.A.B.Q.R.S.T.[ - f N _ ' _ _ ",
"N ; = # ; E U.V.W.X.Y.Z.`. +.+++@+#+$+%+&+*+=+-+_ .   ! D f % < ",
"- } # = . . ;+>+,+W.'+)+!+~+{+]+@+#+^+/+(+_+=+:+<+' , ) F b E % ",
"' f ; o % * [+}+|+1+2+3+4+`.5+6+7+8+9+0+a+b+c+d++ e+# # # < - % ",
"_ - -   ; < : f+g+h+i+j+k+l+7+7+7+7+Z.m+n+o+p+#+L p ! 3 _ - = } ",
"% } = ) ) : a + q+r+s+s+t+u+v+w+7+7+7+7+x+y+z+A+;.;.;.! V ' 4.* ",
"B+/ C+B+@ : < @ D+E+F+F+u+G+H+I+7+7+7+7+J+K+L+M+- [ + L m = % ' ",
"- @ a ] { C - * ) o N+O+P+Q+R+S+T+U+V+W+X+Y+D Z+_ + 2 + >.% . ) ",
"F > ( L >.N _ [ C ;.C `+ @P+.@+@@@#@$@%@&@  % > *@b e e   >.B+U ",
"- . > U >.D 3 3 3 [ : L =@-@;@>@,@'@)@!@~@{@} - - f % < - ) _ N ",
"- m U ]@< f ^@*@T   f ] /@(@_@:@<@[@}@|@1@2@& # / ) 1 3@< f D 4@",
"> - c 4.a % [ ^@! D N N 5@6@7@8@9@0@a@b@c@* < ~ & = < ' . 3   ) ",
"<+d@]@- + T ;.D D d@1 { e@f@g@h@i@j@k@l@# - ' ^ & ) _ H.f ] e+# ",
"^ B+{ - % E ! [ d ) B+- m@n@o@p@q@r@s@t@, _ 3 e @ ' _ - 4.+ <+' ",
"/ T ^@f o ' B+4@>., * u@v@w@x@y@z@A@B@C@D@b 3 ]@/ ' ; = } 4.. f ",
"~ _ E@> B+@ a + E - % F@G@H@I@J@K@L@M@N@O@V f ^ & ~ < _ 3 ' P@+ ",
"; <+C 4.2 L , m T - f V Q@R@S@T@U@V@W@X@. V - / / ; E p o o ( ) ",
"f ' , - 2 % } * _ . ' Y@;.Z@`@ #.#+#@###V > , , < %   , / C+: ' ",
"' * ) ; - , , f <+' , , _ $#%#&#*#=#-#;#Z+F . E ' ( ^ C+>#,#'#U "};
