/* XPM */
static char * sprite_mc_left_walk_1_xpm[] = {
"32 32 386 2",
"  	c #59750A",
". 	c #538200",
"+ 	c #449B00",
"@ 	c #405B24",
"# 	c #4A4D45",
"$ 	c #65A200",
"% 	c #567B01",
"& 	c #464744",
"* 	c #4C5735",
"= 	c #4A533C",
"- 	c #4D6B18",
"; 	c #516E13",
"> 	c #638E00",
", 	c #4B5C30",
"' 	c #51730B",
") 	c #4A6226",
"! 	c #749C00",
"~ 	c #494C42",
"{ 	c #3E7400",
"] 	c #328A00",
"^ 	c #495334",
"/ 	c #474A42",
"( 	c #3C8200",
"_ 	c #5A8500",
": 	c #4B7402",
"< 	c #4E6521",
"[ 	c #438A00",
"} 	c #465935",
"| 	c #2B6219",
"1 	c #369300",
"2 	c #48A200",
"3 	c #4F9200",
"4 	c #306A0C",
"5 	c #569700",
"6 	c #44523B",
"7 	c #48720D",
"8 	c #308200",
"9 	c #578B00",
"0 	c #5C6D11",
"a 	c #63511F",
"b 	c #5F581D",
"c 	c #64521E",
"d 	c #624F20",
"e 	c #61432E",
"f 	c #5C4735",
"g 	c #347B00",
"h 	c #36631A",
"i 	c #377306",
"j 	c #4D7B00",
"k 	c #5D9E00",
"l 	c #5A690A",
"m 	c #86694B",
"n 	c #AC8668",
"o 	c #E0B692",
"p 	c #DFB592",
"q 	c #CFA685",
"r 	c #936E52",
"s 	c #476D05",
"t 	c #569701",
"u 	c #6A9300",
"v 	c #5E6F18",
"w 	c #C8A080",
"x 	c #DAB08E",
"y 	c #E0B693",
"z 	c #C8A180",
"A 	c #8D7C48",
"B 	c #639B00",
"C 	c #82AD00",
"D 	c #589400",
"E 	c #6B8400",
"F 	c #6B7829",
"G 	c #CEA685",
"H 	c #DFB591",
"I 	c #867447",
"J 	c #4F8F00",
"K 	c #355B24",
"L 	c #7BA500",
"M 	c #5B4A2C",
"N 	c #EEC8B4",
"O 	c #EAC4B1",
"P 	c #877847",
"Q 	c #3E8C00",
"R 	c #4C6B0D",
"S 	c #72A300",
"T 	c #48611C",
"U 	c #86654B",
"V 	c #F3CEBE",
"W 	c #DEB491",
"X 	c #E5BC9F",
"Y 	c #D6AC8A",
"Z 	c #E1B796",
"` 	c #E1B897",
" .	c #ECC8B4",
"..	c #FBD9D0",
"+.	c #F4CFBF",
"@.	c #AB8567",
"#.	c #72900B",
"$.	c #7CA900",
"%.	c #417B00",
"&.	c #4F4538",
"*.	c #DBD0C9",
"=.	c #F4E5DD",
"-.	c #EEC7B3",
";.	c #F5E5DD",
">.	c #B88C6C",
",.	c #F7E7E0",
"'.	c #E7BEA3",
").	c #C49978",
"!.	c #EFC8B4",
"~.	c #E5BCA0",
"{.	c #F6D9CE",
"].	c #FBE2DB",
"^.	c #ECD1C1",
"/.	c #6F6A1D",
"(.	c #436918",
"_.	c #4FA900",
":.	c #936F52",
"<.	c #EFC9B5",
"[.	c #C59B7B",
"}.	c #E1BBAA",
"|.	c #D8B3A4",
"1.	c #764F31",
"2.	c #F3E3DC",
"3.	c #B38C77",
"4.	c #8D674A",
"5.	c #F9D5C9",
"6.	c #DCB398",
"7.	c #F4CEBE",
"8.	c #BE9576",
"9.	c #505923",
"0.	c #835C41",
"a.	c #9A6F52",
"b.	c #A87E60",
"c.	c #885635",
"d.	c #7B4A28",
"e.	c #AB8062",
"f.	c #995B33",
"g.	c #995A33",
"h.	c #D1AA90",
"i.	c #B88D6E",
"j.	c #52552C",
"k.	c #756132",
"l.	c #A67A5C",
"m.	c #8A5A3B",
"n.	c #AC7A5C",
"o.	c #905A3E",
"p.	c #985B3D",
"q.	c #985C3D",
"r.	c #E79574",
"s.	c #A25D31",
"t.	c #BE9677",
"u.	c #C49C7C",
"v.	c #DDB390",
"w.	c #B5896A",
"x.	c #DCB28F",
"y.	c #996F52",
"z.	c #4F6018",
"A.	c #559B00",
"B.	c #569401",
"C.	c #745934",
"D.	c #A07559",
"E.	c #FBC39E",
"F.	c #D38768",
"G.	c #E1A482",
"H.	c #E6AD8A",
"I.	c #EA9E7D",
"J.	c #C77E5E",
"K.	c #754F32",
"L.	c #936E53",
"M.	c #A97C5E",
"N.	c #C49979",
"O.	c #D2A886",
"P.	c #936B51",
"Q.	c #425D14",
"R.	c #C88660",
"S.	c #FAC29E",
"T.	c #90471A",
"U.	c #824018",
"V.	c #9C5023",
"W.	c #D28360",
"X.	c #E5B18F",
"Y.	c #D98E6F",
"Z.	c #8F6A4E",
"`.	c #B68B6C",
" +	c #9A6C50",
".+	c #BD7D59",
"++	c #C1825E",
"@+	c #D3A886",
"#+	c #C99E7E",
"$+	c #A87B5D",
"%+	c #936C51",
"&+	c #487100",
"*+	c #C28074",
"=+	c #25314A",
"-+	c #705746",
";+	c #B07754",
">+	c #F9C19D",
",+	c #F6BA97",
"'+	c #7D563A",
")+	c #8B6246",
"!+	c #985F43",
"~+	c #F8C9B0",
"{+	c #D59172",
"]+	c #A67D60",
"^+	c #6C4931",
"/+	c #466408",
"(+	c #C88966",
"_+	c #FAC9AA",
":+	c #CC8365",
"<+	c #000076",
"[+	c #EDEDE9",
"}+	c #B07A57",
"|+	c #73482B",
"1+	c #D98B6D",
"2+	c #945D41",
"3+	c #B16A46",
"4+	c #765540",
"5+	c #AA7C5E",
"6+	c #205100",
"7+	c #3F6123",
"8+	c #8D7429",
"9+	c #EEBC9E",
"0+	c #FBDDC9",
"a+	c #DBA9AA",
"b+	c #6272F4",
"c+	c #F9F0EA",
"d+	c #E9B18E",
"e+	c #E5AF8D",
"f+	c #EDA180",
"g+	c #663E20",
"h+	c #5A361B",
"i+	c #765640",
"j+	c #2E6F00",
"k+	c #A07731",
"l+	c #F7C0A1",
"m+	c #FBDBC6",
"n+	c #FBDCC8",
"o+	c #FBD7C1",
"p+	c #F3BC99",
"q+	c #462A15",
"r+	c #795135",
"s+	c #9C7154",
"t+	c #785135",
"u+	c #855D42",
"v+	c #5F5F29",
"w+	c #337200",
"x+	c #3F522E",
"y+	c #645D29",
"z+	c #A66C55",
"A+	c #F9C3A0",
"B+	c #C58E56",
"C+	c #855A2D",
"D+	c #684123",
"E+	c #674022",
"F+	c #55472C",
"G+	c #4C6320",
"H+	c #435922",
"I+	c #723E15",
"J+	c #D49072",
"K+	c #EAB08C",
"L+	c #F6B895",
"M+	c #F4B592",
"N+	c #C95D4D",
"O+	c #8E1327",
"P+	c #B67742",
"Q+	c #7B5025",
"R+	c #5D3A1F",
"S+	c #5A381D",
"T+	c #3B400B",
"U+	c #8BB100",
"V+	c #719A00",
"W+	c #557702",
"X+	c #5E3115",
"Y+	c #7F4F3D",
"Z+	c #9F613D",
"`+	c #C8813F",
" @	c #901827",
".@	c #570419",
"+@	c #563811",
"@@	c #2C6903",
"#@	c #43571B",
"$@	c #567209",
"%@	c #61A000",
"&@	c #497103",
"*@	c #A48264",
"=@	c #AC6E67",
"-@	c #A92821",
";@	c #6C4426",
">@	c #7D5539",
",@	c #B88340",
"'@	c #4F3511",
")@	c #86581A",
"!@	c #46631D",
"~@	c #479900",
"{@	c #7F8471",
"]@	c #A79A91",
"^@	c #8D7A6E",
"/@	c #8E664B",
"(@	c #D2AC92",
"_@	c #BD947E",
":@	c #55260E",
"<@	c #AC5421",
"[@	c #525316",
"}@	c #376B0D",
"|@	c #4F9A00",
"1@	c #6A704B",
"2@	c #B3B0A9",
"3@	c #AB8879",
"4@	c #DFB79E",
"5@	c #D7AEA0",
"6@	c #523421",
"7@	c #3A231A",
"8@	c #37221A",
"9@	c #354018",
"0@	c #509B00",
"a@	c #408300",
"b@	c #359000",
"c@	c #183300",
"d@	c #BD9277",
"e@	c #B37F64",
"f@	c #DB9271",
"g@	c #DDAA89",
"h@	c #77452C",
"i@	c #BA5D25",
"j@	c #4E3227",
"k@	c #27390E",
"l@	c #8D6247",
"m@	c #CB7E5E",
"n@	c #E2AE8D",
"o@	c #523F33",
"p@	c #2F3B1A",
"q@	c #4B5B32",
"r@	c #454F2F",
"s@	c #7E3B1A",
"t@	c #8D3E13",
"u@	c #A14D20",
"v@	c #B5826A",
"w@	c #EFAD92",
"x@	c #7D5C48",
"y@	c #2A1106",
"z@	c #4A473C",
"A@	c #636E50",
"B@	c #88B000",
"C@	c #646720",
"D@	c #B7B3AC",
"E@	c #87401A",
"F@	c #989384",
"G@	c #68655F",
"H@	c #A49F8D",
"I@	c #BAB4A8",
"J@	c #B0AB9C",
"K@	c #6A6458",
"L@	c #3C7A00",
"M@	c #34490D",
"N@	c #6C411A",
"O@	c #7A664F",
"P@	c #793615",
"Q@	c #7D766F",
"R@	c #7D7770",
"S@	c #7C766F",
"T@	c #545A44",
"U@	c #4E7300",
"V@	c #97171C",
"W@	c #B21B20",
"X@	c #A05A28",
"Y@	c #945B24",
"Z@	c #53490E",
"`@	c #465B1D",
" #	c #66361A",
".#	c #AF6827",
"+#	c #B06827",
"@#	c #583511",
"##	c #4E9700",
"$#	c #43340F",
"%#	c #740F15",
"&#	c #861429",
"*#	c #453B0E",
"=#	c #549300",
"-#	c #2A3F00",
";#	c #DC3A15",
">#	c #E33910",
",#	c #841122",
"'#	c #3A6805",
")#	c #3F493C",
"!#	c #3C3C3C",
"~#	c #334326",
"  . + @ #   $ % & & * = * %   - ; > -   % , ' % ; # # ) - , ' ! ",
"~ { ] ^ / * ( _ / / :   # , < * % ; < % ; < ' ( [ & # ;   } } ' ",
"_ <   ; @ | 1 2 3 ) )   % , # ;   = = < ) : 4 + 5 < # / = 6 & 7 ",
"  ' = % ! % 8 [ ' 9 % ) 0 a b c d e f g h ' < @ ~ # # # # = = i ",
"# # / , j 5 k .   ' l m n o p p p p q r s t - * ) j 9 >   ' - } ",
"< = ^   )   u k 3 v w x o p p p p p p y z A 9 9 B C k u j , ^ # ",
"< ~ | D E < < - F G p p p p p p p p p p p H I J D _ : g # & / & ",
"~ K @ L L   % M G p p p p p p p p p p p H N O P [ % 9 Q ' R = < ",
"& & ~ [ S % T U V W X Y Z ` p H p p Z Z  ...+.@.#.C $.$.3 %.% % ",
"& ~ # %.3 % &.*.=.-.;.>.,.'.).!.~.~.{.{.].^.V p /.j 1 7 (.) - , ",
", ' (._.+ ; :.<.[.}.|.1.2.3.4.2.5.6.V 7.~.~.p p 8.9.i (.~ ^ # ~ ",
"' - 7 [ } , 0.Y a.b.c.d.e.f.g.h.X i.p ).p p p p a.j.* # R : = _ ",
"' -   - * , k.l.m.n.o.p.q.r.s.t.u.Y v.w.p p x.x.y.z.. j : , ' A.",
"5 C k ' ) 9 B.C.D.E.F.G.H.I.J.K.L.y w.M.N.p O.O.P.Q.9 L _ ' _ _ ",
"L ; = # ; D ; , R.S.T.U.V.W.X.Y.Z.`. +.+++@+#+$+%+&+  ! C 9 % < ",
"- } # = . . , ; R.S.*+=+-+;+>+,+'+)+!+~+{+]+$+M.^+/+, ) E 5 D % ",
"' 9 ; j % * ' % (+_+:+<+[+}+>+>+|+1+2+3+4+5+M.5+6+7+# # # < - % ",
"_ - -   ; < : 8+9+0+a+b+c+d+>+>+e+f+g+h+5+M.)+i+j+k ! 3 _ - = } ",
"% } = ) ) : 4 k+l+m+n+o+>+>+>+>+p+{+q+r+s+t+u+v+$.$.$.! S ' (.* ",
"w+/ x+w+@ : < y+z+l+_+A+>+>+>+>+B+C+D+r+E+D+F+G+- [ + g h = % ' ",
"- @ 4 ] { B - * H+I+J+K+L+L+M+N+O+P+Q+R+S+T+C U+_ + 2 + %.% . ) ",
"E > ( g %.L _ [ B V+W+X+Y+Y+Z+`+ @.@+@@@#@$@% > %@5 8 8   %.w+R ",
"- . > R %.C 3 3 3 [ &@*@=@-@;@>@,@'@)@w+6 # } - - 9 % < - ) _ L ",
"- h R !@< 9 ~@%@Q   {@]@^@/@(@_@:@<@[@; = # & # / ) 1 }@< 9 C |@",
"> - 6 (.4 % [ ~@! C 1@2@3@4@5@6@7@8@9@= # * < ~ & = < ' . 3   ) ",
"0@a@!@- + Q $.C C a@b@c@d@e@f@g@h@i@j@} # - ' ^ & ) _ A.9 ] 7+# ",
"^ w+{ - % D ! [ 7 ) w+k@l@m@_+0+n@o@p@q@, _ 3 8 @ ' _ - (.+ 0@' ",
"/ Q ~@9 j ' w+|@%., r@s@t@u@v@w@x@y@z@A@(.5 3 !@/ ' ; = } (.. 9 ",
"~ _ B@> w+@ 4 + D - C@D@E@E@F@G@H@I@J@K@4 S 9 ^ & ~ < _ 3 ' L@+ ",
"; 0@B (.2 g , h Q M@N@O@P@P@Q@R@Q@S@K@T@. S - / / ; D k j j ( ) ",
"9 ' , - 2 % } * U@V@W@X@Y@Z@% `@ #.#+#@#S > , , < %   , / x+: ' ",
"' * ) ; - , , 9 ##$#%#&#*#=#> -#;#>#,#'#U+E . D ' ( ^ x+)#!#~#R "};
