/* XPM */
static char * sprite_mc_back_walk_2_xpm[] = {
"32 32 369 2",
"  	c #59750A",
". 	c #538200",
"+ 	c #449B00",
"@ 	c #405B24",
"# 	c #4A4D45",
"$ 	c #65A200",
"% 	c #567B01",
"& 	c #464744",
"* 	c #4C5735",
"= 	c #4A533C",
"- 	c #4D6B18",
"; 	c #516E13",
"> 	c #638E00",
", 	c #4B5C30",
"' 	c #51730B",
") 	c #4A6226",
"! 	c #749C00",
"~ 	c #494C42",
"{ 	c #3E7400",
"] 	c #328A00",
"^ 	c #495334",
"/ 	c #474A42",
"( 	c #3C8200",
"_ 	c #5A8500",
": 	c #4B7402",
"< 	c #4E6521",
"[ 	c #438A00",
"} 	c #465935",
"| 	c #2B6219",
"1 	c #369300",
"2 	c #48A200",
"3 	c #4F9200",
"4 	c #306A0C",
"5 	c #569700",
"6 	c #44523B",
"7 	c #48720D",
"8 	c #308200",
"9 	c #578B00",
"0 	c #64521E",
"a 	c #63521E",
"b 	c #5F581D",
"c 	c #624F20",
"d 	c #61432E",
"e 	c #62442E",
"f 	c #42730B",
"g 	c #36631A",
"h 	c #377306",
"i 	c #4D7B00",
"j 	c #5D9E00",
"k 	c #6D6B2C",
"l 	c #946F53",
"m 	c #DFB592",
"n 	c #E0B692",
"o 	c #AC8668",
"p 	c #856F48",
"q 	c #559700",
"r 	c #6A9300",
"s 	c #5E6F18",
"t 	c #CEA685",
"u 	c #E0B693",
"v 	c #DAB18E",
"w 	c #8D7C48",
"x 	c #639B00",
"y 	c #82AD00",
"z 	c #589400",
"A 	c #6B8400",
"B 	c #6A7727",
"C 	c #D4AE93",
"D 	c #DFB591",
"E 	c #877448",
"F 	c #4F8F00",
"G 	c #347B00",
"H 	c #355B24",
"I 	c #7BA500",
"J 	c #5B4A2C",
"K 	c #F9D5C9",
"L 	c #EEC8B4",
"M 	c #877948",
"N 	c #3E8C00",
"O 	c #4C6B0D",
"P 	c #72A300",
"Q 	c #48611C",
"R 	c #86664E",
"S 	c #E7C4AC",
"T 	c #FDECEA",
"U 	c #FAD8CE",
"V 	c #EDCCBA",
"W 	c #F3CEBE",
"X 	c #E4BB9E",
"Y 	c #DEB491",
"Z 	c #E7BEA3",
"` 	c #E1B897",
" .	c #E7BFA4",
"..	c #719008",
"+.	c #7CA900",
"@.	c #417B00",
"#.	c #4F473A",
"$.	c #C8A180",
"%.	c #E7BEA4",
"&.	c #EDCAB7",
"*.	c #FAD8CD",
"=.	c #FDE9E6",
"-.	c #F8D4C7",
";.	c #FAE1DB",
">.	c #F7DED6",
",.	c #E1B796",
"'.	c #F4CEBF",
").	c #E5BC9F",
"!.	c #F5D1C2",
"~.	c #916D4A",
"{.	c #527208",
"].	c #436918",
"^.	c #4FA900",
"/.	c #565B1D",
"(.	c #CBA282",
"_.	c #E5BCA0",
":.	c #DCB290",
"<.	c #B5896A",
"[.	c #AA7D5F",
"}.	c #755137",
"|.	c #244F03",
"1.	c #593F2E",
"2.	c #D3A987",
"3.	c #D3A887",
"4.	c #A87B5D",
"5.	c #997055",
"6.	c #464B2A",
"7.	c #685E31",
"8.	c #794C31",
"9.	c #AA7B5C",
"0.	c #7C5438",
"a.	c #956548",
"b.	c #6D5E1F",
"c.	c #559B00",
"d.	c #686229",
"e.	c #D18561",
"f.	c #DE8D6B",
"g.	c #B98062",
"h.	c #C49979",
"i.	c #DA8969",
"j.	c #DD8C6B",
"k.	c #927929",
"l.	c #6C6C1D",
"m.	c #C37F5D",
"n.	c #FAD2BD",
"o.	c #A08371",
"p.	c #B98E6F",
"q.	c #D6AC8A",
"r.	c #9F7356",
"s.	c #C99F7E",
"t.	c #F9C5A5",
"u.	c #D89B82",
"v.	c #936E2B",
"w.	c #4B7600",
"x.	c #AC7F69",
"y.	c #A17A61",
"z.	c #B98D6E",
"A.	c #C49A7A",
"B.	c #BA8E6F",
"C.	c #6D4629",
"D.	c #B68A6B",
"E.	c #7D5539",
"F.	c #D89375",
"G.	c #535C19",
"H.	c #466408",
"I.	c #5A371D",
"J.	c #9F7456",
"K.	c #D7AD8A",
"L.	c #A97C5E",
"M.	c #C99E7E",
"N.	c #9B7053",
"O.	c #674021",
"P.	c #90664A",
"Q.	c #674022",
"R.	c #215200",
"S.	c #3F6123",
"T.	c #416501",
"U.	c #7D563A",
"V.	c #AE8163",
"W.	c #AD8162",
"X.	c #9E7255",
"Y.	c #8A6145",
"Z.	c #A6795C",
"`.	c #785034",
" +	c #684123",
".+	c #184000",
"++	c #2B600A",
"@+	c #71521F",
"#+	c #674023",
"$+	c #785135",
"%+	c #9C7154",
"&+	c #A67A5C",
"*+	c #9C7054",
"=+	c #865E42",
"-+	c #7A4F24",
";+	c #557600",
">+	c #337200",
",+	c #3F522E",
"'+	c #814A28",
")+	c #A16B27",
"!+	c #885C36",
"~+	c #663F21",
"{+	c #A06C28",
"]+	c #944F29",
"^+	c #682F28",
"/+	c #BC4B27",
"(+	c #B13B25",
"_+	c #815425",
":+	c #643F1D",
"<+	c #5B391D",
"[+	c #694123",
"}+	c #643E21",
"|+	c #56351A",
"1+	c #805425",
"2+	c #A13821",
"3+	c #C1542E",
"4+	c #872622",
"5+	c #3C7D00",
"6+	c #6E4B1F",
"7+	c #744D28",
"8+	c #774E1F",
"9+	c #B8765A",
"0+	c #B4735A",
"a+	c #301C0A",
"b+	c #351F0E",
"c+	c #774B37",
"d+	c #CD8468",
"e+	c #694518",
"f+	c #6E4724",
"g+	c #855C2D",
"h+	c #566F04",
"i+	c #61A000",
"j+	c #79780F",
"k+	c #582408",
"l+	c #000000",
"m+	c #DBA989",
"n+	c #FAC4A1",
"o+	c #FAC9AA",
"p+	c #EEA382",
"q+	c #F7C0A1",
"r+	c #FAC8A7",
"s+	c #FAC29D",
"t+	c #483328",
"u+	c #6C320E",
"v+	c #262F1C",
"w+	c #46631D",
"x+	c #479900",
"y+	c #487211",
"z+	c #703A1D",
"A+	c #5E2F1A",
"B+	c #1B1613",
"C+	c #846958",
"D+	c #967B6B",
"E+	c #E7CAB8",
"F+	c #F9C19D",
"G+	c #FBD6BE",
"H+	c #988376",
"I+	c #977966",
"J+	c #3A231A",
"K+	c #713A1D",
"L+	c #37241D",
"M+	c #4E473F",
"N+	c #376B0D",
"O+	c #4F9A00",
"P+	c #817C2F",
"Q+	c #75442D",
"R+	c #944925",
"S+	c #664233",
"T+	c #526325",
"U+	c #824B1C",
"V+	c #AB9C8B",
"W+	c #A09D97",
"X+	c #8E8B88",
"Y+	c #9A9897",
"Z+	c #969492",
"`+	c #8A8681",
" @	c #C2BCB1",
".@	c #945A3E",
"+@	c #0E100E",
"@@	c #814022",
"#@	c #A75D36",
"$@	c #302C26",
"%@	c #509B00",
"&@	c #408300",
"*@	c #B8836A",
"=@	c #E6C8B4",
"-@	c #483C33",
";@	c #43372E",
">@	c #33471D",
",@	c #634131",
"'@	c #A27A6B",
")@	c #B88B7D",
"!@	c #C1988E",
"~@	c #BE9388",
"{@	c #B58576",
"]@	c #57493B",
"^@	c #453025",
"/@	c #55301A",
"(@	c #A05F38",
"_@	c #D38B6F",
":@	c #9E5C3F",
"<@	c #B57453",
"[@	c #F7B995",
"}@	c #84421D",
"|@	c #1F2C11",
"1@	c #3D660F",
"2@	c #863A12",
"3@	c #C0B6B3",
"4@	c #605F5E",
"5@	c #40362F",
"6@	c #3F362E",
"7@	c #5E5D5C",
"8@	c #89827F",
"9@	c #AA7B6F",
"0@	c #695753",
"a@	c #986B57",
"b@	c #895429",
"c@	c #2B7600",
"d@	c #666321",
"e@	c #7F4F3D",
"f@	c #4A4009",
"g@	c #495A2F",
"h@	c #635F51",
"i@	c #B7B2AA",
"j@	c #7D3B1F",
"k@	c #924727",
"l@	c #8F4118",
"m@	c #8F4016",
"n@	c #8F4C35",
"o@	c #B3A7A1",
"p@	c #908B7E",
"q@	c #678A52",
"r@	c #478500",
"s@	c #88B000",
"t@	c #525839",
"u@	c #B0ADA6",
"v@	c #BEBBB4",
"w@	c #AEAA9B",
"x@	c #B4B0A5",
"y@	c #C4C1BB",
"z@	c #4C543D",
"A@	c #6D971C",
"B@	c #3C7A00",
"C@	c #826920",
"D@	c #9A6A53",
"E@	c #8A8682",
"F@	c #907D73",
"G@	c #8E4D2A",
"H@	c #566E00",
"I@	c #440712",
"J@	c #6F201F",
"K@	c #512D0E",
"L@	c #2C1E07",
"M@	c #9B5B25",
"N@	c #7B2216",
"O@	c #581D15",
"P@	c #415029",
"Q@	c #557405",
"R@	c #648412",
"S@	c #5A8200",
"T@	c #2C4100",
"U@	c #A32224",
"V@	c #E73B0F",
"W@	c #701122",
"X@	c #397800",
"Y@	c #8BB100",
"Z@	c #3F493C",
"`@	c #3C3C3C",
" #	c #334326",
"  . + @ #   $ % & & * = * %   - ; > -   % , ' % ; # # ) - , ' ! ",
"~ { ] ^ / * ( _ / / :   # , < * % ; < % ; < ' ( [ & # ;   } } ' ",
"_ <   ; @ | 1 2 3 ) )   % , # ;   = = < ) : 4 + 5 < # / = 6 & 7 ",
"  ' = % ! % 8 [ ' 9 % ) 0 a b 0 c d e f g ' < @ ~ # # # # = = h ",
"# # / , i 5 j .   ' k l m m m m m m n o p q - * ) i 9 >   ' - } ",
"< = ^   )   r j 3 s t u m m m m m m m n v w 9 9 x y j r i , ^ # ",
"< ~ | z A < < - B C D m m m m m m m m m m m E F z _ : G # & / & ",
"~ H @ I I   % J C K L D m m m m m m m m m m v M [ % 9 N ' O = < ",
"& & ~ [ P % Q R S T U V W X W Y Z ` D m  .` n o ..y +.+.3 @.% % ",
"& ~ # @.3 % #.$.%.&.*.=.-.;.W L >.,.'.).!.,.m n ~.{.1 7 ].) - , ",
", ' ].^.+ ; /.(.m m _._.D L D L m m L D m m :.<.[.}.|.].~ ^ # ~ ",
"' - 7 [ } , 1.2.m m m m m D m D m m D m m m 3.4.5.6.* # O : = _ ",
"' -   - * 7.8.9.m m m m m m m m m m m m m m 2.0.a.b.. i : , ' c.",
"5 y j ' d.e.f.g.h.m m m m m m m m m m h.m m 2.0.i.j.k.I _ ' _ _ ",
"I ; = # l.m.n.o.p.m m m m m m q.m q.u p.r.s.2.0.t.u.v.! y 9 % < ",
"- } # = . w.x.y.p.m h.m m h.m z.m z.A.B.C.r.D.E.F.G., ) A 5 z % ",
"' 9 ; i % * H.I.J.[.p.K.s.L.M.L.D.D.L.L.N.O.P.Q.R.S.# # # < - % ",
"_ - -   ; < T.I.C.U.V.W.X.r.L.Y.L.L.Y.L.Z.`.Q. +.+j ! 3 _ - = } ",
"% } = ) ) : ++@+#+$+%+`.Y.[.&+`.J.[.J.C.*+=+#+-+;++.+.! P ' ].* ",
">+/ ,+>+@ : < '+)+!+~+P.[.Y.`.Q.C.U.L.J.O.$+{+]+- [ + G g = % ' ",
"- @ 4 ] { x - ^+/+(+_+:+<+[+[+[+[+[+}+|+1+2+3+4+_ + 2 + @.% . ) ",
"A > ( G @.I _ 5+6+7+8+9+0+a+b+b+b+b+c+d+e+f+g+h+i+5 8 8   @.>+O ",
"- . > O @.y 3 3 j+k+l+m+n+o+p+p+p+q+r+s+t+u+v+- - 9 % < - ) _ I ",
"- g O w+< 9 x+y+z+A+B+C+D+E+F+F+F+G+H+I+J+K+L+M+/ ) 1 N+< 9 y O+",
"> - 6 ].4 % P+Q+R+S+T+U+V+W+X+Y+Z+`+ @.@+@@@#@$@& = < ' . 3   ) ",
"%@&@w+- + N *@=@-@;@1 >@,@'@)@!@~@{@]@^@/@(@_@:@& ) _ c.9 ] S.# ",
"^ >+{ - % z <@[@}@|@1@2@3@4@5@5@6@7@8@9@0@a@b@c@@ ' _ - ].+ %@' ",
"/ N x+9 i ' d@e@f@g@h@i@j@k@l@l@l@m@n@o@p@q@r@w+/ ' ; = } ].. 9 ",
"~ _ s@> >+@ 4 + z - t@u@v@w@w@w@w@w@x@y@z@A@9 ^ & ~ < _ 3 ' B@+ ",
"; %@x ].2 G , g N - 9 C@D@E@`+`+`+`+F@G@. P - / / ; z j i i ( ) ",
"9 ' , - 2 % } * _ . ' H@I@J@K@L@M@N@O@P@P > , , < %   , / ,+: ' ",
"' * ) ; - , , 9 %@' , , Q@R@S@T@U@V@W@X@Y@A . z ' ( ^ ,+Z@`@ #O "};
