/* XPM */
static char * sprite_mc_face_stand_xpm[] = {
"32 32 490 2",
"  	c #59750A",
". 	c #538200",
"+ 	c #449B00",
"@ 	c #405B24",
"# 	c #4A4D45",
"$ 	c #65A200",
"% 	c #567B01",
"& 	c #464744",
"* 	c #4C5735",
"= 	c #4A533C",
"- 	c #4D6B18",
"; 	c #516E13",
"> 	c #638E00",
", 	c #4B5C30",
"' 	c #51730B",
") 	c #4A6226",
"! 	c #749C00",
"~ 	c #494C42",
"{ 	c #3E7400",
"] 	c #328A00",
"^ 	c #495334",
"/ 	c #474A42",
"( 	c #3C8200",
"_ 	c #5A8500",
": 	c #4B7402",
"< 	c #4E6521",
"[ 	c #438A00",
"} 	c #465935",
"| 	c #2B6219",
"1 	c #369300",
"2 	c #48A200",
"3 	c #4F9200",
"4 	c #586E06",
"5 	c #51542A",
"6 	c #50483C",
"7 	c #556313",
"8 	c #5B690C",
"9 	c #504D35",
"0 	c #504D34",
"a 	c #4F6320",
"b 	c #306A0C",
"c 	c #569700",
"d 	c #44523B",
"e 	c #48720D",
"f 	c #308200",
"g 	c #578B00",
"h 	c #5A730B",
"i 	c #624B24",
"j 	c #C8A080",
"k 	c #C8A180",
"l 	c #856F48",
"m 	c #56531F",
"n 	c #377306",
"o 	c #4D7B00",
"p 	c #5D9E00",
"q 	c #546B0C",
"r 	c #AC8668",
"s 	c #E0B692",
"t 	c #DFB592",
"u 	c #CEA685",
"v 	c #6B832A",
"w 	c #6A9300",
"x 	c #528603",
"y 	c #B59270",
"z 	c #E0B693",
"A 	c #B08768",
"B 	c #616B18",
"C 	c #639B00",
"D 	c #82AD00",
"E 	c #589400",
"F 	c #6B8400",
"G 	c #53651A",
"H 	c #AE896E",
"I 	c #F6D0C2",
"J 	c #E4BC9F",
"K 	c #DFB591",
"L 	c #AC8264",
"M 	c #61781E",
"N 	c #347B00",
"O 	c #355B24",
"P 	c #7BA500",
"Q 	c #614628",
"R 	c #E8C4AD",
"S 	c #FDE8E4",
"T 	c #F9D4C9",
"U 	c #EEC8B4",
"V 	c #E5BC9F",
"W 	c #F4CEBF",
"X 	c #D6AC8A",
"Y 	c #E5BCA0",
"Z 	c #D4A988",
"` 	c #7C5438",
" .	c #3E8C00",
"..	c #4C6B0D",
"+.	c #72A300",
"@.	c #4C5A19",
"#.	c #E7BEA3",
"$.	c #F7DED6",
"%.	c #FBDBD2",
"&.	c #FDECEA",
"*.	c #F5D0C2",
"=.	c #F6D5C9",
"-.	c #F1CBBC",
";.	c #E1B89C",
">.	c #FADED6",
",.	c #F4D3C6",
"'.	c #BD9576",
").	c #FAD6CC",
"!.	c #E7BEA4",
"~.	c #D7AD8A",
"{.	c #B98E6F",
"].	c #6B631D",
"^.	c #7CA900",
"/.	c #417B00",
"(.	c #86674E",
"_.	c #DAB08E",
":.	c #E1B897",
"<.	c #E1B796",
"[.	c #ECC5AF",
"}.	c #EDCAB7",
"|.	c #E6BEA3",
"1.	c #D8AF94",
"2.	c #E8C3B6",
"3.	c #E5C2A8",
"4.	c #C39877",
"5.	c #885737",
"6.	c #AD8162",
"7.	c #AE8163",
"8.	c #6F6B1D",
"9.	c #436918",
"0.	c #4FA900",
"a.	c #429600",
"b.	c #546316",
"c.	c #AC8769",
"d.	c #D7AD8B",
"e.	c #C49A79",
"f.	c #9E7355",
"g.	c #D3A987",
"h.	c #C99F7E",
"i.	c #9E7356",
"j.	c #90542D",
"k.	c #814D2A",
"l.	c #C69C7C",
"m.	c #D0A685",
"n.	c #B9917B",
"o.	c #A5795B",
"p.	c #936B51",
"q.	c #405520",
"r.	c #445633",
"s.	c #393017",
"t.	c #BA8F70",
"u.	c #8F674B",
"v.	c #8F664A",
"w.	c #90674B",
"x.	c #7C5439",
"y.	c #B68A6B",
"z.	c #9A5C35",
"A.	c #DF8D6C",
"B.	c #935C40",
"C.	c #764E32",
"D.	c #A87F61",
"E.	c #E7C3B6",
"F.	c #845B3E",
"G.	c #415029",
"H.	c #565835",
"I.	c #B37149",
"J.	c #C4754D",
"K.	c #885232",
"L.	c #A67A5C",
"M.	c #775034",
"N.	c #895838",
"O.	c #B16B46",
"P.	c #7C5539",
"Q.	c #9F7356",
"R.	c #945833",
"S.	c #E18F6E",
"T.	c #DF9171",
"U.	c #A7775A",
"V.	c #B2795A",
"W.	c #9C7255",
"X.	c #7D5539",
"Y.	c #B66946",
"Z.	c #C3764F",
"`.	c #6E7D16",
" +	c #559B00",
".+	c #71632A",
"++	c #DD8C6B",
"@+	c #F8CEB8",
"#+	c #9F7B67",
"$+	c #885838",
"%+	c #A45F34",
"&+	c #934F26",
"*+	c #81441D",
"=+	c #D28769",
"-+	c #C07C5F",
";+	c #BF7C5F",
">+	c #EDB28E",
",+	c #EDA080",
"'+	c #B36C4A",
")+	c #B87B5A",
"!+	c #BE7E5C",
"~+	c #8A5A3B",
"{+	c #6D4629",
"]+	c #F6BE9F",
"^+	c #EEA88C",
"/+	c #A27131",
"(+	c #3B6700",
"_+	c #D99C83",
":+	c #9A7967",
"<+	c #814D29",
"[+	c #B37854",
"}+	c #723A2B",
"|+	c #363D57",
"1+	c #421C05",
"2+	c #A85E31",
"3+	c #F9C19D",
"4+	c #FAC29E",
"5+	c #C88660",
"6+	c #743E30",
"7+	c #431B00",
"8+	c #6F3E1A",
"9+	c #874D27",
"0+	c #764422",
"a+	c #EDAC8B",
"b+	c #735934",
"c+	c #554E2D",
"d+	c #43271C",
"e+	c #975025",
"f+	c #B09C83",
"g+	c #C4C5C7",
"h+	c #323855",
"i+	c #4F4F45",
"j+	c #CF8F71",
"k+	c #E59C7B",
"l+	c #878477",
"m+	c #363B57",
"n+	c #7B7B7C",
"o+	c #B5AFA2",
"p+	c #AD6134",
"q+	c #764322",
"r+	c #736134",
"s+	c #4F700A",
"t+	c #466408",
"u+	c #5A371D",
"v+	c #603317",
"w+	c #BE987D",
"x+	c #E1E2FF",
"y+	c #2F3DB0",
"z+	c #9398FC",
"A+	c #F4C2AF",
"B+	c #FBD7C1",
"C+	c #FAC8A9",
"D+	c #FACEB3",
"E+	c #F1B498",
"F+	c #9498FC",
"G+	c #D5C3B4",
"H+	c #9D5931",
"I+	c #281709",
"J+	c #215200",
"K+	c #3F6123",
"L+	c #416501",
"M+	c #59351A",
"N+	c #D28668",
"O+	c #F6DFD8",
"P+	c #E2CAD8",
"Q+	c #E9D2D7",
"R+	c #FBDAC5",
"S+	c #FBDCC8",
"T+	c #E6C6CD",
"U+	c #ECA185",
"V+	c #5E351B",
"W+	c #653F22",
"X+	c #184000",
"Y+	c #937723",
"Z+	c #BA7B3E",
"`+	c #8D522A",
" @	c #E59978",
".@	c #F9C09C",
"+@	c #F9C7A7",
"@@	c #FAD6BE",
"#@	c #FBD6BF",
"$@	c #F1B295",
"%@	c #FAD5BE",
"&@	c #FAD0B6",
"*@	c #FAC19D",
"=@	c #F1AE8C",
"-@	c #AF6945",
";@	c #885A28",
">@	c #B27233",
",@	c #337200",
"'@	c #3F522E",
")@	c #743228",
"!@	c #BA2A1E",
"~@	c #A9291B",
"{@	c #673B25",
"]@	c #B97B59",
"^@	c #F1AC8A",
"/@	c #F9C19C",
"(@	c #F7BA97",
"_@	c #C78565",
":@	c #774936",
"<@	c #942017",
"[@	c #BA3D20",
"}@	c #931326",
"|@	c #36631A",
"1@	c #AA7532",
"2@	c #93673E",
"3@	c #A06B26",
"4@	c #8A593A",
"5@	c #87523A",
"6@	c #9C592F",
"7@	c #CC8367",
"8@	c #CC8468",
"9@	c #AA6644",
"0@	c #945532",
"a@	c #81513F",
"b@	c #A06B27",
"c@	c #875B35",
"d@	c #B98441",
"e@	c #91A210",
"f@	c #432713",
"g@	c #9C7154",
"h@	c #8F5A3F",
"i@	c #E79D7D",
"j@	c #945C4F",
"k@	c #7E0C1E",
"l@	c #A21315",
"m@	c #961119",
"n@	c #6E0D22",
"o@	c #DFA585",
"p@	c #B47356",
"q@	c #5C381E",
"r@	c #597D03",
"s@	c #61A000",
"t@	c #597204",
"u@	c #936C51",
"v@	c #EBC7B9",
"w@	c #BF967F",
"x@	c #725A4B",
"y@	c #7F7A73",
"z@	c #E1A989",
"A@	c #EC9B7A",
"B@	c #EBA686",
"C@	c #9C8576",
"D@	c #827871",
"E@	c #B08975",
"F@	c #E7BFA5",
"G@	c #C39B87",
"H@	c #332A14",
"I@	c #556A19",
"J@	c #46631D",
"K@	c #479900",
"L@	c #5A3A2A",
"M@	c #5C4536",
"N@	c #F4CFBF",
"O@	c #92705A",
"P@	c #D8D7D5",
"Q@	c #B9B1AA",
"R@	c #916A59",
"S@	c #A48F82",
"T@	c #E5E3E1",
"U@	c #82746B",
"V@	c #E2B898",
"W@	c #917461",
"X@	c #5F483B",
"Y@	c #4E463D",
"Z@	c #376B0D",
"`@	c #4F9A00",
" #	c #458701",
".#	c #304B16",
"+#	c #AC5522",
"@#	c #4D220E",
"##	c #986F53",
"$#	c #E4BEAC",
"%#	c #926A4F",
"&#	c #B5A8A1",
"*#	c #C4B3A9",
"=#	c #9B846D",
"-#	c #AB9787",
";#	c #D0C1B9",
">#	c #583E2C",
",#	c #4F392A",
"'#	c #9B491C",
")#	c #65361D",
"!#	c #4A423E",
"~#	c #509B00",
"{#	c #408300",
"]#	c #48551E",
"^#	c #A25327",
"/#	c #7D3A19",
"(#	c #10110F",
"_#	c #387211",
":#	c #A67E62",
"<#	c #705A56",
"[#	c #693D29",
"}#	c #6A3F2D",
"|#	c #6A3D2A",
"1#	c #7C6059",
"2#	c #5A402F",
"3#	c #B58A6A",
"4#	c #544133",
"5#	c #23310B",
"6#	c #502919",
"7#	c #48352C",
"8#	c #445A24",
"9#	c #6E4635",
"0#	c #A27D67",
"a#	c #734C3A",
"b#	c #4C3127",
"c#	c #4D6836",
"d#	c #75726D",
"e#	c #4F3A35",
"f#	c #69453B",
"g#	c #5E2D17",
"h#	c #5C280B",
"i#	c #5C2A10",
"j#	c #5D2E19",
"k#	c #745D58",
"l#	c #696663",
"m#	c #656253",
"n#	c #2B3E0B",
"o#	c #855946",
"p#	c #96745F",
"q#	c #8E6350",
"r#	c #51660E",
"s#	c #B26644",
"t#	c #EFA281",
"u#	c #613522",
"v#	c #585030",
"w#	c #585049",
"x#	c #C7C4BE",
"y#	c #857360",
"z#	c #B4561E",
"A#	c #937065",
"B#	c #D0C1BA",
"C#	c #BDAAA2",
"D#	c #B3551A",
"E#	c #794D38",
"F#	c #CCC8C0",
"G#	c #665F55",
"H#	c #4C7822",
"I#	c #754735",
"J#	c #D49072",
"K#	c #D88868",
"L#	c #676A0E",
"M#	c #88B000",
"N#	c #2B600A",
"O#	c #205100",
"P#	c #677408",
"Q#	c #734F37",
"R#	c #896A59",
"S#	c #B0541D",
"T#	c #684C3C",
"U#	c #B7B3AC",
"V#	c #7E7564",
"W#	c #B0551E",
"X#	c #6D4635",
"Y#	c #795B4C",
"Z#	c #765B18",
"`#	c #4E7E00",
" $	c #232917",
".$	c #2E2F2D",
"+$	c #3C7A00",
"@$	c #8E6B19",
"#$	c #ECAD91",
"$$	c #987161",
"%$	c #69321B",
"&$	c #65721F",
"*$	c #7E4226",
"=$	c #6C2E13",
"-$	c #E4BBA5",
";$	c #B36B49",
">$	c #415400",
",$	c #A86728",
"'$	c #B26727",
")$	c #8F5922",
"!$	c #43581B",
"~$	c #583511",
"{$	c #AF6827",
"]$	c #252E15",
"^$	c #A32124",
"/$	c #E63A0E",
"($	c #6F0E22",
"_$	c #4A6B01",
":$	c #400412",
"<$	c #D13319",
"[$	c #8BB100",
"}$	c #3F493C",
"|$	c #3C3C3C",
"1$	c #334326",
"  . + @ #   $ % & & * = * %   - ; > -   % , ' % ; # # ) - , ' ! ",
"~ { ] ^ / * ( _ / / :   # , < * % ; < % ; < ' ( [ & # ;   } } ' ",
"_ <   ; @ | 1 2 3 ) )   4 5 6 7 8 9 0 a ) : b + c < # / = d & e ",
"  ' = % ! % f [ ' g h i j j j j j j k l m ' < @ ~ # # # # = = n ",
"# # / , o c p .   q r s t t t t t t t t u v - * ) o g >   ' - } ",
"< = ^   )   w p x y s t t t t t t t t t z A B g C D p w o , ^ # ",
"< ~ | E F < < G H I J t K t K t t K t t t t L M E _ : N # & / & ",
"~ O @ P P   % Q R S T J U K U K V W X X Y Y Z ` [ % g  .' ..= < ",
"& & ~ [ +.% @.j #.$.%.&.*.=.-.;.>.,.'.'.).!.~.{.].D ^.^.3 /.% % ",
"& ~ # /.3 % (._.:.<.[.}.|.=.1.2.3.4.5.5.*.<.6.7.8.o 1 e 9.) - , ",
", ' 9.0.a.b.c.d.e.d.{.d.t X f.g.h.i.j.k.l.m.n.o.p.q.n 9.~ ^ # ~ ",
"' - e [ r.s.t.u.d.v.7.w.X v.x.y.i.z.A.B.C.D.E.F.p.G.* # ..: = _ ",
"' -   - H.I.J.K.L.M.L.N.v.O.P.Q.R.S.T.U.V.W.h.X.Y.Z.`.o : , '  +",
"c D p ' .+++@+#+$+%+M.&+*+=+-+;+>+,+'+)+!+~+Q.{+]+^+/+P _ ' _ _ ",
"P ; = # ; (+_+:+<+[+}+|+1+2+3+3+4+5+6+|+7+8+9+0+a+b+  ! D g % < ",
"- } # = . . c+d+e+f+g+h+i+j+3+3+3+k+l+m+n+o+p+q+r+s+, ) F c E % ",
"' g ; o % * t+u+v+w+x+y+z+A+B+C+D+E+x+y+F+G+H+I+J+K+# # # < - % ",
"_ - -   ; < L+u+M+N+O+P+Q+R+S+S+S+B+O+P+T+U+V+W+X+p ! 3 _ - = } ",
"% } = ) ) : b Y+Z+`+ @.@+@@@#@$@%@%@&@*@=@-@;@>@^.^.^.! +.' 9.* ",
",@/ '@,@@ : < )@!@~@{@]@^@3+/@3+/@/@(@_@:@<@[@}@- [ + N |@= % ' ",
"- @ b ] { C - * 1@2@3@4@5@6@7@7@8@9@0@a@b@c@d@e@_ + 2 + /.% . ) ",
"F > ( N /.P _ [ f@g@v.h@i@j@k@l@m@n@o@p@M.L.q@r@s@c f f   /.,@..",
"- . > ../.D 3 3 t@u@v@w@x@y@z@A@B@C@D@E@F@G@H@I@- g % < - ) _ P ",
"- |@..J@< g K@s@L@M@J N@O@P@Q@R@S@T@U@E.V@W@X@Y@/ ) 1 Z@< g D `@",
"> - d 9.b %  #.#+#@###$#%#&#*#=#-#;#>#$#o.,#'#)#!#= < ' . 3   ) ",
"~#{#J@- +  .]#^#/#(#_#:#p.<#[#}#|#1#2#3#4#5#6#+#7#8#_  +g ] K+# ",
"^ ,@{ - % E 9#0#a#b#c#d#e#f#g#h#i#j#k#l#m#n#o#p#q#r#_ - 9.+ ~#' ",
"/  .K@g o ' s#t#u#v#w#x#y#z#A#B#C#D#E#F#G#H#I#J#K#L#; = } 9.. g ",
"~ _ M#> ,@@ N#O#(+- P#Q#R#S#T#U#V#W#X#Y#Z#+.`# $.$~ < _ 3 ' +$+ ",
"; ~#C 9.2 N , |@ .- g @$#$$$%$&$*$=$-$;$. +.- / / ; E p o o ( ) ",
"g ' , - 2 % } * _ . ' >$,$'$)$!$~${${$~$+.> , , < %   , / '@: ' ",
"' * ) ; - , , g ~#' , ]$^$/$($_$:$<$<$:$[$F . E ' ( ^ '@}$|$1$.."};
