/* XPM */
static char * sprite_mc_left_stand_xpm[] = {
"32 32 379 2",
"  	c #59750A",
". 	c #538200",
"+ 	c #449B00",
"@ 	c #405B24",
"# 	c #4A4D45",
"$ 	c #65A200",
"% 	c #567B01",
"& 	c #464744",
"* 	c #4C5735",
"= 	c #4A533C",
"- 	c #4D6B18",
"; 	c #516E13",
"> 	c #638E00",
", 	c #4B5C30",
"' 	c #51730B",
") 	c #4A6226",
"! 	c #749C00",
"~ 	c #494C42",
"{ 	c #3E7400",
"] 	c #328A00",
"^ 	c #495334",
"/ 	c #474A42",
"( 	c #3C8200",
"_ 	c #5A8500",
": 	c #4B7402",
"< 	c #4E6521",
"[ 	c #438A00",
"} 	c #465935",
"| 	c #2B6219",
"1 	c #369300",
"2 	c #48A200",
"3 	c #4F9200",
"4 	c #567802",
"5 	c #51542A",
"6 	c #50483C",
"7 	c #556313",
"8 	c #5B690C",
"9 	c #504D35",
"0 	c #4E4E37",
"a 	c #306A0C",
"b 	c #569700",
"c 	c #44523B",
"d 	c #48720D",
"e 	c #308200",
"f 	c #578B00",
"g 	c #5C5224",
"h 	c #886E48",
"i 	c #C8A180",
"j 	c #C8A080",
"k 	c #B59072",
"l 	c #5C531A",
"m 	c #36631A",
"n 	c #377306",
"o 	c #4D7B00",
"p 	c #5D9E00",
"q 	c #546B0C",
"r 	c #936E52",
"s 	c #CFA685",
"t 	c #DFB592",
"u 	c #946F53",
"v 	c #6C832B",
"w 	c #6A9300",
"x 	c #528603",
"y 	c #B59270",
"z 	c #E0B693",
"A 	c #CEA685",
"B 	c #616B18",
"C 	c #639B00",
"D 	c #82AD00",
"E 	c #589400",
"F 	c #6B8400",
"G 	c #53651A",
"H 	c #AB8667",
"I 	c #E0B692",
"J 	c #E4BC9F",
"K 	c #D5AE93",
"L 	c #697D2A",
"M 	c #347B00",
"N 	c #355B24",
"O 	c #7BA500",
"P 	c #614628",
"Q 	c #EFC8B4",
"R 	c #DFB591",
"S 	c #F9D4C9",
"T 	c #F5CFBF",
"U 	c #936F52",
"V 	c #3E8C00",
"W 	c #4C6B0D",
"X 	c #72A300",
"Y 	c #4C5918",
"Z 	c #CEB39F",
"` 	c #F4D7CB",
" .	c #E4BC9E",
"..	c #B98D6E",
"+.	c #ECCEBC",
"@.	c #E7BFA4",
"#.	c #D6AC8A",
"$.	c #E5BC9F",
"%.	c #E1B796",
"&.	c #E1B897",
"*.	c #ECC9B4",
"=.	c #FBE2DA",
"-.	c #F6DCD1",
";.	c #F4CEBF",
">.	c #6A621A",
",.	c #7CA900",
"'.	c #417B00",
").	c #85654B",
"!.	c #EFD3C8",
"~.	c #DCBDA7",
"{.	c #EBC6B8",
"].	c #ECD0C5",
"^.	c #8F6649",
"/.	c #FCF4F2",
"(.	c #CDA48D",
"_.	c #9D7658",
":.	c #F5E6DE",
"<.	c #F5D1C2",
"[.	c #FAD9CF",
"}.	c #ECC8B4",
"|.	c #E7C2A9",
"1.	c #B69571",
"2.	c #517204",
"3.	c #436918",
"4.	c #4FA900",
"5.	c #8E694D",
"6.	c #DDB390",
"7.	c #9A6F53",
"8.	c #BE9677",
"9.	c #95684B",
"0.	c #6E4424",
"a.	c #C69D7C",
"b.	c #865636",
"c.	c #875635",
"d.	c #E1BCAB",
"e.	c #B98D6D",
"f.	c #9B7053",
"g.	c #525A24",
"h.	c #7D5539",
"i.	c #B58A6B",
"j.	c #895838",
"k.	c #885737",
"l.	c #945D40",
"m.	c #955D41",
"n.	c #986449",
"o.	c #DB8C6B",
"p.	c #A35D32",
"q.	c #D5AB89",
"r.	c #CCA281",
"s.	c #52552C",
"t.	c #5A8108",
"u.	c #906B4A",
"v.	c #9F7559",
"w.	c #FAC29E",
"x.	c #A06346",
"y.	c #B77655",
"z.	c #BC7E5C",
"A.	c #E29372",
"B.	c #B16A46",
"C.	c #8E6549",
"D.	c #C99F7E",
"E.	c #A97C5E",
"F.	c #D2A886",
"G.	c #D3A887",
"H.	c #936B51",
"I.	c #425D14",
"J.	c #559B00",
"K.	c #526419",
"L.	c #BF825F",
"M.	c #B26745",
"N.	c #B67655",
"O.	c #DBA382",
"P.	c #BC785B",
"Q.	c #947054",
"R.	c #C59A7A",
"S.	c #9E7356",
"T.	c #A56742",
"U.	c #B27551",
"V.	c #B4896A",
"W.	c #C88660",
"X.	c #9D5D4A",
"Y.	c #121B2C",
"Z.	c #884C29",
"`.	c #AE6941",
" +	c #F9C19D",
".+	c #F1AC8A",
"++	c #7E563A",
"@+	c #9F7356",
"#+	c #986044",
"$+	c #F7BEA0",
"%+	c #E3A583",
"&+	c #C59877",
"*+	c #876147",
"=+	c #477100",
"-+	c #CF8770",
";+	c #0A1A2E",
">+	c #D4D3CF",
",+	c #B17C5A",
"'+	c #6C4629",
")+	c #C07C5F",
"!+	c #996146",
"~+	c #D39477",
"{+	c #845743",
"]+	c #A3785A",
"^+	c #384B08",
"/+	c #4F700A",
"(+	c #707716",
"_+	c #D7A286",
":+	c #FBDDC9",
"<+	c #D29182",
"[+	c #3243E3",
"}+	c #F2EEEA",
"|+	c #C7916F",
"1+	c #B88366",
"2+	c #EC9B7A",
"3+	c #7A4927",
"4+	c #5F361B",
"5+	c #9F7456",
"6+	c #9A7055",
"7+	c #2D6C00",
"8+	c #3F6123",
"9+	c #9F6F31",
"0+	c #FAC9AA",
"a+	c #FBDCC8",
"b+	c #F5D3C5",
"c+	c #E2CAD7",
"d+	c #FACFB6",
"e+	c #FAC19D",
"f+	c #EEA382",
"g+	c #402713",
"h+	c #653F22",
"i+	c #8A6145",
"j+	c #5A4130",
"k+	c #8E8229",
"l+	c #D89274",
"m+	c #FACFB5",
"n+	c #FBD6BF",
"o+	c #F9C7A6",
"p+	c #F6BE99",
"q+	c #AD7E55",
"r+	c #674022",
"s+	c #684123",
"t+	c #90664A",
"u+	c #684122",
"v+	c #826346",
"w+	c #719A00",
"x+	c #337200",
"y+	c #3F522E",
"z+	c #514338",
"A+	c #B97A58",
"B+	c #F1AB89",
"C+	c #BF624E",
"D+	c #995132",
"E+	c #AF7D40",
"F+	c #472B15",
"G+	c #465B1D",
"H+	c #345500",
"I+	c #5B4D16",
"J+	c #9C5931",
"K+	c #CC8367",
"L+	c #CE8568",
"M+	c #C05C3E",
"N+	c #BE4E2E",
"O+	c #8E1127",
"P+	c #7D3823",
"Q+	c #6F481E",
"R+	c #223A03",
"S+	c #4B7600",
"T+	c #8BB100",
"U+	c #619700",
"V+	c #795514",
"W+	c #7E0C1E",
"X+	c #A21315",
"Y+	c #952419",
"Z+	c #794F24",
"`+	c #A0703A",
" @	c #AE7133",
".@	c #123E00",
"+@	c #2B7900",
"@@	c #61A000",
"#@	c #607249",
"$@	c #CCB5A6",
"%@	c #CAB2A2",
"&@	c #61554C",
"*@	c #825B3E",
"=@	c #B8917B",
"-@	c #2B1B0D",
";@	c #7A4F1B",
">@	c #407003",
",@	c #46631D",
"'@	c #479900",
")@	c #736E65",
"!@	c #BEBBB3",
"~@	c #D0CECA",
"{@	c #9C8D85",
"]@	c #E6C0AE",
"^@	c #F4CFBF",
"/@	c #7B3612",
"(@	c #A25123",
"_@	c #516215",
":@	c #376B0D",
"<@	c #4F9A00",
"[@	c #709600",
"}@	c #8B7A5F",
"|@	c #B5A8A1",
"1@	c #926A4F",
"2@	c #F1CCBD",
"3@	c #D3A886",
"4@	c #000304",
"5@	c #522A1A",
"6@	c #201E1A",
"7@	c #434A35",
"8@	c #509B00",
"9@	c #408300",
"0@	c #625126",
"a@	c #593220",
"b@	c #936C51",
"c@	c #D9B095",
"d@	c #73523D",
"e@	c #B4755D",
"f@	c #AD5726",
"g@	c #A25021",
"h@	c #474F2F",
"i@	c #58420F",
"j@	c #5B2A14",
"k@	c #865F46",
"l@	c #85644D",
"m@	c #884B2A",
"n@	c #E6A588",
"o@	c #C09E88",
"p@	c #3B312A",
"q@	c #43512A",
"r@	c #4A5335",
"s@	c #BAACA4",
"t@	c #904319",
"u@	c #7C3915",
"v@	c #949080",
"w@	c #77655A",
"x@	c #C47A53",
"y@	c #EFA483",
"z@	c #49463B",
"A@	c #616E4D",
"B@	c #88B000",
"C@	c #55731A",
"D@	c #7F7B68",
"E@	c #823D18",
"F@	c #823C18",
"G@	c #ACA69C",
"H@	c #928D7E",
"I@	c #21201F",
"J@	c #272523",
"K@	c #8A8573",
"L@	c #62674F",
"M@	c #3C7A00",
"N@	c #6C971A",
"O@	c #602812",
"P@	c #97532C",
"Q@	c #A47965",
"R@	c #DFC4B2",
"S@	c #D09D7E",
"T@	c #8F5030",
"U@	c #4B4B44",
"V@	c #465836",
"W@	c #7D9E00",
"X@	c #628005",
"Y@	c #925924",
"Z@	c #87581F",
"`@	c #9D5922",
" #	c #B36827",
".#	c #603510",
"+#	c #5E0A0D",
"@#	c #8F1627",
"##	c #761906",
"$#	c #E43A11",
"%#	c #DC3414",
"&#	c #64090B",
"*#	c #3F493C",
"=#	c #3C3C3C",
"-#	c #334326",
"  . + @ #   $ % & & * = * %   - ; > -   % , ' % ; # # ) - , ' ! ",
"~ { ] ^ / * ( _ / / :   # , < * % ; < % ; < ' ( [ & # ;   } } ' ",
"_ <   ; @ | 1 2 3 ) )   4 5 6 7 8 9 0 < ) : a + b < # / = c & d ",
"  ' = % ! % e [ ' f % g h i j j j j k l m ' < @ ~ # # # # = = n ",
"# # / , o b p .   q r s t t t t t t t t u v - * ) o f >   ' - } ",
"< = ^   )   w p x y z t t t t t t t t t z A B f C D p w o , ^ # ",
"< ~ | E F < < G H I t t t t t t t t t t t J K L E _ : M # & / & ",
"~ N @ O O   % P Q R t t t t t t t t t t J S T U [ % f V ' W = < ",
"& & ~ [ X % Y Z `  .` ..+.@.#.$.%.&.*.*.=.-.;.R >.D ,.,.3 '.% % ",
"& ~ # '.3 % ).!.~.{.].^./.(._.:.<.@.[.[.}.|.$.t 1.2.1 d 3.) - , ",
", ' 3.4.+ ; 5.6.7.8.9.0.a.b.c.d.Q e.t #.t t t t f.g.n 3.~ ^ # ~ ",
"' - d [ } , h.i.j.k.l.m.n.o.p.j q.r.t ..t t t t f.s.* # W : = _ ",
"' -   - * , t.u.v.w.x.y.z.A.B.C.u z D.E.#.t F.G.H.I.. o : , ' J.",
"b D p ' ) f b K.L.w.M.N.z.A.O.P.Q.R.S.T.U.#.G.V.H.I.f O _ ' _ _ ",
"O ; = # ; E ; , W.w.X.Y.Z.`. +.+++@+#+$+%+&+E.E.*+=+  ! D f % < ",
"- } # = . . , ; W.w.-+;+>+,+ + +'+)+!+~+{+]+E.E.^+/+, ) F b E % ",
"' f ; o % * ' (+_+:+<+[+}+|+ + +1+2+3+4+E.E.5+6+7+8+# # # < - % ",
"_ - -   ; < : 9+0+a+b+c+d+e+ + +w.f+g+h+E.i+++j+M p ! 3 _ - = } ",
"% } = ) ) : a k+l+m+n+o+ + + + +p+q+r+s+t+u+v+w+,.,.,.! X ' 3.* ",
"x+/ y+x+@ : < @ z+A+B+ + + + +.+C+D+E+r+u+F+G+< - [ + M m = % ' ",
"- @ a ] { C - * ) H+I+J+K+K+L+M+N+O+P+Q+R+S+D T+_ + 2 + '.% . ) ",
"F > ( M '.O _ [ C ,.U+V+W+X+Y+Z+`+ @.@+@<   % > @@b e e   '.x+W ",
"- . > W '.D 3 3 3 [ #@$@%@&@*@=@7.-@;@>@c # } - - f % < - ) _ O ",
"- m W ,@< f '@@@V   )@!@~@{@]@^@H./@(@_@= # & # / ) 1 :@< f D <@",
"> - c 3.a % [ '@! D [@}@|@1@2@3@4@5@6@7@# * < ~ & = < ' . 3   ) ",
"8@9@,@- + V ,.D D 9@1 0@a@b@c@d@e@f@g@h@# - ' ^ & ) _ J.f ] 8+# ",
"^ x+{ - % E ! [ d ) x+i@j@k@l@m@n@o@p@q@, _ 3 e @ ' _ - 3.+ 8@' ",
"/ V '@f o ' x+<@'., r@s@t@u@v@w@x@y@z@A@3.b 3 ,@/ ' ; = } 3.. f ",
"~ _ B@> x+@ a + E - C@D@E@F@G@H@I@J@K@L@a X f ^ & ~ < _ 3 ' M@+ ",
"; 8@C 3.2 M , m V - f N@O@P@Q@R@S@T@U@V@. X - / / ; E p o o ( ) ",
"f ' , - 2 % } * _ . ' W@X@Y@Z@`@ #.## , X > , , < %   , / y+: ' ",
"' * ) ; - , , f 8@' , , +#@###$#%#&## [ T+F . E ' ( ^ y+*#=#-#W "};
