/* XPM */
static char * sprite_mc_face_walk_1_xpm[] = {
"32 32 477 2",
"  	c #59750A",
". 	c #538200",
"+ 	c #449B00",
"@ 	c #405B24",
"# 	c #4A4D45",
"$ 	c #65A200",
"% 	c #567B01",
"& 	c #464744",
"* 	c #4C5735",
"= 	c #4A533C",
"- 	c #4D6B18",
"; 	c #516E13",
"> 	c #638E00",
", 	c #4B5C30",
"' 	c #51730B",
") 	c #4A6226",
"! 	c #749C00",
"~ 	c #494C42",
"{ 	c #3E7400",
"] 	c #328A00",
"^ 	c #495334",
"/ 	c #474A42",
"( 	c #3C8200",
"_ 	c #5A8500",
": 	c #4B7402",
"< 	c #4E6521",
"[ 	c #438A00",
"} 	c #465935",
"| 	c #2B6219",
"1 	c #369300",
"2 	c #48A200",
"3 	c #4F9200",
"4 	c #306A0C",
"5 	c #569700",
"6 	c #44523B",
"7 	c #48720D",
"8 	c #308200",
"9 	c #578B00",
"0 	c #64521E",
"a 	c #63521E",
"b 	c #5F581D",
"c 	c #624F20",
"d 	c #61432E",
"e 	c #62442E",
"f 	c #42730B",
"g 	c #36631A",
"h 	c #377306",
"i 	c #4D7B00",
"j 	c #5D9E00",
"k 	c #6D6B2C",
"l 	c #946F53",
"m 	c #DFB592",
"n 	c #E0B692",
"o 	c #AC8668",
"p 	c #856F48",
"q 	c #559700",
"r 	c #6A9300",
"s 	c #5E6F18",
"t 	c #CEA685",
"u 	c #E0B693",
"v 	c #DAB18E",
"w 	c #8D7C48",
"x 	c #639B00",
"y 	c #82AD00",
"z 	c #589400",
"A 	c #6B8400",
"B 	c #6A7727",
"C 	c #D4AE93",
"D 	c #DFB591",
"E 	c #C49979",
"F 	c #736230",
"G 	c #508F01",
"H 	c #347B00",
"I 	c #355B24",
"J 	c #7BA500",
"K 	c #5B4A2C",
"L 	c #F9D5C9",
"M 	c #EEC8B4",
"N 	c #C69C7C",
"O 	c #746830",
"P 	c #3E8C00",
"Q 	c #4C6B0D",
"R 	c #72A300",
"S 	c #46611C",
"T 	c #86664E",
"U 	c #E7C4AC",
"V 	c #FDECEA",
"W 	c #FAD8CE",
"X 	c #EDCCBA",
"Y 	c #F3CEBE",
"Z 	c #E4BB9E",
"` 	c #DFB491",
" .	c #ECC7B2",
"..	c #FBD8CE",
"+.	c #D0A685",
"@.	c #ECC5AF",
"#.	c #E7BFA4",
"$.	c #D7AD8B",
"%.	c #8F674B",
"&.	c #72900B",
"*.	c #7CA900",
"=.	c #417B00",
"-.	c #86674E",
";.	c #E7BEA4",
">.	c #EDCAB7",
",.	c #FAD8CD",
"'.	c #FDE9E6",
").	c #F8D4C7",
"!.	c #FAE1DB",
"~.	c #EBC6B8",
"{.	c #E5BFAD",
"].	c #F7E0D8",
"^.	c #E6C0A6",
"/.	c #A87E61",
"(.	c #FAD7CC",
"_.	c #E6BEA3",
":.	c #C59A7A",
"<.	c #BA8F6F",
"[.	c #6F6A1D",
"}.	c #436918",
"|.	c #4FA900",
"1.	c #3D8D00",
"2.	c #503619",
"3.	c #D3A987",
"4.	c #DCB290",
"5.	c #D6AB8A",
"6.	c #DCB498",
"7.	c #E5BDA0",
"8.	c #EFC8B4",
"9.	c #C89E7D",
"0.	c #E3BDAB",
"a.	c #DDB390",
"b.	c #B5896B",
"c.	c #814D2A",
"d.	c #824E2A",
"e.	c #ECC5B2",
"f.	c #DCB28F",
"g.	c #A87B5D",
"h.	c #A97C5E",
"i.	c #715733",
"j.	c #485F25",
"k.	c #44532B",
"l.	c #634430",
"m.	c #AC8264",
"n.	c #D6AC8A",
"o.	c #B98E6E",
"p.	c #C49A79",
"q.	c #C49978",
"r.	c #895F43",
"s.	c #D3A886",
"t.	c #8A6145",
"u.	c #A86136",
"v.	c #AA8062",
"w.	c #CBA282",
"x.	c #D3AFA1",
"y.	c #9E7254",
"z.	c #936B51",
"A.	c #404F29",
"B.	c #685E31",
"C.	c #693B1D",
"D.	c #6F4425",
"E.	c #C99F7E",
"F.	c #7D5539",
"G.	c #AA7D5F",
"H.	c #7D553A",
"I.	c #C79D7C",
"J.	c #875636",
"K.	c #94684A",
"L.	c #B56D47",
"M.	c #E69474",
"N.	c #8E583C",
"O.	c #703F1C",
"P.	c #9B7053",
"Q.	c #E4BEAC",
"R.	c #7C5336",
"S.	c #956548",
"T.	c #6D5E1F",
"U.	c #559B00",
"V.	c #686229",
"W.	c #D18561",
"X.	c #DF8D6C",
"Y.	c #935C40",
"Z.	c #9F7356",
"`.	c #6D4629",
" +	c #9A5C35",
".+	c #754E32",
"++	c #C77E5E",
"@+	c #7E563A",
"#+	c #8B6246",
"$+	c #E89575",
"%+	c #E89D7C",
"&+	c #E0AB8A",
"*+	c #E4AC8A",
"=+	c #9E7458",
"-+	c #B5896A",
";+	c #DA8969",
">+	c #DD8C6B",
",+	c #927929",
"'+	c #6C6C1D",
")+	c #C37F5D",
"!+	c #FAD2BD",
"~+	c #A18371",
"{+	c #B46738",
"]+	c #704120",
"^+	c #793D14",
"/+	c #7E401A",
"(+	c #C97F5E",
"_+	c #DC9979",
":+	c #F9C19D",
"<+	c #E59C7B",
"[+	c #92481C",
"}+	c #823F13",
"|+	c #904B23",
"1+	c #7F4B28",
"2+	c #92674A",
"3+	c #6B4122",
"4+	c #F9C5A5",
"5+	c #D89B82",
"6+	c #936E2B",
"7+	c #4B7600",
"8+	c #A8725D",
"9+	c #8B6250",
"0+	c #814C28",
"a+	c #B19074",
"b+	c #533D4B",
"c+	c #5B648C",
"d+	c #210A01",
"e+	c #A05B30",
"f+	c #FAC29E",
"g+	c #C88660",
"h+	c #240C02",
"i+	c #633B1E",
"j+	c #A05A2F",
"k+	c #764422",
"l+	c #D89375",
"m+	c #535C19",
"n+	c #466408",
"o+	c #2D1A0B",
"p+	c #914B21",
"q+	c #B09C82",
"r+	c #DFDFE8",
"s+	c #00003F",
"t+	c #6C6B97",
"u+	c #E2A58C",
"v+	c #F9C6A6",
"w+	c #F9C19C",
"x+	c #F9C3A0",
"y+	c #EEA686",
"z+	c #AFACAD",
"A+	c #000042",
"B+	c #8D8DB3",
"C+	c #C9C6B8",
"D+	c #A85F33",
"E+	c #65391C",
"F+	c #215200",
"G+	c #3F6123",
"H+	c #416501",
"I+	c #5A381D",
"J+	c #5E3317",
"K+	c #D39172",
"L+	c #E4E5FE",
"M+	c #616FE4",
"N+	c #A2A8FD",
"O+	c #F9CFB9",
"P+	c #FBDAC6",
"Q+	c #FAD5BE",
"R+	c #FBD8C1",
"S+	c #F7C2A4",
"T+	c #E4E6FF",
"U+	c #E7BEAD",
"V+	c #9C5930",
"W+	c #4A2E17",
"X+	c #184000",
"Y+	c #2B600A",
"Z+	c #71521F",
"`+	c #7B562A",
" @	c #C17A5D",
".@	c #F8CFB9",
"+@	c #FBD6BE",
"@@	c #FBD7C1",
"#@	c #FBDCC8",
"$@	c #FBDCC9",
"%@	c #F8D1BC",
"&@	c #F7C8AF",
"*@	c #E18F6D",
"=@	c #4B3318",
"-@	c #85592A",
";@	c #557600",
">@	c #337200",
",@	c #3F522E",
"'@	c #814A28",
")@	c #BA5D2E",
"!@	c #71451B",
"~@	c #CF825E",
"{@	c #F7BA96",
"]@	c #FAC9AA",
"^@	c #F6BB9A",
"/@	c #FAC8AA",
"(@	c #E49977",
"_@	c #824B2C",
":@	c #A66327",
"<@	c #A0482C",
"[@	c #6D3E2F",
"}@	c #BC4B26",
"|@	c #B13A24",
"1@	c #5E3E11",
"2@	c #8E5229",
"3@	c #D49072",
"4@	c #EAB08C",
"5@	c #F6B895",
"6@	c #EDB28E",
"7@	c #E3A684",
"8@	c #995739",
"9@	c #9B301C",
"0@	c #C1542E",
"a@	c #945A22",
"b@	c #845829",
"c@	c #986E4D",
"d@	c #805323",
"e@	c #BC795B",
"f@	c #B7745A",
"g@	c #5C3012",
"h@	c #7F4F3D",
"i@	c #683B24",
"j@	c #88523A",
"k@	c #85543C",
"l@	c #815425",
"m@	c #6E4724",
"n@	c #8A6A2E",
"o@	c #6A8D03",
"p@	c #61A000",
"q@	c #498506",
"r@	c #634A38",
"s@	c #DDB498",
"t@	c #6D4527",
"u@	c #D49376",
"v@	c #9A6254",
"w@	c #B56656",
"x@	c #C95443",
"y@	c #C25B4B",
"z@	c #87423F",
"A@	c #CA9A7A",
"B@	c #AB8163",
"C@	c #D2AB91",
"D@	c #623E23",
"E@	c #653A19",
"F@	c #5F6C1A",
"G@	c #46631D",
"H@	c #4B8C03",
"I@	c #393218",
"J@	c #624936",
"K@	c #ECC7B9",
"L@	c #E3BA9E",
"M@	c #987768",
"N@	c #9B978A",
"O@	c #B3AEA6",
"P@	c #B78E76",
"Q@	c #EEA180",
"R@	c #E2AA8A",
"S@	c #A69C90",
"T@	c #977667",
"U@	c #E9C4B7",
"V@	c #583E2B",
"W@	c #66331B",
"X@	c #4C3327",
"Y@	c #376B0D",
"Z@	c #4F9A00",
"`@	c #312C26",
" #	c #A85E37",
".#	c #7D3918",
"+#	c #B89375",
"@#	c #DFB79E",
"##	c #C39B87",
"$#	c #6E6C67",
"%#	c #ECEBE8",
"&#	c #C7C4BE",
"*#	c #686357",
"=#	c #95928A",
"-#	c #797875",
";#	c #342C25",
">#	c #974D2B",
",#	c #652D15",
"'#	c #509B00",
")#	c #408300",
"!#	c #8E4D29",
"~#	c #A56540",
"{#	c #8A512F",
"]#	c #4B3526",
"^#	c #BC9176",
"/#	c #BC9276",
"(#	c #413A31",
"_#	c #A17869",
":#	c #AF7C6B",
"<#	c #A06446",
"[#	c #A66E56",
"}#	c #995841",
"|#	c #6E442B",
"1#	c #D0AF9C",
"2#	c #635246",
"3#	c #221D18",
"4#	c #615416",
"5#	c #9C5931",
"6#	c #0B1701",
"7#	c #435922",
"8#	c #504B28",
"9#	c #926A4F",
"0#	c #583427",
"a#	c #626261",
"b#	c #40362F",
"c#	c #40372F",
"d#	c #201D18",
"e#	c #936C52",
"f#	c #553624",
"g#	c #6C3B25",
"h#	c #E4A684",
"i#	c #D9B4A0",
"j#	c #113A00",
"k#	c #479900",
"l#	c #316F00",
"m#	c #448600",
"n#	c #3A7000",
"o#	c #615D4E",
"p#	c #B3B0A9",
"q#	c #7F3F27",
"r#	c #924727",
"s#	c #8F4118",
"t#	c #8F4119",
"u#	c #7F3300",
"v#	c #AFA7A1",
"w#	c #7C7868",
"x#	c #734A3C",
"y#	c #735E32",
"z#	c #44611C",
"A#	c #88B000",
"B#	c #58553A",
"C#	c #B2ABA6",
"D#	c #897460",
"E#	c #AD541F",
"F#	c #978980",
"G#	c #D2CFC8",
"H#	c #B7A9A2",
"I#	c #AD531A",
"J#	c #675143",
"K#	c #B7B4AC",
"L#	c #644D3E",
"M#	c #6D971C",
"N#	c #3C7A00",
"O#	c #5D8901",
"P#	c #846222",
"Q#	c #793512",
"R#	c #783615",
"S#	c #746F66",
"T#	c #736D64",
"U#	c #783209",
"V#	c #6F472A",
"W#	c #9D6B2E",
"X#	c #657A07",
"Y#	c #7D9E00",
"Z#	c #340E09",
"`#	c #772417",
" $	c #893F1C",
".$	c #593612",
"+$	c #542F22",
"@$	c #602217",
"#$	c #701222",
"$$	c #1E2711",
"%$	c #400612",
"&$	c #D23419",
"*$	c #400412",
"=$	c #4F700A",
"-$	c #544D31",
";$	c #56433E",
">$	c #418600",
",$	c #8BB100",
"'$	c #3F493C",
")$	c #3C3C3C",
"!$	c #334326",
"  . + @ #   $ % & & * = * %   - ; > -   % , ' % ; # # ) - , ' ! ",
"~ { ] ^ / * ( _ / / :   # , < * % ; < % ; < ' ( [ & # ;   } } ' ",
"_ <   ; @ | 1 2 3 ) )   % , # ;   = = < ) : 4 + 5 < # / = 6 & 7 ",
"  ' = % ! % 8 [ ' 9 % ) 0 a b 0 c d e f g ' < @ ~ # # # # = = h ",
"# # / , i 5 j .   ' k l m m m m m m n o p q - * ) i 9 >   ' - } ",
"< = ^   )   r j 3 s t u m m m m m m m n v w 9 9 x y j r i , ^ # ",
"< ~ | z A < < - B C D m m m m m m m m m m E F G z _ : H # & / & ",
"~ I @ J J   % K C L M D m m m m m m m m m m N O [ % 9 P ' Q = < ",
"& & ~ [ R % S T U V W X Y Z Y `  ...+.+.@.#.$.%.&.y *.*.3 =.% % ",
"& ~ # =.3 % -.v ;.>.,.'.).!.~.{.].^././.(._.:.<.[.i 1 7 }.) - , ",
", ' }.|.1.2.3.4.5.m 6.7.D 8.9.0.a.b.c.d.e.f.g.h.i.j.h }.~ ^ # ~ ",
"' - 7 [ } k.l.m.n.E o.p.m q.r.s.b.t.u.c.v.w.x.y.z.A.* # Q : = _ ",
"' -   - * B.C.D.E.F.G.H.I.J.F.G.K.L.M.N.O.P.Q.R.S.T.. i : , ' U.",
"5 y j ' V.W.X.Y.Z.`.Z. +.+++@+#+L.$+%+&+*+=+-+F.;+>+,+J _ ' _ _ ",
"J ; = # '+)+!+~+c.{+]+^+/+(+_+_+:+<+[+}+|+1+2+3+4+5+6+! y 9 % < ",
"- } # = . 7+8+9+0+a+b+c+d+e+:+:+f+g+b+c+h+i+j+k+l+m+, ) A 5 z % ",
"' 9 ; i % * n+o+p+q+r+s+t+u+v+w+x+y+z+A+B+C+D+E+F+G+# # # < - % ",
"_ - -   ; < H+I+J+K+L+M+N+O+P+Q+R+S+T+M+N+U+V+W+X+j ! 3 _ - = } ",
"% } = ) ) : Y+Z+`+ @.@+@@@#@$@%@#@#@P+Q+&@*@=@-@;@*.*.! R ' }.* ",
">@/ ,@>@@ : < '@)@!@~@{@x+]@]@^@/@/@v+w+(@_@:@<@- [ + H g = % ' ",
"- @ 4 ] { x - [@}@|@1@2@3@4@5@5@5@6@7@8@1@9@0@a@_ + 2 + =.% . ) ",
"A > ( H =.J _ [ b@c@d@e@f@g@h@h@h@i@j@k@l@m@n@o@p@5 8 8   =.>@Q ",
"- . > Q =.y 3 q@r@s@m.t@u@v@w@x@y@z@A@B@C@D@E@F@- 9 % < - ) _ J ",
"- g Q G@< 9 H@I@J@K@L@M@N@O@P@Q@R@S@T@L@U@V@W@X@/ ) 1 Y@< 9 y Z@",
"> - 6 }.4 % `@ #.#+#@###$#%#&#*#=#-###@#+#;#>#,#& = < ' . 3   ) ",
"'#)#G@- + P !#~#{#]#^#/#(#_#:#<#[#}#/#^#|#1#2#3#& ) _ U.9 ] G+# ",
"^ >@{ - % z 4#5#6#7#8#9#0#a#b#b#c#d#e#f#g#h#i#j#@ ' _ - }.+ '#' ",
"/ P k#9 i ' l#m#n#, o#p#q#r#s#s#s#t#u#v#w#x#y#z#/ ' ; = } }.. 9 ",
"~ _ A#> >@@ 4 + z - B#C#D#E#F#G#H#I#J#K#L#M#9 ^ & ~ < _ 3 ' N#+ ",
"; '#x }.2 H , g P - O#P#Q#R#S#T#U#R#V#W#X#R - / / ; z j i i ( ) ",
"9 ' , - 2 % } * _ . ' Y#Z#`# $.$+$@$#$$$R > , , < %   , / ,@: ' ",
"' * ) ; - , , 9 '#' , , %$&$&$*$=$-$;$>$,$A . z ' ( ^ ,@'$)$!$Q "};
