/* XPM */
static char * sprite_mc_right_walk_2_xpm[] = {
"32 32 399 2",
"  	c #59750A",
". 	c #538200",
"+ 	c #449B00",
"@ 	c #405B24",
"# 	c #4A4D45",
"$ 	c #65A200",
"% 	c #567B01",
"& 	c #464744",
"* 	c #4C5735",
"= 	c #4A533C",
"- 	c #4D6B18",
"; 	c #516E13",
"> 	c #638E00",
", 	c #4B5C30",
"' 	c #51730B",
") 	c #4A6226",
"! 	c #749C00",
"~ 	c #494C42",
"{ 	c #3E7400",
"] 	c #328A00",
"^ 	c #495334",
"/ 	c #474A42",
"( 	c #3C8200",
"_ 	c #5A8500",
": 	c #4B7402",
"< 	c #4E6521",
"[ 	c #438A00",
"} 	c #465935",
"| 	c #2B6219",
"1 	c #369300",
"2 	c #48A200",
"3 	c #4F9200",
"4 	c #306A0C",
"5 	c #569700",
"6 	c #44523B",
"7 	c #48720D",
"8 	c #308200",
"9 	c #578B00",
"0 	c #5C6D11",
"a 	c #63511F",
"b 	c #5F581D",
"c 	c #64521E",
"d 	c #624F20",
"e 	c #61432E",
"f 	c #5C4735",
"g 	c #347B00",
"h 	c #36631A",
"i 	c #377306",
"j 	c #4D7B00",
"k 	c #5D9E00",
"l 	c #5A690A",
"m 	c #86694B",
"n 	c #AC8668",
"o 	c #E0B692",
"p 	c #DFB592",
"q 	c #CFA685",
"r 	c #936E52",
"s 	c #476D05",
"t 	c #569701",
"u 	c #6A9300",
"v 	c #5E6F18",
"w 	c #C8A080",
"x 	c #DAB08E",
"y 	c #E0B693",
"z 	c #C8A180",
"A 	c #8D7C48",
"B 	c #639B00",
"C 	c #82AD00",
"D 	c #589400",
"E 	c #6B8400",
"F 	c #6A7828",
"G 	c #CEA684",
"H 	c #877448",
"I 	c #4F8F00",
"J 	c #355B24",
"K 	c #7BA500",
"L 	c #5B4A2C",
"M 	c #D5AE93",
"N 	c #F4CFBF",
"O 	c #DAB18E",
"P 	c #877948",
"Q 	c #3E8C00",
"R 	c #4C6B0D",
"S 	c #72A300",
"T 	c #48611C",
"U 	c #86664E",
"V 	c #E6BEA3",
"W 	c #FAD7CC",
"X 	c #F6D9CD",
"Y 	c #E1B795",
"Z 	c #E4BB9E",
"` 	c #DFB591",
" .	c #E5BC9F",
"..	c #D6AC89",
"+.	c #E1B797",
"@.	c #E1B796",
"#.	c #E7BFA4",
"$.	c #B69380",
"%.	c #72900B",
"&.	c #7CA900",
"*.	c #417B00",
"=.	c #4F473A",
"-.	c #ECC5AF",
";.	c #FCF3F1",
">.	c #F5D0C1",
",.	c #FAEAE5",
"'.	c #EEC8B4",
").	c #D6AC8A",
"!.	c #F9DDD4",
"~.	c #C0A393",
"{.	c #E7C8B2",
"].	c #F6D9CE",
"^.	c #E7C8B1",
"/.	c #F7EFEA",
"(.	c #6F6A1D",
"_.	c #436918",
":.	c #4FA900",
"<.	c #8E694D",
"[.	c #DDB290",
"}.	c #F4CEBF",
"|.	c #DCB398",
"1.	c #FBECE8",
"2.	c #BE9677",
"3.	c #8E6549",
"4.	c #EDD1C6",
"5.	c #9E8C82",
"6.	c #B38C78",
"7.	c #F2CCBD",
"8.	c #AC8163",
"9.	c #ECC6B2",
"0.	c #505922",
"a.	c #7C5438",
"b.	c #D3A987",
"c.	c #C49978",
"d.	c #B98D6E",
"e.	c #885737",
"f.	c #A45F34",
"g.	c #90674A",
"h.	c #845D41",
"i.	c #995B33",
"j.	c #AB8163",
"k.	c #7B5337",
"l.	c #D3A886",
"m.	c #A87F61",
"n.	c #52552C",
"o.	c #744F36",
"p.	c #B98E6F",
"q.	c #BD9373",
"r.	c #D1A786",
"s.	c #804C28",
"t.	c #DE8D6B",
"u.	c #C87D5D",
"v.	c #723F1B",
"w.	c #C2795B",
"x.	c #92694E",
"y.	c #B57855",
"z.	c #9B7053",
"A.	c #906B4A",
"B.	c #526419",
"C.	c #559B00",
"D.	c #583F2E",
"E.	c #AD8062",
"F.	c #AC8062",
"G.	c #C9A180",
"H.	c #754D31",
"I.	c #935C3F",
"J.	c #E89574",
"K.	c #E8AE8B",
"L.	c #E5AC8A",
"M.	c #D68767",
"N.	c #F0B592",
"O.	c #DFAC8A",
"P.	c #764E32",
"Q.	c #4B8008",
"R.	c #5B4130",
"S.	c #AA7D5F",
"T.	c #B5896A",
"U.	c #DDB390",
"V.	c #B47C59",
"W.	c #C98660",
"X.	c #996549",
"Y.	c #A67A5C",
"Z.	c #BD9576",
"`.	c #D18668",
" +	c #BD8F71",
".+	c #E69D7B",
"++	c #A75B2D",
"@+	c #88431B",
"#+	c #863F0E",
"$+	c #E4AC8A",
"%+	c #E9AF8B",
"&+	c #705D30",
"*+	c #402A1A",
"=+	c #A07456",
"-+	c #A97C5E",
";+	c #976147",
">+	c #F9CBB2",
",+	c #D38769",
"'+	c #764F33",
")+	c #996E51",
"!+	c #DBA282",
"~+	c #FAC29E",
"{+	c #C88660",
"]+	c #988570",
"^+	c #210400",
"/+	c #8A6E83",
"(+	c #F2B591",
"_+	c #768215",
":+	c #509B00",
"<+	c #466408",
"[+	c #936C51",
"}+	c #997055",
"|+	c #8E532F",
"1+	c #C77E5E",
"2+	c #D18768",
"3+	c #8B573B",
"4+	c #DEAB8A",
"5+	c #C88560",
"6+	c #C9C6B8",
"7+	c #8D8DB3",
"8+	c #7F4E37",
"9+	c #F7BE9F",
"0+	c #E9B595",
"a+	c #6C8F11",
"b+	c #3F6123",
"c+	c #497102",
"d+	c #535028",
"e+	c #9F7356",
"f+	c #755037",
"g+	c #5E3518",
"h+	c #D28769",
"i+	c #F0B492",
"j+	c #F2BC98",
"k+	c #F9C19D",
"l+	c #EEB490",
"m+	c #F0D1BC",
"n+	c #A2A8FD",
"o+	c #9C88CC",
"p+	c #FAD4BC",
"q+	c #F7D2BB",
"r+	c #B88953",
"s+	c #2D6C00",
"t+	c #8E664C",
"u+	c #6E472A",
"v+	c #A07457",
"w+	c #7E563A",
"x+	c #5B381D",
"y+	c #B8765B",
"z+	c #FAD0B6",
"A+	c #FBDCC8",
"B+	c #FACFB5",
"C+	c #C7825B",
"D+	c #337200",
"E+	c #3F522E",
"F+	c #454036",
"G+	c #654127",
"H+	c #875C30",
"I+	c #A97531",
"J+	c #F1AC8A",
"K+	c #FAC8AA",
"L+	c #D89274",
"M+	c #755F2D",
"N+	c #345500",
"O+	c #59371D",
"P+	c #784D23",
"Q+	c #B67742",
"R+	c #8E1327",
"S+	c #C5493C",
"T+	c #E89374",
"U+	c #F6B895",
"V+	c #EDB28E",
"W+	c #E3A583",
"X+	c #A96543",
"Y+	c #5A7900",
"Z+	c #8BB100",
"`+	c #568800",
" @	c #5E550D",
".@	c #570419",
"+@	c #901827",
"@@	c #C88140",
"#@	c #9F623F",
"$@	c #7F4F3D",
"%@	c #683B24",
"&@	c #573D16",
"*@	c #4D6607",
"=@	c #61A000",
"-@	c #4F3511",
";@	c #B88340",
">@	c #7D5539",
",@	c #6C4426",
"'@	c #882828",
")@	c #A72A28",
"!@	c #A94A46",
"~@	c #B68572",
"{@	c #444E3A",
"]@	c #46631D",
"^@	c #479900",
"/@	c #2C6211",
"(@	c #AC5421",
"_@	c #55260E",
":@	c #BD947E",
"<@	c #D2AC92",
"[@	c #B0ABA5",
"}@	c #A79F95",
"|@	c #9A877C",
"1@	c #AFACA6",
"2@	c #494A42",
"3@	c #376B0D",
"4@	c #4F9A00",
"5@	c #78A102",
"6@	c #3E5017",
"7@	c #522A1A",
"8@	c #0D0B09",
"9@	c #CBA38A",
"0@	c #EBC3AC",
"a@	c #CFAC9F",
"b@	c #B7B1A9",
"c@	c #EFEEEC",
"d@	c #D1CEC6",
"e@	c #7F7664",
"f@	c #695335",
"g@	c #408300",
"h@	c #3B8106",
"i@	c #A15021",
"j@	c #AE5828",
"k@	c #181815",
"l@	c #B98D6D",
"m@	c #EBC7B9",
"n@	c #916A4F",
"o@	c #8A5339",
"p@	c #B48474",
"q@	c #A56C54",
"r@	c #B16945",
"s@	c #BB6F48",
"t@	c #7D6018",
"u@	c #3F6609",
"v@	c #473329",
"w@	c #C0A594",
"x@	c #EFAB8F",
"y@	c #4C3526",
"z@	c #C69C7C",
"A@	c #946C51",
"B@	c #484441",
"C@	c #5E5D5C",
"D@	c #3F362E",
"E@	c #C1734B",
"F@	c #A15C3D",
"G@	c #7C7215",
"H@	c #555337",
"I@	c #7F7564",
"J@	c #E6A488",
"K@	c #E19271",
"L@	c #464439",
"M@	c #675746",
"N@	c #563A29",
"O@	c #8A4D39",
"P@	c #8F4016",
"Q@	c #8F4118",
"R@	c #60341A",
"S@	c #4F7508",
"T@	c #88B000",
"U@	c #3A5500",
"V@	c #C27A5C",
"W@	c #6B513E",
"X@	c #99947E",
"Y@	c #BAB4A8",
"Z@	c #8B7B6E",
"`@	c #AD531A",
" #	c #B7A9A2",
".#	c #4C543D",
"+#	c #3C7A00",
"@#	c #433E3B",
"##	c #635D53",
"$#	c #6B6459",
"%#	c #7C766F",
"&#	c #7D7770",
"*#	c #783615",
"=#	c #783209",
"-#	c #537A1C",
";#	c #7D9E00",
">#	c #6C9300",
",#	c #8F5922",
"'#	c #A56729",
")#	c #794D37",
"!#	c #C07541",
"~#	c #C02C17",
"{#	c #852814",
"]#	c #71581D",
"^#	c #578100",
"/#	c #44440E",
"(#	c #801229",
"_#	c #6A231E",
":#	c #A9271A",
"<#	c #C42A1C",
"[#	c #7C1514",
"}#	c #7EA100",
"|#	c #3F493C",
"1#	c #3C3C3C",
"2#	c #334326",
"  . + @ #   $ % & & * = * %   - ; > -   % , ' % ; # # ) - , ' ! ",
"~ { ] ^ / * ( _ / / :   # , < * % ; < % ; < ' ( [ & # ;   } } ' ",
"_ <   ; @ | 1 2 3 ) )   % , # ;   = = < ) : 4 + 5 < # / = 6 & 7 ",
"  ' = % ! % 8 [ ' 9 % ) 0 a b c d e f g h ' < @ ~ # # # # = = i ",
"# # / , j 5 k .   ' l m n o p p p p q r s t - * ) j 9 >   ' - } ",
"< = ^   )   u k 3 v w x o p p p p p p y z A 9 9 B C k u j , ^ # ",
"< ~ | D E < < - F G p p p p p p p p p p p p H I D _ : g # & / & ",
"~ J @ K K   % L M N p p p p p p p p p p p p O P [ % 9 Q ' R = < ",
"& & ~ [ S % T U V W X Y Z p ` ` p p  ...+.@.#.$.%.C &.&.3 *.% % ",
"& ~ # *.3 % =.z #.-.;.>.,.Z '.'.).).!.~.{.].^./.(.j 1 7 _.) - , ",
", ' _.:.+ ; <.[.p p '.'.}.|.>.1.2.3.4.5.6.7.8.9.z 0.i _.~ ^ # ~ ",
"' - 7 [ } , a.b.p p p c.p d.@.V e.f.g.h.i.j.k.l.m.n.* # R : = _ ",
"' -   - * , o.b.).p y p.).p q.r.s.t.u.v.w.x.y.z.A.B.. j : , ' C.",
"5 C k ' ) 9 D.b.d.p ).E.F.).G.H.I.J.K.L.M.N.O.P.Q.- 9 K _ ' _ _ ",
"K ; = # ; D R.S.T.U.V.W.X.Y.Z.`. +.+++@+#+$+%+&+_ .   ! C 9 % < ",
"- } # = . . *+=+-+T.;+>+,+'+)+!+~+{+]+^+/+(+%+_+:+' , ) E 5 D % ",
"' 9 ; j % * <+[+-+-+}+|+1+2+3+4+~+5+6+7+8+9+0+a++ b+# # # < - % ",
"_ - -   ; < c+d+e+e+S.f+g+h+i+j+k+l+m+n+o+p+q+r+g k ! 3 _ - = } ",
"% } = ) ) : 4 s+t+u+v+w+x+y+k+k+k+k+k+z+A+A+B+C+&.&.&.! S ' _.* ",
"D+/ E+D+@ : < @ F+G+u+u+H+I+J+k+k+k+k+k+K+K+L+M+- [ + g h = % ' ",
"- @ 4 ] { B - * ) N+O+P+Q+R+S+T+U+U+U+V+W+X+Y+Z+_ + 2 + *.% . ) ",
"E > ( g *.K _ [ B &.`+ @.@+@@@#@$@$@$@%@&@*@% > =@5 8 8   *.D+R ",
"- . > R *.C 3 3 3 [ : g -@;@>@,@'@)@!@~@{@# } - - 9 % < - ) _ K ",
"- h R ]@< 9 ^@=@Q   9 /@(@_@:@<@3.[@}@|@1@2@& # / ) 1 3@< 9 C 4@",
"> - 6 _.4 % [ ^@! C 5@6@7@8@9@0@a@b@c@d@e@f@< ~ & = < ' . 3   ) ",
":+g@]@- + Q &.C C g@h@i@j@k@l@m@n@o@p@q@r@s@t@^ & ) _ C.9 ] b+# ",
"^ D+{ - % D ! [ 7 ) u@v@w@x@y@z@A@B@C@D@E@F@G@8 @ ' _ - _.+ :+' ",
"/ Q ^@9 j ' D+4@*., H@I@J@K@L@M@N@O@P@Q@R@S@3 ]@/ ' ; = } _.. 9 ",
"~ _ T@> D+@ 4 + D - % U@V@W@X@X@Y@Z@`@ #.#S 9 ^ & ~ < _ 3 ' +#+ ",
"; :+B _.2 g , h Q - 9 S @###$#$#%#&#*#=#-#S - / / ; D k j j ( ) ",
"9 ' , - 2 % } * _ . ' ;#>#,#'#'#)#!#~#{#]#> , , < %   , / E+: ' ",
"' * ) ; - , , 9 :+' , , ^#/#(#(#_#:#<#[#}#E . D ' ( ^ E+|#1#2#R "};
