/* XPM */
static char * sprite_mc_face_walk_2_xpm[] = {
"32 32 484 2",
"  	c #59750A",
". 	c #538200",
"+ 	c #449B00",
"@ 	c #405B24",
"# 	c #4A4D45",
"$ 	c #65A200",
"% 	c #567B01",
"& 	c #464744",
"* 	c #4C5735",
"= 	c #4A533C",
"- 	c #4D6B18",
"; 	c #516E13",
"> 	c #638E00",
", 	c #4B5C30",
"' 	c #51730B",
") 	c #4A6226",
"! 	c #749C00",
"~ 	c #494C42",
"{ 	c #3E7400",
"] 	c #328A00",
"^ 	c #495334",
"/ 	c #474A42",
"( 	c #3C8200",
"_ 	c #5A8500",
": 	c #4B7402",
"< 	c #4E6521",
"[ 	c #438A00",
"} 	c #465935",
"| 	c #2B6219",
"1 	c #369300",
"2 	c #48A200",
"3 	c #4F9200",
"4 	c #306A0C",
"5 	c #569700",
"6 	c #44523B",
"7 	c #48720D",
"8 	c #308200",
"9 	c #578B00",
"0 	c #64521E",
"a 	c #63521E",
"b 	c #5F581D",
"c 	c #624F20",
"d 	c #61432E",
"e 	c #62442E",
"f 	c #42730B",
"g 	c #36631A",
"h 	c #377306",
"i 	c #4D7B00",
"j 	c #5D9E00",
"k 	c #6D6B2C",
"l 	c #946F53",
"m 	c #DFB592",
"n 	c #E0B692",
"o 	c #AC8668",
"p 	c #856F48",
"q 	c #559700",
"r 	c #6A9300",
"s 	c #5E6F18",
"t 	c #CEA685",
"u 	c #E0B693",
"v 	c #DAB18E",
"w 	c #8D7C48",
"x 	c #639B00",
"y 	c #82AD00",
"z 	c #589400",
"A 	c #6B8400",
"B 	c #6A7727",
"C 	c #D4AE93",
"D 	c #DFB591",
"E 	c #C49979",
"F 	c #736230",
"G 	c #508F01",
"H 	c #347B00",
"I 	c #355B24",
"J 	c #7BA500",
"K 	c #5B4A2C",
"L 	c #F9D5C9",
"M 	c #EEC8B4",
"N 	c #C69C7C",
"O 	c #746830",
"P 	c #3E8C00",
"Q 	c #4C6B0D",
"R 	c #72A300",
"S 	c #48611C",
"T 	c #86664E",
"U 	c #E7C4AC",
"V 	c #FDECEA",
"W 	c #FAD8CE",
"X 	c #EDCCBA",
"Y 	c #F3CEBE",
"Z 	c #E4BB9E",
"` 	c #DFB491",
" .	c #ECC7B2",
"..	c #FBD8CE",
"+.	c #D0A685",
"@.	c #ECC5AF",
"#.	c #E7BFA4",
"$.	c #D7AD8B",
"%.	c #8F674B",
"&.	c #72900B",
"*.	c #7CA900",
"=.	c #417B00",
"-.	c #4F473A",
";.	c #C8A180",
">.	c #E7BEA4",
",.	c #EDCAB7",
"'.	c #FAD8CD",
").	c #FDE9E6",
"!.	c #F8D4C7",
"~.	c #FAE1DB",
"{.	c #EBC6B8",
"].	c #E5BFAD",
"^.	c #F7E0D8",
"/.	c #E6C0A6",
"(.	c #A87E61",
"_.	c #FAD7CC",
":.	c #E6BEA3",
"<.	c #C59A7A",
"[.	c #BA8F6F",
"}.	c #6F6A1D",
"|.	c #436918",
"1.	c #4FA900",
"2.	c #936F53",
"3.	c #D6AB8A",
"4.	c #DCB498",
"5.	c #E5BDA0",
"6.	c #EFC8B4",
"7.	c #C89E7D",
"8.	c #E3BDAB",
"9.	c #DDB390",
"0.	c #B5896B",
"a.	c #814D2A",
"b.	c #824E2A",
"c.	c #ECC5B2",
"d.	c #DCB28F",
"e.	c #A87B5D",
"f.	c #A97C5E",
"g.	c #715733",
"h.	c #485F25",
"i.	c #3F502F",
"j.	c #574323",
"k.	c #A4795B",
"l.	c #B98E6F",
"m.	c #D6AC8A",
"n.	c #B98E6E",
"o.	c #C49A79",
"p.	c #C49978",
"q.	c #895F43",
"r.	c #D3A886",
"s.	c #8A6145",
"t.	c #A86136",
"u.	c #AA8062",
"v.	c #CBA282",
"w.	c #D3AFA1",
"x.	c #9E7254",
"y.	c #936B51",
"z.	c #404F29",
"A.	c #594120",
"B.	c #8E5A39",
"C.	c #7E5436",
"D.	c #C99F7E",
"E.	c #7D5539",
"F.	c #AA7D5F",
"G.	c #7D553A",
"H.	c #C79D7C",
"I.	c #875636",
"J.	c #94684A",
"K.	c #B56D47",
"L.	c #E69474",
"M.	c #8E583C",
"N.	c #703F1C",
"O.	c #9B7053",
"P.	c #E4BEAC",
"Q.	c #7C5336",
"R.	c #956548",
"S.	c #6D5E1F",
"T.	c #559B00",
"U.	c #686229",
"V.	c #D18660",
"W.	c #DF8D6B",
"X.	c #935C40",
"Y.	c #9F7356",
"Z.	c #6D4629",
"`.	c #9A5C35",
" +	c #754E32",
".+	c #C77E5E",
"++	c #7E563A",
"@+	c #8B6246",
"#+	c #E89575",
"$+	c #E89D7C",
"%+	c #E0AB8A",
"&+	c #E4AC8A",
"*+	c #9E7458",
"=+	c #B5896A",
"-+	c #DA8969",
";+	c #DD8C6B",
">+	c #927929",
",+	c #6C6C1D",
"'+	c #C37F5D",
")+	c #FAD2BD",
"!+	c #A18371",
"~+	c #B46738",
"{+	c #704120",
"]+	c #793D14",
"^+	c #7E401A",
"/+	c #C97F5E",
"(+	c #DC9979",
"_+	c #F9C19D",
":+	c #E59C7B",
"<+	c #92481C",
"[+	c #823F13",
"}+	c #904B23",
"|+	c #7F4B28",
"1+	c #92674A",
"2+	c #6B4122",
"3+	c #F9C5A5",
"4+	c #D89B82",
"5+	c #936E2B",
"6+	c #4B7600",
"7+	c #A8725D",
"8+	c #8B6250",
"9+	c #814C28",
"0+	c #B19074",
"a+	c #533D4B",
"b+	c #5B648C",
"c+	c #210A01",
"d+	c #A05B30",
"e+	c #FAC29E",
"f+	c #C88660",
"g+	c #240C02",
"h+	c #633B1E",
"i+	c #A05A2F",
"j+	c #764422",
"k+	c #D89375",
"l+	c #535C19",
"m+	c #466408",
"n+	c #2D1A0B",
"o+	c #914B21",
"p+	c #B09C82",
"q+	c #DFDFE8",
"r+	c #00003F",
"s+	c #6C6B97",
"t+	c #E2A58C",
"u+	c #F9C6A6",
"v+	c #F9C19C",
"w+	c #F9C3A0",
"x+	c #EEA686",
"y+	c #AFACAD",
"z+	c #000042",
"A+	c #8D8DB3",
"B+	c #C9C6B8",
"C+	c #A85F33",
"D+	c #65391C",
"E+	c #215200",
"F+	c #3F6123",
"G+	c #416501",
"H+	c #5A381D",
"I+	c #5E3317",
"J+	c #D39172",
"K+	c #E4E5FE",
"L+	c #616FE4",
"M+	c #A2A8FD",
"N+	c #F9CFB9",
"O+	c #FBDAC6",
"P+	c #FAD5BE",
"Q+	c #FBD8C1",
"R+	c #F7C2A4",
"S+	c #E4E6FF",
"T+	c #E7BEAD",
"U+	c #9C5930",
"V+	c #4A2E17",
"W+	c #184000",
"X+	c #2B600A",
"Y+	c #71521F",
"Z+	c #7B562A",
"`+	c #C17A5D",
" @	c #F8CFB9",
".@	c #FBD6BE",
"+@	c #FBD7C1",
"@@	c #FBDCC8",
"#@	c #FBDCC9",
"$@	c #F8D1BC",
"%@	c #F7C8AF",
"&@	c #E18F6D",
"*@	c #4B3318",
"=@	c #85592A",
"-@	c #557600",
";@	c #337200",
">@	c #3F522E",
",@	c #814A28",
"'@	c #BA5D2E",
")@	c #71451B",
"!@	c #CF825E",
"~@	c #F7BA96",
"{@	c #FAC9AA",
"]@	c #F6BB9A",
"^@	c #FAC8AA",
"/@	c #E49977",
"(@	c #824B2C",
"_@	c #A66327",
":@	c #A0482C",
"<@	c #6D3E2F",
"[@	c #BB4B26",
"}@	c #B13B25",
"|@	c #5E3E11",
"1@	c #8F532B",
"2@	c #D49072",
"3@	c #EAB08C",
"4@	c #F6B895",
"5@	c #EDB28E",
"6@	c #E3A684",
"7@	c #985638",
"8@	c #9B2F1B",
"9@	c #C1542E",
"0@	c #945A22",
"a@	c #83891F",
"b@	c #734D28",
"c@	c #815425",
"d@	c #65401F",
"e@	c #B7745A",
"f@	c #5C3012",
"g@	c #7F4F3D",
"h@	c #683B24",
"i@	c #865139",
"j@	c #CD8468",
"k@	c #805324",
"l@	c #946A4A",
"m@	c #8C6030",
"n@	c #6B820E",
"o@	c #61A000",
"p@	c #79780F",
"q@	c #593319",
"r@	c #A27D65",
"s@	c #C79D80",
"t@	c #9F7457",
"u@	c #9C6354",
"v@	c #B56656",
"w@	c #C95443",
"x@	c #C25B4B",
"y@	c #87423F",
"z@	c #DAA384",
"A@	c #8D5A40",
"B@	c #8E6649",
"C@	c #A27B60",
"D@	c #395010",
"E@	c #46631D",
"F@	c #479900",
"G@	c #487211",
"H@	c #713A1D",
"I@	c #2E1308",
"J@	c #C39B87",
"K@	c #E8C0A5",
"L@	c #D0ADA0",
"M@	c #9C9388",
"N@	c #B78E76",
"O@	c #EEA180",
"P@	c #E2AA8A",
"Q@	c #A69C90",
"R@	c #B6B3AC",
"S@	c #715741",
"T@	c #E6C0AE",
"U@	c #F4CEBE",
"V@	c #A27C60",
"W@	c #181512",
"X@	c #523A2F",
"Y@	c #376B0D",
"Z@	c #4F9A00",
"`@	c #665C12",
" #	c #944925",
".#	c #633F2F",
"+#	c #715A47",
"@#	c #D4A988",
"##	c #E9C4B7",
"$#	c #573D2B",
"%#	c #C7C4BE",
"&#	c #686357",
"*#	c #938F87",
"=#	c #EFEFEC",
"-#	c #B3B0A9",
";#	c #926A4E",
">#	c #F1CCBD",
",#	c #4C210D",
"'#	c #B25E31",
")#	c #4A3F35",
"!#	c #424935",
"~#	c #509B00",
"{#	c #408300",
"]#	c #646517",
"^#	c #43382F",
"/#	c #C9AF9E",
"(#	c #8E532F",
"_#	c #986F54",
":#	c #D9B095",
"<#	c #955332",
"[#	c #AF7C6B",
"}#	c #A06446",
"|#	c #A66D56",
"1#	c #B48474",
"2#	c #49453A",
"3#	c #966F54",
"4#	c #73523D",
"5#	c #55301A",
"6#	c #A3633E",
"7#	c #9D5D39",
"8#	c #5D5B24",
"9#	c #796D15",
"0#	c #8A7265",
"a#	c #F8BFA0",
"b#	c #8E512E",
"c#	c #361103",
"d#	c #946C52",
"e#	c #4E392A",
"f#	c #40362F",
"g#	c #3F362E",
"h#	c #5E5D5C",
"i#	c #564842",
"j#	c #865D43",
"k#	c #805F46",
"l#	c #517900",
"m#	c #204200",
"n#	c #874C29",
"o#	c #88502A",
"p#	c #496809",
"q#	c #52641C",
"r#	c #7F4F3C",
"s#	c #5C574D",
"t#	c #B8B2AA",
"u#	c #62280D",
"v#	c #8F4017",
"w#	c #8F4118",
"x#	c #8F4016",
"y#	c #904D36",
"z#	c #B0A7A1",
"A#	c #787663",
"B#	c #558C1B",
"C#	c #4D8E00",
"D#	c #3C5618",
"E#	c #40433B",
"F#	c #88B000",
"G#	c #58553A",
"H#	c #B1ABA6",
"I#	c #7E7666",
"J#	c #A65223",
"K#	c #9A7366",
"L#	c #CCC8C0",
"M#	c #C7C2BC",
"N#	c #A85729",
"O#	c #87553C",
"P#	c #B7B3AC",
"Q#	c #644D3E",
"R#	c #6D971C",
"S#	c #3C7A00",
"T#	c #5C8800",
"U#	c #957627",
"V#	c #8F612F",
"W#	c #572819",
"X#	c #9F4816",
"Y#	c #63564B",
"Z#	c #827E78",
"`#	c #5D3D30",
" $	c #9F491A",
".$	c #7C4022",
"+$	c #657A07",
"@$	c #566E00",
"#$	c #440712",
"$$	c #6F201F",
"%$	c #512D0E",
"&$	c #2C1E07",
"*$	c #9B5B25",
"=$	c #7B2216",
"-$	c #581D15",
";$	c #415029",
">$	c #557405",
",$	c #648412",
"'$	c #5A8200",
")$	c #2C4100",
"!$	c #A32224",
"~$	c #E73B0F",
"{$	c #701122",
"]$	c #397800",
"^$	c #8BB100",
"/$	c #3F493C",
"($	c #3C3C3C",
"_$	c #334326",
"  . + @ #   $ % & & * = * %   - ; > -   % , ' % ; # # ) - , ' ! ",
"~ { ] ^ / * ( _ / / :   # , < * % ; < % ; < ' ( [ & # ;   } } ' ",
"_ <   ; @ | 1 2 3 ) )   % , # ;   = = < ) : 4 + 5 < # / = 6 & 7 ",
"  ' = % ! % 8 [ ' 9 % ) 0 a b 0 c d e f g ' < @ ~ # # # # = = h ",
"# # / , i 5 j .   ' k l m m m m m m n o p q - * ) i 9 >   ' - } ",
"< = ^   )   r j 3 s t u m m m m m m m n v w 9 9 x y j r i , ^ # ",
"< ~ | z A < < - B C D m m m m m m m m m m E F G z _ : H # & / & ",
"~ I @ J J   % K C L M D m m m m m m m m m m N O [ % 9 P ' Q = < ",
"& & ~ [ R % S T U V W X Y Z Y `  ...+.+.@.#.$.%.&.y *.*.3 =.% % ",
"& ~ # =.3 % -.;.>.,.'.).!.~.{.].^./.(.(._.:.<.[.}.i 1 7 |.) - , ",
", ' |.1.+ ; 2.u 3.m 4.5.D 6.7.8.9.0.a.b.c.d.e.f.g.h.h |.~ ^ # ~ ",
"' - 7 [ i.j.k.l.m.E n.o.m p.q.r.0.s.t.a.u.v.w.x.y.z.* # Q : = _ ",
"' -   - * A.B.C.D.E.F.G.H.I.E.F.J.K.L.M.N.O.P.Q.R.S.. i : , ' T.",
"5 y j ' U.V.W.X.Y.Z.Y.`. +.+++@+K.#+$+%+&+*+=+E.-+;+>+J _ ' _ _ ",
"J ; = # ,+'+)+!+a.~+{+]+^+/+(+(+_+:+<+[+}+|+1+2+3+4+5+! y 9 % < ",
"- } # = . 6+7+8+9+0+a+b+c+d+_+_+e+f+a+b+g+h+i+j+k+l+, ) A 5 z % ",
"' 9 ; i % * m+n+o+p+q+r+s+t+u+v+w+x+y+z+A+B+C+D+E+F+# # # < - % ",
"_ - -   ; < G+H+I+J+K+L+M+N+O+P+Q+R+S+L+M+T+U+V+W+j ! 3 _ - = } ",
"% } = ) ) : X+Y+Z+`+ @.@+@@@#@$@@@@@O+P+%@&@*@=@-@*.*.! R ' |.* ",
";@/ >@;@@ : < ,@'@)@!@~@w+{@{@]@^@^@u+v+/@(@_@:@- [ + H g = % ' ",
"- @ 4 ] { x - <@[@}@|@1@2@3@4@4@4@5@6@7@|@8@9@0@_ + 2 + =.% . ) ",
"A > ( H =.J _ [ a@b@c@d@e@f@g@g@g@h@i@j@k@l@m@n@o@5 8 8   =.;@Q ",
"- . > Q =.y 3 3 p@q@r@s@t@u@v@w@x@y@z@A@B@4.C@D@- 9 % < - ) _ J ",
"- g Q E@< 9 F@G@H@I@J@K@L@M@N@O@P@Q@R@S@T@U@V@W@X@) 1 Y@< 9 y Z@",
"> - 6 |.4 % [ `@ #.#+#@###$#%#&#*#=#-#;#>#r.,#'#)#!#< ' . 3   ) ",
"~#{#E@- + P *.]#^#/#(#_#:#<#[#}#|#1#2#3#:#4#5#6#7#8#_ T.9 ] F+# ",
"^ ;@{ - % z ! 9#0#a#b#c#d#e#f#f#g#h#i#j#k#l#m#n#o#p#_ - |.+ ~#' ",
"/ P F@9 i ' ;@Z@q#r#s#t#u#v#w#w#w#x#y#z#A#B#C#D#E#' ; = } |.. 9 ",
"~ _ F#> ;@@ 4 + z - G#H#I#J#K#L#M#N#O#P#Q#R#9 ^ & ~ < _ 3 ' S#+ ",
"; ~#x |.2 H , g P - T#U#V#W#X#Y#Z#`# $.$+$R - / / ; z j i i ( ) ",
"9 ' , - 2 % } * _ . ' @$#$$$%$&$*$=$-$;$R > , , < %   , / >@: ' ",
"' * ) ; - , , 9 ~#' , , >$,$'$)$!$~${$]$^$A . z ' ( ^ >@/$($_$Q "};
