/* XPM */
static char * exit_xpm[] = {
"32 32 155 2",
"  	c #61A500",
". 	c #499200",
"+ 	c #4F9500",
"@ 	c #498C00",
"# 	c #3C4626",
"$ 	c #404A2A",
"% 	c #307300",
"& 	c #477300",
"* 	c #45640B",
"= 	c #434D30",
"- 	c #3F5528",
"; 	c #307800",
"> 	c #2F9200",
", 	c #538F00",
"' 	c #6A9900",
") 	c #66A400",
"! 	c #498500",
"~ 	c #475B19",
"{ 	c #307900",
"] 	c #428300",
"^ 	c #669500",
"/ 	c #5BA100",
"( 	c #559E00",
"_ 	c #69AD00",
": 	c #74B000",
"< 	c #377D00",
"[ 	c #505309",
"} 	c #258D00",
"| 	c #457900",
"1 	c #356602",
"2 	c #70A900",
"3 	c #3EA100",
"4 	c #287100",
"5 	c #63A900",
"6 	c #297100",
"7 	c #373C00",
"8 	c #398200",
"9 	c #405213",
"0 	c #6B9A00",
"a 	c #587A00",
"b 	c #699000",
"c 	c #508600",
"d 	c #497200",
"e 	c #314218",
"f 	c #2A6D00",
"g 	c #729900",
"h 	c #18140D",
"i 	c #163A00",
"j 	c #194200",
"k 	c #283C00",
"l 	c #1A2B00",
"m 	c #252C17",
"n 	c #317400",
"o 	c #444C00",
"p 	c #272C00",
"q 	c #20190E",
"r 	c #414400",
"s 	c #1E4400",
"t 	c #1F3300",
"u 	c #1B1D15",
"v 	c #2F3407",
"w 	c #24261B",
"x 	c #383500",
"y 	c #24330C",
"z 	c #19220D",
"A 	c #181603",
"B 	c #203C00",
"C 	c #1D5B00",
"D 	c #0E2200",
"E 	c #081200",
"F 	c #014006",
"G 	c #494100",
"H 	c #282603",
"I 	c #304200",
"J 	c #3C3900",
"K 	c #314D00",
"L 	c #1E5100",
"M 	c #113200",
"N 	c #382E00",
"O 	c #040803",
"P 	c #142B00",
"Q 	c #123600",
"R 	c #073407",
"S 	c #0A2A03",
"T 	c #1B1B20",
"U 	c #443A00",
"V 	c #5F6200",
"W 	c #4D4300",
"X 	c #265A00",
"Y 	c #21230E",
"Z 	c #222917",
"` 	c #474C00",
" .	c #303300",
"..	c #212300",
"+.	c #020202",
"@.	c #0C1B00",
"#.	c #1E4C00",
"$.	c #1C5200",
"%.	c #0A1101",
"&.	c #20390F",
"*.	c #3D5E00",
"=.	c #3A6E00",
"-.	c #3A5B00",
";.	c #246500",
">.	c #323924",
",.	c #394518",
"'.	c #344D00",
").	c #3B6400",
"!.	c #2D490A",
"~.	c #315200",
"{.	c #2E3523",
"].	c #395500",
"^.	c #1A4A03",
"/.	c #29321A",
"(.	c #0C0C07",
"_.	c #123800",
":.	c #142300",
"<.	c #2C4509",
"[.	c #5F8100",
"}.	c #264114",
"|.	c #333D1D",
"1.	c #2C3B16",
"2.	c #385900",
"3.	c #236B00",
"4.	c #467500",
"5.	c #323E19",
"6.	c #1A4800",
"7.	c #375300",
"8.	c #37490F",
"9.	c #286B00",
"0.	c #302B00",
"a.	c #2A4300",
"b.	c #0F1A0A",
"c.	c #151310",
"d.	c #201E03",
"e.	c #1A1C04",
"f.	c #100C0B",
"g.	c #0D2900",
"h.	c #151518",
"i.	c #022202",
"j.	c #2B2B00",
"k.	c #303000",
"l.	c #090B00",
"m.	c #110E11",
"n.	c #3E5D00",
"o.	c #275500",
"p.	c #173A00",
"q.	c #041800",
"r.	c #111303",
"s.	c #476100",
"t.	c #111D00",
"u.	c #312C00",
"v.	c #418A00",
"w.	c #4E9900",
"x.	c #3F8A00",
"  . + @ # $ % & * % = = = = - ; > , ' ) @ ! & ! & ~ ; { ] ^ / ( ",
"/ _ : < [ * } + | ~ & @ ' | & - = 1 } & , 2 ^ ! ! | 3 4 .   5   ",
"  _   6 7 8 9 0 @ a b c d 9 e # # e f e # 9 c 0 g ! 8 h ] (     ",
". { i j k l m 7 n o p q p r s k t u v w x l x y z r l A B C < { ",
"8 C D E s F 7 m x G H q p I J J K I h q L M N p h p p h O P j 6 ",
"{ j Q M R S M J m l H T l U V W I X h Y Z r ` Y h  ...h +.@.#.f ",
"n $.P %.&.n *.=.-.;.e >.>.#.,.'.).C 6 !.n ~.{.].e e ^./.(.D i ;.",
"f _.:.(.<.[.-.^.^.{ ~.].].~.e n -.>.}.C a |.{.e n n ).1.(.M j 6 ",
"< s M E 2.=.L 3.,.e !.-.a *.*.*.>.>.e 4.*.>.}.*.*.5.{.1...M 6.;.",
"n $.M O '.e ].n >.-.=.].).a ).-.|.>.~.[.].n 7.;.{.{.>.'.O P $.;.",
";.i %.O Y 8.].'.e 9.{ <.>.|.-.n ).8.4.[.=.*.1.L 1.].7.0.P Q i ;.",
"n $.@.+.h H a.b.S Y #. .c.:.h  .r N ].K d...e.H  .u f.b.(.P j ;.",
";._.g.@.h b.u h.z z J H e.d.i.H J j.e.K G k.h c...l H (.M Q j f ",
";.j i.l.h.h.H H e.p 0.d.N Y h. .o H m.e.0.G N c.Y e.p A +.i $.f ",
"{ C g.D t y k k v k l m x i m o o a.i Y B ].y p m Y k t O _.i 8 ",
"n j M D k k a.y a.s m m k k m a.n.o.v m p.$.a.m k k m Z %.q._.n ",
"{ i r.E t m v k y o.#.m m m w a.$.n.s.o.k o.s K v a.j k D M B n ",
"8 i M l.w m 6.#.a.w m v &.v y m p.a.s K ].].s k k m $.j D M C { ",
"6 $.g.l.t a.s 2.#.a.2.].n.<.k m m y #.y k K n.2.2.o.X :.t.D j ;.",
"f j Q P :.b.h  .B ..f.r.t...D :.D A b.r.e.f.:.P l l f.l.E D _.;.",
";.j Q D D @.b.t.t j.A r.h P @.t...r.c.f.:.@.h A f...A (.O :.6.8 ",
";.i M @.g.i...b.A A A f.@.@.u...P P f.f.g.t...A (.r.r.(.+.:._.;.",
";.$.P O h b.g.:.l b.c.c.u D  .j.e.P r.r.h p H r.r.e.A r.+.M $.6 ",
"3.j P :.l l l Y t l u u p l z t I i ..u z _...z l Y Y z O M 6.< ",
"6 j D @.z z l l g.j B u u Y u Y i I I l P j p t ..t p Y O D _.9.",
";.i D @.u u Q M l z u z z z z Y Q t t B B t l M p z M M +.@.$.n ",
"6 6.@.:.H l i B Q l t i I t t u z l _.l t I I B i B B D D M #.n ",
"n j M @.t.g.h.B B j...:.....b.g.:.b.:.r.u A P t t t D l.@.i ;.8 ",
"v.;.$.Q r.g.P g.+.+.E @.D q.@.@.+.+.+.D E D E +.D q.+.@.g.C < + ",
"> 8 @ o.j Q _._.M M M D M D _.P @.Q P Q g.Q g.D g.D r._.j 6 . + ",
"+ w.v.9.;.j $._.j $.j 6._.i C j s i $.j 6.i #.s j i #.#.;.w.3 w.",
"+ @ . > 8 n 4 ;.6 3.;.n ;.;.n n x.{ 3.6 ;.;.;.;.6 ;.f { @ , + w."};
