/* XPM */
static char * floor_xpm[] = {
"32 32 79 1",
" 	c #59750A",
".	c #538200",
"+	c #449B00",
"@	c #405B24",
"#	c #4A4D45",
"$	c #65A200",
"%	c #567B01",
"&	c #464744",
"*	c #4C5735",
"=	c #4A533C",
"-	c #4D6B18",
";	c #516E13",
">	c #638E00",
",	c #4B5C30",
"'	c #51730B",
")	c #4A6226",
"!	c #749C00",
"~	c #494C42",
"{	c #3E7400",
"]	c #328A00",
"^	c #495334",
"/	c #474A42",
"(	c #3C8200",
"_	c #5A8500",
":	c #4B7402",
"<	c #4E6521",
"[	c #438A00",
"}	c #465935",
"|	c #2B6219",
"1	c #369300",
"2	c #48A200",
"3	c #4F9200",
"4	c #306A0C",
"5	c #569700",
"6	c #44523B",
"7	c #48720D",
"8	c #308200",
"9	c #578B00",
"0	c #347B00",
"a	c #36631A",
"b	c #377306",
"c	c #4D7B00",
"d	c #5D9E00",
"e	c #3C7A00",
"f	c #559B00",
"g	c #6A9300",
"h	c #337200",
"i	c #4FA900",
"j	c #7CA900",
"k	c #82AD00",
"l	c #639B00",
"m	c #589400",
"n	c #6B8400",
"o	c #88B000",
"p	c #509B00",
"q	c #355B24",
"r	c #7BA500",
"s	c #61A000",
"t	c #56A400",
"u	c #3E8C00",
"v	c #4C6B0D",
"w	c #72A300",
"x	c #46631D",
"y	c #436918",
"z	c #4F9A00",
"A	c #417B00",
"B	c #376B0D",
"C	c #3F6123",
"D	c #389800",
"E	c #419500",
"F	c #4A8F00",
"G	c #3F522E",
"H	c #8BB100",
"I	c #479900",
"J	c #408300",
"K	c #7D9E00",
"L	c #3F493C",
"M	c #3C3C3C",
"N	c #334326",
" .+@# $%&&*=*% -;>- %,'%;##)-,'!",
"~{]^/*(_//: #,<*%;<%;<'([&#; }}'",
"_< ;@|123)) %,#; ==<):4+5<#/=6&7",
" '=%!%8['9%) '( -&#0a'<@~####==b",
"##/,c5d. ' ,}11:=*)1ef-*)c9> '-}",
"<=^ ) gd339'hi+}_j3'_k99lkdgc,^#",
"<~|mn<<-9$jodp,#,g!;_k33m_:0#&/&",
"~q@rr %^#,.ksj!)}*;<->+t[%9u'v=<",
"&&~[w%x&&#gl-[rj>-=yy%.z!kjj3A%%",
"&~#A3%~~<-j%6|][d[<)2ujokc17y)-,",
",'yi+;;'wj.,/+h#*-7-c5$[-)by~^#~",
"'-7[},%5j;,==b6#~[33. h2c,*#v:=_",
"'- -*,95;#c_$_ #/_knh}4+5-.c:,'f",
"5kd')95-#{]cw>},;llB2'}C[-9r_'__",
"r;=#;m;,- }#7+ .>',)2c},_. !k9%<",
"-}#=..,;%;##0D>!',);-,,9p',)n5m%",
"'9;c%*'%;~#,-,;!n};'. '++C###<-%",
"_-- ;<:([&#-'}}'$%*;9pks0d!3_-=}",
"%}=)):4+mx##}#&'+rn#<EFjjjj!w'y*",
"h/Gh@:<@~##6#==h1%wn7[<<-[+0a=%'",
"-@4]{l-*)c9>  -}#*'[7.kH_+2+A%.)",
"n>(0Ar_[ljlg ,^=##]]< %>s588 Ahv",
"-.>vAk333[:0#&&&=,bh6#}--9%<-)_r",
"-avx<9Isu 9]'-}<%5[;=#&#/)1B<9kz",
">-6y4%[I!krr9c%%; ;=#*<~&=<'.3 )",
"pJx-+ujkkJ1{yx<,=}#}#-'^&)_f9]C#",
"^h{-%m![7)h-/^~^%77,,_38@'_-y+p'",
"/uI9c'hzA,*~v'=_5-[1y53x/';=}y.9",
"~_o>h@4+m-%%7, fc}=e4w9^&~<_3'e+",
";ply20,au-9w9 .9,##}.w-//;mdcc()",
"9',-2%}*_.'Kj3%<###,w>,,<% ,/G:'",
"'*);-,,9p',,_5>%'}#[Hn.m'(^GLMNv"};
