/* XPM */
static char *result[] = {
/* columns rows colors chars-per-pixel */
"32 32 218 2 ",
"   c #1F140B",
".  c #1E1F1D",
"X  c #28190F",
"o  c #2B1B11",
"O  c #2C1F14",
"+  c #2B2017",
"@  c #342113",
"#  c #302014",
"$  c #3C2615",
"%  c #3D2819",
"&  c #1A2020",
"*  c #292925",
"=  c #2A2B28",
"-  c #332921",
";  c #342F29",
":  c #2E322F",
">  c #3D372E",
",  c #273233",
"<  c #2E3230",
"1  c #293638",
"2  c #373A35",
"3  c #323F3F",
"4  c #52381E",
"5  c #44372B",
"6  c #513822",
"7  c #523925",
"8  c #573E29",
"9  c #443C32",
"0  c #493F32",
"q  c #3E403B",
"w  c #4C4229",
"e  c #5D432F",
"r  c #42433C",
"t  c #4B4338",
"y  c #5C5131",
"u  c #684921",
"i  c #66472A",
"p  c #6D4C2D",
"a  c #694D32",
"s  c #684D37",
"d  c #6F5032",
"f  c #62503D",
"g  c #6E533A",
"h  c #735335",
"j  c #755635",
"k  c #735B3E",
"l  c #3E4E50",
"z  c #414A49",
"x  c #434E4C",
"c  c #51554D",
"v  c #52544D",
"b  c #475C5F",
"n  c #565851",
"m  c #565E58",
"M  c #695742",
"N  c #615C52",
"B  c #5E665F",
"V  c #666158",
"C  c #536767",
"Z  c #526768",
"A  c #566B6A",
"S  c #5C7678",
"D  c #5E797B",
"F  c #58787C",
"G  c #6D6F67",
"H  c #6E726C",
"J  c #71756B",
"K  c #767769",
"L  c #757A6E",
"P  c #7E7969",
"I  c #6D7A77",
"U  c #717E7B",
"Y  c #8E6538",
"T  c #926B37",
"R  c #936C35",
"E  c #916C36",
"W  c #946C35",
"Q  c #976F37",
"!  c #936E3E",
"~  c #96733C",
"^  c #9A743C",
"/  c #99763F",
"(  c #9C7D3E",
")  c #A2783D",
"_  c #A47B3D",
"`  c #846E44",
"'  c #8C6E4A",
"]  c #946D40",
"[  c #977147",
"{  c #9E7942",
"}  c #9E7B42",
"|  c #94724A",
" . c #94744A",
".. c #91714E",
"X. c #947B4D",
"o. c #8A775F",
"O. c #9D7F59",
"+. c #A17941",
"@. c #A57A43",
"#. c #A67C43",
"$. c #A67E42",
"%. c #A27845",
"&. c #A67B44",
"*. c #A97F40",
"=. c #A37D4E",
"-. c #A47F50",
";. c #8D7D67",
":. c #AB823E",
">. c #A78643",
",. c #A78647",
"<. c #A88043",
"1. c #A98043",
"2. c #AE8446",
"3. c #A88847",
"4. c #A8814A",
"5. c #AC8048",
"6. c #AA844A",
"7. c #A9824E",
"8. c #B08646",
"9. c #B2874D",
"0. c #B0894D",
"q. c #B38C4E",
"w. c #B69448",
"e. c #B0914F",
"r. c #B99448",
"t. c #BA9648",
"y. c #A78257",
"u. c #AE8952",
"i. c #A9865A",
"p. c #AF8758",
"a. c #A98E58",
"s. c #B28850",
"d. c #B58C51",
"f. c #B98D53",
"g. c #B49357",
"h. c #B59754",
"j. c #BD9754",
"k. c #BC9B54",
"l. c #BE9A55",
"z. c #B3905F",
"x. c #B4915C",
"c. c #BB9B5D",
"v. c #948163",
"b. c #9B8465",
"n. c #858677",
"m. c #82887F",
"M. c #978972",
"N. c #BE9B61",
"B. c #BA9866",
"V. c #BF9E6B",
"C. c #BD996C",
"Z. c #BEA86A",
"A. c #C09B56",
"S. c #C4A55E",
"D. c #C09D71",
"F. c #C1A061",
"G. c #CBA760",
"H. c #C7AD62",
"J. c #C8A968",
"K. c #CAAC6B",
"L. c #CCB66F",
"P. c #D4BA6D",
"I. c #C1A374",
"U. c #C4A877",
"Y. c #CCAC70",
"T. c #C8A878",
"R. c #C9A97B",
"E. c #CAAC7F",
"W. c #CBB370",
"Q. c #D5B771",
"!. c #D0B376",
"~. c #D1B774",
"^. c #D7B973",
"/. c #D5BA76",
"(. c #DABC73",
"). c #D9BD75",
"_. c #D6BB7A",
"`. c #D0B87D",
"'. c #D3BA7F",
"]. c #D9BE7F",
"[. c #678688",
"{. c #698789",
"}. c #6E8D8F",
"|. c #778B89",
" X c #6F9094",
".X c #6F9599",
"XX c #799695",
"oX c #759EA2",
"OX c #7AA3A8",
"+X c #7CA4A8",
"@X c #7FA8AB",
"#X c #7BA8AD",
"$X c #84938C",
"%X c #9C9780",
"&X c #819590",
"*X c #8C9B93",
"=X c #9DA294",
"-X c #85A6A7",
";X c #81AAAE",
":X c #90B8BC",
">X c #94BEBD",
",X c #CCAD82",
"<X c #C9AB84",
"1X c #CDAF85",
"2X c #D8B983",
"3X c #D9BF84",
"4X c #DDC482",
"5X c #DAC487",
"6X c #DDC687",
"7X c #DAC188",
"8X c #DDC68F",
"9X c #DFC98A",
"0X c #DFC88C",
"qX c #E0C98D",
"wX c #E1CA8F",
"eX c #E2CB96",
"rX c #8ABAC1",
"tX c None",
/* pixels */
"tXtXtXtXtXtXtXtXtXtXtXtXtXtXtXtXtXtXtXtXtXtXtXtXtXtXtXtXtXtXtXtX",
"tXtXtXtXtXtXtXtXtXtXtXtXtXtXtXtXtXtXtXtXtXtXtXtXtXtXtXtXtXtXtXtX",
"tXtXtXtXtXtXtXtXtXtXtXtXtXtXtXtXtXtXtXtXtXtXtXtXtXtXtXtXtXtXtXtX",
"tXtXtXtXtXtXtXtXtXtXtXtXtXtXtXtXtXtXtXtXtXtXtXtXtXtXtXtXtXtXtXtX",
"tXtXtXtXtXtXtXtXtXtXtXtXtXtXtXtXtXtXtXtXtXtXtXtXtXtXtXtXtXtXtXtX",
"tXtXtXtXtXtXtXtXtXtXtXtXtXtXtXtXtXtXtXtXtXtXtXtXtXtXtXtXtXtXtXtX",
"tXtXtXtXtXtXtXtXtXtXtXtXtXtXtXtXtXtXtXtXtXtXtXtXtXtXtXtXtXtXtXtX",
"tXtXtXtXtXtXtXtXtXtXtXtXtXtXtXtXtXtXtXtXtXtXtXtXtXtXtXtXtXtXtXtX",
"tXtXtXtXtXtXtXtXtXtXtXtXtXtXtXtXtXtXtXtXtXtXtXtXtXtXtXtXtXtXtXtX",
"tXtXtXtXtXtXtXtXtXtXtXtXtXtXtXtXtXtXtXtXtXtXtXtXtXtXtXtXtXtXtXtX",
"tXtXtXtXtXtXtXtXtXtXtXtXtXtXtXtXtXtXtXtXtXtXtXtXtXtXtXtXtXtXtXtX",
"tXtXtXtXtXtXtXtXtXtXtXk.K.0XqXwXwX6Xt.w.tXtXtXtXtXtXtXtXtXtXtXtX",
"tXtXtXtXtXtXtXtXtXZ.'.eX7XQ.G.j.l.S.5X9X>.tXtXtXtXtXtXtXtXtXtXtX",
"tXtXtXtXtXtXtXtXX.`.J.6.d.f.s.9.1.) { ~ g.W.( tXtXtXtXtXtXtXtXtX",
"tXtXtXtXtXtXtX` a./ T &.p.D.R.T.I.7.8.0.+._.H.tXtXtXtXtXtXtXtXtX",
"tXtXtXtXtXtXtX .4XF.<.#.C.<X1XE.,Xi.q.N.u.r.L.y tXtXtXtXtXtXtXtX",
"tXtXtXtXtXtXtX;.!.3X4.$.2.B.V.z.y.! ^ *.,.P.3.w tXtXtXtXtXtXtXtX",
"tXtXtXtXtXtX@XM.-.2X8XU.x.R W Q _ :.e.E h.A.4 X oXtXtXtXtXtXtXtX",
"tXtXtXtXtXtXXX=X' Y %.Y.].).(.^.c.~./.} u $ O #XC tXtXtXtXtXtXtX",
"tXtXtXtXtX0 P >X:X$Xd [ ] @.5.=.| k j i o # q }.+ tXtXtXtXtXtXtX",
"tXtXtXtXtXr o.v.-XrXV ..O.h 7 8 % @ a 6 Z D {.2 * , tXtXtXtXtXtX",
"tXtXtXtXtXA K M g H G %X*Xp e s 9 > n.|.+X Xz = & tXtXtXtXtXtXtX",
"tXtXtXtXtXtXtXv t 5 f b.m.I U ;XOX.X&XJ - ; . tXtXtXtXtXtXtXtXtX",
"tXtXtXtXtXtXtXtXtX: c L N m [.S x   n B < tXtXtXtXtXtXtXtXtXtXtX",
"tXtXtXtXtXtXtXtXtXtXtXF b 3 l tXtXtX1 tXtXtXtXtXtXtXtXtXtXtXtXtX",
"tXtXtXtXtXtXtXtXtXtXtXtXtXtXtXtXtXtXtXtXtXtXtXtXtXtXtXtXtXtXtXtX",
"tXtXtXtXtXtXtXtXtXtXtXtXtXtXtXtXtXtXtXtXtXtXtXtXtXtXtXtXtXtXtXtX",
"tXtXtXtXtXtXtXtXtXtXtXtXtXtXtXtXtXtXtXtXtXtXtXtXtXtXtXtXtXtXtXtX",
"tXtXtXtXtXtXtXtXtXtXtXtXtXtXtXtXtXtXtXtXtXtXtXtXtXtXtXtXtXtXtXtX",
"tXtXtXtXtXtXtXtXtXtXtXtXtXtXtXtXtXtXtXtXtXtXtXtXtXtXtXtXtXtXtXtX",
"tXtXtXtXtXtXtXtXtXtXtXtXtXtXtXtXtXtXtXtXtXtXtXtXtXtXtXtXtXtXtXtX",
"tXtXtXtXtXtXtXtXtXtXtXtXtXtXtXtXtXtXtXtXtXtXtXtXtXtXtXtXtXtXtXtX"
};
