/* XPM */
static char * 0_xpm[] = {
"50 90 553 2",
"  	c #000000",
". 	c #060304",
"+ 	c #0E090B",
"@ 	c #110202",
"# 	c #170000",
"$ 	c #180000",
"% 	c #1D0105",
"& 	c #160000",
"* 	c #140000",
"= 	c #180505",
"- 	c #120909",
"; 	c #4F2321",
"> 	c #C55E65",
", 	c #D55C61",
"' 	c #D65C60",
") 	c #D75C60",
"! 	c #CC625D",
"~ 	c #D25F5E",
"{ 	c #DA5A63",
"] 	c #B5555E",
"^ 	c #351316",
"/ 	c #070908",
"( 	c #5E2121",
"_ 	c #DB5F61",
": 	c #F85F61",
"< 	c #FE5D5A",
"[ 	c #FE5D59",
"} 	c #FD5E59",
"| 	c #FE5E59",
"1 	c #FD5A57",
"2 	c #FE5A57",
"3 	c #FF5A5C",
"4 	c #F85A64",
"5 	c #C3575D",
"6 	c #35130C",
"7 	c #040101",
"8 	c #0A0807",
"9 	c #5A2628",
"0 	c #D65D62",
"a 	c #FE585E",
"b 	c #FF5A56",
"c 	c #FF5C58",
"d 	c #FE5C5A",
"e 	c #FF595D",
"f 	c #FF5B5C",
"g 	c #FD5E5A",
"h 	c #FC5D59",
"i 	c #F5625D",
"j 	c #CD5750",
"k 	c #331213",
"l 	c #130C0B",
"m 	c #0E0304",
"n 	c #220B0A",
"o 	c #AE5559",
"p 	c #F4636A",
"q 	c #FF585D",
"r 	c #FE5B59",
"s 	c #FE5C5B",
"t 	c #FF5A5B",
"u 	c #FD5C5E",
"v 	c #FE5C5E",
"w 	c #FF5C5A",
"x 	c #FB5F5A",
"y 	c #F85F5B",
"z 	c #F46162",
"A 	c #824A4C",
"B 	c #260D0D",
"C 	c #010000",
"D 	c #040201",
"E 	c #662524",
"F 	c #C25E60",
"G 	c #823B38",
"H 	c #CD555A",
"I 	c #FF5465",
"J 	c #F85E5D",
"K 	c #FB5F59",
"L 	c #FE5D58",
"M 	c #FE5C58",
"N 	c #FF5C56",
"O 	c #FD5E55",
"P 	c #FD5C5A",
"Q 	c #F65B65",
"R 	c #B25354",
"S 	c #944344",
"T 	c #B25D5A",
"U 	c #471510",
"V 	c #060201",
"W 	c #0F0503",
"X 	c #582826",
"Y 	c #D3605C",
"Z 	c #F6615D",
"` 	c #E35D64",
" .	c #7F3132",
"..	c #D4545E",
"+.	c #F35E61",
"@.	c #FC5D5D",
"#.	c #FB5D5C",
"$.	c #FA5E5D",
"%.	c #FF595B",
"&.	c #FF5758",
"*.	c #EC655D",
"=.	c #B55452",
"-.	c #9D4349",
";.	c #EF6269",
">.	c #FA5E5A",
",.	c #C75650",
"'.	c #361313",
").	c #050202",
"!.	c #050201",
"~.	c #602627",
"{.	c #DD5D64",
"].	c #FB5A61",
"^.	c #F0635C",
"/.	c #FF5B60",
"(.	c #E95E60",
"_.	c #7A352F",
":.	c #B05359",
"<.	c #C64D59",
"[.	c #C34E56",
"}.	c #BD5255",
"|.	c #BD5157",
"1.	c #C94A59",
"2.	c #A54C4E",
"3.	c #8F4941",
"4.	c #F06063",
"5.	c #FE5860",
"6.	c #FF5D5B",
"7.	c #F56160",
"8.	c #C2555F",
"9.	c #44141A",
"0.	c #0D0807",
"a.	c #B25C5B",
"b.	c #FB5960",
"c.	c #FF535E",
"d.	c #F45F5C",
"e.	c #FB5F53",
"f.	c #D05E60",
"g.	c #1D0807",
"h.	c #050101",
"i.	c #020000",
"j.	c #030000",
"k.	c #080000",
"l.	c #061611",
"m.	c #401C1E",
"n.	c #ED5C67",
"o.	c #FB6057",
"p.	c #FF5B5B",
"q.	c #FB5E59",
"r.	c #F95D68",
"s.	c #924349",
"t.	c #010101",
"u.	c #B95858",
"v.	c #FE5B5D",
"w.	c #FD5D5A",
"x.	c #FD5D5D",
"y.	c #FF5952",
"z.	c #FE5E57",
"A.	c #DC5962",
"B.	c #140202",
"C.	c #000302",
"D.	c #230512",
"E.	c #000806",
"F.	c #42181D",
"G.	c #F45968",
"H.	c #FE5E55",
"I.	c #FE5C59",
"J.	c #F8605C",
"K.	c #FF5B59",
"L.	c #FB5C5E",
"M.	c #964544",
"N.	c #C4525A",
"O.	c #FF575F",
"P.	c #F8605B",
"Q.	c #FB5E5C",
"R.	c #FF5856",
"S.	c #FC5F5B",
"T.	c #D95A62",
"U.	c #1A0101",
"V.	c #000705",
"W.	c #100207",
"X.	c #441719",
"Y.	c #F35B66",
"Z.	c #FF5D59",
"`.	c #FE5B61",
" +	c #FF595A",
".+	c #F86059",
"++	c #944642",
"@+	c #080304",
"#+	c #C55355",
"$+	c #FD5C5D",
"%+	c #FF5D5C",
"&+	c #DF585E",
"*+	c #130301",
"=+	c #000603",
"-+	c #000100",
";+	c #421819",
">+	c #F65965",
",+	c #FA5F5B",
"'+	c #944643",
")+	c #050203",
"!+	c #C45453",
"~+	c #FA5E5C",
"{+	c #FF5B5A",
"]+	c #FE5D5B",
"^+	c #FF5C5B",
"/+	c #DF585C",
"(+	c #0F0401",
"_+	c #401919",
":+	c #F65966",
"<+	c #FC5C5A",
"[+	c #FB5E5B",
"}+	c #FF5C59",
"|+	c #FB5E5D",
"1+	c #944544",
"2+	c #C7535C",
"3+	c #FF5A59",
"4+	c #F95F5D",
"5+	c #FE5D53",
"6+	c #FE5C55",
"7+	c #DF5861",
"8+	c #0D0403",
"9+	c #000101",
"0+	c #461C1C",
"a+	c #EE5E66",
"b+	c #FD5C59",
"c+	c #FE5D5D",
"d+	c #FC5E58",
"e+	c #FF5A57",
"f+	c #F65D62",
"g+	c #92484A",
"h+	c #7E3A3D",
"i+	c #E76365",
"j+	c #FC5D5E",
"k+	c #FA5F5C",
"l+	c #FE5758",
"m+	c #EB6460",
"n+	c #994044",
"o+	c #23171B",
"p+	c #1E191C",
"q+	c #191919",
"r+	c #171A18",
"s+	c #1B181A",
"t+	c #20151C",
"u+	c #281818",
"v+	c #AF5655",
"w+	c #FB5D5B",
"x+	c #DC5E61",
"y+	c #5E2528",
"z+	c #0C0707",
"A+	c #080204",
"B+	c #7C3D3D",
"C+	c #ED6066",
"D+	c #FE5A5E",
"E+	c #F65968",
"F+	c #974749",
"G+	c #242A1F",
"H+	c #2F332F",
"I+	c #323030",
"J+	c #313131",
"K+	c #32312F",
"L+	c #303232",
"M+	c #382D35",
"N+	c #342F31",
"O+	c #2D221A",
"P+	c #B65256",
"Q+	c #F95D63",
"R+	c #FE5963",
"S+	c #DB5D5F",
"T+	c #5C2622",
"U+	c #030504",
"V+	c #0C0102",
"W+	c #8E3B3C",
"X+	c #D76767",
"Y+	c #904449",
"Z+	c #322625",
"`+	c #25352F",
" @	c #2B352E",
".@	c #2F3130",
"+@	c #303030",
"@@	c #3A2C2E",
"#@	c #2A3330",
"$@	c #2A3334",
"%@	c #352D35",
"&@	c #2D322E",
"*@	c #36201B",
"=@	c #B15452",
"-@	c #CF6468",
";@	c #652425",
">@	c #050100",
",@	c #0A0100",
"'@	c #442823",
")@	c #222C24",
"!@	c #362F31",
"~@	c #372C31",
"{@	c #3C2A2F",
"]@	c #31302F",
"^@	c #2F3030",
"/@	c #2E3133",
"(@	c #302E32",
"_@	c #2D342C",
":@	c #2E2518",
"<@	c #3F2621",
"[@	c #110404",
"}@	c #020001",
"|@	c #1A060D",
"1@	c #190505",
"2@	c #7D424B",
"3@	c #372321",
"4@	c #3B2B2E",
"5@	c #2B3332",
"6@	c #2F302F",
"7@	c #2D312F",
"8@	c #23372F",
"9@	c #392C30",
"0@	c #3E2931",
"a@	c #273330",
"b@	c #2F312F",
"c@	c #342D29",
"d@	c #522727",
"e@	c #704143",
"f@	c #1A0C0F",
"g@	c #050A09",
"h@	c #190706",
"i@	c #AA534E",
"j@	c #F2625D",
"k@	c #B7584F",
"l@	c #3B1F25",
"m@	c #25333A",
"n@	c #2F312D",
"o@	c #34302F",
"p@	c #362E2F",
"q@	c #372D33",
"r@	c #2B3434",
"s@	c #322F2D",
"t@	c #502325",
"u@	c #D85C60",
"v@	c #E66460",
"w@	c #8A3E38",
"x@	c #0F0202",
"y@	c #060303",
"z@	c #310F0F",
"A@	c #B14E54",
"B@	c #F3615E",
"C@	c #B85455",
"D@	c #3F1F24",
"E@	c #272E2A",
"F@	c #313130",
"G@	c #30312F",
"H@	c #352E30",
"I@	c #313032",
"J@	c #2F2F2C",
"K@	c #582425",
"L@	c #CF6268",
"M@	c #FC5764",
"N@	c #EE6266",
"O@	c #883D45",
"P@	c #060101",
"Q@	c #040301",
"R@	c #9B4E4E",
"S@	c #F85E67",
"T@	c #FE5A60",
"U@	c #FD5B5E",
"V@	c #FE5956",
"W@	c #B65055",
"X@	c #070604",
"Y@	c #0C0809",
"Z@	c #2D1211",
"`@	c #D15E63",
" #	c #F95D62",
".#	c #FF5859",
"+#	c #FE595D",
"@#	c #E4696F",
"##	c #6F393B",
"$#	c #0E0207",
"%#	c #B95859",
"&#	c #FE585D",
"*#	c #FC5D57",
"=#	c #F3635B",
"-#	c #FE5B57",
";#	c #FE5B56",
">#	c #E0585D",
",#	c #0E0301",
"'#	c #41181A",
")#	c #F15C66",
"!#	c #FF5A58",
"~#	c #F7615B",
"{#	c #FD5E58",
"]#	c #FA5F5F",
"^#	c #9D4047",
"/#	c #010001",
"(#	c #C15459",
"_#	c #FF575D",
":#	c #F95F59",
"<#	c #FC5C5F",
"[#	c #FA5D5B",
"}#	c #E45559",
"|#	c #100700",
"1#	c #090203",
"2#	c #43171B",
"3#	c #F45A67",
"4#	c #FC5F56",
"5#	c #FD5B5C",
"6#	c #F85F5F",
"7#	c #FE5C56",
"8#	c #FD5D56",
"9#	c #9A4341",
"0#	c #C45356",
"a#	c #FD5B5D",
"b#	c #FF5B56",
"c#	c #FD5B5F",
"d#	c #E2575B",
"e#	c #0F0800",
"f#	c #42181A",
"g#	c #F45A66",
"h#	c #FB6058",
"i#	c #FE595C",
"j#	c #F85F5E",
"k#	c #FB5D58",
"l#	c #924742",
"m#	c #FC5C59",
"n#	c #C15656",
"o#	c #FE5E56",
"p#	c #FB5E57",
"q#	c #DA5A64",
"r#	c #160304",
"s#	c #45191B",
"t#	c #F95F5B",
"u#	c #9A4345",
"v#	c #A65354",
"w#	c #F46160",
"x#	c #F86058",
"y#	c #F9605A",
"z#	c #FE5660",
"A#	c #C95661",
"B#	c #330F0E",
"C#	c #320F0D",
"D#	c #320E0E",
"E#	c #300F0F",
"F#	c #2C110F",
"G#	c #3E1916",
"H#	c #DA6061",
"I#	c #FB5E5A",
"J#	c #FE5C57",
"K#	c #FF5958",
"L#	c #ED6366",
"M#	c #814244",
"N#	c #090505",
"O#	c #0C0304",
"P#	c #351717",
"Q#	c #B85759",
"R#	c #F75D61",
"S#	c #FB605B",
"T#	c #FE5762",
"U#	c #CB5456",
"V#	c #793530",
"W#	c #DA5962",
"X#	c #E55A5E",
"Y#	c #E55A5C",
"Z#	c #E85662",
"`#	c #D95F63",
" $	c #E4585F",
".$	c #D75358",
"+$	c #79322C",
"@$	c #E45B67",
"#$	c #FE5C5C",
"$$	c #FC5E5B",
"%$	c #F46062",
"&$	c #9C4A49",
"*$	c #080101",
"=$	c #0F070D",
"-$	c #300F12",
";$	c #BE5458",
">$	c #FB5A64",
",$	c #D1545A",
"'$	c #763830",
")$	c #E76062",
"!$	c #FE5B60",
"~$	c #FC5D5A",
"{$	c #FA5F5A",
"]$	c #FC5C5D",
"^$	c #FF5855",
"/$	c #FB5B5A",
"($	c #CA5E5B",
"_$	c #783A38",
":$	c #E1625E",
"<$	c #EF6367",
"[$	c #A24748",
"}$	c #170100",
"|$	c #2B0D0C",
"1$	c #A5474F",
"2$	c #873436",
"3$	c #E46063",
"4$	c #FE5C60",
"5$	c #FC5F57",
"6$	c #F46455",
"7$	c #FA5F59",
"8$	c #FD5861",
"9$	c #DD575F",
"0$	c #803130",
"a$	c #97484B",
"b$	c #250B0A",
"c$	c #100307",
"d$	c #120308",
"e$	c #AD5457",
"f$	c #F95C63",
"g$	c #FF5E5D",
"h$	c #FE5E5A",
"i$	c #F95F5A",
"j$	c #FE5B5A",
"k$	c #FF585C",
"l$	c #FE5C5D",
"m$	c #FC5D5B",
"n$	c #F45F5A",
"o$	c #844A4B",
"p$	c #0B0B08",
"q$	c #030101",
"r$	c #301314",
"s$	c #BE515E",
"t$	c #FB5B66",
"u$	c #FD5E57",
"v$	c #FD5F57",
"w$	c #F7605B",
"x$	c #FF585B",
"y$	c #F26465",
"z$	c #9D4840",
"A$	c #150303",
"B$	c #030102",
"C$	c #351012",
"D$	c #BD575B",
"E$	c #F16262",
"F$	c #FC5C5E",
"G$	c #FD5C5C",
"H$	c #F8605F",
"I$	c #EA6368",
"J$	c #99494C",
"K$	c #0B0201",
"L$	c #050805",
"M$	c #2A0F0E",
"N$	c #9B464A",
"O$	c #A54B4C",
"P$	c #A34C4B",
"Q$	c #A24D4B",
"R$	c #A24C4B",
"S$	c #A84A49",
"T$	c #A54C49",
"U$	c #9F4E4D",
"V$	c #884145",
"W$	c #2D0A0F",
"X$	c #190405",
"Y$	c #0F0203",
"Z$	c #0E0303",
"`$	c #130303",
" %	c #0B0203",
"                                                                                                    ",
"              . + @ # $ $ $ $ $ $ $ $ $ $ $ $ $ $ $ $ $ $ $ $ $ $ $ $ $ $ $ % & * = -               ",
"                ; > , ' ' ' ' ' ' ' ) ' ' ' ' ' ' ) ' ' ' ' ) ' ' ' ' ' ' ) ! ~ { ] ^ /             ",
"              ( _ : < [ } [ } | | } [ } | | | | } [ } | | } [ } | } | | } [ 1 2 3 4 5 6 7           ",
"          8 9 0 a b c d [ d [ < < [ d [ d < [ d [ d [ < < [ d [ d [ < d [ d e f g h i j k l         ",
"        m n o p q r s t t t t t t t t t t t t t t t t t t t t t t t t t t t u v w x y z A B C       ",
"      D E F G H I J K L L L L L L L L L L L L L L L L L L L L L L L L L L L M N O P Q R S T U V     ",
"    W X Y Z `  ...+.@.#.#.#.#.#.#.#.#.#.#.#.#.#.#.#.#.#.#.#.#.#.#.#.#.#.#.#.$.%.&.*.=.-.;.>.,.'.).  ",
"  !.~.{.].^./.(._.:.<.[.[.[.[.[.[.[.[.[.[.[.[.[.[.[.[.[.[.[.[.[.[.[.[.[.[.[.}.|.1.2.3.4.5.6.7.8.9.0.",
"    a.b.c.d.e.1 f.g.h.C i.C C C C C C C C C C C C C C C C C C i.C C C C C C j.k.l.m.n.o.p.q.d r.s.t.",
"    u.v.w.x.y.z.A.B.C.                                                        D.E.F.G.H.I.J.K.L.M.  ",
"    N.O.P.Q.R.S.T.U.                                                        V.W.  X.Y.Z.w `. +.+++@+",
"    #+$+d s w %+&+*+                                                        =+-+  ;+>+< P @.K.,+'+)+",
"    !+~+K.{+]+^+/+(+                                                              _+:+| <+[+}+|+1+  ",
"    !+~+K.{+]+^+/+(+                                                              _+:+| <+[+}+|+1+  ",
"    !+~+K.{+]+^+/+(+                                                              _+:+| <+[+}+|+1+  ",
"    !+~+K.{+]+^+/+(+                                                              _+:+| <+[+}+|+1+  ",
"    !+~+K.{+]+^+/+(+                                                              _+:+| <+[+}+|+1+  ",
"    !+~+K.{+]+^+/+(+                                                              _+:+| <+[+}+|+1+  ",
"    !+~+K.{+]+^+/+(+                                                              _+:+| <+[+}+|+1+  ",
"    !+~+K.{+]+^+/+(+                                                              _+:+| <+[+}+|+1+  ",
"    !+~+K.{+]+^+/+(+                                                              _+:+| <+[+}+|+1+  ",
"    !+~+K.{+]+^+/+(+                                                              _+:+| <+[+}+|+1+  ",
"    !+~+K.{+]+^+/+(+                                                              _+:+| <+[+}+|+1+  ",
"    !+~+K.{+]+^+/+(+                                                              _+:+| <+[+}+|+1+  ",
"    !+~+K.{+]+^+/+(+                                                              _+:+| <+[+}+|+1+  ",
"    !+~+K.{+]+^+/+(+                                                              _+:+| <+[+}+|+1+  ",
"    !+~+K.{+]+^+/+(+                                                              _+:+| <+[+}+|+1+  ",
"    !+~+K.{+]+^+/+(+                                                              _+:+| <+[+}+|+1+  ",
"    !+~+K.{+]+^+/+(+                                                              _+:+| <+[+}+|+1+  ",
"    !+~+K.{+]+^+/+(+                                                              _+:+| <+[+}+|+1+  ",
"    !+~+K.{+]+^+/+(+                                                              _+:+| <+[+}+|+1+  ",
"    !+~+K.{+]+^+/+(+                                                              _+:+| <+[+}+|+1+  ",
"    !+~+K.{+]+^+/+(+                                                              _+:+| <+[+}+|+1+  ",
"    !+~+K.{+]+^+/+(+                                                              _+:+| <+[+}+|+1+  ",
"    !+~+K.{+]+^+/+(+                                                              _+:+| <+[+}+|+1+  ",
"    !+~+K.{+]+^+/+(+                                                              _+:+| <+[+}+|+1+  ",
"    !+~+K.{+]+^+/+(+                                                              _+:+| <+[+}+|+1+  ",
"    !+~+K.{+]+^+/+(+                                                              _+:+| <+[+}+|+1+  ",
"    !+~+K.{+]+^+/+(+                                                              _+:+[ <+[+}+|+1+  ",
"    2+q 3+4+5+6+7+8+9+                                                            0+a+b+c+d+e+f+g+  ",
"    h+i+j+k+l+m+n+o+p+q+q+q+q+q+q+q+q+q+q+q+q+q+q+q+q+q+q+q+q+q+q+q+q+q+q+q+r+s+t+u+v+z j+d w+x+y+z+",
"  A+  B+C+D+E+F+G+H+I+J+J+J+J+J+J+J+J+J+J+J+J+J+J+J+J+J+J+J+J+J+J+J+J+J+J+J+K+L+M+N+O+P+Q+R+S+T+C U+",
"      V+W+X+Y+Z+`+ @.@+@+@+@+@+@+@+@+@+@+@+@+@+@+@+@+@+@+@+@+@+@+@+@+@+@+@+@@@#@$@%@&@*@=@-@;@>@    ",
"        ,@'@)@!@~@{@+@+@+@+@+@+@+@+@+@+@+@+@+@+@+@+@+@+@+@+@+@+@+@+@+@+@+@+@]@^@/@(@+@_@:@<@[@  }@|@",
"        1@2@3@4@5@6@7@+@+@+@+@+@+@+@+@+@+@+@+@+@+@+@+@+@+@+@+@+@+@+@+@+@+@+@8@9@0@a@b@c@d@e@f@      ",
"    g@h@i@j@k@l@m@n@o@+@+@+@+@+@+@+@+@+@+@+@+@+@+@+@+@+@+@+@+@+@+@+@+@+@+@+@n@p@q@r@s@t@u@v@w@x@    ",
"  y@z@A@;.a B@C@D@E@F@+@+@+@+@+@+@+@+@+@+@+@+@+@+@+@+@+@+@+@+@+@+@+@+@+@+@+@G@H@I@J@K@L@M@Q.N@O@P@  ",
"  Q@R@S@T@U@V@J W@X@                                                          Y@t.Z@`@ #q .#+#@###  ",
"$#  %#&#*#=#-#;#>#,#                                                              '#)#!#~#p.{#]#^#  ",
"/#  (#_#5+:#<#[#}#|#                                                          1#  2#3#4#5#6#7#8#9#  ",
"    0#a#b#3+c#@.d#e#                                                          }@  f#g#h#i#j#e+k#l#  ",
"    !+~+K.{+]+^+/+(+                                                              _+:+[ m#[+}+|+1+  ",
"    !+~+K.{+]+^+/+(+                                                              _+:+| <+[+}+|+1+  ",
"    !+~+K.{+]+^+/+(+                                                              _+:+| <+[+}+|+1+  ",
"    !+~+K.{+]+^+/+(+                                                              _+:+| <+[+}+|+1+  ",
"    !+~+K.{+]+^+/+(+                                                              _+:+| <+[+}+|+1+  ",
"    !+~+K.{+]+^+/+(+                                                              _+:+| <+[+}+|+1+  ",
"    !+~+K.{+]+^+/+(+                                                              _+:+| <+[+}+|+1+  ",
"    !+~+K.{+]+^+/+(+                                                              _+:+| <+[+}+|+1+  ",
"    !+~+K.{+]+^+/+(+                                                              _+:+| <+[+}+|+1+  ",
"    !+~+K.{+]+^+/+(+                                                              _+:+| <+[+}+|+1+  ",
"    !+~+K.{+]+^+/+(+                                                              _+:+| <+[+}+|+1+  ",
"    !+~+K.{+]+^+/+(+                                                              _+:+| <+[+}+|+1+  ",
"    !+~+K.{+]+^+/+(+                                                              _+:+| <+[+}+|+1+  ",
"    !+~+K.{+]+^+/+(+                                                              _+:+| <+[+}+|+1+  ",
"    !+~+K.{+]+^+/+(+                                                              _+:+| <+[+}+|+1+  ",
"    !+~+K.{+]+^+/+(+                                                              _+:+| <+[+}+|+1+  ",
"    !+~+K.{+]+^+/+(+                                                              _+:+| <+[+}+|+1+  ",
"    !+~+K.{+]+^+/+(+                                                              _+:+| <+[+}+|+1+  ",
"    !+~+K.{+]+^+/+(+                                                              _+:+| <+[+}+|+1+  ",
"    !+~+K.{+]+^+/+(+                                                              _+:+| <+[+}+|+1+  ",
"    !+~+K.{+]+^+/+(+                                                              _+:+| <+[+}+|+1+  ",
"    !+~+K.{+]+^+/+(+                                                              _+:+| <+[+}+|+1+  ",
"    !+~+K.{+]+^+/+(+                                                              _+:+| <+[+}+|+1+  ",
"    !+~+K.{+]+^+/+(+                                                              _+:+| <+[+}+|+1+  ",
"    !+~+K.{+]+^+/+(+                                                              _+:+| <+[+}+|+1+  ",
"    !+~+K.{+]+^+/+(+                                                              _+:+| <+[+}+|+1+  ",
"    !+~+K.{+]+^+/+(+                                                              _+:+[ m#[+}+|+1+  ",
"    n#m#o#{+p#c+q#r#                                                              s#Y.O t#b+b#L.u#  ",
"    v#w#;#x#y#z#A#z@B#C#C#C#C#C#C#C#C#C#C#C#C#C#C#C#C#C#C#C#C#C#C#C#C#C#C#C#D#E#F#G#H#$+I#J#K#L#M#N#",
"  O#P#Q#R#S#T#U#V#W#X#Y#Y#Y#Y#Y#Y#Y#Y#Y#Y#Y#Y#Y#Y#Y#Y#Y#Y#Y#Y#Y#Y#Y#Y#Y#Y#Y#Z#`# $.$+$@$#$$$%$&$*$=$",
"      -$;$>$,$'$)$!$~$x {$x {$x x {$x {$x {${$x {$x {$x x {$x {$x {$x x {$x ]${+^$/$($_$:$<$[$}$    ",
"        |$1$2$3$4$$$p.3 3 3 3 3 3 3 3 3 3 3 3 3 3 3 3 3 3 3 3 3 3 3 3 3 3 3 d 5$6$7$8$9$0$a$b$      ",
"    c$d$  V e$f$g$5#]+h$| h$| | | | h$| h$| | h$| h$| | | | h$| h$| | h$| h$i$j$k$l$m$n$o$p$C       ",
"    q$C     r$s$t$u$v$| } | | | | } | } | | | | } | | | | | | } | | | | } | J.w$J#x$y$z$A$          ",
"        B$    C$D$E$F$U@U@U@U@U@U@U@U@U@U@U@U@U@U@U@U@U@U@U@U@U@U@U@U@U@U@U@+#G$H$I$J$K$            ",
"        )+    L$M$N$O$P$Q$P$R$P$P$Q$P$Q$P$P$R$P$Q$P$R$P$P$R$P$Q$P$R$P$P$Q$P$S$T$U$V$W$              ",
"                  X$Y$                                                          Z$`$ %              ",
"                                                                                                    "};
