/* XPM */
static char * 1_xpm[] = {
"50 90 263 2",
"  	c #000000",
". 	c #1A1A1A",
"+ 	c #2D2D2D",
"@ 	c #292929",
"# 	c #1B1B1B",
"$ 	c #303030",
"% 	c #2F2F2F",
"& 	c #151515",
"* 	c #313131",
"= 	c #090909",
"- 	c #323232",
"; 	c #2E3133",
"> 	c #2F3133",
", 	c #342D31",
"' 	c #302F2E",
") 	c #251212",
"! 	c #0B0504",
"~ 	c #030202",
"{ 	c #020102",
"] 	c #080406",
"^ 	c #1C1C1C",
"/ 	c #252525",
"( 	c #101010",
"_ 	c #2E2E2E",
": 	c #303136",
"< 	c #263232",
"[ 	c #3A2D2E",
"} 	c #3A221F",
"| 	c #B35B61",
"1 	c #904648",
"2 	c #190405",
"3 	c #0A0407",
"4 	c #1D1D1D",
"5 	c #242424",
"6 	c #111111",
"7 	c #313030",
"8 	c #362C32",
"9 	c #2A372D",
"0 	c #3E2017",
"a 	c #BA625E",
"b 	c #F55B66",
"c 	c #ED5F65",
"d 	c #954448",
"e 	c #110301",
"f 	c #262626",
"g 	c #1F1F1F",
"h 	c #1E1E1E",
"i 	c #201F1F",
"j 	c #2E2327",
"k 	c #3D231D",
"l 	c #C25756",
"m 	c #F85E5D",
"n 	c #FF5357",
"o 	c #FB5E5B",
"p 	c #ED6165",
"q 	c #884643",
"r 	c #090302",
"s 	c #924549",
"t 	c #FC5C64",
"u 	c #FF5655",
"v 	c #FD5A55",
"w 	c #F46259",
"x 	c #FE585D",
"y 	c #DD666C",
"z 	c #422020",
"A 	c #070707",
"B 	c #A3454E",
"C 	c #FF5961",
"D 	c #FA6055",
"E 	c #FB5F5A",
"F 	c #FC5F5E",
"G 	c #FC5A57",
"H 	c #F15B69",
"I 	c #511F22",
"J 	c #0E0E0E",
"K 	c #A44449",
"L 	c #FF5C5E",
"M 	c #FC5E59",
"N 	c #FE5D5B",
"O 	c #FF5B5A",
"P 	c #FE5E5B",
"Q 	c #EF5F63",
"R 	c #491F1D",
"S 	c #A54548",
"T 	c #FF5C5D",
"U 	c #FE5D5A",
"V 	c #FE5C5B",
"W 	c #FF5C59",
"X 	c #ED6162",
"Y 	c #46211C",
"Z 	c #0D0D0D",
"` 	c #47211D",
" .	c #080808",
"..	c #A64449",
"+.	c #FE5A5E",
"@.	c #F66257",
"#.	c #FC5E5A",
"$.	c #FD5D5C",
"%.	c #F75F55",
"&.	c #EF5F68",
"*.	c #491D1E",
"=.	c #0A0A0A",
"-.	c #9B464B",
";.	c #FE5A64",
">.	c #FE5B57",
",.	c #FC5D57",
"'.	c #F76057",
").	c #FF5A5A",
"!.	c #E9606A",
"~.	c #481E20",
"{.	c #2B2B2B",
"].	c #1E1B1F",
"^.	c #55292B",
"/.	c #DD5D64",
"(.	c #FC5A5E",
"_.	c #FF5755",
":.	c #F76156",
"<.	c #FA5961",
"[.	c #AF5154",
"}.	c #220E0E",
"|.	c #232323",
"1.	c #131313",
"2.	c #2A2A2A",
"3.	c #352D34",
"4.	c #24312B",
"5.	c #5B2826",
"6.	c #D36564",
"7.	c #FA575D",
"8.	c #F6615F",
"9.	c #B45154",
"0.	c #250805",
"a.	c #010101",
"b.	c #202020",
"c.	c #121212",
"d.	c #342C2F",
"e.	c #263630",
"f.	c #332E2A",
"g.	c #56312D",
"h.	c #D2656A",
"i.	c #B55353",
"j.	c #29090A",
"k.	c #030303",
"l.	c #332F2C",
"m.	c #2F302F",
"n.	c #392C32",
"o.	c #2A2F2A",
"p.	c #4A2523",
"q.	c #2A0F0C",
"r.	c #030101",
"s.	c #040404",
"t.	c #222222",
"u.	c #362E30",
"v.	c #303333",
"w.	c #372B31",
"x.	c #292825",
"y.	c #74393C",
"z.	c #4F2120",
"A.	c #050102",
"B.	c #382C35",
"C.	c #253530",
"D.	c #302824",
"E.	c #824342",
"F.	c #E8646B",
"G.	c #D65E60",
"H.	c #501F20",
"I.	c #010000",
"J.	c #060606",
"K.	c #212121",
"L.	c #313031",
"M.	c #362E37",
"N.	c #202523",
"O.	c #8D3D40",
"P.	c #E96366",
"Q.	c #FD555B",
"R.	c #F9605C",
"S.	c #D75D61",
"T.	c #542321",
"U.	c #08080A",
"V.	c #74373C",
"W.	c #F05E6A",
"X.	c #FE575D",
"Y.	c #FE5857",
"Z.	c #F76257",
"`.	c #FE565C",
" +	c #CD5D62",
".+	c #341616",
"++	c #A1474D",
"@+	c #FD5A64",
"#+	c #FB5E59",
"$+	c #FD5D5B",
"%+	c #FB5D5B",
"&+	c #FB5E57",
"*+	c #ED616B",
"=+	c #491E21",
"-+	c #A6464A",
";+	c #FE5B5D",
">+	c #F96059",
",+	c #FE5C5D",
"'+	c #FE5C5C",
")+	c #FA6058",
"!+	c #EE6064",
"~+	c #481E1E",
"{+	c #0F0F0F",
"]+	c #A54249",
"^+	c #FF5A60",
"/+	c #FC5F58",
"(+	c #FF5C5B",
"_+	c #FF595D",
":+	c #EC6168",
"<+	c #451E1F",
"[+	c #A34850",
"}+	c #FE5861",
"|+	c #FE5C54",
"1+	c #FC5D58",
"2+	c #F9605D",
"3+	c #FF5959",
"4+	c #E7606A",
"5+	c #492123",
"6+	c #2C2C2C",
"7+	c #141414",
"8+	c #050304",
"9+	c #7B4040",
"0+	c #F26265",
"a+	c #FF5756",
"b+	c #FE5955",
"c+	c #F36458",
"d+	c #FC5B5D",
"e+	c #D66367",
"f+	c #391818",
"g+	c #2B2A2A",
"h+	c #39282E",
"i+	c #2C231C",
"j+	c #9B4744",
"k+	c #F06665",
"l+	c #FF545D",
"m+	c #F95C5C",
"n+	c #DC6564",
"o+	c #692A28",
"p+	c #0D0302",
"q+	c #181818",
"r+	c #392A33",
"s+	c #2D332F",
"t+	c #35211D",
"u+	c #944D4B",
"v+	c #EC616D",
"w+	c #DF5E67",
"x+	c #622B2D",
"y+	c #191919",
"z+	c #2C3235",
"A+	c #283234",
"B+	c #392D31",
"C+	c #2C2522",
"D+	c #89484E",
"E+	c #633031",
"F+	c #18070B",
"G+	c #020B09",
"H+	c #2F3031",
"I+	c #303132",
"J+	c #323031",
"K+	c #2D2D2C",
"L+	c #0D0B0A",
"M+	c #0C0C0C",
"N+	c #0B0B0B",
"                                                                                                    ",
"                                                                                                    ",
"                . + + + + + + + + + + + + + + + + + + + + + + + + + + + + + + + @ #                 ",
"              . $ $ $ $ $ $ $ $ $ $ $ $ $ $ $ $ $ $ $ $ $ $ $ $ $ $ $ $ $ $ $ $ $ % &               ",
"            # * $ $ $ $ $ $ $ $ $ $ $ $ $ $ $ $ $ $ $ $ $ $ $ $ $ $ $ $ $ $ $ $ % $ % .             ",
"          = % $ - $ $ $ $ $ $ $ $ $ $ $ $ $ $ $ $ $ $ $ $ $ $ $ $ $ $ $ $ $ $ $ ; > , ' ) ! ~ { ]   ",
"        ^ / ( _ _ $ $ $ $ $ $ $ $ $ $ $ $ $ $ $ $ $ $ $ $ $ $ $ $ $ $ $ $ $ $ $ : < [ } | 1 2   3   ",
"      4 * $ 5 6 + $ $ $ $ $ $ $ $ $ $ $ $ $ $ $ $ $ $ $ $ $ $ $ $ $ $ $ $ $ $ 7 8 9 0 a b c d e     ",
"    # _ * % $ f & g h h h h h h h h h h h h h h h h h h h h h h h h h h h h h i j k l m n o p q r   ",
"    % % $ $ $ * .                                                                 s t u v w x y z   ",
"  A % $ $ $ * * ^                                                                 B C D E F G H I   ",
"  J * $ $ $ $ * g                                                                 K L M N O P Q R   ",
"  J $ $ $ $ $ * g                                                                 S T U V W N X Y   ",
"  J $ $ $ $ $ * g                                                                 S T U V W N X Y   ",
"  J $ $ $ $ $ * g                                                                 S T U V W N X Y   ",
"  J $ $ $ $ $ * g                                                                 S T U V W N X Y   ",
"  J $ $ $ $ $ * g                                                                 S T U V W N X Y   ",
"  J $ $ $ $ $ * g                                                                 S T U V W N X Y   ",
"  J $ $ $ $ $ * g                                                                 S T U V W N X Y   ",
"  J $ $ $ $ $ * g                                                                 S T U V W N X Y   ",
"  J $ $ $ $ $ * g                                                                 S T U V W N X Y   ",
"  J $ $ $ $ $ * g                                                                 S T U V W N X Y   ",
"  J $ $ $ $ $ * g                                                                 S T U V W N X Y   ",
"  J $ $ $ $ $ * g                                                                 S T U V W N X Y   ",
"  J $ $ $ $ $ * g                                                                 S T U V W N X Y   ",
"  J $ $ $ $ $ * g                                                                 S T U V W N X Y   ",
"  J $ $ $ $ $ * g                                                                 S T U V W N X Y   ",
"  J $ $ $ $ $ * g                                                                 S T U V W N X Y   ",
"  J $ $ $ $ $ * g                                                                 S T U V W N X Y   ",
"  J $ $ $ $ $ * g                                                                 S T U V W N X Y   ",
"  J $ $ $ $ $ * g                                                                 S T U V W N X Y   ",
"  J $ $ $ $ $ * g                                                                 S T U V W N X Y   ",
"  J $ $ $ $ $ * g                                                                 S T U V W N X Y   ",
"  J $ $ $ $ $ * g                                                                 S T U V W N X Y   ",
"  J $ $ $ $ $ * g                                                                 S T U V W N X Y   ",
"  J $ $ $ $ $ * g                                                                 S T U V W N X Y   ",
"  J $ $ $ $ $ * g                                                                 S T U V W N X Y   ",
"  J $ $ $ $ $ * g                                                                 S T U V W N X Y   ",
"  Z $ $ $ $ $ * g                                                                 S T U V W N X `   ",
"   .% $ $ $ * $ 4                                                                 ..+.@.#.$.%.&.*.  ",
"  =.* $ $ $ $ * ^                                                                 -.;.>.,.'.).!.~.  ",
"    / $ $ $ - {.= . # # . . . . . . . . . . . . . . . . . . . . . . . . . . . . ].^./.(._.:.<.[.}.  ",
"      |.* $ {.1.2.$ $ $ $ $ $ $ $ $ $ $ $ $ $ $ $ $ $ $ $ $ $ $ $ $ $ $ $ $ $ 7 3.4.5.6.7.8.9.0.    ",
"      a.b.2.c.2.* $ $ $ $ $ $ $ $ $ $ $ $ $ $ $ $ $ $ $ $ $ $ $ $ $ $ $ $ $ $ $ d.e.f.g.h.i.j.      ",
"          k.{.* $ $ $ $ $ $ $ $ $ $ $ $ $ $ $ $ $ $ $ $ $ $ $ $ $ $ $ $ $ $ $ $ l.m.n.o.p.q.r.      ",
"        s.Z t.$ - % $ $ $ $ $ $ $ $ $ $ $ $ $ $ $ $ $ $ $ $ $ $ $ $ $ $ $ $ $ $ u.v.w.x.y.z.A.      ",
"      s.2.% & t.$ $ $ $ $ $ $ $ $ $ $ $ $ $ $ $ $ $ $ $ $ $ $ $ $ $ $ $ $ $ $ 7 B.C.D.E.F.G.H.I.    ",
"    J.2.$ $ + # K.* * * $ $ $ $ $ $ $ $ $ $ $ $ $ $ $ $ $ $ $ $ $ $ $ $ $ $ $ L.M.N.O.P.Q.R.S.T.    ",
"  J.2.* $ $ * % J                                                               U.V.W.X.Y.Z.`. +.+  ",
"  =.$ $ $ $ $ - (                                                                 ++@+#+$+%+&+*+=+  ",
"  J * $ $ $ % * 4                                                                 -+;+>+,+'+)+!+~+  ",
"  J $ $ $ $ $ * g                                                                 S T U V W N X Y   ",
"  J $ $ $ $ $ * g                                                                 S T U V W N X Y   ",
"  J $ $ $ $ $ * g                                                                 S T U V W N X Y   ",
"  J $ $ $ $ $ * g                                                                 S T U V W N X Y   ",
"  J $ $ $ $ $ * g                                                                 S T U V W N X Y   ",
"  J $ $ $ $ $ * g                                                                 S T U V W N X Y   ",
"  J $ $ $ $ $ * g                                                                 S T U V W N X Y   ",
"  J $ $ $ $ $ * g                                                                 S T U V W N X Y   ",
"  J $ $ $ $ $ * g                                                                 S T U V W N X Y   ",
"  J $ $ $ $ $ * g                                                                 S T U V W N X Y   ",
"  J $ $ $ $ $ * g                                                                 S T U V W N X Y   ",
"  J $ $ $ $ $ * g                                                                 S T U V W N X Y   ",
"  J $ $ $ $ $ * g                                                                 S T U V W N X Y   ",
"  J $ $ $ $ $ * g                                                                 S T U V W N X Y   ",
"  J $ $ $ $ $ * g                                                                 S T U V W N X Y   ",
"  J $ $ $ $ $ * g                                                                 S T U V W N X Y   ",
"  J $ $ $ $ $ * g                                                                 S T U V W N X Y   ",
"  J $ $ $ $ $ * g                                                                 S T U V W N X Y   ",
"  J $ $ $ $ $ * g                                                                 S T U V W N X Y   ",
"  J $ $ $ $ $ * g                                                                 S T U V W N X Y   ",
"  J $ $ $ $ $ * g                                                                 S T U V W N X Y   ",
"  J $ $ $ $ $ * g                                                                 S T U V W N X Y   ",
"  J $ $ $ $ $ * g                                                                 S T U V W N X Y   ",
"  J $ $ $ $ $ * g                                                                 S T U V W N X Y   ",
"  J $ $ $ $ $ * g                                                                 S T U V W N X Y   ",
"  J $ $ $ $ $ * g                                                                 S T U V W N X Y   ",
"  J $ $ $ $ $ * g                                                                 S T U V W N X Y   ",
"  {+* $ $ $ $ * h                                                                 ]+^+/+(+_+V :+<+  ",
"  a._ $ $ $ * * .                                                                 [+}+|+1+2+3+4+5+  ",
"    6+% $ $ $ $ 7+                                                            a.8+9+0+a+b+c+d+e+f+  ",
"    Z + $ % * ^ ^ 2.@ @ @ @ @ @ @ @ @ @ @ @ @ @ @ @ @ @ @ @ @ @ @ @ @ @ @ @ @ g+h+i+j+k+l+m+n+o+p+  ",
"      {+_ $ q+h % $ $ $ $ $ $ $ $ $ $ $ $ $ $ $ $ $ $ $ $ $ $ $ $ $ $ $ $ $ $ 7 r+s+t+u+v+w+x+a.    ",
"        Z y+g $ $ $ $ $ $ $ $ $ $ $ $ $ $ $ $ $ $ $ $ $ $ $ $ $ $ $ $ $ $ $ $ $ z+A+B+C+D+E+F+G+    ",
"          a.6+% $ $ $ $ $ $ $ $ $ $ $ $ $ $ $ $ $ $ $ $ $ $ $ $ $ $ $ $ $ $ $ $ H+I+J+K+L+I.        ",
"            M++ * $ $ $ $ $ $ $ $ $ $ $ $ $ $ $ $ $ $ $ $ $ $ $ $ $ $ $ $ $ $ $ * * + Z             ",
"              M++ $ $ $ $ $ $ $ $ $ $ $ $ $ $ $ $ $ $ $ $ $ $ $ $ $ $ $ $ $ $ $ * + =.              ",
"                M+K.K.K.K.K.K.K.K.K.K.K.K.K.K.K.K.K.K.K.K.K.K.K.K.K.K.K.K.K.K.K.b.N+                ",
"                                                                                                    ",
"                                                                                                    "};
