/* XPM */
static char * 2_xpm[] = {
"50 90 544 2",
"  	c #000000",
". 	c #030202",
"+ 	c #0A0604",
"@ 	c #050602",
"# 	c #000100",
"$ 	c #020000",
"% 	c #030000",
"& 	c #040000",
"* 	c #050102",
"= 	c #010000",
"- 	c #0C0200",
"; 	c #723232",
"> 	c #D65B66",
", 	c #E35362",
"' 	c #E15661",
") 	c #DC5962",
"! 	c #DA5A60",
"~ 	c #D95A61",
"{ 	c #A04A4E",
"] 	c #250604",
"^ 	c #040301",
"/ 	c #010001",
"( 	c #000101",
"_ 	c #020705",
": 	c #0F0C08",
"< 	c #7D2F2A",
"[ 	c #E36961",
"} 	c #F95E5B",
"| 	c #FE5B57",
"1 	c #FE5D57",
"2 	c #FF5C59",
"3 	c #F65D65",
"4 	c #B34F51",
"5 	c #2C140C",
"6 	c #7C3538",
"7 	c #EB5E61",
"8 	c #FD5A5C",
"9 	c #FE5A57",
"0 	c #F96055",
"a 	c #F76158",
"b 	c #FE5D5B",
"c 	c #FF5C58",
"d 	c #FE5C58",
"e 	c #F55F60",
"f 	c #B14C4F",
"g 	c #230706",
"h 	c #2B100D",
"i 	c #CB5E66",
"j 	c #F66066",
"k 	c #FC5C5E",
"l 	c #FF585B",
"m 	c #FE5C5C",
"n 	c #FA5E5F",
"o 	c #FA5E62",
"p 	c #FF5B5F",
"q 	c #FF5A5F",
"r 	c #FF5A5E",
"s 	c #FC5F55",
"t 	c #FF5961",
"u 	c #ED6170",
"v 	c #653533",
"w 	c #200906",
"x 	c #020001",
"y 	c #121A18",
"z 	c #2D2D26",
"A 	c #662929",
"B 	c #D85E5E",
"C 	c #F95D5E",
"D 	c #FF595B",
"E 	c #FE5A58",
"F 	c #FC5D59",
"G 	c #FD5C5B",
"H 	c #FA5F5A",
"I 	c #F95F5A",
"J 	c #F95F59",
"K 	c #FA5E59",
"L 	c #F95A6B",
"M 	c #963C44",
"N 	c #B85053",
"O 	c #AB4B4F",
"P 	c #150706",
"Q 	c #1C171A",
"R 	c #2B3134",
"S 	c #233630",
"T 	c #2E2E27",
"U 	c #652923",
"V 	c #D66361",
"W 	c #F55F62",
"X 	c #FD5A5D",
"Y 	c #FC5B5B",
"Z 	c #FC5A5C",
"` 	c #FE5D5C",
" .	c #E86462",
"..	c #9B3D3D",
"+.	c #B34D4E",
"@.	c #F76066",
"#.	c #F55F65",
"$.	c #AF5150",
"%.	c #1D0503",
"&.	c #131714",
"*.	c #322C30",
"=.	c #312D34",
"-.	c #2D3436",
";.	c #2D3333",
">.	c #332B2A",
",.	c #5A2A2C",
"'.	c #B2595F",
").	c #B75355",
"!.	c #B35553",
"~.	c #B25653",
"{.	c #BB5154",
"].	c #BC5054",
"^.	c #BD5154",
"/.	c #BC5155",
"(.	c #904041",
"_.	c #B5474C",
":.	c #F85B61",
"<.	c #F2615B",
"[.	c #FC5F5C",
"}.	c #F75C5D",
"|.	c #A84B4C",
"1.	c #2B0A0C",
"2.	c #272E2A",
"3.	c #303231",
"4.	c #332E31",
"5.	c #362D31",
"6.	c #2D3137",
"7.	c #202228",
"8.	c #120204",
"9.	c #0D0101",
"0.	c #050000",
"a.	c #060000",
"b.	c #693031",
"c.	c #EF6268",
"d.	c #FF5A5C",
"e.	c #FF5955",
"f.	c #F36266",
"g.	c #703437",
"h.	c #302B2D",
"i.	c #2C332E",
"j.	c #2C332D",
"k.	c #30312C",
"l.	c #30312D",
"m.	c #2E3133",
"n.	c #2A282E",
"o.	c #6C3333",
"p.	c #F16063",
"q.	c #FD5B56",
"r.	c #FB5C60",
"s.	c #FF5662",
"t.	c #FA5F57",
"u.	c #F5615C",
"v.	c #723A37",
"w.	c #302E2E",
"x.	c #2F3130",
"y.	c #2E312E",
"z.	c #2F312F",
"A.	c #303130",
"B.	c #222122",
"C.	c #6B3130",
"D.	c #F95E67",
"E.	c #FE5B58",
"F.	c #FD5C5D",
"G.	c #FE5A5F",
"H.	c #FD5E57",
"I.	c #F85E5D",
"J.	c #773638",
"K.	c #2E2E2E",
"L.	c #313131",
"M.	c #303030",
"N.	c #232323",
"O.	c #6E3131",
"P.	c #F95D67",
"Q.	c #FE5D5A",
"R.	c #FE5B5C",
"S.	c #FD5D5C",
"T.	c #FF5D57",
"U.	c #FB5D5F",
"V.	c #7A3639",
"W.	c #2F302F",
"X.	c #FE5C5A",
"Y.	c #FD5D5D",
"Z.	c #FA5D5F",
"`.	c #312C2F",
" +	c #2E302E",
".+	c #2F312D",
"++	c #30302C",
"@+	c #2D322C",
"#+	c #2F3232",
"$+	c #2D262C",
"%+	c #030101",
"&+	c #673734",
"*+	c #F65E65",
"=+	c #FF5555",
"-+	c #F56060",
";+	c #FE5862",
">+	c #FF5C57",
",+	c #F5605B",
"'+	c #733936",
")+	c #30302F",
"!+	c #312F2E",
"~+	c #362E30",
"{+	c #382C2F",
"]+	c #332E30",
"^+	c #283335",
"/+	c #20262A",
"(+	c #010603",
"_+	c #000503",
":+	c #693133",
"<+	c #F45E67",
"[+	c #FC5E59",
"}+	c #FE5A5E",
"|+	c #FF5C56",
"1+	c #F35F5F",
"2+	c #713737",
"3+	c #1A1B19",
"4+	c #382F33",
"5+	c #382C34",
"6+	c #322E34",
"7+	c #2F3033",
"8+	c #2A3330",
"9+	c #331F1E",
"0+	c #8A484B",
"a+	c #964247",
"b+	c #994145",
"c+	c #9A4045",
"d+	c #964246",
"e+	c #954246",
"f+	c #964347",
"g+	c #752E30",
"h+	c #CE5A5C",
"i+	c #F85E5F",
"j+	c #FC5E5C",
"k+	c #FF5A5A",
"l+	c #FB5E5A",
"m+	c #C85A5A",
"n+	c #3D1516",
"o+	c #281D23",
"p+	c #303237",
"q+	c #253633",
"r+	c #29322C",
"s+	c #4C221D",
"t+	c #BE5A57",
"u+	c #F06366",
"v+	c #FB5C5F",
"w+	c #FE5C5E",
"x+	c #FB5D60",
"y+	c #FB5E60",
"z+	c #FA5E60",
"A+	c #E16161",
"B+	c #7B3730",
"C+	c #D25C5B",
"D+	c #FC5B62",
"E+	c #F86164",
"F+	c #D0595A",
"G+	c #3E1915",
"H+	c #151F1E",
"I+	c #2A342D",
"J+	c #49211F",
"K+	c #C95657",
"L+	c #F8605F",
"M+	c #FE5957",
"N+	c #FE5E56",
"O+	c #F96156",
"P+	c #FA6058",
"Q+	c #FF5B58",
"R+	c #F56359",
"S+	c #E95B61",
"T+	c #7C3533",
"U+	c #D4595F",
"V+	c #D35361",
"W+	c #391516",
"X+	c #27140F",
"Y+	c #BF5A60",
"Z+	c #F15F65",
"`+	c #FB5F60",
" @	c #FE5E5F",
".@	c #FF585F",
"+@	c #FE5B60",
"@@	c #FD5C60",
"#@	c #FE5C60",
"$@	c #FE5C5F",
"%@	c #FD5F53",
"&@	c #FF5562",
"*@	c #E35F6F",
"=@	c #633733",
"-@	c #391917",
";@	c #030102",
">@	c #070204",
",@	c #070607",
"'@	c #020403",
")@	c #371015",
"!@	c #854145",
"~@	c #A54B4C",
"{@	c #F76163",
"]@	c #F75F5E",
"^@	c #FC5E5E",
"/@	c #FF595D",
"(@	c #FF5B5D",
"_@	c #FE5B5D",
":@	c #FD5A53",
"<@	c #FA5D62",
"[@	c #CC5764",
"}@	c #3F2325",
"|@	c #121414",
"1@	c #070305",
"2@	c #0A0407",
"3@	c #381713",
"4@	c #D2525D",
"5@	c #F55F6A",
"6@	c #AE4847",
"7@	c #AA4341",
"8@	c #EF6461",
"9@	c #FD5D59",
"0@	c #FF5854",
"a@	c #FE5C59",
"b@	c #FE5D58",
"c@	c #FD5A64",
"d@	c #C05C5C",
"e@	c #3E2820",
"f@	c #342E2D",
"g@	c #362B30",
"h@	c #141314",
"i@	c #391418",
"j@	c #CE525A",
"k@	c #FF595C",
"l@	c #FE5C5B",
"m@	c #EC6362",
"n@	c #A74D4E",
"o@	c #944B43",
"p@	c #E06A64",
"q@	c #F56161",
"r@	c #F36164",
"s@	c #E76969",
"t@	c #F16369",
"u@	c #F36269",
"v@	c #F26269",
"w@	c #C65663",
"x@	c #482424",
"y@	c #25372D",
"z@	c #2D3230",
"A@	c #352E30",
"B@	c #2A2F2C",
"C@	c #070808",
"D@	c #110000",
"E@	c #BB585F",
"F@	c #F65F64",
"G@	c #FD5C53",
"H@	c #FE5D54",
"I@	c #FD595F",
"J@	c #F55D6C",
"K@	c #A1424A",
"L@	c #421A12",
"M@	c #451914",
"N@	c #4A1515",
"O@	c #491618",
"P@	c #461518",
"Q@	c #451518",
"R@	c #251616",
"S@	c #332C2E",
"T@	c #362E31",
"U@	c #2A332E",
"V@	c #2E322E",
"W@	c #2E2F2F",
"X@	c #0C0C0C",
"Y@	c #2F0203",
"Z@	c #DB6360",
"`@	c #FC5B5E",
" #	c #F76258",
".#	c #FD5A5A",
"+#	c #FE595E",
"@#	c #FA5D5D",
"##	c #BA514C",
"$#	c #0C0402",
"%#	c #011413",
"&#	c #101112",
"*#	c #322F32",
"=#	c #322D2F",
"-#	c #2C322E",
";#	c #362E2F",
">#	c #121212",
",#	c #230300",
"'#	c #E3605E",
")#	c #FF5959",
"!#	c #FB5E59",
"~#	c #F56257",
"{#	c #B25149",
"]#	c #050100",
"^#	c #141214",
"/#	c #2F2F30",
"(#	c #2E3130",
"_#	c #2E312F",
":#	c #322F2F",
"<#	c #352E2F",
"[#	c #210100",
"}#	c #E16162",
"|#	c #FE5B5A",
"1#	c #FF595F",
"2#	c #BE4E52",
"3#	c #060606",
"4#	c #DE645F",
"5#	c #FF595E",
"6#	c #FB5F5E",
"7#	c #F96059",
"8#	c #BE4F4F",
"9#	c #180100",
"0#	c #070606",
"a#	c #343030",
"b#	c #31302F",
"c#	c #303031",
"d#	c #322F31",
"e#	c #131313",
"f#	c #300402",
"g#	c #E35E5F",
"h#	c #FD5C62",
"i#	c #F8605B",
"j#	c #FE5B59",
"k#	c #FD5C5A",
"l#	c #F16261",
"m#	c #AC5853",
"n#	c #0D0702",
"o#	c #000201",
"p#	c #111B17",
"q#	c #332E2F",
"r#	c #3B2E31",
"s#	c #2B3231",
"t#	c #303032",
"u#	c #200102",
"v#	c #CC5C62",
"w#	c #FB5C61",
"x#	c #FD5E53",
"y#	c #FA6054",
"z#	c #F65D6A",
"A#	c #A2484D",
"B#	c #2E130F",
"C#	c #331112",
"D#	c #3D1214",
"E#	c #2F120E",
"F#	c #2E120F",
"G#	c #1E1411",
"H#	c #332F2D",
"I#	c #322E2F",
"J#	c #0A0A0A",
"K#	c #4D2020",
"L#	c #D05B5A",
"M#	c #FD5857",
"N#	c #F16363",
"O#	c #B3514F",
"P#	c #904239",
"Q#	c #D46664",
"R#	c #DC5E61",
"S#	c #E05E60",
"T#	c #E05F5E",
"U#	c #DE5F60",
"V#	c #DD5F61",
"W#	c #BC505A",
"X#	c #3D201B",
"Y#	c #20392B",
"Z#	c #302F2D",
"`#	c #101010",
" $	c #411F19",
".$	c #D85962",
"+$	c #F95D6A",
"@$	c #B74C4C",
"#$	c #9A4039",
"$$	c #EC6560",
"%$	c #FE5559",
"&$	c #FE5D59",
"*$	c #FF5B5B",
"=$	c #BD5758",
"-$	c #342218",
";$	c #322F2C",
">$	c #372D2F",
",$	c #1D1818",
"'$	c #030508",
")$	c #040001",
"!$	c #4E1C23",
"~$	c #8F4F4F",
"{$	c #944140",
"]$	c #F45D68",
"^$	c #FE5961",
"/$	c #FB5D5B",
"($	c #FE5C57",
"_$	c #FE5B5F",
":$	c #FE5C5D",
"<$	c #FD5F59",
"[$	c #FA5C62",
"}$	c #C5515D",
"|$	c #321D1B",
"1$	c #101914",
"2$	c #290E0A",
"3$	c #CA5E63",
"4$	c #F75E66",
"5$	c #FE5C61",
"6$	c #FF585C",
"7$	c #FF5A60",
"8$	c #FF5A61",
"9$	c #FF5A5D",
"0$	c #E76164",
"a$	c #653732",
"b$	c #010503",
"c$	c #4A1D1C",
"d$	c #D7595A",
"e$	c #FD5C57",
"f$	c #FB6054",
"g$	c #FF5C55",
"h$	c #FD5E58",
"i$	c #FC5F58",
"j$	c #FD5F58",
"k$	c #FD5E5C",
"l$	c #FC5D61",
"m$	c #FD5C61",
"n$	c #FE5A5D",
"o$	c #EB6364",
"p$	c #803535",
"q$	c #010302",
"r$	c #020302",
"s$	c #4B1D16",
"t$	c #C4625D",
"u$	c #F75F64",
"v$	c #FF575D",
"w$	c #FF5B56",
"x$	c #FF5B57",
"y$	c #E96160",
"z$	c #813736",
"A$	c #0E0706",
"B$	c #050201",
"C$	c #471B1F",
"D$	c #A24852",
"E$	c #AF444F",
"F$	c #AE474E",
"G$	c #AC484E",
"H$	c #AD4850",
"I$	c #AD484D",
"J$	c #AD4849",
"K$	c #AD484A",
"L$	c #AC494A",
"M$	c #6C332F",
"N$	c #080100",
"O$	c #090104",
"P$	c #0C0408",
"Q$	c #010606",
"R$	c #1F1F1F",
"S$	c #111111",
"                                                                                                    ",
"                . + @ # $ % % & & % & % & % % & % & % & & % & % & % % & % & % & &       * =         ",
"              - ; > , ' ) ! ! ! ! ! ! ! ! ! ! ! ! ! ! ! ! ! ! ! ! ! ! ! ! ! ! ! ~ { ] ^ /           ",
"        ( _ : < [ } | 1 2 1 1 1 1 1 1 1 1 1 1 1 1 1 1 1 1 1 1 1 1 1 1 1 1 1 1 1 1 3 4 5             ",
"          & 6 7 8 9 0 a b c c c c c c c c c c c c c c c c c c c c c c c c c c c c d e f g           ",
"          h i j k l m n o p q q q q q q q q q q q q q q q q q q q q q q q q q q r s t u v w x       ",
"        y z A B C D E F G H I I I I I I I I I I I I I I I I I I I I I I I I I I J K L M N O P       ",
"      Q R S T U V W X Y Z m ` ` ` ` ` ` ` ` ` ` ` ` ` ` ` ` ` ` ` ` ` ` ` ` ` ` `  ...+.@.#.$.%.    ",
"    &.*.=.-.;.>.,.'.).!.~.{.].].].].].].].].].].].].].].].].].].].].].].].].^.^./.(._.:.<.[.}.|.1.  ",
"    2.3.4.5.5.6.7.8.9.0.& a.a.a.a.a.a.a.a.a.a.a.a.a.a.a.a.a.a.a.a.a.a.a.a.a.a.a.a.b.c.G d.b e.f.g.  ",
"    h.i.j.k.l.m.n.                                                                o.p.q.r.s.t.u.v.  ",
"    w.x.y.z.z.A.B.                                                                C.D.E.F.G.H.I.J.  ",
"    K.L.M.M.M.M.N.                                                                O.P.Q.R.S.T.U.V.  ",
"    K.L.M.M.M.M.N.                                                                O.P.Q.R.S.T.U.V.  ",
"    K.L.M.M.M.M.N.                                                                O.P.Q.R.S.T.U.V.  ",
"    K.L.M.M.M.M.N.                                                                O.P.Q.R.S.T.U.V.  ",
"    K.L.M.M.M.M.N.                                                                O.P.Q.R.S.T.U.V.  ",
"    K.L.M.M.M.M.N.                                                                O.P.Q.R.S.T.U.V.  ",
"    K.L.M.M.M.M.N.                                                                O.P.Q.R.S.T.U.V.  ",
"    K.L.M.M.M.M.N.                                                                O.P.Q.R.S.T.U.V.  ",
"    K.L.M.M.M.M.N.                                                                O.P.Q.R.S.T.U.V.  ",
"    K.L.M.M.M.M.N.                                                                O.P.Q.R.S.T.U.V.  ",
"    K.L.M.M.M.M.N.                                                                O.P.Q.R.S.T.U.V.  ",
"    K.L.M.M.M.M.N.                                                                O.P.Q.R.S.T.U.V.  ",
"    K.L.M.M.M.M.N.                                                                O.P.Q.R.S.T.U.V.  ",
"    K.L.M.M.M.M.N.                                                                O.P.Q.R.S.T.U.V.  ",
"    K.L.M.M.M.M.N.                                                                O.P.Q.R.S.T.U.V.  ",
"    K.L.M.M.M.M.N.                                                                O.P.Q.R.S.T.U.V.  ",
"    K.L.M.M.M.M.N.                                                                O.P.Q.R.S.T.U.V.  ",
"    K.L.M.M.M.M.N.                                                                O.P.Q.R.S.T.U.V.  ",
"    K.L.M.M.M.M.N.                                                                O.P.Q.R.S.T.U.V.  ",
"    K.L.M.M.M.M.N.                                                                O.P.Q.R.S.T.U.V.  ",
"    K.L.M.M.M.M.N.                                                                O.P.Q.R.S.T.U.V.  ",
"    K.L.M.M.M.M.N.                                                                O.P.Q.R.S.T.U.V.  ",
"    K.L.M.M.M.M.N.                                                                O.P.Q.R.S.T.U.V.  ",
"    K.L.M.M.M.M.N.                                                                O.P.Q.R.S.T.U.V.  ",
"    K.L.M.M.M.M.N.                                                                O.P.Q.R.S.T.U.V.  ",
"    K.L.M.M.M.M.N.                                                                O.P.Q.R.S.T.U.V.  ",
"    K.L.W.M.M.M.N.                                                                O.P.X.R.Y.T.Z.V.  ",
"    `. +.+++@+#+$+%+                                                              &+*+=+-+;+>+,+'+  ",
"    )+!+~+{+]+^+/+  = (+_+                                                        :+<+[+r }+|+1+2+  ",
"    3+4+5+6+7+8+9+0+a+b+c+d+e+e+e+e+e+e+e+e+e+e+e+e+e+e+e+e+e+e+e+e+e+e+e+d+e+f+f+g+h+i+j+k+l+m+n+  ",
"      o+p+q+r+s+t+u+v+F.w+x+y+y+y+y+y+y+y+y+y+y+y+y+y+y+y+y+y+y+y+y+y+y+y+y+y+y+z+A+B+C+D+E+F+G+    ",
"        H+I+J+K+L+M+N+O+P+c Q+Q+Q+Q+Q+Q+Q+Q+Q+Q+Q+Q+Q+Q+Q+Q+Q+Q+Q+Q+Q+Q+Q+Q+Q+Q+Q+R+S+T+U+V+W+      ",
"          X+Y+Z+`+ @S.w+.@+@@@@@#@@@#@@@#@@@@@#@@@#@@@#@@@@@#@@@#@@@@@#@@@#@@@#@$@%@&@*@=@-@;@      ",
"  >@,@'@)@!@~@{@8 k ]@^@/@(@_@_@_@_@_@_@_@_@_@_@_@_@_@_@_@_@_@_@_@_@_@_@_@_@_@_@R.:@<@[@}@|@        ",
"  1@2@3@4@5@6@7@8@9@0@e.a@b@b@b@b@b@b@b@b@b@b@b@b@b@b@b@b@b@b@b@b@b@b@b@b@b@b@b@b@c@d@e@f@g@h@      ",
"    i@j@k@l@m@n@o@p@q@r@s@t@u@u@u@v@u@v@u@u@u@u@v@u@u@u@u@u@u@v@u@u@u@u@v@u@v@u@v@w@x@y@z@A@B@C@    ",
"  D@E@F@G@H@I@J@K@L@M@N@O@P@P@P@P@P@P@P@P@P@P@P@P@P@P@P@P@P@P@P@P@P@P@P@P@P@P@P@Q@R@S@T@z@U@V@W@X@  ",
"  Y@Z@`@ #.#+#@###$#%#                                                            &#*#=#-#y.;#L.>#  ",
"  ,#'#)#!#r ` ~#{#]#                                                              ^#/#(#_#:#<#L.>#  ",
"  [#}#|#[+1#Q.l+2#=                                                               3#M.L.M.M.M.M.>#  ",
"  [#}#|#[+1#Q.l+2#=                                                               3#M.L.M.M.M.M.>#  ",
"  [#}#|#[+1#Q.l+2#=                                                               3#M.L.M.M.M.M.>#  ",
"  [#}#|#[+1#Q.l+2#=                                                               3#M.L.M.M.M.M.>#  ",
"  [#}#|#[+1#Q.l+2#=                                                               3#M.L.M.M.M.M.>#  ",
"  [#}#|#[+1#Q.l+2#=                                                               3#M.L.M.M.M.M.>#  ",
"  [#}#|#[+1#Q.l+2#=                                                               3#M.L.M.M.M.M.>#  ",
"  [#}#|#[+1#Q.l+2#=                                                               3#M.L.M.M.M.M.>#  ",
"  [#}#|#[+1#Q.l+2#=                                                               3#M.L.M.M.M.M.>#  ",
"  [#}#|#[+1#Q.l+2#=                                                               3#M.L.M.M.M.M.>#  ",
"  [#}#|#[+1#Q.l+2#=                                                               3#M.L.M.M.M.M.>#  ",
"  [#}#|#[+1#Q.l+2#=                                                               3#M.L.M.M.M.M.>#  ",
"  [#}#|#[+1#Q.l+2#=                                                               3#M.L.M.M.M.M.>#  ",
"  [#}#|#[+1#Q.l+2#=                                                               3#M.L.M.M.M.M.>#  ",
"  [#}#|#[+1#Q.l+2#=                                                               3#M.L.M.M.M.M.>#  ",
"  [#}#|#[+1#Q.l+2#=                                                               3#M.L.M.M.M.M.>#  ",
"  [#}#|#[+1#Q.l+2#=                                                               3#M.L.M.M.M.M.>#  ",
"  [#}#|#[+1#Q.l+2#=                                                               3#M.L.M.M.M.M.>#  ",
"  [#}#|#[+1#Q.l+2#=                                                               3#M.L.M.M.M.M.>#  ",
"  [#}#|#[+1#Q.l+2#=                                                               3#M.L.M.M.M.M.>#  ",
"  [#}#|#[+1#Q.l+2#=                                                               3#M.L.M.M.M.M.>#  ",
"  [#}#|#[+1#Q.l+2#=                                                               3#M.L.M.M.M.M.>#  ",
"  [#}#|#[+1#Q.l+2#=                                                               3#M.L.M.M.M.M.>#  ",
"  [#}#|#[+1#Q.l+2#=                                                               3#M.L.M.M.M.M.>#  ",
"  [#}#|#[+1#Q.l+2#=                                                               3#M.L.M.M.M.M.>#  ",
"  [#}#|#[+1#Q.l+2#=                                                               3#M.L.M.M.M.M.>#  ",
"  [#}#|#[+1#Q.l+2#=                                                               3#M.L.M.M.M.M.>#  ",
"  [#4#5#6#r a@7#8#9#                                                              0#a#b#z.c#d#M.e#  ",
"  f#g#h#i#j#k#l#m#n#o#                                                            p#q#r#x.s#t#L.e#  ",
"  u#v#w#x#y#Y.z#A#B#C#D#E#F#F#F#F#F#F#F#F#F#F#F#F#F#F#F#F#F#F#F#F#F#F#F#F#F#F#F#F#G#H#I#(#z@x.K.J#  ",
"    K#L#M#j#N#O#P#Q#R#S#T#U#U#U#U#U#U#U#U#U#U#U#U#U#U#U#U#U#U#U#U#U#U#U#U#U#U#U#V#W#X#Y#z@{+Z#`#    ",
"       $.$+$@$#$$$%$)#&$|#*$*$*$*$*$*$*$*$*$*$*$*$*$*$*$*$*$*$*$*$*$*$*$*$*$*$*$*$c@=$-$;$>$,$      ",
"    '$)$!$~${$]$^$/$($|#_$w+w+w+w+w+w+w+w+w+w+w+w+w+w+w+w+w+w+w+w+w+w+:$m m m m m <$[$}$|$1$        ",
"        = 2$3$4$5$6$|#_@7$8$8$8$8$8$8$8$8$8$8$8$8$8$8$8$8$8$8$8$8$8$8$7$9$9$9$9$9$7#8 0$a$          ",
"        # b$c$d$^@e$f$f$g$h$i$i$i$i$j$i$j$i$i$j$i$j$i$i$i$i$j$i$j$i$i$k$l$m$l$m$m$n$o$p$0.          ",
"          q$r$s$t$u$v$D l@r r r r r r r r r r r r r r r r r r r r r r *$w$x$w$w$>+y$z$A$            ",
"              B$C$D$E$F$G$H$H$H$H$H$H$H$H$H$H$H$H$H$H$H$H$H$H$H$H$H$H$I$J$K$J$K$L$M$N$  O$/         ",
"                P$/                                                                                 ",
"              Q$                                                  R$S$                              "};
