/* XPM */
static char * 3_xpm[] = {
"50 90 566 2",
"  	c #000000",
". 	c #020907",
"+ 	c #050000",
"@ 	c #040000",
"# 	c #030000",
"$ 	c #010A06",
"% 	c #180404",
"& 	c #9C3A3D",
"* 	c #D35C63",
"= 	c #D85A63",
"- 	c #DB5864",
"; 	c #DC5863",
"> 	c #DA5962",
", 	c #DA5A60",
"' 	c #DB5863",
") 	c #DB5963",
"! 	c #D95B64",
"~ 	c #D35D63",
"{ 	c #9E3C3F",
"] 	c #130202",
"^ 	c #1F0703",
"/ 	c #8A4643",
"( 	c #EE625C",
"_ 	c #FA5F59",
": 	c #FE5D5A",
"< 	c #FF5C59",
"[ 	c #FE5C58",
"} 	c #FE5D57",
"| 	c #FE5C59",
"1 	c #F0635C",
"2 	c #944647",
"3 	c #110200",
"4 	c #040B06",
"5 	c #170403",
"6 	c #914341",
"7 	c #EB6163",
"8 	c #FE5F5A",
"9 	c #FF5D57",
"0 	c #FF5B57",
"a 	c #FF5C57",
"b 	c #FF5C58",
"c 	c #FF5D58",
"d 	c #FE5E5A",
"e 	c #F16064",
"f 	c #974847",
"g 	c #1A0404",
"h 	c #3C201F",
"i 	c #CF6869",
"j 	c #FE5561",
"k 	c #FF595E",
"l 	c #FF5C60",
"m 	c #FF595D",
"n 	c #FF5A5D",
"o 	c #FF5C5D",
"p 	c #FE5C5E",
"q 	c #FF5A5F",
"r 	c #FE5B5F",
"s 	c #FD5D5E",
"t 	c #FC5E5C",
"u 	c #FF5A5B",
"v 	c #FF5B5E",
"w 	c #FF5B5F",
"x 	c #FC5961",
"y 	c #DC6368",
"z 	c #4F2324",
"A 	c #120B08",
"B 	c #1A1A1C",
"C 	c #232522",
"D 	c #763738",
"E 	c #E85E68",
"F 	c #FB5D5D",
"G 	c #FD5C5B",
"H 	c #FF5C5C",
"I 	c #FF5C5B",
"J 	c #FE5D5B",
"K 	c #FB5E5B",
"L 	c #F95F5A",
"M 	c #FE5C5C",
"N 	c #FA5F5B",
"O 	c #F66257",
"P 	c #FE5A5C",
"Q 	c #F96064",
"R 	c #E95F66",
"S 	c #813A35",
"T 	c #C15961",
"U 	c #97444E",
"V 	c #190605",
"W 	c #1F191A",
"X 	c #332E32",
"Y 	c #2A3430",
"Z 	c #2C2B23",
"` 	c #703835",
" .	c #EA5D5B",
"..	c #FB5C5D",
"+.	c #FC5A5C",
"@.	c #FE5A5D",
"#.	c #FE5B5D",
"$.	c #FE5D5C",
"%.	c #FE5B5A",
"&.	c #FF585A",
"*.	c #FC5D61",
"=.	c #E95F61",
"-.	c #8A3435",
";.	c #CF5757",
">.	c #F26363",
",.	c #F95A68",
"'.	c #A03E48",
").	c #170503",
"!.	c #141915",
"~.	c #31302E",
"{.	c #342C31",
"].	c #2F3033",
"^.	c #2D3330",
"/.	c #2E2B29",
"(.	c #77312E",
"_.	c #AF5956",
":.	c #B55757",
"<.	c #B65455",
"[.	c #B85355",
"}.	c #BC5054",
"|.	c #BC5154",
"1.	c #B75550",
"2.	c #B75450",
"3.	c #BA5252",
"4.	c #B95556",
"5.	c #B2595A",
"6.	c #803636",
"7.	c #C65559",
"8.	c #FE575F",
"9.	c #FC5F57",
"0.	c #F35F69",
"a.	c #934447",
"b.	c #150406",
"c.	c #040404",
"d.	c #2C312E",
"e.	c #2D322E",
"f.	c #322F30",
"g.	c #352D31",
"h.	c #342E32",
"i.	c #312F31",
"j.	c #1E1C1A",
"k.	c #020000",
"l.	c #190B0A",
"m.	c #060000",
"n.	c #0C0101",
"o.	c #0D0201",
"p.	c #090101",
"q.	c #8D4C4F",
"r.	c #FC5C64",
"s.	c #F9615D",
"t.	c #FD5E5A",
"u.	c #FA5F5C",
"v.	c #E2676C",
"w.	c #461E21",
"x.	c #2E2F2F",
"y.	c #2D3130",
"z.	c #2C332E",
"A.	c #30312D",
"B.	c #2C332F",
"C.	c #191D1C",
"D.	c #000402",
"E.	c #120202",
"F.	c #97494A",
"G.	c #FB5E56",
"H.	c #FA5C5B",
"I.	c #FE5A63",
"J.	c #F95F60",
"K.	c #FC5E58",
"L.	c #F35D63",
"M.	c #5A2127",
"N.	c #302F2F",
"O.	c #303030",
"P.	c #2F3130",
"Q.	c #30302F",
"R.	c #2E3130",
"S.	c #1E1F1F",
"T.	c #000101",
"U.	c #020100",
"V.	c #99494A",
"W.	c #FB605C",
"X.	c #FD5D5D",
"Y.	c #FE5E5B",
"Z.	c #F35E64",
"`.	c #541F23",
" +	c #2F2F2F",
".+	c #1F1F1F",
"++	c #9A474A",
"@+	c #FC5D5D",
"#+	c #F06066",
"$+	c #501D21",
"%+	c #1F1E1F",
"&+	c #F16066",
"*+	c #2D3030",
"=+	c #303031",
"-+	c #31302F",
";+	c #2E312F",
">+	c #2F3332",
",+	c #352D32",
"'+	c #201E21",
")+	c #180403",
"!+	c #9D494A",
"~+	c #F95E57",
"{+	c #FB6060",
"]+	c #FC5E5E",
"^+	c #FF5A58",
"/+	c #F35D64",
"(+	c #5C2428",
"_+	c #352D30",
":+	c #382C31",
"<+	c #323033",
"[+	c #2D3134",
"}+	c #323034",
"|+	c #1B201E",
"1+	c #010000",
"2+	c #040101",
"3+	c #8D4E4F",
"4+	c #FB5860",
"5+	c #FE5C5D",
"6+	c #FC5A58",
"7+	c #FD5E59",
"8+	c #FB5D59",
"9+	c #EC6269",
"0+	c #4F1D22",
"a+	c #262625",
"b+	c #352E30",
"c+	c #372C33",
"d+	c #2F3034",
"e+	c #2B3333",
"f+	c #2F2E2C",
"g+	c #562220",
"h+	c #8F4748",
"i+	c #934547",
"j+	c #954346",
"k+	c #944346",
"l+	c #944246",
"m+	c #954246",
"n+	c #934444",
"o+	c #954344",
"p+	c #974246",
"q+	c #954449",
"r+	c #90464A",
"s+	c #763033",
"t+	c #DC5E68",
"u+	c #FF5555",
"v+	c #FA6056",
"w+	c #EA685F",
"x+	c #BB4D52",
"y+	c #240A0C",
"z+	c #242527",
"A+	c #2E3134",
"B+	c #2B3331",
"C+	c #332E29",
"D+	c #522925",
"E+	c #DD5B58",
"F+	c #F45F5F",
"G+	c #F95F61",
"H+	c #FB5D60",
"I+	c #FB5E60",
"J+	c #FA5E5D",
"K+	c #FB5D5E",
"L+	c #FA5C62",
"M+	c #F45E63",
"N+	c #D95C5D",
"O+	c #792C2C",
"P+	c #DA5E5C",
"Q+	c #F65F5D",
"R+	c #FB5B61",
"S+	c #BC4E50",
"T+	c #280F0A",
"U+	c #060102",
"V+	c #020203",
"W+	c #212828",
"X+	c #302F2A",
"Y+	c #5C2421",
"Z+	c #D65E5F",
"`+	c #F9605A",
" @	c #FE5E59",
".@	c #FF5B58",
"+@	c #FE5D56",
"@@	c #FD5F54",
"#@	c #FF5A55",
"$@	c #FE5C5B",
"%@	c #F6605E",
"&@	c #DA615E",
"*@	c #72382B",
"=@	c #D16366",
"-@	c #C04859",
";@	c #320F0F",
">@	c #030502",
",@	c #020202",
"'@	c #3A2320",
")@	c #C96362",
"!@	c #FE555E",
"~@	c #FE5A5E",
"{@	c #FE5B60",
"]@	c #FF5B60",
"^@	c #FD5D60",
"/@	c #FC5D60",
"(@	c #FD5C60",
"_@	c #FE5C60",
":@	c #FF5860",
"<@	c #FA5F5D",
"[@	c #F7615A",
"}@	c #FF575C",
"|@	c #FC5C5F",
"1@	c #DF5B61",
"2@	c #572D2C",
"3@	c #1F0D0F",
"4@	c #060304",
"5@	c #030101",
"6@	c #040505",
"7@	c #30211D",
"8@	c #AF5352",
"9@	c #FB5C63",
"0@	c #FF5B5D",
"a@	c #FD5C5D",
"b@	c #FF585D",
"c@	c #FA5E5C",
"d@	c #FF575E",
"e@	c #FD5B5D",
"f@	c #F65F5F",
"g@	c #B84F4D",
"h@	c #7E3C40",
"i@	c #4F1D24",
"j@	c #030404",
"k@	c #020404",
"l@	c #0B0205",
"m@	c #040405",
"n@	c #232B2C",
"o@	c #2F312C",
"p@	c #3F1F1A",
"q@	c #AE5351",
"r@	c #F4655C",
"s@	c #FA6058",
"t@	c #FE5D58",
"u@	c #FD5E58",
"v@	c #FE5D55",
"w@	c #FD5E55",
"x@	c #FE5B59",
"y@	c #FA5D5A",
"z@	c #EF655E",
"A@	c #B2514D",
"B@	c #884439",
"C@	c #E36667",
"D@	c #E75667",
"E@	c #5C2022",
"F@	c #040603",
"G@	c #10110F",
"H@	c #2C2A2C",
"I@	c #302E33",
"J@	c #2B3232",
"K@	c #2E312C",
"L@	c #32211C",
"M@	c #BB4949",
"N@	c #EB6769",
"O@	c #EF6368",
"P@	c #F26269",
"Q@	c #F36269",
"R@	c #F16463",
"S@	c #F26463",
"T@	c #F46265",
"U@	c #F16267",
"V@	c #EB666B",
"W@	c #BA4C4D",
"X@	c #913F41",
"Y@	c #EE5E61",
"Z@	c #FC5C5A",
"`@	c #DB5E5E",
" #	c #5B231F",
".#	c #090303",
"+#	c #292929",
"@#	c #372D31",
"##	c #3A2C33",
"$#	c #2A3133",
"%#	c #2F3132",
"&#	c #2C1917",
"*#	c #411817",
"=#	c #451718",
"-#	c #461518",
";#	c #451714",
">#	c #481614",
",#	c #491515",
"'#	c #441614",
")#	c #411514",
"!#	c #763D3F",
"~#	c #ED5F6A",
"{#	c #FD5A60",
"]#	c #FF5757",
"^#	c #FC5F56",
"/#	c #F3655D",
"(#	c #D75D62",
"_#	c #371517",
":#	c #2F3031",
"<#	c #332F31",
"[#	c #352D2F",
"}#	c #2C3031",
"|#	c #332C32",
"1#	c #202122",
"2#	c #170606",
"3#	c #944A4F",
"4#	c #FC5B5E",
"5#	c #FC5C5B",
"6#	c #FC5F5E",
"7#	c #E96265",
"8#	c #572226",
"9#	c #2E3030",
"0#	c #2E302F",
"a#	c #2F3131",
"b#	c #332E31",
"c#	c #1D1C1E",
"d#	c #080101",
"e#	c #9B474C",
"f#	c #FB5E5A",
"g#	c #FF5D5B",
"h#	c #F95C5C",
"i#	c #FD5E5D",
"j#	c #FF5F5C",
"k#	c #F16167",
"l#	c #572025",
"m#	c #1F1F1E",
"n#	c #312F30",
"o#	c #2D322F",
"p#	c #2F312E",
"q#	c #2F312F",
"r#	c #2B332F",
"s#	c #1B211F",
"t#	c #0B0201",
"u#	c #994949",
"v#	c #F86157",
"w#	c #FF5961",
"x#	c #FA5F5F",
"y#	c #FC5E59",
"z#	c #F45A62",
"A#	c #592026",
"B#	c #2D2F2E",
"C#	c #2D3230",
"D#	c #2E322E",
"E#	c #332F2E",
"F#	c #342E2F",
"G#	c #1E1E1F",
"H#	c #140403",
"I#	c #96494B",
"J#	c #FD5C5A",
"K#	c #F8605C",
"L#	c #FC5C60",
"M#	c #FE5D5F",
"N#	c #EE6065",
"O#	c #541E25",
"P#	c #292E2B",
"Q#	c #342E31",
"R#	c #342D33",
"S#	c #322F32",
"T#	c #313031",
"U#	c #241915",
"V#	c #2B1310",
"W#	c #2F1210",
"X#	c #30110F",
"Y#	c #2F110F",
"Z#	c #2E120F",
"`#	c #2D140F",
" $	c #341612",
".$	c #341514",
"+$	c #2B1312",
"@$	c #2C1614",
"#$	c #7C4446",
"$$	c #F16268",
"%$	c #FD5E57",
"&$	c #FF5C5A",
"*$	c #F85F60",
"=$	c #D6636A",
"-$	c #371819",
";$	c #0D0F0D",
">$	c #302C2C",
",$	c #342D32",
"'$	c #2F3535",
")$	c #2B332D",
"!$	c #302622",
"~$	c #AB4543",
"{$	c #D86261",
"]$	c #DD6060",
"^$	c #E05E60",
"/$	c #DF5E60",
"($	c #DE5F60",
"_$	c #E15E5E",
":$	c #E35D5F",
"<$	c #E45B60",
"[$	c #E45B63",
"}$	c #DD5F67",
"|$	c #AC4549",
"1$	c #A14244",
"2$	c #F95960",
"3$	c #F9615A",
"4$	c #FC5E60",
"5$	c #ED5D6B",
"6$	c #693132",
"7$	c #020101",
"8$	c #0F0B0C",
"9$	c #2F2C2F",
"0$	c #2D342F",
"a$	c #32241D",
"b$	c #A24D4E",
"c$	c #F4625F",
"d$	c #FD5D5B",
"e$	c #FF5B5B",
"f$	c #FF5B5A",
"g$	c #FD5F57",
"h$	c #FF5B59",
"i$	c #F16363",
"j$	c #AE4A4C",
"k$	c #9E453F",
"l$	c #EC656A",
"m$	c #E75C6C",
"n$	c #6D2B31",
"o$	c #100604",
"p$	c #0C0C0D",
"q$	c #221D19",
"r$	c #9F4D4F",
"s$	c #F85A68",
"t$	c #FD5B5E",
"u$	c #FE5B5C",
"v$	c #FC5E5D",
"w$	c #FB5F5C",
"x$	c #FF5A56",
"y$	c #FF595B",
"z$	c #F16067",
"A$	c #A44848",
"B$	c #8F4348",
"C$	c #652F36",
"D$	c #0C0404",
"E$	c #482424",
"F$	c #D26466",
"G$	c #FC5960",
"H$	c #FE5B5E",
"I$	c #FF5C5F",
"J$	c #FD5D5F",
"K$	c #FC5D5F",
"L$	c #FF5A61",
"M$	c #FF5C5E",
"N$	c #FD5A5F",
"O$	c #D46365",
"P$	c #4B2727",
"Q$	c #652D2B",
"R$	c #E05F64",
"S$	c #FC5F58",
"T$	c #FF5D55",
"U$	c #FF5B55",
"V$	c #FF5D56",
"W$	c #FD5F58",
"X$	c #FF5C55",
"Y$	c #E16065",
"Z$	c #050202",
"`$	c #0E0403",
" %	c #63292B",
".%	c #E7605C",
"+%	c #F8605D",
"@%	c #FF5A5E",
"#%	c #662D2F",
"$%	c #0F0504",
"%%	c #682325",
"&%	c #A44D51",
"*%	c #A74A4F",
"=%	c #AA4850",
"-%	c #AD4850",
";%	c #070406",
">%	c #070505",
",%	c #140407",
"                                                                                                    ",
"                .     + @ @ # @ @ # @ # @ # # @ # @ # @ @ # @ # @ # # @ @ + +     $                 ",
"              % & * = - ; > , , , , , , , , , , , , , , , , , , , , , , > ' ) ! ~ { ]               ",
"            ^ / ( _ : < < [ } } } } } } } } } } } } } } } } } } } } } } [ < < | _ 1 2 3 4           ",
"          5 6 7 8 9 0 0 a a b b b b b b b b b b b b b b b b b b b b b b a a 0 b c d e f g           ",
"          h i j k l m n o p q q q q q q q q q q q q q q q q q q q q q q r s t u v w x y z A         ",
"        B C D E F G H I J K L L L L L L L L L L L L L L L L L L L L L L M N O [ P Q R S T U V       ",
"      W X Y Z `  ...+.@.@.#.$.$.$.$.$.$.$.$.$.$.$.$.$.$.$.$.$.$.$.$.$.$.%.| b &.*.=.-.;.>.,.'.).    ",
"    !.~.{.].^./.(._.:.<.<.[.}.}.}.}.}.}.}.}.}.}.}.}.}.}.}.}.}.}.}.}.}.|.1.2.3.4.5.6.7.8.9.J 0.a.b.  ",
"  c.d.e.f.g.h.i.j.k.l.+ + + m.m.m.m.m.m.m.m.m.m.m.m.m.m.m.m.m.m.m.m.m.m.+ n.o.+ p.q.r.s.t.I u.v.w.  ",
"    x.y.z.A.~.B.C.                                                            D.E.F.G.H.I.J.K.L.M.  ",
"    N.O.P.Q.O.R.S.                                                            T.U.V.W.H n X.Y.Z.`.  ",
"     +O.O.O.O.O..+                                                                ++@+I I I I #+$+  ",
"     +O.O.O.O.O..+                                                                ++@+I I I I #+$+  ",
"     +O.O.O.O.O..+                                                                ++@+I I I I #+$+  ",
"     +O.O.O.O.O..+                                                                ++@+I I I I #+$+  ",
"     +O.O.O.O.O..+                                                                ++@+I I I I #+$+  ",
"     +O.O.O.O.O..+                                                                ++@+I I I I #+$+  ",
"     +O.O.O.O.O..+                                                                ++@+I I I I #+$+  ",
"     +O.O.O.O.O..+                                                                ++@+I I I I #+$+  ",
"     +O.O.O.O.O..+                                                                ++@+I I I I #+$+  ",
"     +O.O.O.O.O..+                                                                ++@+I I I I #+$+  ",
"     +O.O.O.O.O..+                                                                ++@+I I I I #+$+  ",
"     +O.O.O.O.O..+                                                                ++@+I I I I #+$+  ",
"     +O.O.O.O.O..+                                                                ++@+I I I I #+$+  ",
"     +O.O.O.O.O..+                                                                ++@+I I I I #+$+  ",
"     +O.O.O.O.O..+                                                                ++@+I I I I #+$+  ",
"     +O.O.O.O.O..+                                                                ++@+I I I I #+$+  ",
"     +O.O.O.O.O..+                                                                ++@+I I I I #+$+  ",
"     +O.O.O.O.O..+                                                                ++@+I I I I #+$+  ",
"     +O.O.O.O.O..+                                                                ++@+I I I I #+$+  ",
"     +O.O.O.O.O..+                                                                ++@+I I I I #+$+  ",
"     +O.O.O.O.O..+                                                                ++@+I I I I #+$+  ",
"     +O.O.O.O.O..+                                                                ++@+I I I I #+$+  ",
"     +O.O.O.O.O..+                                                                ++@+I I I I #+$+  ",
"     +O.O.O.O.O..+                                                                ++@+I I I I #+$+  ",
"     +O.O.O.O.O..+                                                                ++@+I I I I #+$+  ",
"     +O.O.O.O.O..+                                                                ++@+I I I I #+$+  ",
"     +O.O.O.O.O.%+                                                                ++@+I I I I &+$+  ",
"    *+=+-+;+>+,+'+                                                              )+!+~+Y.{+]+^+/+(+  ",
"    O._+:+<+[+}+|+                                                        1+1+1+2+3+4+5+6+7+8+9+0+  ",
"    a+b+c+d+e+f+g+h+i+j+k+l+m+m+m+m+m+m+m+m+m+m+m+m+m+m+m+m+m+m+m+m+m+m+n+o+p+q+r+s+t+x u+v+w+x+y+  ",
"      z+A+B+C+D+E+F+G+H+H+H+I+I+I+I+I+I+I+I+I+I+I+I+I+I+I+I+I+I+I+I+I+I+J+J+K+L+M+N+O+P+Q+R+S+T+U+  ",
"      V+W+X+Y+Z+`+ @[ .@b b .@.@.@.@.@.@.@.@.@.@.@.@.@.@.@.@.@.@.@.@.@.@^++@@@#@$@%@&@*@=@-@;@>@    ",
"        ,@'@)@!@~@r {@]@^@/@(@(@_@(@_@(@_@(@(@_@(@_@(@_@(@(@_@(@_@(@(@_@:@<@[@%.}@|@H.1@2@3@4@    5@",
"        6@7@8@9@0@P n n 5+a@#.#.#.#.#.#.#.#.#.#.#.#.#.#.#.#.#.#.#.#.#.#.b@@+c@b@d@e@f@g@h@i@j@k@1+l@",
"      m@n@o@p@q@r@s@ @b t@u@t@t@t@t@t@t@t@t@t@t@t@t@t@t@t@t@t@t@t@t@t@t@v@@@w@x@y@z@A@B@C@D@E@F@    ",
"    G@H@I@J@K@L@M@N@O@P@P@P@Q@Q@Q@P@Q@P@Q@Q@Q@Q@P@Q@Q@Q@Q@Q@Q@P@Q@Q@Q@Q@R@S@T@U@V@W@X@Y@G Z@`@ #.#  ",
"    +#@###I@$#%#&#*#=#-#-#-#-#-#-#-#-#-#-#-#-#-#-#-#-#-#-#-#-#-#-#-#-#-#;#>#,#'#)#!#~#{#]#^#/#(#_#  ",
"    :#<#[#=+}#|#1#                                                              2#3#4#5#6#y@: 7#8#  ",
"    9#=+Q.0#a#b#c#                                                              d#e#f#g#h#i#j#k#l#  ",
"     +O.O.O.O.O.m#                                                                ++@+I I I I #+$+  ",
"     +O.O.O.O.O..+                                                                ++@+I I I I #+$+  ",
"     +O.O.O.O.O..+                                                                ++@+I I I I #+$+  ",
"     +O.O.O.O.O..+                                                                ++@+I I I I #+$+  ",
"     +O.O.O.O.O..+                                                                ++@+I I I I #+$+  ",
"     +O.O.O.O.O..+                                                                ++@+I I I I #+$+  ",
"     +O.O.O.O.O..+                                                                ++@+I I I I #+$+  ",
"     +O.O.O.O.O..+                                                                ++@+I I I I #+$+  ",
"     +O.O.O.O.O..+                                                                ++@+I I I I #+$+  ",
"     +O.O.O.O.O..+                                                                ++@+I I I I #+$+  ",
"     +O.O.O.O.O..+                                                                ++@+I I I I #+$+  ",
"     +O.O.O.O.O..+                                                                ++@+I I I I #+$+  ",
"     +O.O.O.O.O..+                                                                ++@+I I I I #+$+  ",
"     +O.O.O.O.O..+                                                                ++@+I I I I #+$+  ",
"     +O.O.O.O.O..+                                                                ++@+I I I I #+$+  ",
"     +O.O.O.O.O..+                                                                ++@+I I I I #+$+  ",
"     +O.O.O.O.O..+                                                                ++@+I I I I #+$+  ",
"     +O.O.O.O.O..+                                                                ++@+I I I I #+$+  ",
"     +O.O.O.O.O..+                                                                ++@+I I I I #+$+  ",
"     +O.O.O.O.O..+                                                                ++@+I I I I #+$+  ",
"     +O.O.O.O.O..+                                                                ++@+I I I I #+$+  ",
"     +O.O.O.O.O..+                                                                ++@+I I I I #+$+  ",
"     +O.O.O.O.O..+                                                                ++@+I I I I #+$+  ",
"     +O.O.O.O.O..+                                                                ++@+I I I I #+$+  ",
"     +O.O.O.O.O..+                                                                ++@+I I I I #+$+  ",
"     +O.O.O.O.O..+                                                                ++@+I I I I #+$+  ",
"     +O.O.O.O.O.%+                                                                ++@+I I I I #+$+  ",
"    n#P.o#p#q#r#s#                                                              t#u#v#M w#x#y#z#A#  ",
"    B#C#D#E#F#R.G#                                                              H#I#J#K#L#M#| N#O#  ",
"    P#e.Q#R#S#T#U#V#W#X#X#Y#Z#Z#Z#Z#Z#Z#Z#Z#Z#Z#Z#Z#Z#Z#Z#Z#Z#Z#Z#Z#Z#Z#`# $.$+$@$#$$$h#%$&$*$=$-$  ",
"    ;$>$,$'$)$!$~${$]$^$^$/$($($($($($($($($($($($($($($($($($($($($($($_$:$<$[$}$|$1$2$3$4$5$6$7$  ",
"      8$9$0$a$b$c$d$$@e$$@$@e$e$e$e$e$e$e$e$e$e$e$e$e$e$e$e$e$e$e$e$e$e$f$u@g$h$F i$j$k$l$m$n$o$    ",
"        p$q$r$s$t$a@u$5+X.v$p p p p p p p p p p p p p p p p p p p p p p k w$v#x$y$(@z$A$B$C$D$      ",
"          E$F$G$H$I$w w J$K$L$L$L$L$L$L$L$L$L$L$L$L$L$L$L$L$L$L$L$L$L$L$J$s a@v M$p N$O$P$          ",
"          k.Q$R$S$T$U$U$U$V$S$S$S$S$W$S$W$S$S$W$S$W$S$S$S$S$W$S$W$S$S$W$V$X$U$U$T$S$Y$Q$Z$          ",
"            `$ %.%+%@+5+5+5+@%@%@%@%@%@%@%@%@%@%@%@%@%@%@%@%@%@%@%@%@%@%#.5+5+@++%.%#%$%            ",
"              # %%&%*%=%=%=%-%-%-%-%-%-%-%-%-%-%-%-%-%-%-%-%-%-%-%-%-%-%=%=%=%*%&%%%k.              ",
"        1+        ;%                                                            >%                  ",
"        ,%                                                                                          "};
