/* XPM */
static char * 4_xpm[] = {
"50 90 434 2",
"  	c #000000",
". 	c #0D0D0D",
"+ 	c #2C2C2C",
"@ 	c #2D2D2D",
"# 	c #2A2A2A",
"$ 	c #1D1D1D",
"% 	c #030303",
"& 	c #2F2F2F",
"* 	c #303030",
"= 	c #313131",
"- 	c #010000",
"; 	c #150C05",
"> 	c #2F2927",
", 	c #362D33",
"' 	c #2C3434",
") 	c #2E3130",
"! 	c #2F3032",
"~ 	c #2F3130",
"{ 	c #31302D",
"] 	c #312E30",
"^ 	c #302E32",
"/ 	c #2F2F31",
"( 	c #303034",
"_ 	c #100E0C",
": 	c #060302",
"< 	c #7C3539",
"[ 	c #C15E5C",
"} 	c #552A26",
"| 	c #322D31",
"1 	c #2B3132",
"2 	c #2E3035",
"3 	c #30302F",
"4 	c #31312A",
"5 	c #2F3233",
"6 	c #2E3337",
"7 	c #2B312F",
"8 	c #2F2529",
"9 	c #A4504F",
"0 	c #A8524F",
"a 	c #270908",
"b 	c #050100",
"c 	c #743936",
"d 	c #EC5D66",
"e 	c #FD5660",
"f 	c #CA615D",
"g 	c #532725",
"h 	c #362B2A",
"i 	c #31302F",
"j 	c #312F34",
"k 	c #342E2F",
"l 	c #2F312C",
"m 	c #273634",
"n 	c #293130",
"o 	c #2F251D",
"p 	c #A6504F",
"q 	c #FA5B65",
"r 	c #FB5864",
"s 	c #A94D50",
"t 	c #1F0706",
"u 	c #080101",
"v 	c #783335",
"w 	c #E36462",
"x 	c #FE5959",
"y 	c #FE5D5A",
"z 	c #FA5F5D",
"A 	c #D9585F",
"B 	c #4D2524",
"C 	c #1F201E",
"D 	c #1F1F1F",
"E 	c #202023",
"F 	c #252121",
"G 	c #21211F",
"H 	c #1E2526",
"I 	c #3B2124",
"J 	c #AA4B4D",
"K 	c #F75E5F",
"L 	c #FB5F5B",
"M 	c #F65E64",
"N 	c #A84F52",
"O 	c #200908",
"P 	c #210204",
"Q 	c #D86266",
"R 	c #FB5D57",
"S 	c #FE5E58",
"T 	c #FE5D59",
"U 	c #FF5D56",
"V 	c #F85F61",
"W 	c #A8585A",
"X 	c #020000",
"Y 	c #020304",
"Z 	c #6B282E",
"` 	c #F26168",
" .	c #FF5A56",
"..	c #F7615A",
"+.	c #FA6058",
"@.	c #FD5C58",
"#.	c #EC676C",
"$.	c #753136",
"%.	c #180100",
"&.	c #DC6661",
"*.	c #FF5B54",
"=.	c #FF5A5D",
"-.	c #FD5C60",
";.	c #FD5D54",
">.	c #FC5D5C",
",.	c #B9545A",
"'.	c #070000",
").	c #010607",
"!.	c #6C2F2F",
"~.	c #F56362",
"{.	c #FF5B56",
"].	c #FC5D60",
"^.	c #FF585B",
"/.	c #FF5855",
"(.	c #F56365",
"_.	c #81363B",
":.	c #120300",
"<.	c #E45F61",
"[.	c #FE5C56",
"}.	c #FF5B5D",
"|.	c #FD5D5F",
"1.	c #FE5C57",
"2.	c #FE5C5D",
"3.	c #BA5254",
"4.	c #040000",
"5.	c #6A2C2B",
"6.	c #F66161",
"7.	c #FE5D57",
"8.	c #FE5C5F",
"9.	c #FE5B5C",
"0.	c #FE5B57",
"a.	c #F75D61",
"b.	c #7B3837",
"c.	c #0F0200",
"d.	c #E85C63",
"e.	c #FD5D57",
"f.	c #FF5B5C",
"g.	c #FD5C5E",
"h.	c #FE5D5E",
"i.	c #BB5254",
"j.	c #6C2C2B",
"k.	c #F76161",
"l.	c #FE5E57",
"m.	c #FE5C5E",
"n.	c #FE5C5C",
"o.	c #FC5D57",
"p.	c #F85D62",
"q.	c #7B3937",
"r.	c #E85D63",
"s.	c #FC5D5E",
"t.	c #FC5D58",
"u.	c #7B3936",
"v.	c #150100",
"w.	c #DD625E",
"x.	c #FF585F",
"y.	c #F75F63",
"z.	c #FC5A57",
"A.	c #FD555C",
"B.	c #AF5656",
"C.	c #040302",
"D.	c #6C2E24",
"E.	c #EE6857",
"F.	c #F76258",
"G.	c #FC5D5D",
"H.	c #F9605E",
"I.	c #7D392D",
"J.	c #1C0201",
"K.	c #DC6463",
"L.	c #FE5B56",
"M.	c #FD5C5B",
"N.	c #FF5860",
"O.	c #FD605A",
"P.	c #FB595F",
"Q.	c #B35359",
"R.	c #040100",
"S.	c #000A09",
"T.	c #010C08",
"U.	c #792A2E",
"V.	c #FB5B67",
"W.	c #FD5B5C",
"X.	c #FE5858",
"Y.	c #F66257",
"Z.	c #FC5E5D",
"`.	c #EB6464",
" +	c #7F3634",
".+	c #0E0101",
"++	c #9D4647",
"@+	c #F3635F",
"#+	c #FF5959",
"$+	c #FD5D5C",
"%+	c #FB5E5D",
"&+	c #E76263",
"*+	c #853436",
"=+	c #914145",
"-+	c #964347",
";+	c #954246",
">+	c #8D4649",
",+	c #934349",
"'+	c #974145",
")+	c #8E4847",
"!+	c #713232",
"~+	c #C75A67",
"{+	c #FC5A62",
"]+	c #FA6057",
"^+	c #FE5F53",
"/+	c #F55D5D",
"(+	c #CD5B65",
"_+	c #381918",
":+	c #140402",
"<+	c #A34645",
"[+	c #F16264",
"}+	c #FC5B61",
"|+	c #EB5E61",
"1+	c #843C35",
"2+	c #C15855",
"3+	c #F86062",
"4+	c #FB5E60",
"5+	c #F16364",
"6+	c #F85E62",
"7+	c #FF575D",
"8+	c #D56865",
"9+	c #7D3632",
"0+	c #CE5B59",
"a+	c #F95E5E",
"b+	c #D25B5C",
"c+	c #3F1819",
"d+	c #0D0201",
"e+	c #A5444E",
"f+	c #EA5D68",
"g+	c #823A35",
"h+	c #CB5258",
"i+	c #F5615C",
"j+	c #FD5E58",
"k+	c #FF5B58",
"l+	c #FF5B5A",
"m+	c #FF5B59",
"n+	c #FE5A58",
"o+	c #F95A5C",
"p+	c #EF5D60",
"q+	c #8A3331",
"r+	c #D25A5E",
"s+	c #D55761",
"t+	c #3F1715",
"u+	c #190708",
"v+	c #4B2620",
"w+	c #BB5860",
"x+	c #FD566B",
"y+	c #FE5B54",
"z+	c #FE5C60",
"A+	c #FE5A5E",
"B+	c #FC5D5F",
"C+	c #FB5D61",
"D+	c #FD5A5D",
"E+	c #FB5D5D",
"F+	c #E06368",
"G+	c #6A3934",
"H+	c #391A1A",
"I+	c #0F0606",
"J+	c #040D0B",
"K+	c #040404",
"L+	c #231D1D",
"M+	c #9C444F",
"N+	c #F45E68",
"O+	c #FD5C57",
"P+	c #FE5C5B",
"Q+	c #FE5B5D",
"R+	c #FD5C5C",
"S+	c #FA5F5E",
"T+	c #FC5B5F",
"U+	c #FE595E",
"V+	c #D0575B",
"W+	c #79383A",
"X+	c #6B343A",
"Y+	c #020001",
"Z+	c #040B09",
"`+	c #13080C",
" @	c #020302",
".@	c #2F272B",
"+@	c #352C2F",
"@@	c #2C2B22",
"#@	c #914946",
"$@	c #F35D66",
"%@	c #FE5D58",
"&@	c #FF5A59",
"*@	c #FE5D54",
"=@	c #FD6057",
"-@	c #F6605E",
";@	c #DC5154",
">@	c #8B3431",
",@	c #E95D64",
"'@	c #EC5968",
")@	c #763132",
"!@	c #040203",
"~@	c #202422",
"{@	c #302E2E",
"]@	c #333031",
"^@	c #263830",
"/@	c #2D2922",
"(@	c #9B424C",
"_@	c #ED636C",
":@	c #F36269",
"<@	c #F26269",
"[@	c #E8686A",
"}@	c #EF6566",
"|@	c #F76062",
"1@	c #E96661",
"2@	c #BD625A",
"3@	c #7A3835",
"4@	c #E26162",
"5@	c #F95F5E",
"6@	c #FF5A5A",
"7@	c #ED5B62",
"8@	c #702E34",
"9@	c #292929",
"0@	c #2F312F",
"a@	c #2B332E",
"b@	c #2A332F",
"c@	c #353132",
"d@	c #362C2F",
"e@	c #262424",
"f@	c #401417",
"g@	c #461517",
"h@	c #3F1817",
"i@	c #471616",
"j@	c #4F1414",
"k@	c #4C1916",
"l@	c #662224",
"m@	c #DC626C",
"n@	c #FD5A64",
"o@	c #FD5D58",
"p@	c #FE5D52",
"q@	c #FA5D5C",
"r@	c #DF616B",
"s@	c #55292A",
"t@	c #2E2E2E",
"u@	c #352F30",
"v@	c #322F2E",
"w@	c #352E32",
"x@	c #25292A",
"y@	c #722D28",
"z@	c #F76260",
"A@	c #FB5D5F",
"B@	c #FF575B",
"C@	c #F66258",
"D@	c #FE5B5B",
"E@	c #EF6363",
"F@	c #833534",
"G@	c #332F30",
"H@	c #2D302E",
"I@	c #303131",
"J@	c #262426",
"K@	c #672C25",
"L@	c #F3655B",
"M@	c #FB5F5A",
"N@	c #FD5D5B",
"O@	c #FD5E5A",
"P@	c #FA5B5F",
"Q@	c #7C3833",
"R@	c #212121",
"S@	c #6C2B2B",
"T@	c #682B2A",
"U@	c #F56060",
"V@	c #FE5C59",
"W@	c #F66063",
"X@	c #FE5B5E",
"Y@	c #FF5655",
"Z@	c #F65F61",
"`@	c #783836",
" #	c #202020",
".#	c #030203",
"+#	c #6D2B2E",
"@#	c #F86265",
"##	c #F95F61",
"$#	c #FE5D5C",
"%#	c #FB5B52",
"&#	c #F06160",
"*#	c #88373C",
"=#	c #262626",
"-#	c #030302",
";#	c #07080A",
">#	c #62242B",
",#	c #E76168",
"'#	c #FF5D59",
")#	c #F9625D",
"!#	c #DC6768",
"~#	c #692A2F",
"{#	c #252525",
"]#	c #171717",
"^#	c #2D2E31",
"/#	c #302D2C",
"(#	c #2C2D29",
"_#	c #293233",
":#	c #312628",
"<#	c #7F3938",
"[#	c #EB6163",
"}#	c #FC5B5C",
"|#	c #FF585D",
"1#	c #ED5E67",
"2#	c #7F3B3D",
"3#	c #030000",
"4#	c #0C0C0C",
"5#	c #2B2B2B",
"6#	c #161616",
"7#	c #2F2F35",
"8#	c #312F2F",
"9#	c #2F312B",
"0#	c #273432",
"a#	c #293333",
"b#	c #2D2C27",
"c#	c #7F3C3D",
"d#	c #EA5F65",
"e#	c #ED5D65",
"f#	c #83373C",
"g#	c #060000",
"h#	c #020202",
"i#	c #1E1E1E",
"j#	c #2C3135",
"k#	c #2D322F",
"l#	c #32302A",
"m#	c #312E31",
"n#	c #302E35",
"o#	c #2F3031",
"p#	c #2D282D",
"q#	c #743E38",
"r#	c #763E37",
"s#	c #0D0101",
"t#	c #07090F",
"u#	c #272727",
"v#	c #302F30",
"w#	c #2F2F30",
"x#	c #0F0D0B",
"y#	c #010101",
"z#	c #282828",
"A#	c #0F0F0F",
"                                                                                                    ",
"                                                                                                    ",
"                . + @ @ @ @ @ @ @ @ @ @ @ @ @ @ @ @ @ @ @ @ @ @ @ @ @ @ @ @ @ @ # $ %               ",
"              . & * * * * * * * * * * * * * * * * * * * * * * * * * * * * * * * * = $               ",
"            . & = * * * * * * * * * * * * * * * * * * * * * * * * * * * * * * * * * * $             ",
"        - ; > , ' ) * * * * * * * * * * * * * * * * * * * * * * * * * * * ! ~ { ] ^ / ( _ : -       ",
"        < [ } | 1 ~ * * * * * * * * * * * * * * * * * * * * * * * * * * * 2 3 4 5 6 7 8 9 0 a       ",
"    b c d e f g h i * * * * * * * * * * * * * * * * * * * * * * * * * * * j k l m n o p q r s t     ",
"  u v w x y z A B C D D D D D D D D D D D D D D D D D D D D D D D D D D D E F G H I J K L x M N O   ",
"  P Q R S T U V W X                                                             Y Z `  ...+.@.#.$.  ",
"  %.&.*.=.-.;.>.,.'.                                                            ).!.~.{.].^./.(._.  ",
"  :.<.[.}.|.1.2.3.4.                                                              5.6.7.8.9.0.a.b.  ",
"  c.d.e.f.g.0.h.i.X                                                               j.k.l.m.n.o.p.q.  ",
"  c.d.e.f.g.0.h.i.X                                                               j.k.l.m.n.o.p.q.  ",
"  c.d.e.f.g.0.h.i.X                                                               j.k.l.m.n.o.p.q.  ",
"  c.d.e.f.g.0.h.i.X                                                               j.k.l.m.n.o.p.q.  ",
"  c.d.e.f.g.0.h.i.X                                                               j.k.l.m.n.o.p.q.  ",
"  c.d.e.f.g.0.h.i.X                                                               j.k.l.m.n.o.p.q.  ",
"  c.d.e.f.g.0.h.i.X                                                               j.k.l.m.n.o.p.q.  ",
"  c.d.e.f.g.0.h.i.X                                                               j.k.l.m.n.o.p.q.  ",
"  c.d.e.f.g.0.h.i.X                                                               j.k.l.m.n.o.p.q.  ",
"  c.d.e.f.g.0.h.i.X                                                               j.k.l.m.n.o.p.q.  ",
"  c.d.e.f.g.0.h.i.X                                                               j.k.l.m.n.o.p.q.  ",
"  c.d.e.f.g.0.h.i.X                                                               j.k.l.m.n.o.p.q.  ",
"  c.d.e.f.g.0.h.i.X                                                               j.k.l.m.n.o.p.q.  ",
"  c.d.e.f.g.0.h.i.X                                                               j.k.l.m.n.o.p.q.  ",
"  c.d.e.f.g.0.h.i.X                                                               j.k.l.m.n.o.p.q.  ",
"  c.d.e.f.g.0.h.i.X                                                               j.k.l.m.n.o.p.q.  ",
"  c.d.e.f.g.0.h.i.X                                                               j.k.l.m.n.o.p.q.  ",
"  c.d.e.f.g.0.h.i.X                                                               j.k.l.m.n.o.p.q.  ",
"  c.d.e.f.g.0.h.i.X                                                               j.k.l.m.n.o.p.q.  ",
"  c.d.e.f.g.0.h.i.X                                                               j.k.l.m.n.o.p.q.  ",
"  c.d.e.f.g.0.h.i.X                                                               j.k.l.m.n.o.p.q.  ",
"  c.d.e.f.g.0.h.i.X                                                               j.k.l.m.n.o.p.q.  ",
"  c.d.e.f.g.0.h.i.X                                                               j.k.l.m.n.o.p.q.  ",
"  c.d.e.f.g.0.h.i.X                                                               j.k.l.m.n.o.p.q.  ",
"  c.d.e.f.g.0.h.i.X                                                               j.k.l.m.n.o.p.q.  ",
"  c.d.e.f.g.0.h.i.X                                                               j.k.l.m.n.o.p.q.  ",
"  c.r.7.f.s.0.h.i.X                                                               j.k.l.m.n.t.p.u.  ",
"  v.w.*.x.y.z.A.B.                                                              C.D.E.F.9.G.9.H.I.  ",
"  J.K.L.M.N.O.P.Q.R.                                                        - S.T.U.V.W.X.Y.Z.`. +  ",
"  .+++@+#+$+%+&+*+=+-+-+;+;+;+;+;+;+;+;+;+;+;+;+;+;+;+;+;+;+;+;+;+;+;+;+;+>+,+'+)+!+~+{+]+^+/+(+_+  ",
"    :+<+[+}+|+1+2+3+4+4+4+4+4+4+4+4+4+4+4+4+4+4+4+4+4+4+4+4+4+4+4+4+4+4+4+5+6+7+K 8+9+0+a+M.b+c+    ",
"      d+e+f+g+h+i+j+k+k+k+k+k+k+k+k+k+k+k+k+k+k+k+k+k+k+k+k+k+k+k+k+k+k+k+l+m+0.n+o+p+q+r+s+t+      ",
"        u+v+w+x+y+n.z+-.z+-.z+-.-.z+-.z+-.-.z+-.z+-.z+-.-.z+-.z+-.z+-.-.z+A+B+V C+D+E+F+G+H+I+J+    ",
"        K+L+M+N+O+P+Q+Q+Q+Q+Q+Q+Q+Q+Q+Q+Q+Q+Q+Q+Q+Q+Q+Q+Q+Q+Q+Q+Q+Q+Q+Q+Q+R+z S+T+U+B+V+W+X+Y+Z+`+  ",
"       @.@+@@@#@$@l+%@%@%@%@%@%@%@%@%@%@%@%@%@%@%@%@%@%@%@%@%@%@%@%@%@%@%@&@ .*@=@-@;@>@,@'@)@Y+!@  ",
"      ~@{@]@^@/@(@_@:@<@:@<@:@:@:@:@<@:@:@:@:@:@:@<@:@:@:@:@<@:@<@:@:@:@:@[@}@|@1@2@3@4@5@6@7@8@    ",
"    9@0@a@b@c@d@e@f@g@g@g@g@g@g@g@g@g@g@g@g@g@g@g@g@g@g@g@g@g@g@g@g@g@g@g@h@i@j@k@l@m@n@o@p@q@r@s@  ",
"    t@u@v@a@i w@x@                                                                y@z@A@B@C@D@E@F@  ",
"    t@G@k 0@H@I@J@                                                                K@L@M@m.N@O@P@Q@  ",
"    @ * * * * * R@                                                                S@k.l.m.n.o.p.q.  ",
"    @ * * * * * R@                                                                S@k.l.m.n.o.p.q.  ",
"    @ * * * * * R@                                                                S@k.l.m.n.o.p.q.  ",
"    @ * * * * * R@                                                                S@k.l.m.n.o.p.q.  ",
"    @ * * * * * R@                                                                S@k.l.m.n.o.p.q.  ",
"    @ * * * * * R@                                                                S@k.l.m.n.o.p.q.  ",
"    @ * * * * * R@                                                                S@k.l.m.n.o.p.q.  ",
"    @ * * * * * R@                                                                S@k.l.m.n.o.p.q.  ",
"    @ * * * * * R@                                                                S@k.l.m.n.o.p.q.  ",
"    @ * * * * * R@                                                                S@k.l.m.n.o.p.q.  ",
"    @ * * * * * R@                                                                S@k.l.m.n.o.p.q.  ",
"    @ * * * * * R@                                                                S@k.l.m.n.o.p.q.  ",
"    @ * * * * * R@                                                                S@k.l.m.n.o.p.q.  ",
"    @ * * * * * R@                                                                S@k.l.m.n.o.p.q.  ",
"    @ * * * * * R@                                                                S@k.l.m.n.o.p.q.  ",
"    @ * * * * * R@                                                                S@k.l.m.n.o.p.q.  ",
"    @ * * * * * R@                                                                S@k.l.m.n.o.p.q.  ",
"    @ * * * * * R@                                                                S@k.l.m.n.o.p.q.  ",
"    @ * * * * * R@                                                                S@k.l.m.n.o.p.q.  ",
"    @ * * * * * R@                                                                S@k.l.m.n.o.p.q.  ",
"    @ * * * * * R@                                                                S@k.l.m.n.o.p.q.  ",
"    @ * * * * * R@                                                                S@k.l.m.n.o.p.q.  ",
"    @ * * * * * R@                                                                S@k.l.m.n.o.p.q.  ",
"    @ * * * * * R@                                                                S@k.l.m.n.o.p.q.  ",
"    @ * * * * * R@                                                                S@k.l.m.n.o.p.q.  ",
"    @ * * * * * R@                                                                S@k.l.m.n.o.p.q.  ",
"    @ * * * * * R@                                                                S@k.l.m.n.o.p.q.  ",
"    @ & * * * * R@                                                                T@U@V@W@X@Y@Z@`@  ",
"    @ & * * * *  #                                                              .#+#@#%@##$#%#&#*#  ",
"    =#= * * = = $                                                         K+K+-#;#>#,#'#O@j+)#!#~#  ",
"    % # & = & {#]#9@9@9@9@9@9@9@9@9@9@9@9@9@9@9@9@9@9@9@9@9@9@9@9@9@9@9@9@^#/#(#_#:#<#[#}#|#1#2#3#  ",
"      4#5#* =#6#& * * * * * * * * * * * * * * * * * * * * * * * * * * * * 7#8#9#0#a#b#c#d#e#f#g#    ",
"        h#i#]#* & * * * * * * * * * * * * * * * * * * * * * * * * * * * * j#k#l#m#n#o#p#q#r#s#t#    ",
"            u#* * * * * * * * * * * * * * * * * * * * * * * * * * * * * * o#* 3 v#v#* w#x#-         ",
"            y#z#* * * * * * * * * * * * * * * * * * * * * * * * * * * * * * * * * * t@A#            ",
"              h#u#* * * * * * * * * * * * * * * * * * * * * * * * * * * * * * * = @ .               ",
"                h# #R@R@R@R@R@R@R@R@R@R@R@R@R@R@R@R@R@R@R@R@R@R@R@R@R@R@R@R@R@R@ #.                 ",
"                                                                                                    ",
"                                                                                                    "};
