/* XPM */
static char * 5_xpm[] = {
"50 90 519 2",
"  	c #000000",
". 	c #1A0200",
"+ 	c #0A0000",
"@ 	c #040000",
"# 	c #030000",
"$ 	c #100000",
"% 	c #110000",
"& 	c #0B0100",
"* 	c #050100",
"= 	c #0C0404",
"- 	c #020101",
"; 	c #522825",
"> 	c #C35D5C",
", 	c #D95A5F",
"' 	c #DA5A60",
") 	c #DE585C",
"! 	c #DB595A",
"~ 	c #D25D5F",
"{ 	c #B5575B",
"] 	c #441214",
"^ 	c #090B0B",
"/ 	c #050A0A",
"( 	c #5F2023",
"_ 	c #DB5C62",
": 	c #F75F5E",
"< 	c #FE5D58",
"[ 	c #FE5D57",
"} 	c #FD5D58",
"| 	c #FE5B5A",
"1 	c #FF575D",
"2 	c #F85B66",
"3 	c #BE5C5E",
"4 	c #2F120D",
"5 	c #110506",
"6 	c #5A2523",
"7 	c #D96360",
"8 	c #FE595D",
"9 	c #FF5C58",
"0 	c #FA6058",
"a 	c #F76158",
"b 	c #FE5B5D",
"c 	c #EF6062",
"d 	c #C45A59",
"e 	c #301015",
"f 	c #0B0709",
"g 	c #2C090C",
"h 	c #BE5458",
"i 	c #F55F5D",
"j 	c #EE6B5A",
"k 	c #FD5858",
"l 	c #FF595F",
"m 	c #FF5A5F",
"n 	c #FF5762",
"o 	c #FC5C60",
"p 	c #F7615A",
"q 	c #FB5E58",
"r 	c #FE595A",
"s 	c #F36365",
"t 	c #764F54",
"u 	c #080305",
"v 	c #030404",
"w 	c #030403",
"x 	c #582626",
"y 	c #C85A62",
"z 	c #7A3D37",
"A 	c #D95356",
"B 	c #F95D5E",
"C 	c #FA5E5A",
"D 	c #F95F59",
"E 	c #F95F5A",
"F 	c #FC5B5B",
"G 	c #FA5E56",
"H 	c #FE5957",
"I 	c #F46061",
"J 	c #AF4D49",
"K 	c #28201F",
"L 	c #2C2C2C",
"M 	c #020202",
"N 	c #592626",
"O 	c #D36161",
"P 	c #FB5964",
"Q 	c #DD6065",
"R 	c #843433",
"S 	c #D15557",
"T 	c #F85D62",
"U 	c #FD5D5C",
"V 	c #FE5D5C",
"W 	c #FD5C56",
"X 	c #FD5C52",
"Y 	c #FE5958",
"Z 	c #F75B63",
"` 	c #AD4C51",
" .	c #2A2720",
"..	c #303230",
"+.	c #2E2E2E",
"@.	c #232323",
"#.	c #512A27",
"$.	c #D26160",
"%.	c #FC5D5E",
"&.	c #F85C62",
"*.	c #E25F69",
"=.	c #783332",
"-.	c #B35454",
";.	c #C14F54",
">.	c #BC5054",
",.	c #B85352",
"'.	c #B55552",
").	c #B55456",
"!.	c #9D4A51",
"~.	c #3B1E21",
"{.	c #2A3633",
"].	c #2D302F",
"^.	c #2F2F2F",
"/.	c #303030",
"(.	c #272727",
"_.	c #030303",
":.	c #B25B5D",
"<.	c #F65C61",
"[.	c #FF5957",
"}.	c #FD5E56",
"|.	c #F86059",
"1.	c #FA5C62",
"2.	c #D35C66",
"3.	c #190B03",
"4.	c #0B0402",
"5.	c #060000",
"6.	c #050000",
"7.	c #090606",
"8.	c #322E2F",
"9.	c #373032",
"0.	c #313030",
"a.	c #313131",
"b.	c #131313",
"c.	c #020000",
"d.	c #C7525D",
"e.	c #FE5A5F",
"f.	c #FC5E5B",
"g.	c #FD5E50",
"h.	c #FB5B53",
"i.	c #E05664",
"j.	c #130202",
"k.	c #060606",
"l.	c #2E3130",
"m.	c #31302F",
"n.	c #1A1A1A",
"o.	c #C55255",
"p.	c #FB5E5D",
"q.	c #FE5D59",
"r.	c #FF5B5B",
"s.	c #FD5E58",
"t.	c #FE5C59",
"u.	c #E1565D",
"v.	c #100402",
"w.	c #050505",
"x.	c #303231",
"y.	c #202020",
"z.	c #C45453",
"A.	c #FA5E5C",
"B.	c #FF5B59",
"C.	c #FF5B5A",
"D.	c #FE5D5B",
"E.	c #FF5C5B",
"F.	c #DF585C",
"G.	c #0F0401",
"H.	c #1F1F1F",
"I.	c #E0585C",
"J.	c #C7535B",
"K.	c #FB5D5B",
"L.	c #F9605A",
"M.	c #FA5E5F",
"N.	c #FF5C55",
"O.	c #E25561",
"P.	c #1E0609",
"Q.	c #0A0706",
"R.	c #352D2C",
"S.	c #362F2B",
"T.	c #2E312F",
"U.	c #322F30",
"V.	c #1E2120",
"W.	c #C0555E",
"X.	c #FE595F",
"Y.	c #FF5958",
"Z.	c #F95F5B",
"`.	c #F86156",
" +	c #FA5D5C",
".+	c #E05865",
"++	c #1A0503",
"@+	c #000403",
"#+	c #010000",
"$+	c #030807",
"%+	c #243331",
"&+	c #2C3434",
"*+	c #2C3230",
"=+	c #2F3130",
"-+	c #312F30",
";+	c #1E201F",
">+	c #7B393B",
",+	c #F06167",
"'+	c #FF5759",
")+	c #FB5F55",
"!+	c #FE5C5E",
"~+	c #F16267",
"{+	c #974242",
"]+	c #884641",
"^+	c #964246",
"/+	c #954246",
"(+	c #984344",
"_+	c #964445",
":+	c #904549",
"<+	c #73373D",
"[+	c #352428",
"}+	c #2D3033",
"|+	c #2C3231",
"1+	c #2E2C2D",
"2+	c #82393A",
"3+	c #EB6265",
"4+	c #FA5E5D",
"5+	c #F55F66",
"6+	c #A13F41",
"7+	c #B14B48",
"8+	c #F46263",
"9+	c #F85F60",
"0+	c #FB5E60",
"a+	c #FA5F5E",
"b+	c #FA5F5D",
"c+	c #FA5C60",
"d+	c #F05E67",
"e+	c #923F40",
"f+	c #2D2A20",
"g+	c #30302E",
"h+	c #302F2F",
"i+	c #2B2B2B",
"j+	c #090101",
"k+	c #7E3D3D",
"l+	c #E6616D",
"m+	c #9B4646",
"n+	c #B94B4C",
"o+	c #FB5C62",
"p+	c #FF5B58",
"q+	c #FF5C59",
"r+	c #FD5E57",
"s+	c #FD5D54",
"t+	c #FE5C5B",
"u+	c #E46662",
"v+	c #83433B",
"w+	c #312325",
"x+	c #322B2D",
"y+	c #111111",
"z+	c #1D060C",
"A+	c #4D2526",
"B+	c #AB5053",
"C+	c #F95C64",
"D+	c #F6615B",
"E+	c #FE5857",
"F+	c #FD5C5E",
"G+	c #FE5C60",
"H+	c #FD5C60",
"I+	c #FF5963",
"J+	c #FB5D60",
"K+	c #F66259",
"L+	c #FF5A57",
"M+	c #FE585F",
"N+	c #EF626A",
"O+	c #74434A",
"P+	c #110A0D",
"Q+	c #040204",
"R+	c #1E1B1E",
"S+	c #7F3636",
"T+	c #ED6261",
"U+	c #FF585A",
"V+	c #FD5D5B",
"W+	c #FD5C5C",
"X+	c #FE5C61",
"Y+	c #FF5A60",
"Z+	c #FC5F5A",
"`+	c #FB5D59",
" @	c #FC585D",
".@	c #DB5F5C",
"+@	c #793438",
"@@	c #743E41",
"#@	c #140C0A",
"$@	c #282025",
"%@	c #313132",
"&@	c #272E24",
"*@	c #7E3837",
"=@	c #ED6169",
"-@	c #FD5962",
";@	c #FE5B59",
">@	c #FF5D55",
",@	c #FF5A55",
"'@	c #FE5A5B",
")@	c #F85E65",
"!@	c #D76168",
"~@	c #743434",
"{@	c #CF6463",
"]@	c #EE5E6C",
"^@	c #943940",
"/@	c #090100",
"(@	c #2E322E",
"_@	c #2C312E",
":@	c #312F33",
"<@	c #302A2C",
"[@	c #773A3C",
"}@	c #DE686D",
"|@	c #F16269",
"1@	c #F36269",
"2@	c #F26269",
"3@	c #F06466",
"4@	c #E86966",
"5@	c #F55E6C",
"6@	c #DB5D68",
"7@	c #723531",
"8@	c #E05564",
"9@	c #FB5D5D",
"0@	c #F45D65",
"a@	c #8A4141",
"b@	c #000001",
"c@	c #0C0307",
"d@	c #30312D",
"e@	c #322E35",
"f@	c #352D35",
"g@	c #322427",
"h@	c #3A1715",
"i@	c #451516",
"j@	c #461518",
"k@	c #4A1517",
"l@	c #411818",
"m@	c #4C1917",
"n@	c #C9635D",
"o@	c #FC5C5C",
"p@	c #FF5A56",
"q@	c #FB5E5A",
"r@	c #EC616A",
"s@	c #7B333D",
"t@	c #080204",
"u@	c #242424",
"v@	c #332F2E",
"w@	c #342E2F",
"x@	c #262E2C",
"y@	c #030002",
"z@	c #040103",
"A@	c #00110A",
"B@	c #47181B",
"C@	c #EA6068",
"D@	c #FB5F59",
"E@	c #FF5955",
"F@	c #F55C60",
"G@	c #9E444C",
"H@	c #222222",
"I@	c #362E2E",
"J@	c #2B322D",
"K@	c #212F2A",
"L@	c #020001",
"M@	c #4A181E",
"N@	c #F25D6B",
"O@	c #FE5B5F",
"P@	c #FC5E5C",
"Q@	c #FF5956",
"R@	c #F85D5E",
"S@	c #8F4945",
"T@	c #090302",
"U@	c #401919",
"V@	c #F65966",
"W@	c #FE5E59",
"X@	c #FC5C59",
"Y@	c #FB5E5B",
"Z@	c #944544",
"`@	c #FC5C5A",
" #	c #2E3131",
".#	c #332F2D",
"+#	c #2D312C",
"@#	c #252C2A",
"##	c #0E0206",
"$#	c #010202",
"%#	c #401B1C",
"&#	c #F45868",
"*#	c #FD5D5A",
"=#	c #FE5C5C",
"-#	c #FC5D5F",
";#	c #FF595A",
">#	c #F76059",
",#	c #904843",
"'#	c #140509",
")#	c #2C322F",
"!#	c #3A2B30",
"~#	c #25302E",
"{#	c #010101",
"]#	c #010100",
"^#	c #000101",
"/#	c #4A1619",
"(#	c #EF5F65",
"_#	c #FE5D53",
":#	c #FF5D58",
"<#	c #FE5D5F",
"[#	c #FC5D59",
"}#	c #F85E59",
"|#	c #9D4547",
"1#	c #0C0508",
"2#	c #191919",
"3#	c #2F312D",
"4#	c #31302D",
"5#	c #342D36",
"6#	c #322F37",
"7#	c #2D2727",
"8#	c #2F110C",
"9#	c #2F120F",
"0#	c #2E120F",
"a#	c #311110",
"b#	c #3A1012",
"c#	c #350F0F",
"d#	c #421C14",
"e#	c #D2645A",
"f#	c #FC5956",
"g#	c #FF5A54",
"h#	c #F96058",
"i#	c #FB5F5A",
"j#	c #F26163",
"k#	c #823B3D",
"l#	c #252525",
"m#	c #35302E",
"n#	c #30322C",
"o#	c #243734",
"p#	c #2B2E2F",
"q#	c #6E3031",
"r#	c #D46261",
"s#	c #DE5F5F",
"t#	c #DE5F60",
"u#	c #DF5F5E",
"v#	c #D6635E",
"w#	c #E25C62",
"x#	c #C55B5D",
"y#	c #733A30",
"z#	c #E45C65",
"A#	c #FD5A5B",
"B#	c #FE5A59",
"C#	c #F85C61",
"D#	c #A04547",
"E#	c #0D0101",
"F#	c #292525",
"G#	c #30322E",
"H#	c #2C3027",
"I#	c #6A332F",
"J#	c #DD6264",
"K#	c #FD5B5C",
"L#	c #FF5A5A",
"M#	c #FF5C57",
"N#	c #FB6056",
"O#	c #FF575A",
"P#	c #FD5564",
"Q#	c #D0595E",
"R#	c #783837",
"S#	c #D86364",
"T#	c #F35D64",
"U#	c #A64446",
"V#	c #180302",
"W#	c #242322",
"X#	c #6F3635",
"Y#	c #DE6462",
"Z#	c #FC5D5B",
"`#	c #FD5F56",
" $	c #FA6059",
".$	c #F5605E",
"+$	c #D85959",
"@$	c #783436",
"#$	c #884D47",
"$$	c #25110A",
"%$	c #01080B",
"&$	c #02070B",
"*$	c #0E0506",
"=$	c #23060B",
"-$	c #B45156",
";$	c #ED635E",
">$	c #F86157",
",$	c #FE5B5C",
"'$	c #FF585F",
")$	c #FF5A61",
"!$	c #FE5C5F",
"~$	c #FB5E61",
"{$	c #FC5F5E",
"]$	c #F65E5C",
"^$	c #7D4950",
"/$	c #030101",
"($	c #2A100C",
"_$	c #BD5354",
":$	c #FC5962",
"<$	c #FC5959",
"[$	c #FD5F59",
"}$	c #FD5F58",
"|$	c #FC5F58",
"1$	c #F4635A",
"2$	c #FA5F5A",
"3$	c #FF585E",
"4$	c #EE6366",
"5$	c #994B44",
"6$	c #150304",
"7$	c #050909",
"8$	c #030201",
"9$	c #391216",
"0$	c #B65557",
"a$	c #F06262",
"b$	c #FE5B5E",
"c$	c #FF5A5E",
"d$	c #FF5663",
"e$	c #FE5961",
"f$	c #F26263",
"g$	c #9D4546",
"h$	c #070101",
"i$	c #28110D",
"j$	c #954746",
"k$	c #AC474E",
"l$	c #AD4850",
"m$	c #AC4850",
"n$	c #AD484C",
"o$	c #A54D47",
"p$	c #7A4137",
"q$	c #190402",
"r$	c #120806",
"s$	c #160511",
"t$	c #060104",
"                                                                                                    ",
"                  . + @ # @ # @ @ # @ # @ # # @ # @ # @ @ # @ # @ # # @ # @ $ % & * =               ",
"              - ; > , ' ' ' ' ' ' ' ' ' ' ' ' ' ' ' ' ' ' ' ' ' ' ' ' ' ' ' ) ! ~ { ]               ",
"        ^ /   ( _ : < [ [ [ [ [ [ [ [ [ [ [ [ [ [ [ [ [ [ [ [ [ [ [ [ [ [ [ } | 1 2 3 4             ",
"          5 6 7 8 | 9 9 9 9 9 9 9 9 9 9 9 9 9 9 9 9 9 9 9 9 9 9 9 9 9 9 9 9 0 a } b c d e           ",
"    f     g h i j k l m m m m m m m m m m m m m m m m m m m m m m m m m m m n o p q r s t -         ",
"  u v w x y z A B C D E E E E E E E E E E E E E E E E E E E E E E E E E E E 8 F G H I J K L M       ",
"      N O P Q R S T U V V V V V V V V V V V V V V V V V V V V V V V V V V V W X Y Z `  ...+.@.M     ",
"    #.$.%.Y &.*.=.-.;.>.>.>.>.>.>.>.>.>.>.>.>.>.>.>.>.>.>.>.>.>.>.>.>.>.>.>.,.'.).!.~.{.].^./.(._.  ",
"    :.<.[.}.|.1.2.3.4.5.5.5.5.5.5.5.5.5.5.5.5.5.5.5.5.5.5.5.5.5.5.5.5.5.5.5.5.5.6.7.8.9.0././.a.b.  ",
"  c.d.e.q f.g.h.i.j.                                                              k.l.m././././.n.  ",
"    o.p.q.r.s.t.u.v.                                                              w./.x././././.y.  ",
"    z.A.B.C.D.E.F.G.                                                              k./.a././././.H.  ",
"    z.A.B.C.D.E.F.G.                                                              k./.a././././.H.  ",
"    z.A.B.C.D.E.F.G.                                                              k./.a././././.H.  ",
"    z.A.B.C.D.E.F.G.                                                              k./.a././././.H.  ",
"    z.A.B.C.D.E.F.G.                                                              k./.a././././.H.  ",
"    z.A.B.C.D.E.F.G.                                                              k./.a././././.H.  ",
"    z.A.B.C.D.E.F.G.                                                              k./.a././././.H.  ",
"    z.A.B.C.D.E.F.G.                                                              k./.a././././.H.  ",
"    z.A.B.C.D.E.F.G.                                                              k./.a././././.H.  ",
"    z.A.B.C.D.E.F.G.                                                              k./.a././././.H.  ",
"    z.A.B.C.D.E.F.G.                                                              k./.a././././.H.  ",
"    z.A.B.C.D.E.F.G.                                                              k./.a././././.H.  ",
"    z.A.B.C.D.E.F.G.                                                              k./.a././././.H.  ",
"    z.A.B.C.D.E.F.G.                                                              k./.a././././.H.  ",
"    z.A.B.C.D.E.F.G.                                                              k./.a././././.H.  ",
"    z.A.B.C.D.E.F.G.                                                              k./.a././././.H.  ",
"    z.A.B.C.D.E.F.G.                                                              k./.a././././.H.  ",
"    z.A.B.C.D.E.F.G.                                                              k./.a././././.H.  ",
"    z.A.B.C.D.E.F.G.                                                              k./.a././././.H.  ",
"    z.A.B.C.D.E.F.G.                                                              k./.a././././.H.  ",
"    z.A.B.C.D.E.F.G.                                                              k./.a././././.H.  ",
"    z.A.B.C.D.E.F.G.                                                              k./.a././././.H.  ",
"    z.A.B.C.D.E.F.G.                                                              k./.a././././.H.  ",
"    z.A.B.C.D.E.F.G.                                                              k./.a././././.H.  ",
"    z.A.B.C.D.E.F.G.                                                              k./.a././././.H.  ",
"    z.A.B.C.D.E.F.G.                                                              k./.a././././.H.  ",
"    z.A.B.C.D.E.I.G.                                                              k./.a././././.H.  ",
"    J.K.L.M.N.}.O.P.                                                              Q.R.S.T./.U./.V.  ",
"  @ W.X.Y.Z.`. +.+++@+                                                      #+#+  $+%+&+*+=+-+a.;+  ",
"    >+,+'+)+!+~+{+]+^+/+/+/+/+/+/+/+/+/+/+/+/+/+/+/+/+/+/+/+/+/+/+/+/+/+/+/+(+_+:+<+[+}+|+l./.1+k.  ",
"    5.2+3+4+5+6+7+8+9+0+0+0+0+0+0+0+0+0+0+0+0+0+0+0+0+0+0+0+0+0+0+0+0+0+0+0+a+b+c+d+e+f+g+h+i+k.    ",
"      j+k+l+m+n+o+r 9 p+p+p+p+p+p+p+p+p+p+p+p+p+p+p+p+p+p+p+p+p+p+p+p+p+p+p+q+r+s+t+u+v+w+x+y+      ",
"        z+A+B+C+D+E+F+G+H+G+H+H+G+H+G+H+G+H+H+G+H+G+H+G+H+H+G+H+G+H+H+G+H+G+I+J+K+L+M+N+O+P+        ",
"        Q+R+S+T+U+V+W+b b b b b b b b b b b b b b b b b b b b b b b b b b b X+Y+Z+`+ @.@+@@@#@      ",
"        $@%@&@*@=@-@;@< < < < < < < < < < < < < < < < < < < < < < < < < < < >@,@'@)@!@~@{@]@^@/@    ",
"      y.(@_@:@<@[@}@|@1@2@1@1@1@1@2@1@2@1@1@1@1@2@1@1@1@1@1@1@2@1@1@1@1@2@1@3@4@5@6@7@8@9@!+0@a@b@c@",
"    n.a.d@g+e@f@g@h@i@j@j@j@j@j@j@j@j@j@j@j@j@j@j@j@j@j@j@j@j@j@j@j@j@j@j@j@k@l@j@m@n@o@B.p@q@r@s@t@",
"    u@/.h+v@w@l.x@y@z@                                                          A@B@C@D@X+t.E@F@G@  ",
"    H@/.l.0.I@J@K@y@#+                                                          L@M@N@E.O@P@Q@R@S@T@",
"    @.^./././.^.i+                                                                U@V@W@X@Y@q+p.Z@  ",
"    @.^./././.^.i+                                                                U@V@W@`@Y@q+p.Z@  ",
"    @.^./././.^.i+                                                                U@V@W@`@Y@q+p.Z@  ",
"    @.^./././.^.i+                                                                U@V@W@`@Y@q+p.Z@  ",
"    @.^./././.^.i+                                                                U@V@W@`@Y@q+p.Z@  ",
"    @.^./././.^.i+                                                                U@V@W@`@Y@q+p.Z@  ",
"    @.^./././.^.i+                                                                U@V@W@`@Y@q+p.Z@  ",
"    @.^./././.^.i+                                                                U@V@W@`@Y@q+p.Z@  ",
"    @.^./././.^.i+                                                                U@V@W@`@Y@q+p.Z@  ",
"    @.^./././.^.i+                                                                U@V@W@`@Y@q+p.Z@  ",
"    @.^./././.^.i+                                                                U@V@W@`@Y@q+p.Z@  ",
"    @.^./././.^.i+                                                                U@V@W@`@Y@q+p.Z@  ",
"    @.^./././.^.i+                                                                U@V@W@`@Y@q+p.Z@  ",
"    @.^./././.^.i+                                                                U@V@W@`@Y@q+p.Z@  ",
"    @.^./././.^.i+                                                                U@V@W@`@Y@q+p.Z@  ",
"    @.^./././.^.i+                                                                U@V@W@`@Y@q+p.Z@  ",
"    @.^./././.^.i+                                                                U@V@W@`@Y@q+p.Z@  ",
"    @.^./././.^.i+                                                                U@V@W@`@Y@q+p.Z@  ",
"    @.^./././.^.i+                                                                U@V@W@`@Y@q+p.Z@  ",
"    @.^./././.^.i+                                                                U@V@W@`@Y@q+p.Z@  ",
"    @.^./././.^.i+                                                                U@V@W@`@Y@q+p.Z@  ",
"    @.^./././.^.i+                                                                U@V@W@`@Y@q+p.Z@  ",
"    @.^./././.^.i+                                                                U@V@W@`@Y@q+p.Z@  ",
"    @.^./././.^.i+                                                                U@V@W@`@Y@q+p.Z@  ",
"    @.^./././.^.i+                                                                U@V@W@`@Y@q+p.Z@  ",
"    @.^./././.^.i+                                                                U@V@W@`@Y@q+p.Z@  ",
"    @.^./././.^.i+                                                                U@V@W@X@Y@q+p.Z@  ",
"    H@a. #=+.#+#@#                                                            ##$#%#&#*#=#-#;#>#,#'#",
"    @.^.)#/.!#-+~#{#]#                                                        L@^#/#(#_#:#<#[#}#|#1#",
"    2#a.3#4#5#6#7#8#9#0#0#0#0#0#0#0#0#0#0#0#0#0#0#0#0#0#0#0#0#0#0#0#0#0#0#0#a#b#c#d#e#f#g#h#i#j#k#  ",
"    _.l#m#n#o#p#q#r#s#t#t#t#t#t#t#t#t#t#t#t#t#t#t#t#t#t#t#t#t#t#t#t#t#t#t#t#u#v#w#x#y#z#A#B#C#D#E#  ",
"      {#F#G#H#I#J#K#L#r.r.r.r.r.r.r.r.r.r.r.r.r.r.r.r.r.r.r.r.r.r.r.r.r.r.r.M#N#O#P#Q#R#S#T#U#V#    ",
"        $#W#X#Y#Z#`#V !+!+!+!+!+!+!+!+!+!+!+!+!+!+!+!+!+!+!+!+!+!+!+!+!+!+!+l P@ $[#.$+$@$#$$$%$&$*$",
"          =$-$;$>$,$'$)$)$)$)$)$)$)$)$)$)$)$)$)$)$)$)$)$)$)$)$)$)$)$)$)$)$)$W+Z#!$~${$]$^$/$]#b@  #+",
"          - ($_$:$<$[$}$|$}$|$|$|$|$}$|$}$|$|$}$|$}$|$|$|$|$}$|$}$|$|$}$|$}$L.1$2$3$4$5$6$          ",
"          7$8$9$0$a$b$c$c$c$c$c$c$c$c$c$c$c$c$c$c$c$c$c$c$c$c$c$c$c$c$c$c$c$d$e$Z#f$g$h$            ",
"                i$j$k$l$l$l$l$l$l$l$l$l$l$l$l$l$l$l$l$l$l$l$l$l$l$l$l$l$l$l$m$n$o$p$q$              ",
"                  r$                                                                                ",
"                                                                                  s$t$              "};
