/* XPM */
static char * 6_xpm[] = {
"50 90 544 2",
"  	c #000000",
". 	c #060404",
"+ 	c #0F0606",
"@ 	c #170303",
"# 	c #150000",
"$ 	c #1A0003",
"% 	c #1B0002",
"& 	c #180000",
"* 	c #1B0000",
"= 	c #130806",
"- 	c #050303",
"; 	c #5D272C",
"> 	c #C95B66",
", 	c #DB5A61",
"' 	c #CD625D",
") 	c #D1605F",
"! 	c #D65C60",
"~ 	c #D75C60",
"{ 	c #DB585F",
"] 	c #B55256",
"^ 	c #2C0D0A",
"/ 	c #060101",
"( 	c #5B2624",
"_ 	c #E05F69",
": 	c #FC5962",
"< 	c #FF5B5B",
"[ 	c #FE5956",
"} 	c #FD5C57",
"| 	c #FE5D59",
"1 	c #FD5E59",
"2 	c #FE5E59",
"3 	c #FE5B59",
"4 	c #FA5D5F",
"5 	c #C35254",
"6 	c #3A1210",
"7 	c #020102",
"8 	c #010001",
"9 	c #030201",
"0 	c #0C0605",
"a 	c #672725",
"b 	c #E25F58",
"c 	c #F9605C",
"d 	c #FE5F5A",
"e 	c #FD5E5A",
"f 	c #FF595D",
"g 	c #FE5C5A",
"h 	c #FE5D5A",
"i 	c #FC5E57",
"j 	c #FE5D58",
"k 	c #F85B5E",
"l 	c #BD5659",
"m 	c #301010",
"n 	c #030103",
"o 	c #010101",
"p 	c #080504",
"q 	c #2E0F10",
"r 	c #B25A5C",
"s 	c #F95F5E",
"t 	c #FA615C",
"u 	c #FF5C5B",
"v 	c #FD5D5F",
"w 	c #FE5B5D",
"x 	c #FF5A5B",
"y 	c #FD5D5B",
"z 	c #FE5D5B",
"A 	c #FF5C5E",
"B 	c #E66B6A",
"C 	c #7B4543",
"D 	c #030101",
"E 	c #130503",
"F 	c #692724",
"G 	c #BB6264",
"H 	c #823436",
"I 	c #CC5B5F",
"J 	c #FA5A62",
"K 	c #FC5D57",
"L 	c #FD5E55",
"M 	c #FF5B57",
"N 	c #FE5C58",
"O 	c #FF585D",
"P 	c #F65A61",
"Q 	c #AB4F4B",
"R 	c #302219",
"S 	c #272823",
"T 	c #030403",
"U 	c #080707",
"V 	c #602A29",
"W 	c #E55F59",
"X 	c #FA605F",
"Y 	c #DC5E66",
"Z 	c #843438",
"` 	c #C8615A",
" .	c #FF5659",
"..	c #FD5B5D",
"+.	c #FB5D5D",
"@.	c #FB5D5C",
"#.	c #FD595A",
"$.	c #F05F60",
"%.	c #A24E4E",
"&.	c #33211D",
"*.	c #31322E",
"=.	c #312F2C",
"-.	c #242322",
";.	c #160A09",
">.	c #68262F",
",.	c #DA6067",
"'.	c #F95F5C",
").	c #FF5862",
"!.	c #E16160",
"~.	c #74342E",
"{.	c #BD4D57",
"].	c #C64C59",
"^.	c #B95456",
"/.	c #C05055",
"(.	c #C34E56",
"_.	c #BE5257",
":.	c #974B4A",
"<.	c #34201D",
"[.	c #283430",
"}.	c #273531",
"|.	c #30302F",
"1.	c #323031",
"2.	c #232323",
"3.	c #040404",
"4.	c #0E0000",
"5.	c #C15660",
"6.	c #FD5962",
"7.	c #FD5D59",
"8.	c #FE5C59",
"9.	c #FB5957",
"0.	c #D25764",
"a.	c #0B0F09",
"b.	c #050F0B",
"c.	c #050000",
"d.	c #020000",
"e.	c #010000",
"f.	c #040000",
"g.	c #0D0707",
"h.	c #332D31",
"i.	c #322E35",
"j.	c #2E3134",
"k.	c #2B3231",
"l.	c #2F3030",
"m.	c #313131",
"n.	c #151515",
"o.	c #080000",
"p.	c #C65758",
"q.	c #FE585A",
"r.	c #FA5F5C",
"s.	c #FF5E56",
"t.	c #FF5957",
"u.	c #D75563",
"v.	c #0B0B08",
"w.	c #040808",
"x.	c #140309",
"y.	c #050506",
"z.	c #2B3234",
"A.	c #2A3334",
"B.	c #312F32",
"C.	c #3A2B31",
"D.	c #322F30",
"E.	c #303030",
"F.	c #0C0000",
"G.	c #C25A54",
"H.	c #FD5B56",
"I.	c #FF5A5D",
"J.	c #FE5C60",
"K.	c #FD5A5B",
"L.	c #D25860",
"M.	c #080104",
"N.	c #0C0205",
"O.	c #060505",
"P.	c #342E30",
"Q.	c #342F2E",
"R.	c #2F3130",
"S.	c #060000",
"T.	c #C35956",
"U.	c #FC5D5D",
"V.	c #FD5B5B",
"W.	c #DA5656",
"X.	c #050100",
"Y.	c #000201",
"Z.	c #050505",
"`.	c #332E2F",
" +	c #352E2F",
".+	c #2C3230",
"++	c #C45957",
"@+	c #FF5B59",
"#+	c #FA5F5B",
"$+	c #FF5A5E",
"%+	c #FE5B5A",
"&+	c #DB5653",
"*+	c #020100",
"=+	c #2F2F2F",
"-+	c #030100",
";+	c #302F2F",
">+	c #C4595F",
",+	c #FC5C5E",
"'+	c #FF5A55",
")+	c #F86258",
"!+	c #FB6059",
"~+	c #FE5C55",
"{+	c #DA575B",
"]+	c #140201",
"^+	c #010403",
"/+	c #372E30",
"(+	c #333031",
"_+	c #2A3230",
":+	c #2E3231",
"<+	c #323232",
"[+	c #141414",
"}+	c #080808",
"|+	c #823B3F",
"1+	c #EE6063",
"2+	c #FD5C5A",
"3+	c #FE5859",
"4+	c #FE5A61",
"5+	c #EB6169",
"6+	c #81453D",
"7+	c #844341",
"8+	c #974243",
"9+	c #9B4140",
"0+	c #994142",
"a+	c #964244",
"b+	c #954244",
"c+	c #984043",
"d+	c #703030",
"e+	c #2B2C25",
"f+	c #293431",
"g+	c #322F32",
"h+	c #323230",
"i+	c #2A2A2A",
"j+	c #070707",
"k+	c #8C3D3B",
"l+	c #F15F63",
"m+	c #F95D60",
"n+	c #F15F6B",
"o+	c #923949",
"p+	c #B24F50",
"q+	c #F66164",
"r+	c #FD5E5D",
"s+	c #FB5F5C",
"t+	c #FF5C5F",
"u+	c #FD5D5D",
"v+	c #EB6563",
"w+	c #853B3C",
"x+	c #272A25",
"y+	c #2B3432",
"z+	c #382C2C",
"A+	c #2C2928",
"B+	c #060606",
"C+	c #893D3E",
"D+	c #DD6569",
"E+	c #90453E",
"F+	c #B74E4F",
"G+	c #F95A60",
"H+	c #FE5C56",
"I+	c #FD5E58",
"J+	c #FB5D5F",
"K+	c #FF5B53",
"L+	c #FD5C56",
"M+	c #E96266",
"N+	c #8A3B40",
"O+	c #322723",
"P+	c #2E302B",
"Q+	c #0A0707",
"R+	c #170807",
"S+	c #43211D",
"T+	c #B54F51",
"U+	c #F75E5D",
"V+	c #F7615D",
"W+	c #F3635B",
"X+	c #FD5C5C",
"Y+	c #FD5B61",
"Z+	c #FC5E5D",
"`+	c #FF5A5A",
" @	c #FD5D5C",
".@	c #F7605E",
"+@	c #E76367",
"@@	c #83383D",
"#@	c #070605",
"$@	c #090205",
"%@	c #1F110F",
"&@	c #814248",
"*@	c #933A3C",
"=@	c #EC615F",
"-@	c #FA6063",
";@	c #FD575E",
">@	c #FF5C58",
",@	c #FF5D59",
"'@	c #FA5E60",
")@	c #FC5C63",
"!@	c #DD5E58",
"~@	c #793030",
"{@	c #753D41",
"]@	c #080201",
"^@	c #040508",
"/@	c #2A0B09",
"(@	c #B4544D",
"_@	c #ED6565",
":@	c #BB5054",
"<@	c #8E3D3E",
"[@	c #F15B5D",
"}@	c #FE5B52",
"|@	c #FB6052",
"1@	c #FC5D5A",
"2@	c #FC5C5B",
"3@	c #FB5D5A",
"4@	c #F7625F",
"5@	c #DA5864",
"6@	c #7D2F35",
"7@	c #D95B62",
"8@	c #F15F5E",
"9@	c #7D3D3A",
"0@	c #090000",
"a@	c #030807",
"b@	c #080505",
"c@	c #230C0E",
"d@	c #B35059",
"e@	c #F56263",
"f@	c #FC5D5E",
"g@	c #FB5B69",
"h@	c #BD5456",
"i@	c #903C37",
"j@	c #EE5C68",
"k@	c #F45F69",
"l@	c #F16169",
"m@	c #F46066",
"n@	c #F36165",
"o@	c #F35F67",
"p@	c #D55E60",
"q@	c #76382F",
"r@	c #D86061",
"s@	c #F95D64",
"t@	c #F85E5F",
"u@	c #E7636B",
"v@	c #8A3A3E",
"w@	c #170806",
"x@	c #0F0504",
"y@	c #9D5255",
"z@	c #F16369",
"A@	c #FF595B",
"B@	c #FF5A5C",
"C@	c #FF595E",
"D@	c #F75D63",
"E@	c #A85255",
"F@	c #401919",
"G@	c #53141C",
"H@	c #481C16",
"I@	c #3F2015",
"J@	c #421C15",
"K@	c #421D15",
"L@	c #471B1B",
"M@	c #441F1A",
"N@	c #E2595E",
"O@	c #F75C58",
"P@	c #F9615A",
"Q@	c #FE5B60",
"R@	c #FE575E",
"S@	c #EB6369",
"T@	c #6A3937",
"U@	c #100000",
"V@	c #CD555C",
"W@	c #FC5E5A",
"X@	c #F6625A",
"Y@	c #FF565C",
"Z@	c #061007",
"`@	c #000603",
" #	c #000601",
".#	c #000702",
"+#	c #3F1F1C",
"@#	c #F45D66",
"##	c #F76054",
"$#	c #FC5E55",
"%#	c #F85C62",
"&#	c #894545",
"*#	c #CC5855",
"=#	c #FF5A52",
"-#	c #FC5E59",
";#	c #FE5C5B",
">#	c #D4575E",
",#	c #130100",
"'#	c #050102",
")#	c #4A1A1C",
"!#	c #F35E69",
"~#	c #F95F59",
"{#	c #FF5556",
"]#	c #F95F5A",
"^#	c #F96056",
"/#	c #8F4244",
"(#	c #C35B55",
"_#	c #FE5A54",
":#	c #FA5E5E",
"<#	c #FE5A5A",
"[#	c #D75757",
"}#	c #0A0200",
"|#	c #4C191B",
"1#	c #FA5967",
"2#	c #FF5859",
"3#	c #F76159",
"4#	c #FA5F58",
"5#	c #FC5B61",
"6#	c #914143",
"7#	c #491B1A",
"8#	c #F85E62",
"9#	c #FF5C5A",
"0#	c #FF5B5A",
"a#	c #F95F5F",
"b#	c #914240",
"c#	c #C75558",
"d#	c #FF5A57",
"e#	c #FD5D5A",
"f#	c #FC5E5C",
"g#	c #FE5A58",
"h#	c #D6585A",
"i#	c #090101",
"j#	c #000101",
"k#	c #4C1A1E",
"l#	c #F25E66",
"m#	c #FD5D58",
"n#	c #FE5C53",
"o#	c #FA5D5E",
"p#	c #8F4242",
"q#	c #AE585A",
"r#	c #F45D5F",
"s#	c #FF5956",
"t#	c #FB5C59",
"u#	c #F95F60",
"v#	c #C2585B",
"w#	c #2D130D",
"x#	c #291310",
"y#	c #320E0F",
"z#	c #340E0E",
"A#	c #320F0D",
"B#	c #340F10",
"C#	c #461A1B",
"D#	c #E95E6A",
"E#	c #FE575D",
"F#	c #F6635A",
"G#	c #FC5E58",
"H#	c #FE5B56",
"I#	c #EA6163",
"J#	c #7A3D3F",
"K#	c #110A0F",
"L#	c #2B110F",
"M#	c #C25757",
"N#	c #FA5E5F",
"O#	c #FE5E5A",
"P#	c #C9535B",
"Q#	c #823731",
"R#	c #E5555F",
"S#	c #E25A60",
"T#	c #DF5C65",
"U#	c #E7595F",
"V#	c #E55A5C",
"W#	c #E35A61",
"X#	c #CD575D",
"Y#	c #76362F",
"Z#	c #E7585F",
"`#	c #FC595F",
" $	c #FB615B",
".$	c #F06067",
"+$	c #944747",
"@$	c #240C0E",
"#$	c #050306",
"$$	c #3B1210",
"%$	c #C55759",
"&$	c #F26466",
"*$	c #CA5C58",
"=$	c #7B3736",
"-$	c #E56160",
";$	c #FD5A59",
">$	c #FC5C56",
",$	c #FF5B5C",
"'$	c #FD5C5B",
")$	c #FB5F5A",
"!$	c #FA5F5A",
"~$	c #FB5A5F",
"{$	c #CC5A59",
"]$	c #72372E",
"^$	c #ED5963",
"/$	c #F35E64",
"($	c #9A434A",
"_$	c #0A0101",
":$	c #3E1011",
"<$	c #A04D4F",
"[$	c #8E2F31",
"}$	c #EE5A64",
"|$	c #FD595E",
"1$	c #F76258",
"2$	c #F66255",
"3$	c #FD5E57",
"4$	c #FB5D63",
"5$	c #CE595B",
"6$	c #883339",
"7$	c #913F45",
"8$	c #0B0A07",
"9$	c #B25856",
"0$	c #F85B57",
"a$	c #FD5A5C",
"b$	c #FF575C",
"c$	c #FF5D5D",
"d$	c #814344",
"e$	c #020101",
"f$	c #19060D",
"g$	c #050203",
"h$	c #35110B",
"i$	c #C05953",
"j$	c #F95C60",
"k$	c #FB5E58",
"l$	c #F6605C",
"m$	c #FD6053",
"n$	c #FE5B54",
"o$	c #F55B65",
"p$	c #99454B",
"q$	c #0B0A06",
"r$	c #020001",
"s$	c #2B0F0E",
"t$	c #BE585D",
"u$	c #F16266",
"v$	c #FA605E",
"w$	c #FE5A5C",
"x$	c #FD5A5D",
"y$	c #FD5B5E",
"z$	c #FC5E5E",
"A$	c #EB6363",
"B$	c #9B4547",
"C$	c #180604",
"D$	c #421218",
"E$	c #974B4E",
"F$	c #A04E4B",
"G$	c #A74B49",
"H$	c #A54B4A",
"I$	c #A34C4B",
"J$	c #A24C4B",
"K$	c #A24D4B",
"L$	c #A8484D",
"M$	c #843C41",
"N$	c #0C0B07",
"O$	c #110304",
"P$	c #130303",
"Q$	c #070202",
"R$	c #190407",
"S$	c #0F0204",
"                                                                                                    ",
"              . + @ # $ % & & & & & & & & & & & & & & & & & & & & & & & & & & & * =                 ",
"              - ; > , ' ) ! ! ! ! ! ~ ! ! ! ! ! ! ~ ! ! ! ! ~ ! ! ! ! ! ! ~ ! ! { ] ^               ",
"            / ( _ : < [ } | 1 2 2 1 | 1 2 2 2 2 1 | 1 2 2 1 | 1 2 1 2 2 1 | 1 2 3 4 5 6   7 8       ",
"        9 0 a b c d e f < g | h h | g | g h | g | g | h h | g | g | h g | g | g i j k l m n o       ",
"        p q r s t e u v w x x x x x x x x x x x x x x x x x x x x x x x x x x x y z A B C D         ",
"      E F G H I J K L M N j j j j j j j j j j j j j j j j j j j j j j j j j j j e O P Q R S T       ",
"    U V W X Y Z ` c  ...+.@.@.@.@.@.@.@.@.@.@.@.@.@.@.@.@.@.@.@.@.@.@.@.@.@.@.@.#.$.%.&.*.=.-.      ",
"  ;.>.,.'.< ).!.~.{.].^./.(.(.(.(.(.(.(.(.(.(.(.(.(.(.(.(.(.(.(.(.(.(.(.(.(.(.(._.:.<.[.}.|.1.2.3.  ",
"  4.5.6.7.e 8.9.0.a.b.c.d.e.e.e.e.e.e.e.e.e.e.e.e.e.e.e.e.e.e.d.e.e.e.e.e.e.e.e.f.g.h.i.j.k.l.m.n.  ",
"  o.p.q.y r.s.t.u.v.w.x.                                                          y.z.A.B.C.D.E.n.  ",
"  F.G.H.I.J.j K.L.4.M.N.                                                          O.P.Q.|.R.l.E.n.  ",
"  S.T.} x U.w V.W.X.  Y.                                                          Z.`. +|..+l.E.n.  ",
"    ++N @+#+$+%+&+*+                                                              Z.=+E.E.E.E.E.n.  ",
"    ++N @+#+$+%+&+*+                                                              Z.=+E.E.E.E.E.n.  ",
"    ++N @+#+$+%+&+*+                                                              Z.=+E.E.E.E.E.n.  ",
"    ++N @+#+$+%+&+*+                                                              Z.=+E.E.E.E.E.n.  ",
"    ++N @+#+$+%+&+*+                                                              Z.=+E.E.E.E.E.n.  ",
"    ++N @+#+$+%+&+*+                                                              Z.=+E.E.E.E.E.n.  ",
"    ++N @+#+$+%+&+*+                                                              Z.=+E.E.E.E.E.n.  ",
"    ++N @+#+$+%+&+*+                                                              Z.=+E.E.E.E.E.n.  ",
"    ++N @+#+$+%+&+*+                                                              Z.=+E.E.E.E.E.n.  ",
"    ++N @+#+$+%+&+*+                                                              Z.=+E.E.E.E.E.n.  ",
"    ++N @+#+$+%+&+*+                                                              Z.=+E.E.E.E.E.n.  ",
"    ++N @+#+$+%+&+*+                                                              Z.=+E.E.E.E.E.n.  ",
"    ++N @+#+$+%+&+*+                                                              Z.=+E.E.E.E.E.n.  ",
"    ++N @+#+$+%+&+*+                                                              Z.=+E.E.E.E.E.n.  ",
"    ++N @+#+$+%+&+*+                                                              Z.=+E.E.E.E.E.n.  ",
"    ++N @+#+$+%+&+*+                                                              Z.=+E.E.E.E.E.n.  ",
"    ++N @+#+$+%+&+*+                                                              Z.=+E.E.E.E.E.n.  ",
"    ++N @+#+$+%+&+*+                                                              Z.=+E.E.E.E.E.n.  ",
"    ++N @+#+$+%+&+*+                                                              Z.=+E.E.E.E.E.n.  ",
"    ++N @+#+$+%+&+*+                                                              Z.=+E.E.E.E.E.n.  ",
"    ++N @+#+$+%+&+*+                                                              Z.=+E.E.E.E.E.n.  ",
"    ++N @+#+$+%+&+*+                                                              Z.=+E.E.E.E.E.n.  ",
"    ++N @+#+$+%+&+*+                                                              Z.=+E.E.E.E.E.n.  ",
"    ++N @+#+$+%+&+*+                                                              Z.=+E.E.E.E.E.n.  ",
"    ++N @+#+$+%+&+*+                                                              Z.=+E.E.E.E.E.n.  ",
"    ++N @+#+$+%+&+*+                                                              Z.=+E.E.E.E.E.n.  ",
"    ++N @+#+$+%+&+-+                                                              Z.;+E.E.E.E.E.n.  ",
"  4.>+,+'+)+!+~+{+]+^+e.                                                          O./+(+_+:+l.<+[+  ",
"  }+|+1+2+3+4+5+6+7+8+9+0+a+a+a+a+b+a+b+a+a+a+a+b+a+b+a+a+a+a+b+a+a+a+a+b+a+b+a+c+d+e+f+g+h+m.i+j+  ",
"    X.k+l+m+n+o+p+q+r+s+A t+t+t+t+t+t+t+t+t+t+t+t+t+t+t+t+t+t+t+t+t+t+t+t+t+t+t+u+v+w+x+y+z+A+B+    ",
"      / C+D+E+F+G+H+I+J+u+g g g g g g g g g g g g g g g g g g g g g g g g g g g K+L+M+N+O+P+Q+      ",
"      D R+S+T+U+V+W+X+Y+Z+z z z z z z z z z z z z z z z z z z z z z z z z z z z `+ @.@+@@@#@        ",
"    $@  %@&@*@=@-@;@%+N >@,@,@,@,@,@,@,@,@,@,@,@,@,@,@,@,@,@,@,@,@,@,@,@,@,@,@,@'@)@$+!@~@{@]@      ",
"    ^@/@(@_@:@<@[@}@|@1@2@3@3@3@3@3@3@3@3@3@3@3@3@3@3@3@3@3@3@3@3@3@3@3@3@3@3@3@| 4@5@6@7@8@9@0@a@  ",
"  b@c@d@e@f@g@h@i@j@k@l@m@n@n@n@n@n@n@n@n@n@n@n@n@n@n@n@n@n@n@n@n@n@n@n@n@n@n@n@o@p@q@r@s@t@u@v@w@  ",
"  x@y@z@A@B@C@D@E@F@G@H@I@J@K@J@J@K@J@K@J@K@K@J@K@J@K@J@J@K@J@K@J@K@J@J@K@J@K@J@L@M@N@O@P@Q@R@S@T@  ",
"  U@V@W@7. @X@Y@0.Z@`@ #.#                                                        +#@###$#O t.%#&#  ",
"  F.*#=#-#'@;#A@>#,#  '#                                                          )#!#~#{#]#^#: /#  ",
"    (#_#3 :#O <#[#}#    Y.                                                        |#1#< 2#3#4#5#6#  ",
"    ++N @+#+$+%+&+*+                                                              7#8#9#z 9#0#a#b#  ",
"    ++N @+#+$+%+&+*+                                                              7#8#9#z 9#0#a#b#  ",
"    ++N @+#+$+%+&+*+                                                              7#8#9#z 9#0#a#b#  ",
"    ++N @+#+$+%+&+*+                                                              7#8#9#z 9#0#a#b#  ",
"    ++N @+#+$+%+&+*+                                                              7#8#9#z 9#0#a#b#  ",
"    ++N @+#+$+%+&+*+                                                              7#8#9#z 9#0#a#b#  ",
"    ++N @+#+$+%+&+*+                                                              7#8#9#z 9#0#a#b#  ",
"    ++N @+#+$+%+&+*+                                                              7#8#9#z 9#0#a#b#  ",
"    ++N @+#+$+%+&+*+                                                              7#8#9#z 9#0#a#b#  ",
"    ++N @+#+$+%+&+*+                                                              7#8#9#z 9#0#a#b#  ",
"    ++N @+#+$+%+&+*+                                                              7#8#9#z 9#0#a#b#  ",
"    ++N @+#+$+%+&+*+                                                              7#8#9#z 9#0#a#b#  ",
"    ++N @+#+$+%+&+*+                                                              7#8#9#z 9#0#a#b#  ",
"    ++N @+#+$+%+&+*+                                                              7#8#9#z 9#0#a#b#  ",
"    ++N @+#+$+%+&+*+                                                              7#8#9#z 9#0#a#b#  ",
"    ++N @+#+$+%+&+*+                                                              7#8#9#z 9#0#a#b#  ",
"    ++N @+#+$+%+&+*+                                                              7#8#9#z 9#0#a#b#  ",
"    ++N @+#+$+%+&+*+                                                              7#8#9#z 9#0#a#b#  ",
"    ++N @+#+$+%+&+*+                                                              7#8#9#z 9#0#a#b#  ",
"    ++N @+#+$+%+&+*+                                                              7#8#9#z 9#0#a#b#  ",
"    ++N @+#+$+%+&+*+                                                              7#8#9#z 9#0#a#b#  ",
"    ++N @+#+$+%+&+*+                                                              7#8#9#z 9#0#a#b#  ",
"    ++N @+#+$+%+&+*+                                                              7#8#9#z 9#0#a#b#  ",
"    ++N @+#+$+%+&+*+                                                              7#8#9#z 9#0#a#b#  ",
"    ++N @+#+$+%+&+*+                                                              7#8#9#z 9#0#a#b#  ",
"    ++N @+#+$+%+&+*+                                                              7#8#9#z 9#0#a#b#  ",
"    ++N @+#+$+%+&+*+                                                              7#8#9#z 9#0#a#b#  ",
"  o.c#%+d#e#f#g#h#i#                                                            j#k#l#e m#9#n#o#p#  ",
"    q#r#s#>@t#u#v#w#x#y#z#A#A#A#A#A#A#A#A#A#A#A#A#A#A#A#A#A#A#A#A#A#A#A#A#A#A#A#B#C#D#E#F#G#H#I#J#  ",
"  K#L#M#N#O#6.P#Q#R#S#T#U#V#V#V#V#V#V#V#V#V#V#V#V#V#V#V#V#V#V#V#V#V#V#V#V#V#V#V#W#X#Y#Z#`# $.$+$@$  ",
"  #$  $$%$&$*$=$-$;$>$,$'$)$!$)$)$!$)$!$)$!$!$)$!$)$!$)$)$!$)$!$)$!$)$)$!$)$!$)$X+~${$]$^$/$($_$    ",
"        :$<$[$}$|$1$2$3$< B@B@B@B@B@B@B@B@B@B@B@B@B@B@B@B@B@B@B@B@B@B@B@B@B@B@B@g f#4$5$6$7$_$      ",
"        e.8$9$0$1@a$b$1@)$O#2 2 2 2 O#2 O#2 2 O#2 O#2 2 2 2 O#2 O#2 2 O#2 O#2 O#c$ @,$.$d$e$  f$g$  ",
"            h$i$j$2#k$l$#+2 2 2 2 1 2 1 2 2 2 2 1 2 2 2 2 2 2 1 2 2 2 2 1 2 1 2 m$n$o$p$q$j#  r$8   ",
"              s$t$u$v$w$x$y$y$y$y$y$y$y$y$y$y$y$y$y$y$y$y$y$y$y$y$y$y$y$y$y$y$y$z$A$B$C$            ",
"              g$D$E$F$G$H$I$J$I$I$K$I$K$I$I$J$I$K$I$J$I$I$J$I$K$I$J$I$I$K$I$K$I$L$M$N$              ",
"                O$P$Q$                                                          R$S$                ",
"                                                                                                    "};
