/* XPM */
static char * 7_xpm[] = {
"50 90 345 2",
"  	c #000000",
". 	c #030608",
"+ 	c #020202",
"@ 	c #110000",
"# 	c #150000",
"$ 	c #160000",
"% 	c #240203",
"& 	c #190000",
"* 	c #180000",
"= 	c #170000",
"- 	c #080101",
"; 	c #060100",
"> 	c #6E3531",
", 	c #CD6161",
"' 	c #D95B5B",
") 	c #D25F5D",
"! 	c #CA6361",
"~ 	c #D55D60",
"{ 	c #D65C60",
"] 	c #D75C60",
"^ 	c #D75D60",
"/ 	c #D75D61",
"( 	c #D65D61",
"_ 	c #A5484D",
": 	c #200604",
"< 	c #010201",
"[ 	c #030302",
"} 	c #73332D",
"| 	c #DF6863",
"1 	c #FC5B60",
"2 	c #FF5458",
"3 	c #FE595A",
"4 	c #FB5E5B",
"5 	c #FD5E59",
"6 	c #FE5E59",
"7 	c #FE5D59",
"8 	c #FD5E58",
"9 	c #FD5D58",
"0 	c #F4615F",
"a 	c #AB4A4A",
"b 	c #210305",
"c 	c #040403",
"d 	c #200D0B",
"e 	c #7D363D",
"f 	c #E66168",
"g 	c #FD5B62",
"h 	c #FF5A5E",
"i 	c #FC5D5C",
"j 	c #FC5D5B",
"k 	c #FF5A5B",
"l 	c #FF5C5A",
"m 	c #FE5D5A",
"n 	c #FE5C5A",
"o 	c #FB6158",
"p 	c #F95E65",
"q 	c #A84C55",
"r 	c #120405",
"s 	c #070505",
"t 	c #170E0F",
"u 	c #2A0B0A",
"v 	c #CB5F69",
"w 	c #FC5E67",
"x 	c #FE5B5D",
"y 	c #F8605D",
"z 	c #F9605B",
"A 	c #FF5959",
"B 	c #F3615E",
"C 	c #E9666D",
"D 	c #753539",
"E 	c #0B0B07",
"F 	c #18060C",
"G 	c #191E1B",
"H 	c #2E2E26",
"I 	c #632A29",
"J 	c #D9615F",
"K 	c #FD5D5D",
"L 	c #FF5758",
"M 	c #FE5D57",
"N 	c #FC5E56",
"O 	c #FF5A58",
"P 	c #FE5D58",
"Q 	c #FD5A5C",
"R 	c #F45F63",
"S 	c #A53C3B",
"T 	c #AC504F",
"U 	c #AC4B54",
"V 	c #160303",
"W 	c #151515",
"X 	c #2D2D2D",
"Y 	c #313131",
"Z 	c #5F2926",
"` 	c #D86362",
" .	c #FA5A5D",
"..	c #FE5C58",
"+.	c #F95F5C",
"@.	c #FE5B60",
"#.	c #FB5D5C",
"$.	c #F56063",
"%.	c #924846",
"&.	c #B7484E",
"*.	c #F2605F",
"=.	c #B04A52",
"-.	c #1E0505",
";.	c #0F090E",
">.	c #080407",
",.	c #0F0F0F",
"'.	c #2F2F2F",
").	c #303030",
"!.	c #2E2F28",
"~.	c #5B2A28",
"{.	c #C0575C",
"].	c #C54E53",
"^.	c #C24F55",
"/.	c #C64D59",
"(.	c #C44E57",
"_.	c #C44E56",
":.	c #C34F56",
"<.	c #8B413B",
"[.	c #B34D51",
"}.	c #F55F68",
"|.	c #F6615B",
"1.	c #FC595B",
"2.	c #F75B65",
"3.	c #A75150",
"4.	c #260B0E",
"5.	c #313031",
"6.	c #292525",
"7.	c #020000",
"8.	c #030100",
"9.	c #060000",
"0.	c #040100",
"a.	c #6A312E",
"b.	c #F55E6A",
"c.	c #FE5B5E",
"d.	c #FA5F57",
"e.	c #FF5856",
"f.	c #F6625B",
"g.	c #EE6165",
"h.	c #6F3437",
"i.	c #0B0907",
"j.	c #2E2E2E",
"k.	c #283432",
"l.	c #1E2B29",
"m.	c #040102",
"n.	c #090103",
"o.	c #020001",
"p.	c #6E3033",
"q.	c #EE6466",
"r.	c #FB6055",
"s.	c #FF5658",
"t.	c #FF575A",
"u.	c #FE5C56",
"v.	c #FD5A61",
"w.	c #7D353A",
"x.	c #332F2E",
"y.	c #292524",
"z.	c #070203",
"A.	c #1A050E",
"B.	c #0A0204",
"C.	c #6B3033",
"D.	c #FB5963",
"E.	c #F46352",
"F.	c #FA5D5C",
"G.	c #FF5661",
"H.	c #FC5D5A",
"I.	c #FD5A64",
"J.	c #7D353C",
"K.	c #332F2F",
"L.	c #2A2727",
"M.	c #6D2F32",
"N.	c #FA5B65",
"O.	c #FC5E58",
"P.	c #FD5C5D",
"Q.	c #FE5C5E",
"R.	c #FB5D60",
"S.	c #7B363A",
"T.	c #282828",
"U.	c #6C3031",
"V.	c #F95D67",
"W.	c #FE5B5C",
"X.	c #FD5D5C",
"Y.	c #FF5D57",
"Z.	c #FB5D5F",
"`.	c #7A3639",
" +	c #FA5D5F",
".+	c #252525",
"++	c #6D3336",
"@+	c #F46366",
"#+	c #FF5A54",
"$+	c #FD5E5C",
"%+	c #F95E5E",
"&+	c #F36166",
"*+	c #753A39",
"=+	c #1E1E1E",
"-+	c #141414",
";+	c #191919",
">+	c #34201D",
",+	c #D65659",
"'+	c #FC5C58",
")+	c #F95F5F",
"!+	c #FF5860",
"~+	c #F85C5C",
"{+	c #C75B60",
"]+	c #40201D",
"^+	c #1A1A1A",
"/+	c #272727",
"(+	c #2F2F2C",
"_+	c #49201A",
":+	c #C9615C",
"<+	c #FB5B66",
"[+	c #FB5C66",
"}+	c #CA5D59",
"|+	c #411818",
"1+	c #0E0504",
"2+	c #131313",
"3+	c #2A3330",
"4+	c #342D2C",
"5+	c #3E1F1A",
"6+	c #C95D63",
"7+	c #D15861",
"8+	c #371810",
"9+	c #010000",
"0+	c #050505",
"a+	c #262626",
"b+	c #2C322F",
"c+	c #2D2D35",
"d+	c #372D33",
"e+	c #44211E",
"f+	c #3E1A18",
"g+	c #040101",
"h+	c #171717",
"i+	c #202020",
"j+	c #322E2D",
"k+	c #31303A",
"l+	c #232F33",
"m+	c #6A3838",
"n+	c #6D3136",
"o+	c #0A0505",
"p+	c #010102",
"q+	c #020102",
"r+	c #030303",
"s+	c #323232",
"t+	c #1C1C1C",
"u+	c #2E342E",
"v+	c #2E2B2B",
"w+	c #6B3733",
"x+	c #E7625F",
"y+	c #E85E60",
"z+	c #642F2C",
"A+	c #0C0707",
"B+	c #0E0E15",
"C+	c #0D070F",
"D+	c #303130",
"E+	c #263124",
"F+	c #7B2D36",
"G+	c #E3636A",
"H+	c #FB5C5C",
"I+	c #E45F68",
"J+	c #6D2E2E",
"K+	c #1B090C",
"L+	c #070408",
"M+	c #181818",
"N+	c #4A2723",
"O+	c #E4626A",
"P+	c #FF595F",
"Q+	c #FD5D54",
"R+	c #FD595E",
"S+	c #E06262",
"T+	c #5B2829",
"U+	c #1F1F1F",
"V+	c #712F31",
"W+	c #FF5A55",
"X+	c #FF5C56",
"Y+	c #FF5B59",
"Z+	c #F76157",
"`+	c #FB5C5E",
" @	c #7C3638",
".@	c #6D3034",
"+@	c #F36165",
"@@	c #FE5D5D",
"#@	c #FF5B60",
"$@	c #FA5F58",
"%@	c #FD5B5C",
"&@	c #7E3537",
"*@	c #050103",
"=@	c #242424",
"-@	c #683233",
";@	c #F56067",
">@	c #FF5A57",
",@	c #FD5C5E",
"'@	c #FF5B58",
")@	c #FC5D5E",
"!@	c #7C3639",
"~@	c #6F2F2C",
"{@	c #F86065",
"]@	c #FE5B56",
"^@	c #FF5E58",
"/@	c #FA5E5C",
"(@	c #FA5D63",
"_@	c #7A3838",
":@	c #1B1B1B",
"<@	c #5B312A",
"[@	c #E66568",
"}@	c #FE5A5A",
"|@	c #FF5D54",
"1@	c #FF5A5A",
"2@	c #FB5A60",
"3@	c #E66369",
"4@	c #632F2D",
"5@	c #292929",
"6@	c #2A2A2A",
"7@	c #2B2B2B",
"8@	c #252E26",
"9@	c #8A373C",
"0@	c #E86065",
"a@	c #FF575C",
"b@	c #EA5D60",
"c@	c #7B383B",
"d@	c #0F0101",
"e@	c #232323",
"f@	c #2F3030",
"g@	c #2A3132",
"h@	c #362728",
"i@	c #803F3D",
"j@	c #E4636B",
"k@	c #E96167",
"l@	c #7D3B33",
"m@	c #0C0C0C",
"n@	c #161616",
"o@	c #303034",
"p@	c #302F2F",
"q@	c #2C2922",
"r@	c #7C3D43",
"s@	c #7D3B3F",
"t@	c #0D0D06",
"u@	c #27352F",
"v@	c #3A2B2E",
"w@	c #342E2D",
"x@	c #101310",
"y@	c #0F0607",
"z@	c #2F3231",
"A@	c #312D2E",
"B@	c #130E0F",
"C@	c #0E0E0E",
"D@	c #212121",
"                                                                                                    ",
"              . + @ # $ % & * * * * * * * * * * * * * * * * * * * * * * * * * = = -                 ",
"              ; > , ' ) ! ~ { { { { ] { { { { { { ] { { { { ] { { { { { { ] ^ / ( _ :               ",
"          < [ } | 1 2 3 4 5 5 6 6 5 7 5 6 6 6 6 5 7 5 6 6 5 7 5 6 5 6 6 5 7 8 9 5 0 a b     c       ",
"          d e f g h i j k l 7 m m 7 n 7 n m 7 n 7 n 7 m m 7 n 7 n 7 m n 7 n 7 n 7 o p q r s t       ",
"          u v w h x y z k k k k k k k k k k k k k k k k k k k k k k k k k k k k k A B C D E F       ",
"        G H I J K L M N O P P P P P P P P P P P P P P P P P P P P P P P P P P P P Q R S T U V       ",
"      W X Y X Z `  ...+.@.#.#.#.#.#.#.#.#.#.#.#.#.#.#.#.#.#.#.#.#.#.#.#.#.#.#.#.#.$.%.&.*.R =.-.;.>.",
"    ,.'.).'.Y !.~.{.].^./.(._._._._._._._._._._._._._._._._._._._._._._._._._._.:.<.[.}.|.1.2.3.4.  ",
"    '.).).).).5.6.7.8.7.9.0.8.8.8.8.8.8.8.8.8.8.8.8.8.8.8.8.8.8.8.8.8.8.8.8.8.8.8.a.b.c.d.e.f.g.h.i.",
"    j.Y ).).).k.l.m.n.o.                                                          p.q.r.s.t.u.v.w.  ",
"    j.Y ).).).x.y.z.A.B.                                                          C.D.E.F.G.H.I.J.  ",
"    j.Y ).).).K.L.                                                                M.N.O.P.Q.9 R.S.  ",
"    j.Y ).).).).T.                                                                U.V.m W.X.Y.Z.`.  ",
"    j.Y ).).).).T.                                                                U.V.m W.X.Y.Z.`.  ",
"    j.Y ).).).).T.                                                                U.V.m W.X.Y.Z.`.  ",
"    j.Y ).).).).T.                                                                U.V.m W.X.Y.Z.`.  ",
"    j.Y ).).).).T.                                                                U.V.m W.X.Y.Z.`.  ",
"    j.Y ).).).).T.                                                                U.V.m W.X.Y.Z.`.  ",
"    j.Y ).).).).T.                                                                U.V.m W.X.Y.Z.`.  ",
"    j.Y ).).).).T.                                                                U.V.m W.X.Y.Z.`.  ",
"    j.Y ).).).).T.                                                                U.V.m W.X.Y.Z.`.  ",
"    j.Y ).).).).T.                                                                U.V.m W.X.Y.Z.`.  ",
"    j.Y ).).).).T.                                                                U.V.m W.X.Y.Z.`.  ",
"    j.Y ).).).).T.                                                                U.V.m W.X.Y.Z.`.  ",
"    j.Y ).).).).T.                                                                U.V.m W.X.Y.Z.`.  ",
"    j.Y ).).).).T.                                                                U.V.m W.X.Y.Z.`.  ",
"    j.Y ).).).).T.                                                                U.V.m W.X.Y.Z.`.  ",
"    j.Y ).).).).T.                                                                U.V.m W.X.Y.Z.`.  ",
"    j.Y ).).).).T.                                                                U.V.m W.X.Y.Z.`.  ",
"    j.Y ).).).).T.                                                                U.V.m W.X.Y.Z.`.  ",
"    j.Y ).).).).T.                                                                U.V.m W.X.Y.Z.`.  ",
"    j.Y ).).).).T.                                                                U.V.m W.X.Y.Z.`.  ",
"    j.Y ).).).).T.                                                                U.V.m W.X.Y.Z.`.  ",
"    j.Y ).).).).T.                                                                U.V.m W.X.Y.Z.`.  ",
"    j.Y ).).).).T.                                                                U.V.m W.X.Y.Z.`.  ",
"    j.Y ).).).).T.                                                                U.V.m W.X.Y.Z.`.  ",
"    j.Y ).).).).T.                                                                U.V.m W.X.Y.Z.`.  ",
"    j.Y ).).).).T.                                                                U.V.m W.X.Y.Z.`.  ",
"    j.Y ).).).).T.                                                                U.V.7 W.X.Y. +`.  ",
"    j.Y Y ).).)..+                                                                ++@+#+$+%+7 &+*+  ",
"    =+'.j.Y '.j.-+;+;+;+;+;+;+;+;+;+;+;+;+;+;+;+;+;+;+;+;+;+;+;+;+;+;+;+;+;+;+;+;+>+,+'+)+!+~+{+]+  ",
"      ^+Y '.j.,./+).Y Y Y Y Y Y Y Y Y Y Y Y Y Y Y Y Y Y Y Y Y Y Y Y Y Y Y Y Y ).).(+_+:+<+[+}+|+1+  ",
"        ^+j.2+.+).).).).).).).).).).).).).).).).).).).).).).).).).).).).).).).).).3+4+5+6+7+8+9+    ",
"          0+a+Y ).).).).).).).).).).).).).).).).).).).).).).).).).).).).).).).).).b+c+d+e+f+g+      ",
"        0+h+i+'.).).).).).).).).).).).).).).).).).).).).).).).).).).).).).).).).).j+k+l+m+n+o+  p+q+",
"      r+/+s+t+t+Y '.Y ).).).).).).).).).).).).).).).).).).).).).).).).).).).).).).u+v+w+x+y+z+A+B+C+",
"      .+Y ).Y =+^+Y ).).).).).).).).).).).).).).).).).).).).).).).).).).).).).).D+E+F+G+f.H+I+J+K+L+",
"    a+Y Y ).Y ).M+                                                                N+O+P+Q+O R+S+T+  ",
"    j.Y ).).).).U+                                                                V+&+W+X+Y+Z+`+ @  ",
"    j.Y ).).).).U+                                                                .@+@#+@@#@$@%@&@*@",
"    j.Y ).).).).=@                                                                -@;@>@,@@.'@)@!@o.",
"    j.Y ).).).).T.                                                                U.V.m W.X.Y.Z.`.  ",
"    j.Y ).).).).T.                                                                U.V.m W.X.Y.Z.`.  ",
"    j.Y ).).).).T.                                                                U.V.m W.X.Y.Z.`.  ",
"    j.Y ).).).).T.                                                                U.V.m W.X.Y.Z.`.  ",
"    j.Y ).).).).T.                                                                U.V.m W.X.Y.Z.`.  ",
"    j.Y ).).).).T.                                                                U.V.m W.X.Y.Z.`.  ",
"    j.Y ).).).).T.                                                                U.V.m W.X.Y.Z.`.  ",
"    j.Y ).).).).T.                                                                U.V.m W.X.Y.Z.`.  ",
"    j.Y ).).).).T.                                                                U.V.m W.X.Y.Z.`.  ",
"    j.Y ).).).).T.                                                                U.V.m W.X.Y.Z.`.  ",
"    j.Y ).).).).T.                                                                U.V.m W.X.Y.Z.`.  ",
"    j.Y ).).).).T.                                                                U.V.m W.X.Y.Z.`.  ",
"    j.Y ).).).).T.                                                                U.V.m W.X.Y.Z.`.  ",
"    j.Y ).).).).T.                                                                U.V.m W.X.Y.Z.`.  ",
"    j.Y ).).).).T.                                                                U.V.m W.X.Y.Z.`.  ",
"    j.Y ).).).).T.                                                                U.V.m W.X.Y.Z.`.  ",
"    j.Y ).).).).T.                                                                U.V.m W.X.Y.Z.`.  ",
"    j.Y ).).).).T.                                                                U.V.m W.X.Y.Z.`.  ",
"    j.Y ).).).).T.                                                                U.V.m W.X.Y.Z.`.  ",
"    j.Y ).).).).T.                                                                U.V.m W.X.Y.Z.`.  ",
"    j.Y ).).).).T.                                                                U.V.m W.X.Y.Z.`.  ",
"    j.Y ).).).).T.                                                                U.V.m W.X.Y.Z.`.  ",
"    j.Y ).).).).T.                                                                U.V.m W.X.Y.Z.`.  ",
"    j.Y ).).).).T.                                                                U.V.m W.X.Y.Z.`.  ",
"    j.Y ).).).).T.                                                                U.V.m W.X.Y.Z.`.  ",
"    j.Y ).).).).T.                                                                U.V.m W.X.Y.Z.`.  ",
"    j.Y ).).).).T.                                                                U.V.m W.X.Y.Z.`.  ",
"    j.Y '.Y ).Y =@                                                                ~@{@]@^@H./@(@_@  ",
"    T.'.Y Y '.s+:@                                                                <@[@}@|@1@2@3@4@  ",
"    + 5@).).Y i+W 6@7@7@7@7@7@7@7@7@7@7@7@7@7@7@7@7@7@7@7@7@7@7@7@7@7@7@7@7@6@6@6@8@9@0@`+a@b@c@d@  ",
"      + 5@Y e@M+).Y ).).).).).).).).).).).).).).).).).).).).).).).).).).).).).).f@g@h@i@j@k@l@7.    ",
"        m@^+n@).Y ).).).).).).).).).).).).).).).).).).).).).).).).).).).).).).).).o@p@q@r@s@t@      ",
"            .+).).Y ).).).).).).).).).).).).).).).).).).).).).).).).).).).).).).).u@v@w@x@y@        ",
"            + /+).).).).).).).).).).).).).).).).).).).).).).).).).).).).).).).).).z@A@B@            ",
"              + T.Y Y ).).).).).).).).).).).).).).).).).).).).).).).).).).).).).).'.C@              ",
"                r+U+i+D@D@D@D@D@D@D@D@D@D@D@D@D@D@D@D@D@D@D@D@D@D@D@D@D@D@D@D@D@D@C@                ",
"                                                                                                    ",
"                                                                                                    "};
