/* XPM */
static char * 8_xpm[] = {
"50 90 557 2",
"  	c #000000",
". 	c #0A0204",
"+ 	c #010000",
"@ 	c #140101",
"# 	c #140000",
"$ 	c #210305",
"% 	c #160000",
"& 	c #150000",
"* 	c #180000",
"= 	c #180001",
"- 	c #0B0000",
"; 	c #080100",
"> 	c #903F3A",
", 	c #C9635F",
"' 	c #D06161",
") 	c #D15F60",
"! 	c #CE6160",
"~ 	c #CF6160",
"{ 	c #D65C60",
"] 	c #D75C60",
"^ 	c #CF6060",
"/ 	c #D06060",
"( 	c #CA6561",
"_ 	c #90403A",
": 	c #0B0101",
"< 	c #903D40",
"[ 	c #F15E59",
"} 	c #FA5C58",
"| 	c #FE5B59",
"1 	c #FE5A59",
"2 	c #FE5C59",
"3 	c #FD5E59",
"4 	c #FE5E59",
"5 	c #FE5D59",
"6 	c #FD5B59",
"7 	c #FC5D59",
"8 	c #8F3D40",
"9 	c #0B0100",
"0 	c #15050A",
"a 	c #060202",
"b 	c #9A3A42",
"c 	c #F65D68",
"d 	c #FE5D5B",
"e 	c #FE5D5A",
"f 	c #FF5C59",
"g 	c #FE5C5A",
"h 	c #FF5D59",
"i 	c #F65C67",
"j 	c #9C3B43",
"k 	c #070101",
"l 	c #070103",
"m 	c #060203",
"n 	c #4A2728",
"o 	c #DF6069",
"p 	c #FE5C5D",
"q 	c #FD5D5B",
"r 	c #FD5E5B",
"s 	c #FC5E5B",
"t 	c #FF5B5B",
"u 	c #FF5A5B",
"v 	c #FF5B5D",
"w 	c #E05E68",
"x 	c #4F2628",
"y 	c #070102",
"z 	c #080101",
"A 	c #94404B",
"B 	c #C2545F",
"C 	c #813D31",
"D 	c #E3625E",
"E 	c #FD5C5C",
"F 	c #FF5959",
"G 	c #FF5C5A",
"H 	c #FE5C58",
"I 	c #FE5D58",
"J 	c #FF5D5B",
"K 	c #FF5A59",
"L 	c #E5605D",
"M 	c #863D33",
"N 	c #C45360",
"O 	c #93404B",
"P 	c #060101",
"Q 	c #070100",
"R 	c #964048",
"S 	c #F15E66",
"T 	c #F1625F",
"U 	c #C45B56",
"V 	c #87393B",
"W 	c #ED5C60",
"X 	c #FA5A5F",
"Y 	c #FB585C",
"Z 	c #FE5C5F",
"` 	c #FF5C5E",
" .	c #FE5B5E",
"..	c #FB5D5C",
"+.	c #FF5A5E",
"@.	c #FF5B5E",
"#.	c #FE5C5E",
"$.	c #FB585D",
"%.	c #FA5C60",
"&.	c #ED5E61",
"*.	c #8C373B",
"=.	c #C65A56",
"-.	c #F1615E",
";.	c #EE5F65",
">.	c #924047",
",.	c #060100",
"'.	c #130304",
").	c #904343",
"!.	c #F65E68",
"~.	c #FE585D",
"{.	c #F46258",
"].	c #F46162",
"^.	c #C9585C",
"/.	c #883233",
"(.	c #B9575A",
"_.	c #BA5459",
":.	c #BE5159",
"<.	c #C24F58",
"[.	c #C54D57",
"}.	c #C34E56",
"|.	c #C44E58",
"1.	c #BE5058",
"2.	c #BB545A",
"3.	c #B8585B",
"4.	c #893637",
"5.	c #C9595C",
"6.	c #F46161",
"7.	c #FE575C",
"8.	c #F45D67",
"9.	c #8E4142",
"0.	c #421B1E",
"a.	c #E56468",
"b.	c #FB615A",
"c.	c #FE5953",
"d.	c #FF5A56",
"e.	c #F5625C",
"f.	c #F75D64",
"g.	c #914E52",
"h.	c #180504",
"i.	c #020000",
"j.	c #050000",
"k.	c #040000",
"l.	c #030000",
"m.	c #170405",
"n.	c #8C4D4F",
"o.	c #F35F64",
"p.	c #F2635C",
"q.	c #FE5852",
"r.	c #FC5E59",
"s.	c #E76469",
"t.	c #431D21",
"u.	c #501A1E",
"v.	c #EF6162",
"w.	c #F86255",
"x.	c #FB6056",
"y.	c #FE5B58",
"z.	c #FE5C5B",
"A.	c #FE5960",
"B.	c #9D4951",
"C.	c #170305",
"D.	c #000201",
"E.	c #150304",
"F.	c #974950",
"G.	c #FD5C60",
"H.	c #FF5B58",
"I.	c #FC5F56",
"J.	c #FB6155",
"K.	c #F06063",
"L.	c #511D21",
"M.	c #54191B",
"N.	c #F55D62",
"O.	c #FE5D5C",
"P.	c #FD5C5D",
"Q.	c #FF595C",
"R.	c #F8605D",
"S.	c #974D4D",
"T.	c #0C0101",
"U.	c #0D0202",
"V.	c #934B4B",
"W.	c #FE5D5D",
"X.	c #FF5B5A",
"Y.	c #F65E62",
"Z.	c #541B1F",
"`.	c #4E191D",
" +	c #F35E65",
".+	c #FF5C5B",
"++	c #FF5C5D",
"@+	c #FF5B5C",
"#+	c #FF5C5C",
"$+	c #FA5F5D",
"%+	c #9B4A4A",
"&+	c #020100",
"*+	c #97494A",
"=+	c #511D20",
"-+	c #4B191E",
";+	c #F06065",
">+	c #FC5E5D",
",+	c #9E4849",
"'+	c #9A474A",
")+	c #FC5D5D",
"!+	c #F06066",
"~+	c #501D21",
"{+	c #4B1A1E",
"]+	c #99474A",
"^+	c #4A1B20",
"/+	c #EA6368",
"(+	c #FC5D58",
"_+	c #FB5C59",
":+	c #FC5B5E",
"<+	c #964B53",
"[+	c #170609",
"}+	c #070305",
"|+	c #13080C",
"1+	c #18080A",
"2+	c #914D54",
"3+	c #FC5A61",
"4+	c #FC5E5F",
"5+	c #FE595C",
"6+	c #FB5C58",
"7+	c #FC5D56",
"8+	c #EB6467",
"9+	c #4A1C21",
"0+	c #26090B",
"a+	c #BA4E51",
"b+	c #F76060",
"c+	c #FA5F5C",
"d+	c #FA5E5B",
"e+	c #FB5B5F",
"f+	c #DA6361",
"g+	c #743733",
"h+	c #904945",
"i+	c #914543",
"j+	c #954443",
"k+	c #974243",
"l+	c #984243",
"m+	c #964244",
"n+	c #954244",
"o+	c #944443",
"p+	c #924643",
"q+	c #8F4944",
"r+	c #713430",
"s+	c #DB6362",
"t+	c #FB5A60",
"u+	c #F76160",
"v+	c #260A0B",
"w+	c #220D08",
"x+	c #BF4F55",
"y+	c #FF5661",
"z+	c #F75F5D",
"A+	c #DB605F",
"B+	c #7D2F30",
"C+	c #D55E55",
"D+	c #F2635E",
"E+	c #FB5D5E",
"F+	c #FD5D5F",
"G+	c #FF5C5F",
"H+	c #FD5E5E",
"I+	c #F8625F",
"J+	c #F1635E",
"K+	c #D95A54",
"L+	c #7C2E2C",
"M+	c #DB615E",
"N+	c #F7605D",
"O+	c #FE5563",
"P+	c #BF4F57",
"Q+	c #030603",
"R+	c #250D0B",
"S+	c #DE5F60",
"T+	c #7A342D",
"U+	c #DB5966",
"V+	c #FA5E5E",
"W+	c #FF595B",
"X+	c #FC5E5A",
"Y+	c #FA5F5B",
"Z+	c #FD5D5A",
"`+	c #FD5B5E",
" @	c #DD5C64",
".@	c #78342B",
"+@	c #DE5E5F",
"@@	c #C24F59",
"#@	c #260D0E",
"$@	c #030604",
"%@	c #020201",
"&@	c #180D09",
"*@	c #592F28",
"=@	c #D95E61",
"-@	c #FC5B61",
";@	c #FF585E",
">@	c #FF585D",
",@	c #FF5A5D",
"'@	c #FC5E5C",
")@	c #FC5D5C",
"!@	c #FF595D",
"~@	c #582E28",
"{@	c #180907",
"]@	c #030404",
"^@	c #030304",
"/@	c #4B1E25",
"(@	c #813B41",
"_@	c #B7554E",
":@	c #F2645A",
"<@	c #FA5F5A",
"[@	c #FB5F5A",
"}@	c #FF5A5A",
"|@	c #FF5D5A",
"1@	c #FB5E5A",
"2@	c #F2635D",
"3@	c #B75450",
"4@	c #7F3940",
"5@	c #4D1F25",
"6@	c #531E23",
"7@	c #DF5460",
"8@	c #EE6061",
"9@	c #8C4237",
"0@	c #B75057",
"a@	c #F3605E",
"b@	c #FA5D58",
"c@	c #FA5E56",
"d@	c #FB5E57",
"e@	c #FD5C59",
"f@	c #FB5D5A",
"g@	c #FD5C58",
"h@	c #FC5C57",
"i@	c #FA5E59",
"j@	c #F3605D",
"k@	c #B85158",
"l@	c #8C4338",
"m@	c #541E23",
"n@	c #0D0303",
"o@	c #532020",
"p@	c #E05765",
"q@	c #FF5962",
"r@	c #F6615A",
"s@	c #F45D61",
"t@	c #973A3B",
"u@	c #BE4E4F",
"v@	c #E9686D",
"w@	c #EB636A",
"x@	c #F0616B",
"y@	c #F65F6B",
"z@	c #F75E69",
"A@	c #F36165",
"B@	c #F65E6B",
"C@	c #EB636B",
"D@	c #E9676C",
"E@	c #983C3D",
"F@	c #F35D61",
"G@	c #F5615A",
"H@	c #FE5962",
"I@	c #E05865",
"J@	c #531F1F",
"K@	c #311315",
"L@	c #D95862",
"M@	c #FE5A60",
"N@	c #F66157",
"O@	c #F66257",
"P@	c #EF5F65",
"Q@	c #733C3B",
"R@	c #3D1F19",
"S@	c #3D201C",
"T@	c #3F1B1B",
"U@	c #441A1A",
"V@	c #441B18",
"W@	c #421D16",
"X@	c #421C15",
"Y@	c #421D15",
"Z@	c #421C16",
"`@	c #3D201D",
" #	c #3C1E18",
".#	c #723B39",
"+#	c #F76257",
"@#	c #331517",
"##	c #4A1B1E",
"$#	c #EC6166",
"%#	c #F9615A",
"&#	c #F96158",
"*#	c #FE5958",
"=#	c #FF585B",
"-#	c #FA5E60",
";#	c #984D52",
">#	c #190406",
",#	c #954A4F",
"'#	c #EC6267",
")#	c #4C1F22",
"!#	c #53191B",
"~#	c #EE6164",
"{#	c #FB5F5E",
"]#	c #FF595E",
"^#	c #FC5C5D",
"/#	c #FB5E5C",
"(#	c #9A4C4F",
"_#	c #100202",
":#	c #110203",
"<#	c #974A4B",
"[#	c #FB5E5D",
"}#	c #EE6165",
"|#	c #531C1F",
"1#	c #50191C",
"2#	c #F55C65",
"3#	c #FF5A5F",
"4#	c #FD5C5E",
"5#	c #F8605C",
"6#	c #FE5B5C",
"7#	c #9C4A4B",
"8#	c #040100",
"9#	c #99484A",
"0#	c #FE5B5D",
"a#	c #F55C66",
"b#	c #521C20",
"c#	c #F16066",
"d#	c #4B191C",
"e#	c #E66667",
"f#	c #FC615D",
"g#	c #FE5C5C",
"h#	c #FF585A",
"i#	c #9D494E",
"j#	c #1B0507",
"k#	c #030102",
"l#	c #180408",
"m#	c #98474E",
"n#	c #FC5D5B",
"o#	c #FF575A",
"p#	c #E76566",
"q#	c #511F22",
"r#	c #3F1918",
"s#	c #DA5E64",
"t#	c #F65F60",
"u#	c #FB5B5B",
"v#	c #FE5B5B",
"w#	c #FA615E",
"x#	c #EF625F",
"y#	c #7B4443",
"z#	c #2F1310",
"A#	c #2B130F",
"B#	c #2D110E",
"C#	c #2F100E",
"D#	c #310F0D",
"E#	c #320F0D",
"F#	c #310F0E",
"G#	c #2F100F",
"H#	c #2A110F",
"I#	c #2D1210",
"J#	c #7A4343",
"K#	c #F1615F",
"L#	c #FB605E",
"M#	c #FC5B5C",
"N#	c #F85F61",
"O#	c #DB5E64",
"P#	c #441D1C",
"Q#	c #6E2A2C",
"R#	c #EB5968",
"S#	c #FE5A61",
"T#	c #FA605D",
"U#	c #F46065",
"V#	c #A24344",
"W#	c #AA4546",
"X#	c #DA6265",
"Y#	c #E15D62",
"Z#	c #E65960",
"`#	c #E7585E",
" $	c #E7595D",
".$	c #E55A5C",
"+$	c #E7595F",
"@$	c #E65961",
"#$	c #E55960",
"$$	c #E15C61",
"%$	c #DB6061",
"&$	c #AD4443",
"*$	c #A34244",
"=$	c #F55F65",
"-$	c #FB5F5D",
";$	c #FE5961",
">$	c #EB5767",
",$	c #6F2A2C",
"'$	c #140C08",
")$	c #67282D",
"!$	c #EB5B69",
"~$	c #EF6265",
"{$	c #9E4540",
"]$	c #A6494E",
"^$	c #F26362",
"/$	c #FD5D5D",
"($	c #FF5758",
"_$	c #FC5E56",
":$	c #FA5F59",
"<$	c #FF5858",
"[$	c #F5625E",
"}$	c #A8484E",
"|$	c #9F4440",
"1$	c #F06165",
"2$	c #EC5B6A",
"3$	c #68282E",
"4$	c #020101",
"5$	c #612B2D",
"6$	c #8C4745",
"7$	c #9D4E48",
"8$	c #F55E67",
"9$	c #FC5F57",
"0$	c #FC5F58",
"a$	c #FF5A5C",
"b$	c #FE5A58",
"c$	c #FE5B5A",
"d$	c #9E4E48",
"e$	c #8D4644",
"f$	c #642B2D",
"g$	c #040101",
"h$	c #080406",
"i$	c #060808",
"j$	c #4B2523",
"k$	c #DD5F64",
"l$	c #FC5F5B",
"m$	c #FE5E5A",
"n$	c #FD5E5C",
"o$	c #FB5E5E",
"p$	c #FC5D60",
"q$	c #FD5C61",
"r$	c #FD5D5E",
"s$	c #FB5E5B",
"t$	c #DE5F64",
"u$	c #4D2523",
"v$	c #090909",
"w$	c #0B0507",
"x$	c #0E0303",
"y$	c #682628",
"z$	c #E05F68",
"A$	c #FD5E5A",
"B$	c #FE5E5B",
"C$	c #FC5F5A",
"D$	c #F95E5B",
"E$	c #E16069",
"F$	c #6A282B",
"G$	c #0F0202",
"H$	c #68292B",
"I$	c #EA5959",
"J$	c #FA5E5F",
"K$	c #FC5C5F",
"L$	c #FB5B5E",
"M$	c #F95D5D",
"N$	c #EC5C5C",
"O$	c #6A2B2D",
"P$	c #0E0202",
"Q$	c #040A08",
"R$	c #0D0403",
"S$	c #672623",
"T$	c #9E4D4A",
"U$	c #A34C4B",
"V$	c #A54C4B",
"W$	c #A64B4B",
"X$	c #A44C4B",
"Y$	c #A24C4B",
"Z$	c #A24D4B",
"`$	c #9F4E4B",
" %	c #682724",
".%	c #030907",
"+%	c #050201",
"@%	c #0F0403",
"#%	c #0B0302",
"                                                                                                    ",
"              . + @ # $ % & * * * * * * * * * * * * * * * * * * * * * * & % $ = - ; .               ",
"              + > , ' ) ! ~ { { { { ] { { { { { { ] { { { { ] { { { { { ! ^ ) / ( _ +               ",
"            : < [ } | 1 | 2 3 4 4 3 5 3 4 4 4 4 3 5 3 4 4 3 5 3 4 3 4 5 2 | 1 6 7 [ 8 9             ",
"      0   a b c d e f g 5 e 5 e e 5 g 5 g e 5 g 5 g 5 e e 5 g 5 g 5 e g h e 2 g e d i j k           ",
"      l m n o p q r s s s q t u u u u u u u u u u u u u u u u u u u u t q s s s r d v w x y         ",
"      z A B C D E F G H I f I I I I I I I I I I I I I I I I I I I I I I f H H J K E L M N O P       ",
"    Q R S T U V W X Y Z `  .............................................+.@.#.$.%.&.*.=.-.;.>.,.    ",
"  '.).!.~.{.].^./.(._.:.<.[.}.}.}.}.}.}.}.}.}.}.}.}.}.}.}.}.}.}.}.}.}.}.[.|.1.2.3.4.5.6.{.7.8.9.'.  ",
"  0.a.b.c.d.e.f.g.h.  i.j.k.+ + + + + + + + + + + + + + + + + i.+ + + + k.j.l.+ m.n.o.p.d.q.r.s.t.  ",
"  u.v.w.x.y.z.A.B.C.      D.                                                    E.F.G.q H.I.J.K.L.  ",
"  M.N.G O.P.Q.R.S.T.                                                            U.V.R.Q.P.W.X.Y.Z.  ",
"  `. +.+++@+#+$+%+&+                                                              *+$+@+@+++.+ +=+  ",
"  -+;+.+.+.+.+>+,+                                                                '+)+.+.+.+.+!+~+  ",
"  -+;+.+.+.+.+>+,+                                                                '+)+.+.+.+.+!+~+  ",
"  -+;+.+.+.+.+>+,+                                                                '+)+.+.+.+.+!+~+  ",
"  -+;+.+.+.+.+>+,+                                                                '+)+.+.+.+.+!+~+  ",
"  -+;+.+.+.+.+>+,+                                                                '+)+.+.+.+.+!+~+  ",
"  -+;+.+.+.+.+>+,+                                                                '+)+.+.+.+.+!+~+  ",
"  -+;+.+.+.+.+>+,+                                                                '+)+.+.+.+.+!+~+  ",
"  -+;+.+.+.+.+>+,+                                                                '+)+.+.+.+.+!+~+  ",
"  -+;+.+.+.+.+>+,+                                                                '+)+.+.+.+.+!+~+  ",
"  -+;+.+.+.+.+>+,+                                                                '+)+.+.+.+.+!+~+  ",
"  -+;+.+.+.+.+>+,+                                                                '+)+.+.+.+.+!+~+  ",
"  -+;+.+.+.+.+>+,+                                                                '+)+.+.+.+.+!+~+  ",
"  -+;+.+.+.+.+>+,+                                                                '+)+.+.+.+.+!+~+  ",
"  -+;+.+.+.+.+>+,+                                                                '+)+.+.+.+.+!+~+  ",
"  -+;+.+.+.+.+>+,+                                                                '+)+.+.+.+.+!+~+  ",
"  -+;+.+.+.+.+>+,+                                                                '+)+.+.+.+.+!+~+  ",
"  -+;+.+.+.+.+>+,+                                                                '+)+.+.+.+.+!+~+  ",
"  -+;+.+.+.+.+>+,+                                                                '+)+.+.+.+.+!+~+  ",
"  -+;+.+.+.+.+>+,+                                                                '+)+.+.+.+.+!+~+  ",
"  -+;+.+.+.+.+>+,+                                                                '+)+.+.+.+.+!+~+  ",
"  -+;+.+.+.+.+>+,+                                                                '+)+.+.+.+.+!+~+  ",
"  -+;+.+.+.+.+>+,+                                                                '+)+.+.+.+.+!+~+  ",
"  -+;+.+.+.+.+>+,+                                                                '+)+.+.+.+.+!+~+  ",
"  -+;+.+.+.+.+>+,+                                                                '+)+.+.+.+.+!+~+  ",
"  -+;+.+.+.+.+>+,+                                                                '+)+.+.+.+.+!+~+  ",
"  -+;+.+.+.+.+>+,+                                                                '+)+.+.+.+.+!+~+  ",
"  {+;+J .+.+.+)+,+                                                                ]+)+.+.+.+.+!+~+  ",
"  ^+/+(+_+Q.s :+<+[+}+                                                        |+1+2+3+4+5+6+7+8+9+  ",
"  0+a+b+c+d+e+f+g+h+i+j+k+l+m+m+m+n+m+n+m+m+m+m+n+m+n+m+m+m+m+n+m+m+m+m+l+k+o+p+q+r+s+t+d+c+u+a+v+  ",
"    w+x+y+z+A+B+C+D+E+@.#.F+G+G+G+G+G+G+G+G+G+G+G+G+G+G+G+G+G+G+G+G+G+G+@.@.H+I+J+K+L+M+N+O+P+w+    ",
"    Q+R+<.S+T+U+V+z.W+u X+Y+e g g g g g g g g g g g g g g g g g g g g g Z+d G .+.+`+ @.@+@@@#@$@    ",
"      %@&@*@=@-@;@>@,@++)+'@d d d d d d d d d d d d d d d d d d d d d d )@)+p ,@!@;@-@=@~@{@        ",
"    ]@^@/@(@_@:@G Z+<@[@G }@h h h h h h h h h h h h h h h h h h h h h h G G |@g Z+1@2@3@4@5@        ",
"      6@7@8@9@0@a@b@(+c@d@e@f@f@f@f@f@f@f@f@f@f@f@f@f@f@f@f@f@f@f@f@f@f@g@d@c@h@i@j@k@l@8@7@m@      ",
"  n@o@p@q@r@s@t@u@v@w@x@y@z@A@A@A@A@A@A@A@A@A@A@A@A@A@A@A@A@A@A@A@A@A@A@z@B@x@C@D@u@E@F@G@H@I@J@n@  ",
"  K@L@M@N@O@,@P@Q@R@S@T@U@V@W@X@X@Y@X@Y@X@Y@Y@X@Y@X@Y@X@X@Y@X@Y@X@Y@X@Z@V@U@T@`@ #.#;.,@+#N@M@L@@#  ",
"  ##$#%#&#*#=#-#;#C.                                                            >#,#-#=#*#&#%#'#)#  ",
"  !#~#{#]#;@^#/#(#_#                                                            :#<#[#^#;@]#{#}#|#  ",
"  1#2#@.3#4#5#6#7#8#                                                            &+9#0#5#4#3#@.a#b#  ",
"  -+;+.+.+.+.+>+,+                                                                '+)+.+.+.+.+!+~+  ",
"  -+;+.+.+.+.+>+,+                                                                '+)+.+.+.+.+!+~+  ",
"  -+;+.+.+.+.+>+,+                                                                '+)+.+.+.+.+!+~+  ",
"  -+;+.+.+.+.+>+,+                                                                '+)+.+.+.+.+!+~+  ",
"  -+;+.+.+.+.+>+,+                                                                '+)+.+.+.+.+!+~+  ",
"  -+;+.+.+.+.+>+,+                                                                '+)+.+.+.+.+!+~+  ",
"  -+;+.+.+.+.+>+,+                                                                '+)+.+.+.+.+!+~+  ",
"  -+;+.+.+.+.+>+,+                                                                '+)+.+.+.+.+!+~+  ",
"  -+;+.+.+.+.+>+,+                                                                '+)+.+.+.+.+!+~+  ",
"  -+;+.+.+.+.+>+,+                                                                '+)+.+.+.+.+!+~+  ",
"  -+;+.+.+.+.+>+,+                                                                '+)+.+.+.+.+!+~+  ",
"  -+;+.+.+.+.+>+,+                                                                '+)+.+.+.+.+!+~+  ",
"  -+;+.+.+.+.+>+,+                                                                '+)+.+.+.+.+!+~+  ",
"  -+;+.+.+.+.+>+,+                                                                '+)+.+.+.+.+!+~+  ",
"  -+;+.+.+.+.+>+,+                                                                '+)+.+.+.+.+!+~+  ",
"  -+;+.+.+.+.+>+,+                                                                '+)+.+.+.+.+!+~+  ",
"  -+;+.+.+.+.+>+,+                                                                '+)+.+.+.+.+!+~+  ",
"  -+;+.+.+.+.+>+,+                                                                '+)+.+.+.+.+!+~+  ",
"  -+;+.+.+.+.+>+,+                                                                '+)+.+.+.+.+!+~+  ",
"  -+;+.+.+.+.+>+,+                                                                '+)+.+.+.+.+!+~+  ",
"  -+;+.+.+.+.+>+,+                                                                '+)+.+.+.+.+!+~+  ",
"  -+;+.+.+.+.+>+,+                                                                '+)+.+.+.+.+!+~+  ",
"  -+;+.+.+.+.+>+,+                                                                '+)+.+.+.+.+!+~+  ",
"  -+;+.+.+.+.+>+,+                                                                '+)+.+.+.+.+!+~+  ",
"  -+;+.+.+.+.+>+,+                                                                '+)+.+.+.+.+!+~+  ",
"  -+;+.+.+.+.+>+,+                                                                '+)+.+.+.+.+!+~+  ",
"  -+;+.+.+.+.+>+,+                                                                '+)+.+.+.+.+c#~+  ",
"  d#e#f#g#h#g s i#j#m                                                         k#l#m#n#g o#6#f#p#q#  ",
"  r#s#t#u#v#w#x#y#z#A#B#C#D#E#E#E#E#E#E#E#E#E#E#E#E#E#E#E#E#E#E#E#E#E#E#F#G#B#H#I#J#K#L#t M#N#O#P#  ",
"  k.Q#R#S#T#U#V#W#X#Y#Z#`# $.$.$.$.$.$.$.$.$.$.$.$.$.$.$.$.$.$.$.$.$.$.$+$@$#$$$%$&$*$=$-$;$>$,$'$  ",
"      )$!$~${$]$^$/$h#($d._$<@[@[@<@[@<@[@<@<@[@<@[@<@[@[@<@[@<@[@<@[@[@:$y.<$($y.[$}$|$1$2$3$      ",
"      4$5$6$7$8$@+| 1 y.9$0$a$a$a$a$a$a$a$a$a$a$a$a$a$a$a$a$a$a$a$a$a$a$:$0$H b$y.c$!.d$e$f$g$      ",
"    h$i$  j$k$l$m$n$o$p$q$Z 4 4 4 4 m$4 m$4 4 m$4 m$4 4 4 4 m$4 m$4 4 m$0# .r$o$V+[#s$t$u$+ v$w$    ",
"          x$y$z$/#A$Z+B$l$l$3 4 4 3 4 3 4 4 4 4 3 4 4 4 4 4 4 3 4 4 4 4 C$C$m$6+X+D$E$F$x$  + +     ",
"            G$H$I$J$K$`+4#4#`+`+`+`+`+`+`+`+`+`+`+`+`+`+`+`+`+`+`+`+`+`+4#4#`+L$M$N$O$P$            ",
"            Q$R$S$T$U$V$W$X$Y$U$U$Z$U$Z$U$U$Y$U$Z$U$Y$U$U$Y$U$Z$U$Y$U$U$X$W$V$U$`$ %R$.%            ",
"                    +%@%@%#%                                            #%@%@%+%                    ",
"                                                                                                    "};
