/* XPM */
static char * 9_xpm[] = {
"50 90 551 2",
"  	c #000000",
". 	c #020000",
"+ 	c #160000",
"@ 	c #180000",
"# 	c #200102",
"$ 	c #1A0100",
"% 	c #150000",
"& 	c #130000",
"* 	c #0B0506",
"= 	c #090B0F",
"- 	c #020100",
"; 	c #703031",
"> 	c #D15D61",
", 	c #D65C60",
"' 	c #D75C60",
") 	c #CC6261",
"! 	c #CC625E",
"~ 	c #D85D5B",
"{ 	c #D65F60",
"] 	c #9D4E4C",
"^ 	c #260F08",
"/ 	c #030303",
"( 	c #782E30",
"_ 	c #E66562",
": 	c #FA5E59",
"< 	c #FE5E59",
"[ 	c #FD5E59",
"} 	c #FE5D59",
"| 	c #FA5F5A",
"1 	c #FC5C5A",
"2 	c #FF5658",
"3 	c #FE575D",
"4 	c #EE6262",
"5 	c #A64F49",
"6 	c #180606",
"7 	c #040202",
"8 	c #050505",
"9 	c #010201",
"0 	c #6F2D35",
"a 	c #EE5D6A",
"b 	c #FE5C5A",
"c 	c #FD5D58",
"d 	c #FE5D5A",
"e 	c #FF5B5B",
"f 	c #FE5D5B",
"g 	c #FB5E5C",
"h 	c #FE5A5D",
"i 	c #FF5961",
"j 	c #F65F66",
"k 	c #AA505B",
"l 	c #22090A",
"m 	c #010906",
"n 	c #020101",
"o 	c #2E130F",
"p 	c #D35C66",
"q 	c #F26264",
"r 	c #FB5C5B",
"s 	c #FF595A",
"t 	c #FF5A5B",
"u 	c #FC5E5B",
"v 	c #F6615C",
"w 	c #FD5D5D",
"x 	c #FF595E",
"y 	c #FF5A60",
"z 	c #EC646E",
"A 	c #693231",
"B 	c #150E0B",
"C 	c #020001",
"D 	c #79343A",
"E 	c #C9595F",
"F 	c #88342F",
"G 	c #E35D5E",
"H 	c #FA5D60",
"I 	c #FC5E59",
"J 	c #FE5D58",
"K 	c #FE5D55",
"L 	c #FF5B59",
"M 	c #FF5A58",
"N 	c #FE5E5C",
"O 	c #F26360",
"P 	c #A23F3B",
"Q 	c #B54C50",
"R 	c #A74E53",
"S 	c #350E13",
"T 	c #050504",
"U 	c #010706",
"V 	c #0B0B0F",
"W 	c #0E0505",
"X 	c #7E2F36",
"Y 	c #E06164",
"Z 	c #FB5E5F",
"` 	c #D8595C",
" .	c #7B3535",
"..	c #DF5F61",
"+.	c #FA5D5D",
"@.	c #FB5D5C",
"#.	c #F96059",
"$.	c #FE5B5C",
"%.	c #FF5760",
"&.	c #F95A5B",
"*.	c #E46660",
"=.	c #A24342",
"-.	c #AB4E4C",
";.	c #F95C64",
">.	c #F36162",
",.	c #AB5250",
"'.	c #2D0D0E",
").	c #0D0303",
"!.	c #793536",
"~.	c #E65F65",
"{.	c #FD5B61",
"].	c #FB5F59",
"^.	c #F56064",
"/.	c #D65B62",
"(.	c #76342E",
"_.	c #BB5154",
":.	c #C34E56",
"<.	c #C34E57",
"[.	c #C94B58",
"}.	c #C94B59",
"|.	c #C0555B",
"1.	c #94413F",
"2.	c #AC504D",
"3.	c #F55F63",
"4.	c #F9605C",
"5.	c #F46259",
"6.	c #F85D65",
"7.	c #B54D58",
"8.	c #1B0806",
"9.	c #1D0C09",
"0.	c #D85F65",
"a.	c #F6625D",
"b.	c #FD5B57",
"c.	c #FD5B55",
"d.	c #FB5F5B",
"e.	c #FD5866",
"f.	c #B25456",
"g.	c #070100",
"h.	c #010000",
"i.	c #050000",
"j.	c #060000",
"k.	c #050603",
"l.	c #6B2B2E",
"m.	c #EE6369",
"n.	c #FF595D",
"o.	c #FC5F57",
"p.	c #F86455",
"q.	c #FE575A",
"r.	c #ED626B",
"s.	c #703938",
"t.	c #120200",
"u.	c #E85B64",
"v.	c #FE5B57",
"w.	c #FF5859",
"x.	c #FF555A",
"y.	c #FE5B54",
"z.	c #F6605E",
"A.	c #B05659",
"B.	c #070000",
"C.	c #060101",
"D.	c #010001",
"E.	c #6C2C31",
"F.	c #ED6663",
"G.	c #FC5D5C",
"H.	c #FF5A57",
"I.	c #F96154",
"J.	c #FC5E5A",
"K.	c #F46064",
"L.	c #823736",
"M.	c #0B0300",
"N.	c #E75C67",
"O.	c #FC5D5A",
"P.	c #FE565E",
"Q.	c #FB5A5F",
"R.	c #F36454",
"S.	c #FE595A",
"T.	c #B75359",
"U.	c #080201",
"V.	c #110303",
"W.	c #050103",
"X.	c #722A2F",
"Y.	c #F7615C",
"Z.	c #FE5C60",
"`.	c #FF5B5D",
" +	c #FB5F5A",
".+	c #FF5A5C",
"++	c #F65F63",
"@+	c #803735",
"#+	c #0D0300",
"$+	c #E75C64",
"%+	c #FC5E58",
"&+	c #FB5D5F",
"*+	c #FC5E56",
"=+	c #BC5155",
"-+	c #000100",
";+	c #6D2B2C",
">+	c #F8605F",
",+	c #FE5C5E",
"'+	c #FD5D5C",
")+	c #FE5B59",
"!+	c #F85D62",
"~+	c #7B3936",
"{+	c #0F0200",
"]+	c #E85C63",
"^+	c #FD5D57",
"/+	c #FF5B5C",
"(+	c #FD5C5E",
"_+	c #FE5D5E",
":+	c #BB5254",
"<+	c #6C2C2B",
"[+	c #F76161",
"}+	c #FE5E57",
"|+	c #FE5C5C",
"1+	c #FC5D57",
"2+	c #7B3937",
"3+	c #FE5D57",
"4+	c #FC5D58",
"5+	c #160100",
"6+	c #DD6367",
"7+	c #FD5C5A",
"8+	c #FE5962",
"9+	c #FF5955",
"0+	c #FB5C59",
"a+	c #B05759",
"b+	c #040101",
"c+	c #000202",
"d+	c #6C2C28",
"e+	c #F86162",
"f+	c #FA5F59",
"g+	c #FF5A5A",
"h+	c #FE5A5C",
"i+	c #F56265",
"j+	c #7F3936",
"k+	c #110805",
"l+	c #9E4B4D",
"m+	c #F15F65",
"n+	c #FE5B5D",
"o+	c #F8615D",
"p+	c #FC5B5C",
"q+	c #EB6163",
"r+	c #803636",
"s+	c #914142",
"t+	c #964244",
"u+	c #954244",
"v+	c #954441",
"w+	c #994142",
"x+	c #9A3F46",
"y+	c #8E4248",
"z+	c #733134",
"A+	c #CB5C61",
"B+	c #FB5C61",
"C+	c #FF5E5D",
"D+	c #FE5E5A",
"E+	c #F76064",
"F+	c #D55861",
"G+	c #3A1B18",
"H+	c #230606",
"I+	c #A34750",
"J+	c #ED6464",
"K+	c #FD6158",
"L+	c #ED5F62",
"M+	c #80383A",
"N+	c #C95456",
"O+	c #FD5C60",
"P+	c #FF5C5F",
"Q+	c #FE5D5D",
"R+	c #FC5F5B",
"S+	c #FB5E64",
"T+	c #DD626A",
"U+	c #7A3437",
"V+	c #C95D5C",
"W+	c #FE5761",
"X+	c #FC5C60",
"Y+	c #CE5C5E",
"Z+	c #411B1C",
"`+	c #030406",
" @	c #0E0202",
".@	c #A14547",
"+@	c #E4605D",
"@@	c #8A3A36",
"#@	c #C45360",
"$@	c #F95B63",
"%@	c #FF585E",
"&@	c #FA5E5A",
"*@	c #F96252",
"=@	c #FF5951",
"-@	c #FD5B5C",
";@	c #E2605F",
">@	c #83322F",
",@	c #CA5D5C",
"'@	c #C85B5C",
")@	c #3E1B17",
"!@	c #050508",
"~@	c #030101",
"{@	c #140606",
"]@	c #552120",
"^@	c #B95A5D",
"/@	c #F85E66",
"(@	c #FD5B5F",
"_@	c #FC5D5B",
":@	c #FC5B5F",
"<@	c #F65F5E",
"[@	c #F46359",
"}@	c #FD5E57",
"|@	c #FF5857",
"1@	c #E56065",
"2@	c #673730",
"3@	c #271C13",
"4@	c #060204",
"5@	c #040507",
"6@	c #2A2029",
"7@	c #A64346",
"8@	c #F0625A",
"9@	c #FF5C5B",
"0@	c #FF5D59",
"a@	c #FE5B56",
"b@	c #FD5A59",
"c@	c #FD5B5E",
"d@	c #FE5D61",
"e@	c #FD5D60",
"f@	c #F95E5F",
"g@	c #CE5958",
"h@	c #7B373A",
"i@	c #6C2C37",
"j@	c #0B0203",
"k@	c #030403",
"l@	c #272626",
"m@	c #322E32",
"n@	c #2B2320",
"o@	c #964A4A",
"p@	c #F45D69",
"q@	c #FC5B5D",
"r@	c #FB5D5A",
"s@	c #FE5958",
"t@	c #FF595C",
"u@	c #FE5A5F",
"v@	c #F96160",
"w@	c #D15959",
"x@	c #803430",
"y@	c #EA5E62",
"z@	c #E45E5F",
"A@	c #6B322B",
"B@	c #060100",
"C@	c #242523",
"D@	c #352E2F",
"E@	c #342D32",
"F@	c #2C322E",
"G@	c #2D231C",
"H@	c #964A4C",
"I@	c #EA6367",
"J@	c #F36165",
"K@	c #EC6468",
"L@	c #EE616B",
"M@	c #F45D6C",
"N@	c #F0626C",
"O@	c #C65D5B",
"P@	c #7D3730",
"Q@	c #EC5B60",
"R@	c #FA5F5E",
"S@	c #F55F59",
"T@	c #E55D61",
"U@	c #6B2E30",
"V@	c #080101",
"W@	c #222122",
"X@	c #30322F",
"Y@	c #332E2D",
"Z@	c #372D33",
"`@	c #2F3133",
" #	c #2C332F",
".#	c #221D1B",
"+#	c #3E1C16",
"@#	c #421C15",
"##	c #421D15",
"$#	c #421C16",
"%#	c #441B18",
"&#	c #451B17",
"*#	c #421D18",
"=#	c #3D1B17",
"-#	c #622425",
";#	c #E16164",
">#	c #FD5A5E",
",#	c #F95F55",
"'#	c #E26168",
")#	c #582A28",
"!#	c #2D2D2D",
"~#	c #2E322F",
"{#	c #2F312E",
"]#	c #342E30",
"^#	c #362C32",
"/#	c #252224",
"(#	c #000903",
"_#	c #000D06",
":#	c #6C2B2F",
"<#	c #F86063",
"[#	c #FE5E56",
"}#	c #FF5A54",
"|#	c #F16264",
"1#	c #8C3337",
"2#	c #303030",
"3#	c #2E3130",
"4#	c #342D2E",
"5#	c #222222",
"6#	c #000606",
"7#	c #120303",
"8#	c #1A0505",
"9#	c #692D2D",
"0#	c #F5635B",
"a#	c #FF5C5C",
"b#	c #FD5C5C",
"c#	c #EB6563",
"d#	c #8B3435",
"e#	c #312F31",
"f#	c #2E312F",
"g#	c #2F302F",
"h#	c #212422",
"i#	c #000B0A",
"j#	c #6A2C2B",
"k#	c #F7605C",
"l#	c #FE5C5F",
"m#	c #F56062",
"n#	c #7C3936",
"o#	c #202020",
"p#	c #212121",
"q#	c #2C2C2C",
"r#	c #303032",
"s#	c #2F3032",
"t#	c #31302F",
"u#	c #352E2D",
"v#	c #362E31",
"w#	c #272529",
"x#	c #000102",
"y#	c #020F0B",
"z#	c #6A2C2C",
"A#	c #F76065",
"B#	c #FB5E5B",
"C#	c #F85E62",
"D#	c #813534",
"E#	c #272727",
"F#	c #303031",
"G#	c #30302F",
"H#	c #313130",
"I#	c #2A2124",
"J#	c #2E0E0C",
"K#	c #320F0D",
"L#	c #30100E",
"M#	c #330D0F",
"N#	c #390B10",
"O#	c #381312",
"P#	c #652424",
"Q#	c #E66369",
"R#	c #FD5A61",
"S#	c #FE575E",
"T#	c #EA646A",
"U#	c #5E332D",
"V#	c #292925",
"W#	c #303033",
"X#	c #233733",
"Y#	c #282B22",
"Z#	c #863E3D",
"`#	c #DE5D5E",
" $	c #E55A5C",
".$	c #E35B61",
"+$	c #E35B62",
"@$	c #E7595F",
"#$	c #E75B5F",
"$$	c #BD5151",
"%$	c #8D3C3B",
"&$	c #EF5F64",
"*$	c #FE5B5E",
"=$	c #FD5C59",
"-$	c #EE5D61",
";$	c #863B3E",
">$	c #050706",
",$	c #0E0F0B",
"'$	c #2E2D2A",
")$	c #332E32",
"!$	c #2F2828",
"~$	c #873E3E",
"{$	c #EF6063",
"]$	c #FD5C5D",
"^$	c #F56259",
"/$	c #F46452",
"($	c #FE5B55",
"_$	c #F55F62",
":$	c #C05457",
"<$	c #8C3935",
"[$	c #EC5F62",
"}$	c #E96061",
"|$	c #81403A",
"1$	c #100403",
"2$	c #0B0C0B",
"3$	c #2A1E1E",
"4$	c #874143",
"5$	c #EB6368",
"6$	c #FF595B",
"7$	c #FF565D",
"8$	c #F96156",
"9$	c #FC5C57",
"0$	c #F66064",
"a$	c #B85654",
"b$	c #83423F",
"c$	c #763D3B",
"d$	c #1C0706",
"e$	c #020102",
"f$	c #040205",
"g$	c #220D09",
"h$	c #C25F5D",
"i$	c #FB5C5F",
"j$	c #FD5C58",
"k$	c #FC5D5E",
"l$	c #FE5C63",
"m$	c #FD5A63",
"n$	c #EC616B",
"o$	c #643C37",
"p$	c #040506",
"q$	c #010101",
"r$	c #451E1C",
"s$	c #C95F5E",
"t$	c #FC585D",
"u$	c #FE5C59",
"v$	c #FD5E58",
"w$	c #FC5F5D",
"x$	c #F96158",
"y$	c #FA5E57",
"z$	c #FA5E5F",
"A$	c #EA6066",
"B$	c #7C3A44",
"C$	c #090503",
"D$	c #4E1B18",
"E$	c #CC5D5D",
"F$	c #F95F61",
"G$	c #FA5E5E",
"H$	c #FE585A",
"I$	c #FD585D",
"J$	c #E86465",
"K$	c #873737",
"L$	c #180508",
"M$	c #0E0503",
"N$	c #41211E",
"O$	c #9B4D4B",
"P$	c #A34C4B",
"Q$	c #A24C4B",
"R$	c #A24D4B",
"S$	c #9D4F4A",
"T$	c #A24E47",
"U$	c #AE4847",
"V$	c #AA474A",
"W$	c #713736",
"X$	c #0D0C07",
"Y$	c #0E0402",
"Z$	c #0E0303",
"                                                                                                    ",
"                . + @ @ @ @ @ @ @ @ @ @ @ @ @ @ @ @ @ @ @ @ @ @ @ @ @ @ @ # $ % & * =               ",
"              - ; > , , ' , , , , , , ' , , , , ' , , , , , , ' , , , , , ) ! ~ { ] ^               ",
"      /     . ( _ : < [ } [ < < [ < [ } [ < < [ } [ < < < < [ } [ < < [ < | 1 2 3 4 5 6 7           ",
"      8   9 0 a b c b } b } b d } b } b } d d } b } b } d b } b } d d } b e f g h i j k l m         ",
"        n o p q r s t t t t t t t t t t t t t t t t t t t t t t t t t t t t u v w x y z A B C       ",
"        D E F G H I J J J J J J J J J J J J J J J J J J J J J J J J J J J K K L M N O P Q R S T U   ",
"  V W X Y Z `  ...+.@.@.@.@.@.@.@.@.@.@.@.@.@.@.@.@.@.@.@.@.@.@.@.@.@.@.@.#.$.%.&.*.=.-.;.>.,.'.    ",
"  ).!.~.{.].^./.(._.:.:.:.:.:.:.:.:.:.:.:.:.:.:.:.:.:.:.:.:.:.:.:.:.:.:.:.<.[.}.|.1.2.3.4.5.6.7.8.  ",
"  9.0.a.b.c.d.e.f.g.h.h.h.h.h.h.h.h.. h.h.h.h.h.h.h.h.h.h.h.h.h.h.h.h.h.h.i.j.. k.l.m.n.o.p.q.r.s.  ",
"  t.u.v.w.x.y.z.A.B.                                                        . C.D.E.F.G.H.I.J.K.L.  ",
"  M.N.O.P.Q.R.S.T..                                                         U.V.W.X.Y.Z.`. +.+++@+  ",
"  #+$+%+`.&+*+.+=+.                                                           -+  ;+>+d ,+'+)+!+~+  ",
"  {+]+^+/+(+v._+:+.                                                               <+[+}+,+|+1+!+2+  ",
"  {+]+^+/+(+v._+:+.                                                               <+[+}+,+|+1+!+2+  ",
"  {+]+^+/+(+v._+:+.                                                               <+[+}+,+|+1+!+2+  ",
"  {+]+^+/+(+v._+:+.                                                               <+[+}+,+|+1+!+2+  ",
"  {+]+^+/+(+v._+:+.                                                               <+[+}+,+|+1+!+2+  ",
"  {+]+^+/+(+v._+:+.                                                               <+[+}+,+|+1+!+2+  ",
"  {+]+^+/+(+v._+:+.                                                               <+[+}+,+|+1+!+2+  ",
"  {+]+^+/+(+v._+:+.                                                               <+[+}+,+|+1+!+2+  ",
"  {+]+^+/+(+v._+:+.                                                               <+[+}+,+|+1+!+2+  ",
"  {+]+^+/+(+v._+:+.                                                               <+[+}+,+|+1+!+2+  ",
"  {+]+^+/+(+v._+:+.                                                               <+[+}+,+|+1+!+2+  ",
"  {+]+^+/+(+v._+:+.                                                               <+[+}+,+|+1+!+2+  ",
"  {+]+^+/+(+v._+:+.                                                               <+[+}+,+|+1+!+2+  ",
"  {+]+^+/+(+v._+:+.                                                               <+[+}+,+|+1+!+2+  ",
"  {+]+^+/+(+v._+:+.                                                               <+[+}+,+|+1+!+2+  ",
"  {+]+^+/+(+v._+:+.                                                               <+[+}+,+|+1+!+2+  ",
"  {+]+^+/+(+v._+:+.                                                               <+[+}+,+|+1+!+2+  ",
"  {+]+^+/+(+v._+:+.                                                               <+[+}+,+|+1+!+2+  ",
"  {+]+^+/+(+v._+:+.                                                               <+[+}+,+|+1+!+2+  ",
"  {+]+^+/+(+v._+:+.                                                               <+[+}+,+|+1+!+2+  ",
"  {+]+^+/+(+v._+:+.                                                               <+[+}+,+|+1+!+2+  ",
"  {+]+^+/+(+v._+:+.                                                               <+[+}+,+|+1+!+2+  ",
"  {+]+^+/+(+v._+:+.                                                               <+[+}+,+|+1+!+2+  ",
"  {+]+^+/+(+v._+:+.                                                               <+[+}+,+|+1+!+2+  ",
"  {+]+^+/+(+v._+:+.                                                               <+[+}+,+|+1+!+2+  ",
"  {+]+^+/+(+v._+:+.                                                               <+[+}+,+|+1+!+2+  ",
"  {+]+3+/+(+v._+:+.                                                               <+[+}+,+|+4+!+2+  ",
"  5+6+7+4.8+9+0+a+b+                                                            c+d+e+f+g+: h+i+j+  ",
"  k+l+m+n+o+p+q+r+s+t+u+t+u+t+t+t+t+u+t+t+t+t+u+t+u+t+t+t+t+u+t+u+t+t+t+t+v+w+x+y+z+A+B+C+D+E+F+G+  ",
"    H+I+J+K+L+M+N+O+P+P+P+P+P+P+P+P+P+P+P+P+P+P+P+P+P+P+P+P+P+P+P+P+P+P+P+Q+R+'+S+T+U+V+W+X+Y+Z+`+  ",
"       @.@+@@@#@$@d b b b b b b b b b b b b b b b b b b b b b b b b b b b %@&@*@=@-@;@>@,@'@)@  !@  ",
"      ~@{@]@^@/@(@_@f f f f f f f f f f f f f f f f f f f f f f f f f f f :@<@[@}@|@$.1@2@3@  C 4@  ",
"        5@6@7@8@Z 9@0@0@0@0@0@0@0@0@0@0@0@0@0@0@0@0@0@0@0@0@0@0@0@0@0@0@0@a@b@c@d@e@f@g@h@i@j@      ",
"      k@l@m@n@o@p@q@r@r@r@r@r@r@r@r@r@r@r@r@r@r@r@r@r@r@r@r@r@r@r@r@r@r@r@s@t@u@p+v@w@x@y@z@A@B@    ",
"      C@D@E@F@G@H@I@J@J@J@J@J@J@J@J@J@J@J@J@J@J@J@J@J@J@J@J@J@J@J@J@J@J@J@K@L@M@N@O@P@Q@R@S@T@U@V@  ",
"    W@X@Y@Z@`@ #.#+#@###@###@#@###@###@###@#@###@###@#####@###@###@#@###$#%#&#*#=#-#;#>#,#9+h '#)#  ",
"    !#~#{#]#^#E@/#                                                          b+(#_#:#<#Y.[#}#)+|#1#  ",
"    !#2#3#{#Y@4#5#                                                        6#7#8#  9#0#&+a#} b#c#d#  ",
"    !#e#2#f#{#g#h#                                                        i#      j#k#h+l#$.u m#n#  ",
"    !#2#2#2#2#2#o#                                                                <+[+}+,+|+1+!+2+  ",
"    !#2#2#2#2#2#p#                                                                <+[+}+,+|+1+!+2+  ",
"    !#2#2#2#2#2#p#                                                                <+[+}+,+|+1+!+2+  ",
"    !#2#2#2#2#2#p#                                                                <+[+}+,+|+1+!+2+  ",
"    !#2#2#2#2#2#p#                                                                <+[+}+,+|+1+!+2+  ",
"    !#2#2#2#2#2#p#                                                                <+[+}+,+|+1+!+2+  ",
"    !#2#2#2#2#2#p#                                                                <+[+}+,+|+1+!+2+  ",
"    !#2#2#2#2#2#p#                                                                <+[+}+,+|+1+!+2+  ",
"    !#2#2#2#2#2#p#                                                                <+[+}+,+|+1+!+2+  ",
"    !#2#2#2#2#2#p#                                                                <+[+}+,+|+1+!+2+  ",
"    !#2#2#2#2#2#p#                                                                <+[+}+,+|+1+!+2+  ",
"    !#2#2#2#2#2#p#                                                                <+[+}+,+|+1+!+2+  ",
"    !#2#2#2#2#2#p#                                                                <+[+}+,+|+1+!+2+  ",
"    !#2#2#2#2#2#p#                                                                <+[+}+,+|+1+!+2+  ",
"    !#2#2#2#2#2#p#                                                                <+[+}+,+|+1+!+2+  ",
"    !#2#2#2#2#2#p#                                                                <+[+}+,+|+1+!+2+  ",
"    !#2#2#2#2#2#p#                                                                <+[+}+,+|+1+!+2+  ",
"    !#2#2#2#2#2#p#                                                                <+[+}+,+|+1+!+2+  ",
"    !#2#2#2#2#2#p#                                                                <+[+}+,+|+1+!+2+  ",
"    !#2#2#2#2#2#p#                                                                <+[+}+,+|+1+!+2+  ",
"    !#2#2#2#2#2#p#                                                                <+[+}+,+|+1+!+2+  ",
"    !#2#2#2#2#2#p#                                                                <+[+}+,+|+1+!+2+  ",
"    !#2#2#2#2#2#p#                                                                <+[+}+,+|+1+!+2+  ",
"    !#2#2#2#2#2#p#                                                                <+[+}+,+|+1+!+2+  ",
"    !#2#2#2#2#2#p#                                                                <+[+}+,+|+1+!+2+  ",
"    !#2#2#2#2#2#p#                                                                <+[+}+,+|+1+!+2+  ",
"    !#2#2#2#2#2#o#                                                                <+[+}+,+|+1+!+2+  ",
"    q#r#s#t#u#v#w#                                                            x#y#z#A# +t@B#B#C#D#  ",
"    E#F#e#G#~#H#I#J#K#K#K#K#K#K#K#K#K#K#K#K#K#K#K#K#K#K#K#K#K#K#K#K#K#K#K#L#M#N#O#P#Q#R#b#I S#T#U#  ",
"    / V#u#W#X#Y#Z#`# $ $ $ $ $ $ $ $ $ $ $ $ $ $ $ $ $ $ $ $ $ $ $ $ $ $ $.$+$@$#$$$%$&$*$=$-$;$>$  ",
"      ,$'$)$!$~${$B# +|  +|  + +|  +|  +|  + +|  +|  +| |  +|  +|  + +|  +]$^$/$($_$:$<$[$}$|$1$    ",
"        2$3$4$5$x.6$.+.+.+.+.+.+.+.+.+.+.+.+.+.+.+.+.+.+.+.+.+.+.+.+.+.+.+7$b 8$9$*$0$a$b$c$d$      ",
"      e$f$g$h$i$j$[ D+< D+< D+< < D+< D+< < < < D+< D+< < D+< D+< < < < D+k$l$m$X+&@&@n$o$p$h.      ",
"        q$  r$s$t$u$c v$< [ < < < < [ < < < < < < [ < < < < [ < [ < < < < ,+w$x$y$z$A$B$ @q$        ",
"            C$D$E$F$(+(+c@c@c@c@c@c@c@c@c@c@c@c@c@c@c@c@c@c@c@c@c@c@c@c@c@G$G.H$I$J$K$L$            ",
"              M$N$O$P$Q$P$R$P$P$Q$P$R$P$Q$P$P$Q$P$R$P$Q$P$P$R$P$R$P$P$Q$P$S$T$U$V$W$X$              ",
"                                                                              Y$Z$                  ",
"                                                                                                    "};
