/* XPM */
static char * wallwater_border_top_3_xpm[] = {
"32 32 711 2",
"  	c #9DAA13",
". 	c #728927",
"+ 	c #73A10E",
"@ 	c #4B5F35",
"# 	c #4E5441",
"$ 	c #6B7932",
"% 	c #8BA51A",
"& 	c #748033",
"* 	c #44473C",
"= 	c #58613D",
"- 	c #535941",
"; 	c #575D3D",
"> 	c #73822D",
", 	c #6F7E2C",
"' 	c #637231",
") 	c #667236",
"! 	c #779126",
"~ 	c #6B7A31",
"{ 	c #71802D",
"] 	c #57653D",
"^ 	c #697635",
"/ 	c #717F2B",
"( 	c #5F6833",
"_ 	c #4A4D3D",
": 	c #515542",
"< 	c #5A663D",
"[ 	c #5A7236",
"} 	c #55663B",
"| 	c #677631",
"1 	c #93A01C",
"2 	c #8FA718",
"3 	c #83A118",
"4 	c #638E16",
"5 	c #4C5439",
"6 	c #45473C",
"7 	c #54603C",
"8 	c #628525",
"9 	c #748A25",
"0 	c #4B4E3F",
"a 	c #67762D",
"b 	c #6C7931",
"c 	c #4E5141",
"d 	c #595F3F",
"e 	c #5E683A",
"f 	c #535F3F",
"g 	c #73822C",
"h 	c #5C6B38",
"i 	c #667432",
"j 	c #5F6D36",
"k 	c #65782D",
"l 	c #61881E",
"m 	c #6B8C2C",
"n 	c #43453C",
"o 	c #515442",
"p 	c #657233",
"q 	c #6E7D2E",
"r 	c #565C3F",
"s 	c #545C40",
"t 	c #6F9C0F",
"u 	c #95AA12",
"v 	c #9EAA11",
"w 	c #677935",
"x 	c #4C5A38",
"y 	c #436930",
"z 	c #679806",
"A 	c #7CA90B",
"B 	c #729425",
"C 	c #5B693C",
"D 	c #5D673B",
"E 	c #717F2F",
"F 	c #5B633C",
"G 	c #525742",
"H 	c #636F33",
"I 	c #535A3D",
"J 	c #515642",
"K 	c #5E6C37",
"L 	c #58663C",
"M 	c #4D702F",
"N 	c #73A20D",
"O 	c #759F1D",
"P 	c #5C6C3B",
"Q 	c #505342",
"R 	c #4E5140",
"S 	c #4F5A3F",
"T 	c #4E5340",
"U 	c #43493B",
"V 	c #617635",
"W 	c #669415",
"X 	c #6D8629",
"Y 	c #92A816",
"Z 	c #A1B00A",
"` 	c #91A11C",
" .	c #6D832D",
"..	c #578322",
"+.	c #6E8E21",
"@.	c #67752D",
"#.	c #769026",
"$.	c #71802E",
"%.	c #5A693A",
"&.	c #6B7A2D",
"*.	c #68772D",
"=.	c #658725",
"-.	c #69782E",
";.	c #626F33",
">.	c #474B3E",
",.	c #4A4C3F",
"'.	c #5D7F2C",
").	c #516C32",
"!.	c #5D6937",
"~.	c #4D6037",
"{.	c #46503B",
"].	c #4E5A3F",
"^.	c #56782F",
"/.	c #565E3E",
"(.	c #647C2C",
"_.	c #698C26",
":.	c #7A9822",
"<.	c #80AB1F",
"[.	c #8DAE1B",
"}.	c #779426",
"|.	c #717F2D",
"1.	c #6D712F",
"2.	c #707D2D",
"3.	c #51663B",
"4.	c #689515",
"5.	c #669605",
"6.	c #637C2C",
"7.	c #545841",
"8.	c #555D3A",
"9.	c #566B34",
"0.	c #689904",
"a.	c #5D7C2B",
"b.	c #7D9E20",
"c.	c #555B3F",
"d.	c #5C673C",
"e.	c #697E2F",
"f.	c #7B8D28",
"g.	c #859325",
"h.	c #6D802B",
"i.	c #6B7A2C",
"j.	c #627133",
"k.	c #515A41",
"l.	c #4F5241",
"m.	c #45483C",
"n.	c #5F8F14",
"o.	c #5D7439",
"p.	c #70942B",
"q.	c #89A821",
"r.	c #85AF1D",
"s.	c #9EB414",
"t.	c #9CB114",
"u.	c #789B26",
"v.	c #68812F",
"w.	c #5C8A2C",
"x.	c #83B70C",
"y.	c #74A914",
"z.	c #536F39",
"A.	c #7C8A2D",
"B.	c #9DA913",
"C.	c #749623",
"D.	c #5E7F2F",
"E.	c #798B27",
"F.	c #9FB80E",
"G.	c #769327",
"H.	c #769B27",
"I.	c #87A620",
"J.	c #9EAE0D",
"K.	c #81A01E",
"L.	c #869823",
"M.	c #697B30",
"N.	c #5C633D",
"O.	c #50573B",
"P.	c #515742",
"Q.	c #565C40",
"R.	c #537729",
"S.	c #547D29",
"T.	c #556C3C",
"U.	c #526D3A",
"V.	c #567637",
"W.	c #4A6816",
"X.	c #4E7209",
"Y.	c #90A913",
"Z.	c #A1B911",
"`.	c #A9BF04",
" +	c #89AE1E",
".+	c #81B11A",
"++	c #538030",
"@+	c #566F3C",
"#+	c #5F743B",
"$+	c #8C9C26",
"%+	c #90A022",
"&+	c #66822F",
"*+	c #7C9A23",
"=+	c #A7BF06",
"-+	c #7AA41F",
";+	c #658A14",
">+	c #5D7E08",
",+	c #5C701A",
"'+	c #637A27",
")+	c #5D802F",
"!+	c #4F5540",
"~+	c #44473D",
"{+	c #46493D",
"]+	c #758A2D",
"^+	c #7EA223",
"/+	c #769A25",
"(+	c #698A2A",
"_+	c #56783B",
":+	c #4B6736",
"<+	c #3F5A29",
"[+	c #29460C",
"}+	c #223111",
"|+	c #43631E",
"1+	c #759925",
"2+	c #A3BC0C",
"3+	c #8BB11E",
"4+	c #98B714",
"5+	c #93AC1D",
"6+	c #658237",
"7+	c #57773B",
"8+	c #5F7739",
"9+	c #788B31",
"0+	c #618332",
"a+	c #668933",
"b+	c #85A325",
"c+	c #629708",
"d+	c #4A7D01",
"e+	c #376400",
"f+	c #374404",
"g+	c #566421",
"h+	c #699D10",
"i+	c #6C8331",
"j+	c #606D32",
"k+	c #5D6A37",
"l+	c #6B892F",
"m+	c #71912F",
"n+	c #6D8B32",
"o+	c #58733B",
"p+	c #55703C",
"q+	c #526E34",
"r+	c #3F5918",
"s+	c #1E2D0F",
"t+	c #1A2310",
"u+	c #222315",
"v+	c #717E21",
"w+	c #6E8D1B",
"x+	c #486321",
"y+	c #6F8E22",
"z+	c #97AF08",
"A+	c #9DB506",
"B+	c #7B9520",
"C+	c #4E6817",
"D+	c #455B1A",
"E+	c #456D25",
"F+	c #598231",
"G+	c #698A25",
"H+	c #476C03",
"I+	c #3F6C00",
"J+	c #4D5702",
"K+	c #5A6600",
"L+	c #617107",
"M+	c #98B014",
"N+	c #7DA522",
"O+	c #6B842A",
"P+	c #72822C",
"Q+	c #72812C",
"R+	c #547238",
"S+	c #577A3B",
"T+	c #55723C",
"U+	c #57783B",
"V+	c #5B6E2F",
"W+	c #3A500F",
"X+	c #353F04",
"Y+	c #1B3205",
"Z+	c #162D09",
"`+	c #1F2612",
" @	c #5C6411",
".@	c #3F490B",
"+@	c #253413",
"@@	c #2A4212",
"#@	c #3A5A05",
"$@	c #4C620B",
"%@	c #5A6801",
"&@	c #3A4F01",
"*@	c #2A3D06",
"=@	c #2A4E08",
"-@	c #508000",
";@	c #426601",
">@	c #586700",
",@	c #5E6800",
"'@	c #304603",
")@	c #4E6D03",
"!@	c #678B30",
"~@	c #5E8633",
"{@	c #5A8233",
"]@	c #647B37",
"^@	c #5B683A",
"/@	c #6A8D20",
"(@	c #658C30",
"_@	c #668834",
":@	c #58722F",
"<@	c #2F3517",
"[@	c #384505",
"}@	c #375000",
"|@	c #254500",
"1@	c #283C2C",
"2@	c #3D4D2A",
"3@	c #3B4C00",
"4@	c #282E11",
"5@	c #212111",
"6@	c #3E5500",
"7@	c #2D4308",
"8@	c #1D1F13",
"9@	c #20250F",
"0@	c #283504",
"a@	c #2B3C0C",
"b@	c #29330D",
"c@	c #333E02",
"d@	c #3D5300",
"e@	c #4F5C01",
"f@	c #364902",
"g@	c #2D3706",
"h@	c #282F0F",
"i@	c #43580D",
"j@	c #5D7831",
"k@	c #4C6834",
"l@	c #5A7736",
"m@	c #546D3B",
"n@	c #526D34",
"o@	c #4C6605",
"p@	c #4E6717",
"q@	c #5C761A",
"r@	c #3C530B",
"s@	c #223306",
"t@	c #3C5100",
"u@	c #5A896C",
"v@	c #3A8D9E",
"w@	c #378BA2",
"x@	c #568375",
"y@	c #496147",
"z@	c #3D544E",
"A@	c #3D6568",
"B@	c #2E8995",
"C@	c #202513",
"D@	c #161710",
"E@	c #121A0D",
"F@	c #2C4903",
"G@	c #2E4B00",
"H@	c #354601",
"I@	c #323E03",
"J@	c #2F3C0B",
"K@	c #223805",
"L@	c #375800",
"M@	c #294408",
"N@	c #242B11",
"O@	c #242A11",
"P@	c #2B361B",
"Q@	c #5B7B21",
"R@	c #6B8D28",
"S@	c #56763C",
"T@	c #729729",
"U@	c #343F04",
"V@	c #212710",
"W@	c #1A2210",
"X@	c #213D03",
"Y@	c #1D3F31",
"Z@	c #6EAFAB",
"`@	c #559DA2",
" #	c #074159",
".#	c #043E5A",
"+#	c #197891",
"@#	c #2F8BA1",
"##	c #50A4B4",
"$#	c #59A6B1",
"%#	c #498FA1",
"&#	c #3B93A7",
"*#	c #2986A3",
"=#	c #4298B1",
"-#	c #4098A6",
";#	c #49705B",
">#	c #30605B",
",#	c #356D6A",
"'#	c #37686C",
")#	c #1B5A5C",
"!#	c #528C67",
"~#	c #62B3B1",
"{#	c #2B5B5B",
"]#	c #354402",
"^#	c #344002",
"/#	c #343D09",
"(#	c #465E27",
"_#	c #5B792A",
":#	c #5D7211",
"<#	c #212A0E",
"[#	c #1B1D11",
"}#	c #14150E",
"|#	c #161E09",
"1#	c #50A0AC",
"2#	c #3F7986",
"3#	c #00324C",
"4#	c #07374F",
"5#	c #08344B",
"6#	c #094057",
"7#	c #367285",
"8#	c #3A7A8E",
"9#	c #3B768B",
"0#	c #285E75",
"a#	c #20556C",
"b#	c #23566A",
"c#	c #3A6E82",
"d#	c #407A8C",
"e#	c #357785",
"f#	c #0E5A6C",
"g#	c #326E77",
"h#	c #2E6B7B",
"i#	c #31768D",
"j#	c #246976",
"k#	c #18586A",
"l#	c #318893",
"m#	c #374802",
"n#	c #4E5A00",
"o#	c #354802",
"p#	c #313B08",
"q#	c #3A4404",
"r#	c #394404",
"s#	c #1E200B",
"t#	c #100C00",
"u#	c #0B5D72",
"v#	c #2489A5",
"w#	c #3F899C",
"x#	c #24667C",
"y#	c #2A6D82",
"z#	c #2A6577",
"A#	c #408596",
"B#	c #388597",
"C#	c #39889D",
"D#	c #2C798F",
"E#	c #236F84",
"F#	c #175567",
"G#	c #0D4055",
"H#	c #0A3F54",
"I#	c #1B4D63",
"J#	c #31687E",
"K#	c #316D82",
"L#	c #255B6F",
"M#	c #1E5267",
"N#	c #084E68",
"O#	c #16526D",
"P#	c #2F6882",
"Q#	c #377189",
"R#	c #46889A",
"S#	c #41949F",
"T#	c #39675E",
"U#	c #4F5800",
"V#	c #475600",
"W#	c #384200",
"X#	c #26403F",
"Y#	c #1F7F92",
"Z#	c #0A7791",
"`#	c #076984",
" $	c #2A6F86",
".$	c #1E6987",
"+$	c #237690",
"@$	c #267487",
"#$	c #286B78",
"$$	c #246E7F",
"%$	c #176679",
"&$	c #13758F",
"*$	c #2183A4",
"=$	c #247E98",
"-$	c #1C6172",
";$	c #13657D",
">$	c #0D6B88",
",$	c #0B6987",
"'$	c #0B6885",
")$	c #0C6985",
"!$	c #1E7084",
"~$	c #207086",
"{$	c #096D8B",
"]$	c #3A8DA5",
"^$	c #3988A0",
"/$	c #37849C",
"($	c #337A93",
"_$	c #40859A",
":$	c #4293A4",
"<$	c #4A9BA4",
"[$	c #378A93",
"}$	c #237486",
"|$	c #157083",
"1$	c #186D7F",
"2$	c #186D81",
"3$	c #156575",
"4$	c #196777",
"5$	c #1A697A",
"6$	c #1A6677",
"7$	c #17606F",
"8$	c #17616F",
"9$	c #186776",
"0$	c #147589",
"a$	c #167386",
"b$	c #176372",
"c$	c #167285",
"d$	c #127892",
"e$	c #147690",
"f$	c #166473",
"g$	c #186373",
"h$	c #127A94",
"i$	c #0D7D9C",
"j$	c #0D7D9B",
"k$	c #0E7C9A",
"l$	c #14778D",
"m$	c #176E82",
"n$	c #196C7E",
"o$	c #1A6B7C",
"p$	c #126577",
"q$	c #127891",
"r$	c #0E7D9B",
"s$	c #107B97",
"t$	c #167286",
"u$	c #196978",
"v$	c #196B7C",
"w$	c #157284",
"x$	c #177082",
"y$	c #1B697A",
"z$	c #186778",
"A$	c #16606E",
"B$	c #166F81",
"C$	c #186E80",
"D$	c #19697B",
"E$	c #165E6C",
"F$	c #166576",
"G$	c #117893",
"H$	c #0C7E9D",
"I$	c #0F7A98",
"J$	c #127993",
"K$	c #147790",
"L$	c #166F82",
"M$	c #136376",
"N$	c #14758A",
"O$	c #0F7B98",
"P$	c #13778E",
"Q$	c #167087",
"R$	c #187083",
"S$	c #147488",
"T$	c #196A7C",
"U$	c #167184",
"V$	c #186678",
"W$	c #12788F",
"X$	c #157285",
"Y$	c #196372",
"Z$	c #1A6B7D",
"`$	c #127992",
" %	c #117B96",
".%	c #186C7F",
"+%	c #0E7B98",
"@%	c #0F7C98",
"#%	c #176F85",
"$%	c #196272",
"%%	c #176475",
"&%	c #1B6A7B",
"*%	c #157386",
"=%	c #117A96",
"-%	c #17758A",
";%	c #176D81",
">%	c #137A90",
",%	c #0F7B97",
"'%	c #0C7D9D",
")%	c #137791",
"!%	c #0D7E9C",
"~%	c #137A92",
"{%	c #15758C",
"]%	c #157488",
"^%	c #15748A",
"/%	c #0F7C9A",
"(%	c #0E7D9A",
"_%	c #176C80",
":%	c #186F82",
"<%	c #117790",
"[%	c #097DA0",
"}%	c #19697A",
"|%	c #196B7D",
"1%	c #186E82",
"2%	c #196373",
"3%	c #157286",
"4%	c #156C7F",
"5%	c #165E6B",
"6%	c #176879",
"7%	c #117894",
"8%	c #0A7C9E",
"9%	c #0E7B9A",
"0%	c #167084",
"a%	c #176D83",
"b%	c #18697A",
"c%	c #127A95",
"d%	c #14788D",
"e%	c #157387",
"f%	c #18606F",
"g%	c #186877",
"h%	c #196776",
"i%	c #13768D",
"j%	c #14768A",
"k%	c #166575",
"l%	c #186372",
"m%	c #186978",
"n%	c #176777",
"o%	c #156A7E",
"p%	c #186474",
"q%	c #186F81",
"r%	c #186B7F",
"s%	c #0F7B9A",
"t%	c #166E80",
"u%	c #167186",
"v%	c #117892",
"w%	c #117B97",
"x%	c #167185",
"y%	c #177188",
"z%	c #1A6879",
"A%	c #196879",
"B%	c #1A6979",
"C%	c #13778F",
"D%	c #156E82",
"E%	c #157082",
"F%	c #12778E",
"G%	c #0C7B9C",
"H%	c #14748A",
"I%	c #15697A",
"J%	c #14768B",
"K%	c #167387",
"L%	c #176F81",
"M%	c #157183",
"N%	c #175F6D",
"O%	c #176575",
"P%	c #186A7B",
"Q%	c #14758C",
"R%	c #0F7C9B",
"S%	c #12778F",
"T%	c #147286",
"U%	c #196A7D",
"V%	c #117992",
"W%	c #0C7F9D",
"X%	c #13768C",
"Y%	c #165F6E",
"Z%	c #186A7C",
"`%	c #1A6778",
" &	c #186B7D",
".&	c #166C82",
"+&	c #196B7E",
"@&	c #196473",
"#&	c #176373",
"$&	c #166776",
"%&	c #057EA4",
"&&	c #0A7DA0",
"*&	c #13778D",
"=&	c #177084",
"-&	c #137991",
";&	c #13788E",
">&	c #185F6E",
",&	c #176A79",
"'&	c #127B95",
")&	c #13788F",
"!&	c #186777",
"~&	c #0A7DA1",
"{&	c #147389",
"]&	c #186575",
"^&	c #186C7D",
"/&	c #0C7E9E",
"(&	c #156D84",
"_&	c #137B91",
":&	c #176473",
"<&	c #186574",
"[&	c #1A6574",
"}&	c #166372",
"|&	c #186677",
"1&	c #147489",
"2&	c #176476",
"3&	c #176979",
"4&	c #166675",
"5&	c #176978",
"6&	c #186C80",
"7&	c #186473",
"8&	c #176A7C",
"9&	c #137B92",
"0&	c #147588",
"a&	c #186A7A",
"b&	c #196877",
"c&	c #176D80",
"d&	c #137893",
"e&	c #107B96",
"f&	c #166C7F",
"g&	c #156E81",
"h&	c #157287",
"i&	c #156F84",
"j&	c #1A6777",
"k&	c #176A7A",
"l&	c #166273",
"m&	c #176A7D",
"n&	c #176A7B",
"o&	c #196E83",
"p&	c #156A7C",
"q&	c #196170",
"r&	c #196574",
"s&	c #17697A",
"t&	c #0B7C9D",
"u&	c #15697C",
"v&	c #13758E",
"w&	c #13768B",
"x&	c #0C7D9E",
"y&	c #196D7F",
"z&	c #196A7B",
"A&	c #1A6A7B",
"B&	c #14758B",
"  . + @ # $ % & * * = - ; > , ' ) ! ' ~ { ] ^ / ( _ : < [ } | 1 ",
"2 3 4 5 6 7 8 9 0 * a b c d e f g ) h , i j k l m n o p q r s | ",
"t u v w x y z A B C D q E F G H q I J K L a M N O P Q R S T U V ",
"W X Y Z `  ...+.@.#.$.%.&.*.=.-.;.>.,.'.).a !.~.{.Q Q R T S ].^.",
"o /.(._.:.<.[.}.|.1.2.L 3.4.5.6.7.8.9.0.a.b.p c.d.e.f.g.h.i.j.k.",
"l.m.n.n.o.p.q.r.s.t.u.v.w.x.y.z.A.B.C.D.E.F.G.H.I.J.K.L.M.N.O.P.",
"Q.N.R.S.T.U.V.W.X.Y.Z.`. +.+++@+#+$+%+&+*+=+-+;+>+,+'+)+!+~+* {+",
"]+^+/+(+_+:+<+[+}+|+1+2+3+4+5+6+7+8+9+0+a+b+c+d+e+f+g+h+i+j+].k+",
"l+m+n+o+p+q+r+s+t+u+v+w+x+y+z+A+B+C+D+E+F+G+H+I+J+K+L+M+N+O+P+Q+",
"R+S+T+U+V+W+X+Y+Z+`+ @.@+@@@#@$@%@&@*@=@-@;@>@,@K+'@)@!@~@{@]@^@",
"/@(@_@:@<@[@}@|@1@2@3@4@5@6@7@8@9@0@a@b@c@d@e@f@g@h@i@j@k@l@m@n@",
"o@p@q@r@s@t@u@v@w@x@y@z@A@B@C@D@E@F@G@H@I@J@K@L@M@N@O@P@Q@R@S@T@",
"U@V@W@X@Y@Z@`@ #.#+#@###$#%#&#*#=#-#;#>#,#'#)#!#~#{#]#^#/#(#_#:#",
"<#[#}#|#1#2#3#4#5#6#7#8#9#0#a#b#c#d#e#f#g#h#i#j#k#l#m#n#o#p#q#r#",
"s#t#u#v#w#x#y#z#A#B#C#D#E#F#G#H#I#J#K#L#M#N#O#P#Q#R#S#T#U#V#W#X#",
"Y#Z#`# $.$+$@$#$$$%$&$*$=$-$;$>$,$'$)$!$~${$]$^$/$($_$:$<$[$l#}$",
"|$1$2$3$4$5$6$7$8$9$0$0$0$a$b$7$c$d$e$f$g$h$i$j$k$l$0$m$0$n$o$p$",
"g$q$r$s$t$u$v$w$x$y$0$0$0$z$A$B$c$C$t$D$E$F$G$H$I$m$0$0$J$K$L$M$",
"N$O$j$O$P$Q$R$S$0$v$T$U$a$V$z$0$0$m$W$P$X$u$v$Y$Z$c$0$J$`$j$ %.%",
"s$j$j$+%r$r$@%#%a$$%%%U$0$0$&%*%=% %W$P$c$-%0$a$S$;%>%J$j$j$,%.%",
"s$'%j$j$j$j$j$r$S$Z$0$0$0$0$U$)%!%~%y$Z$n${%s$q$]%Z$^%/%j$(%N$_%",
":%<%/%j$j$j$[%`$}%9$0$0$0$0$}%|%1%2%c$S$0$3%n$^%]%Z$&%^%P$4%5%6%",
"n$&%}%7%8%9%0%a%P$:%b%c%d%e%f%g%b%h%0$i%j%j%|$7$G$d$0$k%l%m%n%u$",
"0$*%o%p%q%0$r% %r$s%t%}%u%e%A$B$]%c$i%v%@%w%x%Y$y%P$*%z%A%B%B%x$",
"C%P$D%E%P$F%P$h$G%H%I%0$0$0$C$J%K%L%/%j$j$s$M%N%O%P%0$0$q%0$Q%R%",
"S%P$U$U$/%j$r$P$0$*%0$0$0$0$|$T%j%U%V%W%s%:%Z$t%9%8%s$X%e%e%S$Q%",
"Y%Z%0$0$P$O$J$0$`%c$0$0$0$i% &.&/%q$+&@&7$#&$&9%%&%&&&*&=&-&;&i%",
"Z%0$0$0$a$z$n%n$>&,&0$J$'&)&P$r$j$/%c$u$z%9$!&O$%&~&{&]&^&=%/&(&",
"_&j%0$0$:&*%0${&p%<&w$}%[&a$l$s$q$}&|&a$1&2&3&c$|$4&Y%5&n$6&7$7&",
"8&9&J$q%a$0$0$0$0&a&b&c&d&e&J$I%]&f&g&h&i&A$8$m$j&5$k&q$,%*&x%l&",
"O%m&c$y$/%j$w%j%0$n&O% %j$j$r$o&p&F%*&n$q&z$r&^%s$P$s&d$t&P$3%u&",
"0$J$d$c$/%j$j$@%J$v&w&@%'%x&s$y&P$R%l$n$z&c$A&H%j$/%S$S$y&6&3%B&"};
