/* XPM */
static char * wallwater_border_left_2_xpm[] = {
"32 32 671 2",
"  	c #4E5140",
". 	c #515A41",
"+ 	c #646F38",
"@ 	c #6A792D",
"# 	c #6D822A",
"$ 	c #697B33",
"% 	c #667A36",
"& 	c #709815",
"* 	c #79B00C",
"= 	c #5A8434",
"- 	c #55743B",
"; 	c #444D2B",
"> 	c #2B444E",
", 	c #0D3C4A",
"' 	c #15525F",
") 	c #10637B",
"! 	c #166F81",
"~ 	c #196E82",
"{ 	c #156778",
"] 	c #176675",
"^ 	c #1B697A",
"/ 	c #1A6979",
"( 	c #185F6E",
"_ 	c #17616F",
": 	c #176372",
"< 	c #157285",
"[ 	c #147589",
"} 	c #157488",
"| 	c #176879",
"1 	c #166E80",
"2 	c #494C3E",
"3 	c #585F3F",
"4 	c #657430",
"5 	c #799127",
"6 	c #7D9F20",
"7 	c #9EAE0D",
"8 	c #89AC19",
"9 	c #5D9324",
"0 	c #8FAC1E",
"a 	c #7A8922",
"b 	c #363327",
"c 	c #2A3D2C",
"d 	c #1B3F4F",
"e 	c #147287",
"f 	c #0F7C9A",
"g 	c #0F7D99",
"h 	c #13778D",
"i 	c #157083",
"j 	c #167285",
"k 	c #167083",
"l 	c #175F6D",
"m 	c #176A79",
"n 	c #778A2A",
"o 	c #616F38",
"p 	c #4E5340",
"q 	c #4B4E3F",
"r 	c #606E39",
"s 	c #6E9813",
"t 	c #739B15",
"u 	c #A0B416",
"v 	c #97A819",
"w 	c #798912",
"x 	c #3D4820",
"y 	c #2E3740",
"z 	c #45808F",
"A 	c #184353",
"B 	c #0D4B60",
"C 	c #137186",
"D 	c #127891",
"E 	c #0D7D9B",
"F 	c #0E7C9A",
"G 	c #127890",
"H 	c #14758B",
"I 	c #196F83",
"J 	c #157386",
"K 	c #1A6879",
"L 	c #196A7C",
"M 	c #196272",
"N 	c #687A34",
"O 	c #68772D",
"P 	c #617539",
"Q 	c #658F23",
"R 	c #62872E",
"S 	c #608237",
"T 	c #5A7A28",
"U 	c #3B4A17",
"V 	c #28251F",
"W 	c #3E717D",
"X 	c #5E97A3",
"Y 	c #173F4F",
"Z 	c #0A465C",
"` 	c #127188",
" .	c #0E7D9B",
"..	c #0D7C9A",
"+.	c #0E7D9A",
"@.	c #14748E",
"#.	c #19697A",
"$.	c #196070",
"%.	c #156E83",
"&.	c #196C7E",
"*.	c #186F81",
"=.	c #127993",
"-.	c #4A4D3F",
";.	c #515442",
">.	c #474B3E",
",.	c #56633D",
"'.	c #505F3D",
").	c #729629",
"!.	c #A3BC0C",
"~.	c #A9BF02",
"{.	c #677D13",
"].	c #2F3613",
"^.	c #2F4335",
"/.	c #4E98AD",
"(.	c #327E95",
"_.	c #173B49",
":.	c #0D485D",
"<.	c #0D7492",
"[.	c #0B7D9D",
"}.	c #107B97",
"|.	c #167386",
"1.	c #186A7C",
"2.	c #0F7D9A",
"3.	c #0E7E9B",
"4.	c #5E6A37",
"5.	c #515642",
"6.	c #535A3D",
"7.	c #6E7D2E",
"8.	c #617C39",
"9.	c #6E8C32",
"0.	c #719220",
"a.	c #829C1B",
"b.	c #707610",
"c.	c #354304",
"d.	c #3F8C96",
"e.	c #387A8A",
"f.	c #306474",
"g.	c #094051",
"h.	c #115366",
"i.	c #147086",
"j.	c #107993",
"k.	c #0C7D9D",
"l.	c #0D7D9C",
"m.	c #186473",
"n.	c #186C7D",
"o.	c #186A7D",
"p.	c #5E6C36",
"q.	c #47543B",
"r.	c #476B2F",
"s.	c #7F9C21",
"t.	c #7F9C2A",
"u.	c #5E772C",
"v.	c #427502",
"w.	c #384D07",
"x.	c #293206",
"y.	c #2C3408",
"z.	c #2A8C9F",
"A.	c #084358",
"B.	c #2E6475",
"C.	c #115164",
"D.	c #145D6F",
"E.	c #1B6879",
"F.	c #176F82",
"G.	c #0E7B9A",
"H.	c #0A7C9E",
"I.	c #117894",
"J.	c #176D81",
"K.	c #167087",
"L.	c #13778E",
"M.	c #1A697A",
"N.	c #167488",
"O.	c #127A94",
"P.	c #14788D",
"Q.	c #176D7F",
"R.	c #176272",
"S.	c #186A7A",
"T.	c #196474",
"U.	c #436233",
"V.	c #4F5D36",
"W.	c #9CB115",
"X.	c #9BB314",
"Y.	c #5D7D19",
"Z.	c #3A5102",
"`.	c #252B0E",
" +	c #1E1E12",
".+	c #282C16",
"++	c #1E8494",
"@+	c #0A3B50",
"#+	c #0C485A",
"$+	c #13576B",
"%+	c #146E82",
"&+	c #167185",
"*+	c #176475",
"=+	c #186778",
"-+	c #157286",
";+	c #196D7F",
">+	c #15758A",
",+	c #166D7F",
"'+	c #176472",
")+	c #44473C",
"!+	c #4A4E3D",
"~+	c #75982B",
"{+	c #97B416",
"]+	c #5E8013",
"^+	c #282F0B",
"/+	c #171910",
"(+	c #242618",
"_+	c #288299",
":+	c #20667D",
"<+	c #1B5164",
"[+	c #0D5267",
"}+	c #116A83",
"|+	c #13768D",
"1+	c #14758A",
"2+	c #12778E",
"3+	c #107B98",
"4+	c #0F7B98",
"5+	c #156E81",
"6+	c #147184",
"7+	c #177084",
"8+	c #13788D",
"9+	c #196B7D",
"0+	c #4E5041",
"a+	c #659125",
"b+	c #72A514",
"c+	c #5C7D11",
"d+	c #264F09",
"e+	c #191915",
"f+	c #345E5F",
"g+	c #378B9E",
"h+	c #1C5164",
"i+	c #0E4A5F",
"j+	c #0F5A6D",
"k+	c #146F83",
"l+	c #157387",
"m+	c #166677",
"n+	c #5B633C",
"o+	c #677530",
"p+	c #5A7337",
"q+	c #7FB20A",
"r+	c #78AB16",
"s+	c #527016",
"t+	c #405112",
"u+	c #396F62",
"v+	c #429C9D",
"w+	c #164F62",
"x+	c #0B4457",
"y+	c #0E4C60",
"z+	c #10657B",
"A+	c #147085",
"B+	c #166272",
"C+	c #117995",
"D+	c #0F7B97",
"E+	c #14778D",
"F+	c #15748A",
"G+	c #16697A",
"H+	c #15728B",
"I+	c #6B7A2C",
"J+	c #617639",
"K+	c #658E23",
"L+	c #517231",
"M+	c #567634",
"N+	c #617F1C",
"O+	c #59815E",
"P+	c #418785",
"Q+	c #083A4F",
"R+	c #0D4558",
"S+	c #0C4E61",
"T+	c #0F6E89",
"U+	c #0E7C9D",
"V+	c #186779",
"W+	c #176575",
"X+	c #19687A",
"Y+	c #17606F",
"Z+	c #166F80",
"`+	c #117A96",
" @	c #127C94",
".@	c #13768C",
"+@	c #117B95",
"@@	c #6C7A31",
"#@	c #607338",
"$@	c #6F7A35",
"%@	c #627437",
"&@	c #535D38",
"*@	c #5C7938",
"=@	c #7A9E24",
"-@	c #637B2A",
";@	c #124A5A",
">@	c #0B4258",
",@	c #0E495C",
"'@	c #0F5365",
")@	c #156478",
"!@	c #176474",
"~@	c #17606E",
"{@	c #14778C",
"]@	c #176777",
"^@	c #17697B",
"/@	c #196372",
"(@	c #176D80",
"_@	c #1A6372",
":@	c #157689",
"<@	c #117B96",
"[@	c #809727",
"}@	c #9DAC12",
"|@	c #89A01D",
"1@	c #6B7D35",
"2@	c #5E673B",
"3@	c #799C26",
"4@	c #7FA721",
"5@	c #616427",
"6@	c #37626D",
"7@	c #0B5064",
"8@	c #0E4E62",
"9@	c #0F5F76",
"0@	c #106A80",
"a@	c #156A7D",
"b@	c #166271",
"c@	c #13798E",
"d@	c #127B95",
"e@	c #177183",
"f@	c #186877",
"g@	c #14768F",
"h@	c #107B96",
"i@	c #95A817",
"j@	c #627339",
"k@	c #4C563E",
"l@	c #47493D",
"m@	c #677635",
"n@	c #7DA224",
"o@	c #668631",
"p@	c #585D2D",
"q@	c #326371",
"r@	c #0B4F64",
"s@	c #0C4C61",
"t@	c #0C607A",
"u@	c #0F6981",
"v@	c #157185",
"w@	c #156E82",
"x@	c #155B6C",
"y@	c #137793",
"z@	c #157184",
"A@	c #18606F",
"B@	c #137893",
"C@	c #176676",
"D@	c #526040",
"E@	c #4E583F",
"F@	c #74872B",
"G@	c #79982A",
"H@	c #5C7E36",
"I@	c #6A742A",
"J@	c #54838C",
"K@	c #045973",
"L@	c #0B4D60",
"M@	c #0F586A",
"N@	c #146073",
"O@	c #146C7F",
"P@	c #116477",
"Q@	c #127995",
"R@	c #14768B",
"S@	c #13768E",
"T@	c #12788F",
"U@	c #097DA1",
"V@	c #0F7C9B",
"W@	c #157389",
"X@	c #667236",
"Y@	c #779126",
"Z@	c #637231",
"`@	c #6B7A31",
" #	c #72842C",
".#	c #5C7C38",
"+#	c #688730",
"@#	c #506116",
"##	c #2F777E",
"$#	c #13637C",
"%#	c #0E485C",
"&#	c #115568",
"*#	c #0F6378",
"=#	c #137286",
"-#	c #14768A",
";#	c #0B7D9E",
">#	c #107A97",
",#	c #127895",
"'#	c #147488",
")#	c #186E82",
"!#	c #177083",
"~#	c #73822C",
"{#	c #5C6B38",
"]#	c #6F7E2C",
"^#	c #667A31",
"/#	c #638331",
"(#	c #5F7D21",
"_#	c #283D05",
":#	c #2A6066",
"<#	c #1D677B",
"[#	c #104D61",
"}#	c #0F566B",
"|#	c #116679",
"1#	c #117B97",
"2#	c #0F7C98",
"3#	c #0B7C9C",
"4#	c #117791",
"5#	c #0D7E9D",
"6#	c #186C7F",
"7#	c #196475",
"8#	c #166879",
"9#	c #127892",
"0#	c #117896",
"a#	c #5E6E36",
"b#	c #5B7738",
"c#	c #698B26",
"d#	c #3A5D15",
"e#	c #294400",
"f#	c #357681",
"g#	c #236A81",
"h#	c #0F4A5C",
"i#	c #10576A",
"j#	c #136D81",
"k#	c #0A7DA0",
"l#	c #147387",
"m#	c #1A6A7B",
"n#	c #176E83",
"o#	c #0D7D9D",
"p#	c #0F7B99",
"q#	c #186F82",
"r#	c #176677",
"s#	c #0B7DA0",
"t#	c #626F33",
"u#	c #4A4E3E",
"v#	c #618A2A",
"w#	c #527E2B",
"x#	c #517115",
"y#	c #282E0B",
"z#	c #141F09",
"A#	c #459EB5",
"B#	c #215C72",
"C#	c #0E4C61",
"D#	c #135D71",
"E#	c #186576",
"F#	c #177186",
"G#	c #15697A",
"H#	c #157082",
"I#	c #077EA2",
"J#	c #057EA4",
"K#	c #077EA3",
"L#	c #13778F",
"M#	c #196878",
"N#	c #176A7B",
"O#	c #186F83",
"P#	c #12778F",
"Q#	c #545841",
"R#	c #555D3A",
"S#	c #566835",
"T#	c #78941B",
"U#	c #4E6F16",
"V#	c #467300",
"W#	c #2B3D26",
"X#	c #1A6E82",
"Y#	c #388196",
"Z#	c #135166",
"`#	c #0E5265",
" $	c #125F73",
".$	c #196373",
"+$	c #165E6C",
"@$	c #15697D",
"#$	c #127894",
"$$	c #117C98",
"%$	c #14748C",
"&$	c #087DA1",
"*$	c #165E6B",
"=$	c #7C882D",
"-$	c #9DA913",
";$	c #749523",
">$	c #648A2A",
",$	c #5B7711",
"'$	c #5D7D00",
")$	c #38654F",
"!$	c #206876",
"~$	c #3B7486",
"{$	c #205A6D",
"]$	c #0D546B",
"^$	c #10637E",
"/$	c #176E82",
"($	c #186070",
"_$	c #167084",
":$	c #186D82",
"<$	c #157388",
"[$	c #0F7B96",
"}$	c #5B643D",
"|$	c #8C9728",
"1$	c #8F9B23",
"2$	c #67842E",
"3$	c #6B891D",
"4$	c #6B8500",
"5$	c #3D6749",
"6$	c #266E78",
"7$	c #3F8193",
"8$	c #236477",
"9$	c #0B5D75",
"0$	c #0B6C8A",
"a$	c #0B7D9F",
"b$	c #186A7B",
"c$	c #147288",
"d$	c #1A6575",
"e$	c #196E80",
"f$	c #525C41",
"g$	c #545F40",
"h$	c #627F34",
"i$	c #638431",
"j$	c #59770A",
"k$	c #355713",
"l$	c #408E7B",
"m$	c #418A9A",
"n$	c #3B7F90",
"o$	c #105667",
"p$	c #12667B",
"q$	c #14738A",
"r$	c #18697C",
"s$	c #186575",
"t$	c #187084",
"u$	c #117C95",
"v$	c #196B7E",
"w$	c #829126",
"x$	c #617138",
"y$	c #545A41",
"z$	c #5B7F36",
"A$	c #5D8832",
"B$	c #678723",
"C$	c #496606",
"D$	c #3B6F46",
"E$	c #57A2AD",
"F$	c #3F8797",
"G$	c #1F6275",
"H$	c #135B6D",
"I$	c #166F86",
"J$	c #107D9A",
"K$	c #187185",
"L$	c #166B7D",
"M$	c #0D7C9D",
"N$	c #107997",
"O$	c #1A697C",
"P$	c #19697C",
"Q$	c #87A31C",
"R$	c #758929",
"S$	c #606D36",
"T$	c #576D3B",
"U$	c #7AB307",
"V$	c #6DA40E",
"W$	c #93A50A",
"X$	c #606300",
"Y$	c #70AEA1",
"Z$	c #316D7A",
"`$	c #387F8F",
" %	c #0E6074",
".%	c #116F88",
"+%	c #0E7C9B",
"@%	c #186675",
"#%	c #14758C",
"$%	c #1A6A7C",
"%%	c #186878",
"&%	c #53593D",
"*%	c #5F712F",
"=%	c #647A35",
"-%	c #616E39",
";%	c #739429",
">%	c #80AB21",
",%	c #98AF19",
"'%	c #516312",
")%	c #39696A",
"!%	c #306D7A",
"~%	c #0F5165",
"{%	c #0F5F74",
"]%	c #0E6881",
"^%	c #0D7B99",
"/%	c #0C7D9C",
"(%	c #176F81",
"_%	c #127992",
":%	c #434E3A",
"<%	c #6A9222",
"[%	c #799424",
"}%	c #758E2A",
"|%	c #6E9130",
"1%	c #5F8C27",
"2%	c #6D8E19",
"3%	c #335649",
"4%	c #1D535F",
"5%	c #0D3D4D",
"6%	c #0F596E",
"7%	c #0E657E",
"8%	c #0D7A97",
"9%	c #117992",
"0%	c #057EA3",
"a%	c #484C3D",
"b%	c #7B872D",
"c%	c #A5B205",
"d%	c #7A8C27",
"e%	c #4D7728",
"f%	c #547438",
"g%	c #54872C",
"h%	c #7AAF11",
"i%	c #698316",
"j%	c #1E484A",
"k%	c #0A374A",
"l%	c #0B5870",
"m%	c #0D657E",
"n%	c #0C7894",
"o%	c #167086",
"p%	c #186676",
"q%	c #196C7D",
"r%	c #196A7B",
"s%	c #0B7C9D",
"t%	c #176D84",
"u%	c #1A6B7D",
"v%	c #147690",
"w%	c #087EA2",
"x%	c #097C9F",
"y%	c #647130",
"z%	c #849C20",
"A%	c #839C20",
"B%	c #4F702E",
"C%	c #75A408",
"D%	c #64802A",
"E%	c #5F7D3A",
"F%	c #5A7F36",
"G%	c #68900E",
"H%	c #335C30",
"I%	c #253A31",
"J%	c #094157",
"K%	c #0C5D73",
"L%	c #116B82",
"M%	c #117790",
"N%	c #7A9326",
"O%	c #697730",
"P%	c #59633E",
"Q%	c #5D673B",
"R%	c #7CA515",
"S%	c #677E35",
"T%	c #5F783A",
"U%	c #85992B",
"V%	c #66881B",
"W%	c #567233",
"X%	c #274246",
"Y%	c #0B4052",
"Z%	c #0D5B6F",
"`%	c #136F83",
" &	c #14748A",
".&	c #196170",
"+&	c #166575",
"@&	c #677631",
"#&	c #57643E",
"$&	c #5C663D",
"%&	c #657331",
"&&	c #607038",
"*&	c #56623F",
"=&	c #59653D",
"-&	c #7F8C2D",
";&	c #82AD1D",
">&	c #6C8F28",
",&	c #5A7B2D",
"'&	c #465837",
")&	c #0D3A49",
"!&	c #0D5064",
"~&	c #196A7A",
"{&	c #147991",
"]&	c #0F7A99",
"^&	c #127B94",
"/&	c #165F6C",
"(&	c #186777",
"_&	c #186B7E",
":&	c #137894",
"<&	c #157187",
"[&	c #0F7D98",
"  . + @ # $ % & * = - ; > , ' ) ! ~ { ] ^ / ( _ : < [ [ } | ( 1 ",
"  2 3 4 5 6 7 8 9 0 a b c d ' ) e f g h / / i < ^ j [ [ k l m j ",
"n o p q r s t u v w x y z A B C D E F G H I J [ j K i } L M [ [ ",
"N O p q P Q R S T U V W X Y Z `  .E ..F  .+.@.J #.$.%.} [ &.*.=.",
"-.;.>.,.'.).!.~.{.].^./.(._.:.<.[.E E E E E }.|.&.[ [ [ [ 1.2.3.",
"4.5.6.7.8.9.0.a.b.c.d.e.f.g.h.i.j. .E E k.l.H m.n.[ [ [ |.M I o.",
"p.q.r.s.t.u.v.w.x.y.z.A.B.C.D.n.E.F.G.H.I.J.K.L.M.N.O.P.Q.R.S.T.",
"p U.V.W.X.Y.Z.`. +.+++@+#+$+%+[ &+*+=+|.j -+f  .I.] ;+>+,+'+J J ",
")+)+!+~+{+]+^+/+(+_+:+<+[+}+2.L.|+*+1+L.2+L.3+4+5+6+[ [ |.7+8+9+",
")+q 0+a+b+c+d+e+f+g+h+i+j+k+L.L.h 1.L. .E f [ [ l+[ [ [ [ m+8+< ",
"n+o+p+q+r+s+t+u+v+w+x+y+z+|+A+B+*.[ [ C+D+E+&+K [ [ [ [ F+G+H+f ",
"I+o J+K+L+M+N+O+P+Q+R+S+T+U+V+&+[ [ [ *.W+1.X+Y+Z+[ `+ @.@+@ .E ",
"@@#@$@%@&@*@=@-@;@>@,@'@)@!@~@{@{@[ [ ]@Z+[ [ ^@/@! (@_@*.:@`+<@",
"[@}@|@1@2@3@4@5@6@7@8@9@0@-+a@b@c@d@|.e@[ [ [ [ ! f@#.g@h@`+6+W+",
"i@j@k@l@m@n@o@p@q@r@s@t@u@v@w@x@m+l+^ y@E f E+[ z@A@L. .E E B@C@",
"j@D@q E@F@G@H@I@J@K@L@M@N@w@O@P@E+`+j Q@E E F `+R@S@T@l.U@V@W@j ",
"X@Y@Z@`@ #.#+#@###$#%#&#*#=#-#-#f E <@=.U@;#E  .>#,#[ [ '#J.)#!#",
"~#X@{#]#^#/#(#_#:#<#[#}#|#'#1#2#E E 3#[ L.4#5#D 6#7#[ [ 8#9#g 0#",
"7.6.5.a#b#c#d#e#f#g#h#i#j#[ E 2#2#k#=.[ l#B+m#n#9#o#p#q#r#[ D s#",
"t#>.u#v#w#x#y#z#A#B#C#D#r#E#F#R@-#F#G#=.D H#m#>+I#J#K#L#M#N#O#P#",
"Q#R#S#T#U#V#W#X#Y#Z#`# $! .$n.|.J M +$@$#$$$[ [ %$U@&$0#T.*$E#K ",
"=$-$;$>$,$'$)$!$~${$]$^$9#j /$[ z@($#.H#_$:$[ *.<$2#[$-+$.l+=.|.",
"}$|$1$2$3$4$5$6$7$8$9$0$a$L.j / b$c$f  .}.1+d$6#f E  .D e$9# .L.",
"f$g$X@h$i$j$k$l$m$n$o$p$q$<$r$s$t$g E E E u$J [ 9#U@U@V@j v$L.1+",
"w$x$y$z$A$B$C$D$E$F$G$H$I$2+J$K$~@L$M$;#l.N$O$]@]@7+[ |.P$l+[ [ ",
"Q$R$S$T$U$V$W$X$Y$Z$`$ %.%+%E 2+! @%2+4##%$%J [ [ l+[ %%|.[ [ =.",
"&%*%=%-%;%>%,%'%)%!%~%{%]%^%/%V@(%f@M..$M |..@[ [ [ j j }.L._%k.",
":%<%s [%}%|%1%2%3%4%5%6%7%8%/%9%M f@/ %%L =.F D+=.[ e$} k.I#I#0%",
"a%b%c%d%e%f%g%h%i%j%k%l%m%n%}.o%p%q%[ *.r%} 4+H.s%t%u%v%w%J#J#x%",
"y%z%A%B%C%D%E%F%G%H%I%J%K%L%[ [ '#J.[ [ k } [ *.W+! j j K.M%M%q#",
"N%O%P%Q%R%S%D@T%U%V%W%X%Y%Z%`%[ [ [ m# &[ [ '#!@^@} L.2+F+M#.&+&",
"@&#&$&%&&&*&=&-&;&>&,&'&)&!&*#'#[ *.~&{&]&^&%./&(&_&9#U@:&M <&[&"};
