/* XPM */
static char * wallwater_middle_1_xpm[] = {
"32 32 332 2",
"  	c #186D81",
". 	c #1A6979",
"+ 	c #196777",
"@ 	c #1A697A",
"# 	c #1A6677",
"$ 	c #17606F",
"% 	c #17616F",
"& 	c #186776",
"* 	c #147589",
"= 	c #167386",
"- 	c #176372",
"; 	c #167285",
"> 	c #127892",
", 	c #147690",
"' 	c #166473",
") 	c #186373",
"! 	c #127A94",
"~ 	c #0D7D9C",
"{ 	c #0D7D9B",
"] 	c #0E7C9A",
"^ 	c #14778D",
"/ 	c #176E82",
"( 	c #196C7E",
"_ 	c #1A6B7C",
": 	c #157082",
"< 	c #146B80",
"[ 	c #0E7D9B",
"} 	c #107B97",
"| 	c #196978",
"1 	c #196B7C",
"2 	c #157284",
"3 	c #177082",
"4 	c #1B697A",
"5 	c #186778",
"6 	c #16606E",
"7 	c #166F81",
"8 	c #186E80",
"9 	c #167286",
"0 	c #19697B",
"a 	c #165E6C",
"b 	c #166576",
"c 	c #117893",
"d 	c #0C7E9D",
"e 	c #0F7A98",
"f 	c #127993",
"g 	c #147790",
"h 	c #176F81",
"i 	c #17606E",
"j 	c #0F7189",
"k 	c #0F7B98",
"l 	c #13778E",
"m 	c #167087",
"n 	c #187083",
"o 	c #147488",
"p 	c #196A7C",
"q 	c #167184",
"r 	c #186678",
"s 	c #12788F",
"t 	c #157285",
"u 	c #196372",
"v 	c #1A6B7D",
"w 	c #127992",
"x 	c #107B96",
"y 	c #14758A",
"z 	c #0E7792",
"A 	c #0E7B98",
"B 	c #0F7C98",
"C 	c #176F85",
"D 	c #196272",
"E 	c #176475",
"F 	c #1B6A7B",
"G 	c #157386",
"H 	c #117A96",
"I 	c #117B96",
"J 	c #17758A",
"K 	c #176D81",
"L 	c #137A90",
"M 	c #0F7B97",
"N 	c #186C7F",
"O 	c #137791",
"P 	c #0D7E9C",
"Q 	c #137A92",
"R 	c #15758C",
"S 	c #127891",
"T 	c #157488",
"U 	c #15748A",
"V 	c #0F7C9A",
"W 	c #0E7D9A",
"X 	c #176C80",
"Y 	c #0C7D9D",
"Z 	c #097DA0",
"` 	c #19697A",
" .	c #196B7D",
"..	c #186E82",
"+.	c #196373",
"@.	c #157286",
"#.	c #156C7F",
"$.	c #165E6B",
"%.	c #176879",
"&.	c #186F82",
"*.	c #117790",
"=.	c #117894",
"-.	c #0A7C9E",
";.	c #0E7B9A",
">.	c #167084",
",.	c #176D83",
"'.	c #18697A",
").	c #127A95",
"!.	c #14788D",
"~.	c #157387",
"{.	c #18606F",
"].	c #186877",
"^.	c #196776",
"/.	c #13768D",
"(.	c #14768A",
"_.	c #157083",
":.	c #166575",
"<.	c #186372",
"[.	c #186978",
"}.	c #176777",
"|.	c #156A7E",
"1.	c #186474",
"2.	c #186F81",
"3.	c #186B7F",
"4.	c #0F7B9A",
"5.	c #166E80",
"6.	c #167186",
"7.	c #117892",
"8.	c #117B97",
"9.	c #167185",
"0.	c #177188",
"a.	c #1A6879",
"b.	c #196879",
"c.	c #14748A",
"d.	c #176575",
"e.	c #13778D",
"f.	c #12778E",
"g.	c #137890",
"h.	c #0C7B9C",
"i.	c #166879",
"j.	c #157388",
"k.	c #13788D",
"l.	c #196A7A",
"m.	c #18616F",
"n.	c #176373",
"o.	c #176677",
"p.	c #117996",
"q.	c #186A7B",
"r.	c #166778",
"s.	c #176E81",
"t.	c #157389",
"u.	c #0C7F9D",
"v.	c #0D7D9D",
"w.	c #107894",
"x.	c #12778F",
"y.	c #15768A",
"z.	c #14768B",
"A.	c #186F83",
"B.	c #16697C",
"C.	c #127995",
"D.	c #176F83",
"E.	c #1A6778",
"F.	c #186271",
"G.	c #176271",
"H.	c #067EA3",
"I.	c #057EA4",
"J.	c #137A91",
"K.	c #156576",
"L.	c #166574",
"M.	c #176473",
"N.	c #13768C",
"O.	c #137B92",
"P.	c #107D9A",
"Q.	c #196979",
"R.	c #196878",
"S.	c #077EA2",
"T.	c #186576",
"U.	c #0D7E9D",
"V.	c #117795",
"W.	c #196677",
"X.	c #137B91",
"Y.	c #147389",
"Z.	c #186574",
"`.	c #1A6574",
" +	c #166372",
".+	c #186677",
"++	c #147489",
"@+	c #176476",
"#+	c #176979",
"$+	c #166675",
"%+	c #165F6E",
"&+	c #176978",
"*+	c #186C80",
"=+	c #186473",
"-+	c #176A7C",
";+	c #147588",
">+	c #186A7A",
",+	c #196877",
"'+	c #176D80",
")+	c #137893",
"!+	c #15697A",
"~+	c #186575",
"{+	c #166C7F",
"]+	c #156E81",
"^+	c #157287",
"/+	c #156F84",
"(+	c #1A6777",
"_+	c #176A7A",
":+	c #166273",
"<+	c #176A7D",
"[+	c #176A7B",
"}+	c #196E83",
"|+	c #156A7C",
"1+	c #196170",
"2+	c #196574",
"3+	c #17697A",
"4+	c #0B7C9D",
"5+	c #15697C",
"6+	c #13758E",
"7+	c #13768B",
"8+	c #0C7D9E",
"9+	c #196D7F",
"0+	c #0F7C9B",
"a+	c #196A7B",
"b+	c #1A6A7B",
"c+	c #14758B",
"d+	c #0B7D9F",
"e+	c #0B7D9E",
"f+	c #0C7D9C",
"g+	c #107A98",
"h+	c #14768C",
"i+	c #186D82",
"j+	c #176F82",
"k+	c #107A97",
"l+	c #166474",
"m+	c #097EA0",
"n+	c #117791",
"o+	c #0F7D99",
"p+	c #166F86",
"q+	c #187185",
"r+	c #127894",
"s+	c #166D7F",
"t+	c #176474",
"u+	c #186C7D",
"v+	c #0F7B99",
"w+	c #15697D",
"x+	c #196676",
"y+	c #186C81",
"z+	c #0E7D9D",
"A+	c #097DA2",
"B+	c #185F6D",
"C+	c #176676",
"D+	c #176273",
"E+	c #15758B",
"F+	c #0C7C9D",
"G+	c #186B7D",
"H+	c #146D82",
"I+	c #186E81",
"J+	c #147087",
"K+	c #117A95",
"L+	c #117B95",
"M+	c #107997",
"N+	c #097C9F",
"O+	c #15738C",
"P+	c #1A697B",
"Q+	c #127991",
"R+	c #0F7A99",
"S+	c #117995",
"T+	c #157489",
"U+	c #186B7C",
"V+	c #17697B",
"W+	c #177085",
"X+	c #166D80",
"Y+	c #196474",
"Z+	c #13788F",
"`+	c #1A6171",
" @	c #117896",
".@	c #177084",
"+@	c #167083",
"@@	c #177083",
"#@	c #0B7B9C",
"$@	c #0B7D9D",
"%@	c #13758D",
"&@	c #0A7EA0",
"*@	c #087EA2",
"=@	c #0E7D9C",
"-@	c #186879",
";@	c #14788E",
">@	c #14798F",
",@	c #0D7C9C",
"'@	c #166779",
")@	c #1A6878",
"!@	c #196475",
"~@	c #186C83",
"{@	c #186A7C",
"]@	c #156574",
"^@	c #196B7E",
"/@	c #157589",
"(@	c #137793",
"_@	c #147287",
":@	c #176E80",
"<@	c #147991",
"[@	c #186675",
"}@	c #147388",
"|@	c #196D81",
"1@	c #14788C",
"2@	c #195F6E",
"3@	c #13788E",
"4@	c #117993",
"5@	c #157184",
"6@	c #117994",
"7@	c #107A95",
"8@	c #0D7C9A",
"9@	c #127692",
"0@	c #1B687A",
"a@	c #0B7C9E",
"b@	c #087DA1",
"c@	c #137288",
"d@	c #176170",
"e@	c #137891",
"f@	c #14748B",
"g@	c #15778D",
"h@	c #176F84",
"i@	c #196E81",
"j@	c #177185",
"k@	c #107B99",
"l@	c #14758C",
"m@	c #176574",
"n@	c #166A7D",
"o@	c #117C95",
"p@	c #0E7D99",
"q@	c #107C99",
"  . + @ # $ % & * * * = - $ ; > , ' ) ! ~ { ] ^ * / * ( _ : : < ",
"[ } ; | 1 2 3 4 * * * 5 6 7 ; 8 9 0 a b c d e / * * f g h i ) j ",
"{ k l m n o * 1 p q = r 5 * * / s l t | 1 u v ; * f w { x ( y z ",
"{ A [ [ B C = D E q * * F G H I s l ; J * = o K L f { { M N } { ",
"{ { { { { [ o v * * * * q O P Q 4 v ( R } S T v U V { W y X } Y ",
"V { { { Z w ` & * * * * `  ...+.; o * @.( U T v F U l #.$.%.&.*.",
"` =.-.;.>.,.l &.'.).!.~.{.].'.^.* /.(.(._.$ c > * :.<.[.}.| ( F ",
"|.1.2.* 3.I [ 4.5.` 6.~.6 7 T ; /.7.B 8.9.u 0.l G a.b.. . 3 * G ",
"l c.d.e.f.f.g.h.> i.* * * 2.j.k.l.).{ { V /.m.n.o.= * 2.* * p.! ",
"l (.q.H { { H * o o * * * * r.k.s.t.u.v.U ( 1 w.-.A f * / * j.x.",
"o.= * y.k I (.p ( * * * z.A.B.C.} D.E.% F.G.x.H.I.H.f = 6.J.l K.",
"* * * * p L.( D M.G N.H O.(.P.{ [ l . Q.R.<.l S.H.c T.R.l U.V.W.",
"X.(.* * M.G * Y.1.Z.2 ` `.= ^ } S  +.+= ++@+#+; _.$+%+&+( *+$ =+",
"-+O.f 2.= * * * ;+>+,+'+)+x f !+~+{+]+^+/+6 % / (+@ _+S M e.9.:+",
"d.<+; 4 V { 8.(.* [+d.I { { [ }+|+f.e.( 1+5 2+U } l 3+> 4+l @.5+",
"* f > ; V { { B f 6+7+B Y 8+} 9+l 0+^ ( a+; b+c.{ V o o 9+*+@.c+",
"N.H { V ^ d+e+f+{ } g+h+* * >.i+8 o * * 9.j+I y m k+9.l+F G * * ",
"] W { m+* N.n+W } D.0 _.* !+c.o+H p+* Y.) 1+q+(.^ r+s+t+u+* * f ",
"{ M Y v+* * w+x+y+c+z+z+U 1.* (.A+x.B+m.5 R.&.} { { } C+D+9.* M ",
"e.* E+r.N.H : 1 D.F+I.I.e u+r ( x.A.` 2 ; ; } { { { } G+H+q.T.*+",
"* I+B+a J+K+L+* o M+S.N+O+i i T.P+c.Q+V ^ * l R+S+T+* * @.U+2+( ",
"* V+1+s+_.K W+* 8 h+{ f.X+Y+Z+e.= } { { V N.* * E.`+m v+ @U .@~.",
"b+o.S V [ S +@a+m [ { V U @@} V * #@$@$@e+%@/ * * 2.U &@*@=@* ( ",
"-@;@[ { { [ >@T (.v+S.8+H ( D.l @.r+I.I.,@'@* * * * )@'+l m ~.!@",
"n.M+e+f+] ~@{@]@8 o T ^@/ * * 2.1+/@(@_@Z.:@* * o o {@X l } <@M.",
"[@}@n+x.|@3 * * o o +@:@* * ^ e.Y+{.. (+_.; ( u+3+o * 1@[ { x G ",
"& . (+2@2./.* * * * ( x 3@3@[ 4@G ( * N.f.l 5@1+Y.* y 6@{ { Y E+",
"T.. . (+/.V M H * 2.= M S.S.S.H.* * H ] { Q+5@1+* * (.7@{ { 8@-@",
"l.G G a.= f -.-.9@0@t.a@H.I.b@ @G * r+e H c@d@| c.e@w 8+{ B O 5 ",
".@~.* 5@= * = 5 i.; ; C x.n+f@` ( * t 8 8 _.+@g@@./.x.n+l (.* * ",
"* ( h@(.* * s+~+6.e.f.l 1 1+d.q.i@c.G P+y } { { [ S ^@4 * * * * ",
"= l.j@k@} l@6 m@` c.d+=@` n@o@v+p@q@* ~.} { { { { V ^@4 2.* * * "};
