/* XPM */
static char * wallwater_reverse_corner_topright_1_xpm[] = {
"32 32 485 2",
"  	c #366E7C",
". 	c #418691",
"+ 	c #438D9B",
"@ 	c #3E909F",
"# 	c #3F919F",
"$ 	c #3F90A2",
"% 	c #368B9E",
"& 	c #1F849F",
"* 	c #0D7D9B",
"= 	c #13788E",
"- 	c #1E778F",
"; 	c #3B7581",
"> 	c #438A96",
", 	c #408F9E",
"' 	c #4091A0",
") 	c #3D8FA1",
"! 	c #2F8BA1",
"~ 	c #17809D",
"{ 	c #14778D",
"] 	c #0B7D9F",
"^ 	c #147795",
"/ 	c #487A72",
"( 	c #546A33",
"_ 	c #496535",
": 	c #5B7639",
"< 	c #535B40",
"[ 	c #575D3D",
"} 	c #73822D",
"| 	c #6F7E2C",
"1 	c #637231",
"2 	c #114C5D",
"3 	c #176374",
"4 	c #15768A",
"5 	c #15788D",
"6 	c #0F7D9A",
"7 	c #0E7C98",
"8 	c #0B7D9D",
"9 	c #117790",
"0 	c #136C7F",
"a 	c #125062",
"b 	c #186C7D",
"c 	c #137A93",
"d 	c #0E7C9A",
"e 	c #097EA0",
"f 	c #147589",
"g 	c #13768C",
"h 	c #2B7B93",
"i 	c #436452",
"j 	c #4E6734",
"k 	c #6C8D29",
"l 	c #6D7F30",
"m 	c #4E5141",
"n 	c #595F3F",
"o 	c #5E683A",
"p 	c #535F3F",
"q 	c #0F4C5F",
"r 	c #185A69",
"s 	c #156E83",
"t 	c #157488",
"u 	c #12778E",
"v 	c #0D7E9C",
"w 	c #0F7B97",
"x 	c #126C7F",
"y 	c #114F61",
"z 	c #196272",
"A 	c #167185",
"B 	c #0C7D9D",
"C 	c #0F7B99",
"D 	c #2A7085",
"E 	c #447249",
"F 	c #6C981B",
"G 	c #5F8136",
"H 	c #627F36",
"I 	c #70872C",
"J 	c #717F2F",
"K 	c #5B633C",
"L 	c #525742",
"M 	c #636F33",
"N 	c #125668",
"O 	c #15667B",
"P 	c #166C80",
"Q 	c #186676",
"R 	c #186879",
"S 	c #14758C",
"T 	c #186C7F",
"U 	c #147184",
"V 	c #11728C",
"W 	c #145769",
"X 	c #156B81",
"Y 	c #186A7B",
"Z 	c #186576",
"` 	c #186C80",
" .	c #13778D",
"..	c #15758B",
"+.	c #166778",
"@.	c #117A96",
"#.	c #307E8C",
"$.	c #3D604F",
"%.	c #4F6519",
"&.	c #759C20",
"*.	c #73942A",
"=.	c #608135",
"-.	c #6D842B",
";.	c #68772D",
">.	c #658725",
",.	c #69782E",
"'.	c #126174",
").	c #146E82",
"!.	c #166F82",
"~.	c #196373",
"{.	c #167386",
"].	c #157386",
"^.	c #165E6C",
"/.	c #15697D",
"(.	c #12718B",
"_.	c #126579",
":.	c #157184",
"<.	c #186B7C",
"[.	c #196574",
"}.	c #196C7E",
"|.	c #186E81",
"1.	c #185F6D",
"2.	c #147087",
"3.	c #107995",
"4.	c #2C829C",
"5.	c #356768",
"6.	c #2D3A04",
"7.	c #476910",
"8.	c #698A23",
"9.	c #5B7E36",
"0.	c #557B37",
"a.	c #679914",
"b.	c #659605",
"c.	c #637C2B",
"d.	c #0E728D",
"e.	c #117796",
"f.	c #127892",
"g.	c #167285",
"h.	c #176E82",
"i.	c #186070",
"j.	c #19697A",
"k.	c #157082",
"l.	c #137187",
"m.	c #0F7593",
"n.	c #117896",
"o.	c #15748A",
"p.	c #177084",
"q.	c #157387",
"r.	c #17697B",
"s.	c #196170",
"t.	c #166D7F",
"u.	c #157083",
"v.	c #1C677E",
"w.	c #4294A0",
"x.	c #202A00",
"y.	c #2A3D00",
"z.	c #50760F",
"A.	c #5B7D24",
"B.	c #5A8C26",
"C.	c #83B80B",
"D.	c #73A317",
"E.	c #50613C",
"F.	c #0E7996",
"G.	c #087EA2",
"H.	c #0A7DA0",
"I.	c #13778E",
"J.	c #1A6979",
"K.	c #147288",
"L.	c #0F7C9A",
"M.	c #0E7D9B",
"N.	c #107B98",
"O.	c #097C9E",
"P.	c #0E7D9C",
"Q.	c #1A6A7B",
"R.	c #176677",
"S.	c #127891",
"T.	c #117890",
"U.	c #156479",
"V.	c #3B879D",
"W.	c #1A4F54",
"X.	c #2C3307",
"Y.	c #455000",
"Z.	c #5A7700",
"`.	c #628510",
" +	c #7FA61D",
".+	c #548030",
"++	c #576E3D",
"@+	c #156677",
"#+	c #14758B",
"$+	c #14748B",
"%+	c #157388",
"&+	c #18697C",
"*+	c #186575",
"=+	c #187084",
"-+	c #0F7D99",
";+	c #0F7792",
">+	c #176C80",
",+	c #167087",
"'+	c #196475",
")+	c #14788E",
"!+	c #106F86",
"~+	c #367E93",
"{+	c #237B94",
"]+	c #397886",
"^+	c #1D2301",
"/+	c #3F4D00",
"(+	c #426802",
"_+	c #889C0F",
":+	c #92AC1C",
"<+	c #658237",
"[+	c #176678",
"}+	c #117D98",
"|+	c #185F6E",
"1+	c #13738A",
"2+	c #0C7D9E",
"3+	c #12728E",
"4+	c #176B7F",
"5+	c #107B97",
"6+	c #147991",
"7+	c #176473",
"8+	c #176373",
"9+	c #107997",
"0+	c #0B7D9E",
"a+	c #0C7D9C",
"b+	c #196C82",
"c+	c #166678",
"d+	c #2A6C7D",
"e+	c #3E7D8F",
"f+	c #4097AF",
"g+	c #3E6C69",
"h+	c #293100",
"i+	c #212F00",
"j+	c #446401",
"k+	c #90A807",
"l+	c #A2BA10",
"m+	c #14768A",
"n+	c #107C98",
"o+	c #147488",
"p+	c #176979",
"q+	c #166B7C",
"r+	c #177186",
"s+	c #14788C",
"t+	c #107B96",
"u+	c #186675",
"v+	c #147388",
"w+	c #117791",
"x+	c #12778F",
"y+	c #196D81",
"z+	c #176F82",
"A+	c #127387",
"B+	c #187185",
"C+	c #40889A",
"D+	c #2C6679",
"E+	c #2E808F",
"F+	c #44909B",
"G+	c #396B71",
"H+	c #1B3523",
"I+	c #385607",
"J+	c #5F6D23",
"K+	c #127890",
"L+	c #127A95",
"M+	c #186A7A",
"N+	c #196978",
"O+	c #196070",
"P+	c #14758A",
"Q+	c #117994",
"R+	c #186776",
"S+	c #1A6777",
"T+	c #195F6E",
"U+	c #186F81",
"V+	c #13768D",
"W+	c #137186",
"X+	c #237286",
"Y+	c #3B7A8B",
"Z+	c #1E4B5C",
"`+	c #235266",
" @	c #276C81",
".@	c #32604D",
"+@	c #1F3500",
"@@	c #2A261A",
"#@	c #127991",
"$@	c #0D7C9A",
"%@	c #157287",
"&@	c #186373",
"*@	c #196877",
"=@	c #127A94",
"-@	c #107A95",
";@	c #107A96",
">@	c #127185",
",@	c #1E6477",
"'@	c #235B6E",
")@	c #346C7E",
"!@	c #377085",
"~@	c #2F7685",
"{@	c #131105",
"]@	c #0D7D9D",
"^@	c #186A7D",
"/@	c #196878",
"(@	c #1A6B7C",
"_@	c #0F7C98",
":@	c #137791",
"<@	c #186778",
"[@	c #196A7A",
"}@	c #1A6879",
"|@	c #127993",
"1@	c #0A7C9E",
"2@	c #137591",
"3@	c #186475",
"4@	c #115C6F",
"5@	c #0B4D65",
"6@	c #205165",
"7@	c #306173",
"8@	c #3C8495",
"9@	c #1E7F96",
"0@	c #147487",
"a@	c #167184",
"b@	c #13768B",
"c@	c #166879",
"d@	c #156E81",
"e@	c #135B70",
"f@	c #0E4E62",
"g@	c #0B4154",
"h@	c #08384A",
"i@	c #082D3C",
"j@	c #1B697A",
"k@	c #196B7E",
"l@	c #176F84",
"m@	c #167186",
"n@	c #107389",
"o@	c #155E70",
"p@	c #104A5A",
"q@	c #114856",
"r@	c #0E4250",
"s@	c #1A6B7D",
"t@	c #196B7D",
"u@	c #196C7D",
"v@	c #0F7A99",
"w@	c #15778D",
"x@	c #177185",
"y@	c #107B99",
"z@	c #16606E",
"A@	c #176574",
"B@	c #14748A",
"C@	c #0E7C9C",
"D@	c #196879",
"E@	c #136174",
"F@	c #14586B",
"G@	c #135C6D",
"H@	c #166F81",
"I@	c #196E82",
"J@	c #156778",
"K@	c #176675",
"L@	c #186D7F",
"M@	c #186D81",
"N@	c #156575",
"O@	c #196777",
"P@	c #1A697A",
"Q@	c #1A6677",
"R@	c #17606F",
"S@	c #17616F",
"T@	c #176372",
"U@	c #16697C",
"V@	c #115F74",
"W@	c #14768C",
"X@	c #157389",
"Y@	c #186473",
"Z@	c #185E6D",
"`@	c #147287",
" #	c #147790",
".#	c #176F81",
"+#	c #17606E",
"@#	c #167286",
"##	c #196B7C",
"$#	c #157284",
"%#	c #177082",
"&#	c #196F83",
"*#	c #0F7B98",
"=#	c #187083",
"-#	c #196A7C",
";#	c #186678",
">#	c #14768F",
",#	c #0E7D9A",
"'#	c #117995",
")#	c #0E7B98",
"!#	c #176F85",
"~#	c #176475",
"{#	c #1B6A7B",
"]#	c #117B96",
"^#	c #127990",
"/#	c #166E82",
"(#	c #137691",
"_#	c #0D7D9C",
":#	c #107A93",
"<#	c #147389",
"[#	c #16606F",
"}#	c #176271",
"|#	c #156C7E",
"1#	c #165E6B",
"2#	c #176879",
"3#	c #186F82",
"4#	c #0F7D9B",
"5#	c #12768E",
"6#	c #127893",
"7#	c #0E7B99",
"8#	c #176A7B",
"9#	c #176B7B",
"0#	c #166B7D",
"a#	c #166D81",
"b#	c #127388",
"c#	c #186978",
"d#	c #176777",
"e#	c #0B7C9D",
"f#	c #0B7B9D",
"g#	c #186B7E",
"h#	c #117894",
"i#	c #0E7B9A",
"j#	c #167084",
"k#	c #186878",
"l#	c #186271",
"m#	c #186B7F",
"n#	c #157285",
"o#	c #156A7E",
"p#	c #186474",
"q#	c #0C7C9C",
"r#	c #176E80",
"s#	c #1A6575",
"t#	c #137790",
"u#	c #117996",
"v#	c #176575",
"w#	c #157286",
"x#	c #186A7C",
"y#	c #186F84",
"z#	c #176D81",
"A#	c #127C95",
"B#	c #147085",
"C#	c #166272",
"D#	c #137A91",
"E#	c #156576",
"F#	c #177085",
"G#	c #16758A",
"H#	c #127796",
"I#	c #13778F",
"J#	c #186779",
"K#	c #0D7E9D",
"L#	c #117795",
"M#	c #196677",
"N#	c #166575",
"O#	c #165F6E",
"P#	c #14778C",
"Q#	c #176878",
"R#	c #166877",
"S#	c #137B91",
"T#	c #126075",
"U#	c #107992",
"V#	c #13798E",
"W#	c #127B95",
"X#	c #177183",
"Y#	c #126B83",
"Z#	c #107B95",
"`#	c #166273",
" $	c #176A7C",
".$	c #137B92",
"+$	c #117892",
"@$	c #137892",
"#$	c #104C5C",
"$$	c #0D6F8B",
"%$	c #156F83",
"&$	c #176576",
"*$	c #166677",
"=$	c #137793",
"-$	c #0D718C",
";$	c #12596D",
">$	c #0B7594",
",$	c #15697C",
"'$	c #176A7D",
")$	c #176E85",
"!$	c #104959",
"~$	c #145E70",
"{$	c #176D80",
"]$	c #127995",
"^$	c #0E718C",
"/$	c #115364",
"($	c #156475",
"_$	c #176676",
":$	c #157188",
"  . + @ # $ % & * = - ; > , @ ' ) ! ~ * { ] ^ / ( _ : < [ } | 1 ",
"2 3 4 4 5 6 7 * 8 9 0 a b 4 4 c d d * e f g h i j _ k l m n o p ",
"q r s t u v w d ] g x y z A f w * w B C f f D E F G H I J K L M ",
"N O P Q R S f g T U V W X Y Z `  .f ..+.g @.#.$.%.&.*.=.-.;.>.,.",
"'.).!.~.b {.].z ^./.(._.:.<.[.}.f |.1.^.2.3.4.5.6.7.8.9.0.a.b.c.",
"d.e.f.g.h.f :.i.j.k.l.m.n.o.p.q.f r.s.t.u.P v.w.x.y.z.A.B.C.D.E.",
"F.G.H.I.g.J.Y K.L.M.N.O.G.P.f }.Q.R.S.L.M.T.U.V.W.X.Y.Z.`. +.+++",
"@+#+$+%+&+*+=+-+* * ;+>+I.,+q.'+R )+M.* * L.!+~+{+]+^+/+(+_+:+<+",
"[+#+S.}+j.|+1+2+8 * 3+4+I.5+6+7+8+9+0+a+d b+c+d+e+f+g+h+i+j+k+l+",
"m+n+* M.o+p+q+9 9 r+}.s+M.* t+].u+v+w+x+y+z+A+B+C+D+E+F+G+H+I+J+",
"K+d * B L+M+N+J.O+j.P+Q+* * B ..R+J.S+T+U+V+f W+X+Y+Z+`+ @.@+@@@",
"#@$@* B %@&@N+J.*@g.=@-@* * $@R Z J.J.S+V+L.w ;@>@,@'@)@!@~@X {@",
"]@a+d @.^@/@U+f (@z+x+2+* _@:@<@[@].].}@{.|@1@1@2@3@4@5@6@7@8@9@",
"w+x+g f f {.h.f 0@a@b@w+I.m+f f p.q.f :.{.f {.<@c@g.d@e@f@g@h@i@",
"j@g.f f f f g.k@V+f g.j@f f f f f }.l@m+f f t.*+m@ .u n@o@p@q@r@",
"j@s@f f f f t@u@}+v@w@j@U+f f f {.[@x@y@5+S z@A@j.B@] C@D@E@F@G@",
"g.j@k.u.H@I@J@K@j@J.Z }.(@k.u.L@M@N@O@P@Q@R@S@R+f f f {.T@|+U@V@",
"W@X@Y@Z@`@L.-+ .J.J.:. #.#+#&@S.M.5+@#N+##$#%#j@f f f <@z@H@g.T ",
"* L.g.g.S.* d K+#+&##+* t+}.P+*#* *#I.,+=#o+f ##-#a@{.;#<@f f h.",
"* * g.>#M.* $@d M.,#'#* w T 5+* * )#M.M._@!#{.z ~#a@f f {#].@.]#",
"M.^#/#(#_#a+* * * * * ,#P+>+5+B * * * * * M.t s@f f f f a@:@v :#",
"<#[#}#}.I.N.* * * e 5+|#1#2#3#9 L.* * * H.4#5#6#7#*#-#8#9#0#a#b#",
"c#d#c#t@s@S+$+e#f#$+g#c#d#N+}.{#j.h#1@i#j#..* * * S s.k#}.[@}.|@",
"N+P@t@o+t s l#-#f m#n#J.J.%#f ].o#p#U+f m#q#e L.= %+r#%#f {.s#{.",
"{.{.f t#6 I.V+~#P+I. .U+f f u#=@I.B@v# .u %+].f f f f h.g.o+f f ",
"f h.f w#I.I. .x#I.M.w f h.f %+x+I.m+Y @.* y#}.f f f f f s@f.4 f ",
"o+z#A#I.B#C#U+f f '#:#{.m@D#I.E#R.{.f 4 C F#j@g.f f g.j.u+G#H#I#",
"Q n#4#]@J#A f f f U+Z /@I.K#L#M#f f f f -#:.j@M#N#N#X@I.k.(@N+s.",
"O#}.` p#+#P#P#f f d#Q#R#}.` R@Y@S#m+f f 7+P+5+H@l#:.L.* @.|.D@g.",
"T#U#|@{./.&@V#W#{.X#).Y#Z# .A `# $.$|@U+{.w * I.}.|@* * +$@.@$l@",
"#$$$t+w#%$&$*$q.j@=$-$;$>$I.w#,$v#'$g.j@L.* * I.)$M.* * * * * L.",
"!$~${$j#%+P+{ @.g.]$^$/$($>+w##+f |@f.g.L.L.K+_$:$5+e * * * * * "};
