/* XPM */
static char * wallwater_border_bottom_2_xpm[] = {
"32 32 594 2",
"  	c #0F7C9A",
". 	c #0D7D9B",
"+ 	c #117B96",
"@ 	c #127993",
"# 	c #097DA1",
"$ 	c #0B7D9E",
"% 	c #0E7D9B",
"& 	c #107A97",
"* 	c #127895",
"= 	c #147589",
"- 	c #147488",
"; 	c #176D81",
"> 	c #186E82",
", 	c #177083",
"' 	c #196A7C",
") 	c #15758B",
"! 	c #127991",
"~ 	c #157286",
"{ 	c #117893",
"] 	c #127892",
"^ 	c #166F83",
"/ 	c #186372",
"( 	c #1A6C7D",
"_ 	c #14768A",
": 	c #0B7C9C",
"< 	c #13778E",
"[ 	c #117791",
"} 	c #0D7E9D",
"| 	c #127891",
"1 	c #186C7F",
"2 	c #196475",
"3 	c #166879",
"4 	c #0F7D99",
"5 	c #117896",
"6 	c #176E82",
"7 	c #156F84",
"8 	c #17606F",
"9 	c #196576",
"0 	c #14768F",
"a 	c #176473",
"b 	c #186777",
"c 	c #157285",
"d 	c #117B97",
"e 	c #0F7C98",
"f 	c #0A7DA0",
"g 	c #147387",
"h 	c #166272",
"i 	c #1A6A7B",
"j 	c #176E83",
"k 	c #0D7D9D",
"l 	c #0F7B99",
"m 	c #186F82",
"n 	c #176677",
"o 	c #0B7DA0",
"p 	c #157083",
"q 	c #175E6C",
"r 	c #196372",
"s 	c #186778",
"t 	c #196A7A",
"u 	c #15748A",
"v 	c #127990",
"w 	c #185E6D",
"x 	c #16697D",
"y 	c #167386",
"z 	c #177186",
"A 	c #15697A",
"B 	c #157082",
"C 	c #15758A",
"D 	c #077EA2",
"E 	c #057EA4",
"F 	c #077EA3",
"G 	c #13778F",
"H 	c #196878",
"I 	c #176A7B",
"J 	c #186F83",
"K 	c #12778F",
"L 	c #1A6B7C",
"M 	c #166D7F",
"N 	c #167285",
"O 	c #18687A",
"P 	c #146D82",
"Q 	c #186576",
"R 	c #14768B",
"S 	c #157386",
"T 	c #196272",
"U 	c #165E6C",
"V 	c #15697D",
"W 	c #127894",
"X 	c #117C98",
"Y 	c #14748C",
"Z 	c #087DA1",
"` 	c #196474",
" .	c #165E6B",
"..	c #1A6879",
"+.	c #176F83",
"@.	c #12778E",
"#.	c #137992",
"$.	c #15768A",
"%.	c #0F7A99",
"&.	c #157488",
"*.	c #166F82",
"=.	c #196373",
"-.	c #186C7D",
";.	c #157184",
">.	c #186070",
",.	c #19697A",
"'.	c #167084",
").	c #186D82",
"!.	c #186F81",
"~.	c #157388",
"{.	c #0F7B96",
"].	c #196070",
"^.	c #157387",
"/.	c #196C7E",
"(.	c #1A6171",
"_.	c #18697C",
":.	c #0F7C99",
"<.	c #107897",
"[.	c #186A7B",
"}.	c #147288",
"|.	c #107B97",
"1.	c #14758A",
"2.	c #1A6575",
"3.	c #196E80",
"4.	c #117790",
"5.	c #0A7D9F",
"6.	c #0B7D9D",
"7.	c #0F7A98",
"8.	c #087EA2",
"9.	c #1A6979",
"0.	c #187084",
"a.	c #117C95",
"b.	c #0F7C9B",
"c.	c #196B7E",
"d.	c #167087",
"e.	c #147287",
"f.	c #166779",
"g.	c #14758B",
"h.	c #14748B",
"i.	c #186575",
"j.	c #17606E",
"k.	c #166B7D",
"l.	c #0D7C9D",
"m.	c #0D7D9C",
"n.	c #107997",
"o.	c #1A697C",
"p.	c #176777",
"q.	c #177084",
"r.	c #19697C",
"s.	c #1A6474",
"t.	c #147990",
"u.	c #137793",
"v.	c #167186",
"w.	c #107D9A",
"x.	c #187185",
"y.	c #166F81",
"z.	c #186675",
"A.	c #14758C",
"B.	c #1A6A7C",
"C.	c #186878",
"D.	c #1B6979",
"E.	c #157284",
"F.	c #176B7B",
"G.	c #137A91",
"H.	c #176F81",
"I.	c #186877",
"J.	c #1A697A",
"K.	c #13768C",
"L.	c #127992",
"M.	c #0C7D9D",
"N.	c #13768D",
"O.	c #13778D",
"P.	c #0F7B98",
"Q.	c #0C7D9C",
"R.	c #0E7C9A",
"S.	c #0F7B97",
"T.	c #057EA3",
"U.	c #0B7B9C",
"V.	c #14778D",
"W.	c #0E7B98",
"X.	c #117992",
"Y.	c #186676",
"Z.	c #196C7D",
"`.	c #196A7B",
" +	c #0A7C9E",
".+	c #0B7C9D",
"++	c #176D84",
"@+	c #1A6B7D",
"#+	c #147690",
"$+	c #097C9F",
"%+	c #14768C",
"&+	c #117995",
"*+	c #107A98",
"=+	c #107A96",
"-+	c #156B7D",
";+	c #186B7C",
">+	c #14788E",
",+	c #167086",
"'+	c #167083",
")+	c #176575",
"!+	c #196879",
"~+	c #156F82",
"{+	c #167185",
"]+	c #15778D",
"^+	c #14748A",
"/+	c #176474",
"(+	c #17697B",
"_+	c #196170",
":+	c #166575",
"<+	c #196D7F",
"[+	c #186C80",
"}+	c #147991",
"|+	c #127B94",
"1+	c #156E83",
"2+	c #165F6C",
"3+	c #186B7E",
"4+	c #137894",
"5+	c #157187",
"6+	c #0F7D98",
"7+	c #117A96",
"8+	c #1B6A7B",
"9+	c #196E82",
"0+	c #156778",
"a+	c #176675",
"b+	c #1B697A",
"c+	c #185F6E",
"d+	c #17616F",
"e+	c #176372",
"f+	c #176879",
"g+	c #166E80",
"h+	c #147389",
"i+	c #0E7D9C",
"j+	c #175F6D",
"k+	c #176A79",
"l+	c #176F82",
"m+	c #16606F",
"n+	c #13738A",
"o+	c #157389",
"p+	c #186473",
"q+	c #127790",
"r+	c #127890",
"s+	c #196F83",
"t+	c #12788F",
"u+	c #196978",
"v+	c #196B7D",
"w+	c #186474",
"x+	c #19697B",
"y+	c #137991",
"z+	c #0E7896",
"A+	c #0D7C9A",
"B+	c #0E7D9A",
"C+	c #14748E",
"D+	c #107B96",
"E+	c #1A6D80",
"F+	c #116278",
"G+	c #0E738F",
"H+	c #0D7C9B",
"I+	c #0C7D9B",
"J+	c #18697B",
"K+	c #126B7E",
"L+	c #116C80",
"M+	c #116E81",
"N+	c #126F82",
"O+	c #186879",
"P+	c #0F7D9A",
"Q+	c #0E7E9B",
"R+	c #17758A",
"S+	c #107C97",
"T+	c #157185",
"U+	c #1A7085",
"V+	c #107591",
"W+	c #195B57",
"X+	c #145768",
"Y+	c #126073",
"Z+	c #11667B",
"`+	c #0F6E87",
" @	c #10738A",
".@	c #146476",
"+@	c #135E6F",
"@@	c #21423E",
"#@	c #303F2C",
"$@	c #2B4337",
"%@	c #1F646C",
"&@	c #125F70",
"*@	c #156477",
"=@	c #17697C",
"-@	c #196677",
";@	c #12768D",
">@	c #156071",
",@	c #174E5D",
"'@	c #1A5E6E",
")@	c #0E627A",
"!@	c #5C7509",
"~@	c #234C04",
"{@	c #334100",
"]@	c #385649",
"^@	c #1D4C55",
"/@	c #194B55",
"(@	c #184956",
"_@	c #1A5361",
":@	c #235557",
"<@	c #456003",
"[@	c #5D812B",
"}@	c #457000",
"|@	c #2C4C00",
"1@	c #1E4648",
"2@	c #15515F",
"3@	c #165565",
"4@	c #166B7C",
"5@	c #127184",
"6@	c #106577",
"7@	c #116577",
"8@	c #10738D",
"9@	c #125262",
"0@	c #194F5A",
"a@	c #1A4C56",
"b@	c #1B5866",
"c@	c #166172",
"d@	c #155364",
"e@	c #2D6053",
"f@	c #47781D",
"g@	c #83A31A",
"h@	c #5C9601",
"i@	c #678E0B",
"j@	c #628014",
"k@	c #496127",
"l@	c #4D5F2C",
"m@	c #607223",
"n@	c #3B4B1B",
"o@	c #3F5C21",
"p@	c #4D6D16",
"q@	c #62861A",
"r@	c #5D8902",
"s@	c #416300",
"t@	c #305D00",
"u@	c #214630",
"v@	c #144C57",
"w@	c #155968",
"x@	c #11718A",
"y@	c #11708A",
"z@	c #116273",
"A@	c #1A5B67",
"B@	c #2A453A",
"C@	c #2A453B",
"D@	c #1A5D6C",
"E@	c #236A5F",
"F@	c #53782B",
"G@	c #6C9C04",
"H@	c #658C09",
"I@	c #304145",
"J@	c #355A4A",
"K@	c #4E8523",
"L@	c #90B308",
"M@	c #6EA418",
"N@	c #789F24",
"O@	c #708F2E",
"P@	c #618034",
"Q@	c #546F3C",
"R@	c #607E36",
"S@	c #6A8B29",
"T@	c #546A2F",
"U@	c #516F33",
"V@	c #55742E",
"W@	c #607E2A",
"X@	c #6A8730",
"Y@	c #67861B",
"Z@	c #4C7410",
"`@	c #294E13",
" #	c #393A29",
".#	c #243D31",
"+#	c #1D5055",
"@#	c #225955",
"##	c #2C6E52",
"$#	c #4D7400",
"%#	c #597E13",
"&#	c #4A7306",
"*#	c #325800",
"=#	c #304D1B",
"-#	c #536F38",
";#	c #5F8434",
">#	c #6C8F31",
",#	c #849E2B",
"'#	c #718A2A",
")#	c #6B852A",
"!#	c #638037",
"~#	c #556C3D",
"{#	c #596B3B",
"]#	c #54663E",
"^#	c #647531",
"/#	c #5B6C3C",
"(#	c #72842D",
"_#	c #647B30",
":#	c #576D3C",
"<#	c #5D7F37",
"[#	c #70882B",
"}#	c #637532",
"|#	c #5C6A3D",
"1#	c #7FA921",
"2#	c #6B8E24",
"3#	c #4B6530",
"4#	c #486036",
"5#	c #3E5B2C",
"6#	c #425B24",
"7#	c #3A5423",
"8#	c #4A7115",
"9#	c #62950A",
"0#	c #638418",
"a#	c #5A8D06",
"b#	c #326500",
"c#	c #5A7427",
"d#	c #73922E",
"e#	c #7B9E28",
"f#	c #81AD1F",
"g#	c #78A023",
"h#	c #669F13",
"i#	c #548030",
"j#	c #55703C",
"k#	c #697C2F",
"l#	c #4C553D",
"m#	c #4A4C3F",
"n#	c #525B41",
"o#	c #607539",
"p#	c #799127",
"q#	c #5B633E",
"r#	c #565C3F",
"s#	c #718828",
"t#	c #799226",
"u#	c #63940A",
"v#	c #5E7335",
"w#	c #7EA220",
"x#	c #799C27",
"y#	c #496535",
"z#	c #4B6637",
"A#	c #5E7837",
"B#	c #68822C",
"C#	c #4E6831",
"D#	c #6C9315",
"E#	c #78A51A",
"F#	c #64921D",
"G#	c #7BA91D",
"H#	c #6B8C26",
"I#	c #95B515",
"J#	c #9EAC11",
"K#	c #708231",
"L#	c #698431",
"M#	c #5A7A36",
"N#	c #77A712",
"O#	c #7DA719",
"P#	c #6A7B2D",
"Q#	c #9DAD0F",
"R#	c #98A41D",
"S#	c #6F882E",
"T#	c #56613D",
"U#	c #5D683C",
"V#	c #7C9A22",
"W#	c #606D36",
"X#	c #627033",
"Y#	c #6D802B",
"Z#	c #7BA219",
"`#	c #4D702F",
" $	c #5F6C35",
".$	c #687A34",
"+$	c #48543B",
"@$	c #607434",
"#$	c #6C7E2C",
"$$	c #616F38",
"%$	c #617539",
"&$	c #658D24",
"*$	c #4C5E36",
"=$	c #55633C",
"-$	c #6D9615",
";$	c #7DA121",
">$	c #677335",
",$	c #54613F",
"'$	c #515D41",
")$	c #58623F",
"!$	c #5C7037",
"~$	c #6F8529",
"{$	c #7A9F1C",
"]$	c #92A219",
"^$	c #9CAA13",
"/$	c #A5B205",
"($	c #7F8E27",
"_$	c #70802C",
":$	c #6A792D",
"<$	c #73862A",
"[$	c #657433",
"}$	c #4E5541",
"|$	c #474A3E",
"1$	c #657233",
"2$	c #6B7E2D",
"3$	c #4A742A",
"4$	c #46513B",
"5$	c #5D6837",
"6$	c #6C7A31",
"7$	c #607338",
"8$	c #6F7A35",
"9$	c #627437",
"0$	c #51583A",
"a$	c #58633C",
"b$	c #788F28",
"c$	c #799623",
"d$	c #667336",
"e$	c #4D5240",
"f$	c #667F26",
"g$	c #738928",
"h$	c #879E1E",
"i$	c #6B7634",
"j$	c #61802C",
"k$	c #709D15",
"l$	c #58613D",
"m$	c #5F6B39",
"n$	c #6A7B2C",
"o$	c #90A718",
"p$	c #839C1F",
"q$	c #687630",
"r$	c #72842E",
"s$	c #789228",
"t$	c #575E3D",
"u$	c #4E5441",
"v$	c #6D7C32",
"w$	c #647432",
"x$	c #608B1E",
"y$	c #5A8027",
"z$	c #575E3F",
"A$	c #809727",
"B$	c #9DAC12",
"C$	c #89A01D",
"D$	c #6B7D35",
"E$	c #5E663B",
"F$	c #758F28",
"G$	c #7B9823",
"H$	c #606E38",
"I$	c #4D4F41",
"J$	c #587A28",
"K$	c #5F8F13",
"L$	c #667F2A",
"M$	c #93A816",
"N$	c #9FAC10",
"O$	c #6F8725",
"P$	c #556A38",
"Q$	c #5D7E30",
"R$	c #7CAA0A",
"S$	c #6E8F2D",
"T$	c #677437",
"U$	c #778A2A",
"V$	c #7D9D21",
"W$	c #657333",
"X$	c #58623E",
"Y$	c #667532",
"Z$	c #5B693C",
"`$	c #5E6A37",
" %	c #4C6437",
".%	c #6D8F1C",
"+%	c #9EAA11",
"@%	c #95A817",
"#%	c #627339",
"$%	c #4C563E",
"%%	c #47493D",
"&%	c #677535",
"*%	c #7A9525",
"=%	c #606E36",
"-%	c #56643D",
";%	c #637036",
">%	c #6B7A2C",
",%	c #525F40",
"'%	c #515642",
")%	c #5B7631",
"!%	c #739B17",
"~%	c #7E9724",
"{%	c #6B7734",
"]%	c #679805",
"^%	c #6E8D22",
"/%	c #515A41",
"(%	c #647238",
"_%	c #555C3F",
":%	c #494F3D",
"<%	c #505640",
"[%	c #515841",
"}%	c #9FAC11",
"|%	c #8F9C1F",
"1%	c #526040",
"2%	c #4B4E3F",
"3%	c #4E583F",
"4%	c #73842B",
"5%	c #76862B",
"6%	c #59663C",
"7%	c #66752E",
"8%	c #707F2C",
"9%	c #515442",
"0%	c #567E29",
"a%	c #6B9B06",
"b%	c #859225",
"c%	c #9EAA10",
"  . + @ # $ . % & * = = - ; > , = = = ' ) ! ~ { ] ^ / ( = = _ _ ",
". . : = < [ } | 1 2 = = 3 ] 4 5 6 = 7 8 9 ) = @ 0 a b c = = d e ",
"e f @ = g h i j ] k l m n = | o p q r s t u   . % v w x y = . e ",
"_ z A @ | B i C D E F G H I J K L M c N u   . . % v O P H Q z R ",
"S T U V W X = = Y # Z 5 `  .Q ..+.@.  #.= $.%.& 0 &.= ~ *.=.-.y ",
";.>.,.B '.).= !.~.e {.~ ].^.@ y @.. . % @ = = /.(._.:.<.] N 6 = ",
"[.}.  % |.1.2.1   . % | 3.] % < 4.5.6.6.7.; = = y ,   8.f < N 9.",
"0.4 . . . a.S = ] # # b.N c.< 1.d.8.E # e.p = = = /.f.g.h.~._.i.",
"j.k.l.$ m.n.o.p.p.q.= y r.^.= = ,.s.t.u.M r y = = ^.y p.v.< w.x.",
"y.z.@.[ A.B.S = = ^.= C.y = = @ N 8 r D.,.E., /.F.*.= = G.. . @.",
"H.I.J.=.T y K.= = = N N |.< L.M.N.!.!.= < @.O.I Q = = N.P.. Q.b.",
"T I.9.C.' @ R.S.@ = 3.&.M.D D T.U.= N.|.% . O.I Q = = V.W.. Q.X.",
"Y.Z.= !.`.&.P. +.+++@+#+8.E E $+#+&.%+&+*+=+-+z.;+] >+l 6.% |.,+",
"- ; = = '+&.= !.)+y.N N d.4.4.m !+N - N /., ~+{+]+- < 4.4.< = = ",
"= = i ^+= = - /+(+&.< @.u H _+:+<+[+N.!./.N.  . .   ^+i /.= = = ",
"= !.t }+%.|+1+2+b 3+] # 4+T 5+6+l e 7+= ^+  . . . . W i 8+S = = ",
"y.9+0+a+b+9.c+d+e+c = = &.f+c+g+^+W M w h+i+. . @ = ^.~ N b+B p ",
"e.  4 O.9.9.p c b+N = = '+j+k+N q., l+8 m+n+k k ~ ^.= @ %+o+p+w ",
"q+. R.r+g.s+S = N ..p &.' T = = ~ g.t+_ u+v+w+x+/.= N.y+.   N N ",
"z+  A+R.% B+C+S ,.].1+&.= /.!.@ D+| t+_ E+R &.&.q.>+V.R.. . N 0 ",
"F+G+R.H+. I+|.~ J+K+L+M+N+O+P+Q+R+b+/.1 y+e N.y @+] % % S+T+U+V+",
"W+X+Y+Z+`+:. @.@+@@@#@$@%@&@*@=@-@N = = q./.N.y b+@+< ;@>@,@'@)@",
"!@~@{@]@^@/@(@_@:@<@[@}@|@1@2@3@4@= K.5@N+6@7@8@9@0@a@b@c@d@e@f@",
"g@h@i@j@k@l@m@n@o@p@q@r@s@t@u@v@w@x@y@z@A@B@C@D@E@F@G@H@I@J@K@L@",
"M@N@O@P@Q@R@S@T@U@V@W@X@Y@Z@`@ #.#+#@###$#%#&#*#=#-#;#>#,#'#)#!#",
"~#{#]#^#/#(#_#:#<#[#}#|#1#2#3#4#5#6#7#8#9#0#a#b#c#d#e#f#g#h#i#j#",
"k#l#m#n#o#p#q#r#s#t#u#v#w#x#y#z#A#B#C#D#E#F#G#H#I#J#K#L#M#N#O#P#",
"Q#R#S#T#U#V#W#X#Y#Z#`# $V#.$+$@$#$$$%$&$*$=$-$;$J#>$,$'$)$!$~$t#",
"{$]$^$/$($_$:$<$[$}$|$1$2$3$4$5$6$7$8$9$0$a$b$c$d$e$f$g$h$i$j$k$",
"l$m$n$($o$p$q$r$s$t$u$v$w$x$y$z$A$B$C$D$E$F$G$H$I$J$K$L$M$N$O$P$",
"Q$R$S$T$U$V$W$X$Y$Z$l$:$`$ %.%+%@%#%$%%%&%*%=%-%;%>%,%'%)%!%~%{%",
"]%^%/%'%(%U$F$_%:%<%l$:$[%W#}%|%#%1%2%3%4%5%6%7%8%d$'%9%0%a%b%c%"};
