/* XPM */
static char * wallwater_corner_bottomleft_2_xpm[] = {
"32 32 776 2",
"  	c #667236",
". 	c #779126",
"+ 	c #637231",
"@ 	c #6B7A31",
"# 	c #72842C",
"$ 	c #5C7C38",
"% 	c #688730",
"& 	c #506116",
"* 	c #2F777E",
"= 	c #13637C",
"- 	c #0E485C",
"; 	c #115568",
"> 	c #0F6378",
", 	c #137286",
"' 	c #14768A",
") 	c #0F7C9A",
"! 	c #0D7D9B",
"~ 	c #117B96",
"{ 	c #127993",
"] 	c #097DA1",
"^ 	c #0B7D9E",
"/ 	c #0E7D9B",
"( 	c #107A97",
"_ 	c #127895",
": 	c #147589",
"< 	c #147488",
"[ 	c #176D81",
"} 	c #186E82",
"| 	c #177083",
"1 	c #73822C",
"2 	c #5C6B38",
"3 	c #6F7E2C",
"4 	c #667A31",
"5 	c #638331",
"6 	c #5F7D21",
"7 	c #283D05",
"8 	c #2A6066",
"9 	c #1D677B",
"0 	c #104D61",
"a 	c #0F566B",
"b 	c #116679",
"c 	c #117B97",
"d 	c #0F7C98",
"e 	c #0B7C9C",
"f 	c #13778E",
"g 	c #117791",
"h 	c #0D7E9D",
"i 	c #127891",
"j 	c #186C7F",
"k 	c #196475",
"l 	c #166879",
"m 	c #127892",
"n 	c #0F7D99",
"o 	c #117896",
"p 	c #6E7D2E",
"q 	c #535A3D",
"r 	c #515642",
"s 	c #5E6E36",
"t 	c #5B7738",
"u 	c #698B26",
"v 	c #3A5D15",
"w 	c #294400",
"x 	c #357681",
"y 	c #236A81",
"z 	c #0F4A5C",
"A 	c #10576A",
"B 	c #136D81",
"C 	c #0A7DA0",
"D 	c #147387",
"E 	c #166272",
"F 	c #1A6A7B",
"G 	c #176E83",
"H 	c #0D7D9D",
"I 	c #0F7B99",
"J 	c #186F82",
"K 	c #176677",
"L 	c #0B7DA0",
"M 	c #626F33",
"N 	c #474B3E",
"O 	c #4A4E3E",
"P 	c #618A2A",
"Q 	c #527E2B",
"R 	c #517115",
"S 	c #282E0B",
"T 	c #141F09",
"U 	c #459EB5",
"V 	c #215C72",
"W 	c #0E4C61",
"X 	c #135D71",
"Y 	c #186576",
"Z 	c #177186",
"` 	c #14768B",
" .	c #15697A",
"..	c #157082",
"+.	c #15758A",
"@.	c #077EA2",
"#.	c #057EA4",
"$.	c #077EA3",
"%.	c #13778F",
"&.	c #196878",
"*.	c #176A7B",
"=.	c #186F83",
"-.	c #12778F",
";.	c #545841",
">.	c #555D3A",
",.	c #566835",
"'.	c #78941B",
").	c #4E6F16",
"!.	c #467300",
"~.	c #2B3D26",
"{.	c #1A6E82",
"].	c #388196",
"^.	c #135166",
"/.	c #0E5265",
"(.	c #125F73",
"_.	c #166F81",
":.	c #196373",
"<.	c #186C7D",
"[.	c #167386",
"}.	c #157386",
"|.	c #196272",
"1.	c #165E6C",
"2.	c #15697D",
"3.	c #127894",
"4.	c #117C98",
"5.	c #14748C",
"6.	c #087DA1",
"7.	c #196474",
"8.	c #165E6B",
"9.	c #1A6879",
"0.	c #7C882D",
"a.	c #9DA913",
"b.	c #749523",
"c.	c #648A2A",
"d.	c #5B7711",
"e.	c #5D7D00",
"f.	c #38654F",
"g.	c #206876",
"h.	c #3B7486",
"i.	c #205A6D",
"j.	c #0D546B",
"k.	c #10637E",
"l.	c #167285",
"m.	c #176E82",
"n.	c #157184",
"o.	c #186070",
"p.	c #19697A",
"q.	c #167084",
"r.	c #186D82",
"s.	c #186F81",
"t.	c #157388",
"u.	c #0F7B96",
"v.	c #157286",
"w.	c #196070",
"x.	c #157387",
"y.	c #5B643D",
"z.	c #8C9728",
"A.	c #8F9B23",
"B.	c #67842E",
"C.	c #6B891D",
"D.	c #6B8500",
"E.	c #3D6749",
"F.	c #266E78",
"G.	c #3F8193",
"H.	c #236477",
"I.	c #0B5D75",
"J.	c #0B6C8A",
"K.	c #0B7D9F",
"L.	c #1A6979",
"M.	c #186A7B",
"N.	c #147288",
"O.	c #107B97",
"P.	c #14758A",
"Q.	c #1A6575",
"R.	c #196E80",
"S.	c #525C41",
"T.	c #545F40",
"U.	c #627F34",
"V.	c #638431",
"W.	c #59770A",
"X.	c #355713",
"Y.	c #408E7B",
"Z.	c #418A9A",
"`.	c #3B7F90",
" +	c #105667",
".+	c #12667B",
"++	c #14738A",
"@+	c #18697C",
"#+	c #186575",
"$+	c #187084",
"%+	c #117C95",
"&+	c #0F7C9B",
"*+	c #196B7E",
"=+	c #829126",
"-+	c #617138",
";+	c #545A41",
">+	c #5B7F36",
",+	c #5D8832",
"'+	c #678723",
")+	c #496606",
"!+	c #3B6F46",
"~+	c #57A2AD",
"{+	c #3F8797",
"]+	c #1F6275",
"^+	c #135B6D",
"/+	c #166F86",
"(+	c #12778E",
"_+	c #107D9A",
":+	c #187185",
"<+	c #17606E",
"[+	c #166B7D",
"}+	c #0D7C9D",
"|+	c #0D7D9C",
"1+	c #107997",
"2+	c #1A697C",
"3+	c #176777",
"4+	c #177084",
"5+	c #19697C",
"6+	c #87A31C",
"7+	c #758929",
"8+	c #606D36",
"9+	c #576D3B",
"0+	c #7AB307",
"a+	c #6DA40E",
"b+	c #93A50A",
"c+	c #606300",
"d+	c #70AEA1",
"e+	c #316D7A",
"f+	c #387F8F",
"g+	c #0E6074",
"h+	c #116F88",
"i+	c #0E7C9B",
"j+	c #186675",
"k+	c #14758C",
"l+	c #1A6A7C",
"m+	c #186878",
"n+	c #53593D",
"o+	c #5F712F",
"p+	c #647A35",
"q+	c #616E39",
"r+	c #739429",
"s+	c #80AB21",
"t+	c #98AF19",
"u+	c #516312",
"v+	c #39696A",
"w+	c #306D7A",
"x+	c #0F5165",
"y+	c #0F5F74",
"z+	c #0E6881",
"A+	c #0D7B99",
"B+	c #0C7D9C",
"C+	c #176F81",
"D+	c #186877",
"E+	c #1A697A",
"F+	c #13768C",
"G+	c #127992",
"H+	c #0C7D9D",
"I+	c #434E3A",
"J+	c #6A9222",
"K+	c #6E9813",
"L+	c #799424",
"M+	c #758E2A",
"N+	c #6E9130",
"O+	c #5F8C27",
"P+	c #6D8E19",
"Q+	c #335649",
"R+	c #1D535F",
"S+	c #0D3D4D",
"T+	c #0F596E",
"U+	c #0E657E",
"V+	c #0D7A97",
"W+	c #117992",
"X+	c #196A7C",
"Y+	c #0E7C9A",
"Z+	c #0F7B97",
"`+	c #157488",
" @	c #057EA3",
".@	c #484C3D",
"+@	c #7B872D",
"@@	c #A5B205",
"#@	c #7A8C27",
"$@	c #4D7728",
"%@	c #547438",
"&@	c #54872C",
"*@	c #7AAF11",
"=@	c #698316",
"-@	c #1E484A",
";@	c #0A374A",
">@	c #0B5870",
",@	c #0D657E",
"'@	c #0C7894",
")@	c #167086",
"!@	c #186676",
"~@	c #196C7D",
"{@	c #196A7B",
"]@	c #0F7B98",
"^@	c #0A7C9E",
"/@	c #0B7C9D",
"(@	c #176D84",
"_@	c #1A6B7D",
":@	c #147690",
"<@	c #087EA2",
"[@	c #097C9F",
"}@	c #647130",
"|@	c #849C20",
"1@	c #839C20",
"2@	c #4F702E",
"3@	c #75A408",
"4@	c #64802A",
"5@	c #5F7D3A",
"6@	c #5A7F36",
"7@	c #68900E",
"8@	c #335C30",
"9@	c #253A31",
"0@	c #094157",
"a@	c #0C5D73",
"b@	c #116B82",
"c@	c #167083",
"d@	c #176575",
"e@	c #167087",
"f@	c #117790",
"g@	c #7A9326",
"h@	c #697730",
"i@	c #59633E",
"j@	c #5D673B",
"k@	c #7CA515",
"l@	c #677E35",
"m@	c #526040",
"n@	c #5F783A",
"o@	c #85992B",
"p@	c #66881B",
"q@	c #567233",
"r@	c #274246",
"s@	c #0B4052",
"t@	c #0D5B6F",
"u@	c #136F83",
"v@	c #14748A",
"w@	c #176474",
"x@	c #17697B",
"y@	c #15748A",
"z@	c #196170",
"A@	c #166575",
"B@	c #677631",
"C@	c #57643E",
"D@	c #5C663D",
"E@	c #657331",
"F@	c #607038",
"G@	c #56623F",
"H@	c #59653D",
"I@	c #7F8C2D",
"J@	c #82AD1D",
"K@	c #6C8F28",
"L@	c #5A7B2D",
"M@	c #465837",
"N@	c #0D3A49",
"O@	c #0D5064",
"P@	c #196A7A",
"Q@	c #147991",
"R@	c #0F7A99",
"S@	c #127B94",
"T@	c #156E83",
"U@	c #165F6C",
"V@	c #186777",
"W@	c #186B7E",
"X@	c #137894",
"Y@	c #157187",
"Z@	c #0F7D98",
"`@	c #4E5140",
" #	c #515A41",
".#	c #646F38",
"+#	c #6A792D",
"@#	c #6D822A",
"##	c #697B33",
"$#	c #667A36",
"%#	c #719816",
"&#	c #75A60C",
"*#	c #5A8434",
"=#	c #547135",
"-#	c #47582C",
";#	c #28302E",
">#	c #0D485B",
",#	c #10596C",
"'#	c #136C7E",
")#	c #196E82",
"!#	c #156778",
"~#	c #176675",
"{#	c #1B697A",
"]#	c #185F6E",
"^#	c #17616F",
"/#	c #176372",
"(#	c #157285",
"_#	c #176879",
":#	c #166E80",
"<#	c #494C3E",
"[#	c #585F3F",
"}#	c #657430",
"|#	c #799127",
"1#	c #7D9F20",
"2#	c #9EAE0D",
"3#	c #87A519",
"4#	c #598427",
"5#	c #91AE1F",
"6#	c #98AD1D",
"7#	c #627E0A",
"8#	c #304527",
"9#	c #0B3D50",
"0#	c #104C5F",
"a#	c #165868",
"b#	c #147287",
"c#	c #13778D",
"d#	c #157083",
"e#	c #175F6D",
"f#	c #176A79",
"g#	c #778A2A",
"h#	c #616F38",
"i#	c #4E5340",
"j#	c #4B4E3F",
"k#	c #606E39",
"l#	c #719317",
"m#	c #9CA814",
"n#	c #9DAA12",
"o#	c #9FB80E",
"p#	c #9CB70B",
"q#	c #8CA014",
"r#	c #4F5E00",
"s#	c #1F3A37",
"t#	c #0C4153",
"u#	c #136B7F",
"v#	c #127790",
"w#	c #127890",
"x#	c #14758B",
"y#	c #196F83",
"z#	c #687A34",
"A#	c #68772D",
"B#	c #617539",
"C#	c #658F23",
"D#	c #5D6F32",
"E#	c #5A693C",
"F#	c #5A6E38",
"G#	c #6A9E18",
"H#	c #72AA18",
"I#	c #6C951F",
"J#	c #466211",
"K#	c #222D10",
"L#	c #283E33",
"M#	c #125566",
"N#	c #0E7896",
"O#	c #0D7C9A",
"P#	c #0E7D9A",
"Q#	c #14748E",
"R#	c #196C7E",
"S#	c #4A4D3F",
"T#	c #515442",
"U#	c #56633D",
"V#	c #505D3D",
"W#	c #6F852A",
"X#	c #A0B00B",
"Y#	c #A8B302",
"Z#	c #7B8C27",
"`#	c #719D18",
" $	c #7FB30C",
".$	c #889C1F",
"+$	c #637725",
"@$	c #618619",
"#$	c #58800C",
"$$	c #2D5444",
"%$	c #116278",
"&$	c #0E738F",
"*$	c #0D7C9B",
"=$	c #0C7D9B",
"-$	c #18697B",
";$	c #126B7E",
">$	c #116C80",
",$	c #116E81",
"'$	c #126F82",
")$	c #186879",
"!$	c #0F7D9A",
"~$	c #0E7E9B",
"{$	c #5E6A37",
"]$	c #5D683C",
"^$	c #667637",
"/$	c #718429",
"($	c #829026",
"_$	c #799C1D",
":$	c #5E8723",
"<$	c #698D25",
"[$	c #718F2A",
"}$	c #709624",
"|$	c #588C25",
"1$	c #678023",
"2$	c #195B57",
"3$	c #145768",
"4$	c #126073",
"5$	c #11667B",
"6$	c #0F6E87",
"7$	c #0F7C99",
"8$	c #10738A",
"9$	c #146476",
"0$	c #135E6F",
"a$	c #21423E",
"b$	c #303F2C",
"c$	c #2B4337",
"d$	c #1F646C",
"e$	c #125F70",
"f$	c #156477",
"g$	c #17697C",
"h$	c #5E6C36",
"i$	c #47543B",
"j$	c #476C2F",
"k$	c #7E9921",
"l$	c #7C892D",
"m$	c #5F6A3A",
"n$	c #657038",
"o$	c #657233",
"p$	c #637032",
"q$	c #748E26",
"r$	c #6E7F2D",
"s$	c #5B6A39",
"t$	c #647E37",
"u$	c #5F7C36",
"v$	c #799E24",
"w$	c #98B30F",
"x$	c #5C7509",
"y$	c #234C04",
"z$	c #334100",
"A$	c #385649",
"B$	c #1D4C55",
"C$	c #194B55",
"D$	c #184956",
"E$	c #1A5361",
"F$	c #235557",
"G$	c #456003",
"H$	c #5D812B",
"I$	c #457000",
"J$	c #2C4C00",
"K$	c #1E4648",
"L$	c #15515F",
"M$	c #165565",
"N$	c #436233",
"O$	c #4F5D36",
"P$	c #9BA714",
"Q$	c #99A617",
"R$	c #6E7C2E",
"S$	c #5B633C",
"T$	c #494D3C",
"U$	c #5C6639",
"V$	c #6A9215",
"W$	c #54762D",
"X$	c #5D693C",
"Y$	c #768F27",
"Z$	c #A2B60B",
"`$	c #81AA07",
" %	c #83A31A",
".%	c #5C9601",
"+%	c #678E0B",
"@%	c #628014",
"#%	c #496127",
"$%	c #4D5F2C",
"%%	c #607223",
"&%	c #3B4B1B",
"*%	c #3F5C21",
"=%	c #4D6D16",
"-%	c #62861A",
";%	c #5D8902",
">%	c #416300",
",%	c #305D00",
"'%	c #214630",
")%	c #144C57",
"!%	c #44473C",
"~%	c #4A4F3D",
"{%	c #718A2C",
"]%	c #95A618",
"^%	c #72832C",
"/%	c #5D6837",
"(%	c #46493D",
"_%	c #474A3E",
":%	c #515640",
"<%	c #5A6C38",
"[%	c #627734",
"}%	c #718828",
"|%	c #749425",
"1%	c #607538",
"2%	c #6EA418",
"3%	c #789F24",
"4%	c #708F2E",
"5%	c #618034",
"6%	c #546F3C",
"7%	c #607E36",
"8%	c #6A8B29",
"9%	c #546A2F",
"0%	c #516F33",
"a%	c #55742E",
"b%	c #607E2A",
"c%	c #6A8730",
"d%	c #67861B",
"e%	c #4C7410",
"f%	c #294E13",
"g%	c #393A29",
"h%	c #4E5141",
"i%	c #608227",
"j%	c #6F9519",
"k%	c #73832C",
"l%	c #4E5041",
"m%	c #606A3B",
"n%	c #6F7D31",
"o%	c #7D9D21",
"p%	c #748D25",
"q%	c #608D17",
"r%	c #4F6834",
"s%	c #556C3D",
"t%	c #596B3B",
"u%	c #54663E",
"v%	c #647531",
"w%	c #5B6C3C",
"x%	c #72842D",
"y%	c #647B30",
"z%	c #576D3C",
"A%	c #5D7F37",
"B%	c #70882B",
"C%	c #637532",
"D%	c #5C6A3D",
"E%	c #7FA921",
"F%	c #6B8E24",
"G%	c #4B6530",
"H%	c #486036",
"I%	c #677530",
"J%	c #5A7337",
"K%	c #7CAA0A",
"L%	c #749C1B",
"M%	c #66742F",
"N%	c #667332",
"O%	c #687A30",
"P%	c #92A816",
"Q%	c #9EAA11",
"R%	c #556B3A",
"S%	c #74A111",
"T%	c #7AA119",
"U%	c #69782D",
"V%	c #697C2F",
"W%	c #4C553D",
"X%	c #4A4C3F",
"Y%	c #525B41",
"Z%	c #607539",
"`%	c #5B633E",
" &	c #565C3F",
".&	c #799226",
"+&	c #63940A",
"@&	c #5E7335",
"#&	c #7EA220",
"$&	c #799C27",
"%&	c #496535",
"&&	c #4B6637",
"*&	c #6B7A2C",
"=&	c #617639",
"-&	c #658E23",
";&	c #4C5E36",
">&	c #54613C",
",&	c #6E822B",
"'&	c #7C9C21",
")&	c #677335",
"!&	c #54613F",
"~&	c #515D41",
"{&	c #58623E",
"]&	c #5C7037",
"^&	c #6F8529",
"/&	c #9DAD0F",
"(&	c #98A41D",
"_&	c #6F882E",
":&	c #56613D",
"<&	c #7C9A22",
"[&	c #627033",
"}&	c #6D802B",
"|&	c #7BA219",
"1&	c #4D702F",
"2&	c #5F6C35",
"3&	c #48543B",
"4&	c #607434",
"5&	c #6C7A31",
"6&	c #607338",
"7&	c #6F7A35",
"8&	c #627437",
"9&	c #51583A",
"0&	c #58633C",
"a&	c #788F28",
"b&	c #799623",
"c&	c #667336",
"d&	c #4D5240",
"e&	c #667F26",
"f&	c #738928",
"g&	c #879E1E",
"h&	c #6B7634",
"i&	c #61802C",
"j&	c #709D15",
"k&	c #7A9F1C",
"l&	c #92A219",
"m&	c #9CAA13",
"n&	c #7F8E27",
"o&	c #70802C",
"p&	c #73862A",
"q&	c #657433",
"r&	c #4E5541",
"s&	c #6B7E2D",
"t&	c #4A742A",
"u&	c #46513B",
"v&	c #809727",
"w&	c #9DAC12",
"x&	c #89A01D",
"y&	c #6B7D35",
"z&	c #5E663B",
"A&	c #758F28",
"B&	c #7B9823",
"C&	c #606E38",
"D&	c #4D4F41",
"E&	c #587A28",
"F&	c #5F8F13",
"G&	c #667F2A",
"H&	c #93A816",
"I&	c #9FAC10",
"J&	c #6F8725",
"K&	c #556A38",
"L&	c #58613D",
"M&	c #5F6B39",
"N&	c #6A7B2C",
"O&	c #90A718",
"P&	c #839C1F",
"Q&	c #687630",
"R&	c #72842E",
"S&	c #789228",
"T&	c #575E3D",
"U&	c #4E5441",
"V&	c #6D7C32",
"W&	c #647432",
"X&	c #608B1E",
"Y&	c #5A8027",
"Z&	c #575E3F",
"`&	c #95A817",
" *	c #627339",
".*	c #4C563E",
"+*	c #47493D",
"@*	c #677535",
"#*	c #7A9525",
"$*	c #606E36",
"%*	c #56643D",
"&*	c #637036",
"**	c #525F40",
"=*	c #5B7631",
"-*	c #739B17",
";*	c #7E9724",
">*	c #6B7734",
",*	c #5D7E30",
"'*	c #6E8F2D",
")*	c #677437",
"!*	c #657333",
"~*	c #667532",
"{*	c #5B693C",
"]*	c #4C6437",
"^*	c #6D8F1C",
"/*	c #4E583F",
"(*	c #73842B",
"_*	c #76862B",
":*	c #59663C",
"<*	c #66752E",
"[*	c #707F2C",
"}*	c #567E29",
"|*	c #6B9B06",
"1*	c #859225",
"2*	c #9EAA10",
"3*	c #679805",
"4*	c #6E8D22",
"5*	c #647238",
"6*	c #555C3F",
"7*	c #494F3D",
"8*	c #505640",
"9*	c #515841",
"0*	c #9FAC11",
"a*	c #8F9C1F",
"  . + @ # $ % & * = - ; > , ' ' ) ! ~ { ] ^ ! / ( _ : : < [ } | ",
"1   2 3 4 5 6 7 8 9 0 a b < c d ! ! e : f g h i j k : : l m n o ",
"p q r s t u v w x y z A B : ! d d C { : D E F G m H I J K : i L ",
"M N O P Q R S T U V W X K Y Z ` ' Z  .{ i ..F +.@.#.$.%.&.*.=.-.",
";.>.,.'.).!.~.{.].^./.(._.:.<.[.}.|.1.2.3.4.: : 5.] 6.o 7.8.Y 9.",
"0.a.b.c.d.e.f.g.h.i.j.k.m l.m.: n.o.p...q.r.: s.t.d u.v.w.x.{ [.",
"y.z.A.B.C.D.E.F.G.H.I.J.K.f l.L.M.N.) / O.P.Q.j ) ! / i R.m / f ",
"S.T.  U.V.W.X.Y.Z.`. +.+++t.@+#+$+n ! ! ! %+}.: m ] ] &+l.*+f P.",
"=+-+;+>+,+'+)+!+~+{+]+^+/+(+_+:+<+[+}+^ |+1+2+3+3+4+: [.5+x.: : ",
"6+7+8+9+0+a+b+c+d+e+f+g+h+i+! (+_.j+(+g k+l+}.: : x.: m+[.: : { ",
"n+o+p+q+r+s+t+u+v+w+x+y+z+A+B+&+C+D+E+:.|.[.F+: : : l.l.O.f G+H+",
"I+J+K+L+M+N+O+P+Q+R+S+T+U+V+B+W+|.D+L.m+X+{ Y+Z+{ : R.`+H+@.@. @",
".@+@@@#@$@%@&@*@=@-@;@>@,@'@O.)@!@~@: s.{@`+]@^@/@(@_@:@<@#.#.[@",
"}@|@1@2@3@4@5@6@7@8@9@0@a@b@: : < [ : : c@`+: s.d@_.l.l.e@f@f@J ",
"g@h@i@j@k@l@m@n@o@p@q@r@s@t@u@: : : F v@: : < w@x@`+f (+y@&.z@A@",
"B@C@D@E@F@G@H@I@J@K@L@M@N@O@> < : s.P@Q@R@S@T@U@V@W@m ] X@|.Y@Z@",
"`@ #.#+#@###$#%#&#*#=#-#;#>#,#'#_.)#!#~#{#L.]#^#/#(#: : `+_#]#:#",
"`@<#[#}#|#1#2#3#4#5#6#7#8#9#0#a#b#) n c#L.L.d#(#{#l.: : c@e#f#l.",
"g#h#i#j#k#K+l#m#n#o#p#q#r#s#t#u#v#! Y+w#x#y#}.: l.9.d#`+X+|.: : ",
"z#A#i#j#B#C#D#E#F#G#H#I#J#K#L#M#N#) O#Y+/ P#Q#}.p.w.T@`+: R#s.{ ",
"S#T#N U#V#W#X#Y#Z#`# $.$+$@$#$$$%$&$Y+*$! =$O.v.-$;$>$,$'$)$!$~$",
"{$r q p ]$^$/$($6+_$:$<$[$}$|$1$2$3$4$5$6$7$8$9$0$a$b$c$d$e$f$g$",
"h$i$j$k$l$m$n$o$p$q$r$s$t$u$v$w$x$y$z$A$B$C$D$E$F$G$H$I$J$K$L$M$",
"i#N$O$P$Q$R$1 S$T$U$V$W$X$Y$Z$`$ %.%+%@%#%$%%%&%*%=%-%;%>%,%'%)%",
"!%!%~%{%]%^%/%(%_%:%<%[%}%|%p 1%2%3%4%5%6%7%8%9%0%a%b%c%d%e%f%g%",
"!%j#h%i%j%k%l%j#m%n%g#o%p%q%r%T#s%t%u%v%w%x%y%z%A%B%C%D%E%F%G%H%",
"S$I%J%K%L%M%N%O%P%Q%n%o$R%S%T%U%V%W%X%Y%Z%|#`% &}%.&+&@&#&$&%&&&",
"*&h#=&-&;&>&,&'&Q%)&!&~&{&]&^&.&/&(&_&:&]$<&8+[&}&|&1&2&<&z#3&4&",
"5&6&7&8&9&0&a&b&c&d&e&f&g&h&i&j&k&l&m&@@n&o&+#p&q&r&_%o$s&t&u&/%",
"v&w&x&y&z&A&B&C&D&E&F&G&H&I&J&K&L&M&N&n&O&P&Q&R&S&T&U&V&W&X&Y&Z&",
"`& *.*+*@*#*$*%*&**&**r =*-*;*>*,*K%'*)*g#o%!*{&~*{*L&+#{$]*^*Q%",
" *m@j#/*(*_*:*<*[*c&r T#}*|*1*2*3*4* #r 5*g#A&6*7*8*L&+#9*8+0*a*"};
