/* XPM */
static char * wallwater_corner_bottomright_1_xpm[] = {
"32 32 730 2",
"  	c #186E80",
". 	c #147488",
"+ 	c #147589",
"@ 	c #167185",
"# 	c #176F82",
"$ 	c #117B96",
"% 	c #14758A",
"& 	c #167087",
"* 	c #107A97",
"= 	c #166474",
"- 	c #1B6A7B",
"; 	c #157386",
"> 	c #13768C",
", 	c #117A96",
"' 	c #0D7D9B",
") 	c #0F7C9A",
"! 	c #14758B",
"~ 	c #077394",
"{ 	c #237790",
"] 	c #306C6E",
"^ 	c #3F5D2D",
"/ 	c #496535",
"( 	c #5C7B37",
"_ 	c #56703C",
": 	c #575D3D",
"< 	c #73822D",
"[ 	c #6F7E2C",
"} 	c #637231",
"| 	c #166F86",
"1 	c #147389",
"2 	c #186373",
"3 	c #196170",
"4 	c #187185",
"5 	c #14768A",
"6 	c #14778D",
"7 	c #127894",
"8 	c #166D7F",
"9 	c #176474",
"0 	c #186C7D",
"a 	c #127993",
"b 	c #0E7C9A",
"c 	c #0E7D9A",
"d 	c #097EA0",
"e 	c #147588",
"f 	c #106F85",
"g 	c #4394A6",
"h 	c #3E7164",
"i 	c #486028",
"j 	c #6B8929",
"k 	c #6C7A31",
"l 	c #4E5141",
"m 	c #595F3F",
"n 	c #5E683A",
"o 	c #535F3F",
"p 	c #097DA2",
"q 	c #12778F",
"r 	c #185F6D",
"s 	c #18616F",
"t 	c #186778",
"u 	c #196878",
"v 	c #186F82",
"w 	c #107B97",
"x 	c #176676",
"y 	c #176273",
"z 	c #0F7B97",
"A 	c #0C7D9D",
"B 	c #0F7B99",
"C 	c #116E82",
"D 	c #4998A6",
"E 	c #477F6C",
"F 	c #466C14",
"G 	c #5F7E34",
"H 	c #628036",
"I 	c #70872C",
"J 	c #717F2F",
"K 	c #5B633C",
"L 	c #525742",
"M 	c #636F33",
"N 	c #186F83",
"O 	c #19697A",
"P 	c #157284",
"Q 	c #167285",
"R 	c #186B7D",
"S 	c #146D82",
"T 	c #186A7B",
"U 	c #186576",
"V 	c #186C80",
"W 	c #13778D",
"X 	c #15758B",
"Y 	c #166778",
"Z 	c #0E728E",
"` 	c #3F8D9E",
" .	c #3F827F",
"..	c #2D4507",
"+.	c #54750F",
"@.	c #708E28",
"#.	c #608235",
"$.	c #6E872B",
"%.	c #68772D",
"&.	c #658725",
"*.	c #69782E",
"=.	c #1A697B",
"-.	c #14748A",
";.	c #127991",
">.	c #13778E",
",.	c #0F7A99",
"'.	c #117995",
").	c #157489",
"!.	c #157286",
"~.	c #186B7C",
"{.	c #196574",
"].	c #196C7E",
"^.	c #186E81",
"/.	c #165E6C",
"(.	c #146F86",
"_.	c #0F738E",
":.	c #22748E",
"<.	c #218699",
"[.	c #2E441C",
"}.	c #325700",
"|.	c #647A1B",
"1.	c #5D8037",
"2.	c #547737",
"3.	c #669414",
"4.	c #659605",
"5.	c #637C2B",
"6.	c #167386",
"7.	c #1A6778",
"8.	c #1A6171",
"9.	c #117896",
"0.	c #15748A",
"a.	c #177084",
"b.	c #157387",
"c.	c #17697B",
"d.	c #157083",
"e.	c #16697D",
"f.	c #19647A",
"g.	c #1E798B",
"h.	c #538B80",
"i.	c #3B6200",
"j.	c #50740D",
"k.	c #68882B",
"l.	c #5B8A2A",
"m.	c #7FAC0C",
"n.	c #709D16",
"o.	c #50603C",
"p.	c #0B7B9C",
"q.	c #0B7D9D",
"r.	c #0B7D9E",
"s.	c #13758D",
"t.	c #176E82",
"u.	c #186F81",
"v.	c #0A7EA0",
"w.	c #087EA2",
"x.	c #0E7D9C",
"y.	c #1A6A7B",
"z.	c #176677",
"A.	c #127891",
"B.	c #0E7D9B",
"C.	c #137790",
"D.	c #196C7F",
"E.	c #114F64",
"F.	c #56A3A9",
"G.	c #59764B",
"H.	c #627D05",
"I.	c #9FB30A",
"J.	c #86A11F",
"K.	c #7DA21B",
"L.	c #4E6734",
"M.	c #515442",
"N.	c #057EA4",
"O.	c #0D7C9C",
"P.	c #166779",
"Q.	c #1A6878",
"R.	c #176D80",
"S.	c #196475",
"T.	c #186879",
"U.	c #14788E",
"V.	c #1A839F",
"W.	c #207C91",
"X.	c #0F5E75",
"Y.	c #378399",
"Z.	c #4B8B91",
"`.	c #647F17",
" +	c #9FB80E",
".+	c #89AE1C",
"++	c #96AA14",
"@+	c #909D1F",
"#+	c #5F6A3B",
"$+	c #157589",
"%+	c #137793",
"&+	c #147287",
"*+	c #186574",
"=+	c #176E80",
"-+	c #186A7C",
";+	c #176C80",
">+	c #147991",
",+	c #176473",
"'+	c #176373",
")+	c #107997",
"!+	c #0C7D9C",
"~+	c #0E7B9A",
"{+	c #2A7B90",
"]+	c #337D8E",
"^+	c #206373",
"/+	c #317E95",
"(+	c #547E5E",
"_+	c #87A41D",
":+	c #8CAF1D",
"<+	c #668330",
"[+	c #6E8B29",
"}+	c #97A615",
"|+	c #9EAE0E",
"1+	c #196474",
"2+	c #18606F",
"3+	c #1A6979",
"4+	c #1A6777",
"5+	c #17697A",
"6+	c #14788C",
"7+	c #107B96",
"8+	c #186675",
"9+	c #147388",
"0+	c #117791",
"a+	c #3B8D9D",
"b+	c #4297A8",
"c+	c #4191A3",
"d+	c #1D7993",
"e+	c #6C832F",
"f+	c #9BB911",
"g+	c #789A26",
"h+	c #50623E",
"i+	c #436930",
"j+	c #608F16",
"k+	c #748F24",
"l+	c #12778E",
"m+	c #157184",
"n+	c #117994",
"o+	c #186776",
"p+	c #195F6E",
"q+	c #176E81",
"r+	c #3A93A5",
"s+	c #3F93A4",
"t+	c #297E90",
"u+	c #2F7681",
"v+	c #637E2B",
"w+	c #7CA425",
"x+	c #608137",
"y+	c #47513C",
"z+	c #759F1C",
"A+	c #5A8026",
"B+	c #4E5041",
"C+	c #107A95",
"D+	c #0D7C9A",
"E+	c #1E839F",
"F+	c #197893",
"G+	c #1B6E83",
"H+	c #506F4B",
"I+	c #708E2E",
"J+	c #6B8C2D",
"K+	c #55673E",
"L+	c #525D41",
"M+	c #567830",
"N+	c #4B553D",
"O+	c #44473C",
"P+	c #0F7A98",
"Q+	c #137288",
"R+	c #176170",
"S+	c #196978",
"T+	c #137891",
"U+	c #127992",
"V+	c #0C7D9E",
"W+	c #0F7C98",
"X+	c #137791",
"Y+	c #196A7A",
"Z+	c #1A6879",
"`+	c #0F718B",
" @	c #185D6D",
".@	c #51836D",
"+@	c #506B39",
"@@	c #516C3A",
"#@	c #648536",
"$@	c #788A2A",
"%@	c #7D9F20",
"&@	c #778C29",
"*@	c #6B7932",
"=@	c #515742",
"-@	c #157285",
";@	c #167083",
">@	c #15778D",
",@	c #13768D",
"'@	c #115F71",
")@	c #0E5C6E",
"!@	c #3C676F",
"~@	c #678137",
"{@	c #4B6736",
"]@	c #6A8832",
"^@	c #7FA621",
"/@	c #87A31C",
"(@	c #72862E",
"_@	c #5D683C",
":@	c #565F3E",
"<@	c #59623E",
"[@	c #196E81",
"}@	c #196B7E",
"|@	c #1B697A",
"1@	c #166F84",
"2@	c #127489",
"3@	c #0C5A6C",
"4@	c #3C7077",
"5@	c #54959A",
"6@	c #5F7335",
"7@	c #648235",
"8@	c #77972A",
"9@	c #718830",
"0@	c #58633C",
"a@	c #4B4E3F",
"b@	c #545A41",
"c@	c #71842F",
"d@	c #0E7D99",
"e@	c #107C99",
"f@	c #0F7694",
"g@	c #0D596B",
"h@	c #347D8E",
"i@	c #428F99",
"j@	c #7AA01F",
"k@	c #6A8E2A",
"l@	c #66931C",
"m@	c #515540",
"n@	c #45473C",
"o@	c #677532",
"p@	c #778A2A",
"q@	c #147690",
"r@	c #166473",
"s@	c #127A94",
"t@	c #0D7D9C",
"u@	c #1A6B7C",
"v@	c #157082",
"w@	c #186D7F",
"x@	c #186D81",
"y@	c #156575",
"z@	c #186575",
"A@	c #176071",
"B@	c #406D64",
"C@	c #7EA736",
"D@	c #7EA721",
"E@	c #6E902C",
"F@	c #63852A",
"G@	c #5E8B1A",
"H@	c #5E871E",
"I@	c #464B3D",
"J@	c #5F6939",
"K@	c #627133",
"L@	c #545A3D",
"M@	c #167286",
"N@	c #19697B",
"O@	c #166576",
"P@	c #117893",
"Q@	c #0C7E9D",
"R@	c #147790",
"S@	c #176F81",
"T@	c #17606E",
"U@	c #136E82",
"V@	c #1D6371",
"W@	c #34635F",
"X@	c #749224",
"Y@	c #73922E",
"Z@	c #516D37",
"`@	c #4B6039",
" #	c #4F5E3E",
".#	c #4D6F30",
"+#	c #5D6937",
"@#	c #697730",
"##	c #5A623C",
"$#	c #484D3D",
"%#	c #4C4F40",
"&#	c #12788F",
"*#	c #196B7C",
"=#	c #196372",
"-#	c #1A6B7D",
";#	c #0F7B98",
">#	c #116F85",
",#	c #16596A",
"'#	c #396354",
")#	c #687F35",
"!#	c #536C39",
"~#	c #54703A",
"{#	c #5B7339",
"]#	c #535941",
"^#	c #515C40",
"/#	c #55653A",
"(#	c #515A41",
"_#	c #494C3F",
":#	c #5D663A",
"<#	c #74882A",
"[#	c #17758A",
"}#	c #176D81",
"|#	c #137A90",
"1#	c #186C7F",
"2#	c #0E7996",
"3#	c #0C6D88",
"4#	c #165464",
"5#	c #547B02",
"6#	c #54892A",
"7#	c #4C6837",
"8#	c #546A3E",
"9#	c #72812C",
"0#	c #667531",
"a#	c #4E613C",
"b#	c #436A2F",
"c#	c #505342",
"d#	c #667137",
"e#	c #73822C",
"f#	c #6F832A",
"g#	c #15758C",
"h#	c #157488",
"i#	c #167B96",
"j#	c #0F7794",
"k#	c #0F7895",
"l#	c #127995",
"m#	c #0A6B88",
"n#	c #2E5E43",
"o#	c #75AB03",
"p#	c #77B007",
"q#	c #4C5D3B",
"r#	c #647438",
"s#	c #87A11D",
"t#	c #7B892C",
"u#	c #535C40",
"v#	c #67762D",
"w#	c #667436",
"x#	c #4E5340",
"y#	c #146B7E",
"z#	c #175867",
"A#	c #165465",
"B#	c #146C81",
"C#	c #0E677F",
"D#	c #0E6880",
"E#	c #126D84",
"F#	c #1B6473",
"G#	c #40732D",
"H#	c #5B941E",
"I#	c #81B80B",
"J#	c #51683C",
"K#	c #466634",
"L#	c #4D533D",
"M#	c #809826",
"N#	c #A5B107",
"O#	c #75822D",
"P#	c #647133",
"Q#	c #5A683B",
"R#	c #464C3D",
"S#	c #4C563E",
"T#	c #127387",
"U#	c #12697C",
"V#	c #135B6C",
"W#	c #116E85",
"X#	c #116C82",
"Y#	c #126C7F",
"Z#	c #1A5A66",
"`#	c #1C5661",
" $	c #1C5D6B",
".$	c #165D6F",
"+$	c #16586B",
"@$	c #2D6053",
"#$	c #47781D",
"$$	c #447006",
"%$	c #446812",
"&$	c #617C1E",
"*$	c #9EB40F",
"=$	c #729D26",
"-$	c #5E971D",
";$	c #53673E",
">$	c #484B3E",
",$	c #47493D",
"'$	c #4E6F30",
")$	c #658129",
"!$	c #657333",
"~$	c #474C3E",
"{$	c #4F543D",
"]$	c #6E7C30",
"^$	c #106375",
"/$	c #117189",
"($	c #107895",
"_$	c #116A80",
":$	c #3B6E5B",
"<$	c #2A3D2D",
"[$	c #2A3F32",
"}$	c #1B4E5B",
"|$	c #23675A",
"1$	c #4F6A2C",
"2$	c #688E04",
"3$	c #617B0D",
"4$	c #303C40",
"5$	c #355948",
"6$	c #4E8523",
"7$	c #90B308",
"8$	c #79B10E",
"9$	c #69A013",
"0$	c #86AF1F",
"a$	c #83A221",
"b$	c #5C7A38",
"c$	c #50643D",
"d$	c #4D543A",
"e$	c #44463C",
"f$	c #52613D",
"g$	c #769528",
"h$	c #717F2E",
"i$	c #5F8125",
"j$	c #5C8225",
"k$	c #55623A",
"l$	c #234038",
"m$	c #1B5962",
"n$	c #206162",
"o$	c #408659",
"p$	c #4D7400",
"q$	c #597E13",
"r$	c #4A7306",
"s$	c #325800",
"t$	c #304D1B",
"u$	c #536F38",
"v$	c #5F8434",
"w$	c #6C8F31",
"x$	c #849E2B",
"y$	c #718A2A",
"z$	c #6B852A",
"A$	c #638037",
"B$	c #6CA01B",
"C$	c #779B25",
"D$	c #6F8C2F",
"E$	c #607C34",
"F$	c #52603F",
"G$	c #5D673B",
"H$	c #66752E",
"I$	c #4F573B",
"J$	c #4B513E",
"K$	c #575D3E",
"L$	c #626E34",
"M$	c #687436",
"N$	c #658723",
"O$	c #4A6139",
"P$	c #4F5241",
"Q$	c #3E5B2C",
"R$	c #425B23",
"S$	c #3A5322",
"T$	c #4A7115",
"U$	c #62950A",
"V$	c #638418",
"W$	c #5A8D06",
"X$	c #326500",
"Y$	c #5A7427",
"Z$	c #7B9E28",
"`$	c #81AD1F",
" %	c #78A023",
".%	c #669F13",
"+%	c #548030",
"@%	c #55703C",
"#%	c #53643E",
"$%	c #57633C",
"%%	c #53613F",
"&%	c #647231",
"*%	c #5A683D",
"=%	c #71802E",
"-%	c #626F33",
";%	c #57653D",
">%	c #6F7D2D",
",%	c #627033",
"'%	c #5B653D",
")%	c #7B9823",
"!%	c #6B7D2F",
"~%	c #45483C",
"{%	c #5E7837",
"]%	c #68822C",
"^%	c #4E6831",
"/%	c #6C9315",
"(%	c #78A51A",
"_%	c #64921D",
":%	c #7BA91D",
"<%	c #6B8C26",
"[%	c #95B515",
"}%	c #9EAC11",
"|%	c #708231",
"1%	c #698431",
"2%	c #5A7A36",
"3%	c #77A712",
"4%	c #7DA719",
"5%	c #6A7B2D",
"6%	c #697C2F",
"7%	c #4C553D",
"8%	c #4A4C3F",
"9%	c #525B41",
"0%	c #607539",
"a%	c #799127",
"b%	c #5B633E",
"c%	c #565C3F",
"d%	c #718828",
"e%	c #799226",
"f%	c #63940A",
"g%	c #5E7335",
"h%	c #7D9E20",
"i%	c #758929",
"j%	c #46493D",
"k%	c #6C7E2C",
"l%	c #616F38",
"m%	c #617539",
"n%	c #658D24",
"o%	c #4C5E36",
"p%	c #55633C",
"q%	c #6D9615",
"r%	c #7DA121",
"s%	c #677335",
"t%	c #54613F",
"u%	c #515D41",
"v%	c #58623F",
"w%	c #5C7037",
"x%	c #6F8529",
"y%	c #9DAD0F",
"z%	c #98A41D",
"A%	c #6F882E",
"B%	c #56613D",
"C%	c #7C9A22",
"D%	c #606D36",
"E%	c #6D802B",
"F%	c #7BA219",
"G%	c #4D702F",
"H%	c #5F6C35",
"I%	c #677535",
"J%	c #5D6837",
"K%	c #607338",
"L%	c #6F7A35",
"M%	c #627437",
"N%	c #51583A",
"O%	c #788F28",
"P%	c #799623",
"Q%	c #667336",
"R%	c #4D5240",
"S%	c #667F26",
"T%	c #738928",
"U%	c #879E1E",
"V%	c #6B7634",
"W%	c #61802C",
"X%	c #709D15",
"Y%	c #7A9F1C",
"Z%	c #92A219",
"`%	c #9CAA13",
" &	c #A5B205",
".&	c #7F8E27",
"+&	c #70802C",
"@&	c #6A792D",
"#&	c #73862A",
"$&	c #657433",
"%&	c #4E5541",
"&&	c #474A3E",
"*&	c #657233",
"=&	c #6B7E2D",
"-&	c #4A742A",
";&	c #46513B",
">&	c #809727",
",&	c #9DAC12",
"'&	c #89A01D",
")&	c #6B7D35",
"!&	c #5E663B",
"~&	c #758F28",
"{&	c #606E38",
"]&	c #4D4F41",
"^&	c #587A28",
"/&	c #5F8F13",
"(&	c #667F2A",
"_&	c #93A816",
":&	c #9FAC10",
"<&	c #6F8725",
"[&	c #556A38",
"}&	c #58613D",
"|&	c #5F6B39",
"1&	c #6A7B2C",
"2&	c #90A718",
"3&	c #839C1F",
"4&	c #687630",
"5&	c #72842E",
"6&	c #789228",
"7&	c #575E3D",
"8&	c #4E5441",
"9&	c #6D7C32",
"0&	c #647432",
"a&	c #608B1E",
"b&	c #5A8027",
"c&	c #575E3F",
"d&	c #95A817",
"e&	c #627339",
"f&	c #7A9525",
"g&	c #606E36",
"h&	c #56643D",
"i&	c #637036",
"j&	c #6B7A2C",
"k&	c #525F40",
"l&	c #515642",
"m&	c #5B7631",
"n&	c #739B17",
"o&	c #7E9724",
"p&	c #6B7734",
"q&	c #5D7E30",
"r&	c #7CAA0A",
"s&	c #6E8F2D",
"t&	c #677437",
"u&	c #7D9D21",
"v&	c #58623E",
"w&	c #667532",
"x&	c #5B693C",
"y&	c #5E6A37",
"z&	c #4C6437",
"A&	c #6D8F1C",
"B&	c #9EAA11",
"C&	c #526040",
"D&	c #4E583F",
"E&	c #73842B",
"F&	c #76862B",
"G&	c #59663C",
"H&	c #707F2C",
"I&	c #567E29",
"J&	c #6B9B06",
"K&	c #859225",
"L&	c #9EAA10",
"M&	c #679805",
"N&	c #6E8D22",
"O&	c #647238",
"P&	c #555C3F",
"Q&	c #494F3D",
"R&	c #505640",
"S&	c #515841",
"T&	c #9FAC11",
"U&	c #8F9C1F",
"  . + + @ # $ % & * @ = - ; + + > , ' ) ! ~ { ] ^ / ( _ : < [ } ",
", | + 1 2 3 4 5 6 7 8 9 0 + + a b c ' d e f g h i / j k l m n o ",
"p q r s t u v w ' ' w x y @ + z ' z A B . C D E F G H I J K L M ",
"q N O P Q Q w ' ' ' w R S T U V W + X Y > Z `  ...+.@.#.$.%.&.*.",
"=.-.;.) 6 + >.,.'.).+ + !.~.{.].+ ^.r /.(._.:.<.[.}.|.1.2.3.4.5.",
"6.w ' ' ) > + + 7.8.& B 9.0.a.b.+ c.3 8 d.e.f.g.h.i.j.k.l.m.n.o.",
"+ p.q.q.r.s.t.+ + u.0.v.w.x.+ ].y.z.A.) B.C.D.E.F.G.H.I.J.K.L.M.",
"!.7 N.N.O.P.+ + + + Q.R.>.& b.S.T.U.B.' ' V.W.X.Y.Z.`. +.+++@+#+",
"3 $+%+&+*+=++ + . . -+;+>.w >+,+'+)+r.!+~+{+]+^+/+(+_+:+<+[+}+|+",
"1+2+3+4+d.Q ].0 5+. + 6+B.' 7+; 8+9+0+q V a+b+c+d+e+f+g+h+i+j+k+",
"; ].+ > l+>.m+3 1 + % n+' ' A X o+3+4+p+q+r+s+t+u+v+w+x+y+z+A+B+",
"+ + , b ' ;.m+3 + + 5 C+' ' D+T.U 3+3+4+> E+F+G+H+I+J+K+L+M+N+O+",
"; + 7 P+, Q+R+S+-.T+U+V+' W+X+t Y+; ; Z+!.`+ @.@+@@@#@$@%@&@*@=@",
"].+ -@    d.;@>@!.,@q 0+>.5 + + a.b.+ m+'@)@!@~@{@]@^@/@(@_@:@<@",
"[@-.; =.% w ' ' B.A.}@|@+ + + + + ].1@2@3@4@5@6@7@8@9@0@a@O+b@c@",
"d@e@+ b.w ' ' ' ' ) }@|@u.+ + + 6.Y+4 f@g@h@i@j@k@l@m@n@O+a@o@p@",
"q@r@2 s@t@' b 6 + t.+ ].u@v@d.w@x@y@z@A@B@C@D@E@F@G@H@I@J@[ K@L@",
"M@N@/.O@P@Q@P+t.+ + a R@S@T@2 A.B.w U@V@W@X@Y@Z@`@ #.#+#@###$#%#",
"&#>.-@S+*#=#-#Q + a U+' 7+].% ;#' * >#,#'#)#!#~#{#]#^#/#(#_#:#<#",
"&#>.Q [#+ 6.. }#|#a ' ' z 1#w ' ' 2#3#4#5#6#7#8#9#0#a#b#c#d#e#f#",
"|@-#].g#w A.h#-#0.) ' c % ;+i#j#k#l#m#n#o#p#+@q#r#s#t#u###v#w#x#",
"Q . + !.].0.h#-#- 0.>.y#z#A#B#C#D#E#F#G#H#I#J#K#L#M#N#O#P#Q#R#S#",
"T#> % 2@U#V#W#X#Y#Z#`# $.$+$@$#$$$%$&$*$=$-$;$>$,$'$)$/@!$~${$]$",
"^$/$($_$:$<$[$}$|$1$2$3$4$5$6$7$8$9$0$a$b$c$K@d$e$H@f$g$h$i$j$k$",
"l$m$n$o$p$q$r$s$t$u$v$w$x$y$z$A$B$C$D$E$F$G$H$I$J$K$L$M$9#N$O$P$",
"Q$R$S$T$U$V$W$X$Y$Y@Z$`$ %.%+%@%#%$%%%&%*%=%-%M.;%>%,%'%)%!%P$~%",
"{%]%^%/%(%_%:%<%[%}%|%1%2%3%4%5%6%7%8%9%0%a%b%c%d%e%f%g%h%i%O+j%",
"k%l%m%n%o%p%q%r%}%s%t%u%v%w%x%e%y%z%A%B%_@C%D%,%E%F%G%H%C%I%j%J%",
"k K%L%M%N%0@O%P%Q%R%S%T%U%V%W%X%Y%Z%`% &.&+&@&#&$&%&&&*&=&-&;&J%",
">&,&'&)&!&~&)%{&]&^&/&(&_&:&<&[&}&|&1&.&2&3&4&5&6&7&8&9&0&a&b&c&",
"d&e&S#,$I%f&g&h&i&j&k&l&m&n&o&p&q&r&s&t&p@u&!$v&w&x&}&@&y&z&A&B&",
"e&C&a@D&E&F&G&H$H&Q%l&M.I&J&K&L&M&N&(#l&O&p@~&P&Q&R&}&@&S&D%T&U&"};
