/* XPM */
static char * wallwater_border_bottom_1_xpm[] = {
"32 32 580 2",
"  	c #13768C",
". 	c #117A96",
"+ 	c #0D7D9B",
"@ 	c #0F7C9A",
"# 	c #14778D",
"$ 	c #0B7D9F",
"% 	c #0B7D9E",
"& 	c #0C7D9C",
"* 	c #107B97",
"= 	c #107A98",
"- 	c #14768C",
"; 	c #147589",
"> 	c #167084",
", 	c #186D82",
"' 	c #186E80",
") 	c #147488",
"! 	c #167185",
"~ 	c #176F82",
"{ 	c #117B96",
"] 	c #14758A",
"^ 	c #167087",
"/ 	c #107A97",
"( 	c #166474",
"_ 	c #1B6A7B",
": 	c #157386",
"< 	c #0E7C9A",
"[ 	c #0E7D9A",
"} 	c #097EA0",
"| 	c #117791",
"1 	c #176F83",
"2 	c #19697B",
"3 	c #157083",
"4 	c #15697A",
"5 	c #14748A",
"6 	c #0F7D99",
"7 	c #166F86",
"8 	c #147389",
"9 	c #186373",
"0 	c #196170",
"a 	c #187185",
"b 	c #14768A",
"c 	c #127894",
"d 	c #166D7F",
"e 	c #176474",
"f 	c #186C7D",
"g 	c #127993",
"h 	c #0F7B97",
"i 	c #0C7D9D",
"j 	c #0F7B99",
"k 	c #15697D",
"l 	c #196676",
"m 	c #186C81",
"n 	c #14758B",
"o 	c #0E7D9D",
"p 	c #15748A",
"q 	c #186474",
"r 	c #097DA2",
"s 	c #12778F",
"t 	c #185F6D",
"u 	c #18616F",
"v 	c #186778",
"w 	c #196878",
"x 	c #186F82",
"y 	c #176676",
"z 	c #176273",
"A 	c #13778D",
"B 	c #15758B",
"C 	c #166778",
"D 	c #157082",
"E 	c #196B7C",
"F 	c #0C7C9D",
"G 	c #057EA4",
"H 	c #0F7A98",
"I 	c #186678",
"J 	c #196C7E",
"K 	c #186F83",
"L 	c #19697A",
"M 	c #157284",
"N 	c #167285",
"O 	c #186B7D",
"P 	c #146D82",
"Q 	c #186A7B",
"R 	c #186576",
"S 	c #186C80",
"T 	c #186E81",
"U 	c #165E6C",
"V 	c #147087",
"W 	c #117A95",
"X 	c #117B95",
"Y 	c #107997",
"Z 	c #077EA2",
"` 	c #097C9F",
" .	c #15738C",
"..	c #17606E",
"+.	c #1A697B",
"@.	c #127991",
"#.	c #13778E",
"$.	c #0F7A99",
"%.	c #117995",
"&.	c #157489",
"*.	c #157286",
"=.	c #186B7C",
"-.	c #196574",
";.	c #17697B",
">.	c #176D81",
",.	c #177085",
"'.	c #12778E",
").	c #166D80",
"!.	c #196474",
"~.	c #13788F",
"{.	c #167386",
"].	c #1A6778",
"^.	c #1A6171",
"/.	c #117896",
"(.	c #177084",
"_.	c #157387",
":.	c #1A6A7B",
"<.	c #176677",
"[.	c #127891",
"}.	c #0E7D9B",
"|.	c #167083",
"1.	c #196A7B",
"2.	c #177083",
"3.	c #0B7B9C",
"4.	c #0B7D9D",
"5.	c #13758D",
"6.	c #176E82",
"7.	c #186F81",
"8.	c #0A7EA0",
"9.	c #087EA2",
"0.	c #0E7D9C",
"a.	c #186879",
"b.	c #14788E",
"c.	c #14798F",
"d.	c #157488",
"e.	c #0C7D9E",
"f.	c #0D7C9C",
"g.	c #166779",
"h.	c #1A6878",
"i.	c #176D80",
"j.	c #196475",
"k.	c #176373",
"l.	c #186C83",
"m.	c #186A7C",
"n.	c #156574",
"o.	c #196B7E",
"p.	c #157589",
"q.	c #137793",
"r.	c #147287",
"s.	c #186574",
"t.	c #176E80",
"u.	c #176C80",
"v.	c #147991",
"w.	c #176473",
"x.	c #186675",
"y.	c #147388",
"z.	c #196D81",
"A.	c #177082",
"B.	c #18606F",
"C.	c #1A6979",
"D.	c #1A6777",
"E.	c #17697A",
"F.	c #14788C",
"G.	c #107B96",
"H.	c #186776",
"I.	c #195F6E",
"J.	c #13768D",
"K.	c #13788E",
"L.	c #117993",
"M.	c #157184",
"N.	c #117994",
"O.	c #067EA3",
"P.	c #107A95",
"Q.	c #0D7C9A",
"R.	c #196A7A",
"S.	c #1A6879",
"T.	c #0A7C9E",
"U.	c #127692",
"V.	c #1B687A",
"W.	c #157389",
"X.	c #0B7C9E",
"Y.	c #087DA1",
"Z.	c #137288",
"`.	c #176170",
" +	c #196978",
".+	c #137891",
"++	c #127992",
"@+	c #0F7C98",
"#+	c #137791",
"$+	c #166879",
"%+	c #176F85",
"&+	c #14748B",
"*+	c #157285",
"=+	c #15778D",
"-+	c #176F84",
";+	c #186575",
">+	c #167186",
",+	c #176575",
"'+	c #196E81",
")+	c #1B697A",
"!+	c #177185",
"~+	c #107B99",
"{+	c #14758C",
"]+	c #16606E",
"^+	c #176574",
"/+	c #166A7D",
"(+	c #117C95",
"_+	c #0E7D99",
":+	c #107C99",
"<+	c #186D81",
"[+	c #156575",
"}+	c #196777",
"|+	c #1A697A",
"1+	c #1A6677",
"2+	c #17606F",
"3+	c #17616F",
"4+	c #176372",
"5+	c #127892",
"6+	c #147690",
"7+	c #166473",
"8+	c #127A94",
"9+	c #0D7D9C",
"0+	c #1A6B7C",
"a+	c #186D7F",
"b+	c #167286",
"c+	c #166F81",
"d+	c #166576",
"e+	c #117893",
"f+	c #0C7E9D",
"g+	c #147790",
"h+	c #176F81",
"i+	c #107B98",
"j+	c #187083",
"k+	c #196A7C",
"l+	c #167184",
"m+	c #12788F",
"n+	c #196372",
"o+	c #1A6B7D",
"p+	c #0F7B98",
"q+	c #0D7896",
"r+	c #196272",
"s+	c #176475",
"t+	c #17758A",
"u+	c #137A90",
"v+	c #186C7F",
"w+	c #116379",
"x+	c #0D7490",
"y+	c #0D7C9B",
"z+	c #127286",
"A+	c #116E81",
"B+	c #107084",
"C+	c #106E82",
"D+	c #146C7E",
"E+	c #127690",
"F+	c #137A92",
"G+	c #15758C",
"H+	c #167B96",
"I+	c #0F7794",
"J+	c #195B57",
"K+	c #13586C",
"L+	c #10687D",
"M+	c #0D6B83",
"N+	c #0D708B",
"O+	c #14697D",
"P+	c #13596C",
"Q+	c #0D5F75",
"R+	c #1F5156",
"S+	c #2F4539",
"T+	c #2B453A",
"U+	c #1F5F66",
"V+	c #135B6B",
"W+	c #176B7F",
"X+	c #146B7E",
"Y+	c #175867",
"Z+	c #165465",
"`+	c #146C81",
" @	c #0E677F",
".@	c #5C7509",
"+@	c #234C04",
"@@	c #334100",
"#@	c #37544B",
"$@	c #194857",
"%@	c #154757",
"&@	c #134558",
"*@	c #184658",
"=@	c #2E5857",
"-@	c #456003",
";@	c #5D812B",
">@	c #457000",
",@	c #2C4C00",
"'@	c #1E4648",
")@	c #155260",
"!@	c #165E6D",
"~@	c #127387",
"{@	c #127489",
"]@	c #12697C",
"^@	c #135B6C",
"/@	c #116E85",
"(@	c #116C82",
"_@	c #126C7F",
":@	c #1A5A66",
"<@	c #1C5661",
"[@	c #1C5D6B",
"}@	c #165D6F",
"|@	c #16586B",
"1@	c #2D6053",
"2@	c #47781D",
"3@	c #83A31A",
"4@	c #5C9601",
"5@	c #678E0B",
"6@	c #628014",
"7@	c #496127",
"8@	c #4D5F2C",
"9@	c #607223",
"0@	c #3B4C1C",
"a@	c #3F5C21",
"b@	c #4D6D16",
"c@	c #62861A",
"d@	c #5D8902",
"e@	c #416300",
"f@	c #305D00",
"g@	c #21432A",
"h@	c #115360",
"i@	c #106375",
"j@	c #117189",
"k@	c #107895",
"l@	c #116A80",
"m@	c #3B6E5B",
"n@	c #2A3D2D",
"o@	c #2A3F32",
"p@	c #1B4E5B",
"q@	c #23675A",
"r@	c #4F6A2C",
"s@	c #688E04",
"t@	c #617B0D",
"u@	c #303C40",
"v@	c #355948",
"w@	c #4E8523",
"x@	c #90B308",
"y@	c #6EA418",
"z@	c #789F24",
"A@	c #708F2E",
"B@	c #618034",
"C@	c #546F3C",
"D@	c #607E36",
"E@	c #6A8B29",
"F@	c #546A2F",
"G@	c #516F33",
"H@	c #55742E",
"I@	c #607E2A",
"J@	c #6A8730",
"K@	c #67861B",
"L@	c #4C7410",
"M@	c #294E13",
"N@	c #393A29",
"O@	c #234038",
"P@	c #1B5962",
"Q@	c #206162",
"R@	c #408659",
"S@	c #4D7400",
"T@	c #597E13",
"U@	c #4A7306",
"V@	c #325800",
"W@	c #304D1B",
"X@	c #536F38",
"Y@	c #5F8434",
"Z@	c #6C8F31",
"`@	c #849E2B",
" #	c #718A2A",
".#	c #6B852A",
"+#	c #638037",
"@#	c #556C3D",
"##	c #596B3B",
"$#	c #54663E",
"%#	c #647531",
"&#	c #5B6C3C",
"*#	c #72842D",
"=#	c #647B30",
"-#	c #576D3C",
";#	c #5D7F37",
">#	c #70882B",
",#	c #637532",
"'#	c #5C6A3D",
")#	c #7FA921",
"!#	c #6B8E24",
"~#	c #4B6530",
"{#	c #486036",
"]#	c #3E5B2C",
"^#	c #425B23",
"/#	c #3A5322",
"(#	c #4A7115",
"_#	c #62950A",
":#	c #638418",
"<#	c #5A8D06",
"[#	c #326500",
"}#	c #5A7427",
"|#	c #73922E",
"1#	c #7B9E28",
"2#	c #81AD1F",
"3#	c #78A023",
"4#	c #669F13",
"5#	c #548030",
"6#	c #55703C",
"7#	c #697C2F",
"8#	c #4C553D",
"9#	c #4A4C3F",
"0#	c #525B41",
"a#	c #607539",
"b#	c #799127",
"c#	c #5B633E",
"d#	c #565C3F",
"e#	c #718828",
"f#	c #799226",
"g#	c #63940A",
"h#	c #5E7335",
"i#	c #7EA220",
"j#	c #799C27",
"k#	c #496535",
"l#	c #4B6637",
"m#	c #5E7837",
"n#	c #68822C",
"o#	c #4E6831",
"p#	c #6C9315",
"q#	c #78A51A",
"r#	c #64921D",
"s#	c #7BA91D",
"t#	c #6B8C26",
"u#	c #95B515",
"v#	c #9EAC11",
"w#	c #708231",
"x#	c #698431",
"y#	c #5A7A36",
"z#	c #77A712",
"A#	c #7DA719",
"B#	c #6A7B2D",
"C#	c #9DAD0F",
"D#	c #98A41D",
"E#	c #6F882E",
"F#	c #56613D",
"G#	c #5D683C",
"H#	c #7C9A22",
"I#	c #606D36",
"J#	c #627033",
"K#	c #6D802B",
"L#	c #7BA219",
"M#	c #4D702F",
"N#	c #5F6C35",
"O#	c #687A34",
"P#	c #48543B",
"Q#	c #607434",
"R#	c #6C7E2C",
"S#	c #616F38",
"T#	c #617539",
"U#	c #658D24",
"V#	c #4C5E36",
"W#	c #55633C",
"X#	c #6D9615",
"Y#	c #7DA121",
"Z#	c #677335",
"`#	c #54613F",
" $	c #515D41",
".$	c #58623F",
"+$	c #5C7037",
"@$	c #6F8529",
"#$	c #7A9F1C",
"$$	c #92A219",
"%$	c #9CAA13",
"&$	c #A5B205",
"*$	c #7F8E27",
"=$	c #70802C",
"-$	c #6A792D",
";$	c #73862A",
">$	c #657433",
",$	c #4E5541",
"'$	c #474A3E",
")$	c #657233",
"!$	c #6B7E2D",
"~$	c #4A742A",
"{$	c #46513B",
"]$	c #5D6837",
"^$	c #6C7A31",
"/$	c #607338",
"($	c #6F7A35",
"_$	c #627437",
":$	c #51583A",
"<$	c #58633C",
"[$	c #788F28",
"}$	c #799623",
"|$	c #667336",
"1$	c #4D5240",
"2$	c #667F26",
"3$	c #738928",
"4$	c #879E1E",
"5$	c #6B7634",
"6$	c #61802C",
"7$	c #709D15",
"8$	c #58613D",
"9$	c #5F6B39",
"0$	c #6A7B2C",
"a$	c #90A718",
"b$	c #839C1F",
"c$	c #687630",
"d$	c #72842E",
"e$	c #789228",
"f$	c #575E3D",
"g$	c #4E5441",
"h$	c #6D7C32",
"i$	c #647432",
"j$	c #608B1E",
"k$	c #5A8027",
"l$	c #575E3F",
"m$	c #809727",
"n$	c #9DAC12",
"o$	c #89A01D",
"p$	c #6B7D35",
"q$	c #5E663B",
"r$	c #758F28",
"s$	c #7B9823",
"t$	c #606E38",
"u$	c #4D4F41",
"v$	c #587A28",
"w$	c #5F8F13",
"x$	c #667F2A",
"y$	c #93A816",
"z$	c #9FAC10",
"A$	c #6F8725",
"B$	c #556A38",
"C$	c #5D7E30",
"D$	c #7CAA0A",
"E$	c #6E8F2D",
"F$	c #677437",
"G$	c #778A2A",
"H$	c #7D9D21",
"I$	c #657333",
"J$	c #58623E",
"K$	c #667532",
"L$	c #5B693C",
"M$	c #5E6A37",
"N$	c #4C6437",
"O$	c #6D8F1C",
"P$	c #9EAA11",
"Q$	c #95A817",
"R$	c #627339",
"S$	c #4C563E",
"T$	c #47493D",
"U$	c #677535",
"V$	c #7A9525",
"W$	c #606E36",
"X$	c #56643D",
"Y$	c #637036",
"Z$	c #6B7A2C",
"`$	c #525F40",
" %	c #515642",
".%	c #5B7631",
"+%	c #739B17",
"@%	c #7E9724",
"#%	c #6B7734",
"$%	c #679805",
"%%	c #6E8D22",
"&%	c #515A41",
"*%	c #647238",
"=%	c #555C3F",
"-%	c #494F3D",
";%	c #505640",
">%	c #515841",
",%	c #9FAC11",
"'%	c #8F9C1F",
")%	c #526040",
"!%	c #4B4E3F",
"~%	c #4E583F",
"{%	c #73842B",
"]%	c #76862B",
"^%	c #59663C",
"/%	c #66752E",
"(%	c #707F2C",
"_%	c #515442",
":%	c #567E29",
"<%	c #6B9B06",
"[%	c #859225",
"}%	c #9EAA10",
"  . + @ # $ % & + * = - ; ; > , ' ) ; ; ! ~ { ] ^ / ! ( _ : ; ; ",
"< [ + } ;   | [ * 1 2 3 ; 4 5 6 . 7 ; 8 9 0 a b # c d e f ; ; g ",
"+ h i j ; ; k l m n o o p q ; b r s t u v w x * + + * y z ! ; h ",
"A ; B C   . D E 1 F G G H f I J s K L M N N * + + + * O P Q R S ",
"; T t U V W X ; ) Y Z `  .....R +.5 @.@ # ; #.$.%.&.; ; *.=.-.J ",
"; ;.0 d 3 >.,.; ' - + '.).!.~.A {.* + + @   ; ; ].^.^ j /.p (._.",
":.<.[.@ }.[.|.1.^ }.+ @ p 2.* @ ; 3.4.4.% 5.6.; ; 7.p 8.9.0.; J ",
"a.b.}.+ + }.c.d.b j Z e.. J 1 #.*.c G G f.g.; ; ; ; h.i.#.^ _.j.",
"k.Y % & < l.m.n.' ) d.o.6.; ; 7.0 p.q.r.s.t.; ; ) ) m.u.#.* v.w.",
"x.y.| s z.A.; ; ) ) |.t.; ; # A !.B.C.D.3 N J f E.) ; F.}.+ G.: ",
"H.C.D.I.7.J.; ; ; ; J G.K.K.}.L.: J ;   '.#.M.0 8 ; ] N.+ + i B ",
"R C.C.D.J.@ h . ; 7.{.h Z Z Z O.; ; . < + @.M.0 ; ; b P.+ + Q.a.",
"R.: : S.{.g T.T.U.V.W.X.O.G Y./.: ; c H . Z.`. +5 .+++e.+ @+#+v ",
"(._.; M.{.; {.v $+N N %+s | &+L J ; *+' ' 3 |.=+*.J.s | #.b ; ; ",
"; J -+b ; ; d ;+>+A '.#.E 0 ,+Q '+5 : +.] * + + }.[.o.)+; ; ; ; ",
"{.R.!+~+* {+]+^+L 5 $ 0.L /+(+j _+:+; _.* + + + + @ o.)+7.; ; ; ",
"<+[+}+|+1+2+3+H.; ; ; {.4+2+N 5+6+7+9 8+9++ < # ; 6.; J 0+D 3 a+",
"}.* b+ +E M A.)+; ; ; v ]+c+N ' b+2 U d+e+f+H 6.; ; g g+h+..9 [.",
"@ i+#.^ j+) ; E k+l+{.I v ; ; 6.m+#.*+ +E n+o+N ; g +++ G.J ] p+",
"q+/ }.}.@+%+{.r+s+l+; ; _ : . { m+#.N t+; {.) >.u+g + + h v+* + ",
"w+x+< y++ }.) o+z+A+B+C+D+E++ F+)+o+J G+* [.d.o+p @ + [ ] u.H+I+",
"J+K+L+M+N+@.O+P+Q+R+S+T+U+V+W+r+N ) ; *.J p d.o+_ p #.X+Y+Z+`+ @",
".@+@@@#@$@%@&@*@=@-@;@>@,@'@)@!@~@  ] {@]@^@/@(@_@:@<@[@}@|@1@2@",
"3@4@5@6@7@8@9@0@a@b@c@d@e@f@g@h@i@j@k@l@m@n@o@p@q@r@s@t@u@v@w@x@",
"y@z@A@B@C@D@E@F@G@H@I@J@K@L@M@N@O@P@Q@R@S@T@U@V@W@X@Y@Z@`@ #.#+#",
"@###$#%#&#*#=#-#;#>#,#'#)#!#~#{#]#^#/#(#_#:#<#[#}#|#1#2#3#4#5#6#",
"7#8#9#0#a#b#c#d#e#f#g#h#i#j#k#l#m#n#o#p#q#r#s#t#u#v#w#x#y#z#A#B#",
"C#D#E#F#G#H#I#J#K#L#M#N#H#O#P#Q#R#S#T#U#V#W#X#Y#v#Z#`# $.$+$@$f#",
"#$$$%$&$*$=$-$;$>$,$'$)$!$~${$]$^$/$($_$:$<$[$}$|$1$2$3$4$5$6$7$",
"8$9$0$*$a$b$c$d$e$f$g$h$i$j$k$l$m$n$o$p$q$r$s$t$u$v$w$x$y$z$A$B$",
"C$D$E$F$G$H$I$J$K$L$8$-$M$N$O$P$Q$R$S$T$U$V$W$X$Y$Z$`$ %.%+%@%#%",
"$%%%&% %*%G$r$=%-%;%8$-$>%I#,%'%R$)%!%~%{%]%^%/%(%|$ %_%:%<%[%}%"};
