/* XPM */
static char * wallwater_reverse_corner_topleft_2_xpm[] = {
"32 32 455 2",
"  	c #667236",
". 	c #779126",
"+ 	c #637231",
"@ 	c #6B7A31",
"# 	c #73862C",
"$ 	c #5D7F38",
"% 	c #6E8D32",
"& 	c #7D982B",
"* 	c #3F5A5C",
"= 	c #065D77",
"- 	c #115164",
"; 	c #18687A",
"> 	c #147589",
", 	c #14768A",
"' 	c #0D7D9B",
") 	c #0F7B97",
"! 	c #127993",
"~ 	c #097EA1",
"{ 	c #12647C",
"] 	c #186F81",
"^ 	c #13768C",
"/ 	c #13778E",
"( 	c #13788E",
"_ 	c #0F7B99",
": 	c #0A7D9F",
"< 	c #73822C",
"[ 	c #5C6B38",
"} 	c #6F7E2C",
"| 	c #677D30",
"1 	c #648532",
"2 	c #6F902A",
"3 	c #617E1F",
"4 	c #35565A",
"5 	c #185D74",
"6 	c #115467",
"7 	c #147083",
"8 	c #117B97",
"9 	c #0F7C98",
"0 	c #0B7C9C",
"a 	c #12778F",
"b 	c #14657A",
"c 	c #0F7C9A",
"d 	c #0B7D9D",
"e 	c #117790",
"f 	c #6E7D2E",
"g 	c #535A3D",
"h 	c #515642",
"i 	c #5E6C37",
"j 	c #596D3A",
"k 	c #6F8C29",
"l 	c #617626",
"m 	c #3D5805",
"n 	c #43786A",
"o 	c #3C7984",
"p 	c #135466",
"q 	c #15697C",
"r 	c #167386",
"s 	c #0A7DA0",
"t 	c #147387",
"u 	c #156071",
"v 	c #156E83",
"w 	c #157488",
"x 	c #12778E",
"y 	c #0D7E9C",
"z 	c #0E7C9A",
"A 	c #0B7D9F",
"B 	c #146F84",
"C 	c #626F33",
"D 	c #474B3E",
"E 	c #4A4C3F",
"F 	c #5D7F2C",
"G 	c #537531",
"H 	c #698825",
"I 	c #375210",
"J 	c #18280A",
"K 	c #285F6B",
"L 	c #327284",
"M 	c #146073",
"N 	c #146D82",
"O 	c #196878",
"P 	c #186576",
"Q 	c #177186",
"R 	c #14768B",
"S 	c #15697A",
"T 	c #127891",
"U 	c #146C81",
"V 	c #166C80",
"W 	c #186676",
"X 	c #186879",
"Y 	c #14758C",
"Z 	c #186C7F",
"` 	c #147184",
" .	c #117A96",
"..	c #147287",
"+.	c #545841",
"@.	c #555D3A",
"#.	c #566C34",
"$.	c #689B03",
"%.	c #568222",
"&.	c #5F8106",
"*.	c #262E06",
"=.	c #151501",
"-.	c #49A3BA",
";.	c #1F5B6D",
">.	c #106579",
",.	c #157286",
"'.	c #166F82",
").	c #196373",
"!.	c #186C7D",
"~.	c #157386",
"{.	c #196272",
"].	c #165E6C",
"^.	c #15697D",
"/.	c #127894",
"(.	c #13758B",
"_.	c #186B7C",
":.	c #196574",
"<.	c #196C7E",
"[.	c #186E81",
"}.	c #185F6D",
"|.	c #147087",
"1.	c #117A95",
"2.	c #7B882D",
"3.	c #9DAC12",
"4.	c #759E22",
"5.	c #507F0E",
"6.	c #4A6605",
"7.	c #4D5800",
"8.	c #283300",
"9.	c #24747F",
"0.	c #3E8A9C",
"a.	c #094258",
"b.	c #0E6681",
"c.	c #107796",
"d.	c #127892",
"e.	c #167285",
"f.	c #176E82",
"g.	c #157184",
"h.	c #186070",
"i.	c #19697A",
"j.	c #157082",
"k.	c #167084",
"l.	c #117491",
"m.	c #117896",
"n.	c #15748A",
"o.	c #177084",
"p.	c #157387",
"q.	c #17697B",
"r.	c #196170",
"s.	c #166D7F",
"t.	c #157083",
"u.	c #176D81",
"v.	c #5E6F3C",
"w.	c #8FA525",
"x.	c #7F9108",
"y.	c #325803",
"z.	c #343E01",
"A.	c #434B00",
"B.	c #203726",
"C.	c #4497A8",
"D.	c #2B6375",
"E.	c #0C4E62",
"F.	c #0C6781",
"G.	c #077DA1",
"H.	c #1A6979",
"I.	c #186A7B",
"J.	c #147288",
"K.	c #0E7D9B",
"L.	c #107B97",
"M.	c #097A9A",
"N.	c #087EA2",
"O.	c #0E7D9C",
"P.	c #1A6A7B",
"Q.	c #176677",
"R.	c #58763B",
"S.	c #547535",
"T.	c #415E0A",
"U.	c #284208",
"V.	c #1F2708",
"W.	c #252C01",
"X.	c #298896",
"Y.	c #3C8294",
"Z.	c #08455A",
"`.	c #115366",
" +	c #155E70",
".+	c #14758B",
"++	c #14748B",
"@+	c #157388",
"#+	c #18697C",
"$+	c #186575",
"%+	c #187084",
"&+	c #0F7D99",
"*+	c #167289",
"=+	c #167087",
"-+	c #196475",
";+	c #14788E",
">+	c #819D23",
",+	c #4C6719",
"'+	c #202211",
")+	c #1A240B",
"!+	c #14302C",
"~+	c #17515A",
"{+	c #2D859D",
"]+	c #346C7E",
"^+	c #0B4C60",
"/+	c #0F5A6F",
"(+	c #146F83",
"_+	c #176777",
":+	c #167186",
"<+	c #107D9A",
"[+	c #187185",
"}+	c #17606E",
"|+	c #166B7D",
"1+	c #0D7C9D",
"2+	c #0B7D9E",
"3+	c #0D7D9C",
"4+	c #166778",
"5+	c #117D98",
"6+	c #185F6E",
"7+	c #13738A",
"8+	c #0C7D9E",
"9+	c #627912",
"0+	c #354402",
"a+	c #212707",
"b+	c #141C08",
"c+	c #22838F",
"d+	c #116478",
"e+	c #3B788B",
"f+	c #20576A",
"g+	c #0E4E61",
"h+	c #106276",
"i+	c #137A91",
"j+	c #166F81",
"k+	c #186675",
"l+	c #117791",
"m+	c #107C98",
"n+	c #147488",
"o+	c #176979",
"p+	c #166B7C",
"q+	c #28291B",
"r+	c #202800",
"s+	c #376969",
"t+	c #278197",
"u+	c #1D6176",
"v+	c #2F6578",
"w+	c #2D687A",
"x+	c #0F4D60",
"y+	c #115568",
"z+	c #136F83",
"A+	c #13768D",
"B+	c #0F7B98",
"C+	c #0C7D9C",
"D+	c #0F7C9B",
"E+	c #176F81",
"F+	c #186877",
"G+	c #1A697A",
"H+	c #127890",
"I+	c #0C7D9D",
"J+	c #127A95",
"K+	c #186A7A",
"L+	c #196978",
"M+	c #196070",
"N+	c #171706",
"O+	c #4E9594",
"P+	c #4F9FAB",
"Q+	c #38798C",
"R+	c #2F6478",
"S+	c #20596E",
"T+	c #115165",
"U+	c #105466",
"V+	c #135C6E",
"W+	c #14778D",
"X+	c #0E7B98",
"Y+	c #117992",
"Z+	c #186878",
"`+	c #196B7C",
" @	c #127991",
".@	c #0D7C9A",
"+@	c #157287",
"@@	c #186373",
"#@	c #196877",
"$@	c #1C849F",
"%@	c #3C8596",
"&@	c #30687A",
"*@	c #265E73",
"=@	c #145367",
"-@	c #0D5266",
";@	c #125567",
">@	c #145A6C",
",@	c #16667A",
"'@	c #167086",
")@	c #196C7D",
"!@	c #196A7B",
"~@	c #14768C",
"{@	c #0D7D9D",
"]@	c #186A7D",
"^@	c #1A6B7C",
"/@	c #176F82",
"(@	c #124B5D",
"_@	c #083E51",
":@	c #0A4A5F",
"<@	c #0E5A6D",
"[@	c #145D6F",
"}@	c #15687A",
"|@	c #146D80",
"1@	c #15778D",
"2@	c #167083",
"3@	c #147487",
"4@	c #167184",
"5@	c #0C475B",
"6@	c #0F5064",
"7@	c #0D5D73",
"8@	c #14697A",
"9@	c #176B7D",
"0@	c #14748A",
"a@	c #1B697A",
"b@	c #196B7E",
"c@	c #135666",
"d@	c #135161",
"e@	c #126276",
"f@	c #1B6A7B",
"g@	c #196A7A",
"h@	c #147991",
"i@	c #1A6B7D",
"j@	c #196B7D",
"k@	c #0F7A99",
"l@	c #147690",
"m@	c #166473",
"n@	c #127A94",
"o@	c #196E82",
"p@	c #156778",
"q@	c #176675",
"r@	c #186B7E",
"s@	c #186D7F",
"t@	c #186D81",
"u@	c #156575",
"v@	c #196777",
"w@	c #167286",
"x@	c #19697B",
"y@	c #166576",
"z@	c #117893",
"A@	c #0C7E9D",
"B@	c #0F7A98",
"C@	c #157389",
"D@	c #186473",
"E@	c #185E6D",
"F@	c #13778D",
"G@	c #157285",
"H@	c #147790",
"I@	c #12788F",
"J@	c #196372",
"K@	c #137991",
"L@	c #137792",
"M@	c #127992",
"N@	c #107B96",
"O@	c #14758A",
"P@	c #17758A",
"Q@	c #14768F",
"R@	c #1A6576",
"S@	c #107C97",
"T@	c #166F86",
"U@	c #127990",
"V@	c #166E82",
"W@	c #137691",
"X@	c #0D799A",
"Y@	c #187085",
"Z@	c #17697C",
"`@	c #175E6C",
" #	c #107993",
".#	c #107994",
"+#	c #147389",
"@#	c #16606F",
"##	c #176271",
"$#	c #107B98",
"%#	c #097EA0",
"&#	c #107A96",
"*#	c #186474",
"=#	c #186777",
"-#	c #186776",
";#	c #1B6879",
">#	c #0E7B9A",
",#	c #0A7C9E",
"'#	c #117894",
")#	c #186978",
"!#	c #1A6777",
"~#	c #0B7C9D",
"{#	c #0B7B9D",
"]#	c #077EA2",
"^#	c #167185",
"/#	c #176475",
"(#	c #186778",
"_#	c #1A687A",
":#	c #186271",
"<#	c #196A7C",
"[#	c #186B7F",
"}#	c #137790",
"|#	c #0F7D9A",
"1#	c #186F82",
"2#	c #117996",
"3#	c #176575",
"4#	c #176F83",
"5#	c #186A7C",
"6#	c #19697C",
"7#	c #187082",
"8#	c #196776",
"9#	c #127794",
"0#	c #137692",
"a#	c #127C95",
"b#	c #147085",
"c#	c #166272",
"d#	c #117995",
"e#	c #156576",
"f#	c #15768A",
"g#	c #117B96",
"h#	c #196677",
"i#	c #166575",
"j#	c #0F7D9B",
"k#	c #186779",
"l#	c #0D7E9D",
"m#	c #117795",
"n#	c #166574",
"o#	c #137890",
"p#	c #18697A",
"q#	c #186C80",
"r#	c #14778C",
"s#	c #166F80",
"t#	c #17606F",
"u#	c #137B91",
"v#	c #176473",
"w#	c #0E7D9A",
"x#	c #117892",
"y#	c #13798E",
"z#	c #127B95",
"A#	c #177183",
"B#	c #166273",
"C#	c #176A7C",
"D#	c #137B92",
"E#	c #0E7D99",
"F#	c #15728B",
"G#	c #0E718C",
"H#	c #0B708E",
"I#	c #156F83",
"J#	c #176576",
"K#	c #166677",
"L#	c #137793",
"M#	c #0E576B",
"N#	c #176A7D",
"O#	c #107D98",
"P#	c #166D82",
"Q#	c #097DA0",
"R#	c #0D718C",
"S#	c #176373",
"T#	c #196E81",
"U#	c #127995",
"V#	c #196D7F",
"  . + @ # $ % & * = - ; > > , , ' ' ) ! ~ { ] > > ^ / ' ' ( _ : ",
"<   [ } | 1 2 3 4 5 6 7 > > 8 9 ' ' 0 > a b > > ^ c 9 ' d e , e ",
"f g h i j k l m n o p q r > ' 9 9 s ! > t u v w x y ) z A ^ > B ",
"C D E F G H I J K L M N O P Q R , Q S ! T U V W X Y > ^ Z `  ...",
"+.@.#.$.%.&.*.=.-.;.>.,.'.).!.r ~.{.].^./.(.,._.:.<.> [.}.].|.1.",
"2.3.4.5.6.7.8.9.0.a.b.c.d.e.f.> g.h.i.j.k.l.m.n.o.p.> q.r.s.t.u.",
"v.w.x.y.z.A.B.C.D.E.F.G.s / e.H.I.J.c K.L.M.N.O.> <.P.Q.T c K.T ",
"R.S.T.U.V.W.X.Y.Z.`. +.+++@+#+$+%+&+' ' ' *+/ =+p.-+X ;+K.' ' K.",
">+,+'+)+!+~+{+]+^+/+(+_+:+/ <+[+}+|+1+2+3+Q 4+.+T 5+i.6+7+8+d ' ",
"9+0+a+b+c+d+e+f+g+h+> > i+' ' x j+k+x l+Y @+, m+' K.n+o+p+e e Q ",
"q+r+s+t+u+v+w+x+y+z+> A+B+' C+D+E+F+G+).{.r H+z ' I+J+K+L+H.M+i.",
"N+O+P+Q+R+S+T+U+V+n+> W+X+' C+Y+{.F+H.Z+`+>  @.@' I++@@@L+H.#@e.",
"$@%@&@*@=@-@;@>@,@d.;+_ d K.L.'@W )@> ] !@~@{@C+z  .]@O ] > ^@/@",
"(@_@:@<@[@}@|@g.1@n+/ e e / > > n+u.> > 2@~@l+a ^ > > r f.> 3@4@",
"5@6@7@8@9@^ c ' ' c 0@P.<.> > > > > P.0@> f.a@e.> > > > e.b@A+> ",
"c@d@e@> 0@c ' ' ' ' /.P.f@~.> > > ] g@h@_ =+a@i@> > > > j@)@5+k@",
"l@m@@@n@3+' z W+! > p.,.e.a@j.t.j+o@p@q@a@r@> <.^@j.t.s@t@u@v@G+",
"w@x@].y@z@A@B@f.,.p.> ! ~@C@D@E@..c &+F@H.G@! H@E+}+@@T K.L.w@L+",
"I@/ G@L+`+J@i@e.<.> A+K@' c e.e.T ' z H+++L@M@' N@<.O@B+' B+/ =+",
"I@/ e.P@> r n+u.o.;+W+z ' ' e.Q@K.' .@z K.8 ' ' ) Z L.' ' X+K.K.",
"+@R@<.Z K@9 F@r i@d.K.K.S@G@T@c d ' ' ' ' ' K.U@V@W@3+C+' ' ' ' ",
"C@++) ) X@Y@Z@K+O W / / u@`@!.n. #K.' ' d .#+#@###<./ $#' ' ' %#",
", 9 ' ' &#*#=#j@j@G+t.-#Z+Z+g@<.;#/@>#,#'#P )#_+)#j@i@!#++~#{#++",
"_ ]#K.M@~@t.j@n+n+v@i@L+H.H.r > ^#/#(#r ,._#L+G+j@n+w v :#<#> [#",
"w@e.> > > > p.o.~.> r r > }#|#/ A+/#O@/ x 1#> > 2#n@/ 0@3#F@x x ",
"4#a@> > > > > <.0@W+> f.> ,./ / F@5#/ K.' x f.> @+a / , I. .' ' ",
"6#<.i@n+> > 7#8#_.9#0#u.a#/ b#c#] > > d#) n.:+i+/ e#Q.r > f#B+g#",
"p.> a@h#i#i#C@/ j.^@L+G@j#{@k#^#> > > ] 3#F+/ l#m#h#> > > > <#n#",
"o#K@L.j+:#g.c '  .[.p#<.q#*#}+r#r#> > _+s#s#<.q#t#D@u#, > > v#~.",
"K@w#' / <.! ' ' x# ./.) ! r ^.@@y#z#r A#> ! ) F@^#B#C#D#! ] r > ",
"c ' E#0@F#K.' ' ' ' G#H#N@,.I#J#K#p.a@L#3+M#~#/ ,.q 3#N#e.a@c ' ",
"K.O#4+P#T Q#' ' ' ' R#S#T#k.@+O@W+ .e.U#3+M#V#q#,..+> ! d.e.c ' "};
