/* XPM */
static char * wallwater_reverse_corner_topright_2_xpm[] = {
"32 32 459 2",
"  	c #155E71",
". 	c #167386",
"+ 	c #147589",
"@ 	c #13768C",
"# 	c #0F7B97",
"$ 	c #0D7D9B",
"% 	c #14778D",
"& 	c #0B7D9F",
"* 	c #0E7593",
"= 	c #186779",
"- 	c #14768A",
"; 	c #127993",
"> 	c #097DA1",
", 	c #0B7D9E",
"' 	c #157793",
") 	c #487A72",
"! 	c #546A33",
"~ 	c #496535",
"{ 	c #5B7639",
"] 	c #535B40",
"^ 	c #575D3D",
"/ 	c #73822D",
"( 	c #6F7E2C",
"_ 	c #637231",
": 	c #156477",
"< 	c #0E7C9A",
"[ 	c #0E7D9A",
"} 	c #097EA0",
"| 	c #127189",
"1 	c #146F83",
"2 	c #117B97",
"3 	c #0F7C98",
"4 	c #0B7C9C",
"5 	c #13778E",
"6 	c #117791",
"7 	c #29809C",
"8 	c #436451",
"9 	c #4E6734",
"0 	c #6C8D29",
"a 	c #6D7F30",
"b 	c #4E5141",
"c 	c #595F3F",
"d 	c #5E683A",
"e 	c #535F3F",
"f 	c #156071",
"g 	c #167185",
"h 	c #0C7D9D",
"i 	c #0F7B99",
"j 	c #15687C",
"k 	c #15697C",
"l 	c #0A7DA0",
"m 	c #147387",
"n 	c #166272",
"o 	c #2C6D7F",
"p 	c #447149",
"q 	c #6C981B",
"r 	c #5F8136",
"s 	c #627F36",
"t 	c #70872C",
"u 	c #717F2F",
"v 	c #5B633C",
"w 	c #525742",
"x 	c #636F33",
"y 	c #146B82",
"z 	c #186A7B",
"A 	c #186576",
"B 	c #186C80",
"C 	c #13778D",
"D 	c #15758B",
"E 	c #166778",
"F 	c #117A96",
"G 	c #146E82",
"H 	c #146C82",
"I 	c #196878",
"J 	c #177186",
"K 	c #14768B",
"L 	c #15697A",
"M 	c #127891",
"N 	c #157082",
"O 	c #23717F",
"P 	c #486C55",
"Q 	c #4F6519",
"R 	c #759C20",
"S 	c #73942A",
"T 	c #608135",
"U 	c #6D842B",
"V 	c #68772D",
"W 	c #658725",
"X 	c #69782E",
"Y 	c #167285",
"Z 	c #196776",
"` 	c #186A7A",
" .	c #186F81",
"..	c #19687A",
"+.	c #175E6C",
"@.	c #13758F",
"#.	c #127992",
"$.	c #157286",
"%.	c #166F82",
"&.	c #196373",
"*.	c #186C7D",
"=.	c #157386",
"-.	c #196272",
";.	c #165E6C",
">.	c #15697D",
",.	c #127894",
"'.	c #0F7B98",
").	c #116D83",
"!.	c #3E6F6C",
"~.	c #4B6447",
"{.	c #47690E",
"].	c #698A23",
"^.	c #5B7E36",
"/.	c #557B37",
"(.	c #679914",
"_.	c #659605",
":.	c #637C2B",
"<.	c #0F7796",
"[.	c #107996",
"}.	c #176D81",
"|.	c #186374",
"1.	c #196474",
"2.	c #157185",
"3.	c #166F86",
"4.	c #107796",
"5.	c #127892",
"6.	c #176E82",
"7.	c #157184",
"8.	c #186070",
"9.	c #19697A",
"0.	c #167084",
"a.	c #176D82",
"b.	c #1A6C82",
"c.	c #257D8B",
"d.	c #415B44",
"e.	c #293C00",
"f.	c #50760F",
"g.	c #5B7D24",
"h.	c #5A8C26",
"i.	c #83B80B",
"j.	c #73A317",
"k.	c #50613C",
"l.	c #067CA0",
"m.	c #087EA2",
"n.	c #1A697A",
"o.	c #1A6B7D",
"p.	c #156A7B",
"q.	c #107B97",
"r.	c #0F7C9A",
"s.	c #107892",
"t.	c #077DA1",
"u.	c #1A6979",
"v.	c #147288",
"w.	c #0E7D9B",
"x.	c #127589",
"y.	c #165768",
"z.	c #157A97",
"A.	c #427171",
"B.	c #324023",
"C.	c #455000",
"D.	c #5A7700",
"E.	c #628510",
"F.	c #7FA61D",
"G.	c #548030",
"H.	c #576E3D",
"I.	c #177086",
"J.	c #167086",
"K.	c #186372",
"L.	c #196A7D",
"M.	c #117C95",
"N.	c #117995",
"O.	c #15748B",
"P.	c #14748B",
"Q.	c #157388",
"R.	c #18697C",
"S.	c #186575",
"T.	c #187084",
"U.	c #0F7D99",
"V.	c #107B94",
"W.	c #12677B",
"X.	c #18637B",
"Y.	c #3E96AC",
"Z.	c #314847",
"`.	c #1D2301",
" +	c #3F4D00",
".+	c #426802",
"++	c #889C0F",
"@+	c #92AC1C",
"#+	c #658237",
"$+	c #186A7C",
"%+	c #176C80",
"&+	c #147991",
"*+	c #176473",
"=+	c #176373",
"-+	c #107997",
";+	c #0C7D9C",
">+	c #117994",
",+	c #176677",
"'+	c #167186",
")+	c #107D9A",
"!+	c #187185",
"~+	c #17606E",
"{+	c #166B7D",
"]+	c #0D7C9D",
"^+	c #0D7D9C",
"/+	c #117897",
"(+	c #156175",
"_+	c #155769",
":+	c #3589A0",
"<+	c #409FB8",
"[+	c #43706E",
"}+	c #2A3200",
"|+	c #213104",
"1+	c #446402",
"2+	c #90A807",
"3+	c #A2BA10",
"4+	c #14788C",
"5+	c #107B96",
"6+	c #186675",
"7+	c #147388",
"8+	c #12778F",
"9+	c #177085",
"0+	c #137A91",
"a+	c #12778E",
"b+	c #166F81",
"c+	c #14758C",
"d+	c #1A6A7C",
"e+	c #126E82",
"f+	c #0F667B",
"g+	c #1B6278",
"h+	c #307287",
"i+	c #338897",
"j+	c #267A85",
"k+	c #10160A",
"l+	c #0D2306",
"m+	c #385607",
"n+	c #5F6D23",
"o+	c #14758A",
"p+	c #186776",
"q+	c #1A6777",
"r+	c #195F6E",
"s+	c #186F82",
"t+	c #0F7C9B",
"u+	c #176F81",
"v+	c #186877",
"w+	c #12758B",
"x+	c #116E83",
"y+	c #196B80",
"z+	c #377E92",
"A+	c #1E5569",
"B+	c #0B5169",
"C+	c #0A7691",
"D+	c #253700",
"E+	c #1F3603",
"F+	c #2A261A",
"G+	c #107A95",
"H+	c #0D7C9A",
"I+	c #186879",
"J+	c #0E7B98",
"K+	c #117992",
"L+	c #186878",
"M+	c #196A7C",
"N+	c #0E7995",
"O+	c #0F748E",
"P+	c #1F7286",
"Q+	c #3C7D8D",
"R+	c #225468",
"S+	c #1B7A95",
"T+	c #3C93A5",
"U+	c #304542",
"V+	c #13130D",
"W+	c #0C7D9E",
"X+	c #137791",
"Y+	c #186778",
"Z+	c #196A7A",
"`+	c #1A6879",
" @	c #0B7D9D",
".@	c #186676",
"+@	c #196C7D",
"@@	c #196A7B",
"#@	c #157488",
"$@	c #0A7C9E",
"%@	c #0C7B9C",
"&@	c #176B81",
"*@	c #246C7D",
"=@	c #36778C",
"-@	c #2E6379",
";@	c #37798C",
">@	c #4F9FAE",
",@	c #2E869D",
"'@	c #177084",
")@	c #157387",
"!@	c #1A6878",
"~@	c #117790",
"{@	c #147488",
"]@	c #167083",
"^@	c #176575",
"/@	c #156F81",
"(@	c #0F687C",
"_@	c #114F66",
":@	c #09455A",
"<@	c #053A50",
"[@	c #072E3F",
"}@	c #196B7E",
"|@	c #1B697A",
"1@	c #196C7E",
"2@	c #176F84",
"3@	c #1A6A7B",
"4@	c #14748A",
"5@	c #176474",
"6@	c #17697B",
"7@	c #11748B",
"8@	c #126E84",
"9@	c #114F5F",
"0@	c #114856",
"a@	c #0E4250",
"b@	c #177185",
"c@	c #107B99",
"d@	c #137692",
"e@	c #1B6A7B",
"f@	c #0F7A99",
"g@	c #127B94",
"h@	c #156E83",
"i@	c #165F6C",
"j@	c #186777",
"k@	c #186B7E",
"l@	c #137894",
"m@	c #176070",
"n@	c #156377",
"o@	c #135C6C",
"p@	c #176E80",
"q@	c #156F82",
"r@	c #196D7F",
"s@	c #16697C",
"t@	c #166575",
"u@	c #196B7C",
"v@	c #157083",
"w@	c #196E82",
"x@	c #156778",
"y@	c #176675",
"z@	c #185F6E",
"A@	c #17616F",
"B@	c #176372",
"C@	c #157285",
"D@	c #176879",
"E@	c #166E80",
"F@	c #14768F",
"G@	c #186979",
"H@	c #176C7D",
"I@	c #14768C",
"J@	c #157389",
"K@	c #186473",
"L@	c #185E6D",
"M@	c #147287",
"N@	c #175F6D",
"O@	c #176A79",
"P@	c #127A94",
"Q@	c #13768D",
"R@	c #167088",
"S@	c #127790",
"T@	c #127890",
"U@	c #14758B",
"V@	c #196F83",
"W@	c #186D83",
"X@	c #117996",
"Y@	c #186E85",
"Z@	c #14748E",
"`@	c #196070",
" #	c #127893",
".#	c #196978",
"+#	c #107C97",
"@#	c #0C7997",
"##	c #156C7F",
"$#	c #165E6B",
"%#	c #0C7B9B",
"&#	c #156575",
"*#	c #15748A",
"=#	c #107993",
"-#	c #127791",
";#	c #147790",
">#	c #176877",
",#	c #166C7F",
"'#	c #136F84",
")#	c #186978",
"!#	c #176777",
"~#	c #117894",
"{#	c #0E7B9A",
"]#	c #166E81",
"^#	c #1B6879",
"/#	c #176F82",
"(#	c #107A96",
"_#	c #166D80",
":#	c #196879",
"<#	c #177082",
"[#	c #156A7E",
"}#	c #186474",
"|#	c #19687B",
"1#	c #176475",
"2#	c #14738A",
"3#	c #15738C",
"4#	c #13778F",
"5#	c #156E82",
"6#	c #137790",
"7#	c #0F7D9A",
"8#	c #196E80",
"9#	c #167286",
"0#	c #167184",
"a#	c #186D82",
"b#	c #176F83",
"c#	c #137991",
"d#	c #13788E",
"e#	c #165F6E",
"f#	c #127C95",
"g#	c #147085",
"h#	c #177183",
"i#	c #196676",
"j#	c #127796",
"k#	c #0C7E9E",
"l#	c #156D84",
"m#	c #166675",
"n#	c #0F7D9B",
"o#	c #0D7D9D",
"p#	c #156D7F",
"q#	c #147185",
"r#	c #1A6978",
"s#	c #186C7F",
"t#	c #165E6D",
"u#	c #176D7E",
"v#	c #13798F",
"w#	c #176979",
"x#	c #14778C",
"y#	c #166F80",
"z#	c #176A7B",
"A#	c #117B96",
"B#	c #17606F",
"C#	c #127C94",
"D#	c #186373",
"E#	c #13798E",
"F#	c #127B95",
"G#	c #0E566C",
"H#	c #166678",
"I#	c #186E84",
"J#	c #0E718C",
"K#	c #0B708E",
"L#	c #156F83",
"M#	c #176576",
"N#	c #166677",
"O#	c #137793",
"P#	c #186F84",
"Q#	c #0E7E9B",
"R#	c #117993",
"S#	c #176F85",
"T#	c #12505F",
"U#	c #196F81",
"V#	c #15768A",
"W#	c #0D718C",
"X#	c #196E81",
"Y#	c #127995",
"Z#	c #17687A",
"  . + + @ # $ $ % & * = + + - - $ $ # ; > , ' ) ! ~ { ] ^ / ( _ ",
": + + ; < [ $ } + @ | 1 + + 2 3 $ $ 4 + 5 6 7 8 9 ~ 0 a b c d e ",
"f g + # $ # h i + + j k . + $ 3 3 l ; + m n o p q r s t u v w x ",
"y z A B C + D E @ F G H I A J K - J L ; M N O P Q R S T U V W X ",
"m Y Z `  .+ ..+.n @.#.$.%.&.*.. =.-.;.>.,.'.).!.~.{.].^./.(._.:.",
"<.[.Y }.+ + |.1.N 2.3.4.5.Y 6.+ 7.8.9.N 0.a.b.c.d.e.f.g.h.i.j.k.",
"l.m.F + n.o.p.q.r.r.s.t.l 5 Y u.z v.r.w.q.x.y.z.A.B.C.D.E.F.G.H.",
"I.5 J.6.K.L.M.$ $ $ N.O.P.Q.R.S.T.U.$ $ $ V.W.X.Y.Z.`. +.+++@+#+",
"$+%+5 q.&+*+=+-+, ;+>+,+'+5 )+!+~+{+]+, ^+/+(+_+:+<+[+}+|+1+2+3+",
"+ 4+w.$ 5+=.6+7+6 8+9++ 0+$ $ a+b+6+a+6 c+d+e+f+g+h+i+j+k+l+m+n+",
"o+>+$ $ h D p+u.q+r+s+a+'.$ ;+t+u+v+n.&.-.. w+x+y+z+A+B+C+D+E+F+",
"- G+$ $ H+I+A u.u.q+a+$ J+$ ;+K+-.v+u.L+M+; < N+O+P+Q+R+S+T+U+V+",
"#.W+$ 3 X+Y+Z+=.=.`+P.,. @w.q.J..@+@+  .@@#@'.$@%@&@*@=@-@;@>@,@",
"8+6 5 - + + '@)@+ 7.u+!@~@5 + + {@}.+ + ]@#@+  .^@/@1 (@_@:@<@[@",
"}@|@+ + + + + 1@2@- ]@]@1@+ + + + + 3@4@+ + {@5@6@#@5 7@8@9@0@a@",
"}@|@ .+ + + . Z+b@c@d@Y e@=.+ + +  .Z+&+f@g@h@i@j@k@5.> l@m@n@o@",
"6.+ |@p@N q@r@s@t@`+!@u@Y |@N v@b+w@x@y@|@u.z@A@B@C@+ + #@D@z@E@",
"C % F@G@+.{+q.[ ; 1@H@+ I@J@K@L@M@r.U.C u.u.v@C@|@Y + + ]@N@O@Y ",
"P@3 w.5 1@Q@$ $ >+5 R@S@$ r.Y Y M $ < T@U@V@=.+ Y `+v@#@M+-.+ + ",
"q.$ $ a+W@r.$ $ J+w.X@Y@$ $ Y F@w.$ H+< w.[ Z@=.9.`@h@#@+ 1@ .; ",
"$ [ o+%+q.h $ $ $ $  #.#+#C@3.r. @$ $ $ $ $ q.. 1@+ + + + $+)+@#",
"5 ##$#D@s+~@r.$ $ $ %#C@&#+.*.*#=#w.$ $ h h J+-#>+4 ;#Y+H@>#,#'#",
"K.)#!#.#1@e@9.~#$@{#]#p+L+L+Z+1@^#/#{#$@~#(#w.$ $ w._#S.Z+1@u.Y ",
":#u.u.<#+ =.[#}# .+ |#.#u.u.. + g 1#Y+. Y 2#3# @q.5 2.u@. + p@@@",
" .+ c+t+4#5 5#N 5 a+4@. + 6#7#5 Q@1#o+5 a+,+8##@+ + + + }.9#+ + ",
")@)@{@c+8+5 0#0#r.$ # 6.+ $.5 5 C $+5 w.$ a#Y Y + + + + Y b#; + ",
"'@c#d#Q@e#$++ + 5 '.5.}.f#5 g#n  .+ + N.# B h#e@=.+ + . !@i#4#j#",
"*.F k#l#$++ + + . Y+m#C@n#o#= g + + +  .^@p#=.1@`+t@^@b+X+q#p@r#",
"*.s#R.t#u#v#+ + v@w#=.+@B }#~+x#x#+ + !#y#+ - q.4@*+z#A#$ r.. 9.",
"A#5+#@h@B#)@C#Q@8#{@Q@# ; . >.D#E#F#. h#+ N.i $ # 1@C < $ =#F ,.",
"G#^+{@$.H#t@6.1@I#w.J#K#5+$.L#M#N#)@|@O#$ P#b#Q#R#S#r.$ $ $ $ $ ",
"T#U#}.$.@ V#F *#U@w.W#=+X#0.Q.o+% F Y Y#$ P#b+G Z#c+^+h $ $ $ $ "};
