/* XPM */
static char * wallwater_corner_topleft_2_xpm[] = {
"32 32 799 2",
"  	c #67723A",
". 	c #79902F",
"+ 	c #647235",
"@ 	c #6C7A36",
"# 	c #728034",
"$ 	c #58653F",
"% 	c #6A763A",
"& 	c #748133",
"* 	c #66703B",
"= 	c #4D5042",
"- 	c #515543",
"; 	c #5B6640",
"> 	c #5C7139",
", 	c #56663D",
"' 	c #687636",
") 	c #94A02A",
"! 	c #9EA925",
"~ 	c #73892F",
"{ 	c #76A020",
"] 	c #4C5E37",
"^ 	c #4F5442",
"/ 	c #6C7937",
"( 	c #8CA429",
"_ 	c #758038",
": 	c #44473D",
"< 	c #58613F",
"[ 	c #535942",
"} 	c #575D3F",
"| 	c #748234",
"1 	c #707E32",
"2 	c #748233",
"3 	c #5D6B3B",
"4 	c #677437",
"5 	c #606D3A",
"6 	c #677733",
"7 	c #638727",
"8 	c #6D8B32",
"9 	c #43453D",
"0 	c #515443",
"a 	c #667237",
"b 	c #6F7D34",
"c 	c #565C40",
"d 	c #555C42",
"e 	c #91A628",
"f 	c #85A027",
"g 	c #668D22",
"h 	c #4C543B",
"i 	c #45473D",
"j 	c #55603E",
"k 	c #64842D",
"l 	c #76892E",
"m 	c #4B4E40",
"n 	c #687632",
"o 	c #6C7936",
"p 	c #4E5142",
"q 	c #5A5F40",
"r 	c #5F683D",
"s 	c #545F41",
"t 	c #545A3F",
"u 	c #515643",
"v 	c #5F6C3A",
"w 	c #59663E",
"x 	c #4F6F33",
"y 	c #76A120",
"z 	c #779E28",
"A 	c #5D6C3E",
"B 	c #505343",
"C 	c #4E5141",
"D 	c #4F5A41",
"E 	c #4E5341",
"F 	c #43493C",
"G 	c #627539",
"H 	c #729B20",
"I 	c #96A925",
"J 	c #9FA924",
"K 	c #68793A",
"L 	c #4D5A3A",
"M 	c #456834",
"N 	c #6A971A",
"O 	c #7FA820",
"P 	c #75942E",
"Q 	c #5C693F",
"R 	c #5E673D",
"S 	c #727F36",
"T 	c #5B633E",
"U 	c #525743",
"V 	c #636F37",
"W 	c #474B3F",
"X 	c #4A4C40",
"Y 	c #5F7E31",
"Z 	c #526B36",
"` 	c #5E693A",
" .	c #4E6039",
"..	c #46503D",
"+.	c #4F5A40",
"@.	c #587734",
"#.	c #689322",
"$.	c #6F8531",
"%.	c #94A727",
"&.	c #A2AF22",
"*.	c #92A029",
"=.	c #6E8333",
"-.	c #5A822A",
";.	c #708D2A",
">.	c #687532",
",.	c #78902F",
"'.	c #5B693C",
").	c #6C7A32",
"!.	c #697732",
"~.	c #67872D",
"{.	c #6A7833",
"].	c #545842",
"^.	c #565D3C",
"/.	c #576B37",
"(.	c #6B9819",
"_.	c #5F7B31",
":.	c #7F9D2C",
"<.	c #5D673F",
"[.	c #6B7E34",
"}.	c #7C8D31",
"|.	c #86922F",
"1.	c #6E8031",
"2.	c #637137",
"3.	c #525A43",
"4.	c #575E40",
"5.	c #657B32",
"6.	c #6B8B2E",
"7.	c #7B972D",
"8.	c #83AA2D",
"9.	c #8FAD2B",
"0.	c #79932F",
"a.	c #727F33",
"b.	c #6D7134",
"c.	c #717D33",
"d.	c #52663E",
"e.	c #6A9422",
"f.	c #699519",
"g.	c #647C31",
"h.	c #7C8834",
"i.	c #9EA825",
"j.	c #76952D",
"k.	c #607E34",
"l.	c #79872F",
"m.	c #9FAD23",
"n.	c #778E30",
"o.	c #748C30",
"p.	c #879D2B",
"q.	c #839F2B",
"r.	c #88972D",
"s.	c #6A7B35",
"t.	c #5C633F",
"u.	c #50573D",
"v.	c #4F5242",
"w.	c #45483D",
"x.	c #628E20",
"y.	c #5F743D",
"z.	c #729333",
"A.	c #8CA72E",
"B.	c #87AE2C",
"C.	c #A0B327",
"D.	c #9DB027",
"E.	c #7B9A2F",
"F.	c #6A8035",
"G.	c #5F8932",
"H.	c #87B623",
"I.	c #78A825",
"J.	c #546E3C",
"K.	c #5C6440",
"L.	c #8D9631",
"M.	c #909B2E",
"N.	c #657336",
"O.	c #A6B121",
"P.	c #7A942E",
"Q.	c #7C962E",
"R.	c #748631",
"S.	c #667D30",
"T.	c #5D7C34",
"U.	c #44473E",
"V.	c #46493E",
"W.	c #575C41",
"X.	c #55762F",
"Y.	c #567C2F",
"Z.	c #566C3F",
"`.	c #546D3D",
" +	c #58753A",
".+	c #4C671D",
"++	c #517114",
"@+	c #92A825",
"#+	c #A3B827",
"$+	c #ABBE23",
"%+	c #8BAD2D",
"&+	c #85B02A",
"*+	c #567F35",
"=+	c #576F3F",
"-+	c #535C42",
";+	c #555F42",
">+	c #67733A",
",+	c #5F6C3B",
"'+	c #62713B",
")+	c #82902F",
"!+	c #739A22",
"~+	c #82A726",
"{+	c #6E8D27",
"]+	c #728033",
"^+	c #748D31",
"/+	c #689020",
"(+	c #6B7937",
"_+	c #616D36",
":+	c #5E6A39",
"<+	c #768A34",
"[+	c #80A12E",
"}+	c #78992F",
"|+	c #6C8931",
"1+	c #58773F",
"2+	c #4D6739",
"3+	c #415A2C",
"4+	c #2A4611",
"5+	c #223113",
"6+	c #456224",
"7+	c #77982F",
"8+	c #A5BB25",
"9+	c #8EB02D",
"0+	c #9BB628",
"a+	c #95AB2C",
"b+	c #67813C",
"c+	c #83912F",
"d+	c #545A42",
"e+	c #586D3C",
"f+	c #58703B",
"g+	c #6F7F35",
"h+	c #799C1D",
"i+	c #909B2B",
"j+	c #9CAC20",
"k+	c #9EAC25",
"l+	c #7C992E",
"m+	c #6B7D30",
"n+	c #6F7F2F",
"o+	c #738830",
"p+	c #6D8835",
"q+	c #739036",
"r+	c #6F8A38",
"s+	c #5A733F",
"t+	c #57703F",
"u+	c #546D37",
"v+	c #41581D",
"w+	c #1F2E11",
"x+	c #1A2311",
"y+	c #222316",
"z+	c #727D29",
"A+	c #708C25",
"B+	c #4A6326",
"C+	c #708D2C",
"D+	c #99AE21",
"E+	c #9FB422",
"F+	c #89A22A",
"G+	c #768931",
"H+	c #616D39",
"I+	c #56673D",
"J+	c #78A31E",
"K+	c #6B9220",
"L+	c #9DA925",
"M+	c #68852F",
"N+	c #6A991B",
"O+	c #688C37",
"P+	c #648439",
"Q+	c #5F7C35",
"R+	c #445F19",
"S+	c #4A621E",
"T+	c #56723C",
"U+	c #59793F",
"V+	c #57723F",
"W+	c #59773E",
"X+	c #5D6E33",
"Y+	c #3C5015",
"Z+	c #363F09",
"`+	c #1D3209",
" @	c #172D0C",
".@	c #1F2614",
"+@	c #5C6415",
"@@	c #3F4910",
"#@	c #263415",
"$@	c #2C4216",
"%@	c #3D590E",
"&@	c #4D6114",
"*@	c #53593F",
"=@	c #607133",
"-@	c #667A3A",
";@	c #626E3C",
">@	c #6F7F32",
",@	c #7E992D",
"'@	c #94A228",
")@	c #728B2E",
"!@	c #657236",
"~@	c #5D673E",
"{@	c #5A7D34",
"]@	c #618338",
"^@	c #546A38",
"/@	c #506029",
"(@	c #243E0F",
"_@	c #27470C",
":@	c #6C8C29",
"<@	c #678B36",
"[@	c #68883A",
"}@	c #5A7134",
"|@	c #2F3519",
"1@	c #39450A",
"2@	c #394F00",
"3@	c #274400",
"4@	c #162400",
"5@	c #313800",
"6@	c #3D4B00",
"7@	c #282B06",
"8@	c #211F0C",
"9@	c #40550A",
"0@	c #2E4309",
"a@	c #1D1F14",
"b@	c #434E3B",
"c@	c #6C912B",
"d@	c #719721",
"e@	c #748432",
"f@	c #6A7B38",
"g@	c #57772F",
"h@	c #618130",
"i@	c #596241",
"j@	c #5E763E",
"k@	c #546F3D",
"l@	c #678431",
"m@	c #455617",
"n@	c #1F2813",
"o@	c #395008",
"p@	c #4E660E",
"q@	c #4F661D",
"r@	c #5E7522",
"s@	c #3E530F",
"t@	c #23330B",
"u@	c #3E5104",
"v@	c #5D886C",
"w@	c #579EAB",
"x@	c #4E97AA",
"y@	c #49939A",
"z@	c #459098",
"A@	c #5199A9",
"B@	c #4B8895",
"C@	c #283302",
"D@	c #202514",
"E@	c #161710",
"F@	c #494C3E",
"G@	c #7C8734",
"H@	c #7C8C30",
"I@	c #50762E",
"J@	c #51603E",
"K@	c #507034",
"L@	c #77A022",
"M@	c #799D2D",
"N@	c #657B36",
"O@	c #779631",
"P@	c #728F31",
"Q@	c #657D2E",
"R@	c #34391B",
"S@	c #303E0E",
"T@	c #415703",
"U@	c #353F09",
"V@	c #212712",
"W@	c #1B2211",
"X@	c #233D04",
"Y@	c #255D5C",
"Z@	c #70B2B3",
"`@	c #408B8F",
" #	c #134155",
".#	c #1A3F53",
"+#	c #315C6D",
"@#	c #305A6C",
"##	c #346479",
"$#	c #60A8AB",
"%#	c #57847B",
"&#	c #456E6C",
"*#	c #1F4D5B",
"=#	c #657135",
"-#	c #869B2C",
";#	c #859B2B",
">#	c #516F32",
",#	c #647B31",
"'#	c #5A6341",
")#	c #698D2A",
"!#	c #657A37",
"~#	c #7FA130",
"{#	c #99B629",
"]#	c #576C2E",
"^#	c #333818",
"/#	c #3A4508",
"(#	c #3B4807",
"_#	c #222A11",
":#	c #1B1D12",
"<#	c #14150E",
"[#	c #161E0B",
"}#	c #5099A3",
"|#	c #2E6170",
"1#	c #0E3A4F",
"2#	c #113B4D",
"3#	c #0E3A4B",
"4#	c #134254",
"5#	c #376A7A",
"6#	c #386A7C",
"7#	c #417C8D",
"8#	c #478697",
"9#	c #39788C",
"0#	c #39778C",
"a#	c #7B932F",
"b#	c #6A7735",
"c#	c #5A6340",
"d#	c #5E673E",
"e#	c #7FA425",
"f#	c #687E3A",
"g#	c #595F40",
"h#	c #798D32",
"i#	c #789332",
"j#	c #708E31",
"k#	c #9BB72B",
"l#	c #4D5B2B",
"m#	c #393F14",
"n#	c #364722",
"o#	c #2C5554",
"p#	c #336167",
"q#	c #174B59",
"r#	c #1C5F73",
"s#	c #499BB2",
"t#	c #488899",
"u#	c #376F82",
"v#	c #3A7487",
"w#	c #2C6373",
"x#	c #1E5263",
"y#	c #195162",
"z#	c #174E60",
"A#	c #154B5E",
"B#	c #144A5E",
"C#	c #134053",
"D#	c #133E50",
"E#	c #14485A",
"F#	c #586441",
"G#	c #5D6640",
"H#	c #667336",
"I#	c #626F3C",
"J#	c #566241",
"K#	c #5A6540",
"L#	c #7A9130",
"M#	c #7FA428",
"N#	c #6F8E31",
"O#	c #5F7D3C",
"P#	c #658E39",
"Q#	c #4E5021",
"R#	c #345152",
"S#	c #386E7E",
"T#	c #418292",
"U#	c #306C7D",
"V#	c #175A71",
"W#	c #1C5A70",
"X#	c #265F77",
"Y#	c #225A73",
"Z#	c #17586F",
"`#	c #1A596E",
" $	c #1C5664",
".$	c #1B5767",
"+$	c #1C5B6D",
"@$	c #1D687E",
"#$	c #1C6F8D",
"$$	c #1D6881",
"%$	c #1C5565",
"&$	c #1C6479",
"*$	c #1D6F89",
"=$	c #515A42",
"-$	c #656F3C",
";$	c #6B7932",
">$	c #6F8230",
",$	c #677A3B",
"'$	c #729823",
")$	c #7DAF22",
"!$	c #5C8339",
"~$	c #57743F",
"{$	c #444D2D",
"]$	c #2D444D",
"^$	c #123C49",
"/$	c #1C515E",
"($	c #1C6278",
"_$	c #226E7F",
":$	c #246D80",
"<$	c #206676",
"[$	c #216573",
"}$	c #246878",
"|$	c #236877",
"1$	c #215E6C",
"2$	c #20606D",
"3$	c #216270",
"4$	c #227183",
"5$	c #227487",
"6$	c #227386",
"7$	c #216777",
"8$	c #205E6C",
"9$	c #226D7E",
"0$	c #494C3F",
"a$	c #585F41",
"b$	c #667435",
"c$	c #7A9030",
"d$	c #7F9E2C",
"e$	c #8BAB29",
"f$	c #61922D",
"g$	c #91AB2C",
"h$	c #7A882A",
"i$	c #353327",
"j$	c #2C3D2C",
"k$	c #1E3F4D",
"l$	c #217185",
"m$	c #217B97",
"n$	c #227C96",
"o$	c #22768A",
"p$	c #226F81",
"q$	c #237183",
"r$	c #205E6B",
"s$	c #216977",
"t$	c #788A31",
"u$	c #616E3C",
"v$	c #709721",
"w$	c #759A23",
"x$	c #A1B328",
"y$	c #98A729",
"z$	c #7A891F",
"A$	c #3E4823",
"B$	c #2F373F",
"C$	c #4A7F8D",
"D$	c #1D4352",
"E$	c #164B5E",
"F$	c #217084",
"G$	c #22788F",
"H$	c #217C98",
"I$	c #22778E",
"J$	c #227489",
"K$	c #246E81",
"L$	c #227284",
"M$	c #236777",
"N$	c #23697A",
"O$	c #226170",
"P$	c #6A7939",
"Q$	c #62743C",
"R$	c #688E2C",
"S$	c #648634",
"T$	c #62813C",
"U$	c #5C792E",
"V$	c #3C4A1B",
"W$	c #28251F",
"X$	c #42717C",
"Y$	c #6296A1",
"Z$	c #1B3F4E",
"`$	c #13465A",
" %	c #207085",
".%	c #217C97",
"+%	c #22738B",
"@%	c #236878",
"#%	c #215F6E",
"$%	c #226D81",
"%%	c #246B7C",
"&%	c #236E7F",
"*%	c #227890",
"=%	c #4A4D40",
"-%	c #484B3F",
";%	c #576340",
">%	c #515F3F",
",%	c #749531",
"'%	c #ABBE22",
")%	c #687C1D",
"!%	c #2F3715",
"~%	c #304335",
"{%	c #5497AA",
"]%	c #397D93",
"^%	c #1B3B48",
"/%	c #15485B",
"(%	c #1F738F",
"_%	c #217C9A",
":%	c #227A94",
"<%	c #227C97",
"[%	c #217D98",
"}%	c #5F6A3A",
"|%	c #637C3D",
"1%	c #6F8B39",
"2%	c #73912A",
"3%	c #849B28",
"4%	c #71761B",
"5%	c #364309",
"6%	c #468B94",
"7%	c #3E7A88",
"8%	c #356372",
"9%	c #114050",
"0%	c #1A5364",
"a%	c #216F83",
"b%	c #217891",
"c%	c #217C99",
"d%	c #216371",
"e%	c #226B7B",
"f%	c #216170",
"g%	c #22697B",
"h%	c #47543C",
"i%	c #496B33",
"j%	c #819B2C",
"k%	c #819B33",
"l%	c #5F7732",
"m%	c #45740D",
"n%	c #394C0C",
"o%	c #2A320A",
"p%	c #2C340C",
"q%	c #358B9D",
"r%	c #114357",
"s%	c #336473",
"t%	c #1D5D6D",
"u%	c #236B7B",
"v%	c #246777",
"w%	c #236E80",
"x%	c #217A98",
"y%	c #207B9B",
"z%	c #227792",
"A%	c #236C7F",
"B%	c #236F85",
"C%	c #22768B",
"D%	c #237386",
"E%	c #227991",
"F%	c #22778B",
"G%	c #226C7D",
"H%	c #206170",
"I%	c #226978",
"J%	c #226372",
"K%	c #456236",
"L%	c #505D39",
"M%	c #9EB027",
"N%	c #9DB227",
"O%	c #5F7C22",
"P%	c #3C5008",
"Q%	c #262B10",
"R%	c #1E1E13",
"S%	c #282C17",
"T%	c #2B8392",
"U%	c #113B4E",
"V%	c #154859",
"W%	c #1C5769",
"X%	c #216D80",
"Y%	c #227083",
"Z%	c #216373",
"`%	c #226676",
" &	c #227184",
".&	c #227B97",
"+&	c #236C7D",
"@&	c #227488",
"#&	c #216370",
"$&	c #4A4E3E",
"%&	c #779734",
"&&	c #99B329",
"*&	c #607F1E",
"=&	c #292F0E",
"-&	c #171911",
";&	c #242618",
">&	c #328196",
",&	c #28657B",
"'&	c #205162",
")&	c #175265",
"!&	c #1E6980",
"~&	c #22768C",
"{&	c #22758B",
"]&	c #227A95",
"^&	c #217A95",
"/&	c #226D7F",
"(&	c #217082",
"_&	c #236F82",
":&	c #236A7B",
"<&	c #4E5042",
"[&	c #68902D",
"}&	c #75A424",
"|&	c #5E7C1C",
"1&	c #294F0F",
"2&	c #191915",
"3&	c #375E5E",
"4&	c #3F8A9C",
"5&	c #225162",
"6&	c #174A5D",
"7&	c #1A596B",
"8&	c #216E81",
"9&	c #227285",
"0&	c #216575",
"a&	c #5C633E",
"b&	c #687535",
"c&	c #5B733B",
"d&	c #82B122",
"e&	c #7CAA26",
"f&	c #546F1D",
"g&	c #415117",
"h&	c #3D6F62",
"i&	c #4A9B9D",
"j&	c #1C4E60",
"k&	c #134455",
"l&	c #164C5E",
"m&	c #1D6478",
"n&	c #227893",
"o&	c #217A94",
"p&	c #23768B",
"q&	c #227388",
"r&	c #216878",
"s&	c #227188",
"t&	c #62763C",
"u&	c #678D2C",
"v&	c #537235",
"w&	c #587539",
"x&	c #637E25",
"y&	c #5B805F",
"z&	c #468685",
"A&	c #0F3A4D",
"B&	c #144556",
"C&	c #164E5F",
"D&	c #1F6D87",
"E&	c #217B9A",
"F&	c #226677",
"G&	c #216473",
"H&	c #236778",
"I&	c #205F6D",
"J&	c #226E7E",
"K&	c #227993",
"L&	c #237B92",
"M&	c #22758A",
"N&	c #227A93",
"O&	c #6D7A36",
"P&	c #61733B",
"Q&	c #707A39",
"R&	c #63743A",
"S&	c #535D3A",
"T&	c #5D783C",
"U&	c #7C9D2F",
"V&	c #647B30",
"W&	c #194A58",
"X&	c #134256",
"Y&	c #16495A",
"Z&	c #185363",
"`&	c #206376",
" *	c #216372",
".*	c #205F6C",
"+*	c #23768A",
"@*	c #216675",
"#*	c #216879",
"$*	c #226C7E",
"%*	c #226270",
"&*	c #237587",
"**	c #819630",
"=*	c #9EAB25",
"-*	c #8BA02A",
";*	c #6C7D3A",
">*	c #7B9B30",
",*	c #81A62D",
"'*	c #61642B",
")*	c #3A626C",
"!*	c #154F62",
"~*	c #1B5E74",
"{*	c #1E697E",
"]*	c #21697B",
"^*	c #20616F",
"/*	c #22788C",
"(*	c #237081",
"_*	c #226775",
":*	c #22758C",
"<*	c #96A727",
"[*	c #64733D",
"}*	c #4D5640",
"|*	c #47493E",
"1*	c #687639",
"2*	c #7FA22F",
"3*	c #688537",
"4*	c #595D30",
"5*	c #366370",
"6*	c #154C5F",
"7*	c #1A5F77",
"8*	c #1D687F",
"9*	c #226D80",
"0*	c #1E5B6B",
"a*	c #227690",
"b*	c #227082",
"c*	c #215F6D",
"d*	c #237790",
"e*	c #216574",
"f*	c #536042",
"g*	c #4F5841",
"h*	c #758632",
"i*	c #7B9733",
"j*	c #5E7D3B",
"k*	c #6A742F",
"l*	c #57838B",
"m*	c #135970",
"n*	c #154D5E",
"o*	c #195768",
"p*	c #1E5F71",
"q*	c #206B7D",
"r*	c #1D6375",
"s*	c #227892",
"t*	c #227589",
"u*	c #22778C",
"v*	c #207C9E",
"w*	c #227B98",
"x*	c #237287",
"  . + @ # $ % & * = - ; > , ' ) ! ~ { ] ^ / ( _ : : < [ } | 1 + ",
"2   3 1 4 5 6 7 8 9 0 a b c d ' e f g h i j k l m : n o p q r s ",
"b t u v w n x y z A B C D E F G H I J K L M N O P Q R b S T U V ",
"V W X Y Z n `  ...B B C E D +.@.#.$.%.&.*.=.-.;.>.,.# '.).!.~.{.",
"].^./.(._.:.a c <.[.}.|.1.).2.3.0 4.5.6.7.8.9.0.a.b.c.w d.e.f.g.",
"h.i.j.k.l.m.n.o.p.m.q.r.s.t.u.U v.w.x.x.y.z.A.B.C.D.E.F.G.H.I.J.",
"K.L.M.N.l.O.P.P.Q.R.S.T.^ U.: V.W.t.X.Y.Z.`. +.+++@+#+$+%+&+*+=+",
"-+;+>+,+'+)+!+~+{+]+^+/+(+_+D :+<+[+}+|+1+2+3+4+5+6+7+8+9+0+a+b+",
"c+'+d+e+f+g+~ h+i+&.j+k+l+m+n+o+p+q+r+s+t+u+v+w+x+y+z+A+B+C+D+E+",
"F+G+H+I+J+K+L+O.&.M+N+O+P+Q+R+S+T+U+V+W+X+Y+Z+`+ @.@+@@@#@$@%@&@",
"*@=@-@;@>@,@'@)@!@~@{@]@^@/@(@_@:@<@[@}@|@1@2@3@4@5@6@7@8@9@0@a@",
"b@c@d@P.e@f@g@{ h@i@j@k@l@m@n@o@p@q@r@s@t@u@v@w@x@y@z@A@B@C@D@E@",
"F@G@O.H@I@J@K@L@M@N@O@P@Q@R@S@T@U@V@W@X@Y@Z@`@ #.#+#@###$#%#&#*#",
"=#-#;#>#J+,#'#, )#!#~#{#]#^#/#(#_#:#<#[#}#|#1#2#3#4#5#6#7#8#9#0#",
"a#b#c#d#e#f#3.g#h#i#j#k#l#m#n#o#p#q#r#s#t#u#v#w#x#y#z#A#B#C#D#E#",
"' F#G#H#I#J#K#L#M#N#O#P#Q#R#S#T#U#V#W#X#Y#Z#`# $.$+$@$#$$$%$&$*$",
"C =$-$;$>$f@,$'$)$!$~${$]$^$/$($_$:$<$[$}$|$1$2$3$4$5$5$6$7$8$9$",
"C 0$a$b$c$d$m.e$f$g$h$i$j$k$/$($l$m$n$o$|$|$p$4$}$q$5$5$p$r$s$4$",
"t$I#E m u$v$w$x$y$z$A$B$C$D$E$F$G$H$m$I$J$K$L$5$4$M$p$6$N$O$5$5$",
"P$!.E m Q$R$S$T$U$V$W$X$Y$Z$`$ %H$H$m$m$H$.%+%L$@%#%$%6$5$%%&%*%",
"=%0 -%;%>%,%8+'%)%!%~%{%]%^%/%(%_%H$H$H$H$H$:%L$%%5$5$5$5$N$<%[%",
"}%u t b |%1%2%3%4%5%6%7%8%9%0%a%b%H$H$H$_%c%J$d%e%5$5$5$L$f%K$g%",
"v h%i%j%k%l%m%n%o%p%q%r%s%y#t%u%v%w%x%y%z%A%B%C%@%D%E%F%G%H%I%J%",
"E K%L%M%N%O%P%Q%R%S%T%U%V%W%X%5$Y%Z%`%L$4$ &.&H$z%[$+&@&G%#&L$L$",
": : $&%&&&*&=&-&;&>&,&'&)&!&<%~&{&Z%@&~&~&~&]&^&/&(&5$5$L$_&F%:&",
": m <&[&}&|&1&2&3&4&5&6&7&8&~&~&C%N$C%H$H$.&5$5$9&5$5$5$5$0&F%4$",
"a&b&c&d&e&f&g&h&i&j&k&l&m&{&a%H%&%5$5$n&o&p&Y%M$5$5$5$5$q&r&s&.&",
").I#t&u&v&w&x&y&z&A&B&C&D&E&F&Y%5$5$5$&%G&N$H&I&J&5$K&L&M&N&H$H$",
"O&P&Q&R&S&T&U&V&W&X&Y&Z&`& *.*+*o$5$5$@*J&5$5$#*3$_$$*%*&%&*K&N&",
"**=*-*;*R >*,*'*)*!*z#~*{* &]*^*/*N&L$(*5$5$5$5$_$_*@%:*N&K&(&G&",
"<*[*}*|*1*2*3*4*5*!*6*7*8*Y%9*0*0&9&}$a*H$.&p&5$b*c*C%H$H$H$d*e*",
"[*f*m g*h*i*j*k*l*m*n*o*p*9*q*r*p&K&4$s*H$H$m$K&t*{&u*c%v*w*x*q$"};
