/* XPM */
static char * wallwater_corner_bottomleft_3_xpm[] = {
"32 32 785 2",
"  	c #667236",
". 	c #779126",
"+ 	c #637231",
"@ 	c #6B7A31",
"# 	c #72842C",
"$ 	c #5C7C38",
"% 	c #688730",
"& 	c #506116",
"* 	c #306B76",
"= 	c #3C859B",
"- 	c #0A3F55",
"; 	c #135D70",
"> 	c #147589",
", 	c #14768A",
"' 	c #0F7C9A",
") 	c #0D7D9B",
"! 	c #117B96",
"~ 	c #127993",
"{ 	c #097DA1",
"] 	c #0B7D9E",
"^ 	c #0E7D9B",
"/ 	c #107A97",
"( 	c #127895",
"_ 	c #147488",
": 	c #176D81",
"< 	c #186E82",
"[ 	c #177083",
"} 	c #73822C",
"| 	c #5C6B38",
"1 	c #6F7E2C",
"2 	c #667A31",
"3 	c #638331",
"4 	c #5F7D21",
"5 	c #283D05",
"6 	c #2D6E77",
"7 	c #3A8297",
"8 	c #0A4056",
"9 	c #0F6377",
"0 	c #137488",
"a 	c #117B97",
"b 	c #0F7C98",
"c 	c #0B7C9C",
"d 	c #13778E",
"e 	c #117791",
"f 	c #0D7E9D",
"g 	c #127891",
"h 	c #186C7F",
"i 	c #196475",
"j 	c #166879",
"k 	c #127892",
"l 	c #0F7D99",
"m 	c #117896",
"n 	c #6E7D2E",
"o 	c #535A3D",
"p 	c #515642",
"q 	c #5E6E36",
"r 	c #5B7738",
"s 	c #698B26",
"t 	c #3A5D15",
"u 	c #294400",
"v 	c #327D83",
"w 	c #3C7E94",
"x 	c #0A3D52",
"y 	c #0C4D64",
"z 	c #11657A",
"A 	c #0A7DA0",
"B 	c #147387",
"C 	c #166272",
"D 	c #1A6A7B",
"E 	c #176E83",
"F 	c #0D7D9D",
"G 	c #0F7B99",
"H 	c #186F82",
"I 	c #176677",
"J 	c #0B7DA0",
"K 	c #626F33",
"L 	c #474B3E",
"M 	c #4A4E3E",
"N 	c #618A2A",
"O 	c #527E2B",
"P 	c #517115",
"Q 	c #282E0B",
"R 	c #141F09",
"S 	c #167B97",
"T 	c #357287",
"U 	c #0B4459",
"V 	c #0B4961",
"W 	c #115468",
"X 	c #176475",
"Y 	c #177186",
"Z 	c #14768B",
"` 	c #15697A",
" .	c #157082",
"..	c #15758A",
"+.	c #077EA2",
"@.	c #057EA4",
"#.	c #077EA3",
"$.	c #13778F",
"%.	c #196878",
"&.	c #176A7B",
"*.	c #186F83",
"=.	c #12778F",
"-.	c #545841",
";.	c #555D3A",
">.	c #566835",
",.	c #78941B",
"'.	c #4E6F16",
").	c #467300",
"!.	c #2A3100",
"~.	c #1D7285",
"{.	c #0C5A71",
"].	c #347185",
"^.	c #1C586C",
"/.	c #0A4A61",
"(.	c #125467",
"_.	c #176979",
":.	c #186F81",
"<.	c #19687A",
"[.	c #175E6C",
"}.	c #13758F",
"|.	c #13778D",
"1.	c #157387",
"2.	c #0C7C9E",
"3.	c #0C7B9B",
"4.	c #186B7F",
"5.	c #165E6C",
"6.	c #176373",
"7.	c #196677",
"8.	c #196B7E",
"9.	c #7C882D",
"0.	c #9DA913",
"a.	c #749523",
"b.	c #648A2A",
"c.	c #5B7711",
"d.	c #5D7D00",
"e.	c #385E43",
"f.	c #2B7E88",
"g.	c #0B3A51",
"h.	c #1C5971",
"i.	c #347389",
"j.	c #084862",
"k.	c #116276",
"l.	c #186374",
"m.	c #196474",
"n.	c #157185",
"o.	c #186C80",
"p.	c #157388",
"q.	c #167386",
"r.	c #177084",
"s.	c #127992",
"t.	c #186474",
"u.	c #186B7D",
"v.	c #127A94",
"w.	c #157488",
"x.	c #5B643D",
"y.	c #8C9728",
"z.	c #8F9B23",
"A.	c #67842E",
"B.	c #6B891D",
"C.	c #6B8500",
"D.	c #3D6749",
"E.	c #246771",
"F.	c #0E4459",
"G.	c #0A4E68",
"H.	c #32738A",
"I.	c #044865",
"J.	c #0C6D88",
"K.	c #1A697A",
"L.	c #1A6B7D",
"M.	c #156A7B",
"N.	c #107B97",
"O.	c #186878",
"P.	c #196C7E",
"Q.	c #127894",
"R.	c #15748A",
"S.	c #117A96",
"T.	c #525C41",
"U.	c #545F40",
"V.	c #627F34",
"W.	c #638431",
"X.	c #59770A",
"Y.	c #355713",
"Z.	c #408D7A",
"`.	c #0F4E64",
" +	c #2E677A",
".+	c #347084",
"++	c #074861",
"@+	c #14687D",
"#+	c #176E82",
"$+	c #186372",
"%+	c #196A7D",
"&+	c #117C95",
"*+	c #157589",
"=+	c #13768D",
"-+	c #0C7D9E",
";+	c #0E7C9D",
">+	c #1A697B",
",+	c #14748A",
"'+	c #829126",
")+	c #617138",
"!+	c #545A41",
"~+	c #5B7F36",
"{+	c #5D8832",
"]+	c #678723",
"^+	c #496606",
"/+	c #3B6F46",
"(+	c #327C88",
"_+	c #34768A",
":+	c #377487",
"<+	c #1E536A",
"[+	c #0E6279",
"}+	c #147991",
"|+	c #176473",
"1+	c #107997",
"2+	c #0C7D9C",
"3+	c #0E7C9A",
"4+	c #186C83",
"5+	c #186A7C",
"6+	c #156574",
"7+	c #186E80",
"8+	c #87A31C",
"9+	c #758929",
"0+	c #606D36",
"a+	c #576D3B",
"b+	c #7AB307",
"c+	c #6DA40E",
"d+	c #93A50A",
"e+	c #606300",
"f+	c #508F7B",
"g+	c #215D6D",
"h+	c #206277",
"i+	c #1F5A70",
"j+	c #095771",
"k+	c #0D7795",
"l+	c #107B96",
"m+	c #157386",
"n+	c #186675",
"o+	c #147388",
"p+	c #196D81",
"q+	c #177082",
"r+	c #167083",
"s+	c #176E80",
"t+	c #14778D",
"u+	c #53593D",
"v+	c #5F712F",
"w+	c #647A35",
"x+	c #616E39",
"y+	c #739429",
"z+	c #80AB21",
"A+	c #98AF19",
"B+	c #516312",
"C+	c #295A5A",
"D+	c #1A5F6D",
"E+	c #1C596E",
"F+	c #3B7F95",
"G+	c #064D67",
"H+	c #0B6E8A",
"I+	c #0C7D9D",
"J+	c #15758B",
"K+	c #186776",
"L+	c #1A6979",
"M+	c #1A6777",
"N+	c #195F6E",
"O+	c #13788E",
"P+	c #117993",
"Q+	c #434E3A",
"R+	c #6A9222",
"S+	c #6E9813",
"T+	c #799424",
"U+	c #758E2A",
"V+	c #6E9130",
"W+	c #5F8C27",
"X+	c #6D8E19",
"Y+	c #2F5143",
"Z+	c #164E5B",
"`+	c #0B3C4B",
" @	c #37788C",
".@	c #074C67",
"+@	c #0B5F7A",
"@@	c #0F7A97",
"#@	c #186879",
"$@	c #186576",
"%@	c #0F7B97",
"&@	c #067EA3",
"*@	c #484C3D",
"=@	c #7B872D",
"-@	c #A5B205",
";@	c #7A8C27",
">@	c #4D7728",
",@	c #547438",
"'@	c #54872C",
")@	c #7AAF11",
"!@	c #698316",
"~@	c #1E484A",
"{@	c #0A3749",
"]@	c #0D5C75",
"^@	c #114C64",
"/@	c #09516D",
"(@	c #0D728E",
"_@	c #167086",
":@	c #186676",
"<@	c #196C7D",
"[@	c #196A7B",
"}@	c #0F7B98",
"|@	c #0A7C9E",
"1@	c #0B7C9D",
"2@	c #176D84",
"3@	c #147690",
"4@	c #087EA2",
"5@	c #097C9F",
"6@	c #647130",
"7@	c #849C20",
"8@	c #839C20",
"9@	c #4F702E",
"0@	c #75A408",
"a@	c #64802A",
"b@	c #5F7D3A",
"c@	c #5A7F36",
"d@	c #68900E",
"e@	c #335C30",
"f@	c #253931",
"g@	c #0D475B",
"h@	c #1F424E",
"i@	c #074B64",
"j@	c #11667B",
"k@	c #176575",
"l@	c #166F81",
"m@	c #167285",
"n@	c #167087",
"o@	c #117790",
"p@	c #7A9326",
"q@	c #697730",
"r@	c #59633E",
"s@	c #5D673B",
"t@	c #7CA515",
"u@	c #677E35",
"v@	c #526040",
"w@	c #5F783A",
"x@	c #85992B",
"y@	c #66881B",
"z@	c #567233",
"A@	c #274246",
"B@	c #103848",
"C@	c #10465A",
"D@	c #0F5F75",
"E@	c #176474",
"F@	c #17697B",
"G@	c #12778E",
"H@	c #196170",
"I@	c #166575",
"J@	c #677631",
"K@	c #57643E",
"L@	c #5C663D",
"M@	c #657331",
"N@	c #607038",
"O@	c #56623F",
"P@	c #59653D",
"Q@	c #7F8C2D",
"R@	c #82AD1D",
"S@	c #6C8F28",
"T@	c #5A7B2D",
"U@	c #465837",
"V@	c #0D3A4A",
"W@	c #084258",
"X@	c #0C586E",
"Y@	c #137286",
"Z@	c #196A7A",
"`@	c #0F7A99",
" #	c #127B94",
".#	c #156E83",
"+#	c #165F6C",
"@#	c #186777",
"##	c #186B7E",
"$#	c #137894",
"%#	c #196272",
"&#	c #157187",
"*#	c #0F7D98",
"=#	c #4E5140",
"-#	c #515A41",
";#	c #646F38",
">#	c #6A792D",
",#	c #6D822A",
"'#	c #697B33",
")#	c #667A36",
"!#	c #719816",
"~#	c #75A60C",
"{#	c #5A8434",
"]#	c #547135",
"^#	c #47582C",
"/#	c #28302F",
"(#	c #0F3D4F",
"_#	c #0C4B61",
":#	c #126A7D",
"<#	c #157083",
"[#	c #186D7F",
"}#	c #186D81",
"|#	c #156575",
"1#	c #196777",
"2#	c #1A6677",
"3#	c #17606F",
"4#	c #17616F",
"5#	c #176372",
"6#	c #494C3E",
"7#	c #585F3F",
"8#	c #657430",
"9#	c #799127",
"0#	c #7D9F20",
"a#	c #9EAE0D",
"b#	c #87A519",
"c#	c #598427",
"d#	c #91AE1F",
"e#	c #98AD1D",
"f#	c #627E0A",
"g#	c #304527",
"h#	c #0F3849",
"i#	c #09445A",
"j#	c #155667",
"k#	c #186373",
"l#	c #167286",
"m#	c #196978",
"n#	c #196B7C",
"o#	c #157284",
"p#	c #1B697A",
"q#	c #186778",
"r#	c #16606E",
"s#	c #778A2A",
"t#	c #616F38",
"u#	c #4E5340",
"v#	c #4B4E3F",
"w#	c #606E39",
"x#	c #719317",
"y#	c #9CA814",
"z#	c #9DAA12",
"A#	c #9FB80E",
"B#	c #9CB70B",
"C#	c #8CA014",
"D#	c #4F5E00",
"E#	c #1F3A37",
"F#	c #0B4355",
"G#	c #187083",
"H#	c #196A7C",
"I#	c #167184",
"J#	c #186678",
"K#	c #687A34",
"L#	c #68772D",
"M#	c #617539",
"N#	c #658F23",
"O#	c #5D6F32",
"P#	c #5A693C",
"Q#	c #5A6E38",
"R#	c #6A9E18",
"S#	c #72AA18",
"T#	c #6C951F",
"U#	c #466211",
"V#	c #222D10",
"W#	c #283E34",
"X#	c #145262",
"Y#	c #106F86",
"Z#	c #0E7B98",
"`#	c #176F85",
" $	c #1B6A7B",
".$	c #4A4D3F",
"+$	c #515442",
"@$	c #56633D",
"#$	c #505D3D",
"$$	c #6F852A",
"%$	c #A0B00B",
"&$	c #A8B302",
"*$	c #7B8C27",
"=$	c #719D18",
"-$	c #7FB30C",
";$	c #889C1F",
">$	c #637725",
",$	c #618619",
"'$	c #58800C",
")$	c #2D5444",
"!$	c #116278",
"~$	c #0E738F",
"{$	c #0D7C9B",
"]$	c #0C7D9B",
"^$	c #0E7C9B",
"/$	c #127286",
"($	c #166475",
"_$	c #116C80",
":$	c #116E81",
"<$	c #126F82",
"[$	c #137387",
"}$	c #157184",
"|$	c #137791",
"1$	c #5E6A37",
"2$	c #5D683C",
"3$	c #667637",
"4$	c #718429",
"5$	c #829026",
"6$	c #799C1D",
"7$	c #5E8723",
"8$	c #698D25",
"9$	c #718F2A",
"0$	c #709624",
"a$	c #588C25",
"b$	c #678023",
"c$	c #195B57",
"d$	c #145768",
"e$	c #126073",
"f$	c #0F6E85",
"g$	c #107C99",
"h$	c #0B6A85",
"i$	c #0E6D86",
"j$	c #126172",
"k$	c #21433F",
"l$	c #303F2C",
"m$	c #2B4337",
"n$	c #1F646C",
"o$	c #116475",
"p$	c #155D6C",
"q$	c #5E6C36",
"r$	c #47543B",
"s$	c #476C2F",
"t$	c #7E9921",
"u$	c #7C892D",
"v$	c #5F6A3A",
"w$	c #657038",
"x$	c #657233",
"y$	c #637032",
"z$	c #748E26",
"A$	c #6E7F2D",
"B$	c #5B6A39",
"C$	c #647E37",
"D$	c #5F7C36",
"E$	c #799E24",
"F$	c #98B30F",
"G$	c #5C7509",
"H$	c #234C04",
"I$	c #334100",
"J$	c #385649",
"K$	c #1D4C55",
"L$	c #194B55",
"M$	c #184956",
"N$	c #1A5361",
"O$	c #235557",
"P$	c #456003",
"Q$	c #5D812B",
"R$	c #457000",
"S$	c #2C4C00",
"T$	c #1E4648",
"U$	c #15515F",
"V$	c #155C6B",
"W$	c #436233",
"X$	c #4F5D36",
"Y$	c #9BA714",
"Z$	c #99A617",
"`$	c #6E7C2E",
" %	c #5B633C",
".%	c #494D3C",
"+%	c #5C6639",
"@%	c #6A9215",
"#%	c #54762D",
"$%	c #5D693C",
"%%	c #768F27",
"&%	c #A2B60B",
"*%	c #81AA07",
"=%	c #83A31A",
"-%	c #5C9601",
";%	c #678E0B",
">%	c #628014",
",%	c #496127",
"'%	c #4D5F2C",
")%	c #607223",
"!%	c #3B4B1B",
"~%	c #3F5C21",
"{%	c #4D6D16",
"]%	c #62861A",
"^%	c #5D8902",
"/%	c #416300",
"(%	c #305D00",
"_%	c #214630",
":%	c #144C57",
"<%	c #44473C",
"[%	c #4A4F3D",
"}%	c #718A2C",
"|%	c #95A618",
"1%	c #72832C",
"2%	c #5D6837",
"3%	c #46493D",
"4%	c #474A3E",
"5%	c #515640",
"6%	c #5A6C38",
"7%	c #627734",
"8%	c #718828",
"9%	c #749425",
"0%	c #607538",
"a%	c #6EA418",
"b%	c #789F24",
"c%	c #708F2E",
"d%	c #618034",
"e%	c #546F3C",
"f%	c #607E36",
"g%	c #6A8B29",
"h%	c #546A2F",
"i%	c #516F33",
"j%	c #55742E",
"k%	c #607E2A",
"l%	c #6A8730",
"m%	c #67861B",
"n%	c #4C7410",
"o%	c #294E13",
"p%	c #393A29",
"q%	c #4E5141",
"r%	c #608227",
"s%	c #6F9519",
"t%	c #73832C",
"u%	c #4E5041",
"v%	c #606A3B",
"w%	c #6F7D31",
"x%	c #7D9D21",
"y%	c #748D25",
"z%	c #608D17",
"A%	c #4F6834",
"B%	c #556C3D",
"C%	c #596B3B",
"D%	c #54663E",
"E%	c #647531",
"F%	c #5B6C3C",
"G%	c #72842D",
"H%	c #647B30",
"I%	c #576D3C",
"J%	c #5D7F37",
"K%	c #70882B",
"L%	c #637532",
"M%	c #5C6A3D",
"N%	c #7FA921",
"O%	c #6B8E24",
"P%	c #4B6530",
"Q%	c #486036",
"R%	c #677530",
"S%	c #5A7337",
"T%	c #7CAA0A",
"U%	c #749C1B",
"V%	c #66742F",
"W%	c #667332",
"X%	c #687A30",
"Y%	c #92A816",
"Z%	c #9EAA11",
"`%	c #556B3A",
" &	c #74A111",
".&	c #7AA119",
"+&	c #69782D",
"@&	c #697C2F",
"#&	c #4C553D",
"$&	c #4A4C3F",
"%&	c #525B41",
"&&	c #607539",
"*&	c #5B633E",
"=&	c #565C3F",
"-&	c #799226",
";&	c #63940A",
">&	c #5E7335",
",&	c #7EA220",
"'&	c #799C27",
")&	c #496535",
"!&	c #4B6637",
"~&	c #6B7A2C",
"{&	c #617639",
"]&	c #658E23",
"^&	c #4C5E36",
"/&	c #54613C",
"(&	c #6E822B",
"_&	c #7C9C21",
":&	c #677335",
"<&	c #54613F",
"[&	c #515D41",
"}&	c #58623E",
"|&	c #5C7037",
"1&	c #6F8529",
"2&	c #9DAD0F",
"3&	c #98A41D",
"4&	c #6F882E",
"5&	c #56613D",
"6&	c #7C9A22",
"7&	c #627033",
"8&	c #6D802B",
"9&	c #7BA219",
"0&	c #4D702F",
"a&	c #5F6C35",
"b&	c #48543B",
"c&	c #607434",
"d&	c #6C7A31",
"e&	c #607338",
"f&	c #6F7A35",
"g&	c #627437",
"h&	c #51583A",
"i&	c #58633C",
"j&	c #788F28",
"k&	c #799623",
"l&	c #667336",
"m&	c #4D5240",
"n&	c #667F26",
"o&	c #738928",
"p&	c #879E1E",
"q&	c #6B7634",
"r&	c #61802C",
"s&	c #709D15",
"t&	c #7A9F1C",
"u&	c #92A219",
"v&	c #9CAA13",
"w&	c #7F8E27",
"x&	c #70802C",
"y&	c #73862A",
"z&	c #657433",
"A&	c #4E5541",
"B&	c #6B7E2D",
"C&	c #4A742A",
"D&	c #46513B",
"E&	c #809727",
"F&	c #9DAC12",
"G&	c #89A01D",
"H&	c #6B7D35",
"I&	c #5E663B",
"J&	c #758F28",
"K&	c #7B9823",
"L&	c #606E38",
"M&	c #4D4F41",
"N&	c #587A28",
"O&	c #5F8F13",
"P&	c #667F2A",
"Q&	c #93A816",
"R&	c #9FAC10",
"S&	c #6F8725",
"T&	c #556A38",
"U&	c #58613D",
"V&	c #5F6B39",
"W&	c #6A7B2C",
"X&	c #90A718",
"Y&	c #839C1F",
"Z&	c #687630",
"`&	c #72842E",
" *	c #789228",
".*	c #575E3D",
"+*	c #4E5441",
"@*	c #6D7C32",
"#*	c #647432",
"$*	c #608B1E",
"%*	c #5A8027",
"&*	c #575E3F",
"**	c #95A817",
"=*	c #627339",
"-*	c #4C563E",
";*	c #47493D",
">*	c #677535",
",*	c #7A9525",
"'*	c #606E36",
")*	c #56643D",
"!*	c #637036",
"~*	c #525F40",
"{*	c #5B7631",
"]*	c #739B17",
"^*	c #7E9724",
"/*	c #6B7734",
"(*	c #5D7E30",
"_*	c #6E8F2D",
":*	c #677437",
"<*	c #657333",
"[*	c #667532",
"}*	c #5B693C",
"|*	c #4C6437",
"1*	c #6D8F1C",
"2*	c #4E583F",
"3*	c #73842B",
"4*	c #76862B",
"5*	c #59663C",
"6*	c #66752E",
"7*	c #707F2C",
"8*	c #567E29",
"9*	c #6B9B06",
"0*	c #859225",
"a*	c #9EAA10",
"b*	c #679805",
"c*	c #6E8D22",
"d*	c #647238",
"e*	c #555C3F",
"f*	c #494F3D",
"g*	c #505640",
"h*	c #515841",
"i*	c #9FAC11",
"j*	c #8F9C1F",
"  . + @ # $ % & * = - ; > > , , ' ) ! ~ { ] ) ^ / ( > > _ : < [ ",
"}   | 1 2 3 4 5 6 7 8 9 0 > a b ) ) c > d e f g h i > > j k l m ",
"n o p q r s t u v w x y z > ) b b A ~ > B C D E k F G H I > g J ",
"K L M N O P Q R S T U V W X Y Z , Y ` ~ g  .D ..+.@.#.$.%.&.*.=.",
"-.;.>.,.'.).!.~.{.].^./.(._.:.> <.[.C }.a |.> 1.2.+.3.4.5.6.7.8.",
"9.0.a.b.c.d.e.f.g.h.i.j.k.: > > l.m. .n.o.p.q.r.s.) _ t.u.v.w.w.",
"x.y.z.A.B.C.D.E.F.G.H.I.J.> K.L.M.N.' ' |.O.P.Q.) ) N.H R.' S.> ",
"T.U.  V.W.X.Y.Z.`. +.+++@+#+$+%+&+) ) ) l *+> =+-++.;+d >+,+=+#+",
"'+)+!+~+{+]+^+/+(+_+:+<+[+/ }+|+6.1+] 2+3+4+5+6+7+_ w.8.#+> > :.",
"8+9+0+a+b+c+d+e+f+g+h+i+j+k+l+m+n+o+e =.p+q+> > _ _ r+s+> > t+|.",
"u+v+w+x+y+z+A+B+C+D+E+F+G+H+I+J+K+L+M+N+:.=+> > > > P.l+O+O+^ P+",
"Q+R+S+T+U+V+W+X+Y+Z+`+ @.@+@@@#@$@L+L+M+=+' %@S.> :.q.%@+.+.+.&@",
"*@=@-@;@>@,@'@)@!@~@{@]@^@/@(@_@:@<@> :.[@w.}@|@1@2@L.3@4@@.@.5@",
"6@7@8@9@0@a@b@c@d@e@f@g@h@i@j@> _ : > > r+w.> :.k@l@m@m@n@o@o@H ",
"p@q@r@s@t@u@v@w@x@y@z@A@B@C@D@_ > > D ,+> > _ E@F@w.d G@R.%.H@I@",
"J@K@L@M@N@O@P@Q@R@S@T@U@V@W@X@Y@> :.Z@}+`@ #.#+#@###k { $#%#&#*#",
"=#-#;#>#,#'#)#!#~#{#]#^#/#(#_#:#<#[#}#|#1#K.2#3#4#K+> > > q.5#3#",
"=#6#7#8#9#0#a#b#c#d#e#f#g#h#i#j#k#g ^ N.l#m#n#o#q+p#> > > q#r#l@",
"s#t#u#v#w#S+x#y#z#A#B#C#D#E#F#l.> }@) }@d n@G#_ > n#H#I#q.J#q#> ",
"K#L#u#v#M#N#O#P#Q#R#S#T#U#V#W#X#Y#' ) Z#^ ^ b `#q.%#X I#> >  $m+",
".$+$L @$#$$$%$&$*$=$-$;$>$,$'$)$!$~$3+{$) ]$]$^$/$($_$:$<$[$}$|$",
"1$p o n 2$3$4$5$8+6$7$8$9$0$a$b$c$d$e$j@f$g$h$i$j$k$l$m$n$o$p$H#",
"q$r$s$t$u$v$w$x$y$z$A$B$C$D$E$F$G$H$I$J$K$L$M$N$O$P$Q$R$S$T$U$V$",
"u#W$X$Y$Z$`$}  %.%+%@%#%$%%%&%*%=%-%;%>%,%'%)%!%~%{%]%^%/%(%_%:%",
"<%<%[%}%|%1%2%3%4%5%6%7%8%9%n 0%a%b%c%d%e%f%g%h%i%j%k%l%m%n%o%p%",
"<%v#q%r%s%t%u%v#v%w%s#x%y%z%A%+$B%C%D%E%F%G%H%I%J%K%L%M%N%O%P%Q%",
" %R%S%T%U%V%W%X%Y%Z%w%x$`% &.&+&@&#&$&%&&&9#*&=&8%-&;&>&,&'&)&!&",
"~&t#{&]&^&/&(&_&Z%:&<&[&}&|&1&-&2&3&4&5&2$6&0+7&8&9&0&a&6&K#b&c&",
"d&e&f&g&h&i&j&k&l&m&n&o&p&q&r&s&t&u&v&-@w&x&>#y&z&A&4%x$B&C&D&2%",
"E&F&G&H&I&J&K&L&M&N&O&P&Q&R&S&T&U&V&W&w&X&Y&Z&`& *.*+*@*#*$*%*&*",
"**=*-*;*>*,*'*)*!*~&~*p {*]*^*/*(*T%_*:*s#x%<*}&[*}*U&>#1$|*1*Z%",
"=*v@v#2*3*4*5*6*7*l&p +$8*9*0*a*b*c*-#p d*s#J&e*f*g*U&>#h*0+i*j*"};
