/* XPM */
static char * wallwater_corner_bottomleft_1_xpm[] = {
"32 32 743 2",
"  	c #67723A",
". 	c #79902F",
"+ 	c #647235",
"@ 	c #6C7A36",
"# 	c #738433",
"$ 	c #5E7B3D",
"% 	c #6A8636",
"& 	c #52601D",
"* 	c #337A84",
"= 	c #195A70",
"- 	c #184C5B",
"; 	c #1B5361",
"> 	c #216070",
", 	c #237284",
"' 	c #227487",
") 	c #22758A",
"! 	c #227993",
"~ 	c #217C98",
"{ 	c #227B97",
"] 	c #23768B",
"^ 	c #207C9C",
"/ 	c #207C9B",
"( 	c #217C99",
"_ 	c #227A94",
": 	c #227995",
"< 	c #227589",
"[ 	c #226F82",
"} 	c #236C80",
"| 	c #748233",
"1 	c #5D6B3B",
"2 	c #707E32",
"3 	c #677A36",
"4 	c #658237",
"5 	c #607C28",
"6 	c #293D08",
"7 	c #255E68",
"8 	c #26677C",
"9 	c #174A5A",
"0 	c #1C5563",
"a 	c #1E5F71",
"b 	c #227387",
"c 	c #227890",
"d 	c #217B97",
"e 	c #217C97",
"f 	c #207D9D",
"g 	c #21768E",
"h 	c #236E81",
"i 	c #236879",
"j 	c #226F81",
"k 	c #206878",
"l 	c #227388",
"m 	c #227C96",
"n 	c #6F7D34",
"o 	c #545A3F",
"p 	c #515643",
"q 	c #5F6E39",
"r 	c #5D763C",
"s 	c #6B8A2E",
"t 	c #3C5C1A",
"u 	c #2B4300",
"v 	c #3A7D82",
"w 	c #255A6D",
"x 	c #185266",
"y 	c #1C5465",
"z 	c #1E5B6C",
"A 	c #217A94",
"B 	c #217C9A",
"C 	c #217A96",
"D 	c #21687B",
"E 	c #226574",
"F 	c #236B7F",
"G 	c #227489",
"H 	c #216372",
"I 	c #237588",
"J 	c #636F37",
"K 	c #474B3F",
"L 	c #4A4E3F",
"M 	c #638931",
"N 	c #547D30",
"O 	c #53701D",
"P 	c #292E0B",
"Q 	c #1C494E",
"R 	c #45899D",
"S 	c #255464",
"T 	c #19576A",
"U 	c #1F5D6D",
"V 	c #206A7F",
"W 	c #226979",
"X 	c #216474",
"Y 	c #236B7E",
"Z 	c #22768B",
"` 	c #216676",
" .	c #216F80",
"..	c #236A7A",
"+.	c #207B9A",
"@.	c #1F7DA1",
"#.	c #217996",
"$.	c #226B7B",
"%.	c #216576",
"&.	c #236B7C",
"*.	c #545842",
"=.	c #565D3C",
"-.	c #576838",
";.	c #7A9327",
">.	c #506E1C",
",.	c #497202",
"'.	c #324F45",
").	c #498E9F",
"!.	c #3B6F80",
"~.	c #1F4E5E",
"{.	c #1B5869",
"].	c #206D80",
"^.	c #227184",
"/.	c #226A7A",
"(.	c #226472",
"_.	c #236D7F",
":.	c #205E6B",
"<.	c #1F5D6A",
"[.	c #216F84",
"}.	c #227A93",
"|.	c #227386",
"1.	c #227895",
"2.	c #207D9F",
"3.	c #207B9C",
"4.	c #22728A",
"5.	c #205F6C",
"6.	c #7C8834",
"7.	c #9EA825",
"8.	c #76942D",
"9.	c #678931",
"0.	c #5D7618",
"a.	c #607C00",
"b.	c #497262",
"c.	c #3E747F",
"d.	c #386878",
"e.	c #174857",
"f.	c #1A576A",
"g.	c #1F728D",
"h.	c #227793",
"i.	c #236F82",
"j.	c #227285",
"k.	c #216879",
"l.	c #21606E",
"m.	c #226C7D",
"n.	c #216F81",
"o.	c #236C7F",
"p.	c #236F83",
"q.	c #236D7E",
"r.	c #23758A",
"s.	c #226C7E",
"t.	c #226372",
"u.	c #22778D",
"v.	c #5C6440",
"w.	c #8D9631",
"x.	c #909B2E",
"y.	c #698335",
"z.	c #6D8825",
"A.	c #6D8404",
"B.	c #4D745D",
"C.	c #477E85",
"D.	c #407684",
"E.	c #285968",
"F.	c #1A5467",
"G.	c #1F7391",
"H.	c #246979",
"I.	c #216575",
"J.	c #22778F",
"K.	c #236979",
"L.	c #236F85",
"M.	c #236F81",
"N.	c #535C42",
"O.	c #555F42",
"P.	c #637E39",
"Q.	c #658337",
"R.	c #5B7614",
"S.	c #446632",
"T.	c #6CAC9E",
"U.	c #437B8A",
"V.	c #265A69",
"W.	c #195161",
"X.	c #22697B",
"Y.	c #226373",
"Z.	c #226777",
"`.	c #23778C",
" +	c #23788D",
".+	c #227588",
"++	c #217A97",
"@+	c #217C9B",
"#+	c #246B7C",
"$+	c #22768C",
"%+	c #83912F",
"&+	c #62713B",
"*+	c #545A42",
"=+	c #5D7F3B",
"-+	c #5F8738",
";+	c #69862B",
">+	c #516E22",
",+	c #639474",
"'+	c #5B9CA5",
")+	c #265767",
"!+	c #1B5363",
"~+	c #226A7D",
"{+	c #23788F",
"]+	c #216371",
"^+	c #216271",
"/+	c #217894",
"(+	c #236B81",
"_+	c #23697A",
":+	c #206472",
"<+	c #236A7C",
"[+	c #236D80",
"}+	c #236E7F",
"|+	c #89A22A",
"1+	c #768931",
"2+	c #616D39",
"3+	c #586C3D",
"4+	c #7EB220",
"5+	c #71A320",
"6+	c #95A420",
"7+	c #676D1E",
"8+	c #72AA9E",
"9+	c #2D5E6B",
"0+	c #1D5C6C",
"a+	c #227284",
"b+	c #216573",
"c+	c #22768D",
"d+	c #246C7F",
"e+	c #236F80",
"f+	c #226D7E",
"g+	c #22768A",
"h+	c #53593F",
"i+	c #607133",
"j+	c #667A3A",
"k+	c #626E3C",
"l+	c #759332",
"m+	c #83AA2E",
"n+	c #9AAE29",
"o+	c #536219",
"p+	c #4D7A74",
"q+	c #306975",
"r+	c #1A5666",
"s+	c #21758E",
"t+	c #226674",
"u+	c #236877",
"v+	c #236675",
"w+	c #215E6C",
"x+	c #22778C",
"y+	c #217890",
"z+	c #434E3B",
"A+	c #6C912B",
"B+	c #719721",
"C+	c #7A942E",
"D+	c #778D32",
"E+	c #709037",
"F+	c #628B2F",
"G+	c #6F8D24",
"H+	c #355549",
"I+	c #23545E",
"J+	c #164857",
"K+	c #20728A",
"L+	c #1F7D9F",
"M+	c #1F7DA0",
"N+	c #494C3E",
"O+	c #7C8734",
"P+	c #A6B121",
"Q+	c #7C8C30",
"R+	c #50762E",
"S+	c #56743B",
"T+	c #578732",
"U+	c #7EAE24",
"V+	c #6B8221",
"W+	c #234949",
"X+	c #154353",
"Y+	c #1C6780",
"Z+	c #227B95",
"`+	c #22768E",
" @	c #226676",
".@	c #236978",
"+@	c #236777",
"@@	c #207B9B",
"#@	c #227590",
"$@	c #246778",
"%@	c #237286",
"&@	c #207C9F",
"*@	c #657135",
"=@	c #869B2C",
"-@	c #859B2B",
";@	c #516F32",
">@	c #78A31E",
",@	c #658030",
"'@	c #617C3E",
")@	c #5C7E3A",
"!@	c #6A8F1D",
"~@	c #365C31",
"{@	c #273B31",
"]@	c #144557",
"^@	c #1E697E",
"/@	c #227286",
"(@	c #227082",
"_@	c #216777",
":@	c #237183",
"<@	c #227183",
"[@	c #236E83",
"}@	c #236878",
"|@	c #7B932F",
"1@	c #6A7735",
"2@	c #5A6340",
"3@	c #5E673E",
"4@	c #7FA425",
"5@	c #687E3A",
"6@	c #536042",
"7@	c #61773D",
"8@	c #869934",
"9@	c #688725",
"0@	c #577137",
"a@	c #294446",
"b@	c #154554",
"c@	c #1F687C",
"d@	c #236E82",
"e@	c #216473",
"f@	c #227084",
"g@	c #687636",
"h@	c #586441",
"i@	c #5D6640",
"j@	c #667336",
"k@	c #626F3C",
"l@	c #566241",
"m@	c #5A6540",
"n@	c #808B34",
"o@	c #84AC2B",
"p@	c #6E8E30",
"q@	c #5C7A33",
"r@	c #475839",
"s@	c #133B48",
"t@	c #19596A",
"u@	c #206F82",
"v@	c #237083",
"w@	c #227A96",
"x@	c #227A95",
"y@	c #22748A",
"z@	c #216472",
"A@	c #217C9C",
"B@	c #22697C",
"C@	c #227B92",
"D@	c #4E5141",
"E@	c #515A42",
"F@	c #656F3C",
"G@	c #6B7932",
"H@	c #6F8230",
"I@	c #6A7B38",
"J@	c #677A3B",
"K@	c #749724",
"L@	c #78A520",
"M@	c #5C8339",
"N@	c #567139",
"O@	c #48582E",
"P@	c #29312E",
"Q@	c #164E60",
"R@	c #1E6678",
"S@	c #236C7D",
"T@	c #236C7E",
"U@	c #206473",
"V@	c #226675",
"W@	c #246878",
"X@	c #236575",
"Y@	c #205F6D",
"Z@	c #20606D",
"`@	c #206270",
" #	c #494C3F",
".#	c #585F41",
"+#	c #667435",
"@#	c #7A9030",
"##	c #7F9E2C",
"$#	c #9FAD23",
"%#	c #89A428",
"&#	c #5C832E",
"*#	c #93AD2D",
"=#	c #9AAD2B",
"-#	c #647D17",
";#	c #324627",
">#	c #13404E",
",#	c #1B5667",
"'#	c #20758D",
")#	c #237184",
"!#	c #236876",
"~#	c #227182",
"{#	c #226F80",
"]#	c #226E7F",
"^#	c #788A31",
"/#	c #4E5341",
"(#	c #4B4E40",
"_#	c #616E3C",
":#	c #709721",
"<#	c #739223",
"[#	c #9DA726",
"}#	c #9EA925",
"|#	c #A1B725",
"1#	c #9EB624",
"2#	c #8D9F24",
"3#	c #505E01",
"4#	c #223D37",
"5#	c #154757",
"6#	c #1F738D",
"7#	c #226576",
"8#	c #6A7939",
"9#	c #697732",
"0#	c #62743C",
"a#	c #688E2C",
"b#	c #5E6F36",
"c#	c #5B693F",
"d#	c #5B6E3C",
"e#	c #6E9D26",
"f#	c #76A927",
"g#	c #6F9429",
"h#	c #476118",
"i#	c #222D12",
"j#	c #2A3E32",
"k#	c #207793",
"l#	c #227994",
"m#	c #227B96",
"n#	c #226170",
"o#	c #216373",
"p#	c #4A4D40",
"q#	c #515443",
"r#	c #484B3F",
"s#	c #576340",
"t#	c #505D3F",
"u#	c #708531",
"v#	c #A1AF23",
"w#	c #A9B220",
"x#	c #749C25",
"y#	c #83B223",
"z#	c #899C2B",
"A#	c #64772C",
"B#	c #648523",
"C#	c #5B7F19",
"D#	c #305444",
"E#	c #1D6277",
"F#	c #1F738E",
"G#	c #236A7B",
"H#	c #217184",
"I#	c #1F6D7F",
"J#	c #1F6F82",
"K#	c #1F6D80",
"L#	c #206B7C",
"M#	c #22758E",
"N#	c #237990",
"O#	c #5F6A3A",
"P#	c #5E683F",
"Q#	c #67763B",
"R#	c #728330",
"S#	c #83902F",
"T#	c #7B9B29",
"U#	c #60862B",
"V#	c #6B8C2E",
"W#	c #738E32",
"X#	c #72952E",
"Y#	c #5B8B2D",
"Z#	c #697F2B",
"`#	c #205A56",
" $	c #1D586A",
".$	c #1D677A",
"+$	c #1D6A81",
"@$	c #1E6F88",
"#$	c #22788F",
"$$	c #20687B",
"%$	c #1C586A",
"&$	c #195E73",
"*$	c #245055",
"=$	c #304538",
"-$	c #2D4439",
";$	c #265E65",
">$	c #1C5B6A",
",$	c #5F6C3A",
"'$	c #47543C",
")$	c #496B33",
"!$	c #80982C",
"~$	c #7D8834",
"{$	c #606A3D",
"]$	c #66703C",
"^$	c #667237",
"/$	c #647036",
"($	c #758D2F",
"_$	c #6F7F33",
":$	c #5C6A3C",
"<$	c #667D3B",
"[$	c #617C3A",
"}$	c #7C9D2F",
"|$	c #9AB225",
"1$	c #5E7415",
"2$	c #264B08",
"3$	c #344102",
"4$	c #395449",
"5$	c #1E4855",
"6$	c #1A4756",
"7$	c #184556",
"8$	c #1D4656",
"9$	c #315856",
"0$	c #475F03",
"a$	c #5F8031",
"b$	c #486F06",
"c$	c #2F4B00",
"d$	c #214648",
"e$	c #1C525F",
"f$	c #1F5E6C",
"g$	c #456236",
"h$	c #505D39",
"i$	c #9CA625",
"j$	c #9AA527",
"k$	c #6F7C34",
"l$	c #748232",
"m$	c #5B633E",
"n$	c #494D3E",
"o$	c #5D663C",
"p$	c #6C9122",
"q$	c #567532",
"r$	c #5E693F",
"s$	c #788F30",
"t$	c #A3B524",
"u$	c #84A91F",
"v$	c #85A228",
"w$	c #609513",
"x$	c #698D1B",
"y$	c #64801D",
"z$	c #4A612B",
"A$	c #4E5F30",
"B$	c #607129",
"C$	c #3C4C1F",
"D$	c #415B25",
"E$	c #4F6C18",
"F$	c #608814",
"G$	c #436208",
"H$	c #345C00",
"I$	c #23432A",
"J$	c #1A525F",
"K$	c #44473D",
"L$	c #4A4F3E",
"M$	c #738933",
"N$	c #96A528",
"O$	c #748332",
"P$	c #5E683A",
"Q$	c #46493E",
"R$	c #474A3F",
"S$	c #515641",
"T$	c #5B6C3C",
"U$	c #647739",
"V$	c #738830",
"W$	c #76932E",
"X$	c #61753C",
"Y$	c #72A326",
"Z$	c #7B9E2F",
"`$	c #728E35",
" %	c #637F39",
".%	c #566F3F",
"+%	c #627D3B",
"@%	c #6C8A31",
"#%	c #556A33",
"$%	c #536E37",
"%%	c #577333",
"&%	c #627D30",
"*%	c #6B8636",
"=%	c #698525",
"-%	c #4F7315",
";%	c #2C4E17",
">%	c #393A2A",
",%	c #4E5142",
"'%	c #62812D",
")%	c #719425",
"!%	c #4E5042",
"~%	c #616A3E",
"{%	c #707D37",
"]%	c #788932",
"^%	c #7F9C2C",
"/%	c #768D2E",
"(%	c #638C22",
"_%	c #506737",
":%	c #566B40",
"<%	c #5A6A3D",
"[%	c #556541",
"}%	c #657535",
"|%	c #5C6C3F",
"1%	c #657B35",
"2%	c #586D3F",
"3%	c #5F7E3C",
"4%	c #728733",
"5%	c #647537",
"6%	c #5D6A40",
"7%	c #81A82E",
"8%	c #6D8D2D",
"9%	c #4D6534",
"0%	c #4A6038",
"a%	c #5C633E",
"b%	c #687535",
"c%	c #5B733B",
"d%	c #7FA920",
"e%	c #779B27",
"f%	c #677433",
"g%	c #677336",
"h%	c #697935",
"i%	c #94A727",
"j%	c #9FA924",
"k%	c #576A3D",
"l%	c #77A022",
"m%	c #7DA027",
"n%	c #6A7832",
"o%	c #6A7C35",
"p%	c #4D553F",
"q%	c #4A4C40",
"r%	c #525B43",
"s%	c #61743D",
"t%	c #7B9130",
"u%	c #5B6340",
"v%	c #565C40",
"w%	c #7B922F",
"x%	c #66931B",
"y%	c #5F7239",
"z%	c #80A12C",
"A%	c #7B9B31",
"B%	c #4B6538",
"C%	c #4D663A",
"D%	c #6C7A32",
"E%	c #62763C",
"F%	c #688D2C",
"G%	c #4D5E38",
"H%	c #55613E",
"I%	c #708131",
"J%	c #7E9B2C",
"K%	c #687339",
"L%	c #556142",
"M%	c #525D42",
"N%	c #596241",
"O%	c #5E703B",
"P%	c #708530",
"Q%	c #7A922F",
"R%	c #9EAC24",
"S%	c #99A32A",
"T%	c #718734",
"U%	c #576140",
"V%	c #7E992D",
"W%	c #637037",
"X%	c #6E7F31",
"Y%	c #7EA127",
"Z%	c #4F7033",
"`%	c #606C39",
" &	c #697939",
".&	c #49543D",
"+&	c #617438",
"@&	c #6D7A36",
"#&	c #61733B",
"$&	c #707A39",
"%&	c #63743A",
"&&	c #52583C",
"*&	c #58633F",
"=&	c #7A8E30",
"-&	c #7B952E",
";&	c #67733A",
">&	c #4E5242",
",&	c #687F2D",
"'&	c #758830",
")&	c #889D2A",
"!&	c #6C7639",
"~&	c #637F32",
"{&	c #739C24",
"]&	c #7D9E29",
"^&	c #94A228",
"/&	c #9DA925",
"(&	c #808E2F",
"_&	c #718032",
":&	c #748631",
"<&	c #667437",
"[&	c #4F5542",
"}&	c #6C7E33",
"|&	c #4D732F",
"1&	c #46503D",
"2&	c #819630",
"3&	c #9EAB25",
"4&	c #8BA02A",
"5&	c #6C7D3A",
"6&	c #5E663D",
"7&	c #778E30",
"8&	c #7D972E",
"9&	c #4D4F42",
"0&	c #5A792D",
"a&	c #628E20",
"b&	c #687F30",
"c&	c #A0AB24",
"d&	c #70872D",
"e&	c #566A3B",
"f&	c #59613F",
"g&	c #606B3D",
"h&	c #6C7B32",
"i&	c #91A628",
"j&	c #697635",
"k&	c #738434",
"l&	c #799130",
"m&	c #575E3F",
"n&	c #4F5442",
"o&	c #6E7C37",
"p&	c #657436",
"q&	c #628A27",
"r&	c #5C7F2D",
"s&	c #585E41",
"t&	c #96A727",
"u&	c #64733D",
"v&	c #4D5640",
"w&	c #47493E",
"x&	c #687539",
"y&	c #7C942F",
"z&	c #616E39",
"A&	c #57643F",
"B&	c #64703A",
"C&	c #535F42",
"D&	c #5D7635",
"E&	c #759A25",
"F&	c #7F962E",
"G&	c #6C7739",
"H&	c #5F7E34",
"I&	c #708E34",
"J&	c #67743B",
"K&	c #667337",
"L&	c #677537",
"M&	c #5C693F",
"N&	c #58613F",
"O&	c #4E633A",
"P&	c #6F8E26",
"Q&	c #4F5841",
"R&	c #748432",
"S&	c #778633",
"T&	c #5A663F",
"U&	c #677533",
"V&	c #717F32",
"W&	c #587D2F",
"X&	c #6E9A1B",
"Y&	c #86922F",
"Z&	c #6A971A",
"`&	c #708D2A",
" *	c #525A43",
".*	c #65723C",
"+*	c #778F30",
"@*	c #494F3E",
"#*	c #505641",
"$*	c #515843",
"%*	c #909B2B",
"  . + @ # $ % & * = - ; > , ' ' ) ! ~ { ] ^ / ( ~ _ : < ' ' [ } ",
"|   1 2 3 4 5 6 7 8 9 0 a b ' c d e ~ f ' ) g e _ h i j ' k l m ",
"n o p q r s t u v w x y z [ ' A ~ _ B C ' ' D E F G B B l H ' I ",
"J K L M N O P Q R S T U V W X Y Z ' G ` ) !  ...h +.@.@.#.$.%.&.",
"*.=.-.;.>.,.'.).!.~.{.].^./.(.&.' _.:.<.[.! }.' |.1.2.3.4.5.5.X ",
"6.7.8.9.0.a.b.c.d.e.f.g.h.l i.j.' k.l.m.n.o.p.' q.r.~ Z s.t.u.Z ",
"v.w.x.y.z.A.B.C.D.E.F.G.2.( ' &.H.I.J.{ ~ J.j K.L.~ ~ { l M._ { ",
"N.O.  P.Q.R.S.T.U.V.W.X.Z L.j.Y.Z.`.~ ~ ~ ~  +|..+++2.@+! #+h $+",
"%+&+*+=+-+;+>+,+'+)+!+~+Z _ {+]+^+/+/ ( d (+_+:+q.|.|.<+[+' ' }+",
"|+1+2+3+4+5+6+7+8+9+0+< ~ ~ A a+b+j.g c+d+e+' ' |.|.j f+' ' ] g+",
"h+i+j+k+l+m+n+o+p+q+r+s+~ ~ B G t+u+v+w+}+) ' ' ' ' #+}.x+x+~ y+",
"z+A+B+C+D+E+F+G+H+I+J+K+~ ~ d Z.X u+u+v+) d A ! ' }+a+A 2.2.L+M+",
"N+O+P+Q+R+S+T+U+V+W+X+Y+C Z+`+ @.@a+a++@a+c @@@@#@$@%@@@M+@.&@h.",
"*@=@-@;@>@,@'@)@!@~@{@]@^@/@' ' i.j.' (@a+' a+ @_@:@<@[@c+g l }@",
"|@1@2@3@4@5@6@7@8@9@0@a@b@c@|.' ' #+d@.+' ' m.e@f@g+$+Z ..l.e@K.",
"g@h@i@j@k@l@m@n@o@p@q@r@s@t@u@' a+.@v@w@x@y@5.z@}@l A@( }@B@C@C ",
"D@E@F@G@H@I@J@K@L@M@N@O@P@Q@R@S@T@U@V@W@X@Y@Z@t+' ' ' a+`@Y@<@J.",
"D@ #.#+#@###$#%#&#*#=#-#;#>#,#'#~ _ )#!#..~#{#W@' ' '  @5.]#<@q.",
"^#k@/#(#_#:#<#[#}#|#1#2#3#4#5#6#{ x@Z L.M.|.' .._+(@a+7# @' ' [+",
"8#9#/#(#0#a#b#c#d#e#f#g#h#i#j#{.k#l#~ ~ m#[@a+n#o#(@' ' H.a+! }.",
"p#q#r#s#t#u#v#w#Q+x#y#z#A#B#C#D#E#F#d d ~ ~ |.G#H#I#J#K#L#M#~ N#",
"O#p o n P#Q#R#S#|+T#U#V#W#X#Y#Z#`# $.$+$@$#$$$%$&$*$=$-$;$>$~+n#",
",$'$)$!$~${$]$^$/$($_$:$<$[$}$|$1$2$3$4$5$6$7$8$9$0$a$b$c$d$e$f$",
"/#g$h$i$j$k$l$m$n$o$p$q$r$s$t$u$v$w$x$y$z$A$B$C$D$E$B#F$G$H$I$J$",
"K$K$L$M$N$O$P$Q$R$S$T$U$V$W$n X$Y$Z$`$ %.%+%@%#%$%%%&%*%=%-%;%>%",
"K$(#,%'%)%O$!%(#~%{%]%^%/%(%_%q#:%<%[%}%|%# 1%2%3%4%5%6%7%8%9%0%",
"a%b%c%d%e%f%g%h%i%j%{%^$k%l%m%n%o%p%q%r%s%t%u%v%V$w%x%y%z%A%B%C%",
"D%k@E%F%G%H%I%J%j%K%L%M%N%O%P%Q%R%S%T%U%P#V%2+W%X%Y%Z%`%V% &.&+&",
"@&#&$&%&&&*&=&-&;&>&,&'&)&!&~&{&]&^&/&P+(&_&G@:&<&[&R$^$}&|&1&P$",
"2&3&4&5&6&7&8&_#9&0&a&b&i%c&d&e&f&g&h&(&i&-@j&k&l&m&n&o&p&q&r&s&",
"t&u&v&w&x&y&z&A&B&D%C&p D&E&F&G&H&d%I&J&]%^%K&N%L&M&N&G@O#O&P&j%",
"u&6@(#Q&R&S&T&U&V&;&p q#W&X&Y&j%Z&`& *p .*]%+*v%@*#*N&G@$*2+c&%*"};
