/* XPM */
static char * wallwater_border_bottom_3_xpm[] = {
"32 32 590 2",
"  	c #0F7C9A",
". 	c #0D7D9B",
"+ 	c #117B96",
"@ 	c #127993",
"# 	c #097DA1",
"$ 	c #0B7D9E",
"% 	c #0E7D9B",
"& 	c #107A97",
"* 	c #127895",
"= 	c #147589",
"- 	c #147488",
"; 	c #176D81",
"> 	c #186E82",
", 	c #177083",
"' 	c #196A7C",
") 	c #15758B",
"! 	c #127991",
"~ 	c #157286",
"{ 	c #117893",
"] 	c #127892",
"^ 	c #166F83",
"/ 	c #186372",
"( 	c #1A6C7D",
"_ 	c #14768A",
": 	c #0B7C9C",
"< 	c #13778E",
"[ 	c #117791",
"} 	c #0D7E9D",
"| 	c #127891",
"1 	c #186C7F",
"2 	c #196475",
"3 	c #166879",
"4 	c #0F7D99",
"5 	c #117896",
"6 	c #176E82",
"7 	c #156F84",
"8 	c #17606F",
"9 	c #196576",
"0 	c #14768F",
"a 	c #176473",
"b 	c #186777",
"c 	c #157285",
"d 	c #117B97",
"e 	c #0F7C98",
"f 	c #0A7DA0",
"g 	c #147387",
"h 	c #166272",
"i 	c #1A6A7B",
"j 	c #176E83",
"k 	c #0D7D9D",
"l 	c #0F7B99",
"m 	c #186F82",
"n 	c #176677",
"o 	c #0B7DA0",
"p 	c #157083",
"q 	c #175E6C",
"r 	c #196372",
"s 	c #186778",
"t 	c #196A7A",
"u 	c #15748A",
"v 	c #127990",
"w 	c #185E6D",
"x 	c #16697D",
"y 	c #167386",
"z 	c #177186",
"A 	c #15697A",
"B 	c #157082",
"C 	c #15758A",
"D 	c #077EA2",
"E 	c #057EA4",
"F 	c #077EA3",
"G 	c #13778F",
"H 	c #196878",
"I 	c #176A7B",
"J 	c #186F83",
"K 	c #12778F",
"L 	c #1A6B7C",
"M 	c #166D7F",
"N 	c #167285",
"O 	c #18687A",
"P 	c #146D82",
"Q 	c #186576",
"R 	c #14768B",
"S 	c #19687A",
"T 	c #13758F",
"U 	c #13778D",
"V 	c #157387",
"W 	c #0C7C9E",
"X 	c #0C7B9B",
"Y 	c #186B7F",
"Z 	c #165E6C",
"` 	c #176373",
" .	c #196677",
"..	c #196B7E",
"+.	c #107B97",
"@.	c #117995",
"#.	c #0F7A98",
"$.	c #137894",
"%.	c #196776",
"&.	c #186A7A",
"*.	c #186F81",
"=.	c #186374",
"-.	c #196474",
";.	c #157185",
">.	c #186C80",
",.	c #157388",
"'.	c #177084",
").	c #127992",
"!.	c #186474",
"~.	c #186B7D",
"{.	c #127A94",
"].	c #157488",
"^.	c #1A6373",
"/.	c #107998",
"(.	c #107996",
"_.	c #156A7B",
":.	c #186878",
"<.	c #196C7E",
"[.	c #127894",
"}.	c #117A96",
"|.	c #087DA1",
"1.	c #0B7D9D",
"2.	c #0C7D9E",
"3.	c #167084",
"4.	c #196E80",
"5.	c #087EA2",
"6.	c #1A697A",
"7.	c #1A6B7D",
"8.	c #117C95",
"9.	c #157589",
"0.	c #13768D",
"a.	c #0E7C9D",
"b.	c #1A697B",
"c.	c #14748A",
"d.	c #067EA3",
"e.	c #117993",
"f.	c #166677",
"g.	c #176676",
"h.	c #177187",
"i.	c #167086",
"j.	c #196A7D",
"k.	c #107997",
"l.	c #0C7D9C",
"m.	c #0E7C9A",
"n.	c #186C83",
"o.	c #186A7C",
"p.	c #156574",
"q.	c #186E80",
"r.	c #196170",
"s.	c #137793",
"t.	c #147287",
"u.	c #186574",
"v.	c #176E80",
"w.	c #176C80",
"x.	c #147991",
"y.	c #186675",
"z.	c #147388",
"A.	c #196D81",
"B.	c #177082",
"C.	c #167083",
"D.	c #14778D",
"E.	c #18606F",
"F.	c #1A6979",
"G.	c #1A6777",
"H.	c #186C7D",
"I.	c #17697A",
"J.	c #14788C",
"K.	c #107B96",
"L.	c #157386",
"M.	c #186776",
"N.	c #195F6E",
"O.	c #13788E",
"P.	c #13768C",
"Q.	c #12778E",
"R.	c #157184",
"S.	c #147389",
"T.	c #14758A",
"U.	c #117994",
"V.	c #0C7D9D",
"W.	c #0F7B97",
"X.	c #107A95",
"Y.	c #0D7C9A",
"Z.	c #186879",
"`.	c #186676",
" +	c #196C7D",
".+	c #196A7B",
"++	c #0F7B98",
"@+	c #0A7C9E",
"#+	c #0B7C9D",
"$+	c #176D84",
"%+	c #147690",
"&+	c #097C9F",
"*+	c #14768C",
"=+	c #107A98",
"-+	c #107A96",
";+	c #156B7D",
">+	c #186B7C",
",+	c #14788E",
"'+	c #176575",
")+	c #166F81",
"!+	c #167087",
"~+	c #117790",
"{+	c #196879",
"]+	c #156F82",
"^+	c #167185",
"/+	c #15778D",
"(+	c #176474",
"_+	c #17697B",
":+	c #166575",
"<+	c #196D7F",
"[+	c #0F7A99",
"}+	c #127B94",
"|+	c #156E83",
"1+	c #165F6C",
"2+	c #186B7E",
"3+	c #196272",
"4+	c #157187",
"5+	c #0F7D98",
"6+	c #1B6A7B",
"7+	c #186D7F",
"8+	c #186D81",
"9+	c #156575",
"0+	c #196777",
"a+	c #1A6677",
"b+	c #17616F",
"c+	c #176372",
"d+	c #166473",
"e+	c #186373",
"f+	c #0D7D9C",
"g+	c #167286",
"h+	c #196978",
"i+	c #196B7C",
"j+	c #157284",
"k+	c #1B697A",
"l+	c #16606E",
"m+	c #19697B",
"n+	c #166576",
"o+	c #0C7E9D",
"p+	c #147790",
"q+	c #176F81",
"r+	c #17606E",
"s+	c #187083",
"t+	c #167184",
"u+	c #186678",
"v+	c #12788F",
"w+	c #106F86",
"x+	c #0E7B98",
"y+	c #176F85",
"z+	c #176475",
"A+	c #17758A",
"B+	c #137A90",
"C+	c #116278",
"D+	c #0E738F",
"E+	c #0D7C9B",
"F+	c #0C7D9B",
"G+	c #0E7C9B",
"H+	c #127286",
"I+	c #166475",
"J+	c #116C80",
"K+	c #116E81",
"L+	c #126F82",
"M+	c #137387",
"N+	c #137791",
"O+	c #0D7E9C",
"P+	c #137A92",
"Q+	c #15758C",
"R+	c #0E7D9A",
"S+	c #17778B",
"T+	c #17687B",
"U+	c #195B57",
"V+	c #145768",
"W+	c #126073",
"X+	c #11667B",
"Y+	c #0F6E85",
"Z+	c #107C99",
"`+	c #0B6A85",
" @	c #0E6D86",
".@	c #126172",
"+@	c #21433F",
"@@	c #303F2C",
"#@	c #2B4337",
"$@	c #1F646C",
"%@	c #116475",
"&@	c #155D6C",
"*@	c #196373",
"=@	c #126E85",
"-@	c #165A6B",
";@	c #195968",
">@	c #0E627A",
",@	c #5C7509",
"'@	c #234C04",
")@	c #334100",
"!@	c #385649",
"~@	c #1D4C55",
"{@	c #194B55",
"]@	c #184956",
"^@	c #1A5361",
"/@	c #235557",
"(@	c #456003",
"_@	c #5D812B",
":@	c #457000",
"<@	c #2C4C00",
"[@	c #1E4648",
"}@	c #15515F",
"|@	c #155C6B",
"1@	c #176170",
"2@	c #127184",
"3@	c #106577",
"4@	c #155E6E",
"5@	c #125262",
"6@	c #194F5A",
"7@	c #1A4C56",
"8@	c #19535F",
"9@	c #175D6D",
"0@	c #155364",
"a@	c #2D6053",
"b@	c #47781D",
"c@	c #83A31A",
"d@	c #5C9601",
"e@	c #678E0B",
"f@	c #628014",
"g@	c #496127",
"h@	c #4D5F2C",
"i@	c #607223",
"j@	c #3B4B1B",
"k@	c #3F5C21",
"l@	c #4D6D16",
"m@	c #62861A",
"n@	c #5D8902",
"o@	c #416300",
"p@	c #305D00",
"q@	c #214630",
"r@	c #144C57",
"s@	c #155260",
"t@	c #156B7E",
"u@	c #126F84",
"v@	c #116273",
"w@	c #1A5B67",
"x@	c #2A453A",
"y@	c #2A453C",
"z@	c #1A5E6D",
"A@	c #236A5F",
"B@	c #53782B",
"C@	c #6C9C04",
"D@	c #658C0A",
"E@	c #304145",
"F@	c #355A4A",
"G@	c #4E8523",
"H@	c #90B308",
"I@	c #6EA418",
"J@	c #789F24",
"K@	c #708F2E",
"L@	c #618034",
"M@	c #546F3C",
"N@	c #607E36",
"O@	c #6A8B29",
"P@	c #546A2F",
"Q@	c #516F33",
"R@	c #55742E",
"S@	c #607E2A",
"T@	c #6A8730",
"U@	c #67861B",
"V@	c #4C7410",
"W@	c #294E13",
"X@	c #393A29",
"Y@	c #243D31",
"Z@	c #1D5055",
"`@	c #225955",
" #	c #2C6E52",
".#	c #4D7400",
"+#	c #597E13",
"@#	c #4A7306",
"##	c #325800",
"$#	c #304D1B",
"%#	c #536F38",
"&#	c #5F8434",
"*#	c #6C8F31",
"=#	c #849E2B",
"-#	c #718A2A",
";#	c #6B852A",
">#	c #638037",
",#	c #556C3D",
"'#	c #596B3B",
")#	c #54663E",
"!#	c #647531",
"~#	c #5B6C3C",
"{#	c #72842D",
"]#	c #647B30",
"^#	c #576D3C",
"/#	c #5D7F37",
"(#	c #70882B",
"_#	c #637532",
":#	c #5C6A3D",
"<#	c #7FA921",
"[#	c #6B8E24",
"}#	c #4B6530",
"|#	c #486036",
"1#	c #3E5B2C",
"2#	c #425B24",
"3#	c #3A5323",
"4#	c #4A7115",
"5#	c #62950A",
"6#	c #638418",
"7#	c #5A8D06",
"8#	c #326500",
"9#	c #5A7427",
"0#	c #73922E",
"a#	c #7B9E28",
"b#	c #81AD1F",
"c#	c #78A023",
"d#	c #669F13",
"e#	c #548030",
"f#	c #55703C",
"g#	c #697C2F",
"h#	c #4C553D",
"i#	c #4A4C3F",
"j#	c #525B41",
"k#	c #607539",
"l#	c #799127",
"m#	c #5B633E",
"n#	c #565C3F",
"o#	c #718828",
"p#	c #799226",
"q#	c #63940A",
"r#	c #5E7335",
"s#	c #7EA220",
"t#	c #799C27",
"u#	c #496535",
"v#	c #4B6637",
"w#	c #5E7837",
"x#	c #68822C",
"y#	c #4E6831",
"z#	c #6C9315",
"A#	c #78A51A",
"B#	c #64921D",
"C#	c #7BA91D",
"D#	c #6B8C26",
"E#	c #95B515",
"F#	c #9EAC11",
"G#	c #708231",
"H#	c #698431",
"I#	c #5A7A36",
"J#	c #77A712",
"K#	c #7DA719",
"L#	c #6A7B2D",
"M#	c #9DAD0F",
"N#	c #98A41D",
"O#	c #6F882E",
"P#	c #56613D",
"Q#	c #5D683C",
"R#	c #7C9A22",
"S#	c #606D36",
"T#	c #627033",
"U#	c #6D802B",
"V#	c #7BA219",
"W#	c #4D702F",
"X#	c #5F6C35",
"Y#	c #687A34",
"Z#	c #48543B",
"`#	c #607434",
" $	c #6C7E2C",
".$	c #616F38",
"+$	c #617539",
"@$	c #658D24",
"#$	c #4C5E36",
"$$	c #55633C",
"%$	c #6D9615",
"&$	c #7DA121",
"*$	c #677335",
"=$	c #54613F",
"-$	c #515D41",
";$	c #58623F",
">$	c #5C7037",
",$	c #6F8529",
"'$	c #7A9F1C",
")$	c #92A219",
"!$	c #9CAA13",
"~$	c #A5B205",
"{$	c #7F8E27",
"]$	c #70802C",
"^$	c #6A792D",
"/$	c #73862A",
"($	c #657433",
"_$	c #4E5541",
":$	c #474A3E",
"<$	c #657233",
"[$	c #6B7E2D",
"}$	c #4A742A",
"|$	c #46513B",
"1$	c #5D6837",
"2$	c #6C7A31",
"3$	c #607338",
"4$	c #6F7A35",
"5$	c #627437",
"6$	c #51583A",
"7$	c #58633C",
"8$	c #788F28",
"9$	c #799623",
"0$	c #667336",
"a$	c #4D5240",
"b$	c #667F26",
"c$	c #738928",
"d$	c #879E1E",
"e$	c #6B7634",
"f$	c #61802C",
"g$	c #709D15",
"h$	c #58613D",
"i$	c #5F6B39",
"j$	c #6A7B2C",
"k$	c #90A718",
"l$	c #839C1F",
"m$	c #687630",
"n$	c #72842E",
"o$	c #789228",
"p$	c #575E3D",
"q$	c #4E5441",
"r$	c #6D7C32",
"s$	c #647432",
"t$	c #608B1E",
"u$	c #5A8027",
"v$	c #575E3F",
"w$	c #809727",
"x$	c #9DAC12",
"y$	c #89A01D",
"z$	c #6B7D35",
"A$	c #5E663B",
"B$	c #758F28",
"C$	c #7B9823",
"D$	c #606E38",
"E$	c #4D4F41",
"F$	c #587A28",
"G$	c #5F8F13",
"H$	c #667F2A",
"I$	c #93A816",
"J$	c #9FAC10",
"K$	c #6F8725",
"L$	c #556A38",
"M$	c #5D7E30",
"N$	c #7CAA0A",
"O$	c #6E8F2D",
"P$	c #677437",
"Q$	c #778A2A",
"R$	c #7D9D21",
"S$	c #657333",
"T$	c #58623E",
"U$	c #667532",
"V$	c #5B693C",
"W$	c #5E6A37",
"X$	c #4C6437",
"Y$	c #6D8F1C",
"Z$	c #9EAA11",
"`$	c #95A817",
" %	c #627339",
".%	c #4C563E",
"+%	c #47493D",
"@%	c #677535",
"#%	c #7A9525",
"$%	c #606E36",
"%%	c #56643D",
"&%	c #637036",
"*%	c #6B7A2C",
"=%	c #525F40",
"-%	c #515642",
";%	c #5B7631",
">%	c #739B17",
",%	c #7E9724",
"'%	c #6B7734",
")%	c #679805",
"!%	c #6E8D22",
"~%	c #515A41",
"{%	c #647238",
"]%	c #555C3F",
"^%	c #494F3D",
"/%	c #505640",
"(%	c #515841",
"_%	c #9FAC11",
":%	c #8F9C1F",
"<%	c #526040",
"[%	c #4B4E3F",
"}%	c #4E583F",
"|%	c #73842B",
"1%	c #76862B",
"2%	c #59663C",
"3%	c #66752E",
"4%	c #707F2C",
"5%	c #515442",
"6%	c #567E29",
"7%	c #6B9B06",
"8%	c #859225",
"9%	c #9EAA10",
"  . + @ # $ . % & * = = - ; > , = = = ' ) ! ~ { ] ^ / ( = = _ _ ",
". . : = < [ } | 1 2 = = 3 ] 4 5 6 = 7 8 9 ) = @ 0 a b c = = d e ",
"e f @ = g h i j ] k l m n = | o p q r s t u   . % v w x y = . e ",
"_ z A @ | B i C D E F G H I J K L M c N u   . . % v O P H Q z R ",
"S q h T d U = V W D X Y Z `  ...< +.d _ = @.#.$.y = - N %.&.*.= ",
"=.-.B ;.>.,.y '.).. - !.~.{.].].% . . d = = N ^.2 { /.(.N ; = = ",
"_.+.    U :.<.[.. . +.m u   }.= |.1.1.2.3.V = = 4.] D 5.}.= 6.7.",
"8.. . . 4 9.= 0.2.D a.< b.c.0.6 k E d.e.f.= = = N g.h.< i.6 / j.",
"` k.$ l.m.n.o.p.q.- ]...6 = = *.r.9.s.t.u.v.= = - - o.w.< +.x.a ",
"y.z.[ K A.B.= = - - C.v.= = D.U -.E.F.G.p N <.H.I.- = J.% . K.L.",
"M.F.G.N.*.0.= = = = <.K.O.O.% e.L.<.= P.Q.< R.r.S.= T.U.. . V.) ",
"Q F.F.G.0.  W.}.= *.y W.D D D d.= = }.m.. ! R.r.= = _ X.. . Y.Z.",
"`. += *..+].++@+#+$+7.%+5.E E &+%+].*+@.=+-+;+y.>+] ,+l 1.% +.i.",
"- ; = = C.].= *.'+)+N N !+~+~+m {+N - N <., ]+^+/+- < ~+~+< = = ",
"= = i c.= = - (+_+].< Q.u H r.:+<+>.0.*.<.0.  . .   c.i <.= = = ",
"= *.t x.[+}+|+1+b 2+] # $.3+4+5+l e }.= c.  . . . . [.i 6+L.= = ",
"p 7+8+9+0+6.a+8 b+M.= = = y c+8 N ] %+d+e+{.f+. m.D.= 6 = <.L B ",
"e+| % +.g+h+i+j+B.k+= = = s l+)+N q.g+m+Z n+{ o+#.6 = = @ p+q+r+",
"= ++. ++< !+s+- = i+' t+y u+s = = 6 v+< c h+i+r 7.N = @ ).. K.<.",
"w+  . x+% % e y+y 3+z+t+= = 6+L.}.+ v+< N A+= y - ; B+@ . . W.1 ",
"C+D+m.E+. F+F+G+H+I+J+K+L+M+R.N+O+P+k+7.<.Q++.| ].7.u   % R+S+T+",
"U+V+W+X+Y+Z+`+ @.@+@@@#@$@%@&@' > *@N - = ~ <.u ].7.6+S.=@-@;@>@",
",@'@)@!@~@{@]@^@/@(@_@:@<@[@}@|@1@%.= 2@L+3@.@4@5@6@7@8@9@0@a@b@",
"c@d@e@f@g@h@i@j@k@l@m@n@o@p@q@r@s@t@u@v@w@x@y@z@A@B@C@D@E@F@G@H@",
"I@J@K@L@M@N@O@P@Q@R@S@T@U@V@W@X@Y@Z@`@ #.#+#@###$#%#&#*#=#-#;#>#",
",#'#)#!#~#{#]#^#/#(#_#:#<#[#}#|#1#2#3#4#5#6#7#8#9#0#a#b#c#d#e#f#",
"g#h#i#j#k#l#m#n#o#p#q#r#s#t#u#v#w#x#y#z#A#B#C#D#E#F#G#H#I#J#K#L#",
"M#N#O#P#Q#R#S#T#U#V#W#X#R#Y#Z#`# $.$+$@$#$$$%$&$F#*$=$-$;$>$,$p#",
"'$)$!$~${$]$^$/$($_$:$<$[$}$|$1$2$3$4$5$6$7$8$9$0$a$b$c$d$e$f$g$",
"h$i$j${$k$l$m$n$o$p$q$r$s$t$u$v$w$x$y$z$A$B$C$D$E$F$G$H$I$J$K$L$",
"M$N$O$P$Q$R$S$T$U$V$h$^$W$X$Y$Z$`$ %.%+%@%#%$%%%&%*%=%-%;%>%,%'%",
")%!%~%-%{%Q$B$]%^%/%h$^$(%S#_%:% %<%[%}%|%1%2%3%4%0$-%5%6%7%8%9%"};
