/* XPM */
static char * wallwater_corner_bottomright_2_xpm[] = {
"32 32 738 2",
"  	c #147589",
". 	c #196A7C",
"+ 	c #15758B",
"@ 	c #127991",
"# 	c #157286",
"$ 	c #117893",
"% 	c #127892",
"& 	c #166F83",
"* 	c #186372",
"= 	c #1A6C7D",
"- 	c #14768A",
"; 	c #0F7C9A",
"> 	c #0D7D9B",
", 	c #117B96",
"' 	c #127993",
") 	c #097C9F",
"! 	c #097393",
"~ 	c #1E7189",
"{ 	c #326F72",
"] 	c #3F5D2D",
"^ 	c #496535",
"/ 	c #5C7B37",
"( 	c #56703C",
"_ 	c #575D3D",
": 	c #73822D",
"< 	c #6F7E2C",
"[ 	c #637231",
"} 	c #176E82",
"| 	c #156F84",
"1 	c #17606F",
"2 	c #196576",
"3 	c #14768F",
"4 	c #176473",
"5 	c #186777",
"6 	c #157285",
"7 	c #117B97",
"8 	c #0F7C98",
"9 	c #0B7C9C",
"0 	c #12768E",
"a 	c #0E708A",
"b 	c #1A778F",
"c 	c #35695B",
"d 	c #485F27",
"e 	c #6B8929",
"f 	c #6C7A31",
"g 	c #4E5141",
"h 	c #595F3F",
"i 	c #5E683A",
"j 	c #535F3F",
"k 	c #157083",
"l 	c #175E6C",
"m 	c #196372",
"n 	c #186778",
"o 	c #196A7A",
"p 	c #15748A",
"q 	c #0E7D9B",
"r 	c #127990",
"s 	c #185E6D",
"t 	c #16697D",
"u 	c #167386",
"v 	c #0A7DA0",
"w 	c #147387",
"x 	c #145C6D",
"y 	c #2F7F8D",
"z 	c #306A5A",
"A 	c #456C13",
"B 	c #5F7E34",
"C 	c #628036",
"D 	c #70872C",
"E 	c #717F2F",
"F 	c #5B633C",
"G 	c #525742",
"H 	c #636F33",
"I 	c #1A6B7C",
"J 	c #166D7F",
"K 	c #167285",
"L 	c #18687A",
"M 	c #146D82",
"N 	c #196878",
"O 	c #186576",
"P 	c #177186",
"Q 	c #14768B",
"R 	c #15697A",
"S 	c #117790",
"T 	c #11677B",
"U 	c #2D798A",
"V 	c #2D6363",
"W 	c #2C4303",
"X 	c #54750F",
"Y 	c #708E28",
"Z 	c #608235",
"` 	c #6E872B",
" .	c #68772D",
"..	c #658725",
"+.	c #69782E",
"@.	c #176F83",
"#.	c #12778E",
"$.	c #137992",
"%.	c #15768A",
"&.	c #0F7A99",
"*.	c #107A97",
"=.	c #157488",
"-.	c #166F82",
";.	c #196373",
">.	c #186C7D",
",.	c #157386",
"'.	c #196272",
").	c #165E6C",
"!.	c #15697D",
"~.	c #127793",
"{.	c #0E7290",
"].	c #2A798D",
"^.	c #49898F",
"/.	c #253700",
"(.	c #325700",
"_.	c #647A1B",
":.	c #5D8037",
"<.	c #547737",
"[.	c #669414",
"}.	c #659605",
"|.	c #637C2B",
"1.	c #196C7E",
"2.	c #1A6171",
"3.	c #18697C",
"4.	c #0F7C99",
"5.	c #107897",
"6.	c #157184",
"7.	c #186070",
"8.	c #19697A",
"9.	c #157082",
"0.	c #16667C",
"a.	c #256E83",
"b.	c #398999",
"c.	c #4E857C",
"d.	c #3A6000",
"e.	c #50740D",
"f.	c #68882B",
"g.	c #5B8A2A",
"h.	c #7FAC0C",
"i.	c #709D16",
"j.	c #50603C",
"k.	c #0A7D9F",
"l.	c #0B7D9D",
"m.	c #0F7A98",
"n.	c #176D81",
"o.	c #177083",
"p.	c #087EA2",
"q.	c #13778E",
"r.	c #1A6979",
"s.	c #186A7B",
"t.	c #147288",
"u.	c #107B97",
"v.	c #127185",
"w.	c #276676",
"x.	c #245D72",
"y.	c #54A0A7",
"z.	c #536D44",
"A.	c #617C05",
"B.	c #9FB30A",
"C.	c #86A11F",
"D.	c #7DA21B",
"E.	c #4E6734",
"F.	c #515442",
"G.	c #167087",
"H.	c #057EA4",
"I.	c #097DA1",
"J.	c #147287",
"K.	c #166779",
"L.	c #14758B",
"M.	c #14748B",
"N.	c #157388",
"O.	c #186575",
"P.	c #187084",
"Q.	c #0F7D99",
"R.	c #107A93",
"S.	c #27778A",
"T.	c #246C81",
"U.	c #337E96",
"V.	c #2D6F77",
"W.	c #958D20",
"X.	c #9FB80E",
"Y.	c #89AE1C",
"Z.	c #96AA14",
"`.	c #909D1F",
" +	c #5F6A3B",
".+	c #1A6474",
"++	c #147990",
"@+	c #137793",
"#+	c #157387",
"$+	c #176777",
"%+	c #167186",
"&+	c #107D9A",
"*+	c #187185",
"=+	c #17606E",
"-+	c #166B7D",
";+	c #0D7C9D",
">+	c #0B7D9E",
",+	c #0D7D9C",
"'+	c #117897",
")+	c #267082",
"!+	c #266675",
"~+	c #368298",
"{+	c #547E5E",
"]+	c #87A41D",
"^+	c #8CAF1D",
"/+	c #668330",
"(+	c #6E8B29",
"_+	c #97A615",
":+	c #9EAE0E",
"<+	c #1B6979",
"[+	c #157284",
"}+	c #176B7B",
"|+	c #137A91",
"1+	c #166F81",
"2+	c #186675",
"3+	c #117791",
"4+	c #14758C",
"5+	c #1A6A7C",
"6+	c #136F83",
"7+	c #358294",
"8+	c #4395AA",
"9+	c #6B832E",
"0+	c #9BB911",
"a+	c #789A26",
"b+	c #50623E",
"c+	c #436930",
"d+	c #608F16",
"e+	c #748F24",
"f+	c #13768D",
"g+	c #186F81",
"h+	c #13778D",
"i+	c #176A7B",
"j+	c #0F7B98",
"k+	c #0C7D9C",
"l+	c #0F7C9B",
"m+	c #176F81",
"n+	c #186877",
"o+	c #1A697A",
"p+	c #286B7B",
"q+	c #117288",
"r+	c #388495",
"s+	c #4F929D",
"t+	c #637E29",
"u+	c #7CA425",
"v+	c #608137",
"w+	c #47513C",
"x+	c #759F1C",
"y+	c #5A8026",
"z+	c #4E5041",
"A+	c #0B7B9C",
"B+	c #14778D",
"C+	c #0E7B98",
"D+	c #117992",
"E+	c #186878",
"F+	c #186A7C",
"G+	c #32899F",
"H+	c #0E7592",
"I+	c #276C7E",
"J+	c #56785A",
"K+	c #6F8E2D",
"L+	c #6B8C2D",
"M+	c #55673E",
"N+	c #525D41",
"O+	c #567830",
"P+	c #4B553D",
"Q+	c #44473C",
"R+	c #147690",
"S+	c #14768C",
"T+	c #117995",
"U+	c #107A98",
"V+	c #107A96",
"W+	c #156B7D",
"X+	c #186B7C",
"Y+	c #14788E",
"Z+	c #0F7B99",
"`+	c #167086",
" @	c #186676",
".@	c #196C7D",
"+@	c #18697A",
"@@	c #317686",
"#@	c #0E5464",
"$@	c #558874",
"%@	c #506B39",
"&@	c #516C3A",
"*@	c #648536",
"=@	c #788A2A",
"-@	c #7D9F20",
";@	c #778C29",
">@	c #6B7932",
",@	c #515742",
"'@	c #196879",
")@	c #147488",
"!@	c #156F82",
"~@	c #167185",
"{@	c #15778D",
"]@	c #115D6E",
"^@	c #276878",
"/@	c #38616B",
"(@	c #647E31",
"_@	c #4B6736",
":@	c #6A8832",
"<@	c #7FA621",
"[@	c #87A31C",
"}@	c #72862E",
"|@	c #5D683C",
"1@	c #565F3E",
"2@	c #59623E",
"3@	c #196D7F",
"4@	c #186C80",
"5@	c #14748A",
"6@	c #1A6A7B",
"7@	c #137389",
"8@	c #105566",
"9@	c #275D6E",
"0@	c #356166",
"a@	c #5F7337",
"b@	c #648235",
"c@	c #77972A",
"d@	c #718830",
"e@	c #58633C",
"f@	c #4B4E3F",
"g@	c #545A41",
"h@	c #71842F",
"i@	c #117A96",
"j@	c #127894",
"k@	c #1B6A7B",
"l@	c #196979",
"m@	c #12748C",
"n@	c #114959",
"o@	c #196B85",
"p@	c #439099",
"q@	c #7AA01F",
"r@	c #6A8E2A",
"s@	c #66931C",
"t@	c #515540",
"u@	c #45473C",
"v@	c #677532",
"w@	c #778A2A",
"x@	c #147389",
"y@	c #0E7D9C",
"z@	c #1B697A",
"A@	c #196E82",
"B@	c #156576",
"C@	c #13586A",
"D@	c #1F494F",
"E@	c #739C36",
"F@	c #7EA721",
"G@	c #6E902C",
"H@	c #63852A",
"I@	c #5E8B1A",
"J@	c #5E871E",
"K@	c #464B3D",
"L@	c #5F6939",
"M@	c #627133",
"N@	c #545A3D",
"O@	c #177084",
"P@	c #176F82",
"Q@	c #16606F",
"R@	c #13738A",
"S@	c #0D7D9D",
"T@	c #157389",
"U@	c #186473",
"V@	c #0D7995",
"W@	c #176B80",
"X@	c #345F5C",
"Y@	c #749224",
"Z@	c #73922E",
"`@	c #516D37",
" #	c #4B6039",
".#	c #4F5E3E",
"+#	c #4D6F30",
"@#	c #5D6937",
"##	c #697730",
"$#	c #5A623C",
"%#	c #484D3D",
"&#	c #4C4F40",
"*#	c #12788F",
"=#	c #196978",
"-#	c #196B7D",
";#	c #186474",
">#	c #19697B",
",#	c #137991",
"'#	c #0C7493",
")#	c #12607C",
"!#	c #396054",
"~#	c #687F35",
"{#	c #536C39",
"]#	c #54703A",
"^#	c #5B7339",
"/#	c #535941",
"(#	c #515C40",
"_#	c #55653A",
":#	c #515A41",
"<#	c #494C3F",
"[#	c #5D663A",
"}#	c #74882A",
"|#	c #107B96",
"1#	c #127891",
"2#	c #1A6D80",
"3#	c #0E7C9A",
"4#	c #0D7B99",
"5#	c #0B6E8B",
"6#	c #125B76",
"7#	c #547B02",
"8#	c #54892A",
"9#	c #4C6837",
"0#	c #546A3E",
"a#	c #72812C",
"b#	c #667531",
"c#	c #4E613C",
"d#	c #436A2F",
"e#	c #505342",
"f#	c #667137",
"g#	c #73822C",
"h#	c #6F832A",
"i#	c #17758A",
"j#	c #186C7F",
"k#	c #1A6B7D",
"l#	c #107C97",
"m#	c #157185",
"n#	c #1A7085",
"o#	c #107591",
"p#	c #0F7895",
"q#	c #127995",
"r#	c #0A657E",
"s#	c #2D5D43",
"t#	c #75AB03",
"u#	c #77B007",
"v#	c #4C5D3B",
"w#	c #647438",
"x#	c #87A11D",
"y#	c #7B892C",
"z#	c #535C40",
"A#	c #67762D",
"B#	c #667436",
"C#	c #4E5340",
"D#	c #196677",
"E#	c #12768D",
"F#	c #156071",
"G#	c #174E5D",
"H#	c #1A5E6E",
"I#	c #0E627A",
"J#	c #0D657F",
"K#	c #126A83",
"L#	c #1A6371",
"M#	c #40732D",
"N#	c #5B941E",
"O#	c #81B80B",
"P#	c #51683C",
"Q#	c #466634",
"R#	c #4D533D",
"S#	c #809826",
"T#	c #A5B107",
"U#	c #75822D",
"V#	c #647133",
"W#	c #5A683B",
"X#	c #464C3D",
"Y#	c #4C563E",
"Z#	c #166B7C",
"`#	c #13768C",
" $	c #127184",
".$	c #126F82",
"+$	c #106577",
"@$	c #116577",
"#$	c #10738D",
"$$	c #125262",
"%$	c #194F5A",
"&$	c #1A4C56",
"*$	c #1B5866",
"=$	c #166172",
"-$	c #155364",
";$	c #2D6053",
">$	c #47781D",
",$	c #447006",
"'$	c #446812",
")$	c #617C1E",
"!$	c #9EB40F",
"~$	c #729D26",
"{$	c #5E971D",
"]$	c #53673E",
"^$	c #484B3E",
"/$	c #47493D",
"($	c #4E6F30",
"_$	c #658129",
":$	c #657333",
"<$	c #474C3E",
"[$	c #4F543D",
"}$	c #6E7C30",
"|$	c #155968",
"1$	c #11718A",
"2$	c #11708A",
"3$	c #116273",
"4$	c #1A5B67",
"5$	c #2A453A",
"6$	c #2A453B",
"7$	c #1A5D6C",
"8$	c #236A5F",
"9$	c #53782B",
"0$	c #6C9C04",
"a$	c #658C09",
"b$	c #304145",
"c$	c #355A4A",
"d$	c #4E8523",
"e$	c #90B308",
"f$	c #79B10E",
"g$	c #69A013",
"h$	c #86AF1F",
"i$	c #83A221",
"j$	c #5C7A38",
"k$	c #50643D",
"l$	c #4D543A",
"m$	c #44463C",
"n$	c #52613D",
"o$	c #769528",
"p$	c #717F2E",
"q$	c #5F8125",
"r$	c #5C8225",
"s$	c #55623A",
"t$	c #243D31",
"u$	c #1D5055",
"v$	c #225955",
"w$	c #2C6E52",
"x$	c #4D7400",
"y$	c #597E13",
"z$	c #4A7306",
"A$	c #325800",
"B$	c #304D1B",
"C$	c #536F38",
"D$	c #5F8434",
"E$	c #6C8F31",
"F$	c #849E2B",
"G$	c #718A2A",
"H$	c #6B852A",
"I$	c #638037",
"J$	c #6CA01B",
"K$	c #779B25",
"L$	c #6F8C2F",
"M$	c #607C34",
"N$	c #52603F",
"O$	c #5D673B",
"P$	c #66752E",
"Q$	c #4F573B",
"R$	c #4B513E",
"S$	c #575D3E",
"T$	c #626E34",
"U$	c #687436",
"V$	c #658723",
"W$	c #4A6139",
"X$	c #4F5241",
"Y$	c #3E5B2C",
"Z$	c #425B24",
"`$	c #3A5423",
" %	c #4A7115",
".%	c #62950A",
"+%	c #638418",
"@%	c #5A8D06",
"#%	c #326500",
"$%	c #5A7427",
"%%	c #7B9E28",
"&%	c #81AD1F",
"*%	c #78A023",
"=%	c #669F13",
"-%	c #548030",
";%	c #55703C",
">%	c #53643E",
",%	c #57633C",
"'%	c #53613F",
")%	c #647231",
"!%	c #5A683D",
"~%	c #71802E",
"{%	c #626F33",
"]%	c #57653D",
"^%	c #6F7D2D",
"/%	c #627033",
"(%	c #5B653D",
"_%	c #7B9823",
":%	c #6B7D2F",
"<%	c #45483C",
"[%	c #5E7837",
"}%	c #68822C",
"|%	c #4E6831",
"1%	c #6C9315",
"2%	c #78A51A",
"3%	c #64921D",
"4%	c #7BA91D",
"5%	c #6B8C26",
"6%	c #95B515",
"7%	c #9EAC11",
"8%	c #708231",
"9%	c #698431",
"0%	c #5A7A36",
"a%	c #77A712",
"b%	c #7DA719",
"c%	c #6A7B2D",
"d%	c #697C2F",
"e%	c #4C553D",
"f%	c #4A4C3F",
"g%	c #525B41",
"h%	c #607539",
"i%	c #799127",
"j%	c #5B633E",
"k%	c #565C3F",
"l%	c #718828",
"m%	c #799226",
"n%	c #63940A",
"o%	c #5E7335",
"p%	c #7D9E20",
"q%	c #758929",
"r%	c #46493D",
"s%	c #6C7E2C",
"t%	c #616F38",
"u%	c #617539",
"v%	c #658D24",
"w%	c #4C5E36",
"x%	c #55633C",
"y%	c #6D9615",
"z%	c #7DA121",
"A%	c #677335",
"B%	c #54613F",
"C%	c #515D41",
"D%	c #58623F",
"E%	c #5C7037",
"F%	c #6F8529",
"G%	c #9DAD0F",
"H%	c #98A41D",
"I%	c #6F882E",
"J%	c #56613D",
"K%	c #7C9A22",
"L%	c #606D36",
"M%	c #6D802B",
"N%	c #7BA219",
"O%	c #4D702F",
"P%	c #5F6C35",
"Q%	c #677535",
"R%	c #5D6837",
"S%	c #607338",
"T%	c #6F7A35",
"U%	c #627437",
"V%	c #51583A",
"W%	c #788F28",
"X%	c #799623",
"Y%	c #667336",
"Z%	c #4D5240",
"`%	c #667F26",
" &	c #738928",
".&	c #879E1E",
"+&	c #6B7634",
"@&	c #61802C",
"#&	c #709D15",
"$&	c #7A9F1C",
"%&	c #92A219",
"&&	c #9CAA13",
"*&	c #A5B205",
"=&	c #7F8E27",
"-&	c #70802C",
";&	c #6A792D",
">&	c #73862A",
",&	c #657433",
"'&	c #4E5541",
")&	c #474A3E",
"!&	c #657233",
"~&	c #6B7E2D",
"{&	c #4A742A",
"]&	c #46513B",
"^&	c #809727",
"/&	c #9DAC12",
"(&	c #89A01D",
"_&	c #6B7D35",
":&	c #5E663B",
"<&	c #758F28",
"[&	c #606E38",
"}&	c #4D4F41",
"|&	c #587A28",
"1&	c #5F8F13",
"2&	c #667F2A",
"3&	c #93A816",
"4&	c #9FAC10",
"5&	c #6F8725",
"6&	c #556A38",
"7&	c #58613D",
"8&	c #5F6B39",
"9&	c #6A7B2C",
"0&	c #90A718",
"a&	c #839C1F",
"b&	c #687630",
"c&	c #72842E",
"d&	c #789228",
"e&	c #575E3D",
"f&	c #4E5441",
"g&	c #6D7C32",
"h&	c #647432",
"i&	c #608B1E",
"j&	c #5A8027",
"k&	c #575E3F",
"l&	c #95A817",
"m&	c #627339",
"n&	c #7A9525",
"o&	c #606E36",
"p&	c #56643D",
"q&	c #637036",
"r&	c #6B7A2C",
"s&	c #525F40",
"t&	c #515642",
"u&	c #5B7631",
"v&	c #739B17",
"w&	c #7E9724",
"x&	c #6B7734",
"y&	c #5D7E30",
"z&	c #7CAA0A",
"A&	c #6E8F2D",
"B&	c #677437",
"C&	c #7D9D21",
"D&	c #58623E",
"E&	c #667532",
"F&	c #5B693C",
"G&	c #5E6A37",
"H&	c #4C6437",
"I&	c #6D8F1C",
"J&	c #9EAA11",
"K&	c #526040",
"L&	c #4E583F",
"M&	c #73842B",
"N&	c #76862B",
"O&	c #59663C",
"P&	c #707F2C",
"Q&	c #567E29",
"R&	c #6B9B06",
"S&	c #859225",
"T&	c #9EAA10",
"U&	c #679805",
"V&	c #6E8D22",
"W&	c #647238",
"X&	c #555C3F",
"Y&	c #494F3D",
"Z&	c #505640",
"`&	c #515841",
" *	c #9FAC11",
".*	c #8F9C1F",
"      . + @ # $ % & * =     - - ; > , ' ) ! ~ { ] ^ / ( _ : < [ ",
"}   | 1 2 +   ' 3 4 5 6     7 8 > > 9   0 a b c d ^ e f g h i j ",
"k l m n o p ; > q r s t u   > 8 8 v '   w x y z A B C D E F G H ",
"I J 6 K p ; > > q r L M N O P Q - P R ' S T U V W X Y Z `  ...+.",
"@.#.; $.  %.&.*.3 =.  # -.;.>.u ,.'.).!.~.{.].^./.(._.:.<.[.}.|.",
"#.> > q '     1.2.3.4.5.% K }   6.7.8.9.& 0.a.b.c.d.e.f.g.h.i.j.",
"S k.l.l.m.n.    u o.; p.v q.K r.s.t.; q u.v.w.x.y.z.A.B.C.D.E.F.",
"G.p.H.I.J.k       1.K.L.M.N.3.O.P.Q.> > > R.S.T.U.V.W.X.Y.Z.`. +",
"8..+++@+J m u     #+u $+%+q.&+*+=+-+;+>+,+'+)+!+~+{+]+^+/+(+_+:+",
"K 1 m <+8.[+o.1.}+-.    |+> > #.1+2+#.3+4+5+6+7+8+9+0+a+b+c+d+e+",
"f+g+g+  q.#.h+i+O     f+j+> k+l+m+n+o+;.m p+q+r+s+t+u+v+w+x+y+z+",
"A+  f+u.q > h+i+O     B+C+> k+D+'.n+r.E+F+G+H+I+J+K+L+M+N+O+P+Q+",
"R+=.S+T+U+V+W+2+X+% Y+Z+l.q u.`+ @.@  g++@@@#@$@%@&@*@=@-@;@>@,@",
"'@K )@K 1.o.!@~@{@)@q.S S q.    )@n.    ]@^@/@(@_@:@<@[@}@|@1@2@",
"3@4@f+g+1.f+; > > ; 5@6@1.          6@7@8@9@0@a@b@c@d@e@f@Q+g@h@",
"Z+8 i@  5@; > > > > j@6@k@,.      g+l@m@n@o@p@q@r@s@t@u@Q+f@v@w@",
"5@j@J s x@y@> > '   #+# K z@9.k 1+A@B@C@D@E@F@G@H@I@J@K@L@< M@N@",
"O@o.P@1 Q@R@S@S@# #+  ' S+T@U@s J.; V@W@X@Y@Z@`@ #.#+#@###$#%#&#",
"# L.*#- =#-#;#>#1.  f+,#> ; K K @ ; '#)#!#~#{#]#^#/#(#_#:#<#[#}#",
"|#1#*#- 2#Q =.=.O@Y+B+3#> > K 3 q 4#5#6#7#8#9#0#a#b#c#d#e#f#g#h#",
"i#z@1.j#,#8 f+u k#% q q l#m#n#o#p#q#r#s#t#u#%@v#w#x#y#z#$#A#B#C#",
"D#K     O@1.f+u z@k#q.E#F#G#H#I#J#K#L#M#N#O#P#Q#R#S#T#U#V#W#X#Y#",
"Z#  `# $.$+$@$#$$$%$&$*$=$-$;$>$,$'$)$!$~${$]$^$/$($_$[@:$<$[$}$",
"|$1$2$3$4$5$6$7$8$9$0$a$b$c$d$e$f$g$h$i$j$k$M@l$m$J@n$o$p$q$r$s$",
"t$u$v$w$x$y$z$A$B$C$D$E$F$G$H$I$J$K$L$M$N$O$P$Q$R$S$T$U$a#V$W$X$",
"Y$Z$`$ %.%+%@%#%$%Z@%%&%*%=%-%;%>%,%'%)%!%~%{%F.]%^%/%(%_%:%X$<%",
"[%}%|%1%2%3%4%5%6%7%8%9%0%a%b%c%d%e%f%g%h%i%j%k%l%m%n%o%p%q%Q+r%",
"s%t%u%v%w%x%y%z%7%A%B%C%D%E%F%m%G%H%I%J%|@K%L%/%M%N%O%P%K%Q%r%R%",
"f S%T%U%V%e@W%X%Y%Z%`% &.&+&@&#&$&%&&&*&=&-&;&>&,&'&)&!&~&{&]&R%",
"^&/&(&_&:&<&_%[&}&|&1&2&3&4&5&6&7&8&9&=&0&a&b&c&d&e&f&g&h&i&j&k&",
"l&m&Y#/$Q%n&o&p&q&r&s&t&u&v&w&x&y&z&A&B&w@C&:$D&E&F&7&;&G&H&I&J&",
"m&K&f@L&M&N&O&P$P&Y%t&F.Q&R&S&T&U&V&:#t&W&w@<&X&Y&Z&7&;&`&L% *.*"};
