/* XPM */
static char * wallwater_border_top_1_xpm[] = {
"32 32 713 2",
"  	c #9DAA13",
". 	c #728927",
"+ 	c #73A10E",
"@ 	c #4B5F35",
"# 	c #4E5441",
"$ 	c #6B7932",
"% 	c #8BA51A",
"& 	c #748033",
"* 	c #44473C",
"= 	c #58613D",
"- 	c #535941",
"; 	c #575D3D",
"> 	c #73822D",
", 	c #6F7E2C",
"' 	c #637231",
") 	c #667236",
"! 	c #779126",
"~ 	c #6B7A31",
"{ 	c #71802D",
"] 	c #57653D",
"^ 	c #697635",
"/ 	c #717F2B",
"( 	c #5F6833",
"_ 	c #4A4D3D",
": 	c #515542",
"< 	c #5A663D",
"[ 	c #5A7236",
"} 	c #55663B",
"| 	c #677631",
"1 	c #93A01C",
"2 	c #8FA718",
"3 	c #83A118",
"4 	c #638E16",
"5 	c #4C5439",
"6 	c #45473C",
"7 	c #54603C",
"8 	c #628525",
"9 	c #748A25",
"0 	c #4B4E3F",
"a 	c #67762D",
"b 	c #6C7931",
"c 	c #4E5141",
"d 	c #595F3F",
"e 	c #5E683A",
"f 	c #535F3F",
"g 	c #73822C",
"h 	c #5C6B38",
"i 	c #667432",
"j 	c #5F6D36",
"k 	c #65782D",
"l 	c #61881E",
"m 	c #6B8C2C",
"n 	c #43453C",
"o 	c #515442",
"p 	c #657233",
"q 	c #6E7D2E",
"r 	c #565C3F",
"s 	c #545C40",
"t 	c #6F9C0F",
"u 	c #95AA12",
"v 	c #9EAA11",
"w 	c #677935",
"x 	c #4C5A38",
"y 	c #436930",
"z 	c #679806",
"A 	c #7CA90B",
"B 	c #729425",
"C 	c #5B693C",
"D 	c #5D673B",
"E 	c #717F2F",
"F 	c #5B633C",
"G 	c #525742",
"H 	c #636F33",
"I 	c #535A3D",
"J 	c #515642",
"K 	c #5E6C37",
"L 	c #58663C",
"M 	c #4D702F",
"N 	c #73A20D",
"O 	c #749E1B",
"P 	c #5C6C3B",
"Q 	c #505342",
"R 	c #4E5140",
"S 	c #4F5A3F",
"T 	c #4E5340",
"U 	c #43493B",
"V 	c #617635",
"W 	c #669415",
"X 	c #6D8629",
"Y 	c #92A816",
"Z 	c #A1B00A",
"` 	c #91A11C",
" .	c #6D832D",
"..	c #578322",
"+.	c #6E8E21",
"@.	c #67752D",
"#.	c #769026",
"$.	c #71802E",
"%.	c #5A693A",
"&.	c #6B7A2D",
"*.	c #68772D",
"=.	c #658725",
"-.	c #69782E",
";.	c #626F33",
">.	c #474B3E",
",.	c #4A4C3F",
"'.	c #5D7F2C",
").	c #516C32",
"!.	c #5D6937",
"~.	c #4D6037",
"{.	c #46503B",
"].	c #4E5A3F",
"^.	c #56782F",
"/.	c #565E3E",
"(.	c #647C2C",
"_.	c #698C26",
":.	c #7A9822",
"<.	c #80AB1F",
"[.	c #8DAE1B",
"}.	c #779426",
"|.	c #717F2D",
"1.	c #6D712F",
"2.	c #707D2D",
"3.	c #51663B",
"4.	c #689515",
"5.	c #669605",
"6.	c #637C2C",
"7.	c #545841",
"8.	c #555D3A",
"9.	c #566B34",
"0.	c #689904",
"a.	c #5D7C2B",
"b.	c #7D9E20",
"c.	c #555B3F",
"d.	c #5C673C",
"e.	c #697E2F",
"f.	c #7B8D28",
"g.	c #859325",
"h.	c #6D802B",
"i.	c #6B7A2C",
"j.	c #627133",
"k.	c #515A41",
"l.	c #4F5241",
"m.	c #45483C",
"n.	c #5F8F14",
"o.	c #5D7439",
"p.	c #70942B",
"q.	c #89A821",
"r.	c #85AF1D",
"s.	c #9EB414",
"t.	c #9CB114",
"u.	c #789B26",
"v.	c #68812F",
"w.	c #5C8A2C",
"x.	c #83B70C",
"y.	c #74A914",
"z.	c #536F39",
"A.	c #7C8A2D",
"B.	c #9DA913",
"C.	c #749623",
"D.	c #5E7F2F",
"E.	c #798B27",
"F.	c #9FB80E",
"G.	c #769327",
"H.	c #769B27",
"I.	c #87A620",
"J.	c #9EAE0D",
"K.	c #81A01E",
"L.	c #869823",
"M.	c #697B30",
"N.	c #5C633D",
"O.	c #50573B",
"P.	c #515742",
"Q.	c #565C40",
"R.	c #537729",
"S.	c #547D29",
"T.	c #556C3C",
"U.	c #526D3A",
"V.	c #567637",
"W.	c #4A6816",
"X.	c #4E7209",
"Y.	c #90A913",
"Z.	c #A1B911",
"`.	c #A9BF04",
" +	c #89AE1E",
".+	c #81B11A",
"++	c #538030",
"@+	c #566F3C",
"#+	c #5F743B",
"$+	c #8C9C26",
"%+	c #90A022",
"&+	c #66822F",
"*+	c #7C9A23",
"=+	c #A7BF06",
"-+	c #7AA41F",
";+	c #658A14",
">+	c #5D7E08",
",+	c #5C701A",
"'+	c #637A27",
")+	c #5D802F",
"!+	c #4F5540",
"~+	c #44473D",
"{+	c #46493D",
"]+	c #758A2D",
"^+	c #7EA223",
"/+	c #769A25",
"(+	c #698A2A",
"_+	c #56783B",
":+	c #4B6736",
"<+	c #3F5A29",
"[+	c #29460C",
"}+	c #223111",
"|+	c #43631E",
"1+	c #759925",
"2+	c #A3BC0C",
"3+	c #8BB11E",
"4+	c #98B714",
"5+	c #93AC1D",
"6+	c #658237",
"7+	c #57773B",
"8+	c #5F7739",
"9+	c #788B31",
"0+	c #618332",
"a+	c #668933",
"b+	c #85A325",
"c+	c #629708",
"d+	c #4A7D01",
"e+	c #376400",
"f+	c #374404",
"g+	c #566421",
"h+	c #699D10",
"i+	c #6C8331",
"j+	c #606D32",
"k+	c #5D6A37",
"l+	c #6B892F",
"m+	c #71912F",
"n+	c #6D8B32",
"o+	c #58733B",
"p+	c #55703C",
"q+	c #526E34",
"r+	c #3F5918",
"s+	c #1E2D0F",
"t+	c #1A2310",
"u+	c #222315",
"v+	c #717E21",
"w+	c #6E8D1B",
"x+	c #486321",
"y+	c #6F8E22",
"z+	c #97AF08",
"A+	c #9DB506",
"B+	c #7B9520",
"C+	c #4E6817",
"D+	c #455B1A",
"E+	c #456D25",
"F+	c #598231",
"G+	c #698A25",
"H+	c #476C03",
"I+	c #3F6C00",
"J+	c #4D5702",
"K+	c #5A6600",
"L+	c #617107",
"M+	c #98B014",
"N+	c #7DA522",
"O+	c #6B842A",
"P+	c #72822C",
"Q+	c #72812C",
"R+	c #547238",
"S+	c #577A3B",
"T+	c #55723C",
"U+	c #57783B",
"V+	c #5B6E2F",
"W+	c #3A500F",
"X+	c #353F04",
"Y+	c #1B3205",
"Z+	c #162D09",
"`+	c #1F2612",
" @	c #5C6411",
".@	c #3F490B",
"+@	c #253413",
"@@	c #2A4212",
"#@	c #3A5A05",
"$@	c #4C620B",
"%@	c #5A6801",
"&@	c #3A4F01",
"*@	c #2A3D06",
"=@	c #2A4E08",
"-@	c #508000",
";@	c #426601",
">@	c #586700",
",@	c #5E6800",
"'@	c #304603",
")@	c #4E6D03",
"!@	c #678B30",
"~@	c #5E8633",
"{@	c #5A8233",
"]@	c #647B37",
"^@	c #5B683A",
"/@	c #6A8D20",
"(@	c #658C30",
"_@	c #668834",
":@	c #58722F",
"<@	c #2F3517",
"[@	c #374300",
"}@	c #374E00",
"|@	c #27624F",
"1@	c #18555D",
"2@	c #31452C",
"3@	c #3B4B00",
"4@	c #292D08",
"5@	c #265560",
"6@	c #3E5D2C",
"7@	c #2D4308",
"8@	c #1D1F13",
"9@	c #20240D",
"0@	c #283200",
"a@	c #2B3A03",
"b@	c #29330D",
"c@	c #333E02",
"d@	c #3D5300",
"e@	c #4F5C00",
"f@	c #354700",
"g@	c #2C3400",
"h@	c #282F0E",
"i@	c #43580D",
"j@	c #5D7831",
"k@	c #4C6834",
"l@	c #5A7736",
"m@	c #546D3B",
"n@	c #526D34",
"o@	c #4C6605",
"p@	c #4E6717",
"q@	c #5C761A",
"r@	c #3C530B",
"s@	c #213000",
"t@	c #609F95",
"u@	c #67B0AB",
"v@	c #499AA9",
"w@	c #347B91",
"x@	c #58A3AB",
"y@	c #4E9CA5",
"z@	c #227E94",
"A@	c #4593A8",
"B@	c #4E9FAA",
"C@	c #202513",
"D@	c #161710",
"E@	c #14494F",
"F@	c #3E9891",
"G@	c #3A8A7E",
"H@	c #354500",
"I@	c #323E03",
"J@	c #2F3C0B",
"K@	c #38665B",
"L@	c #6AB4A9",
"M@	c #589E97",
"N@	c #2E3A29",
"O@	c #242A11",
"P@	c #2B361B",
"Q@	c #5B7B21",
"R@	c #6B8D28",
"S@	c #56763C",
"T@	c #729729",
"U@	c #343F04",
"V@	c #212710",
"W@	c #1A2210",
"X@	c #203D01",
"Y@	c #35706F",
"Z@	c #5BA0A7",
"`@	c #2D5B6E",
" #	c #2E5D6F",
".#	c #2C5B6D",
"+#	c #346677",
"@#	c #36687A",
"##	c #36697B",
"$#	c #2E5B6F",
"%#	c #407C8C",
"&#	c #58A4B4",
"*#	c #4A9AB0",
"=#	c #4595AC",
"-#	c #35697C",
";#	c #519093",
">#	c #55A1A7",
",#	c #439FAE",
"'#	c #4A9CAF",
")#	c #4CA0AB",
"!#	c #24505A",
"~#	c #539BA2",
"{#	c #3B6B6A",
"]#	c #354402",
"^#	c #344002",
"/#	c #343D09",
"(#	c #465E27",
"_#	c #5B792A",
":#	c #5D7211",
"<#	c #212A0E",
"[#	c #1B1D11",
"}#	c #14140C",
"|#	c #334940",
"1#	c #53A3AD",
"2#	c #437C8A",
"3#	c #326474",
"4#	c #316677",
"5#	c #2B5F6E",
"6#	c #1B4A5A",
"7#	c #1E4D5F",
"8#	c #1D4D5F",
"9#	c #0B3A4D",
"0#	c #09374B",
"a#	c #184356",
"b#	c #10394C",
"c#	c #153F52",
"d#	c #144154",
"e#	c #08364A",
"f#	c #053046",
"g#	c #1B4354",
"h#	c #1A4254",
"i#	c #356779",
"j#	c #255567",
"k#	c #377182",
"l#	c #55A1AC",
"m#	c #374802",
"n#	c #4E5A00",
"o#	c #354802",
"p#	c #313B08",
"q#	c #3A4404",
"r#	c #394404",
"s#	c #417479",
"t#	c #0E4B5A",
"u#	c #246A7D",
"v#	c #469FB4",
"w#	c #387889",
"x#	c #104154",
"y#	c #0B4153",
"z#	c #0D4658",
"A#	c #0E4B5E",
"B#	c #0D4E61",
"C#	c #0E4E61",
"D#	c #0E4D5F",
"E#	c #104A5C",
"F#	c #0F4658",
"G#	c #0E495A",
"H#	c #0F4B5C",
"I#	c #104A5E",
"J#	c #0E4558",
"K#	c #0E4356",
"L#	c #0D4254",
"M#	c #0C4155",
"N#	c #0D4155",
"O#	c #0B3F52",
"P#	c #154256",
"Q#	c #407C8B",
"R#	c #4E9DA7",
"S#	c #36635A",
"T#	c #4F5800",
"U#	c #475600",
"V#	c #384200",
"W#	c #2B5550",
"X#	c #286677",
"Y#	c #276A80",
"Z#	c #1E6178",
"`#	c #194D63",
" $	c #0E4057",
".$	c #0C4658",
"+$	c #0F485A",
"@$	c #124D5F",
"#$	c #125163",
"$$	c #135A6D",
"%$	c #0F627D",
"&$	c #0E6C86",
"*$	c #176171",
"=$	c #156277",
"-$	c #0F7189",
";$	c #0D708F",
">$	c #0E718C",
",$	c #10667E",
"'$	c #11586A",
")$	c #115366",
"!$	c #0D5368",
"~$	c #0E566C",
"{$	c #0E556A",
"]$	c #0E4D62",
"^$	c #0C4458",
"/$	c #083A4E",
"($	c #1B5464",
"_$	c #1E7284",
":$	c #2F8792",
"<$	c #378A93",
"[$	c #318893",
"}$	c #287E8C",
"|$	c #186D81",
"1$	c #1A6979",
"2$	c #196777",
"3$	c #1A697A",
"4$	c #1A6677",
"5$	c #17606F",
"6$	c #17616F",
"7$	c #186776",
"8$	c #147589",
"9$	c #167386",
"0$	c #176372",
"a$	c #167285",
"b$	c #127892",
"c$	c #147690",
"d$	c #166473",
"e$	c #186373",
"f$	c #127A94",
"g$	c #0D7D9C",
"h$	c #0D7D9B",
"i$	c #0E7C9A",
"j$	c #14778D",
"k$	c #176E82",
"l$	c #196C7E",
"m$	c #1A6B7C",
"n$	c #157082",
"o$	c #146B80",
"p$	c #0E7D9B",
"q$	c #107B97",
"r$	c #196978",
"s$	c #196B7C",
"t$	c #157284",
"u$	c #177082",
"v$	c #1B697A",
"w$	c #186778",
"x$	c #16606E",
"y$	c #166F81",
"z$	c #186E80",
"A$	c #167286",
"B$	c #19697B",
"C$	c #165E6C",
"D$	c #166576",
"E$	c #117893",
"F$	c #0C7E9D",
"G$	c #0F7A98",
"H$	c #127993",
"I$	c #147790",
"J$	c #176F81",
"K$	c #17606E",
"L$	c #0F7B98",
"M$	c #13778E",
"N$	c #167087",
"O$	c #187083",
"P$	c #147488",
"Q$	c #196A7C",
"R$	c #167184",
"S$	c #186678",
"T$	c #12788F",
"U$	c #157285",
"V$	c #196372",
"W$	c #1A6B7D",
"X$	c #127992",
"Y$	c #107B96",
"Z$	c #14758A",
"`$	c #0E7792",
" %	c #0E7B98",
".%	c #0F7C98",
"+%	c #176F85",
"@%	c #196272",
"#%	c #176475",
"$%	c #1B6A7B",
"%%	c #157386",
"&%	c #117A96",
"*%	c #117B96",
"=%	c #17758A",
"-%	c #176D81",
";%	c #137A90",
">%	c #0F7B97",
",%	c #186C7F",
"'%	c #137791",
")%	c #0D7E9C",
"!%	c #137A92",
"~%	c #15758C",
"{%	c #127891",
"]%	c #157488",
"^%	c #15748A",
"/%	c #0F7C9A",
"(%	c #0E7D9A",
"_%	c #176C80",
":%	c #0C7D9D",
"<%	c #097DA0",
"[%	c #19697A",
"}%	c #196B7D",
"|%	c #186E82",
"1%	c #196373",
"2%	c #157286",
"3%	c #156C7F",
"4%	c #165E6B",
"5%	c #176879",
"6%	c #186F82",
"7%	c #117790",
"8%	c #117894",
"9%	c #0A7C9E",
"0%	c #0E7B9A",
"a%	c #167084",
"b%	c #176D83",
"c%	c #18697A",
"d%	c #127A95",
"e%	c #14788D",
"f%	c #157387",
"g%	c #18606F",
"h%	c #186877",
"i%	c #196776",
"j%	c #13768D",
"k%	c #14768A",
"l%	c #157083",
"m%	c #166575",
"n%	c #186372",
"o%	c #186978",
"p%	c #176777",
"q%	c #156A7E",
"r%	c #186474",
"s%	c #186F81",
"t%	c #186B7F",
"u%	c #0F7B9A",
"v%	c #166E80",
"w%	c #167186",
"x%	c #117892",
"y%	c #117B97",
"z%	c #167185",
"A%	c #177188",
"B%	c #1A6879",
"C%	c #196879",
"D%	c #14748A",
"E%	c #176575",
"F%	c #13778D",
"G%	c #12778E",
"H%	c #137890",
"I%	c #0C7B9C",
"J%	c #166879",
"K%	c #157388",
"L%	c #13788D",
"M%	c #196A7A",
"N%	c #18616F",
"O%	c #176373",
"P%	c #176677",
"Q%	c #117996",
"R%	c #186A7B",
"S%	c #166778",
"T%	c #176E81",
"U%	c #157389",
"V%	c #0C7F9D",
"W%	c #0D7D9D",
"X%	c #107894",
"Y%	c #12778F",
"Z%	c #15768A",
"`%	c #14768B",
" &	c #186F83",
".&	c #16697C",
"+&	c #127995",
"@&	c #176F83",
"#&	c #1A6778",
"$&	c #186271",
"%&	c #176271",
"&&	c #067EA3",
"*&	c #057EA4",
"=&	c #137A91",
"-&	c #156576",
";&	c #166574",
">&	c #176473",
",&	c #13768C",
"'&	c #137B92",
")&	c #107D9A",
"!&	c #196979",
"~&	c #196878",
"{&	c #077EA2",
"]&	c #186576",
"^&	c #0D7E9D",
"/&	c #117795",
"(&	c #196677",
"_&	c #137B91",
":&	c #147389",
"<&	c #186574",
"[&	c #1A6574",
"}&	c #166372",
"|&	c #186677",
"1&	c #147489",
"2&	c #176476",
"3&	c #176979",
"4&	c #166675",
"5&	c #165F6E",
"6&	c #176978",
"7&	c #186C80",
"8&	c #186473",
"9&	c #176A7C",
"0&	c #147588",
"a&	c #186A7A",
"b&	c #196877",
"c&	c #176D80",
"d&	c #137893",
"e&	c #15697A",
"f&	c #186575",
"g&	c #166C7F",
"h&	c #156E81",
"i&	c #157287",
"j&	c #156F84",
"k&	c #1A6777",
"l&	c #176A7A",
"m&	c #166273",
"n&	c #176A7D",
"o&	c #176A7B",
"p&	c #196E83",
"q&	c #156A7C",
"r&	c #196170",
"s&	c #196574",
"t&	c #17697A",
"u&	c #0B7C9D",
"v&	c #15697C",
"w&	c #13758E",
"x&	c #13768B",
"y&	c #0C7D9E",
"z&	c #196D7F",
"A&	c #0F7C9B",
"B&	c #196A7B",
"C&	c #1A6A7B",
"D&	c #14758B",
"  . + @ # $ % & * * = - ; > , ' ) ! ' ~ { ] ^ / ( _ : < [ } | 1 ",
"2 3 4 5 6 7 8 9 0 * a b c d e f g ) h , i j k l m n o p q r s | ",
"t u v w x y z A B C D q E F G H q I J K L a M N O P Q R S T U V ",
"W X Y Z `  ...+.@.#.$.%.&.*.=.-.;.>.,.'.).a !.~.{.Q Q R T S ].^.",
"o /.(._.:.<.[.}.|.1.2.L 3.4.5.6.7.8.9.0.a.b.p c.d.e.f.g.h.i.j.k.",
"l.m.n.n.o.p.q.r.s.t.u.v.w.x.y.z.A.B.C.D.E.F.G.H.I.J.K.L.M.N.O.P.",
"Q.N.R.S.T.U.V.W.X.Y.Z.`. +.+++@+#+$+%+&+*+=+-+;+>+,+'+)+!+~+* {+",
"]+^+/+(+_+:+<+[+}+|+1+2+3+4+5+6+7+8+9+0+a+b+c+d+e+f+g+h+i+j+].k+",
"l+m+n+o+p+q+r+s+t+u+v+w+x+y+z+A+B+C+D+E+F+G+H+I+J+K+L+M+N+O+P+Q+",
"R+S+T+U+V+W+X+Y+Z+`+ @.@+@@@#@$@%@&@*@=@-@;@>@,@K+'@)@!@~@{@]@^@",
"/@(@_@:@<@[@}@|@1@2@3@4@5@6@7@8@9@0@a@b@c@d@e@f@g@h@i@j@k@l@m@n@",
"o@p@q@r@s@t@u@v@w@x@y@z@A@B@C@D@E@F@G@H@I@J@K@L@M@N@O@P@Q@R@S@T@",
"U@V@W@X@Y@Z@`@ #.#+#@###$#%#&#*#=#-#;#>#,#'#)#!#~#{#]#^#/#(#_#:#",
"<#[#}#|#1#2#3#4#5#6#7#8#9#0#a#b#c#d#e#f#g#h#i#j#k#l#m#n#o#p#q#r#",
"s#t#u#v#w#x#y#z#A#B#C#D#E#F#G#H#I#J#K#L#M#N#K#O#P#Q#R#S#T#U#V#W#",
"X#Y#Z#`# $.$+$@$#$$$%$&$*$=$-$;$>$,$'$)$!$~${$]$^$/$($_$:$<$[$}$",
"|$1$2$3$4$5$6$7$8$8$8$9$0$5$a$b$c$d$e$f$g$h$i$j$8$k$8$l$m$n$n$o$",
"p$q$a$r$s$t$u$v$8$8$8$w$x$y$a$z$A$B$C$D$E$F$G$k$8$8$H$I$J$K$e$-$",
"h$L$M$N$O$P$8$s$Q$R$9$S$w$8$8$k$T$M$U$r$s$V$W$a$8$H$X$h$Y$l$Z$`$",
"h$ %p$p$.%+%9$@%#%R$8$8$$%%%&%*%T$M$a$=%8$9$P$-%;%H$h$h$>%,%q$h$",
"h$h$h$h$h$p$P$W$8$8$8$8$R$'%)%!%v$W$l$~%q${%]%W$^%/%h$(%Z$_%q$:%",
"/%h$h$h$<%X$[%7$8$8$8$8$[%}%|%1%a$P$8$2%l$^%]%W$$%^%M$3%4%5%6%7%",
"[%8%9%0%a%b%M$6%c%d%e%f%g%h%c%i%8$j%k%k%l%5$E$b$8$m%n%o%p%r$l$$%",
"q%r%s%8$t%*%p$u%v%[%w%f%x$y$]%a$j%x%.%y%z%V$A%M$%%B%C%1$1$u$8$%%",
"M$D%E%F%G%G%H%I%b$J%8$8$8$s%K%L%M%d%h$h$/%j%N%O%P%9$8$s%8$8$Q%f$",
"M$k%R%&%h$h$&%8$P$P$8$8$8$8$S%L%T%U%V%W%^%l$s$X%9% %H$8$k$8$K%Y%",
"P%9$8$Z%L$*%k%Q$l$8$8$8$`% &.&+&q$@&#&6$$&%&Y%&&*&&&H$9$w%=&M$-&",
"8$8$8$8$Q$;&l$@%>&%%,&&%'&k%)&h$p$M$1$!&~&n%M${&&&E$]&~&M$^&/&(&",
"_&k%8$8$>&%%8$:&r%<&t$[%[&9$j$q${%}&|&9$1&2&3&a$l%4&5&6&l$7&5$8&",
"9&'&H$s%9$8$8$8$0&a&b&c&d&Y$H$e&f&g&h&i&j&x$6$k$k&3$l&{%>%F%z%m&",
"E%n&a$v$/%h$y%k%8$o&E%*%h$h$p$p&q&G%F%l$r&w$s&^%q$M$t&b$u&M$2%v&",
"8$H$b$a$/%h$h$.%H$w&x&.%:%y&q$z&M$A&j$l$B&a$C&D%h$/%P$P$z&7&2%D&"};
