/* XPM */
static char * wallwater_corner_bottomright_3_xpm[] = {
"32 32 739 2",
"  	c #147589",
". 	c #196A7C",
"+ 	c #15758B",
"@ 	c #127991",
"# 	c #157286",
"$ 	c #117893",
"% 	c #127892",
"& 	c #166F83",
"* 	c #186372",
"= 	c #1A6C7D",
"- 	c #14768A",
"; 	c #0F7C9A",
"> 	c #0D7D9B",
", 	c #117B96",
"' 	c #127993",
") 	c #097C9F",
"! 	c #097393",
"~ 	c #1B6F88",
"{ 	c #3A777A",
"] 	c #3F5E2D",
"^ 	c #496535",
"/ 	c #5C7B37",
"( 	c #56703C",
"_ 	c #575D3D",
": 	c #73822D",
"< 	c #6F7E2C",
"[ 	c #637231",
"} 	c #176E82",
"| 	c #156F84",
"1 	c #17606F",
"2 	c #196576",
"3 	c #14768F",
"4 	c #176473",
"5 	c #186777",
"6 	c #157285",
"7 	c #117B97",
"8 	c #0F7C98",
"9 	c #0B7C9C",
"0 	c #12768E",
"a 	c #0E708A",
"b 	c #1A778F",
"c 	c #36695B",
"d 	c #485F27",
"e 	c #6B8929",
"f 	c #6C7A31",
"g 	c #4E5141",
"h 	c #595F3F",
"i 	c #5E683A",
"j 	c #535F3F",
"k 	c #157083",
"l 	c #175E6C",
"m 	c #196372",
"n 	c #186778",
"o 	c #196A7A",
"p 	c #15748A",
"q 	c #0E7D9B",
"r 	c #127990",
"s 	c #185E6D",
"t 	c #16697D",
"u 	c #167386",
"v 	c #0A7DA0",
"w 	c #147387",
"x 	c #145C6D",
"y 	c #247381",
"z 	c #37705E",
"A 	c #456C13",
"B 	c #5F7E34",
"C 	c #628036",
"D 	c #70872C",
"E 	c #717F2F",
"F 	c #5B633C",
"G 	c #525742",
"H 	c #636F33",
"I 	c #1A6B7C",
"J 	c #166D7F",
"K 	c #167285",
"L 	c #18687A",
"M 	c #146D82",
"N 	c #196878",
"O 	c #186576",
"P 	c #177186",
"Q 	c #14768B",
"R 	c #15697A",
"S 	c #117790",
"T 	c #11677B",
"U 	c #2B7686",
"V 	c #437875",
"W 	c #2C4303",
"X 	c #54750F",
"Y 	c #708E28",
"Z 	c #608235",
"` 	c #6E872B",
" .	c #68772D",
"..	c #658725",
"+.	c #69782E",
"@.	c #13778E",
"#.	c #107B97",
"$.	c #117995",
"%.	c #0F7A98",
"&.	c #137894",
"*.	c #147488",
"=.	c #196776",
"-.	c #186A7A",
";.	c #186F81",
">.	c #19687A",
",.	c #166272",
"'.	c #13758F",
").	c #107A96",
"!.	c #106F86",
"~.	c #17697E",
"{.	c #439FB1",
"].	c #304622",
"^.	c #315700",
"/.	c #647A1B",
"(.	c #5D8037",
"_.	c #547737",
":.	c #669414",
"<.	c #659605",
"[.	c #637C2B",
"}.	c #1A6373",
"|.	c #196475",
"1.	c #107998",
"2.	c #107996",
"3.	c #176D81",
"4.	c #186374",
"5.	c #196474",
"6.	c #157082",
"7.	c #157185",
"8.	c #186C80",
"9.	c #136D81",
"0.	c #115F74",
"a.	c #268A99",
"b.	c #506F4B",
"c.	c #436B1E",
"d.	c #50740D",
"e.	c #68882B",
"f.	c #5B8A2A",
"g.	c #7FAC0C",
"h.	c #709D16",
"i.	c #50603C",
"j.	c #087DA1",
"k.	c #0B7D9D",
"l.	c #0C7D9E",
"m.	c #167084",
"n.	c #157387",
"o.	c #196E80",
"p.	c #077EA2",
"q.	c #087EA2",
"r.	c #117A96",
"s.	c #1A697A",
"t.	c #1A6B7D",
"u.	c #156A7B",
"v.	c #13768C",
"w.	c #166475",
"x.	c #135D71",
"y.	c #297990",
"z.	c #5CAAAE",
"A.	c #515F1F",
"B.	c #617C05",
"C.	c #9FB30A",
"D.	c #86A11F",
"E.	c #7DA21B",
"F.	c #4E6734",
"G.	c #515442",
"H.	c #0D7D9D",
"I.	c #057EA4",
"J.	c #067EA3",
"K.	c #117993",
"L.	c #166677",
"M.	c #176676",
"N.	c #177187",
"O.	c #167086",
"P.	c #196A7D",
"Q.	c #117C95",
"R.	c #0F7D99",
"S.	c #106A7F",
"T.	c #0A5971",
"U.	c #459CB4",
"V.	c #365F61",
"W.	c #958D20",
"X.	c #9FB80E",
"Y.	c #89AE1C",
"Z.	c #96AA14",
"`.	c #909D1F",
" +	c #5F6A3B",
".+	c #196170",
"++	c #157589",
"@+	c #137793",
"#+	c #147287",
"$+	c #186574",
"%+	c #176E80",
"&+	c #186A7C",
"*+	c #176C80",
"=+	c #147991",
"-+	c #176373",
";+	c #107997",
">+	c #0B7D9E",
",+	c #0C7D9C",
"'+	c #0E7C9A",
")+	c #176C82",
"!+	c #156577",
"~+	c #185666",
"{+	c #0F627B",
"]+	c #547F5F",
"^+	c #87A41D",
"/+	c #8CAF1D",
"(+	c #668330",
"_+	c #6E8B29",
":+	c #97A615",
"<+	c #9EAE0E",
"[+	c #18606F",
"}+	c #1A6979",
"|+	c #1A6777",
"1+	c #196C7E",
"2+	c #186C7D",
"3+	c #17697A",
"4+	c #14788C",
"5+	c #107B96",
"6+	c #157386",
"7+	c #186675",
"8+	c #147388",
"9+	c #117791",
"0+	c #12778F",
"a+	c #196D81",
"b+	c #177082",
"c+	c #127185",
"d+	c #17667B",
"e+	c #1C7791",
"f+	c #6C832F",
"g+	c #9BB911",
"h+	c #789A26",
"i+	c #50623E",
"j+	c #436930",
"k+	c #608F16",
"l+	c #748F24",
"m+	c #12778E",
"n+	c #157184",
"o+	c #147389",
"p+	c #14758A",
"q+	c #117994",
"r+	c #0C7D9D",
"s+	c #186776",
"t+	c #195F6E",
"u+	c #276E7E",
"v+	c #117084",
"w+	c #186476",
"x+	c #2D7480",
"y+	c #637E2B",
"z+	c #7CA425",
"A+	c #608137",
"B+	c #47513C",
"C+	c #759F1C",
"D+	c #5A8026",
"E+	c #4E5041",
"F+	c #107A95",
"G+	c #0D7C9A",
"H+	c #186879",
"I+	c #13778D",
"J+	c #177893",
"K+	c #0F748F",
"L+	c #276D7F",
"M+	c #708E2E",
"N+	c #6B8C2D",
"O+	c #55673E",
"P+	c #525D41",
"Q+	c #567830",
"R+	c #4B553D",
"S+	c #44473C",
"T+	c #147690",
"U+	c #157488",
"V+	c #14768C",
"W+	c #107A98",
"X+	c #156B7D",
"Y+	c #186B7C",
"Z+	c #14788E",
"`+	c #0F7B99",
" @	c #186676",
".@	c #196C7D",
"+@	c #18697A",
"@@	c #317686",
"#@	c #0F5465",
"$@	c #4E806C",
"%@	c #506B39",
"&@	c #516C3A",
"*@	c #648536",
"=@	c #788A2A",
"-@	c #7D9F20",
";@	c #778C29",
">@	c #6B7932",
",@	c #515742",
"'@	c #196879",
")@	c #177083",
"!@	c #156F82",
"~@	c #167185",
"{@	c #15778D",
"]@	c #115D6E",
"^@	c #276878",
"/@	c #38616B",
"(@	c #647E32",
"_@	c #4B6736",
":@	c #6A8832",
"<@	c #7FA621",
"[@	c #87A31C",
"}@	c #72862E",
"|@	c #5D683C",
"1@	c #565F3E",
"2@	c #59623E",
"3@	c #196D7F",
"4@	c #13768D",
"5@	c #14748A",
"6@	c #1A6A7B",
"7@	c #137389",
"8@	c #105466",
"9@	c #2C6273",
"0@	c #40717B",
"a@	c #5F7336",
"b@	c #648235",
"c@	c #77972A",
"d@	c #718830",
"e@	c #58633C",
"f@	c #4B4E3F",
"g@	c #545A41",
"h@	c #71842F",
"i@	c #127894",
"j@	c #1B6A7B",
"k@	c #196979",
"l@	c #12748C",
"m@	c #114959",
"n@	c #216F89",
"o@	c #439099",
"p@	c #7AA01F",
"q@	c #6A8E2A",
"r@	c #66931C",
"s@	c #515540",
"t@	c #45473C",
"u@	c #677532",
"v@	c #778A2A",
"w@	c #166473",
"x@	c #186373",
"y@	c #127A94",
"z@	c #0D7D9C",
"A@	c #14778D",
"B@	c #186D7F",
"C@	c #166B7F",
"D@	c #11596A",
"E@	c #1F494F",
"F@	c #739C36",
"G@	c #7EA721",
"H@	c #6E902C",
"I@	c #63852A",
"J@	c #5E8B1A",
"K@	c #5E871E",
"L@	c #464B3D",
"M@	c #5F6939",
"N@	c #627133",
"O@	c #545A3D",
"P@	c #186E80",
"Q@	c #167286",
"R@	c #19697B",
"S@	c #165E6C",
"T@	c #166576",
"U@	c #0C7E9D",
"V@	c #147790",
"W@	c #176F81",
"X@	c #17606E",
"Y@	c #127891",
"Z@	c #0C7997",
"`@	c #0B617C",
" #	c #345F5C",
".#	c #749224",
"+#	c #73922E",
"@#	c #516D37",
"##	c #4B6039",
"$#	c #4F5E3E",
"%#	c #4D6F30",
"&#	c #5D6937",
"*#	c #697730",
"=#	c #5A623C",
"-#	c #484D3D",
";#	c #4C4F40",
">#	c #12788F",
",#	c #196978",
"'#	c #196B7C",
")#	c #127992",
"!#	c #0C7593",
"~#	c #12607C",
"{#	c #396054",
"]#	c #687F35",
"^#	c #536C39",
"/#	c #54703A",
"(#	c #5B7339",
"_#	c #535941",
":#	c #515C40",
"<#	c #55653A",
"[#	c #515A41",
"}#	c #494C3F",
"|#	c #5D663A",
"1#	c #74882A",
"2#	c #17758A",
"3#	c #137A90",
"4#	c #0F7B97",
"5#	c #186C7F",
"6#	c #0D7B99",
"7#	c #0B6E8B",
"8#	c #125B76",
"9#	c #547B02",
"0#	c #54892A",
"a#	c #4C6837",
"b#	c #546A3E",
"c#	c #72812C",
"d#	c #667531",
"e#	c #4E613C",
"f#	c #436A2F",
"g#	c #505342",
"h#	c #667137",
"i#	c #73822C",
"j#	c #6F832A",
"k#	c #0D7E9C",
"l#	c #137A92",
"m#	c #1B697A",
"n#	c #15758C",
"o#	c #0E7D9A",
"p#	c #17778B",
"q#	c #17687B",
"r#	c #0F7794",
"s#	c #127997",
"t#	c #0A657E",
"u#	c #2D5D43",
"v#	c #75AB03",
"w#	c #77B007",
"x#	c #4C5D3B",
"y#	c #647438",
"z#	c #87A11D",
"A#	c #7B892C",
"B#	c #535C40",
"C#	c #67762D",
"D#	c #667436",
"E#	c #4E5340",
"F#	c #186E82",
"G#	c #196373",
"H#	c #126E85",
"I#	c #165A6B",
"J#	c #195968",
"K#	c #0E627A",
"L#	c #0D657F",
"M#	c #116A85",
"N#	c #1A6371",
"O#	c #40732D",
"P#	c #5B941E",
"Q#	c #81B80B",
"R#	c #51683C",
"S#	c #466634",
"T#	c #4D533D",
"U#	c #809826",
"V#	c #A5B107",
"W#	c #75822D",
"X#	c #647133",
"Y#	c #5A683B",
"Z#	c #464C3D",
"`#	c #4C563E",
" $	c #176170",
".$	c #127184",
"+$	c #126F82",
"@$	c #106577",
"#$	c #126172",
"$$	c #155E6E",
"%$	c #125262",
"&$	c #194F5A",
"*$	c #1A4C56",
"=$	c #19535F",
"-$	c #175D6D",
";$	c #155364",
">$	c #2D6053",
",$	c #47781D",
"'$	c #447006",
")$	c #446812",
"!$	c #617C1E",
"~$	c #9EB40F",
"{$	c #729D26",
"]$	c #5E971D",
"^$	c #53673E",
"/$	c #484B3E",
"($	c #47493D",
"_$	c #4E6F30",
":$	c #658129",
"<$	c #657333",
"[$	c #474C3E",
"}$	c #4F543D",
"|$	c #6E7C30",
"1$	c #155260",
"2$	c #156B7E",
"3$	c #126F84",
"4$	c #116273",
"5$	c #1A5B67",
"6$	c #2A453A",
"7$	c #2A453C",
"8$	c #1A5E6D",
"9$	c #236A5F",
"0$	c #53782B",
"a$	c #6C9C04",
"b$	c #658C0A",
"c$	c #304145",
"d$	c #355A4A",
"e$	c #4E8523",
"f$	c #90B308",
"g$	c #79B10E",
"h$	c #69A013",
"i$	c #86AF1F",
"j$	c #83A221",
"k$	c #5C7A38",
"l$	c #50643D",
"m$	c #4D543A",
"n$	c #44463C",
"o$	c #52613D",
"p$	c #769528",
"q$	c #717F2E",
"r$	c #5F8125",
"s$	c #5C8225",
"t$	c #55623A",
"u$	c #243D31",
"v$	c #1D5055",
"w$	c #225955",
"x$	c #2C6E52",
"y$	c #4D7400",
"z$	c #597E13",
"A$	c #4A7306",
"B$	c #325800",
"C$	c #304D1B",
"D$	c #536F38",
"E$	c #5F8434",
"F$	c #6C8F31",
"G$	c #849E2B",
"H$	c #718A2A",
"I$	c #6B852A",
"J$	c #638037",
"K$	c #6CA01B",
"L$	c #779B25",
"M$	c #6F8C2F",
"N$	c #607C34",
"O$	c #52603F",
"P$	c #5D673B",
"Q$	c #66752E",
"R$	c #4F573B",
"S$	c #4B513E",
"T$	c #575D3E",
"U$	c #626E34",
"V$	c #687436",
"W$	c #658723",
"X$	c #4A6139",
"Y$	c #4F5241",
"Z$	c #3E5B2C",
"`$	c #425B24",
" %	c #3A5323",
".%	c #4A7115",
"+%	c #62950A",
"@%	c #638418",
"#%	c #5A8D06",
"$%	c #326500",
"%%	c #5A7427",
"&%	c #7B9E28",
"*%	c #81AD1F",
"=%	c #78A023",
"-%	c #669F13",
";%	c #548030",
">%	c #55703C",
",%	c #53643E",
"'%	c #57633C",
")%	c #53613F",
"!%	c #647231",
"~%	c #5A683D",
"{%	c #71802E",
"]%	c #626F33",
"^%	c #57653D",
"/%	c #6F7D2D",
"(%	c #627033",
"_%	c #5B653D",
":%	c #7B9823",
"<%	c #6B7D2F",
"[%	c #45483C",
"}%	c #5E7837",
"|%	c #68822C",
"1%	c #4E6831",
"2%	c #6C9315",
"3%	c #78A51A",
"4%	c #64921D",
"5%	c #7BA91D",
"6%	c #6B8C26",
"7%	c #95B515",
"8%	c #9EAC11",
"9%	c #708231",
"0%	c #698431",
"a%	c #5A7A36",
"b%	c #77A712",
"c%	c #7DA719",
"d%	c #6A7B2D",
"e%	c #697C2F",
"f%	c #4C553D",
"g%	c #4A4C3F",
"h%	c #525B41",
"i%	c #607539",
"j%	c #799127",
"k%	c #5B633E",
"l%	c #565C3F",
"m%	c #718828",
"n%	c #799226",
"o%	c #63940A",
"p%	c #5E7335",
"q%	c #7D9E20",
"r%	c #758929",
"s%	c #46493D",
"t%	c #6C7E2C",
"u%	c #616F38",
"v%	c #617539",
"w%	c #658D24",
"x%	c #4C5E36",
"y%	c #55633C",
"z%	c #6D9615",
"A%	c #7DA121",
"B%	c #677335",
"C%	c #54613F",
"D%	c #515D41",
"E%	c #58623F",
"F%	c #5C7037",
"G%	c #6F8529",
"H%	c #9DAD0F",
"I%	c #98A41D",
"J%	c #6F882E",
"K%	c #56613D",
"L%	c #7C9A22",
"M%	c #606D36",
"N%	c #6D802B",
"O%	c #7BA219",
"P%	c #4D702F",
"Q%	c #5F6C35",
"R%	c #677535",
"S%	c #5D6837",
"T%	c #607338",
"U%	c #6F7A35",
"V%	c #627437",
"W%	c #51583A",
"X%	c #788F28",
"Y%	c #799623",
"Z%	c #667336",
"`%	c #4D5240",
" &	c #667F26",
".&	c #738928",
"+&	c #879E1E",
"@&	c #6B7634",
"#&	c #61802C",
"$&	c #709D15",
"%&	c #7A9F1C",
"&&	c #92A219",
"*&	c #9CAA13",
"=&	c #A5B205",
"-&	c #7F8E27",
";&	c #70802C",
">&	c #6A792D",
",&	c #73862A",
"'&	c #657433",
")&	c #4E5541",
"!&	c #474A3E",
"~&	c #657233",
"{&	c #6B7E2D",
"]&	c #4A742A",
"^&	c #46513B",
"/&	c #809727",
"(&	c #9DAC12",
"_&	c #89A01D",
":&	c #6B7D35",
"<&	c #5E663B",
"[&	c #758F28",
"}&	c #606E38",
"|&	c #4D4F41",
"1&	c #587A28",
"2&	c #5F8F13",
"3&	c #667F2A",
"4&	c #93A816",
"5&	c #9FAC10",
"6&	c #6F8725",
"7&	c #556A38",
"8&	c #58613D",
"9&	c #5F6B39",
"0&	c #6A7B2C",
"a&	c #90A718",
"b&	c #839C1F",
"c&	c #687630",
"d&	c #72842E",
"e&	c #789228",
"f&	c #575E3D",
"g&	c #4E5441",
"h&	c #6D7C32",
"i&	c #647432",
"j&	c #608B1E",
"k&	c #5A8027",
"l&	c #575E3F",
"m&	c #95A817",
"n&	c #627339",
"o&	c #7A9525",
"p&	c #606E36",
"q&	c #56643D",
"r&	c #637036",
"s&	c #6B7A2C",
"t&	c #525F40",
"u&	c #515642",
"v&	c #5B7631",
"w&	c #739B17",
"x&	c #7E9724",
"y&	c #6B7734",
"z&	c #5D7E30",
"A&	c #7CAA0A",
"B&	c #6E8F2D",
"C&	c #677437",
"D&	c #7D9D21",
"E&	c #58623E",
"F&	c #667532",
"G&	c #5B693C",
"H&	c #5E6A37",
"I&	c #4C6437",
"J&	c #6D8F1C",
"K&	c #9EAA11",
"L&	c #526040",
"M&	c #4E583F",
"N&	c #73842B",
"O&	c #76862B",
"P&	c #59663C",
"Q&	c #707F2C",
"R&	c #567E29",
"S&	c #6B9B06",
"T&	c #859225",
"U&	c #9EAA10",
"V&	c #679805",
"W&	c #6E8D22",
"X&	c #647238",
"Y&	c #555C3F",
"Z&	c #494F3D",
"`&	c #505640",
" *	c #515841",
".*	c #9FAC11",
"+*	c #8F9C1F",
"      . + @ # $ % & * =     - - ; > , ' ) ! ~ { ] ^ / ( _ : < [ ",
"}   | 1 2 +   ' 3 4 5 6     7 8 > > 9   0 a b c d ^ e f g h i j ",
"k l m n o p ; > q r s t u   > 8 8 v '   w x y z A B C D E F G H ",
"I J 6 K p ; > > q r L M N O P Q - P R ' S T U V W X Y Z `  ...+.",
"@.#.7 -   $.%.&.u   *.K =.-.;.  >.l ,.'.).!.~.{.].^./.(._.:.<.[.",
"q > > 7     K }.|.$ 1.2.K 3.    4.5.6.7.8.9.0.a.b.c.d.e.f.g.h.i.",
"j.k.k.l.m.n.    o.% p.q.r.  s.t.u.#.; ; v.w.x.y.z.A.B.C.D.E.F.G.",
"H.I.J.K.L.      K M.N.@.O.} * P.Q.> > > R.w S.T.U.V.W.X.Y.Z.`. +",
".+++@+#+$+%+    *.*.&+*+@.#.=+4 -+;+>+,+'+)+!+~+{+]+^+/+(+_+:+<+",
"5.[+}+|+k K 1+2+3+*.  4+q > 5+6+7+8+9+0+a+b+c+d+e+f+g+h+i+j+k+l+",
"6+1+  v.m+@.n+.+o+  p+q+> > r++ s+}+|+t+;.u+v+w+x+y+z+A+B+C+D+E+",
"    r.'+> @ n+.+    - F+> > G+H+O }+}+|+I+J+K+L+b.M+N+O+P+Q+R+S+",
"T+U+V+$.W+).X+7+Y+% Z+`+k.q #.O. @.@  ;.+@@@#@$@%@&@*@=@-@;@>@,@",
"'@K *.K 1+)@!@~@{@*.@.S S @.    *.3.    ]@^@/@(@_@:@<@[@}@|@1@2@",
"3@8.4@;.1+4@; > > ; 5@6@1+          6@7@8@9@0@a@b@c@d@e@f@S+g@h@",
"`+8 r.  5@; > > > > i@6@j@6+      ;.k@l@m@n@o@p@q@r@s@t@S+f@u@v@",
"K % T+w@x@y@z@> '+A@  }   1+I 6.k B@C@D@E@F@G@H@I@J@K@L@M@< N@O@",
"K P@Q@R@S@T@$ U@%.}     ' V@W@X@x@Y@Z@`@ #.#+#@###$#%#&#*#=#-#;#",
"  } >#@.6 ,#'#m t.K   ' )#> 5+1+p+#.!#~#{#]#^#/#(#_#:#<#[#}#|#1#",
"r., >#@.K 2#  u *.3.3#' > > 4#5##.6#7#8#9#0#a#b#c#d#e#f#g#h#i#j#",
"k#l#m#t.1+n##.Y@U+t.p ; q o#p#q#r#s#t#u#v#w#%@x#y#z#A#B#=#C#D#E#",
"F#G#K *.  # 1+p U+t.j@o+H#I#J#K#L#M#N#O#P#Q#R#S#T#U#V#W#X#Y#Z#`#",
" $=.  .$+$@$#$$$%$&$*$=$-$;$>$,$'$)$!$~${$]$^$/$($_$:$[@<$[$}$|$",
"1$2$3$4$5$6$7$8$9$0$a$b$c$d$e$f$g$h$i$j$k$l$N@m$n$K@o$p$q$r$s$t$",
"u$v$w$x$y$z$A$B$C$D$E$F$G$H$I$J$K$L$M$N$O$P$Q$R$S$T$U$V$c#W$X$Y$",
"Z$`$ %.%+%@%#%$%%%+#&%*%=%-%;%>%,%'%)%!%~%{%]%G.^%/%(%_%:%<%Y$[%",
"}%|%1%2%3%4%5%6%7%8%9%0%a%b%c%d%e%f%g%h%i%j%k%l%m%n%o%p%q%r%S+s%",
"t%u%v%w%x%y%z%A%8%B%C%D%E%F%G%n%H%I%J%K%|@L%M%(%N%O%P%Q%L%R%s%S%",
"f T%U%V%W%e@X%Y%Z%`% &.&+&@&#&$&%&&&*&=&-&;&>&,&'&)&!&~&{&]&^&S%",
"/&(&_&:&<&[&:%}&|&1&2&3&4&5&6&7&8&9&0&-&a&b&c&d&e&f&g&h&i&j&k&l&",
"m&n&`#($R%o&p&q&r&s&t&u&v&w&x&y&z&A&B&C&v@D&<$E&F&G&8&>&H&I&J&K&",
"n&L&f@M&N&O&P&Q$Q&Z%u&G.R&S&T&U&V&W&[#u&X&v@[&Y&Z&`&8&>& *M%.*+*"};
