/* XPM */
static char * wallwater_middle_3_xpm[] = {
"32 32 334 2",
"  	c #157083",
". 	c #186D7F",
"+ 	c #186D81",
"@ 	c #156575",
"# 	c #196777",
"$ 	c #1A697A",
"% 	c #1A6677",
"& 	c #17606F",
"* 	c #17616F",
"= 	c #186776",
"- 	c #147589",
"; 	c #167386",
"> 	c #176372",
", 	c #167285",
"' 	c #127892",
") 	c #147690",
"! 	c #166473",
"~ 	c #186373",
"{ 	c #127A94",
"] 	c #0D7D9C",
"^ 	c #0D7D9B",
"/ 	c #0E7C9A",
"( 	c #14778D",
"_ 	c #176E82",
": 	c #196C7E",
"< 	c #1A6B7C",
"[ 	c #126577",
"} 	c #127891",
"| 	c #0E7D9B",
"1 	c #107B97",
"2 	c #167286",
"3 	c #196978",
"4 	c #196B7C",
"5 	c #157284",
"6 	c #177082",
"7 	c #1B697A",
"8 	c #186778",
"9 	c #16606E",
"0 	c #166F81",
"a 	c #186E80",
"b 	c #19697B",
"c 	c #165E6C",
"d 	c #166576",
"e 	c #117893",
"f 	c #0C7E9D",
"g 	c #0F7A98",
"h 	c #127993",
"i 	c #147790",
"j 	c #166F82",
"k 	c #136376",
"l 	c #14758A",
"m 	c #0F7B98",
"n 	c #13778E",
"o 	c #167087",
"p 	c #187083",
"q 	c #147488",
"r 	c #196A7C",
"s 	c #167184",
"t 	c #186678",
"u 	c #12788F",
"v 	c #157285",
"w 	c #196372",
"x 	c #1A6B7D",
"y 	c #127992",
"z 	c #117B96",
"A 	c #186C7F",
"B 	c #0E7B98",
"C 	c #0F7C98",
"D 	c #176F85",
"E 	c #196272",
"F 	c #176475",
"G 	c #1B6A7B",
"H 	c #157386",
"I 	c #117A96",
"J 	c #17758A",
"K 	c #176D81",
"L 	c #137A90",
"M 	c #0F7B97",
"N 	c #0C7D9D",
"O 	c #137791",
"P 	c #0D7E9C",
"Q 	c #137A92",
"R 	c #15758C",
"S 	c #157488",
"T 	c #15748A",
"U 	c #0F7C9A",
"V 	c #0E7D9A",
"W 	c #176C80",
"X 	c #186F82",
"Y 	c #117790",
"Z 	c #097DA0",
"` 	c #19697A",
" .	c #196B7D",
"..	c #186E82",
"+.	c #196373",
"@.	c #157286",
"#.	c #156C7F",
"$.	c #165E6B",
"%.	c #176879",
"&.	c #117894",
"*.	c #0A7C9E",
"=.	c #0E7B9A",
"-.	c #167084",
";.	c #176D83",
">.	c #18697A",
",.	c #127A95",
"'.	c #14788D",
").	c #157387",
"!.	c #18606F",
"~.	c #186877",
"{.	c #196776",
"].	c #13768D",
"^.	c #14768A",
"/.	c #166575",
"(.	c #186372",
"_.	c #186978",
":.	c #176777",
"<.	c #156A7E",
"[.	c #186474",
"}.	c #186F81",
"|.	c #186B7F",
"1.	c #0F7B9A",
"2.	c #166E80",
"3.	c #167186",
"4.	c #117892",
"5.	c #117B97",
"6.	c #167185",
"7.	c #177188",
"8.	c #1A6879",
"9.	c #196879",
"0.	c #1A6979",
"a.	c #13778F",
"b.	c #156E82",
"c.	c #157082",
"d.	c #12778E",
"e.	c #0C7B9C",
"f.	c #14748A",
"g.	c #15697A",
"h.	c #14768B",
"i.	c #167387",
"j.	c #176F81",
"k.	c #157183",
"l.	c #175F6D",
"m.	c #176575",
"n.	c #186A7B",
"o.	c #14758C",
"p.	c #0F7C9B",
"q.	c #12778F",
"r.	c #147286",
"s.	c #196A7D",
"t.	c #117992",
"u.	c #0C7F9D",
"v.	c #13768C",
"w.	c #165F6E",
"x.	c #186A7C",
"y.	c #1A6778",
"z.	c #186B7D",
"A.	c #166C82",
"B.	c #196B7E",
"C.	c #196473",
"D.	c #176373",
"E.	c #166776",
"F.	c #057EA4",
"G.	c #0A7DA0",
"H.	c #13778D",
"I.	c #177084",
"J.	c #137991",
"K.	c #13788E",
"L.	c #185F6E",
"M.	c #176A79",
"N.	c #127B95",
"O.	c #13788F",
"P.	c #186777",
"Q.	c #0A7DA1",
"R.	c #147389",
"S.	c #186575",
"T.	c #186C7D",
"U.	c #0C7E9E",
"V.	c #156D84",
"W.	c #137B91",
"X.	c #176473",
"Y.	c #186574",
"Z.	c #1A6574",
"`.	c #166372",
" +	c #186677",
".+	c #147489",
"++	c #176476",
"@+	c #176979",
"#+	c #166675",
"$+	c #176978",
"%+	c #186C80",
"&+	c #186473",
"*+	c #176A7C",
"=+	c #137B92",
"-+	c #147588",
";+	c #186A7A",
">+	c #196877",
",+	c #176D80",
"'+	c #137893",
")+	c #107B96",
"!+	c #166C7F",
"~+	c #156E81",
"{+	c #157287",
"]+	c #156F84",
"^+	c #1A6777",
"/+	c #176A7A",
"(+	c #166273",
"_+	c #176A7D",
":+	c #176A7B",
"<+	c #196E83",
"[+	c #156A7C",
"}+	c #196170",
"|+	c #196574",
"1+	c #17697A",
"2+	c #0B7C9D",
"3+	c #15697C",
"4+	c #13758E",
"5+	c #13768B",
"6+	c #0C7D9E",
"7+	c #196D7F",
"8+	c #196A7B",
"9+	c #1A6A7B",
"0+	c #14758B",
"a+	c #097DA1",
"b+	c #0B7D9E",
"c+	c #107A97",
"d+	c #127895",
"e+	c #177083",
"f+	c #15758B",
"g+	c #127991",
"h+	c #166F83",
"i+	c #1A6C7D",
"j+	c #0B7C9C",
"k+	c #117791",
"l+	c #0D7E9D",
"m+	c #196475",
"n+	c #166879",
"o+	c #0F7D99",
"p+	c #117896",
"q+	c #196576",
"r+	c #14768F",
"s+	c #147387",
"t+	c #166272",
"u+	c #176E83",
"v+	c #0D7D9D",
"w+	c #0F7B99",
"x+	c #176677",
"y+	c #0B7DA0",
"z+	c #175E6C",
"A+	c #196A7A",
"B+	c #127990",
"C+	c #185E6D",
"D+	c #16697D",
"E+	c #177186",
"F+	c #15758A",
"G+	c #077EA2",
"H+	c #077EA3",
"I+	c #196878",
"J+	c #186F83",
"K+	c #166D7F",
"L+	c #18687A",
"M+	c #146D82",
"N+	c #186576",
"O+	c #19687A",
"P+	c #13758F",
"Q+	c #0C7C9E",
"R+	c #0C7B9B",
"S+	c #196677",
"T+	c #117995",
"U+	c #137894",
"V+	c #186374",
"W+	c #196474",
"X+	c #157185",
"Y+	c #157388",
"Z+	c #1A6373",
"`+	c #107998",
" @	c #107996",
".@	c #156A7B",
"+@	c #186878",
"@@	c #127894",
"#@	c #087DA1",
"$@	c #0B7D9D",
"%@	c #196E80",
"&@	c #087EA2",
"*@	c #117C95",
"=@	c #157589",
"-@	c #0E7C9D",
";@	c #1A697B",
">@	c #067EA3",
",@	c #117993",
"'@	c #166677",
")@	c #176676",
"!@	c #177187",
"~@	c #167086",
"{@	c #107997",
"]@	c #0C7D9C",
"^@	c #186C83",
"/@	c #156574",
"(@	c #137793",
"_@	c #147287",
":@	c #176E80",
"<@	c #147991",
"[@	c #186675",
"}@	c #147388",
"|@	c #196D81",
"1@	c #167083",
"2@	c #14788C",
"3@	c #195F6E",
"4@	c #157184",
"5@	c #117994",
"6@	c #107A95",
"7@	c #0D7C9A",
"8@	c #186879",
"9@	c #186676",
"0@	c #196C7D",
"a@	c #176D84",
"b@	c #097C9F",
"c@	c #14768C",
"d@	c #107A98",
"e@	c #107A96",
"f@	c #156B7D",
"g@	c #186B7C",
"h@	c #14788E",
"i@	c #156F82",
"j@	c #15778D",
"k@	c #176474",
"l@	c #17697B",
"m@	c #0F7A99",
"n@	c #127B94",
"o@	c #156E83",
"p@	c #165F6C",
"q@	c #186B7E",
"r@	c #157187",
"s@	c #0F7D98",
"  . + @ # $ % & * = - - - ; > & , ' ) ! ~ { ] ^ / ( - _ - : < [ ",
"~ } | 1 2 3 4 5 6 7 - - - 8 9 0 , a 2 b c d e f g _ - - h i j k ",
"l m ^ m n o p q - 4 r s ; t 8 - - _ u n v 3 4 w x , - h y ^ z A ",
"1 ^ ^ B | | C D ; E F s - - G H I z u n , J - ; q K L h ^ ^ M A ",
"1 N ^ ^ ^ ^ ^ | q x - - - - s O P Q 7 x : R 1 } S x T U ^ V l W ",
"X Y U ^ ^ ^ Z y ` = - - - - `  ...+., q - @.: T S x G T n #.$.%.",
": G ` &.*.=.-.;.n X >.,.'.).!.~.>.{.- ].^.^.  & e ' - /.(._.:.3 ",
"- H <.[.}.- |.z | 1.2.` 3.).9 0 S , ].4.C 5.6.w 7.n H 8.9.0.0.6 ",
"a.n b.c.n d.n { e.f.g.- - - a h.i.j.U ^ ^ 1 k.l.m.n.- - }.- o.p.",
"q.n s s U ^ | n - H - - - -   r.^.s.t.u.1.X x 2.=.*.1 v.).).q o.",
"w.x.- - n m h - y., - - - ].z.A.U } B.C.& D.E.=.F.F.G.H.I.J.K.].",
"x.- - - ; 8 :.: L.M.- h N.O.n | ^ U , 3 8.= P.m F.Q.R.S.T.I U.V.",
"W.^.- - X.H - R.[.Y.5 ` Z.; ( 1 } `. +; .+++@+,   #+w.$+: %+& &+",
"*+=+h }.; - - - -+;+>+,+'+)+h g.S.!+~+{+]+9 * _ ^+$ /+} M H.6.(+",
"m._+, 7 U ^ 5.^.- :+m.z ^ ^ | <+[+d.H.: }+8 |+T 1 n 1+' 2+n @.3+",
"- h ' , U ^ ^ C h 4+5+C N 6+1 7+n p.( : 8+, 9+f.^ U q q 7+%+@.0+",
"U ^ z h a+b+^ | c+d+- - q K ..e+- - - r f+g+@.e ' h+(.i+- - ^.^.",
"^ ^ j+- n k+l+} A m+- - n+' o+p+_ - ]+& q+f+- h r+X.P.v - - 5.C ",
"C G.h - s+t+9+u+' v+w+X x+- } y+  z+w 8 A+T U ^ | B+C+D+; - ^ C ",
"^.E+g.h } c.9+F+G+F.H+a.I+:+J+q.< K+v , T U ^ ^ | B+L+M+I+N+E+h.",
"O+z+t+P+5.H.- ).Q+G+R+|.c D.S+B.n 1 5.^.- T+g U+; - q , {.;+}.- ",
"V+W+c.X+%+Y+; I.y ^ q [.z.{ S S | ^ ^ 5.- - , Z+m+e `+ @, K - - ",
".@1 U U H.+@: @@^ ^ 1 X T U I - #@$@$@6+-.).- - %@' G+&@I - $ x ",
"*@^ ^ ^ o+=@- ].6+G+-@n ;@f.]._ v+F.>@,@'@- - - , )@!@n ~@_ (.s.",
"D.{@b+]@/ ^@x./@a q S B._ - - }.}+=@(@_@Y.:@- - q q x.W n 1 <@X.",
"[@}@k+q.|@6 - - q q 1@:@- - ( H.W+!.0.^+  , : T.1+q - 2@| ^ )+H ",
"= 0.^+3@}.].- - - - : )+K.K.| ,@H : - v.d.n 4@}+R.- l 5@^ ^ N f+",
"N+0.0.^+].U M I - }.; M G+G+G+>@- - I / ^ g+4@}+- - ^.6@^ ^ 7@8@",
"9@0@- }.8+S m *.2+a@x ) &@F.F.b@) S c@T+d@e@f@[@g@' h@w+$@| 1 ~@",
"q K - - 1@S - }.m.0 , , o Y Y X 9., q , : e+i@6.j@q n Y Y n - - ",
"- - 9+f.- - q k@l@S n d.T I+}+/.7+%+].}.: ].U ^ ^ U f.9+: - - - ",
"- }.A+<@m@n@o@p@P.q@' a+U+E r@s@w+C I - f.U ^ ^ ^ ^ @@9+G H - - "};
