/* XPM */
static char * wallwater_border_top_2_xpm[] = {
"32 32 716 2",
"  	c #9DAA13",
". 	c #728927",
"+ 	c #73A10E",
"@ 	c #4B5F35",
"# 	c #4E5441",
"$ 	c #6B7932",
"% 	c #8BA51A",
"& 	c #748033",
"* 	c #44473C",
"= 	c #58613D",
"- 	c #535941",
"; 	c #575D3D",
"> 	c #73822D",
", 	c #6F7E2C",
"' 	c #637231",
") 	c #667236",
"! 	c #779126",
"~ 	c #6B7A31",
"{ 	c #71802D",
"] 	c #57653D",
"^ 	c #697635",
"/ 	c #717F2B",
"( 	c #5F6833",
"_ 	c #4A4D3D",
": 	c #515542",
"< 	c #5A663D",
"[ 	c #5A7236",
"} 	c #55663B",
"| 	c #677631",
"1 	c #93A01C",
"2 	c #8FA718",
"3 	c #83A118",
"4 	c #638E16",
"5 	c #4C5439",
"6 	c #45473C",
"7 	c #54603C",
"8 	c #628525",
"9 	c #748A25",
"0 	c #4B4E3F",
"a 	c #67762D",
"b 	c #6C7931",
"c 	c #4E5141",
"d 	c #595F3F",
"e 	c #5E683A",
"f 	c #535F3F",
"g 	c #73822C",
"h 	c #5C6B38",
"i 	c #667432",
"j 	c #5F6D36",
"k 	c #65782D",
"l 	c #61881E",
"m 	c #6B8C2C",
"n 	c #43453C",
"o 	c #515442",
"p 	c #657233",
"q 	c #6E7D2E",
"r 	c #565C3F",
"s 	c #545C40",
"t 	c #6F9C0F",
"u 	c #95AA12",
"v 	c #9EAA11",
"w 	c #677935",
"x 	c #4C5A38",
"y 	c #436930",
"z 	c #679806",
"A 	c #7CA90B",
"B 	c #729425",
"C 	c #5B693C",
"D 	c #5D673B",
"E 	c #717F2F",
"F 	c #5B633C",
"G 	c #525742",
"H 	c #636F33",
"I 	c #535A3D",
"J 	c #515642",
"K 	c #5E6C37",
"L 	c #58663C",
"M 	c #4D702F",
"N 	c #73A20D",
"O 	c #749E1B",
"P 	c #5C6C3B",
"Q 	c #505342",
"R 	c #4E5140",
"S 	c #4F5A3F",
"T 	c #4E5340",
"U 	c #43493B",
"V 	c #617635",
"W 	c #669415",
"X 	c #6D8629",
"Y 	c #92A816",
"Z 	c #A1B00A",
"` 	c #91A11C",
" .	c #6D832D",
"..	c #578322",
"+.	c #6E8E21",
"@.	c #67752D",
"#.	c #769026",
"$.	c #71802E",
"%.	c #5A693A",
"&.	c #6B7A2D",
"*.	c #68772D",
"=.	c #658725",
"-.	c #69782E",
";.	c #626F33",
">.	c #474B3E",
",.	c #4A4C3F",
"'.	c #5D7F2C",
").	c #516C32",
"!.	c #5D6937",
"~.	c #4D6037",
"{.	c #46503B",
"].	c #4E5A3F",
"^.	c #56782F",
"/.	c #565E3E",
"(.	c #647C2C",
"_.	c #698C26",
":.	c #7A9822",
"<.	c #80AB1F",
"[.	c #8DAE1B",
"}.	c #779426",
"|.	c #717F2D",
"1.	c #6D712F",
"2.	c #707D2D",
"3.	c #51663B",
"4.	c #689515",
"5.	c #669605",
"6.	c #637C2C",
"7.	c #545841",
"8.	c #555D3A",
"9.	c #566B34",
"0.	c #689904",
"a.	c #5D7C2B",
"b.	c #7D9E20",
"c.	c #555B3F",
"d.	c #5C673C",
"e.	c #697E2F",
"f.	c #7B8D28",
"g.	c #859325",
"h.	c #6D802B",
"i.	c #6B7A2C",
"j.	c #627133",
"k.	c #515A41",
"l.	c #4F5241",
"m.	c #45483C",
"n.	c #5F8F14",
"o.	c #5D7439",
"p.	c #70942B",
"q.	c #89A821",
"r.	c #85AF1D",
"s.	c #9EB414",
"t.	c #9CB114",
"u.	c #789B26",
"v.	c #68812F",
"w.	c #5C8A2C",
"x.	c #83B70C",
"y.	c #74A914",
"z.	c #536F39",
"A.	c #7C8A2D",
"B.	c #9DA913",
"C.	c #749623",
"D.	c #5E7F2F",
"E.	c #798B27",
"F.	c #9FB80E",
"G.	c #769327",
"H.	c #769B27",
"I.	c #87A620",
"J.	c #9EAE0D",
"K.	c #81A01E",
"L.	c #869823",
"M.	c #697B30",
"N.	c #5C633D",
"O.	c #50573B",
"P.	c #515742",
"Q.	c #565C40",
"R.	c #537729",
"S.	c #547D29",
"T.	c #556C3C",
"U.	c #526D3A",
"V.	c #567637",
"W.	c #4A6816",
"X.	c #4E7209",
"Y.	c #90A913",
"Z.	c #A1B911",
"`.	c #A9BF04",
" +	c #89AE1E",
".+	c #81B11A",
"++	c #538030",
"@+	c #566F3C",
"#+	c #5F743B",
"$+	c #8C9C26",
"%+	c #90A022",
"&+	c #66822F",
"*+	c #7C9A23",
"=+	c #A7BF06",
"-+	c #7AA41F",
";+	c #658A14",
">+	c #5D7E08",
",+	c #5C701A",
"'+	c #637A27",
")+	c #5D802F",
"!+	c #4F5540",
"~+	c #44473D",
"{+	c #46493D",
"]+	c #758A2D",
"^+	c #7EA223",
"/+	c #769A25",
"(+	c #698A2A",
"_+	c #56783B",
":+	c #4B6736",
"<+	c #3F5A29",
"[+	c #29460C",
"}+	c #223111",
"|+	c #43631E",
"1+	c #759925",
"2+	c #A3BC0C",
"3+	c #8BB11E",
"4+	c #98B714",
"5+	c #93AC1D",
"6+	c #658237",
"7+	c #57773B",
"8+	c #5F7739",
"9+	c #788B31",
"0+	c #618332",
"a+	c #668933",
"b+	c #85A325",
"c+	c #629708",
"d+	c #4A7D01",
"e+	c #376400",
"f+	c #374404",
"g+	c #566421",
"h+	c #699D10",
"i+	c #6C8331",
"j+	c #606D32",
"k+	c #5D6A37",
"l+	c #6B892F",
"m+	c #71912F",
"n+	c #6D8B32",
"o+	c #58733B",
"p+	c #55703C",
"q+	c #526E34",
"r+	c #3F5918",
"s+	c #1E2D0F",
"t+	c #1A2310",
"u+	c #222315",
"v+	c #717E21",
"w+	c #6E8D1B",
"x+	c #486321",
"y+	c #6F8E22",
"z+	c #97AF08",
"A+	c #9DB506",
"B+	c #7B9520",
"C+	c #4E6817",
"D+	c #455B1A",
"E+	c #456D25",
"F+	c #598231",
"G+	c #698A25",
"H+	c #476C03",
"I+	c #3F6C00",
"J+	c #4D5702",
"K+	c #5A6600",
"L+	c #617107",
"M+	c #98B014",
"N+	c #7DA522",
"O+	c #6B842A",
"P+	c #72822C",
"Q+	c #72812C",
"R+	c #547238",
"S+	c #577A3B",
"T+	c #55723C",
"U+	c #57783B",
"V+	c #5B6E2F",
"W+	c #3A500F",
"X+	c #353F04",
"Y+	c #1B3205",
"Z+	c #162D09",
"`+	c #1F2612",
" @	c #5C6411",
".@	c #3F490B",
"+@	c #253413",
"@@	c #2A4212",
"#@	c #3A5A05",
"$@	c #4C620B",
"%@	c #5A6801",
"&@	c #3A4F01",
"*@	c #2A3D06",
"=@	c #2A4E08",
"-@	c #508000",
";@	c #426601",
">@	c #586700",
",@	c #5E6800",
"'@	c #304603",
")@	c #4E6D03",
"!@	c #678B30",
"~@	c #5E8633",
"{@	c #5A8233",
"]@	c #647B37",
"^@	c #5B683A",
"/@	c #6A8D20",
"(@	c #658C30",
"_@	c #668834",
":@	c #58722F",
"<@	c #2F3517",
"[@	c #384505",
"}@	c #375000",
"|@	c #244500",
"1@	c #152400",
"2@	c #313800",
"3@	c #3B4B00",
"4@	c #282B03",
"5@	c #211F0A",
"6@	c #3E5605",
"7@	c #2D4308",
"8@	c #1D1F13",
"9@	c #20250F",
"0@	c #283504",
"a@	c #2B3C0C",
"b@	c #29330D",
"c@	c #333E02",
"d@	c #3D5300",
"e@	c #4F5C01",
"f@	c #354900",
"g@	c #2D3706",
"h@	c #282F0F",
"i@	c #43580D",
"j@	c #5D7831",
"k@	c #4C6834",
"l@	c #5A7736",
"m@	c #546D3B",
"n@	c #526D34",
"o@	c #4C6605",
"p@	c #4E6717",
"q@	c #5C761A",
"r@	c #3C530B",
"s@	c #223306",
"t@	c #3C5100",
"u@	c #5A896B",
"v@	c #519FAD",
"w@	c #4798AC",
"x@	c #42949B",
"y@	c #3E919A",
"z@	c #4A9AAB",
"A@	c #468896",
"B@	c #273300",
"C@	c #202513",
"D@	c #161710",
"E@	c #121A0D",
"F@	c #2C4903",
"G@	c #2E4B00",
"H@	c #354601",
"I@	c #323E03",
"J@	c #2F3C0B",
"K@	c #213703",
"L@	c #517636",
"M@	c #294408",
"N@	c #242B11",
"O@	c #242A11",
"P@	c #2B361B",
"Q@	c #5B7B21",
"R@	c #6B8D28",
"S@	c #56763C",
"T@	c #729729",
"U@	c #343F04",
"V@	c #212710",
"W@	c #1A2210",
"X@	c #213D03",
"Y@	c #1F5D5D",
"Z@	c #6AB3B3",
"`@	c #398C90",
" #	c #0C4157",
".#	c #153F55",
"+#	c #2D5C6F",
"@#	c #2C5A6E",
"##	c #2F647B",
"$#	c #5AA9AC",
"%#	c #54847B",
"&#	c #426E6D",
"*#	c #194D5D",
"=#	c #19819E",
"-#	c #318897",
";#	c #68AAA8",
">#	c #41969F",
",#	c #3494A5",
"'#	c #54A9BC",
")#	c #35726D",
"!#	c #387559",
"~#	c #5B9572",
"{#	c #375043",
"]#	c #354402",
"^#	c #344002",
"/#	c #343D09",
"(#	c #465E27",
"_#	c #5B792A",
":#	c #5D7211",
"<#	c #212A0E",
"[#	c #1B1D11",
"}#	c #14150E",
"|#	c #161E09",
"1#	c #499AA5",
"2#	c #296272",
"3#	c #063A51",
"4#	c #0A3B4F",
"5#	c #083A4D",
"6#	c #0D4256",
"7#	c #326B7C",
"8#	c #336B7E",
"9#	c #3B7C8F",
"0#	c #428699",
"a#	c #32788E",
"b#	c #33778E",
"c#	c #2C6176",
"d#	c #2B5E72",
"e#	c #2C6175",
"f#	c #1B4A60",
"g#	c #245266",
"h#	c #3A7589",
"i#	c #32778D",
"j#	c #387E8C",
"k#	c #418A96",
"l#	c #56A2AC",
"m#	c #374802",
"n#	c #4E5A00",
"o#	c #354802",
"p#	c #313B08",
"q#	c #3A4404",
"r#	c #394404",
"s#	c #2F6168",
"t#	c #104C5B",
"u#	c #116075",
"v#	c #409CB4",
"w#	c #42899B",
"x#	c #317083",
"y#	c #347589",
"z#	c #266375",
"A#	c #175265",
"B#	c #105164",
"C#	c #0E4E62",
"D#	c #0B4B60",
"E#	c #0A4A60",
"F#	c #0C4055",
"G#	c #0C3E52",
"H#	c #0B485C",
"I#	c #0D4B60",
"J#	c #0C4960",
"K#	c #0B495F",
"L#	c #0B4559",
"M#	c #0B4054",
"N#	c #083E54",
"O#	c #073E55",
"P#	c #073E54",
"Q#	c #45899A",
"R#	c #51A6B2",
"S#	c #387573",
"T#	c #53795C",
"U#	c #4D7959",
"V#	c #3E6D5D",
"W#	c #284E50",
"X#	c #296C7F",
"Y#	c #0A5A73",
"Z#	c #125B72",
"`#	c #1F5F79",
" $	c #1A5A76",
".$	c #095971",
"+$	c #0F5A70",
"@$	c #145666",
"#$	c #125769",
"$$	c #135B6F",
"%$	c #0F6980",
"&$	c #087090",
"*$	c #0F6983",
"=$	c #145567",
"-$	c #0F657B",
";$	c #0A708B",
">$	c #0A6C8B",
",$	c #0C6884",
"'$	c #0F647C",
")$	c #0F5F73",
"!$	c #0F5D72",
"~$	c #0C5A74",
"{$	c #0C5971",
"]$	c #0A5770",
"^$	c #07526E",
"/$	c #175B77",
"($	c #1A5975",
"_$	c #1C6070",
":$	c #286973",
"<$	c #347075",
"[$	c #2A6D79",
"}$	c #1A5B71",
"|$	c #166F81",
"1$	c #196E82",
"2$	c #156778",
"3$	c #176675",
"4$	c #1B697A",
"5$	c #1A6979",
"6$	c #185F6E",
"7$	c #17616F",
"8$	c #176372",
"9$	c #157285",
"0$	c #147589",
"a$	c #157488",
"b$	c #176879",
"c$	c #166E80",
"d$	c #14748A",
"e$	c #127894",
"f$	c #166D7F",
"g$	c #185E6D",
"h$	c #147389",
"i$	c #0E7D9C",
"j$	c #0D7D9B",
"k$	c #127993",
"l$	c #157387",
"m$	c #157286",
"n$	c #167285",
"o$	c #157082",
"p$	c #126D82",
"q$	c #147287",
"r$	c #0F7C9A",
"s$	c #0F7D99",
"t$	c #13778D",
"u$	c #157083",
"v$	c #167083",
"w$	c #175F6D",
"x$	c #176A79",
"y$	c #177084",
"z$	c #177083",
"A$	c #176F82",
"B$	c #17606F",
"C$	c #16606F",
"D$	c #13738A",
"E$	c #0D7D9D",
"F$	c #14768C",
"G$	c #157389",
"H$	c #186473",
"I$	c #146275",
"J$	c #127891",
"K$	c #0E7C9A",
"L$	c #127890",
"M$	c #14758B",
"N$	c #196F83",
"O$	c #157386",
"P$	c #1A6879",
"Q$	c #196A7C",
"R$	c #196272",
"S$	c #12788F",
"T$	c #14768A",
"U$	c #196978",
"V$	c #196B7D",
"W$	c #186474",
"X$	c #19697B",
"Y$	c #196C7E",
"Z$	c #13768D",
"`$	c #137991",
" %	c #146F83",
".%	c #0E7D9B",
"+%	c #0D7C9A",
"@%	c #0E7D9A",
"#%	c #14748E",
"$%	c #19697A",
"%%	c #196070",
"&%	c #156E83",
"*%	c #186F81",
"=%	c #107B96",
"-%	c #1A6D80",
";%	c #14768B",
">%	c #14788E",
",%	c #14778D",
"'%	c #13768F",
")%	c #0B7D9D",
"!%	c #107B97",
"~%	c #167386",
"{%	c #186A7C",
"]%	c #0F7D9A",
"^%	c #0E7E9B",
"/%	c #17758A",
"(%	c #186C7F",
"_%	c #0F7C98",
":%	c #1A6B7D",
"<%	c #127892",
"[%	c #107C97",
"}%	c #166F86",
"|%	c #107993",
"1%	c #0C7D9D",
"2%	c #0D7D9C",
"3%	c #186C7D",
"4%	c #186A7D",
"5%	c #196677",
"6%	c #13778E",
"7%	c #156575",
"8%	c #175E6C",
"9%	c #15748A",
"0%	c #1B6879",
"a%	c #0E7B9A",
"b%	c #0A7C9E",
"c%	c #117894",
"d%	c #176D81",
"e%	c #167087",
"f%	c #1A697A",
"g%	c #167488",
"h%	c #127A94",
"i%	c #14788D",
"j%	c #176D7F",
"k%	c #176272",
"l%	c #186A7A",
"m%	c #196474",
"n%	c #13768C",
"o%	c #186576",
"p%	c #156779",
"q%	c #107B99",
"r%	c #186776",
"s%	c #186878",
"t%	c #196A7A",
"u%	c #167185",
"v%	c #176475",
"w%	c #186778",
"x%	c #196D7F",
"y%	c #15758A",
"z%	c #176472",
"A%	c #107892",
"B%	c #196576",
"C%	c #14758D",
"D%	c #1A6778",
"E%	c #14758A",
"F%	c #12778E",
"G%	c #107B98",
"H%	c #0F7B98",
"I%	c #156E81",
"J%	c #147184",
"K%	c #13788D",
"L%	c #15758B",
"M%	c #17606E",
"N%	c #166575",
"O%	c #137790",
"P%	c #166677",
"Q%	c #186C80",
"R%	c #0C7E9D",
"S%	c #1A6A7B",
"T%	c #137389",
"U%	c #0B7C9D",
"V%	c #0B7C9C",
"W%	c #117A96",
"X%	c #176E82",
"Y%	c #117995",
"Z%	c #0F7B97",
"`%	c #16697A",
" &	c #15728B",
".&	c #186270",
"+&	c #186170",
"@&	c #176373",
"#&	c #097DA1",
"$&	c #057EA4",
"%&	c #0F7B99",
"&&	c #147488",
"*&	c #127C95",
"=&	c #147085",
"-&	c #166272",
";&	c #176575",
">&	c #19687A",
",&	c #166F80",
"'&	c #127C94",
")&	c #117B95",
"!&	c #186574",
"~&	c #0C7D9F",
"{&	c #0D7B9C",
"]&	c #176A7D",
"^&	c #186676",
"/&	c #0F7D9B",
"(&	c #186779",
"_&	c #14778C",
":&	c #176777",
"<&	c #17697B",
"[&	c #196372",
"}&	c #176D80",
"|&	c #1A6372",
"1&	c #157689",
"2&	c #117B96",
"3&	c #156B7D",
"4&	c #186E81",
"5&	c #156D83",
"6&	c #156E80",
"7&	c #166270",
"8&	c #13798E",
"9&	c #127B95",
"0&	c #177183",
"a&	c #186877",
"b&	c #14768F",
"c&	c #156F82",
"d&	c #165E6C",
"e&	c #186B7C",
"f&	c #186978",
"g&	c #147288",
"h&	c #15697D",
"i&	c #186373",
"j&	c #137793",
"k&	c #157184",
"l&	c #18606F",
"m&	c #137893",
"n&	c #176676",
"o&	c #196271",
"p&	c #186777",
"q&	c #196373",
"r&	c #186F82",
"s&	c #176B7D",
"t&	c #0C7C9C",
"u&	c #156F83",
"v&	c #176576",
"w&	c #127995",
"x&	c #13768E",
"y&	c #0F7C9B",
"z&	c #107C9A",
"A&	c #137992",
"B&	c #1A6777",
"C&	c #196C7D",
"D&	c #176F83",
"E&	c #196E81",
"F&	c #167084",
"G&	c #157388",
"  . + @ # $ % & * * = - ; > , ' ) ! ' ~ { ] ^ / ( _ : < [ } | 1 ",
"2 3 4 5 6 7 8 9 0 * a b c d e f g ) h , i j k l m n o p q r s | ",
"t u v w x y z A B C D q E F G H q I J K L a M N O P Q R S T U V ",
"W X Y Z `  ...+.@.#.$.%.&.*.=.-.;.>.,.'.).a !.~.{.Q Q R T S ].^.",
"o /.(._.:.<.[.}.|.1.2.L 3.4.5.6.7.8.9.0.a.b.p c.d.e.f.g.h.i.j.k.",
"l.m.n.n.o.p.q.r.s.t.u.v.w.x.y.z.A.B.C.D.E.F.G.H.I.J.K.L.M.N.O.P.",
"Q.N.R.S.T.U.V.W.X.Y.Z.`. +.+++@+#+$+%+&+*+=+-+;+>+,+'+)+!+~+* {+",
"]+^+/+(+_+:+<+[+}+|+1+2+3+4+5+6+7+8+9+0+a+b+c+d+e+f+g+h+i+j+].k+",
"l+m+n+o+p+q+r+s+t+u+v+w+x+y+z+A+B+C+D+E+F+G+H+I+J+K+L+M+N+O+P+Q+",
"R+S+T+U+V+W+X+Y+Z+`+ @.@+@@@#@$@%@&@*@=@-@;@>@,@K+'@)@!@~@{@]@^@",
"/@(@_@:@<@[@}@|@1@2@3@4@5@6@7@8@9@0@a@b@c@d@e@f@g@h@i@j@k@l@m@n@",
"o@p@q@r@s@t@u@v@w@x@y@z@A@B@C@D@E@F@G@H@I@J@K@L@M@N@O@P@Q@R@S@T@",
"U@V@W@X@Y@Z@`@ #.#+#@###$#%#&#*#=#-#;#>#,#'#)#!#~#{#]#^#/#(#_#:#",
"<#[#}#|#1#2#3#4#5#6#7#8#9#0#a#b#c#d#e#f#g#h#i#j#k#l#m#n#o#p#q#r#",
"s#t#u#v#w#x#y#z#A#B#C#D#E#F#G#H#I#J#K#L#M#N#O#P###Q#R#S#T#U#V#W#",
"X#Y#Z#`# $.$+$@$#$$$%$&$*$=$-$;$>$,$'$)$!$~${$]$^$/$($_$:$<$[$}$",
"|$1$2$3$4$5$6$7$8$9$0$0$a$b$6$c$d$e$f$g$h$i$j$j$k$0$l$m$n$4$o$p$",
"q$r$s$t$5$5$u$9$4$n$0$0$v$w$x$n$y$z$A$B$C$D$E$E$m$l$0$k$F$G$H$I$",
"J$j$K$L$M$N$O$0$n$P$u$a$Q$R$0$0$m$M$S$T$U$V$W$X$Y$0$Z$`$j$r$n$ %",
".%j$+%K$.%@%#%O$$%%%&%a$0$Y$*%k$=%J$S$T$-%;%a$a$y$>%,%K$j$j$n$'%",
")%j$j$j$j$j$!%~%Y$0$0$0$0${%]%^%/%4$Y$(%`$_%Z$~%:%<%.%.%[%9$}%r$",
"|%.%j$j$1%2%M$H$3%0$0$0$~%R$N$4%5%n$0$0$y$Y$Z$~%4$:%6%6%7%8%3%9%",
"0%A$a%b%c%d%e%6%f%g%h%i%j%k%l%m%3%0$Z$n%0$o%p%q%Z$0$w$r%s%s%t%Y$",
"u%v%w%~%n$m$r$.%c%3$x%y%f$z%O$O$~%k$A%K$k$Q$B%C%t$*%D%U$5$5$~%0$",
"Z$v%E%6%F%6%G%H%I%J%0$0$~%y$K%V$L%.%j$.%k$w%M%N%*%0$~%~%0$O%]%6%",
"t${%6%.%j$r$0$0$l$0$0$0$0$P%K%9$Q%@%R%<%Y$S%T%U%V%W%0$X%0$m$6%6%",
"*%0$0$Y%Z%,%u%P$0$0$0$0$9%`% &r$d$S%.&+&@&u$#&$&$&%&&&d%*&6%=&-&",
"0$0$0$*%;&{%>&B$,&0$W%'&n%)&.%j$W%Y$U$P$!&u$~&$&{&]&^&9$/&E$(&u%",
"_&0$0$:&,&0$0$<&[&|$}&|&*%1&W%2&3&k%4&0$5&H$9$u$6&C$7&Y$Q%W$M%_&",
"8&9&~%0&0$0$0$0$|$a&$%b&=%W%J%;&b$c&X%h$@&d&e&$%5$f&g&Z%k$~%h&i&",
"P%l$4$j&j$r$,%0$k&l&6%.%j$j$m&n&6%6%n$o&p&q&r&!%F%s&d$t&=%m$u&v&",
",%W%n$w&j$j$K$W%;%x&S$2%#&y&G$n$z&A&n$B&9$C&D&_%.%6%l$*%E&F&G&E%"};
