/* XPM */
static char * wallwater_border_right_2_xpm[] = {
"32 32 635 2",
"  	c #14748A",
". 	c #127894",
"+ 	c #166D7F",
"@ 	c #185E6D",
"# 	c #147389",
"$ 	c #0E7D9C",
"% 	c #0D7D9B",
"& 	c #127993",
"* 	c #147589",
"= 	c #157387",
"- 	c #157286",
"; 	c #167285",
"> 	c #1B697A",
", 	c #157082",
"' 	c #126D82",
") 	c #1F677C",
"! 	c #19637A",
"~ 	c #0E5E75",
"{ 	c #0B5368",
"] 	c #17556B",
"^ 	c #2F6B7E",
"/ 	c #596B13",
"( 	c #68792F",
"_ 	c #64872B",
": 	c #649E15",
"< 	c #61931C",
"[ 	c #464C3D",
"} 	c #5F6939",
"| 	c #6F7E2C",
"1 	c #627133",
"2 	c #545A3D",
"3 	c #177084",
"4 	c #177083",
"5 	c #176F82",
"6 	c #17606F",
"7 	c #16606F",
"8 	c #13738A",
"9 	c #0D7D9D",
"0 	c #14768C",
"a 	c #157389",
"b 	c #186473",
"c 	c #146275",
"d 	c #166D86",
"e 	c #21677C",
"f 	c #0A6179",
"g 	c #094153",
"h 	c #155B72",
"i 	c #335F5E",
"j 	c #414916",
"k 	c #484B39",
"l 	c #48533C",
"m 	c #547939",
"n 	c #52822C",
"o 	c #5E6E36",
"p 	c #697730",
"q 	c #5A623C",
"r 	c #484D3D",
"s 	c #4C4F40",
"t 	c #14758B",
"u 	c #12788F",
"v 	c #14768A",
"w 	c #196978",
"x 	c #196B7D",
"y 	c #186474",
"z 	c #19697B",
"A 	c #196C7E",
"B 	c #13768D",
"C 	c #137991",
"D 	c #0F7C9A",
"E 	c #146F83",
"F 	c #10728E",
"G 	c #0F6880",
"H 	c #0D5F76",
"I 	c #0A495D",
"J 	c #0E5871",
"K 	c #1F515E",
"L 	c #1C1E13",
"M 	c #3E3F2D",
"N 	c #5E7D37",
"O 	c #57743B",
"P 	c #56773A",
"Q 	c #5A7836",
"R 	c #525F3F",
"S 	c #494C3F",
"T 	c #5D663A",
"U 	c #74882A",
"V 	c #107B96",
"W 	c #127891",
"X 	c #1A6D80",
"Y 	c #14768B",
"Z 	c #157488",
"` 	c #14788E",
" .	c #14778D",
"..	c #0E7C9A",
"+.	c #13768F",
"@.	c #0D718C",
"#.	c #0E6E88",
"$.	c #0A627A",
"%.	c #0C5368",
"&.	c #1C586D",
"*.	c #4695AA",
"=.	c #171A10",
"-.	c #232916",
";.	c #5B7020",
">.	c #6C872C",
",.	c #557B37",
"'.	c #4B832B",
").	c #56643E",
"!.	c #677137",
"~.	c #73822C",
"{.	c #6F832A",
"].	c #17758A",
"^.	c #186C7F",
"/.	c #0F7C98",
"(.	c #167386",
"_.	c #1A6B7D",
":.	c #127892",
"<.	c #0E7D9B",
"[.	c #107C97",
"}.	c #157285",
"|.	c #166F86",
"1.	c #0C7B9B",
"2.	c #0E7996",
"3.	c #0C728D",
"4.	c #0B546C",
"5.	c #519382",
"6.	c #181500",
"7.	c #1A210D",
"8.	c #2F3910",
"9.	c #41590C",
"0.	c #617721",
"a.	c #587438",
"b.	c #607537",
"c.	c #69782C",
"d.	c #667436",
"e.	c #4E5340",
"f.	c #196677",
"g.	c #13778E",
"h.	c #156575",
"i.	c #175E6C",
"j.	c #186C7D",
"k.	c #15748A",
"l.	c #107993",
"m.	c #0D7996",
"n.	c #0C5B73",
"o.	c #094B60",
"p.	c #499499",
"q.	c #4192A6",
"r.	c #164E50",
"s.	c #1B2110",
"t.	c #404E08",
"u.	c #9BAA11",
"v.	c #799729",
"w.	c #688630",
"x.	c #5C6D3A",
"y.	c #4C563E",
"z.	c #13768C",
"A.	c #186576",
"B.	c #156779",
"C.	c #107B99",
"D.	c #175F6D",
"E.	c #186776",
"F.	c #186878",
"G.	c #196A7A",
"H.	c #1B6879",
"I.	c #0D7998",
"J.	c #0B6380",
"K.	c #0D546B",
"L.	c #185164",
"M.	c #25576A",
"N.	c #257E99",
"O.	c #214F58",
"P.	c #1E3507",
"Q.	c #627F20",
"R.	c #8BB21B",
"S.	c #6A8A2F",
"T.	c #4B5C3A",
"U.	c #4F543D",
"V.	c #6E7C30",
"W.	c #107892",
"X.	c #196A7C",
"Y.	c #196576",
"Z.	c #14758D",
"`.	c #13778D",
" +	c #186F81",
".+	c #1A6778",
"++	c #1A6979",
"@+	c #167185",
"#+	c #176475",
"$+	c #186778",
"%+	c #146A7D",
"&+	c #115A6D",
"*+	c #175466",
"=+	c #22556A",
"-+	c #063E55",
";+	c #327F92",
">+	c #284700",
",+	c #3E5425",
"'+	c #79A524",
")+	c #75942B",
"!+	c #649122",
"~+	c #5C8225",
"{+	c #55623A",
"]+	c #15758B",
"^+	c #17606E",
"/+	c #166575",
"(+	c #137790",
"_+	c #0F7D9A",
":+	c #12768C",
"<+	c #0F667D",
"[+	c #175B70",
"}+	c #1F5A6E",
"|+	c #073E55",
"1+	c #3F90A3",
"2+	c #243529",
"3+	c #303E11",
"4+	c #617B26",
"5+	c #76912B",
"6+	c #6A9621",
"7+	c #4A6139",
"8+	c #4F5241",
"9+	c #186C80",
"0+	c #0E7D9A",
"a+	c #0C7E9D",
"b+	c #1A6A7B",
"c+	c #137389",
"d+	c #0B7C9D",
"e+	c #0B7C9C",
"f+	c #117A96",
"g+	c #176E82",
"h+	c #186A7C",
"i+	c #0E7A98",
"j+	c #0F6884",
"k+	c #216375",
"l+	c #0A475D",
"m+	c #3C8493",
"n+	c #3B6E61",
"o+	c #324E09",
"p+	c #3F5B24",
"q+	c #7B8F21",
"r+	c #6C7E2E",
"s+	c #45483C",
"t+	c #186270",
"u+	c #186170",
"v+	c #176373",
"w+	c #157083",
"x+	c #097DA1",
"y+	c #057EA4",
"z+	c #0F7B99",
"A+	c #147488",
"B+	c #176D81",
"C+	c #127C95",
"D+	c #147085",
"E+	c #166272",
"F+	c #117995",
"G+	c #0F7B97",
"H+	c #12748B",
"I+	c #1F687A",
"J+	c #0F4C60",
"K+	c #2D7277",
"L+	c #448071",
"M+	c #597B22",
"N+	c #6A8433",
"O+	c #80AA1F",
"P+	c #758929",
"Q+	c #44473C",
"R+	c #46493D",
"S+	c #1A6879",
"T+	c #186574",
"U+	c #0C7D9F",
"V+	c #0D7B9C",
"W+	c #176A7D",
"X+	c #186676",
"Y+	c #0F7D9B",
"Z+	c #186779",
"`+	c #176474",
" @	c #135A69",
".@	c #104C5A",
"+@	c #2C6461",
"@@	c #487F52",
"#@	c #609028",
"$@	c #537C30",
"%@	c #658531",
"&@	c #7FA622",
"*@	c #677435",
"=@	c #5D6837",
"-@	c #156B7D",
";@	c #176272",
">@	c #186E81",
",@	c #156D83",
"'@	c #156E80",
")@	c #166270",
"!@	c #14778C",
"~@	c #176777",
"{@	c #156C7E",
"]@	c #0F6B80",
"^@	c #0B596C",
"/@	c #547D43",
"(@	c #608126",
"_@	c #4F6C36",
":@	c #4C6737",
"<@	c #6A892F",
"[@	c #6D8B2C",
"}@	c #4A742A",
"|@	c #46513B",
"1@	c #176879",
"2@	c #156F82",
"3@	c #165E6C",
"4@	c #186B7C",
"5@	c #19697A",
"6@	c #186978",
"7@	c #147288",
"8@	c #15697D",
"9@	c #186373",
"0@	c #13798E",
"a@	c #127B95",
"b@	c #177183",
"c@	c #117185",
"d@	c #0D657B",
"e@	c #0A5A6F",
"f@	c #5D834E",
"g@	c #7BA126",
"h@	c #5B7838",
"i@	c #53703B",
"j@	c #6F8630",
"k@	c #647432",
"l@	c #608B1E",
"m@	c #5A8027",
"n@	c #575E3F",
"o@	c #196271",
"p@	c #186777",
"q@	c #196373",
"r@	c #186F82",
"s@	c #107B97",
"t@	c #12778E",
"u@	c #176B7D",
"v@	c #0C7C9C",
"w@	c #156F83",
"x@	c #176576",
"y@	c #166677",
"z@	c #137793",
"A@	c #0C7896",
"B@	c #096A89",
"C@	c #11607C",
"D@	c #377D7E",
"E@	c #617D2C",
"F@	c #618238",
"G@	c #5E7A37",
"H@	c #6C842B",
"I@	c #5E6A37",
"J@	c #4C6437",
"K@	c #6D8F1C",
"L@	c #9EAA11",
"M@	c #107C9A",
"N@	c #137992",
"O@	c #1A6777",
"P@	c #196C7D",
"Q@	c #176F83",
"R@	c #196E81",
"S@	c #167084",
"T@	c #157388",
"U@	c #14758A",
"V@	c #127995",
"W@	c #0D7997",
"X@	c #096F8D",
"Y@	c #186481",
"Z@	c #2E7A8E",
"`@	c #4A6832",
" #	c #55713A",
".#	c #5C7A38",
"+#	c #6F9029",
"@#	c #515841",
"##	c #606D36",
"$#	c #9FAC11",
"%#	c #8F9C1F",
"&#	c #127991",
"*#	c #117893",
"=#	c #166F83",
"-#	c #186372",
";#	c #1A6C7D",
">#	c #117B96",
",#	c #097C9F",
"'#	c #097393",
")#	c #1E7189",
"!#	c #326F72",
"~#	c #3F5D2D",
"{#	c #496535",
"]#	c #5C7B37",
"^#	c #56703C",
"/#	c #575D3D",
"(#	c #73822D",
"_#	c #637231",
":#	c #156F84",
"<#	c #14768F",
"[#	c #176473",
"}#	c #117B97",
"|#	c #12768E",
"1#	c #0E708A",
"2#	c #1A778F",
"3#	c #35695B",
"4#	c #485F27",
"5#	c #6B8929",
"6#	c #6C7A31",
"7#	c #4E5141",
"8#	c #595F3F",
"9#	c #5E683A",
"0#	c #535F3F",
"a#	c #196372",
"b#	c #127990",
"c#	c #16697D",
"d#	c #0A7DA0",
"e#	c #147387",
"f#	c #145C6D",
"g#	c #2F7F8D",
"h#	c #306A5A",
"i#	c #456C13",
"j#	c #5F7E34",
"k#	c #628036",
"l#	c #70872C",
"m#	c #717F2F",
"n#	c #5B633C",
"o#	c #525742",
"p#	c #636F33",
"q#	c #1A6B7C",
"r#	c #18687A",
"s#	c #146D82",
"t#	c #196878",
"u#	c #177186",
"v#	c #15697A",
"w#	c #117790",
"x#	c #11677B",
"y#	c #2D798A",
"z#	c #2D6363",
"A#	c #2C4303",
"B#	c #54750F",
"C#	c #708E28",
"D#	c #608235",
"E#	c #6E872B",
"F#	c #68772D",
"G#	c #658725",
"H#	c #69782E",
"I#	c #15768A",
"J#	c #0F7A99",
"K#	c #107A97",
"L#	c #166F82",
"M#	c #157386",
"N#	c #196272",
"O#	c #127793",
"P#	c #0E7290",
"Q#	c #2A798D",
"R#	c #49898F",
"S#	c #253700",
"T#	c #325700",
"U#	c #647A1B",
"V#	c #5D8037",
"W#	c #547737",
"X#	c #669414",
"Y#	c #659605",
"Z#	c #637C2B",
"`#	c #1A6171",
" $	c #18697C",
".$	c #0F7C99",
"+$	c #107897",
"@$	c #157184",
"#$	c #186070",
"$$	c #16667C",
"%$	c #256E83",
"&$	c #398999",
"*$	c #4E857C",
"=$	c #3A6000",
"-$	c #50740D",
";$	c #68882B",
">$	c #5B8A2A",
",$	c #7FAC0C",
"'$	c #709D16",
")$	c #50603C",
"!$	c #0A7D9F",
"~$	c #0B7D9D",
"{$	c #0F7A98",
"]$	c #087EA2",
"^$	c #186A7B",
"/$	c #127185",
"($	c #276676",
"_$	c #245D72",
":$	c #54A0A7",
"<$	c #536D44",
"[$	c #617C05",
"}$	c #9FB30A",
"|$	c #86A11F",
"1$	c #7DA21B",
"2$	c #4E6734",
"3$	c #515442",
"4$	c #167087",
"5$	c #147287",
"6$	c #166779",
"7$	c #14748B",
"8$	c #186575",
"9$	c #187084",
"0$	c #0F7D99",
"a$	c #107A93",
"b$	c #27778A",
"c$	c #246C81",
"d$	c #337E96",
"e$	c #2D6F77",
"f$	c #958D20",
"g$	c #9FB80E",
"h$	c #89AE1C",
"i$	c #96AA14",
"j$	c #909D1F",
"k$	c #5F6A3B",
"l$	c #1A6474",
"m$	c #147990",
"n$	c #167186",
"o$	c #107D9A",
"p$	c #187185",
"q$	c #166B7D",
"r$	c #0D7C9D",
"s$	c #0B7D9E",
"t$	c #0D7D9C",
"u$	c #117897",
"v$	c #267082",
"w$	c #266675",
"x$	c #368298",
"y$	c #547E5E",
"z$	c #87A41D",
"A$	c #8CAF1D",
"B$	c #668330",
"C$	c #6E8B29",
"D$	c #97A615",
"E$	c #9EAE0E",
"F$	c #1B6979",
"G$	c #157284",
"H$	c #176B7B",
"I$	c #137A91",
"J$	c #166F81",
"K$	c #186675",
"L$	c #117791",
"M$	c #14758C",
"N$	c #1A6A7C",
"O$	c #136F83",
"P$	c #358294",
"Q$	c #4395AA",
"R$	c #6B832E",
"S$	c #9BB911",
"T$	c #789A26",
"U$	c #50623E",
"V$	c #436930",
"W$	c #608F16",
"X$	c #748F24",
"Y$	c #176A7B",
"Z$	c #0F7B98",
"`$	c #0C7D9C",
" %	c #0F7C9B",
".%	c #176F81",
"+%	c #186877",
"@%	c #1A697A",
"#%	c #286B7B",
"$%	c #117288",
"%%	c #388495",
"&%	c #4F929D",
"*%	c #637E29",
"=%	c #7CA425",
"-%	c #608137",
";%	c #47513C",
">%	c #759F1C",
",%	c #5A8026",
"'%	c #4E5041",
")%	c #0B7B9C",
"!%	c #0E7B98",
"~%	c #117992",
"{%	c #32899F",
"]%	c #0E7592",
"^%	c #276C7E",
"/%	c #56785A",
"(%	c #6F8E2D",
"_%	c #6B8C2D",
":%	c #55673E",
"<%	c #525D41",
"[%	c #567830",
"}%	c #4B553D",
"|%	c #147690",
"1%	c #107A98",
"2%	c #107A96",
"3%	c #167086",
"4%	c #18697A",
"5%	c #317686",
"6%	c #0E5464",
"7%	c #558874",
"8%	c #506B39",
"9%	c #516C3A",
"0%	c #648536",
"a%	c #788A2A",
"b%	c #7D9F20",
"c%	c #778C29",
"d%	c #6B7932",
"e%	c #515742",
"f%	c #196879",
"g%	c #15778D",
"h%	c #115D6E",
"i%	c #276878",
"j%	c #38616B",
"k%	c #647E31",
"l%	c #4B6736",
"m%	c #6A8832",
"n%	c #7FA621",
"o%	c #87A31C",
"p%	c #72862E",
"q%	c #5D683C",
"r%	c #565F3E",
"s%	c #59623E",
"t%	c #196D7F",
"u%	c #105566",
"v%	c #275D6E",
"w%	c #356166",
"x%	c #5F7337",
"y%	c #648235",
"z%	c #77972A",
"A%	c #718830",
"B%	c #58633C",
"C%	c #4B4E3F",
"D%	c #545A41",
"E%	c #71842F",
"F%	c #1B6A7B",
"G%	c #196979",
"H%	c #12748C",
"I%	c #114959",
"J%	c #196B85",
"K%	c #439099",
"L%	c #7AA01F",
"M%	c #6A8E2A",
"N%	c #66931C",
"O%	c #515540",
"P%	c #45473C",
"Q%	c #677532",
"R%	c #778A2A",
"  . + @ # $ % % & * = - ; > , ' ) ! ~ { ] ^ / ( _ : < [ } | 1 2 ",
"3 4 5 6 7 8 9 9 - = * & 0 a b c d e f g h i j k l m n o p q r s ",
"- t u v w x y z A * B C % D ; E F G H I J K L M N O P Q R S T U ",
"V W u v X Y Z Z 3 `  ...% % ; +.@.#.$.%.&.*.=.-.;.>.,.'.).!.~.{.",
"].> A ^.C /.B (._.:.<.<.[.}.|.D 1.2.3.4.6 5.6.7.8.9.0.a.b.c.d.e.",
"f.; * * 3 A B (.> _.g.g.h.i.j.k.l.<.m.n.o.p.q.r.s.t.u.v.w.x.[ y.",
"j.* B z.* A.B.C.B * D.E.F.F.G.A H.5 I.J.K.L.M.N.O.P.Q.R.S.T.U.V.",
"(.& W...& X.Y.Z.`. +.+w ++++(.* @+#+$+%+&+*+=+-+;+>+,+'+)+!+~+{+",
"]+<.% <.& $+^+/+ +* (.(.* (+_+g.B #+v :+<+[+}+|+1+2+3+4+5+6+7+8+",
"9+0+a+:.A b+c+d+e+f+* g+* - g.g.`.h+g.<.i+j+k+l+m+n+o+p+q+r+8+s+",
"  b+t+u+v+w+x+y+y+z+A+B+C+g.D+E+ +* * F+G+H+I+J+K+L+M+N+O+P+Q+R+",
"f+A w S+T+w+U+y+V+W+X+}.Y+9 Z+@+* * *  +`+ @.@+@@@#@$@%@&@*@R+=@",
"-@;@>@* ,@b }.w+'@7 )@A 9+y ^+!@!@* * ~@{@]@^@/@(@_@:@<@[@}@|@=@",
"1@2@g+# v+3@4@5@++6@7@G+& (.8@9@0@a@(.b@c@d@e@f@g@h@i@j@k@l@m@n@",
"g.g.; o@p@q@r@s@t@u@  v@V - w@x@y@= > z@A@B@C@D@E@F@G@H@I@J@K@L@",
"M@N@; O@}.P@Q@/.<.g.=  +R@S@T@U@ .f+; V@W@X@Y@Z@`@ #.#+#@###$#%#",
"* * * X.]+&#- *#:.=#-#;#* * v v D % >#& ,#'#)#!#~#{#]#^#/#(#| _#",
"g+* :#6 Y.]+* & <#[#p@}.* * }#/.% % e+* |#1#2#3#4#{#5#6#7#8#9#0#",
"w+i.a#$+G.k.D % <.b#@ c#(.* % /./.d#& * e#f#g#h#i#j#k#l#m#n#o#p#",
"q#+ }.; k.D % % <.b#r#s#t#A.u#Y v u#v#& w#x#y#z#A#B#C#D#E#F#G#H#",
"Q@t@D N@* I#J#K#<#Z * - L#q@j.(.M#N#3@8@O#P#Q#R#S#T#U#V#W#X#Y#Z#",
"t@% % <.& * * A `# $.$+$:.; g+* @$#$5@, =#$$%$&$*$=$-$;$>$,$'$)$",
"w#!$~$~${$B+* * (.4 D ]$d#g.; ++^$7@D <.s@/$($_$:$<$[$}$|$1$2$3$",
"4$]$y+x+5$w+* * * A 6$t 7$T@ $8$9$0$% % % a$b$c$d$e$f$g$h$i$j$k$",
"5@l$m$z@+ a#(.* * = (.~@n$g.o$p$^+q$r$s$t$u$v$w$x$y$z$A$B$C$D$E$",
"; 6 a#F$5@G$4 A H$L#* * I$% % t@J$K$t@L$M$N$O$P$Q$R$S$T$U$V$W$X$",
"B  + +* g.t@`.Y$A.* * B Z$% `$ %.%+%@%q@a##%$%%%&%*%=%-%;%>%,%'%",
")%* B s@<.% `.Y$A.* *  .!%% `$~%N#+%++F.h+{%]%^%/%(%_%:%<%[%}%Q+",
"|%Z 0 F+1%2%-@K$4@:.` z+~$<.s@3%X+P@*  +4%5%6%7%8%9%0%a%b%c%d%e%",
"f%; A+; A 4 2@@+g%A+g.w#w#g.* * A+B+* * h%i%j%k%l%m%n%o%p%q%r%s%",
"t%9+B  +A B D % % D   b+A * * * * * b+c+u%v%w%x%y%z%A%B%C%Q+D%E%",
"z+/.f+*   D % % % % . b+F%M#* * *  +G%H%I%J%K%L%M%N%O%P%Q+C%Q%R%"};
