/* XPM */
static char * wallwater_middle_2_xpm[] = {
"32 32 334 2",
"  	c #166F81",
". 	c #196E82",
"+ 	c #156778",
"@ 	c #176675",
"# 	c #1B697A",
"$ 	c #1A6979",
"% 	c #185F6E",
"& 	c #17616F",
"* 	c #176372",
"= 	c #157285",
"- 	c #147589",
"; 	c #157488",
"> 	c #176879",
", 	c #166E80",
"' 	c #14748A",
") 	c #127894",
"! 	c #166D7F",
"~ 	c #185E6D",
"{ 	c #147389",
"] 	c #0E7D9C",
"^ 	c #0D7D9B",
"/ 	c #127993",
"( 	c #157387",
"_ 	c #157286",
": 	c #167285",
"< 	c #157082",
"[ 	c #126D82",
"} 	c #147287",
"| 	c #0F7C9A",
"1 	c #0F7D99",
"2 	c #13778D",
"3 	c #157083",
"4 	c #167083",
"5 	c #175F6D",
"6 	c #176A79",
"7 	c #177084",
"8 	c #177083",
"9 	c #176F82",
"0 	c #17606F",
"a 	c #16606F",
"b 	c #13738A",
"c 	c #0D7D9D",
"d 	c #14768C",
"e 	c #157389",
"f 	c #186473",
"g 	c #146275",
"h 	c #127891",
"i 	c #0E7C9A",
"j 	c #127890",
"k 	c #14758B",
"l 	c #196F83",
"m 	c #157386",
"n 	c #1A6879",
"o 	c #196A7C",
"p 	c #196272",
"q 	c #12788F",
"r 	c #14768A",
"s 	c #196978",
"t 	c #196B7D",
"u 	c #186474",
"v 	c #19697B",
"w 	c #196C7E",
"x 	c #13768D",
"y 	c #137991",
"z 	c #146F83",
"A 	c #0E7D9B",
"B 	c #0D7C9A",
"C 	c #0E7D9A",
"D 	c #14748E",
"E 	c #19697A",
"F 	c #196070",
"G 	c #156E83",
"H 	c #186F81",
"I 	c #107B96",
"J 	c #1A6D80",
"K 	c #14768B",
"L 	c #14788E",
"M 	c #14778D",
"N 	c #13768F",
"O 	c #0B7D9D",
"P 	c #107B97",
"Q 	c #167386",
"R 	c #186A7C",
"S 	c #0F7D9A",
"T 	c #0E7E9B",
"U 	c #17758A",
"V 	c #186C7F",
"W 	c #0F7C98",
"X 	c #1A6B7D",
"Y 	c #127892",
"Z 	c #107C97",
"` 	c #166F86",
" .	c #107993",
"..	c #0C7D9D",
"+.	c #0D7D9C",
"@.	c #186C7D",
"#.	c #186A7D",
"$.	c #196677",
"%.	c #13778E",
"&.	c #156575",
"*.	c #175E6C",
"=.	c #15748A",
"-.	c #1B6879",
";.	c #0E7B9A",
">.	c #0A7C9E",
",.	c #117894",
"'.	c #176D81",
").	c #167087",
"!.	c #1A697A",
"~.	c #167488",
"{.	c #127A94",
"].	c #14788D",
"^.	c #176D7F",
"/.	c #176272",
"(.	c #186A7A",
"_.	c #196474",
":.	c #13768C",
"<.	c #186576",
"[.	c #156779",
"}.	c #107B99",
"|.	c #186776",
"1.	c #186878",
"2.	c #196A7A",
"3.	c #167185",
"4.	c #176475",
"5.	c #186778",
"6.	c #196D7F",
"7.	c #15758A",
"8.	c #176472",
"9.	c #107892",
"0.	c #196576",
"a.	c #14758D",
"b.	c #1A6778",
"c.	c #14758A",
"d.	c #12778E",
"e.	c #107B98",
"f.	c #0F7B98",
"g.	c #156E81",
"h.	c #147184",
"i.	c #13788D",
"j.	c #15758B",
"k.	c #17606E",
"l.	c #166575",
"m.	c #137790",
"n.	c #166677",
"o.	c #186C80",
"p.	c #0C7E9D",
"q.	c #1A6A7B",
"r.	c #137389",
"s.	c #0B7C9D",
"t.	c #0B7C9C",
"u.	c #117A96",
"v.	c #176E82",
"w.	c #117995",
"x.	c #0F7B97",
"y.	c #16697A",
"z.	c #15728B",
"A.	c #186270",
"B.	c #186170",
"C.	c #176373",
"D.	c #097DA1",
"E.	c #057EA4",
"F.	c #0F7B99",
"G.	c #147488",
"H.	c #127C95",
"I.	c #147085",
"J.	c #166272",
"K.	c #176575",
"L.	c #19687A",
"M.	c #166F80",
"N.	c #127C94",
"O.	c #117B95",
"P.	c #186574",
"Q.	c #0C7D9F",
"R.	c #0D7B9C",
"S.	c #176A7D",
"T.	c #186676",
"U.	c #0F7D9B",
"V.	c #186779",
"W.	c #14778C",
"X.	c #176777",
"Y.	c #17697B",
"Z.	c #196372",
"`.	c #176D80",
" +	c #1A6372",
".+	c #157689",
"++	c #117B96",
"@+	c #156B7D",
"#+	c #186E81",
"$+	c #156D83",
"%+	c #156E80",
"&+	c #166270",
"*+	c #13798E",
"=+	c #127B95",
"-+	c #177183",
";+	c #186877",
">+	c #14768F",
",+	c #156F82",
"'+	c #165E6C",
")+	c #186B7C",
"!+	c #186978",
"~+	c #147288",
"{+	c #15697D",
"]+	c #186373",
"^+	c #137793",
"/+	c #157184",
"(+	c #18606F",
"_+	c #137893",
":+	c #176676",
"<+	c #196271",
"[+	c #186777",
"}+	c #196373",
"|+	c #186F82",
"1+	c #176B7D",
"2+	c #0C7C9C",
"3+	c #156F83",
"4+	c #176576",
"5+	c #127995",
"6+	c #13768E",
"7+	c #0F7C9B",
"8+	c #107C9A",
"9+	c #137992",
"0+	c #1A6777",
"a+	c #196C7D",
"b+	c #176F83",
"c+	c #196E81",
"d+	c #167084",
"e+	c #157388",
"f+	c #0B7D9E",
"g+	c #107A97",
"h+	c #127895",
"i+	c #186E82",
"j+	c #127991",
"k+	c #117893",
"l+	c #166F83",
"m+	c #186372",
"n+	c #1A6C7D",
"o+	c #117791",
"p+	c #0D7E9D",
"q+	c #196475",
"r+	c #166879",
"s+	c #117896",
"t+	c #156F84",
"u+	c #176473",
"v+	c #117B97",
"w+	c #0A7DA0",
"x+	c #147387",
"y+	c #176E83",
"z+	c #176677",
"A+	c #0B7DA0",
"B+	c #127990",
"C+	c #16697D",
"D+	c #177186",
"E+	c #15697A",
"F+	c #077EA2",
"G+	c #077EA3",
"H+	c #13778F",
"I+	c #196878",
"J+	c #176A7B",
"K+	c #186F83",
"L+	c #12778F",
"M+	c #1A6B7C",
"N+	c #18687A",
"O+	c #146D82",
"P+	c #117C98",
"Q+	c #14748C",
"R+	c #087DA1",
"S+	c #165E6B",
"T+	c #15768A",
"U+	c #0F7A99",
"V+	c #166F82",
"W+	c #186070",
"X+	c #186D82",
"Y+	c #0F7B96",
"Z+	c #1A6171",
"`+	c #18697C",
" @	c #0F7C99",
".@	c #107897",
"+@	c #186A7B",
"@@	c #1A6575",
"#@	c #196E80",
"$@	c #117790",
"%@	c #0A7D9F",
"&@	c #0F7A98",
"*@	c #087EA2",
"=@	c #187084",
"-@	c #117C95",
";@	c #196B7E",
">@	c #166779",
",@	c #14748B",
"'@	c #186575",
")@	c #166B7D",
"!@	c #0D7C9D",
"~@	c #107997",
"{@	c #1A697C",
"]@	c #19697C",
"^@	c #1A6474",
"/@	c #147990",
"(@	c #167186",
"_@	c #107D9A",
":@	c #187185",
"<@	c #186675",
"[@	c #14758C",
"}@	c #1A6A7C",
"|@	c #1B6979",
"1@	c #157284",
"2@	c #176B7B",
"3@	c #137A91",
"4@	c #176F81",
"5@	c #127992",
"6@	c #0C7D9C",
"7@	c #057EA3",
"8@	c #0B7B9C",
"9@	c #0E7B98",
"0@	c #117992",
"a@	c #196A7B",
"b@	c #176D84",
"c@	c #147690",
"d@	c #097C9F",
"e@	c #107A98",
"f@	c #107A96",
"g@	c #167086",
"h@	c #196879",
"i@	c #15778D",
"j@	c #176474",
"k@	c #196170",
"l@	c #147991",
"m@	c #127B94",
"n@	c #165F6C",
"o@	c #186B7E",
"p@	c #137894",
"q@	c #157187",
"r@	c #0F7D98",
"s@	c #1B6A7B",
"  . + @ # $ % & * = - - ; > % , ' ) ! ~ { ] ^ ^ / - ( _ : # < [ ",
"} | 1 2 $ $ 3 = # : - - 4 5 6 : 7 8 9 0 a b c c _ ( - / d e f g ",
"h ^ i j k l m - : n 3 ; o p - - _ k q r s t u v w - x y ^ | : z ",
"A ^ B i A C D m E F G ; - w H / I h q r J K ; ; 7 L M i ^ ^ : N ",
"O ^ ^ ^ ^ ^ P Q w - - - - R S T U # w V y W x Q X Y A A Z = ` | ",
" .A ^ ^ ..+.k f @.- - - Q p l #.$.: - - 7 w x Q # X %.%.&.*.@.=.",
"-.9 ;.>.,.'.).%.!.~.{.].^./.(._.@.- x :.- <.[.}.x - 5 |.1.1.2.w ",
"3.4.5.Q : _ | A ,.@ 6.7.! 8.m m Q / 9.i / o 0.a.2 H b.s $ $ Q - ",
"x 4.c.%.d.%.e.f.g.h.- - Q 7 i.t j.A ^ A / 5.k.l.H - Q Q - m.S %.",
"2 R %.A ^ | - - ( - - - - n.i.= o.C p.Y w q.r.s.t.u.- v.- _ %.%.",
"H - - w.x.M 3.n - - - - =.y.z.| ' q.A.B.C.3 D.E.E.F.G.'.H.%.I.J.",
"- - - H K.R L.0 M.- u.N.:.O.A ^ u.w s n P.3 Q.E.R.S.T.= U.c V.3.",
"W.- - X.M.- - Y.Z.  `. +H .+u.++@+/.#+- $+f = 3 %+a &+w o.u k.W.",
"*+=+Q -+- - - -   ;+E >+I u.h.K.> ,+v.{ C.'+)+E $ !+~+x./ Q {+]+",
"n.( # ^+^ | M - /+(+%.A ^ ^ _+:+%.%.: <+[+}+|+P d.1+' 2+I _ 3+4+",
"M u.: 5+^ ^ i u.K 6+q +.D.7+e : 8+9+: 0+= a+b+W A %.( H c+d+e+c.",
"| ^ ++/ D.f+^ A g+h+- - G.'.i+8 - - - o j.j+_ k+Y l+m+n+- - r r ",
"^ ^ t.- %.o+p+h V q+- - r+Y 1 s+v.- t+0 0.j.- / >+u+[+= - - v+W ",
"W w+/ - x+J.q.y+Y c F.|+z+- h A+3 *.Z.5.2.=.| ^ A B+~ C+Q - ^ W ",
"r D+E+/ h < q.7.F+E.G+H+I+J+K+L+M+! = : =.| ^ ^ A B+N+O+I+<.D+K ",
"m p '+{+) P+- - Q+D.R+s+_.S+<.n b+d.| 9+- T+U+g+>+; - _ V+}+@.Q ",
"/+W+E < d+X+- H e+W Y+_ F ( / Q d.^ ^ A / - - w Z+`+ @.@Y : v.- ",
"+@~+| A P c.@@V | ^ A h #@Y A %.$@%@O O &@'.- - Q 8 | *@w+%.: $ ",
"=@1 ^ ^ ^ -@m - Y D.D.7+: ;@%.c.).*@E.D.} 3 - - - w >@k ,@e+`+'@",
"k.)@!@f++.~@{@X.X.7 - Q ]@( - - E ^@/@^+! Z.Q - - ( Q X.(@%._@:@",
"  <@d.o+[@}@m - - ( - 1.Q - - / : 0 Z.|@E 1@8 w 2@V+- - 3@^ ^ d.",
"4@;+!.}+p Q :.- - - : : P %.5@..x H H - %.d.2 J+<.- - x f.^ 6@7+",
"p ;+$ 1.o / i x./ - #@; ..F+F+7@8@- x P A ^ 2 J+<.- - M 9@^ 6@0@",
"T.a+- H a@; f.>.s.b@X c@*@E.E.d@c@; d w.e@f@@+<@)+Y L F.O A P g@",
"G.'.- - 4 ; - H K.  : : ).$@$@|+h@: G.: w 8 ,+3.i@G.%.$@$@%.- - ",
"- - q.' - - G.j@Y.; %.d.=.I+k@l.6.o.x H w x | ^ ^ | ' q.w - - - ",
"- H 2.l@U+m@G n@[+o@Y D.p@p q@r@F.W u.- ' | ^ ^ ^ ^ ) q.s@m - - "};
