/* XPM */
static char * wallwater_reverse_corner_bottomright_2_xpm[] = {
"32 32 403 2",
"  	c #155E71",
". 	c #167386",
"+ 	c #147589",
"@ 	c #13768C",
"# 	c #0F7B97",
"$ 	c #0D7D9B",
"% 	c #14778D",
"& 	c #0B7D9F",
"* 	c #0E7593",
"= 	c #186779",
"- 	c #14768A",
"; 	c #127993",
"> 	c #097EA1",
", 	c #12647C",
"' 	c #186F81",
") 	c #13778E",
"! 	c #13788E",
"~ 	c #0F7B99",
"{ 	c #0A7D9F",
"] 	c #156477",
"^ 	c #0E7C9A",
"/ 	c #0E7D9A",
"( 	c #097EA0",
"_ 	c #127189",
": 	c #146F83",
"< 	c #117B97",
"[ 	c #0F7C98",
"} 	c #0B7C9C",
"| 	c #12778F",
"1 	c #14657A",
"2 	c #0F7C9A",
"3 	c #0B7D9D",
"4 	c #117790",
"5 	c #156071",
"6 	c #167185",
"7 	c #0C7D9D",
"8 	c #15687C",
"9 	c #15697C",
"0 	c #0A7DA0",
"a 	c #147387",
"b 	c #156E83",
"c 	c #157488",
"d 	c #12778E",
"e 	c #0D7E9C",
"f 	c #146F84",
"g 	c #146B82",
"h 	c #186A7B",
"i 	c #186576",
"j 	c #186C80",
"k 	c #13778D",
"l 	c #15758B",
"m 	c #166778",
"n 	c #117A96",
"o 	c #146E82",
"p 	c #146C82",
"q 	c #196878",
"r 	c #177186",
"s 	c #14768B",
"t 	c #15697A",
"u 	c #127891",
"v 	c #146C81",
"w 	c #166C80",
"x 	c #186676",
"y 	c #186879",
"z 	c #14758C",
"A 	c #186C7F",
"B 	c #147184",
"C 	c #147287",
"D 	c #167285",
"E 	c #196776",
"F 	c #186A7A",
"G 	c #19687A",
"H 	c #175E6C",
"I 	c #166272",
"J 	c #13758F",
"K 	c #127992",
"L 	c #157286",
"M 	c #166F82",
"N 	c #196373",
"O 	c #186C7D",
"P 	c #157386",
"Q 	c #196272",
"R 	c #165E6C",
"S 	c #15697D",
"T 	c #127894",
"U 	c #13758B",
"V 	c #186B7C",
"W 	c #196574",
"X 	c #196C7E",
"Y 	c #186E81",
"Z 	c #185F6D",
"` 	c #147087",
" .	c #117A95",
"..	c #0F7796",
"+.	c #107996",
"@.	c #176D81",
"#.	c #186374",
"$.	c #196474",
"%.	c #157082",
"&.	c #157185",
"*.	c #166F86",
"=.	c #107796",
"-.	c #127892",
";.	c #176E82",
">.	c #157184",
",.	c #186070",
"'.	c #19697A",
").	c #167084",
"!.	c #117491",
"~.	c #117896",
"{.	c #15748A",
"].	c #177084",
"^.	c #157387",
"/.	c #17697B",
"(.	c #196170",
"_.	c #166D7F",
":.	c #157083",
"<.	c #067CA0",
"[.	c #087EA2",
"}.	c #1A697A",
"|.	c #1A6B7D",
"1.	c #156A7B",
"2.	c #107B97",
"3.	c #107892",
"4.	c #077DA1",
"5.	c #1A6979",
"6.	c #147288",
"7.	c #0E7D9B",
"8.	c #097A9A",
"9.	c #0E7D9C",
"0.	c #1A6A7B",
"a.	c #176677",
"b.	c #177086",
"c.	c #167086",
"d.	c #186372",
"e.	c #196A7D",
"f.	c #117C95",
"g.	c #117995",
"h.	c #15748B",
"i.	c #14748B",
"j.	c #157388",
"k.	c #18697C",
"l.	c #186575",
"m.	c #187084",
"n.	c #0F7D99",
"o.	c #167289",
"p.	c #167087",
"q.	c #196475",
"r.	c #14788E",
"s.	c #186A7C",
"t.	c #176C80",
"u.	c #147991",
"v.	c #176473",
"w.	c #176373",
"x.	c #107997",
"y.	c #0B7D9E",
"z.	c #0C7D9C",
"A.	c #117994",
"B.	c #167186",
"C.	c #107D9A",
"D.	c #187185",
"E.	c #17606E",
"F.	c #166B7D",
"G.	c #0D7C9D",
"H.	c #0D7D9C",
"I.	c #14758B",
"J.	c #117D98",
"K.	c #185F6E",
"L.	c #13738A",
"M.	c #0C7D9E",
"N.	c #14788C",
"O.	c #107B96",
"P.	c #186675",
"Q.	c #147388",
"R.	c #117791",
"S.	c #177085",
"T.	c #137A91",
"U.	c #166F81",
"V.	c #107C98",
"W.	c #147488",
"X.	c #176979",
"Y.	c #166B7C",
"Z.	c #14758A",
"`.	c #186776",
" +	c #1A6777",
".+	c #195F6E",
"++	c #0F7B98",
"@+	c #0F7C9B",
"#+	c #176F81",
"$+	c #186877",
"%+	c #127890",
"&+	c #127A95",
"*+	c #196978",
"=+	c #196070",
"-+	c #107A95",
";+	c #0D7C9A",
">+	c #0E7B98",
",+	c #117992",
"'+	c #186878",
")+	c #196B7C",
"!+	c #127991",
"~+	c #157287",
"{+	c #186373",
"]+	c #196877",
"^+	c #137791",
"/+	c #186778",
"(+	c #196A7A",
"_+	c #1A6879",
":+	c #167388",
"<+	c #196C7D",
"[+	c #196A7B",
"}+	c #14768C",
"|+	c #0D7D9D",
"1+	c #186A7D",
"2+	c #1A6B7C",
"3+	c #176F82",
"4+	c #167083",
"5+	c #147487",
"6+	c #167184",
"7+	c #196B7E",
"8+	c #1B697A",
"9+	c #176F84",
"0+	c #14748A",
"a+	c #13768D",
"b+	c #177185",
"c+	c #107B99",
"d+	c #127793",
"e+	c #1B6A7B",
"f+	c #196B7D",
"g+	c #0F7A99",
"h+	c #176E80",
"i+	c #156F82",
"j+	c #196D7F",
"k+	c #16697C",
"l+	c #166575",
"m+	c #196E82",
"n+	c #156778",
"o+	c #176675",
"p+	c #186B7E",
"q+	c #186D7F",
"r+	c #186D81",
"s+	c #156575",
"t+	c #196777",
"u+	c #14768F",
"v+	c #186979",
"w+	c #176C7D",
"x+	c #157389",
"y+	c #186473",
"z+	c #185E6D",
"A+	c #157285",
"B+	c #147790",
"C+	c #167286",
"D+	c #127A94",
"E+	c #167189",
"F+	c #137991",
"G+	c #137792",
"H+	c #186D83",
"I+	c #107C97",
"J+	c #127990",
"K+	c #166E82",
"L+	c #137690",
"M+	c #156C7F",
"N+	c #165E6B",
"O+	c #176879",
"P+	c #186F82",
"Q+	c #0B7C9D",
"R+	c #107993",
"S+	c #176272",
"T+	c #176A7B",
"U+	c #176A7E",
"V+	c #186F84",
"W+	c #186978",
"X+	c #176777",
"Y+	c #117894",
"Z+	c #0A7C9E",
"`+	c #0E7B9A",
" @	c #166E81",
".@	c #1B6879",
"+@	c #167488",
"@@	c #14788D",
"#@	c #166374",
"$@	c #176576",
"%@	c #165E6E",
"&@	c #196879",
"*@	c #177082",
"=@	c #156A7E",
"-@	c #186474",
";@	c #19687B",
">@	c #176475",
",@	c #137389",
"'@	c #13697B",
")@	c #14576A",
"!@	c #145769",
"~@	c #155465",
"{@	c #13778F",
"]@	c #156E82",
"^@	c #137790",
"/@	c #0F7D9A",
"(@	c #107B98",
"_@	c #156E81",
":@	c #147083",
"<@	c #126E82",
"[@	c #146A78",
"}@	c #247072",
"|@	c #618842",
"1@	c #4A752F",
"2@	c #546D3A",
"3@	c #12697D",
"4@	c #346B6A",
"5@	c #4F7844",
"6@	c #71A03B",
"7@	c #6E9129",
"8@	c #536E3B",
"9@	c #4A6536",
"0@	c #165F6E",
"a@	c #127C95",
"b@	c #147085",
"c@	c #1A6778",
"d@	c #136A7D",
"e@	c #125667",
"f@	c #729824",
"g@	c #64862E",
"h@	c #80AD1F",
"i@	c #789C28",
"j@	c #485F37",
"k@	c #4A5B39",
"l@	c #0C7E9E",
"m@	c #156D84",
"n@	c #166675",
"o@	c #0F7D9B",
"p@	c #176575",
"q@	c #11505F",
"r@	c #1D625C",
"s@	c #6D902A",
"t@	c #67872E",
"u@	c #80A921",
"v@	c #697F34",
"w@	c #474D3C",
"x@	c #5D6937",
"y@	c #165E6D",
"z@	c #176D7E",
"A@	c #13798F",
"B@	c #14778C",
"C@	c #166F80",
"D@	c #147489",
"E@	c #146276",
"F@	c #1E585B",
"G@	c #5E8137",
"H@	c #456131",
"I@	c #69872E",
"J@	c #6D872C",
"K@	c #4A742A",
"L@	c #46513B",
"M@	c #5D6837",
"N@	c #117B96",
"O@	c #17606F",
"P@	c #127C94",
"Q@	c #196E80",
"R@	c #13798E",
"S@	c #127B95",
"T@	c #177183",
"U@	c #137488",
"V@	c #0F6B7F",
"W@	c #5D7D42",
"X@	c #5A7637",
"Y@	c #536D3A",
"Z@	c #6F8430",
"`@	c #647432",
" #	c #608B1E",
".#	c #5A8027",
"+#	c #575E3F",
"@#	c #0E566C",
"##	c #166678",
"$#	c #186E84",
"%#	c #0E718C",
"&#	c #0B708E",
"*#	c #156F83",
"=#	c #166677",
"-#	c #137793",
";#	c #307076",
">#	c #638729",
",#	c #5B7C3A",
"'#	c #5B7338",
")#	c #6A7A2C",
"!#	c #5E6A37",
"~#	c #4C6437",
"{#	c #6D8F1C",
"]#	c #9EAA11",
"^#	c #12505F",
"/#	c #196F81",
"(#	c #15768A",
"_#	c #0D718C",
":#	c #196E81",
"<#	c #127995",
"[#	c #0B7692",
"}#	c #58794A",
"|#	c #527733",
"1#	c #54713A",
"2#	c #5B7139",
"3#	c #515841",
"4#	c #606D36",
"5#	c #9FAC11",
"6#	c #8F9C1F",
"  . + + @ # $ $ % & * = + + - - $ $ # ; > , ' + + @ ) $ $ ! ~ { ",
"] + + ; ^ / $ ( + @ _ : + + < [ $ $ } + | 1 + + @ 2 [ $ 3 4 - 4 ",
"5 6 + # $ # 7 ~ + + 8 9 . + $ [ [ 0 ; + a 5 b c d e # ^ & @ + f ",
"g h i j k + l m @ n o p q i r s - r t ; u v w x y z + @ A B n C ",
"a D E F ' + G H I J K L M N O . P Q R S T U L V W X + Y Z R `  .",
"..+.D @.+ + #.$.%.&.*.=.-.D ;.+ >.,.'.%.).!.~.{.].^.+ /.(._.:.@.",
"<.[.n + }.|.1.2.2 2 3.4.0 ) D 5.h 6.2 7.2.8.[.9.+ X 0.a.u 2 7.u ",
"b.) c.;.d.e.f.$ $ $ g.h.i.j.k.l.m.n.$ $ $ o.) p.^.q.y r.7.$ $ 7.",
"s.t.) 2.u.v.w.x.y.z.A.a.B.) C.D.E.F.G.y.H.r m I.u J.'.K.L.M.3 $ ",
"+ N.7.$ O.P P.Q.R.| S.+ T.$ $ d U.P.d R.z j.- V.$ 7.W.X.Y.4 4 r ",
"Z.A.$ $ 7 l `.5. +.+' k ++$ z.@+#+$+}.N Q . %+^ $ 7 &+F *+5.=+'.",
"- -+$ $ ;+y i 5.5. ++ % >+$ z.,+Q $+5.'+)++ !+;+$ 7 ~+{+*+5.]+D ",
"K M.$ [ ^+/+(+P P _+:+~ 3 7.2.c.x <++ ' [+}+|+z.^ n 1+q ' + 2+3+",
"| R.) - + + ].^.+ >.^.4 4 ) + + W.@.+ + 4+}+R.| @ + + . ;.+ 5+6+",
"7+8++ + + + + X 9+- ^.0.X + + + + + 0.0++ ;.8+D + + + + D 7+a++ ",
"7+8+' + + + . (+b+c+d+0.e+P + + + ' (+u.~ p.8+|.+ + + + f+<+J.g+",
";.+ 8+h+%.i+j+k+l+_+0.^.D 8+%.:.U.m+n+o+8+p++ X 2+%.:.q+r+s+t+}.",
"k % u+v+H F.2./ ; X w+; }+x+y+z+C 2 n.k 5.A+; B+#+E.{+u 7.2.C+*+",
"D+[ 7.) X a+$ $ A.) E+F+$ 2 D D u $ ^ %+i.G+K $ O.X Z.++$ ++) p.",
"2.$ $ d H+2 $ $ >+7.2 ^ $ $ D u+7.$ ;+^ 7.< $ $ # A 2.$ $ >+7.7.",
"$ / Z.t.2.7 $ $ $ $ $ 7.I+A+*.2 3 $ $ $ $ $ 7.J+K+L+H.z.$ $ $ $ ",
") M+N+O+P+4 2 $ $ $ Q+) s+H O {.R+7.$ $ 7 H.l S+T++ | | I.U+V+U+",
"d.W+X+*+X e+'.Y+Z+`+ @`.'+'+(+X .@3+`+Z+Y+@.p.) }.+@D+@@_.#@$@%@",
"&@5.5.*@+ P =@-@' + ;@*+5.5.. + 6 >@/+. D L 2 7.Y+o+j+,@'@)@!@~@",
"' + z @+{@) ]@%.) d 0+. + ^@/@) a+>@Z.) d ) (@++_@:@<@[@}@|@1@2@",
"^.^.W.z | ) 6+6+2 $ # ;.+ L ) ) k s.) 7.$ 2 + + L 3@4@5@6@7@8@9@",
"].F+! a+0@s.+ + ) ++-.@.a@) b@I ' + + g.# % 6 c@d@e@f@g@h@i@j@k@",
"O n l@m@s.+ + + . /+n@A+o@|+= 6 + + + ' p@s.G R q@r@s@t@u@v@w@x@",
"O A k.y@z@A@+ + :.X.P <+j -@E.B@B@+ + X+C@+ D@E@F@G@H@I@J@K@L@M@",
"N@O.c b O@^.P@a+Q@W.a+# ; . S {+R@S@. T@+ + U@V@W@X@Y@Z@`@ #.#+#",
"@#H.W.L ##l+;.X $#7.%#&#O.L *#$@=#^.8+-#$ 2 U ;#>#,#'#)#!#~#{#]#",
"^#/#@.L @ (#n {.I.7._#w.:#).j.Z.% n D <#$ $ [#}#|#1#2#)#3#4#5#6#"};
