/* XPM */
static char * wallwater_border_right_1_xpm[] = {
"32 32 631 2",
"  	c #147690",
". 	c #166473",
"+ 	c #186373",
"@ 	c #127A94",
"# 	c #0D7D9C",
"$ 	c #0D7D9B",
"% 	c #0E7C9A",
"& 	c #14778D",
"* 	c #147589",
"= 	c #176E82",
"- 	c #196C7E",
"; 	c #1A6B7C",
"> 	c #157082",
", 	c #146B80",
"' 	c #1F677C",
") 	c #19637A",
"! 	c #0E5E75",
"~ 	c #0B5368",
"{ 	c #17556B",
"] 	c #2F6B7E",
"^ 	c #596B13",
"/ 	c #68792F",
"( 	c #64872B",
"_ 	c #649E15",
": 	c #61931C",
"< 	c #464C3D",
"[ 	c #5F6939",
"} 	c #6F7E2C",
"| 	c #627133",
"1 	c #545A3D",
"2 	c #167286",
"3 	c #19697B",
"4 	c #165E6C",
"5 	c #166576",
"6 	c #117893",
"7 	c #0C7E9D",
"8 	c #0F7A98",
"9 	c #127993",
"0 	c #147790",
"a 	c #176F81",
"b 	c #17606E",
"c 	c #0F7189",
"d 	c #166D86",
"e 	c #21677C",
"f 	c #0A6179",
"g 	c #0A4355",
"h 	c #155B72",
"i 	c #335F5E",
"j 	c #414916",
"k 	c #484B39",
"l 	c #48533C",
"m 	c #547939",
"n 	c #52822C",
"o 	c #5E6E36",
"p 	c #697730",
"q 	c #5A623C",
"r 	c #484D3D",
"s 	c #4C4F40",
"t 	c #12788F",
"u 	c #13778E",
"v 	c #157285",
"w 	c #196978",
"x 	c #196B7C",
"y 	c #196372",
"z 	c #1A6B7D",
"A 	c #167285",
"B 	c #127992",
"C 	c #107B96",
"D 	c #14758A",
"E 	c #0E7792",
"F 	c #10728E",
"G 	c #0C6C86",
"H 	c #0D5F76",
"I 	c #0A495D",
"J 	c #0F5971",
"K 	c #1F515E",
"L 	c #1C1E13",
"M 	c #3E3F2D",
"N 	c #5E7D37",
"O 	c #57743B",
"P 	c #56773A",
"Q 	c #5A7836",
"R 	c #525F3F",
"S 	c #494C3F",
"T 	c #5D663A",
"U 	c #74882A",
"V 	c #17758A",
"W 	c #167386",
"X 	c #147488",
"Y 	c #176D81",
"Z 	c #137A90",
"` 	c #0F7B97",
" .	c #186C7F",
"..	c #107B97",
"+.	c #0E7692",
"@.	c #0A647C",
"#.	c #0C556B",
"$.	c #1E5B71",
"%.	c #4695AA",
"&.	c #171A10",
"*.	c #232916",
"=.	c #5B7020",
"-.	c #6C872C",
";.	c #557B37",
">.	c #4B832B",
",.	c #56643E",
"'.	c #677137",
").	c #73822C",
"!.	c #6F832A",
"~.	c #1B697A",
"{.	c #15758C",
"].	c #127891",
"^.	c #157488",
"/.	c #15748A",
"(.	c #0F7C9A",
"_.	c #0E7D9A",
":.	c #176C80",
"<.	c #0C7D9D",
"[.	c #0E7B99",
"}.	c #0A7795",
"|.	c #0A6680",
"1.	c #1D5E76",
"2.	c #58ABAF",
"3.	c #1A4550",
"4.	c #191D00",
"5.	c #2F3910",
"6.	c #41590C",
"7.	c #617721",
"8.	c #587438",
"9.	c #607537",
"0.	c #69782C",
"a.	c #667436",
"b.	c #4E5340",
"c.	c #157286",
"d.	c #1B6A7B",
"e.	c #156C7F",
"f.	c #165E6B",
"g.	c #176879",
"h.	c #186F82",
"i.	c #117790",
"j.	c #0D7795",
"k.	c #126D8C",
"l.	c #377786",
"m.	c #1D7891",
"n.	c #208591",
"o.	c #1B2110",
"p.	c #404E08",
"q.	c #9BAA11",
"r.	c #799729",
"s.	c #688630",
"t.	c #5C6D3A",
"u.	c #4C563E",
"v.	c #13768D",
"w.	c #14768A",
"x.	c #157083",
"y.	c #17606F",
"z.	c #127892",
"A.	c #166575",
"B.	c #186372",
"C.	c #186978",
"D.	c #176777",
"E.	c #19697A",
"F.	c #117894",
"G.	c #0A7C9E",
"H.	c #0D7998",
"I.	c #16697B",
"J.	c #1A5E75",
"K.	c #094660",
"L.	c #12708C",
"M.	c #3E727A",
"N.	c #1E3403",
"O.	c #627F20",
"P.	c #8BB21B",
"Q.	c #6A8A2F",
"R.	c #4B5C3A",
"S.	c #4F543D",
"T.	c #6E7C30",
"U.	c #117892",
"V.	c #0F7C98",
"W.	c #117B97",
"X.	c #167185",
"Y.	c #177188",
"Z.	c #157386",
"`.	c #1A6879",
" +	c #196879",
".+	c #1A6979",
"++	c #177082",
"@+	c #156A7E",
"#+	c #186474",
"$+	c #186F81",
"%+	c #186477",
"&+	c #106C87",
"*+	c #096180",
"=+	c #2B6A83",
"-+	c #418B9D",
";+	c #284700",
">+	c #3E5425",
",+	c #79A524",
"'+	c #75942B",
")+	c #649122",
"!+	c #5C8225",
"~+	c #55623A",
"{+	c #196A7A",
"]+	c #127A95",
"^+	c #18616F",
"/+	c #176373",
"(+	c #176677",
"_+	c #117996",
":+	c #14748A",
"<+	c #176575",
"[+	c #13778D",
"}+	c #12778D",
"|+	c #12758B",
"1+	c #0F6A83",
"2+	c #32788F",
"3+	c #4494A7",
"4+	c #243529",
"5+	c #303E11",
"6+	c #617B26",
"7+	c #76912B",
"8+	c #6A9621",
"9+	c #4A6139",
"0+	c #4F5241",
"a+	c #176E81",
"b+	c #157389",
"c+	c #0C7F9D",
"d+	c #0D7D9D",
"e+	c #107894",
"f+	c #0E7B98",
"g+	c #157388",
"h+	c #12778F",
"i+	c #186A7B",
"j+	c #117A96",
"k+	c #107D9B",
"l+	c #0E7490",
"m+	c #1B687C",
"n+	c #307888",
"o+	c #3E7164",
"p+	c #324E09",
"q+	c #3F5B24",
"r+	c #7B8F21",
"s+	c #6C7E2E",
"t+	c #45483C",
"u+	c #176F83",
"v+	c #1A6778",
"w+	c #17616F",
"x+	c #186271",
"y+	c #176271",
"z+	c #067EA3",
"A+	c #057EA4",
"B+	c #167186",
"C+	c #137A91",
"D+	c #156576",
"E+	c #15768A",
"F+	c #0F7B98",
"G+	c #0F7A95",
"H+	c #116A7E",
"I+	c #125B70",
"J+	c #297074",
"K+	c #447F70",
"L+	c #577A1F",
"M+	c #6A8433",
"N+	c #80AA1F",
"O+	c #758929",
"P+	c #44473C",
"Q+	c #46493D",
"R+	c #0E7D9B",
"S+	c #196979",
"T+	c #196878",
"U+	c #077EA2",
"V+	c #186576",
"W+	c #0D7E9D",
"X+	c #117795",
"Y+	c #196677",
"Z+	c #196A7B",
"`+	c #135A69",
" @	c #104F5F",
".@	c #2C6866",
"+@	c #467D4D",
"@@	c #609027",
"#@	c #527B2E",
"$@	c #658531",
"%@	c #7FA622",
"&@	c #677435",
"*@	c #5D6837",
"=@	c #166372",
"-@	c #186677",
";@	c #147489",
">@	c #176476",
",@	c #176979",
"'@	c #166675",
")@	c #165F6E",
"!@	c #176978",
"~@	c #186C80",
"{@	c #186473",
"]@	c #137B91",
"^@	c #166271",
"/@	c #10697D",
"(@	c #175F6E",
"_@	c #568145",
":@	c #608126",
"<@	c #4F6C36",
"[@	c #4C6737",
"}@	c #6A892F",
"|@	c #6D8B2C",
"1@	c #4A742A",
"2@	c #46513B",
"3@	c #186575",
"4@	c #166C7F",
"5@	c #156E81",
"6@	c #157287",
"7@	c #156F84",
"8@	c #16606E",
"9@	c #1A6777",
"0@	c #1A697A",
"a@	c #176A7A",
"b@	c #166273",
"c@	c #176A7C",
"d@	c #137B92",
"e@	c #136F82",
"f@	c #0D657B",
"g@	c #105C6F",
"h@	c #5E844E",
"i@	c #7BA126",
"j@	c #5B7838",
"k@	c #53703B",
"l@	c #6F8630",
"m@	c #647432",
"n@	c #608B1E",
"o@	c #5A8027",
"p@	c #575E3F",
"q@	c #156A7C",
"r@	c #12778E",
"s@	c #196170",
"t@	c #186778",
"u@	c #196574",
"v@	c #17697A",
"w@	c #0B7C9D",
"x@	c #15697C",
"y@	c #176A7D",
"z@	c #0D7896",
"A@	c #076B89",
"B@	c #126A87",
"C@	c #388283",
"D@	c #617C2B",
"E@	c #618238",
"F@	c #5E7A37",
"G@	c #6C842B",
"H@	c #5E6A37",
"I@	c #4C6437",
"J@	c #6D8F1C",
"K@	c #9EAA11",
"L@	c #0F7C9B",
"M@	c #1A6A7B",
"N@	c #196D7F",
"O@	c #14758B",
"P@	c #0E7997",
"Q@	c #096F8D",
"R@	c #0B6282",
"S@	c #27798E",
"T@	c #4A6831",
"U@	c #55713A",
"V@	c #5C7A38",
"W@	c #6F9029",
"X@	c #515841",
"Y@	c #606D36",
"Z@	c #9FAC11",
"`@	c #8F9C1F",
" #	c #186E80",
".#	c #176F82",
"+#	c #117B96",
"@#	c #167087",
"##	c #107A97",
"$#	c #166474",
"%#	c #13768C",
"&#	c #077394",
"*#	c #237790",
"=#	c #306C6E",
"-#	c #3F5D2D",
";#	c #496535",
">#	c #5C7B37",
",#	c #56703C",
"'#	c #575D3D",
")#	c #73822D",
"!#	c #637231",
"~#	c #166F86",
"{#	c #147389",
"]#	c #187185",
"^#	c #127894",
"/#	c #166D7F",
"(#	c #176474",
"_#	c #186C7D",
":#	c #097EA0",
"<#	c #147588",
"[#	c #106F85",
"}#	c #4394A6",
"|#	c #486028",
"1#	c #6B8929",
"2#	c #6C7A31",
"3#	c #4E5141",
"4#	c #595F3F",
"5#	c #5E683A",
"6#	c #535F3F",
"7#	c #097DA2",
"8#	c #185F6D",
"9#	c #176676",
"0#	c #176273",
"a#	c #0F7B99",
"b#	c #116E82",
"c#	c #4998A6",
"d#	c #477F6C",
"e#	c #466C14",
"f#	c #5F7E34",
"g#	c #628036",
"h#	c #70872C",
"i#	c #717F2F",
"j#	c #5B633C",
"k#	c #525742",
"l#	c #636F33",
"m#	c #186F83",
"n#	c #157284",
"o#	c #186B7D",
"p#	c #146D82",
"q#	c #15758B",
"r#	c #166778",
"s#	c #0E728E",
"t#	c #3F8D9E",
"u#	c #3F827F",
"v#	c #2D4507",
"w#	c #54750F",
"x#	c #708E28",
"y#	c #608235",
"z#	c #6E872B",
"A#	c #68772D",
"B#	c #658725",
"C#	c #69782E",
"D#	c #1A697B",
"E#	c #127991",
"F#	c #0F7A99",
"G#	c #117995",
"H#	c #157489",
"I#	c #186B7C",
"J#	c #186E81",
"K#	c #146F86",
"L#	c #0F738E",
"M#	c #22748E",
"N#	c #218699",
"O#	c #2E441C",
"P#	c #325700",
"Q#	c #647A1B",
"R#	c #5D8037",
"S#	c #547737",
"T#	c #669414",
"U#	c #659605",
"V#	c #637C2B",
"W#	c #1A6171",
"X#	c #117896",
"Y#	c #177084",
"Z#	c #157387",
"`#	c #17697B",
" $	c #16697D",
".$	c #19647A",
"+$	c #1E798B",
"@$	c #538B80",
"#$	c #3B6200",
"$$	c #50740D",
"%$	c #68882B",
"&$	c #5B8A2A",
"*$	c #7FAC0C",
"=$	c #709D16",
"-$	c #50603C",
";$	c #0B7B9C",
">$	c #0B7D9D",
",$	c #0B7D9E",
"'$	c #13758D",
")$	c #0A7EA0",
"!$	c #087EA2",
"~$	c #0E7D9C",
"{$	c #137790",
"]$	c #196C7F",
"^$	c #114F64",
"/$	c #56A3A9",
"($	c #59764B",
"_$	c #627D05",
":$	c #9FB30A",
"<$	c #86A11F",
"[$	c #7DA21B",
"}$	c #4E6734",
"|$	c #515442",
"1$	c #0D7C9C",
"2$	c #166779",
"3$	c #1A6878",
"4$	c #176D80",
"5$	c #196475",
"6$	c #186879",
"7$	c #14788E",
"8$	c #1A839F",
"9$	c #207C91",
"0$	c #0F5E75",
"a$	c #378399",
"b$	c #4B8B91",
"c$	c #647F17",
"d$	c #9FB80E",
"e$	c #89AE1C",
"f$	c #96AA14",
"g$	c #909D1F",
"h$	c #5F6A3B",
"i$	c #157589",
"j$	c #137793",
"k$	c #147287",
"l$	c #186574",
"m$	c #176E80",
"n$	c #186A7C",
"o$	c #147991",
"p$	c #176473",
"q$	c #107997",
"r$	c #0C7D9C",
"s$	c #0E7B9A",
"t$	c #2A7B90",
"u$	c #337D8E",
"v$	c #206373",
"w$	c #317E95",
"x$	c #547E5E",
"y$	c #87A41D",
"z$	c #8CAF1D",
"A$	c #668330",
"B$	c #6E8B29",
"C$	c #97A615",
"D$	c #9EAE0E",
"E$	c #196474",
"F$	c #18606F",
"G$	c #14788C",
"H$	c #186675",
"I$	c #147388",
"J$	c #117791",
"K$	c #3B8D9D",
"L$	c #4297A8",
"M$	c #4191A3",
"N$	c #1D7993",
"O$	c #6C832F",
"P$	c #9BB911",
"Q$	c #789A26",
"R$	c #50623E",
"S$	c #436930",
"T$	c #608F16",
"U$	c #748F24",
"V$	c #157184",
"W$	c #117994",
"X$	c #186776",
"Y$	c #195F6E",
"Z$	c #3A93A5",
"`$	c #3F93A4",
" %	c #297E90",
".%	c #2F7681",
"+%	c #637E2B",
"@%	c #7CA425",
"#%	c #608137",
"$%	c #47513C",
"%%	c #759F1C",
"&%	c #5A8026",
"*%	c #4E5041",
"=%	c #107A95",
"-%	c #0D7C9A",
";%	c #1E839F",
">%	c #197893",
",%	c #1B6E83",
"'%	c #506F4B",
")%	c #708E2E",
"!%	c #6B8C2D",
"~%	c #55673E",
"{%	c #525D41",
"]%	c #567830",
"^%	c #4B553D",
"/%	c #137288",
"(%	c #176170",
"_%	c #137891",
":%	c #0C7D9E",
"<%	c #137791",
"[%	c #0F718B",
"}%	c #185D6D",
"|%	c #51836D",
"1%	c #506B39",
"2%	c #516C3A",
"3%	c #648536",
"4%	c #788A2A",
"5%	c #7D9F20",
"6%	c #778C29",
"7%	c #6B7932",
"8%	c #515742",
"9%	c #167083",
"0%	c #15778D",
"a%	c #115F71",
"b%	c #0E5C6E",
"c%	c #3C676F",
"d%	c #678137",
"e%	c #4B6736",
"f%	c #6A8832",
"g%	c #7FA621",
"h%	c #87A31C",
"i%	c #72862E",
"j%	c #5D683C",
"k%	c #565F3E",
"l%	c #59623E",
"m%	c #196E81",
"n%	c #196B7E",
"o%	c #166F84",
"p%	c #127489",
"q%	c #0C5A6C",
"r%	c #3C7077",
"s%	c #54959A",
"t%	c #5F7335",
"u%	c #648235",
"v%	c #77972A",
"w%	c #718830",
"x%	c #58633C",
"y%	c #4B4E3F",
"z%	c #545A41",
"A%	c #71842F",
"B%	c #0E7D99",
"C%	c #107C99",
"D%	c #0F7694",
"E%	c #0D596B",
"F%	c #347D8E",
"G%	c #428F99",
"H%	c #7AA01F",
"I%	c #6A8E2A",
"J%	c #66931C",
"K%	c #515540",
"L%	c #45473C",
"M%	c #677532",
"N%	c #778A2A",
"  . + @ # $ % & * = * - ; > > , ' ) ! ~ { ] ^ / ( _ : < [ } | 1 ",
"2 3 4 5 6 7 8 = * * 9 0 a b + c d e f g h i j k l m n o p q r s ",
"t u v w x y z A * 9 B $ C - D E F G H I J K L M N O P Q R S T U ",
"t u A V * W X Y Z 9 $ $ `  ...$ +.F @.#.$.%.&.*.=.-.;.>.,.'.).!.",
"~.z - {...].^.z /.(.$ _.D :...<.(.[.}.|.1.2.3.4.5.6.7.8.9.0.a.b.",
"A X * c.- /.^.z d./.u e.f.g.h.i.(.$ $ j.k.l.m.n.o.p.q.r.s.t.< u.",
"* v.w.w.x.y.6 z.* A.B.C.D.w - d.E.F.G.H.I.J.K.L.M.N.O.P.Q.R.S.T.",
"v.U.V.W.X.y Y.u Z.`. +.+.+++* Z.@+#+$+* %+&+*+=+-+;+>+,+'+)+!+~+",
"{+]+$ $ (.v.^+/+(+W * $+* * _+@ u :+<+[+}+|+1+2+3+4+5+6+7+8+9+0+",
"a+b+c+d+/.- x e+G.f+9 * = * g+h+u w.i+j+$ k+l+m+n+o+p+q+r+s+0+t+",
"..u+v+w+x+y+h+z+A+z+9 W B+C+u D+(+W * E+F+G+H+I+J+K+L+M+N+O+P+Q+",
"R+u .+S+T+B.u U+z+6 V+T+u W+X+Y+* * * * Z+`+ @.@+@@@#@$@%@&@Q+*@",
"].=@-@W ;@>@,@A x.'@)@!@- ~@y.{@]@w.* * ^@/@(@_@:@<@[@}@|@1@2@*@",
"3@4@5@6@7@8@w+= 9@0@a@].` [+X.b@c@d@9 $+e@f@g@h@i@j@k@l@m@n@o@p@",
"q@r@[+- s@t@u@/...u v@z.w@u c.x@<+y@A ~.z@A@B@C@D@E@F@G@H@I@J@K@",
"u L@& - Z+A M@:+$ (.X X N@~@c.O@* 9 z.A P@Q@R@S@T@U@V@W@X@Y@Z@`@",
" #X * * X..#+#D @###X.$#d.Z.* * %#j+$ (.O@&#*#=#-#;#>#,#'#)#} !#",
"j+~#* {#+ s@]#w.& ^#/#(#_#* * 9 % _.$ :#<#[#}#o+|#;#1#2#3#4#5#6#",
"7#h+8#^+t@T+h...$ $ ..9#0#X.* ` $ ` <.a#X b#c#d#e#f#g#h#i#j#k#l#",
"h+m#E.n#A A ..$ $ $ ..o#p#i+V+~@[+* q#r#%#s#t#u#v#w#x#y#z#A#B#C#",
"D#:+E#(.& * u F#G#H#* * c.I#u@- * J#8#4 K#L#M#N#O#P#Q#R#S#T#U#V#",
"W ..$ $ (.%#* * v+W#@#a#X#/.Y#Z#* `#s@/#x. $.$+$@$#$$$%$&$*$=$-$",
"* ;$>$>$,$'$= * * $+/.)$!$~$* - M@(+].(.R+{$]$^$/$($_$:$<$[$}$|$",
"c.^#A+A+1$2$* * * * 3$4$u @#Z#5$6$7$R+$ $ 8$9$0$a$b$c$d$e$f$g$h$",
"s@i$j$k$l$m$* * X X n$:.u ..o$p$/+q$,$r$s$t$u$v$w$x$y$z$A$B$C$D$",
"E$F$.+9@x.A - _#v@X * G$R+$ C Z.H$I$J$h+~@K$L$M$N$O$P$Q$R$S$T$U$",
"Z.- * %#r@u V$s@{#* D W$$ $ <.q#X$.+9@Y$a+Z$`$ %.%+%@%#%$%%%&%*%",
"* * j+% $ E#V$s@* * w.=%$ $ -%6$V+.+.+9@%#;%>%,%'%)%!%~%{%]%^%P+",
"Z.* ^#8 j+/%(%w :+_%B :%$ V.<%t@{+Z.Z.`.c.[%}%|%1%2%3%4%5%6%7%8%",
"- * v  # #x.9%0%c.v.h+J$u w.* * Y#Z#* V$a%b%c%d%e%f%g%h%i%j%k%l%",
"m%:+Z.D#D ..$ $ R+].n%~.* * * * * - o%p%q%r%s%t%u%v%w%x%y%P+z%A%",
"B%C%* Z#..$ $ $ $ (.n%~.$+* * * W {+]#D%E%F%G%H%I%J%K%L%P+y%M%N%"};
