/* XPM */
static char * wallwater_corner_topright_2_xpm[] = {
"32 32 809 2",
"  	c #67723A",
". 	c #79902F",
"+ 	c #647235",
"@ 	c #6C7A36",
"# 	c #728034",
"$ 	c #58653F",
"% 	c #6A763A",
"& 	c #727F31",
"* 	c #5F6836",
"= 	c #4A4D3E",
"- 	c #515543",
"; 	c #5B6640",
"> 	c #5C7139",
", 	c #56663D",
"' 	c #687636",
") 	c #94A02A",
"! 	c #9EA925",
"~ 	c #73892F",
"{ 	c #76A020",
"] 	c #4C5E37",
"^ 	c #4F5442",
"/ 	c #6C7937",
"( 	c #8CA429",
"_ 	c #758038",
": 	c #44473D",
"< 	c #58613F",
"[ 	c #535942",
"} 	c #575D3F",
"| 	c #748234",
"1 	c #707E32",
"2 	c #748233",
"3 	c #5D6B3B",
"4 	c #677437",
"5 	c #606D3A",
"6 	c #677733",
"7 	c #638727",
"8 	c #6E8B32",
"9 	c #43453D",
"0 	c #515443",
"a 	c #667237",
"b 	c #6F7D34",
"c 	c #565C40",
"d 	c #555C42",
"e 	c #91A628",
"f 	c #85A027",
"g 	c #668D22",
"h 	c #4C543B",
"i 	c #45473D",
"j 	c #55603E",
"k 	c #64842D",
"l 	c #76892E",
"m 	c #4B4E40",
"n 	c #687632",
"o 	c #6C7936",
"p 	c #4E5142",
"q 	c #5A5F40",
"r 	c #5F683D",
"s 	c #545F41",
"t 	c #545A3F",
"u 	c #515643",
"v 	c #5F6C3A",
"w 	c #59663E",
"x 	c #4F6F33",
"y 	c #76A120",
"z 	c #779E28",
"A 	c #5D6C3E",
"B 	c #505343",
"C 	c #4E5141",
"D 	c #4F5A41",
"E 	c #4E5341",
"F 	c #43493C",
"G 	c #627539",
"H 	c #729B20",
"I 	c #96A925",
"J 	c #9FA924",
"K 	c #68793A",
"L 	c #4D5A3A",
"M 	c #456834",
"N 	c #6A971A",
"O 	c #7FA820",
"P 	c #75942E",
"Q 	c #5C693F",
"R 	c #5E673D",
"S 	c #727F36",
"T 	c #5B633E",
"U 	c #525743",
"V 	c #636F37",
"W 	c #474B3F",
"X 	c #4A4C40",
"Y 	c #5F7E31",
"Z 	c #526B36",
"` 	c #5E693A",
" .	c #4E6039",
"..	c #46503D",
"+.	c #4F5A40",
"@.	c #587734",
"#.	c #689322",
"$.	c #6F8531",
"%.	c #94A727",
"&.	c #A2AF22",
"*.	c #92A029",
"=.	c #6E8333",
"-.	c #5A822A",
";.	c #708D2A",
">.	c #687532",
",.	c #78902F",
"'.	c #5B693C",
").	c #6C7A32",
"!.	c #697732",
"~.	c #67872D",
"{.	c #6A7833",
"].	c #545842",
"^.	c #565D3C",
"/.	c #576B37",
"(.	c #6B9819",
"_.	c #5F7B31",
":.	c #7F9D2C",
"<.	c #555B40",
"[.	c #5D673F",
"}.	c #6B7E34",
"|.	c #7C8D31",
"1.	c #86922F",
"2.	c #6E8031",
"3.	c #637137",
"4.	c #525A43",
"5.	c #575E40",
"6.	c #657B32",
"7.	c #6B8B2E",
"8.	c #7B972D",
"9.	c #8A9F2B",
"0.	c #758630",
"a.	c #6B7832",
"b.	c #51643E",
"c.	c #699321",
"d.	c #689519",
"e.	c #647C31",
"f.	c #7C8934",
"g.	c #9EA825",
"h.	c #76952D",
"i.	c #607E34",
"j.	c #7A8B2F",
"k.	c #A1B725",
"l.	c #789230",
"m.	c #789A30",
"n.	c #89A52D",
"o.	c #9FAD23",
"p.	c #839F2B",
"q.	c #88972D",
"r.	c #6A7B35",
"s.	c #5C633F",
"t.	c #50573D",
"u.	c #4F5242",
"v.	c #45483D",
"w.	c #628E20",
"x.	c #5D6B3D",
"y.	c #6D8033",
"z.	c #7C962E",
"A.	c #79942E",
"B.	c #788F2F",
"C.	c #677536",
"D.	c #5A7A33",
"E.	c #82AB21",
"F.	c #739C24",
"G.	c #50603E",
"H.	c #60743E",
"I.	c #8D9B2F",
"J.	c #919F2D",
"K.	c #688234",
"L.	c #7E992E",
"M.	c #A9BE23",
"N.	c #7DA32C",
"O.	c #67891F",
"P.	c #607D16",
"Q.	c #5E6F21",
"R.	c #657A2D",
"S.	c #5F7F34",
"T.	c #4F5541",
"U.	c #44473E",
"V.	c #46493E",
"W.	c #575C41",
"X.	c #54752F",
"Y.	c #55762F",
"Z.	c #515642",
"`.	c #535D41",
" +	c #616C3A",
".+	c #769033",
"++	c #93A029",
"@+	c #A0AA24",
"#+	c #A8B220",
"$+	c #879D2C",
"%+	c #7FA129",
"&+	c #4F6738",
"*+	c #59763E",
"=+	c #60773D",
"-+	c #798B38",
";+	c #638238",
">+	c #688839",
",+	c #87A230",
"'+	c #669617",
")+	c #4E7C03",
"!+	c #3A6303",
"~+	c #384409",
"{+	c #576326",
"]+	c #6C9C20",
"^+	c #6E8336",
"/+	c #616D36",
"(+	c #5E6A3A",
"_+	c #748534",
":+	c #7D982E",
"<+	c #748C2F",
"[+	c #667532",
"}+	c #525C42",
"|+	c #47493E",
"1+	c #474A3F",
"2+	c #4B5040",
"3+	c #57623F",
"4+	c #748530",
"5+	c #A1AF23",
"6+	c #88A12A",
"7+	c #97A926",
"8+	c #919C2B",
"9+	c #606A3E",
"0+	c #7D942A",
"a+	c #50681E",
"b+	c #465A1F",
"c+	c #486C28",
"d+	c #5C8136",
"e+	c #6B892D",
"f+	c #496B0C",
"g+	c #436B00",
"h+	c #4E5705",
"i+	c #5B6600",
"j+	c #637113",
"k+	c #9AAF27",
"l+	c #7FA42E",
"m+	c #6D8330",
"n+	c #738233",
"o+	c #738133",
"p+	c #667337",
"q+	c #6E7B37",
"r+	c #6A753A",
"s+	c #5E673E",
"t+	c #4B4F40",
"u+	c #87972D",
"v+	c #637037",
"w+	c #6F8A30",
"x+	c #98A526",
"y+	c #5B680D",
"z+	c #3C4F07",
"A+	c #2C3D0B",
"B+	c #2D4E0C",
"C+	c #547F0B",
"D+	c #446509",
"E+	c #596601",
"F+	c #5F6800",
"G+	c #314606",
"H+	c #506C0D",
"I+	c #698A37",
"J+	c #618538",
"K+	c #5C8138",
"L+	c #657B3B",
"M+	c #5B683D",
"N+	c #545C43",
"O+	c #576241",
"P+	c #566B40",
"Q+	c #556641",
"R+	c #707D33",
"S+	c #575D40",
"T+	c #4F5841",
"U+	c #9AAB25",
"V+	c #4F5B40",
"W+	c #638E22",
"X+	c #768E2D",
"Y+	c #202511",
"Z+	c #293509",
"`+	c #2C3C0E",
" @	c #29330F",
".@	c #343E07",
"+@	c #3F5304",
"@@	c #515C03",
"#@	c #374904",
"$@	c #2E370B",
"%@	c #282F11",
"&@	c #445814",
"*@	c #5F7835",
"=@	c #4E6837",
"-@	c #5C763A",
";@	c #556D3E",
">@	c #546D37",
",@	c #66832D",
"'@	c #566B2F",
")@	c #637C36",
"!@	c #5D7F3E",
"~@	c #5F7D3E",
"{@	c #778E34",
"]@	c #76992D",
"^@	c #5C8726",
"/@	c #485E3A",
"(@	c #6B7738",
"_@	c #7B922F",
":@	c #5C673F",
"<@	c #47513D",
"[@	c #789E29",
"}@	c #5C7F2D",
"|@	c #4E5042",
"1@	c #121A0E",
"2@	c #2E4804",
"3@	c #304B01",
"4@	c #364604",
"5@	c #333E08",
"6@	c #303C0E",
"7@	c #233706",
"8@	c #537539",
"9@	c #2B430A",
"0@	c #252B13",
"a@	c #242A13",
"b@	c #2B361C",
"c@	c #5D7A28",
"d@	c #6D8C30",
"e@	c #58753F",
"f@	c #749632",
"g@	c #527416",
"h@	c #385D04",
"i@	c #5B7812",
"j@	c #6F9F25",
"k@	c #5E8635",
"l@	c #82A82F",
"m@	c #7FA72C",
"n@	c #59713A",
"o@	c #484E3F",
"p@	c #6B7937",
"q@	c #535D43",
"r@	c #587735",
"s@	c #4B553F",
"t@	c #28809B",
"u@	c #398795",
"v@	c #6DA9A7",
"w@	c #49969D",
"x@	c #3E93A3",
"y@	c #5BA8BA",
"z@	c #3A716C",
"A@	c #3E7459",
"B@	c #609473",
"C@	c #395043",
"D@	c #364406",
"E@	c #354007",
"F@	c #353D0E",
"G@	c #485D2B",
"H@	c #5D782F",
"I@	c #5F711B",
"J@	c #323B10",
"K@	c #272E13",
"L@	c #2D3511",
"M@	c #5A7F15",
"N@	c #4A7B2D",
"O@	c #8BA41E",
"P@	c #7A9E29",
"Q@	c #5F753C",
"R@	c #47533B",
"S@	c #4D5141",
"T@	c #606E3E",
"U@	c #788532",
"V@	c #7F9E2C",
"W@	c #798B31",
"X@	c #515743",
"Y@	c #316174",
"Z@	c #305D70",
"`@	c #306073",
" #	c #204A5E",
".#	c #295264",
"+#	c #3F7587",
"@#	c #39778B",
"##	c #3E7D8A",
"$#	c #488A95",
"%#	c #5CA1AA",
"&#	c #384806",
"*#	c #4F5A02",
"=#	c #374806",
"-#	c #323B0D",
";#	c #3B440A",
">#	c #3A440A",
",#	c #242A15",
"'#	c #222315",
")#	c #232614",
"!#	c #3C480C",
"~#	c #445A10",
"{#	c #6C900D",
"]#	c #556824",
"^#	c #526A39",
"/#	c #4C613B",
"(#	c #67743A",
"_#	c #7D992D",
":#	c #89A22A",
"<#	c #738635",
"[#	c #5D683F",
"}#	c #565F40",
"|#	c #596241",
"1#	c #164B5E",
"2#	c #15495E",
"3#	c #14495D",
"4#	c #134557",
"5#	c #124052",
"6#	c #103E52",
"7#	c #0F3E53",
"8#	c #0F3E52",
"9#	c #346479",
"0#	c #4A8898",
"a#	c #58A5B1",
"b#	c #3E7572",
"c#	c #56795C",
"d#	c #50785A",
"e#	c #426C5D",
"f#	c #2B4D4F",
"g#	c #2E6976",
"h#	c #348EA9",
"i#	c #24474F",
"j#	c #2E3600",
"k#	c #516000",
"l#	c #56580F",
"m#	c #475730",
"n#	c #627C3C",
"o#	c #668139",
"p#	c #789232",
"q#	c #738636",
"r#	c #59643E",
"s#	c #545A42",
"t#	c #728435",
"u#	c #1C6B88",
"v#	c #1B6781",
"w#	c #1C637A",
"x#	c #1B5E71",
"y#	c #1A5C70",
"z#	c #195A72",
"A#	c #18586F",
"B#	c #17566E",
"C#	c #14526C",
"D#	c #205B74",
"E#	c #215972",
"F#	c #235F6F",
"G#	c #2E6872",
"H#	c #396F73",
"I#	c #306D77",
"J#	c #225A6F",
"K#	c #2C768B",
"L#	c #36768C",
"M#	c #3F8BA2",
"N#	c #31697D",
"O#	c #4C6B64",
"P#	c #414A00",
"Q#	c #647327",
"R#	c #81A62E",
"S#	c #6C8D32",
"T#	c #6D9C27",
"U#	c #55673F",
"V#	c #45493D",
"W#	c #687536",
"X#	c #788A32",
"Y#	c #227388",
"Z#	c #227791",
"`#	c #226C7D",
" $	c #205D6B",
".$	c #227287",
"+$	c #217C99",
"@$	c #217C98",
"#$	c #227890",
"$$	c #227487",
"%$	c #227285",
"&$	c #227184",
"*$	c #237183",
"=$	c #246878",
"-$	c #226F80",
";$	c #1F6C80",
">$	c #28667A",
",$	c #226278",
"'$	c #1A5D73",
")$	c #165366",
"!$	c #1E5569",
"~$	c #356B7C",
"{$	c #5B6A1B",
"]$	c #697934",
"^$	c #668632",
"/$	c #689D23",
"($	c #649226",
"_$	c #464C3E",
":$	c #60693C",
"<$	c #236F82",
"[$	c #236F81",
"}$	c #236E80",
"|$	c #205F6D",
"1$	c #217287",
"2$	c #217C9A",
"3$	c #23758A",
"4$	c #237287",
"5$	c #216371",
"6$	c #1E6173",
"7$	c #236C84",
"8$	c #29667A",
"9$	c #196077",
"0$	c #114151",
"a$	c #1E5A6F",
"b$	c #375F5D",
"c$	c #424919",
"d$	c #484B3A",
"e$	c #49533E",
"f$	c #57793D",
"g$	c #558232",
"h$	c #5F6E39",
"i$	c #6A7735",
"j$	c #5A623E",
"k$	c #484D3F",
"l$	c #4C4F41",
"m$	c #227489",
"n$	c #22778D",
"o$	c #227588",
"p$	c #236876",
"q$	c #236A7B",
"r$	c #216372",
"s$	c #236879",
"t$	c #246B7C",
"u$	c #22758A",
"v$	c #22788E",
"w$	c #227B97",
"x$	c #216E81",
"y$	c #20718B",
"z$	c #1D677E",
"A$	c #1A5E74",
"B$	c #13495B",
"C$	c #19576E",
"D$	c #24515C",
"E$	c #1C1E13",
"F$	c #3E3F2E",
"G$	c #607D3B",
"H$	c #59743E",
"I$	c #58763E",
"J$	c #5B773A",
"K$	c #535F41",
"L$	c #494C40",
"M$	c #5D663C",
"N$	c #768731",
"O$	c #217A94",
"P$	c #22778E",
"Q$	c #246C7E",
"R$	c #227589",
"S$	c #227386",
"T$	c #23778C",
"U$	c #23768B",
"V$	c #217B97",
"W$	c #227183",
"X$	c #22758D",
"Y$	c #1E7089",
"Z$	c #1E6D86",
"`$	c #196178",
" %	c #175366",
".%	c #22576B",
"+%	c #4D94A8",
"@%	c #171A11",
"#%	c #232917",
"$%	c #5C7026",
"%%	c #6E8633",
"&%	c #577A3C",
"*%	c #4F8231",
"=%	c #576440",
"-%	c #68713A",
";%	c #718331",
">%	c #237488",
",%	c #236B7D",
"'%	c #23788F",
")%	c #217B96",
"!%	c #227284",
"~%	c #246A7B",
"{%	c #22778F",
"]%	c #227B94",
"^%	c #236E84",
"/%	c #207A98",
"(%	c #207893",
"_%	c #1E718A",
":%	c #16536A",
"<%	c #20606D",
"[%	c #559282",
"}%	c #181502",
"|%	c #1A210F",
"1%	c #303913",
"2%	c #425813",
"3%	c #627628",
"4%	c #5A743C",
"5%	c #61743B",
"6%	c #6A7832",
"7%	c #226575",
"8%	c #22768B",
"9%	c #206473",
"0%	c #1F5D6A",
"a%	c #226B7B",
"b%	c #217891",
"c%	c #185A71",
"d%	c #134B5E",
"e%	c #4F9398",
"f%	c #4891A4",
"g%	c #1B4D4F",
"h%	c #1C2111",
"i%	c #414E0F",
"j%	c #9CA924",
"k%	c #7B9632",
"l%	c #6A8636",
"m%	c #5D6D3D",
"n%	c #474C3E",
"o%	c #4C5640",
"p%	c #216474",
"q%	c #206676",
"r%	c #227A96",
"s%	c #205E6B",
"t%	c #226674",
"u%	c #226776",
"v%	c #236978",
"w%	c #246777",
"x%	c #207895",
"y%	c #1A637E",
"z%	c #175469",
"A%	c #1E5162",
"B%	c #2A5668",
"C%	c #2F7D96",
"D%	c #254E57",
"E%	c #20350A",
"F%	c #647F28",
"G%	c #8DB12B",
"H%	c #6C8935",
"I%	c #4C5C3C",
"J%	c #4F543E",
"K%	c #6F7C35",
"L%	c #217790",
"M%	c #23697A",
"N%	c #226474",
"O%	c #22748A",
"P%	c #22768A",
"Q%	c #236E7F",
"R%	c #236676",
"S%	c #226876",
"T%	c #236877",
"U%	c #227083",
"V%	c #216373",
"W%	c #226676",
"X%	c #20697B",
"Y%	c #1B596B",
"Z%	c #1E5364",
"`%	c #275568",
" &	c #3A7E90",
".&	c #2A4600",
"+&	c #3F5328",
"@&	c #7CA430",
"#&	c #779334",
"$&	c #66902B",
"%&	c #5E822C",
"&&	c #55623C",
"*&	c #216676",
"=&	c #205F6C",
"-&	c #22768E",
";&	c #227C97",
">&	c #22768C",
",&	c #22758B",
"'&	c #21758A",
")&	c #1D657B",
"!&	c #205B6E",
"~&	c #255A6C",
"{&	c #103E53",
"]&	c #468FA1",
"^&	c #25352A",
"/&	c #313E14",
"(&	c #637A2C",
"_&	c #789033",
":&	c #6D952B",
"<&	c #4B603B",
"[&	c #236B7E",
"}&	c #217C97",
"|&	c #217D9A",
"1&	c #236B7C",
"2&	c #236979",
"3&	c #217286",
"4&	c #207B9A",
"5&	c #207B99",
"6&	c #227993",
"7&	c #236D80",
"8&	c #217995",
"9&	c #1D6881",
"0&	c #286273",
"a&	c #13475B",
"b&	c #428391",
"c&	c #3F6D61",
"d&	c #334D0F",
"e&	c #415B27",
"f&	c #7C8E2B",
"g&	c #6E7E34",
"h&	c #246979",
"i&	c #21616E",
"j&	c #21606E",
"k&	c #206271",
"l&	c #216F81",
"m&	c #207C9E",
"n&	c #1F7DA1",
"o&	c #217A97",
"p&	c #236C7F",
"q&	c #237B93",
"r&	c #216F83",
"s&	c #206170",
"t&	c #227893",
"u&	c #217388",
"v&	c #276778",
"w&	c #174D5E",
"x&	c #337176",
"y&	c #497F71",
"z&	c #5C7A29",
"A&	c #6C8339",
"B&	c #83A92D",
"C&	c #768931",
"D&	c #236777",
"E&	c #216472",
"F&	c #226F81",
"G&	c #217C9C",
"H&	c #217A99",
"I&	c #21697A",
"J&	c #226574",
"K&	c #227C98",
"L&	c #226677",
"M&	c #1B5967",
"N&	c #174B59",
"O&	c #316360",
"P&	c #4C7E53",
"Q&	c #648F2E",
"R&	c #557B35",
"S&	c #678437",
"T&	c #81A52E",
"U&	c #687439",
"V&	c #5E683A",
"W&	c #216A7B",
"X&	c #236D7F",
"Y&	c #226C81",
"Z&	c #216D7E",
"`&	c #20616E",
" *	c #23768A",
".*	c #216675",
"+*	c #216B7C",
"@*	c #1D6A7E",
"#*	c #17586A",
"$*	c #577C45",
"%*	c #62802D",
"&*	c #516C3A",
"**	c #4E673A",
"=*	c #6C8835",
"-*	c #6F8A33",
";*	c #4C732F",
">*	c #216777",
",*	c #216E80",
"'*	c #216271",
")*	c #226A7A",
"!*	c #236878",
"~*	c #246877",
"{*	c #217185",
"]*	c #21687B",
"^*	c #22788C",
"/*	c #227A93",
"(*	c #237081",
"_*	c #207083",
":*	c #1B6479",
"<*	c #17596D",
"[*	c #608250",
"}*	c #7EA030",
"|*	c #5D773C",
"1*	c #55703E",
"2*	c #718536",
"3*	c #657436",
"4*	c #628A27",
"5*	c #585E41",
"6*	c #22616F",
"7*	c #227A94",
"8*	c #216A7A",
"9*	c #226E80",
"0*	c #216575",
"a*	c #227690",
"b*	c #207793",
"c*	c #1B6986",
"d*	c #1D607A",
"e*	c #3D7C7D",
"f*	c #637C32",
"g*	c #63813C",
"h*	c #5F7A3C",
"i*	c #6E8332",
"j*	c #5F6A3A",
"k*	c #4E633A",
"l*	c #6F8E26",
"m*	c #22788F",
"n*	c #236675",
"o*	c #236B7B",
"p*	c #236E81",
"q*	c #217B95",
"r*	c #246D7F",
"s*	c #226F82",
"t*	c #227286",
"u*	c #227488",
"v*	c #227892",
"w*	c #207894",
"x*	c #1C6E8A",
"y*	c #22647E",
"z*	c #357A8B",
"A*	c #4C6835",
"B*	c #57713E",
"C*	c #5E7A3C",
"D*	c #718F31",
"E*	c #515843",
"F*	c #616D39",
"G*	c #A0AB24",
"H*	c #909B2B",
"  . + @ # $ % & * = - ; > , ' ) ! ~ { ] ^ / ( _ : : < [ } | 1 + ",
"2   3 1 4 5 6 7 8 9 0 a b c d ' e f g h i j k l m : n o p q r s ",
"b t u v w n x y z A B C D E F G H I J K L M N O P Q R b S T U V ",
"V W X Y Z n `  ...B B C E D +.@.#.$.%.&.*.=.-.;.>.,.# '.).!.~.{.",
"].^./.(._.:.a <.[.}.|.1.2.).3.4.0 5.6.7.8.:.9.0.a.>.1 w b.c.d.e.",
"f.g.h.i.j.k.l.m.n.o.p.q.r.s.t.U u.v.w.w.x.y.q.p.z.A.B.C.D.E.F.G.",
"H.I.J.K.L.M.N.O.P.Q.R.S.T.U.: V.W.s.X.Y.Z.C `. +.+++@+#+$+%+&+0 ",
"*+=+-+;+>+,+'+)+!+~+{+]+^+/+D (+_+:+<+[+}+|+v.1+2+3+4+5+6+7+8+9+",
"0+a+b+c+d+e+f+g+h+i+j+k+l+m+n+o+p+q+r+].0 c s+t+: p u+9.v+w+x+o.",
"y+z+A+B+C+D+E+F+i+G+H+I+J+K+L+M+N+O+u P+Q+v+R+S+: T+U+0.V+M W+X+",
"Y+Z+`+ @.@+@@@#@$@%@&@*@=@-@;@>@,@'@)@!@~@{@]@^@/@(@_@:@<@[@}@|@",
"1@2@3@4@5@6@7@8@9@0@a@b@c@d@e@f@g@h@i@j@k@l@m@n@o@p@C.[ q@r@s@: ",
"t@u@v@w@x@y@z@A@B@C@D@E@F@G@H@I@J@K@L@M@N@O@P@Q@R@S@T@U@V@W@/ X@",
"Y@Z@`@ #.#+#@###$#%#&#*#=#-#;#>#,#'#)#!#~#{#]#^#/#(#_#:#<#[#}#|#",
"1#2#3#4#5#6#7#8#9#0#a#b#c#d#e#f#g#h#i#j#k#l#m#n#o#p#q#r#m : s#t#",
"u#v#w#x#y#z#A#B#C#D#E#F#G#H#I#J#K#L#M#N#O#P#Q#R#S#T#U#V#: m W#X#",
"Y#Z#`# $.$+$@$@$#$$$%$&$*$=$-$;$>$,$'$)$!$~${$]$^$/$($_$:$1 3.t ",
"<$[$}$|$|$1$2$2$&$%$$$#$3$4$5$6$7$8$9$0$a$b$c$d$e$f$g$h$i$j$k$l$",
"&$m$n$o$p$q$r$s$t$$$u$v$@$w$*$x$y$z$A$B$C$D$E$F$G$H$I$J$K$L$M$N$",
"O$P$n$o$Q$R$S$S$<$T$U$V$@$@$W$X$Y$Z$`$ %.%+%@%#%$%%%&%*%=%-%2 ;%",
">%=$t$,%'%)%u$!%~%{%@$@$]%W$^%V$/%(%_%:%<%[%}%|%1%2%3%4%5%6%(#E ",
"7%*$$$$$<$t$u$!%=$~%8%8%9%0%a%Y#b%@$(%c%d%e%f%g%h%i%j%k%l%m%n%o%",
"a%$$u$u$$$p%q%r%u$$$s%t%u%u%v%t$w%}$x%y%z%A%B%C%D%E%F%G%H%I%J%K%",
"!%#$L%V$#$M%N%O%P%Q%R%S%T%T%!%$$U%V%W%X%Y%Z%`%7# &.&+&@&#&$&%&&&",
"m$@$@$@$#$*&=&9%Q%$$!%!%$$-&;&>&,&V%o$'&)&!&~&{&]&^&/&(&_&:&<&u.",
"[&}&|&{%1&2&3&4&5&6&$$7&$$&$>&>&8%M%8%@$8&9&0&a&b&c&d&e&f&g&u.v.",
"Y#h&i&j&k&l&m&n&n&o&S$p&q&>&r&s&Q%$$$$t&O$u&v&w&x&y&z&A&B&C&: V.",
"6&1&S%D&E&F&G&n&H&I&J&W$K&2$L&U%$$$$$$Q%r$M&N&O&P&Q&R&S&T&U&V.V&",
"W&s&X&$$Y&5$W$F&Z&|$`&1&[&r$=& *P%$$$$.*+*@*#*$*%*&***=*-*;*..V&",
">*,*7&.$'*0%)*!*~*S%{*O$#$!%]*'*^*/*!%(*_*:*<*[*}*|*1*2*3*4*}@5*",
"8%>&W$6*.*'*}$7*>&8*Y#5&/*&$9*p%0*%$=$a*b*c*d*e*f*g*h*i*j*k*l*J ",
"w$m*W$n*W$o*p*q*@$>&%$Q%r*s*t*u*U$6&W$v*w*x*y*z*A*B*C*D*E*F*G*H*"};
