/* XPM */
static char * wallwater_reverse_corner_bottomleft_1_xpm[] = {
"32 32 457 2",
"  	c #366E7C",
". 	c #418691",
"+ 	c #438D9B",
"@ 	c #3E909F",
"# 	c #3F919F",
"$ 	c #3F90A2",
"% 	c #368B9E",
"& 	c #1F849F",
"* 	c #0D7D9B",
"= 	c #13788E",
"- 	c #1E778F",
"; 	c #3B7581",
"> 	c #438A96",
", 	c #408F9E",
"' 	c #4091A0",
") 	c #3D8FA1",
"! 	c #2F8BA1",
"~ 	c #17809D",
"{ 	c #13778D",
"] 	c #2D6F82",
"^ 	c #3F7D88",
"/ 	c #448B99",
"( 	c #3F909F",
"_ 	c #4091A1",
": 	c #3A8D9D",
"< 	c #2888A2",
"[ 	c #117E9C",
"} 	c #0F7B97",
"| 	c #127993",
"1 	c #114C5D",
"2 	c #176374",
"3 	c #15768A",
"4 	c #15788D",
"5 	c #0F7D9A",
"6 	c #0E7C98",
"7 	c #0B7D9D",
"8 	c #117790",
"9 	c #136C7F",
"0 	c #125062",
"a 	c #186C7D",
"b 	c #137A93",
"c 	c #0E7C9A",
"d 	c #097EA0",
"e 	c #147589",
"f 	c #125769",
"g 	c #15596A",
"h 	c #167386",
"i 	c #117C98",
"j 	c #0B7C9C",
"k 	c #0F4C5F",
"l 	c #185A69",
"m 	c #156E83",
"n 	c #157488",
"o 	c #12778E",
"p 	c #0D7E9C",
"q 	c #0B7D9F",
"r 	c #13768C",
"s 	c #126C7F",
"t 	c #114F61",
"u 	c #196272",
"v 	c #167185",
"w 	c #0C7D9D",
"x 	c #0F7B99",
"y 	c #0F586B",
"z 	c #155465",
"A 	c #16697D",
"B 	c #0F7C98",
"C 	c #0A7DA0",
"D 	c #125668",
"E 	c #15667B",
"F 	c #166C80",
"G 	c #186676",
"H 	c #186879",
"I 	c #14758C",
"J 	c #186C7F",
"K 	c #147184",
"L 	c #11728C",
"M 	c #145769",
"N 	c #156B81",
"O 	c #186A7B",
"P 	c #186576",
"Q 	c #186C80",
"R 	c #15758B",
"S 	c #166778",
"T 	c #116176",
"U 	c #145E70",
"V 	c #156D82",
"W 	c #196878",
"X 	c #177186",
"Y 	c #14768B",
"Z 	c #14768A",
"` 	c #15697A",
" .	c #126174",
"..	c #146E82",
"+.	c #166F82",
"@.	c #196373",
"#.	c #157386",
"$.	c #165E6C",
"%.	c #15697D",
"&.	c #12718B",
"*.	c #126579",
"=.	c #157184",
"-.	c #186B7C",
";.	c #196574",
">.	c #196C7E",
",.	c #186E81",
"'.	c #185F6D",
").	c #147087",
"!.	c #11667C",
"~.	c #13697E",
"{.	c #157185",
"].	c #196776",
"^.	c #186A7A",
"/.	c #186F81",
"(.	c #19687A",
"_.	c #175E6C",
":.	c #166272",
"<.	c #13758F",
"[.	c #0E728D",
"}.	c #117796",
"|.	c #127892",
"1.	c #167285",
"2.	c #176E82",
"3.	c #186070",
"4.	c #19697A",
"5.	c #157082",
"6.	c #137187",
"7.	c #0F7593",
"8.	c #117896",
"9.	c #15748A",
"0.	c #177084",
"a.	c #157387",
"b.	c #17697B",
"c.	c #196170",
"d.	c #166D7F",
"e.	c #157083",
"f.	c #0F7189",
"g.	c #107696",
"h.	c #107996",
"i.	c #176D81",
"j.	c #186374",
"k.	c #196474",
"l.	c #0E7996",
"m.	c #087EA2",
"n.	c #13778E",
"o.	c #1A6979",
"p.	c #147288",
"q.	c #0F7C9A",
"r.	c #0E7D9B",
"s.	c #107B98",
"t.	c #097C9E",
"u.	c #0E7D9C",
"v.	c #1A6A7B",
"w.	c #176677",
"x.	c #127891",
"y.	c #107893",
"z.	c #077EA2",
"A.	c #117A96",
"B.	c #1A697A",
"C.	c #1A6B7D",
"D.	c #156A7B",
"E.	c #107B97",
"F.	c #156677",
"G.	c #14758B",
"H.	c #14748B",
"I.	c #157388",
"J.	c #18697C",
"K.	c #186575",
"L.	c #187084",
"M.	c #0F7D99",
"N.	c #0F7792",
"O.	c #176C80",
"P.	c #167087",
"Q.	c #196475",
"R.	c #14788E",
"S.	c #126A7F",
"T.	c #177187",
"U.	c #167086",
"V.	c #186372",
"W.	c #196A7D",
"X.	c #117C95",
"Y.	c #176678",
"Z.	c #117D98",
"`.	c #185F6E",
" +	c #13738A",
".+	c #0C7D9E",
"++	c #12728E",
"@+	c #176B7F",
"#+	c #147991",
"$+	c #176473",
"%+	c #176373",
"&+	c #107997",
"*+	c #0B7D9E",
"=+	c #0C7D9C",
"-+	c #15697E",
";+	c #167186",
">+	c #107D9A",
",+	c #187185",
"'+	c #17606E",
")+	c #166B7D",
"!+	c #0D7C9D",
"~+	c #0D7D9C",
"{+	c #107C98",
"]+	c #147488",
"^+	c #176979",
"/+	c #166B7C",
"(+	c #14788C",
"_+	c #107B96",
":+	c #186675",
"<+	c #147388",
"[+	c #117791",
"}+	c #12778F",
"|+	c #196D81",
"1+	c #137A91",
"2+	c #166F81",
"3+	c #1A6A7C",
"4+	c #127890",
"5+	c #127A95",
"6+	c #196978",
"7+	c #196070",
"8+	c #14758A",
"9+	c #117994",
"0+	c #186776",
"a+	c #1A6777",
"b+	c #195F6E",
"c+	c #0F7B98",
"d+	c #0F7C9B",
"e+	c #176F81",
"f+	c #186877",
"g+	c #127991",
"h+	c #0D7C9A",
"i+	c #157287",
"j+	c #186373",
"k+	c #196877",
"l+	c #127A94",
"m+	c #107A95",
"n+	c #137891",
"o+	c #0E7B98",
"p+	c #117992",
"q+	c #186878",
"r+	c #196A7C",
"s+	c #0D7D9D",
"t+	c #186A7D",
"u+	c #1A6B7C",
"v+	c #176F82",
"w+	c #137791",
"x+	c #186778",
"y+	c #196A7A",
"z+	c #1A6879",
"A+	c #196C7D",
"B+	c #196A7B",
"C+	c #147487",
"D+	c #167184",
"E+	c #13768B",
"F+	c #167083",
"G+	c #1B697A",
"H+	c #196B7E",
"I+	c #13768D",
"J+	c #176F84",
"K+	c #14748A",
"L+	c #196B7D",
"M+	c #0F7A99",
"N+	c #15778D",
"O+	c #177185",
"P+	c #107B99",
"Q+	c #196E81",
"R+	c #1B6A7B",
"S+	c #127B94",
"T+	c #196E82",
"U+	c #156778",
"V+	c #176675",
"W+	c #186D7F",
"X+	c #186D81",
"Y+	c #156575",
"Z+	c #196777",
"`+	c #1A6676",
" @	c #176E80",
".@	c #156F82",
"+@	c #196D7F",
"@@	c #16697C",
"#@	c #166575",
"$@	c #196271",
"%@	c #14768C",
"&@	c #157389",
"*@	c #186473",
"=@	c #185E6D",
"-@	c #147287",
";@	c #147790",
">@	c #167286",
",@	c #196B7C",
"'@	c #14768F",
")@	c #186979",
"!@	c #0E7D9A",
"~@	c #196F83",
"{@	c #187083",
"]@	c #0F7A96",
"^@	c #186E84",
"/@	c #117995",
"(@	c #186D83",
"_@	c #127995",
":@	c #166E81",
"<@	c #137690",
"[@	c #107C97",
"}@	c #157285",
"|@	c #166F86",
"1@	c #147185",
"2@	c #186F84",
"3@	c #156C7F",
"4@	c #165E6B",
"5@	c #176879",
"6@	c #186F82",
"7@	c #097DA0",
"8@	c #107993",
"9@	c #106071",
"0@	c #116476",
"a@	c #17606F",
"b@	c #117893",
"c@	c #186978",
"d@	c #176777",
"e@	c #117894",
"f@	c #0A7C9E",
"g@	c #0E7B9A",
"h@	c #167084",
"i@	c #1B6879",
"j@	c #1E4C40",
"k@	c #196263",
"l@	c #196372",
"m@	c #177188",
"n@	c #196879",
"o@	c #177082",
"p@	c #156A7E",
"q@	c #186474",
"r@	c #176C7D",
"s@	c #176475",
"t@	c #157286",
"u@	c #4C602B",
"v@	c #334D19",
"w@	c #163734",
"x@	c #115F6E",
"y@	c #0F728D",
"z@	c #127388",
"A@	c #185F6F",
"B@	c #117996",
"C@	c #176575",
"D@	c #13778F",
"E@	c #156E82",
"F@	c #486435",
"G@	c #486432",
"H@	c #324D16",
"I@	c #245832",
"J@	c #0E637A",
"K@	c #106072",
"L@	c #125767",
"M@	c #106A84",
"N@	c #0A7A9A",
"O@	c #607937",
"P@	c #6B8B2C",
"Q@	c #577F2E",
"R@	c #5D8E00",
"S@	c #3B6800",
"T@	c #234748",
"U@	c #114A59",
"V@	c #0F5267",
"W@	c #0E6480",
"X@	c #09779B",
"Y@	c #156576",
"Z@	c #137991",
"`@	c #165F6E",
" #	c #186A7C",
".#	c #6C7F2C",
"+#	c #647F35",
"@#	c #648933",
"##	c #659A1E",
"$#	c #416626",
"%#	c #314C14",
"&#	c #274633",
"*#	c #0B3E4F",
"=#	c #0D4558",
"-#	c #11596F",
";#	c #166273",
">#	c #0D7E9D",
",#	c #117795",
"'#	c #196677",
")#	c #0C7E9E",
"!#	c #156D84",
"~#	c #6C7A31",
"{#	c #607338",
"]#	c #718731",
"^#	c #668932",
"/#	c #526E2F",
"(#	c #3C5B22",
"_#	c #386329",
":#	c #1C4250",
"<#	c #0B3F51",
"[#	c #114654",
"}#	c #144E5C",
"|#	c #166878",
"1#	c #137B91",
"2#	c #165F6F",
"3#	c #165E6D",
"4#	c #176D7E",
"5#	c #13798F",
"6#	c #809727",
"7#	c #9DAC12",
"8#	c #8AA31C",
"9#	c #6F8F30",
"0#	c #617E35",
"a#	c #689118",
"b#	c #476B00",
"c#	c #2E515A",
"d#	c #0D3F4F",
"e#	c #0D4152",
"f#	c #114A5A",
"g#	c #126B83",
"h#	c #107B95",
"i#	c #176A7C",
"j#	c #137B92",
"k#	c #167387",
"l#	c #136175",
"m#	c #11748D",
"n#	c #117B96",
"o#	c #127C94",
"p#	c #196E80",
"q#	c #95A817",
"r#	c #627339",
"s#	c #4C553E",
"t#	c #4A593A",
"u#	c #6C8C31",
"v#	c #7DA524",
"w#	c #526D1C",
"x#	c #264846",
"y#	c #2B5A68",
"z#	c #124959",
"A#	c #0E4250",
"B#	c #125A6E",
"C#	c #0B7594",
"D#	c #15697C",
"E#	c #176A7D",
"F#	c #0F7D9B",
"G#	c #0E576B",
"H#	c #11667E",
"I#	c #0D7A98",
"J#	c #166678",
"K#	c #526040",
"L#	c #4B4E3F",
"M#	c #4E583F",
"N#	c #779929",
"O#	c #7A9B29",
"P#	c #657F36",
"Q#	c #566814",
"R#	c #2E7185",
"S#	c #1D4C5A",
"T#	c #0C4051",
"U#	c #125365",
"V#	c #156475",
"W#	c #135A6C",
"X#	c #166A7D",
"  . + @ # $ % & * = - ; > , @ ' ) ! ~ * { ] ^ / ( ( _ : < [ } | ",
"1 2 3 3 4 5 6 * 7 8 9 0 a 3 3 b c c * d e f g h 3 3 i 6 * * j e ",
"k l m n o p } c q r s t u v e } * } w x e y z A h e * B B C | e ",
"D E F G H I e r J K L M N O P Q { e R S { T U V W P X Y Z X ` | ",
" ...+.@.a h #.u $.%.&.*.=.-.;.>.e ,.'.$.).!.~.{.].^./.e (._.:.<.",
"[.}.|.1.2.e =.3.4.5.6.7.8.9.0.a.e b.c.d.e.f.g.h.1.i.e e j.k.5.{.",
"l.m.C n.1.o.O p.q.r.s.t.m.u.e >.v.w.x.q.r.y.z.m.A.e B.C.D.E.q.q.",
"F.G.H.I.J.K.L.M.* * N.O.n.P.a.Q.H R.r.* * S.T.n.U.2.V.W.X.* * * ",
"Y.G.x.Z.4.`. +.+7 * ++@+n.E.#+$+%+&+*+=+c -+;+n.>+,+'+)+!+*+~+&+",
"Z {+* r.]+^+/+8 8 X >.(+r.* _+#.:+<+[+}+|+1.1+* * o 2+:+o [+I 3+",
"4+c * w 5+^.6+o.7+4.8+9+* * w R 0+o.a+b+/.{ c+* =+d+e+f+B.@.u h ",
"g+h+* w i+j+6+o.k+1.l+m+* * h+H P o.o.a+{ n+o+* =+p+u f+o.q+r+| ",
"s+=+c A.t+W /.e u+v+}+.+* B w+x+y+#.#.z+h c+7 r.E.U.G A+e /.B+n ",
"[+}+r e e h 2.e C+D+E+[+n.Z e e 0.a.e =.h }+8 n.e e ]+i.e e F+n ",
"G+1.e e e e 1.H+I+e 1.G+e e e e e >.J+Z e >.>.e e e e e v.K+e e ",
"G+C.e e e e L+A+Z.M+N+G+/.e e e h y+O+P+s.Q+R+#.e e e /.y+#+M+S+",
"1.G+5.e.2+T+U+V+G+o.P >.u+5.e.W+X+Y+Z+B.`+5.G+ @5..@+@@@#@z+B.$@",
"%@&@*@=@-@q.M.{ o.o.=.;@e+'+j+x.r.E.>@6+,@n '@)@_.)+E.!@| >.6+ @",
"* q.1.1.x.* c 4+G.~@G.* _+>.8+c+* c+n.P.{@]@r.n.>.I+* * 9+n.^@v ",
"* * 1.'@r.* h+c r.!@/@* } J E.* * o+r.r.{+x * o (@q.* * o+r.r._@",
"r.4+:@<@~+=+* * * * * !@8+O.E.w * * * * * r.[@}@|@q.7 * * * * * ",
"R.1@=.e ^@I o X 2@G.n.3@4@5@6@8 q.* * * 7@x.Y+_.a 9.8@r.* * w ~+",
"1.9@0@]+e.a@b@|.e #@V.c@d@6+>.R+4.e@f@g@h@^.q+q+y+>.i@v+g@f@e@i.",
"j@k@9@0@e.l@m@n.#.z+n@o.o.o@e #.p@q@/.e Q r@o.o.h e v s@x+h 1.t@",
"u@v@w@x@y@z@A@%+d@h e /.e e B@l+n.K+C@{ o Z /.e I d+D@n.E@5.n.o ",
"F@G@H@I@J@K@L@M@N@o+| e 2.e I.}+n.Z O A.* o a.a.]+I }+n.D+D+q.* ",
"O@P@Q@R@S@T@U@V@W@X@| h ;+1+n.Y@w.h e 3 x { 0.Z@= I+`@ #e e n.c+",
".#+#@###$#%#&#*#=#-#;#W n.>#,#'#e e e e r+P a A.)#!# #e e e h x+",
"~#{#]#^#/#(#_#:#<#[#}#|#>.Q a@*@1#Z e e $+2#r@J J.3#4#5#e e e.^+",
"6#7#8#9#0#a#b#c#d#e#f#g#h#{ v ;#i#j#| /.k#l#m#n#n m a@a.o#I+p#]+",
"q#r#s#t#u#v#w#x#y#z#A#B#C#n.t@D#C@E#1.G+F#G#H#I#]+t@J##@2.>.^@r.",
"r#K#L#M#N#O#P#Q#R#S#T#U#V#O.t@G.e | |.1.F#G#W#X#i.t@r 3 A.9.G.r."};
