/* XPM */
static char * wallwater_reverse_corner_topleft_3_xpm[] = {
"32 32 457 2",
"  	c #667236",
". 	c #779126",
"+ 	c #637231",
"@ 	c #6B7A31",
"# 	c #73862C",
"$ 	c #5D7F38",
"% 	c #6E8D32",
"& 	c #7D982B",
"* 	c #3F5A5C",
"= 	c #045873",
"- 	c #0F5064",
"; 	c #196B7C",
"> 	c #147589",
", 	c #14768A",
"' 	c #0D7D9B",
") 	c #0F7B97",
"! 	c #127993",
"~ 	c #097EA1",
"{ 	c #156C82",
"] 	c #186F81",
"^ 	c #13768C",
"/ 	c #13778E",
"( 	c #13788E",
"_ 	c #0F7B99",
": 	c #0A7D9F",
"< 	c #73822C",
"[ 	c #5C6B38",
"} 	c #6F7E2C",
"| 	c #677D30",
"1 	c #648532",
"2 	c #6F902A",
"3 	c #617E1F",
"4 	c #35565A",
"5 	c #185D74",
"6 	c #105165",
"7 	c #157185",
"8 	c #117B97",
"9 	c #0F7C98",
"0 	c #0B7C9C",
"a 	c #12778F",
"b 	c #156A7D",
"c 	c #0F7C9A",
"d 	c #0B7D9D",
"e 	c #117790",
"f 	c #6E7D2E",
"g 	c #535A3D",
"h 	c #515642",
"i 	c #5E6C37",
"j 	c #596D3A",
"k 	c #6F8C29",
"l 	c #617626",
"m 	c #3D5805",
"n 	c #345C4C",
"o 	c #2B5D6E",
"p 	c #0F4352",
"q 	c #15697C",
"r 	c #167386",
"s 	c #0A7DA0",
"t 	c #147387",
"u 	c #156070",
"v 	c #156E83",
"w 	c #157488",
"x 	c #12778E",
"y 	c #0D7E9C",
"z 	c #0E7C9A",
"A 	c #0B7D9F",
"B 	c #146F84",
"C 	c #626F33",
"D 	c #474B3E",
"E 	c #4A4C3F",
"F 	c #5D7F2C",
"G 	c #537531",
"H 	c #698825",
"I 	c #375210",
"J 	c #18280A",
"K 	c #29606C",
"L 	c #327385",
"M 	c #125B6F",
"N 	c #196878",
"O 	c #186576",
"P 	c #177186",
"Q 	c #14768B",
"R 	c #15697A",
"S 	c #127891",
"T 	c #146B80",
"U 	c #166C80",
"V 	c #186676",
"W 	c #186879",
"X 	c #14758C",
"Y 	c #186C7F",
"Z 	c #147184",
"` 	c #117A96",
" .	c #147287",
"..	c #545841",
"+.	c #555D3A",
"@.	c #566C34",
"#.	c #689B03",
"$.	c #568222",
"%.	c #5F8106",
"&.	c #262E06",
"*.	c #151709",
"=.	c #34656F",
"-.	c #276C80",
";.	c #166B7F",
">.	c #1D768A",
",.	c #196776",
"'.	c #186A7A",
").	c #19687A",
"!.	c #175E6C",
"~.	c #166272",
"{.	c #13758F",
"].	c #1F7A90",
"^.	c #1A7284",
"/.	c #196373",
"(.	c #186C7D",
"_.	c #157386",
":.	c #196272",
"<.	c #165E6C",
"[.	c #15697D",
"}.	c #127894",
"|.	c #117C98",
"1.	c #7B882D",
"2.	c #9DAC12",
"3.	c #759E22",
"4.	c #507F0E",
"5.	c #4A6605",
"6.	c #4D5800",
"7.	c #273400",
"8.	c #384F3A",
"9.	c #479AAD",
"0.	c #1F637B",
"a.	c #2D7F98",
"b.	c #1D7F9B",
"c.	c #167285",
"d.	c #176D81",
"e.	c #186374",
"f.	c #196474",
"g.	c #157082",
"h.	c #176C80",
"i.	c #26809B",
"j.	c #177A94",
"k.	c #176E82",
"l.	c #157184",
"m.	c #186070",
"n.	c #19697A",
"o.	c #167084",
"p.	c #186D82",
"q.	c #5E6F3C",
"r.	c #8FA525",
"s.	c #7F9108",
"t.	c #325803",
"u.	c #343E01",
"v.	c #434B00",
"w.	c #374C33",
"x.	c #3A6667",
"y.	c #3D96AD",
"z.	c #37768C",
"A.	c #1C7B9C",
"B.	c #087DA1",
"C.	c #1A697A",
"D.	c #1A6B7D",
"E.	c #156A7B",
"F.	c #107B97",
"G.	c #0C7B9B",
"H.	c #1A6979",
"I.	c #186A7B",
"J.	c #147288",
"K.	c #0E7D9B",
"L.	c #14758A",
"M.	c #58763B",
"N.	c #547535",
"O.	c #415E0A",
"P.	c #284208",
"Q.	c #1F2708",
"R.	c #252C01",
"S.	c #3D6D64",
"T.	c #308AA1",
"U.	c #39778D",
"V.	c #265C6F",
"W.	c #156B81",
"X.	c #167086",
"Y.	c #186372",
"Z.	c #196A7D",
"`.	c #117C95",
" +	c #0F7D99",
".+	c #13788F",
"++	c #14748B",
"@+	c #157388",
"#+	c #18697C",
"$+	c #186575",
"%+	c #187084",
"&+	c #819D23",
"*+	c #4C6719",
"=+	c #202211",
"-+	c #1A240B",
";+	c #131B04",
">+	c #151500",
",+	c #17819C",
"'+	c #306A80",
")+	c #316E82",
"!+	c #094B63",
"~+	c #146275",
"{+	c #147991",
"]+	c #176473",
"^+	c #176373",
"/+	c #107997",
"(+	c #0B7D9E",
"_+	c #0C7D9C",
":+	c #0F7B9A",
"<+	c #15697E",
"[+	c #167186",
"}+	c #107D9A",
"|+	c #187185",
"1+	c #17606E",
"2+	c #166B7D",
"3+	c #0D7C9D",
"4+	c #0D7D9C",
"5+	c #117897",
"6+	c #627912",
"7+	c #354402",
"8+	c #212707",
"9+	c #141C08",
"0+	c #1A4C4C",
"a+	c #117890",
"b+	c #1B6B85",
"c+	c #387285",
"d+	c #1A5367",
"e+	c #0B536A",
"f+	c #127086",
"g+	c #14788C",
"h+	c #107B96",
"i+	c #186675",
"j+	c #147388",
"k+	c #117791",
"l+	c #196D81",
"m+	c #137A91",
"n+	c #166F81",
"o+	c #1A6A7C",
"p+	c #27291B",
"q+	c #212C02",
"r+	c #1D2200",
"s+	c #16464E",
"t+	c #147A92",
"u+	c #033B53",
"v+	c #275C6F",
"w+	c #205568",
"x+	c #0C4F67",
"y+	c #106379",
"z+	c #117994",
"A+	c #0C7D9D",
"B+	c #15758B",
"C+	c #186776",
"D+	c #1A6777",
"E+	c #195F6E",
"F+	c #13778D",
"G+	c #0F7B98",
"H+	c #0F7C9B",
"I+	c #176F81",
"J+	c #186877",
"K+	c #181D12",
"L+	c #203602",
"M+	c #268690",
"N+	c #14758D",
"O+	c #03405B",
"P+	c #2B6276",
"Q+	c #2E7082",
"R+	c #114A5D",
"S+	c #0D5A70",
"T+	c #137286",
"U+	c #107A95",
"V+	c #0D7C9A",
"W+	c #137891",
"X+	c #0E7B98",
"Y+	c #117992",
"Z+	c #186878",
"`+	c #196A7C",
" @	c #308BA6",
".@	c #51A2B3",
"+@	c #458697",
"@@	c #336C83",
"#@	c #307188",
"$@	c #22687F",
"%@	c #105065",
"&@	c #0F4D61",
"*@	c #156376",
"=@	c #127892",
"-@	c #14788E",
";@	c #196C7D",
">@	c #196A7B",
",@	c #14768C",
"'@	c #0D7D9D",
")@	c #186A7D",
"!@	c #1A6B7C",
"~@	c #176F82",
"{@	c #1C4B5F",
"]@	c #2F677B",
"^@	c #1A5168",
"/@	c #17566B",
"(@	c #16596D",
"_@	c #0F586E",
":@	c #0F5F73",
"<@	c #146D80",
"[@	c #14778D",
"}@	c #147488",
"|@	c #167083",
"1@	c #147487",
"2@	c #167184",
"3@	c #184F62",
"4@	c #235B72",
"5@	c #0C526B",
"6@	c #166679",
"7@	c #176A7D",
"8@	c #12748A",
"9@	c #14748A",
"0@	c #1A6A7B",
"a@	c #196C7E",
"b@	c #1B697A",
"c@	c #196B7E",
"d@	c #13768D",
"e@	c #125465",
"f@	c #114C5C",
"g@	c #115F73",
"h@	c #1B6A7B",
"i@	c #196A7A",
"j@	c #167087",
"k@	c #196B7D",
"l@	c #117D98",
"m@	c #0F7A99",
"n@	c #147690",
"o@	c #166473",
"p@	c #186373",
"q@	c #127A94",
"r@	c #157083",
"s@	c #186D7F",
"t@	c #186D81",
"u@	c #156575",
"v@	c #196777",
"w@	c #176E80",
"x@	c #156F82",
"y@	c #196D7F",
"z@	c #16697C",
"A@	c #166575",
"B@	c #1A6879",
"C@	c #186E80",
"D@	c #167286",
"E@	c #19697B",
"F@	c #166576",
"G@	c #117893",
"H@	c #0C7E9D",
"I@	c #0F7A98",
"J@	c #147790",
"K@	c #14768F",
"L@	c #186979",
"M@	c #0E7D9A",
"N@	c #12788F",
"O@	c #157285",
"P@	c #196978",
"Q@	c #196372",
"R@	c #127992",
"S@	c #117B96",
"T@	c #17758A",
"U@	c #137A90",
"V@	c #186D83",
"W@	c #0F7793",
"X@	c #17748A",
"Y@	c #15768C",
"Z@	c #127991",
"`@	c #15748A",
" #	c #107C97",
".#	c #166F86",
"+#	c #107C98",
"@#	c #127893",
"##	c #137790",
"$#	c #196475",
"%#	c #176C7C",
"&#	c #166E81",
"*#	c #176879",
"=#	c #177083",
"-#	c #156C7F",
";#	c #165E6B",
">#	c #186F82",
",#	c #107993",
"'#	c #157287",
")#	c #186B7C",
"!#	c #177082",
"~#	c #186978",
"{#	c #176777",
"]#	c #117894",
"^#	c #097C9E",
"/#	c #175F6D",
"(#	c #1B6879",
"_#	c #0E7B9A",
":#	c #0A7C9E",
"<#	c #077EA2",
"[#	c #196879",
"}#	c #156A7E",
"|#	c #186474",
"1#	c #1A6778",
"2#	c #167185",
"3#	c #176475",
"4#	c #186778",
"5#	c #157387",
"6#	c #177084",
"7#	c #13778F",
"8#	c #156E82",
"9#	c #0F7D9A",
"0#	c #176F83",
"a#	c #157286",
"b#	c #186A7C",
"c#	c #196E80",
"d#	c #1A6978",
"e#	c #117692",
"f#	c #117896",
"g#	c #137991",
"h#	c #165F6E",
"i#	c #107A97",
"j#	c #127C95",
"k#	c #147085",
"l#	c #117995",
"m#	c #176575",
"n#	c #166879",
"o#	c #13758A",
"p#	c #0C7E9E",
"q#	c #156D84",
"r#	c #0F7D9B",
"s#	c #186779",
"t#	c #176979",
"u#	c #196979",
"v#	c #176978",
"w#	c #186C80",
"x#	c #17606F",
"y#	c #186473",
"z#	c #137B91",
"A#	c #166271",
"B#	c #165E6D",
"C#	c #176D7E",
"D#	c #13798F",
"E#	c #117A95",
"F#	c #166273",
"G#	c #176A7C",
"H#	c #137B92",
"I#	c #127C94",
"J#	c #137992",
"K#	c #137793",
"L#	c #0E718C",
"M#	c #116F87",
"N#	c #0B7C9D",
"O#	c #0E576B",
"P#	c #166678",
"Q#	c #186E84",
"R#	c #146E82",
"S#	c #17687A",
"T#	c #0D718C",
"U#	c #136A7D",
"V#	c #14758B",
"W#	c #196E81",
"X#	c #15768A",
"  . + @ # $ % & * = - ; > > , , ' ' ) ! ~ { ] > > ^ / ' ' ( _ : ",
"<   [ } | 1 2 3 4 5 6 7 > > 8 9 ' ' 0 > a b > > ^ c 9 ' d e , e ",
"f g h i j k l m n o p q r > ' 9 9 s ! > t u v w x y ) z A ^ > B ",
"C D E F G H I J K L M { N O P Q , P R ! S T U V W X > ^ Y Z `  .",
"..+.@.#.$.%.&.*.=.-.;.>.,.'.] > ).!.~.{.8 ].^./.(.r _.:.<.[.}.|.",
"1.2.3.4.5.6.7.8.9.0.a.b.c.d.> > e.f.g.7 h.i.j.c.k.> l.m.n.g.o.p.",
"q.r.s.t.u.v.w.x.y.z.A.B.` > C.D.E.F.c c ^ G.s / c.H.I.J.c K.F.L.",
"M.N.O.P.Q.R.S.T.U.V.W./ X.k.Y.Z.`.' ' '  +.+++@+#+$+%+ +' ' ' `.",
"&+*+=+-+;+>+,+'+)+!+~+h./ F.{+]+^+/+(+_+:+<+[+/ }+|+1+2+3+(+4+5+",
"6+7+8+9+0+a+b+c+d+e+f+g+K.' h+_.i+j+k+a l+c.m+' ' x n+i+x k+X o+",
"p+q+r+s+t+u+v+w+x+y+L.z+' ' A+B+C+H.D+E+] F+G+' _+H+I+J+C./.:.r ",
"K+L+M+N+O+P+Q+R+S+T+, U+' ' V+W O H.H.D+F+W+X+' _+Y+:.J+H.Z+`+! ",
" @.@+@@@#@$@%@&@*@=@-@_ d K.F.X.V ;@> ] >@,@'@_+z ` )@N ] > !@~@",
"{@]@^@/@(@_@:@<@[@}@/ e e / > > }@d.> > |@,@k+a ^ > > r k.> 1@2@",
"3@4@5@6@7@8@_ ' ' c 9@0@a@> > > > > 0@9@> k.b@c.> > > > c.c@d@> ",
"e@f@g@> 9@c ' ' ' ' }.0@h@_.> > > ] i@{+_ j@b@D.> > > > k@;@l@m@",
"c.=@n@o@p@q@4+' z [@> k.> a@!@g.r@s@t@u@v@c.k.> b@w@g.x@y@z@A@B@",
"c.C@D@E@<.F@G@H@I@k.> > ! J@I+1+p@S K.F.c.c.F+[@K@L@!.2+F.M@! a@",
"> k.N@/ O@P@; Q@D.c.> ! R@' h+a@L.G+' G+/ L.q@9 K./ a@d@' ' z+/ ",
"` S@N@/ c.T@> r }@d.U@! ' ' ) Y F.' ' X+K.( F.' ' x V@c ' ' X+K.",
"W@X@b@D.a@Y@F.Z@}@D.`@c ' M@L.h.F.A+' ' ' F.K.K. #O@.#c d ' ' ' ",
"+#=@@#G.##$#%#&#*#w@=#`@/ -#;#*#>#e c ' ' P / / u@!.(.`@,#K.' ' ",
"( ' ' ' '#p@P@D.)#!#! A@Y.~#{#P@a@h@n.]#^#a /#C+Z+Z+i@a@(#~@_#:#",
"_ <#K.R@,@r@k@}@}@v@a@B@[#H.H.!#> _.}#|#] ] 1#P@H.H.r > 2#3#4#r ",
"D@c.> > > > 5#6#_.> > > ] > X H+7#/ 8#g./ , r r > ##9#/ d@3#L./ ",
"0#b@> > > > > a@9@[@d@d@5#5#}@X a / 2@2@c F.> k.> a#/ / F+b#/ K.",
"c@D.c#c.> > c.d#)#e#f#F+6#g#( d@h#b#> > / i#}@d.j#/ k#~.] > > l#",
"}@}@c.b@m#m#n#K@o#g.B@O (.` p#q#b#> > > r 4#V O@r#'@s#2#> > > ] ",
"L.q@R@S t#|#/ K.K./ u#v#a@w#x#y#z#, > > ]+A#(.Y #+B#C#D#> > r@t#",
", E#' K.c.c.F.' X+z+S S ) F+2#F#G#H#! ] r Z S@h+w v x#5#I#d@c#}@",
"J#K.' M@a#K#' ' ' ' L#M#N#/ a#q m#7@c.b@r#O#G+' }@a#P#A@k.a@Q#K.",
"S K.}+R#S#X 4+A+' ' T#U#y@w#a#V#> ! =@c.r#O#r W#d.a#^ X#` `@V#K."};
