/* XPM */
static char * wallwater_corner_topleft_1_xpm[] = {
"32 32 800 2",
"  	c #67723A",
". 	c #79902F",
"+ 	c #647235",
"@ 	c #6C7A36",
"# 	c #728034",
"$ 	c #58653F",
"% 	c #6A763A",
"& 	c #748133",
"* 	c #66703B",
"= 	c #4D5042",
"- 	c #515543",
"; 	c #5B6640",
"> 	c #5C7139",
", 	c #56663D",
"' 	c #687636",
") 	c #94A02A",
"! 	c #9EA925",
"~ 	c #73892F",
"{ 	c #76A020",
"] 	c #4C5E37",
"^ 	c #4F5442",
"/ 	c #6C7937",
"( 	c #8CA429",
"_ 	c #758038",
": 	c #44473D",
"< 	c #58613F",
"[ 	c #535942",
"} 	c #575D3F",
"| 	c #748234",
"1 	c #707E32",
"2 	c #748233",
"3 	c #5D6B3B",
"4 	c #677437",
"5 	c #606D3A",
"6 	c #677733",
"7 	c #638727",
"8 	c #6D8B32",
"9 	c #43453D",
"0 	c #515443",
"a 	c #667237",
"b 	c #6F7D34",
"c 	c #565C40",
"d 	c #555C42",
"e 	c #91A628",
"f 	c #85A027",
"g 	c #668D22",
"h 	c #4C543B",
"i 	c #45473D",
"j 	c #55603E",
"k 	c #64842D",
"l 	c #76892E",
"m 	c #4B4E40",
"n 	c #687632",
"o 	c #6C7936",
"p 	c #4E5142",
"q 	c #5A5F40",
"r 	c #5F683D",
"s 	c #545F41",
"t 	c #545A3F",
"u 	c #515643",
"v 	c #5F6C3A",
"w 	c #59663E",
"x 	c #4F6F33",
"y 	c #76A120",
"z 	c #779E28",
"A 	c #5D6C3E",
"B 	c #505343",
"C 	c #4E5141",
"D 	c #4F5A41",
"E 	c #4E5341",
"F 	c #43493C",
"G 	c #627539",
"H 	c #729B20",
"I 	c #96A925",
"J 	c #9FA924",
"K 	c #68793A",
"L 	c #4D5A3A",
"M 	c #456834",
"N 	c #6A971A",
"O 	c #7FA820",
"P 	c #75942E",
"Q 	c #5C693F",
"R 	c #5E673D",
"S 	c #727F36",
"T 	c #5B633E",
"U 	c #525743",
"V 	c #636F37",
"W 	c #474B3F",
"X 	c #4A4C40",
"Y 	c #5F7E31",
"Z 	c #526B36",
"` 	c #5E693A",
" .	c #4E6039",
"..	c #46503D",
"+.	c #4F5A40",
"@.	c #587734",
"#.	c #689322",
"$.	c #6F8531",
"%.	c #94A727",
"&.	c #A2AF22",
"*.	c #92A029",
"=.	c #6E8333",
"-.	c #5A822A",
";.	c #708D2A",
">.	c #687532",
",.	c #78902F",
"'.	c #5B693C",
").	c #6C7A32",
"!.	c #697732",
"~.	c #67872D",
"{.	c #6A7833",
"].	c #545842",
"^.	c #565D3C",
"/.	c #576B37",
"(.	c #6B9819",
"_.	c #5F7B31",
":.	c #7F9D2C",
"<.	c #5D673F",
"[.	c #6B7E34",
"}.	c #7C8D31",
"|.	c #86922F",
"1.	c #6E8031",
"2.	c #637137",
"3.	c #525A43",
"4.	c #575E40",
"5.	c #657B32",
"6.	c #6B8B2E",
"7.	c #7B972D",
"8.	c #83AA2D",
"9.	c #8FAD2B",
"0.	c #79932F",
"a.	c #727F33",
"b.	c #6D7134",
"c.	c #717D33",
"d.	c #52663E",
"e.	c #6A9422",
"f.	c #699519",
"g.	c #647C31",
"h.	c #7C8834",
"i.	c #9EA825",
"j.	c #76952D",
"k.	c #607E34",
"l.	c #79872F",
"m.	c #9FAD23",
"n.	c #778E30",
"o.	c #748C30",
"p.	c #879D2B",
"q.	c #839F2B",
"r.	c #88972D",
"s.	c #6A7B35",
"t.	c #5C633F",
"u.	c #50573D",
"v.	c #4F5242",
"w.	c #45483D",
"x.	c #628E20",
"y.	c #5F743D",
"z.	c #729333",
"A.	c #8CA72E",
"B.	c #87AE2C",
"C.	c #A0B327",
"D.	c #9DB027",
"E.	c #7B9A2F",
"F.	c #6A8035",
"G.	c #5F8932",
"H.	c #87B623",
"I.	c #78A825",
"J.	c #546E3C",
"K.	c #5C6440",
"L.	c #8D9631",
"M.	c #909B2E",
"N.	c #657336",
"O.	c #A6B121",
"P.	c #7A942E",
"Q.	c #7C962E",
"R.	c #748631",
"S.	c #667D30",
"T.	c #5D7C34",
"U.	c #44473E",
"V.	c #46493E",
"W.	c #575C41",
"X.	c #55762F",
"Y.	c #567C2F",
"Z.	c #566C3F",
"`.	c #546D3D",
" +	c #58753A",
".+	c #4C671D",
"++	c #517114",
"@+	c #92A825",
"#+	c #A3B827",
"$+	c #ABBE23",
"%+	c #8BAD2D",
"&+	c #85B02A",
"*+	c #567F35",
"=+	c #576F3F",
"-+	c #535C42",
";+	c #555F42",
">+	c #67733A",
",+	c #5F6C3B",
"'+	c #62713B",
")+	c #82902F",
"!+	c #739A22",
"~+	c #82A726",
"{+	c #6E8D27",
"]+	c #728033",
"^+	c #748D31",
"/+	c #689020",
"(+	c #6B7937",
"_+	c #616D36",
":+	c #5E6A39",
"<+	c #768A34",
"[+	c #80A12E",
"}+	c #78992F",
"|+	c #6C8931",
"1+	c #58773F",
"2+	c #4D6739",
"3+	c #415A2C",
"4+	c #2A4611",
"5+	c #223113",
"6+	c #456224",
"7+	c #77982F",
"8+	c #A5BB25",
"9+	c #8EB02D",
"0+	c #9BB628",
"a+	c #95AB2C",
"b+	c #67813C",
"c+	c #83912F",
"d+	c #545A42",
"e+	c #586D3C",
"f+	c #58703B",
"g+	c #6F7F35",
"h+	c #799C1D",
"i+	c #909B2B",
"j+	c #9CAC20",
"k+	c #9EAC25",
"l+	c #7C992E",
"m+	c #6B7D30",
"n+	c #6F7F2F",
"o+	c #738830",
"p+	c #6D8835",
"q+	c #739036",
"r+	c #6F8A38",
"s+	c #5A733F",
"t+	c #57703F",
"u+	c #546D37",
"v+	c #41581D",
"w+	c #1F2E11",
"x+	c #1A2311",
"y+	c #222316",
"z+	c #727D29",
"A+	c #708C25",
"B+	c #4A6326",
"C+	c #708D2C",
"D+	c #99AE21",
"E+	c #9FB422",
"F+	c #89A22A",
"G+	c #768931",
"H+	c #616D39",
"I+	c #56673D",
"J+	c #78A31E",
"K+	c #6B9220",
"L+	c #9DA925",
"M+	c #68852F",
"N+	c #6A991B",
"O+	c #688C37",
"P+	c #648439",
"Q+	c #5F7C35",
"R+	c #445F19",
"S+	c #4A621E",
"T+	c #56723C",
"U+	c #59793F",
"V+	c #57723F",
"W+	c #59773E",
"X+	c #5D6E33",
"Y+	c #3C5015",
"Z+	c #363F09",
"`+	c #1D3209",
" @	c #172D0C",
".@	c #1F2614",
"+@	c #5C6415",
"@@	c #3F4910",
"#@	c #263415",
"$@	c #2C4216",
"%@	c #3D590E",
"&@	c #4D6114",
"*@	c #53593F",
"=@	c #607133",
"-@	c #667A3A",
";@	c #626E3C",
">@	c #6F7F32",
",@	c #7E992D",
"'@	c #94A228",
")@	c #728B2E",
"!@	c #657236",
"~@	c #5D673E",
"{@	c #5A7D34",
"]@	c #618338",
"^@	c #546A38",
"/@	c #506029",
"(@	c #243E0F",
"_@	c #27470C",
":@	c #6C8C29",
"<@	c #678B36",
"[@	c #68883A",
"}@	c #5A7134",
"|@	c #2F3519",
"1@	c #384300",
"2@	c #394E00",
"3@	c #2D614E",
"4@	c #1F555C",
"5@	c #32452D",
"6@	c #3C4B00",
"7@	c #292D0B",
"8@	c #2A555F",
"9@	c #405C2C",
"0@	c #2E4309",
"a@	c #1D1F14",
"b@	c #434E3B",
"c@	c #6C912B",
"d@	c #719721",
"e@	c #748432",
"f@	c #6A7B38",
"g@	c #57772F",
"h@	c #618130",
"i@	c #596241",
"j@	c #5E763E",
"k@	c #546F3D",
"l@	c #678431",
"m@	c #455617",
"n@	c #1F2813",
"o@	c #395008",
"p@	c #4E660E",
"q@	c #4F661D",
"r@	c #5E7522",
"s@	c #3E530F",
"t@	c #223000",
"u@	c #659E94",
"v@	c #6CAFAA",
"w@	c #5099A7",
"x@	c #3B7B8F",
"y@	c #5EA2A9",
"z@	c #559BA3",
"A@	c #2D7D92",
"B@	c #4C92A6",
"C@	c #559FA8",
"D@	c #202514",
"E@	c #161710",
"F@	c #494C3E",
"G@	c #7C8734",
"H@	c #7C8C30",
"I@	c #50762E",
"J@	c #51603E",
"K@	c #507034",
"L@	c #77A022",
"M@	c #799D2D",
"N@	c #657B36",
"O@	c #779631",
"P@	c #728F31",
"Q@	c #657D2E",
"R@	c #34391B",
"S@	c #303E0E",
"T@	c #415703",
"U@	c #353F09",
"V@	c #212712",
"W@	c #1B2211",
"X@	c #223D02",
"Y@	c #3A6F6E",
"Z@	c #609FA6",
"`@	c #315B6C",
" #	c #325D6D",
".#	c #305B6B",
"+#	c #386675",
"@#	c #3A6878",
"##	c #3A6979",
"$#	c #325B6D",
"%#	c #457B8A",
"&#	c #5DA3B2",
"*#	c #5199AE",
"=#	c #657135",
"-#	c #869B2C",
";#	c #859B2B",
">#	c #516F32",
",#	c #647B31",
"'#	c #5A6341",
")#	c #698D2A",
"!#	c #657A37",
"~#	c #7FA130",
"{#	c #96AF28",
"]#	c #576C2E",
"^#	c #333818",
"/#	c #3A4508",
"(#	c #3B4807",
"_#	c #222A11",
":#	c #1B1D12",
"<#	c #14140C",
"[#	c #344940",
"}#	c #5AA2AC",
"|#	c #477C88",
"1#	c #366472",
"2#	c #366575",
"3#	c #305F6D",
"4#	c #1F4A59",
"5#	c #234D5E",
"6#	c #224D5D",
"7#	c #113A4B",
"8#	c #0F3749",
"9#	c #1C4354",
"0#	c #15394A",
"a#	c #7B932F",
"b#	c #6A7735",
"c#	c #5A6340",
"d#	c #5E673E",
"e#	c #7FA425",
"f#	c #687E3A",
"g#	c #595F40",
"h#	c #798D32",
"i#	c #789332",
"j#	c #708E31",
"k#	c #97AE2B",
"l#	c #4D5B2B",
"m#	c #393F14",
"n#	c #3B4E2E",
"o#	c #436C69",
"p#	c #457378",
"q#	c #164A59",
"r#	c #2B6A7B",
"s#	c #4E9EB2",
"t#	c #3E7787",
"u#	c #164152",
"v#	c #124151",
"w#	c #154656",
"x#	c #164B5C",
"y#	c #164E5F",
"z#	c #174E5F",
"A#	c #174C5D",
"B#	c #17495A",
"C#	c #164656",
"D#	c #164959",
"E#	c #174B5A",
"F#	c #586441",
"G#	c #5D6640",
"H#	c #667336",
"I#	c #626F3C",
"J#	c #566241",
"K#	c #5A6540",
"L#	c #7A9130",
"M#	c #7FA428",
"N#	c #6F8E31",
"O#	c #5F7D3C",
"P#	c #607E3A",
"Q#	c #4E5021",
"R#	c #345153",
"S#	c #3C7180",
"T#	c #3E7B8B",
"U#	c #2E6675",
"V#	c #2E6A7E",
"W#	c #266176",
"X#	c #1F4D61",
"Y#	c #154055",
"Z#	c #144656",
"`#	c #174858",
" $	c #194D5D",
".$	c #1A5161",
"+$	c #1C596B",
"@$	c #1C617B",
"#$	c #1D6B84",
"$$	c #20606F",
"%$	c #1F6175",
"&$	c #1F7087",
"*$	c #1E6F8C",
"=$	c #515A42",
"-$	c #656F3C",
";$	c #6B7932",
">$	c #6F8230",
",$	c #677A3B",
"'$	c #729823",
")$	c #7DAF22",
"!$	c #5C8339",
"~$	c #56733F",
"{$	c #424C2B",
"]$	c #3C5862",
"^$	c #154554",
"/$	c #205D6B",
"($	c #216573",
"_$	c #236C7E",
":$	c #246877",
"<$	c #236675",
"[$	c #246878",
"}$	c #236575",
"|$	c #205F6D",
"1$	c #20606D",
"2$	c #226674",
"3$	c #227487",
"4$	c #227284",
"5$	c #206270",
"6$	c #227183",
"7$	c #22778F",
"8$	c #494C3F",
"9$	c #585F41",
"0$	c #667435",
"a$	c #7A9030",
"b$	c #7F9E2C",
"c$	c #8BAB29",
"d$	c #61922D",
"e$	c #91AB2C",
"f$	c #859624",
"g$	c #434E14",
"h$	c #356479",
"i$	c #204757",
"j$	c #184F62",
"k$	c #1F6272",
"l$	c #217C98",
"m$	c #227A94",
"n$	c #237184",
"o$	c #236876",
"p$	c #236A7A",
"q$	c #227182",
"r$	c #226F80",
"s$	c #226676",
"t$	c #205F6C",
"u$	c #226E7F",
"v$	c #236D7E",
"w$	c #788A31",
"x$	c #616E3C",
"y$	c #709721",
"z$	c #759A23",
"A$	c #A1B328",
"B$	c #97A728",
"C$	c #748C16",
"D$	c #556A01",
"E$	c #3C4739",
"F$	c #4A7F8D",
"G$	c #1E495A",
"H$	c #174E64",
"I$	c #206575",
"J$	c #227A95",
"K$	c #22768B",
"L$	c #236F85",
"M$	c #236F81",
"N$	c #227386",
"O$	c #23697A",
"P$	c #227082",
"Q$	c #226576",
"R$	c #236D80",
"S$	c #6A7939",
"T$	c #62743C",
"U$	c #688E2C",
"V$	c #648634",
"W$	c #62813C",
"X$	c #58762D",
"Y$	c #385A06",
"Z$	c #2F3E0C",
"`$	c #43707C",
" %	c #6296A1",
".%	c #1D4455",
"+%	c #13465A",
"@%	c #1D6A82",
"#%	c #217A96",
"$%	c #227B96",
"%%	c #236E83",
"&%	c #226170",
"*%	c #216373",
"=%	c #246979",
"-%	c #227993",
";%	c #227A93",
">%	c #4A4D40",
",%	c #484B3F",
"'%	c #576340",
")%	c #515F3F",
"!%	c #749531",
"~%	c #ABBE22",
"{%	c #657A1B",
"]%	c #324B02",
"^%	c #3A5454",
"/%	c #599EB4",
"(%	c #3A7E93",
"_%	c #1C4251",
":%	c #174E63",
"<%	c #1D728F",
"[%	c #227C98",
"}%	c #246A7B",
"|%	c #22768E",
"1%	c #217D99",
"2%	c #237990",
"3%	c #5F6A3A",
"4%	c #637C3D",
"5%	c #6F8B39",
"6%	c #73912A",
"7%	c #839B28",
"8%	c #70751A",
"9%	c #344208",
"0%	c #3F859B",
"a%	c #467A8A",
"b%	c #294F5D",
"c%	c #134052",
"d%	c #1A586B",
"e%	c #207289",
"f%	c #227B97",
"g%	c #207C9D",
"h%	c #22788F",
"i%	c #236878",
"j%	c #236A7B",
"k%	c #226271",
"l%	c #47543C",
"m%	c #496B33",
"n%	c #819B2C",
"o%	c #819B33",
"p%	c #5D7531",
"q%	c #3F5A13",
"r%	c #394311",
"s%	c #2A3209",
"t%	c #3A432C",
"u%	c #5EA0B3",
"v%	c #396270",
"w%	c #1B4A5B",
"x%	c #194F5F",
"y%	c #1F5E6F",
"z%	c #227792",
"A%	c #207B9B",
"B%	c #217A97",
"C%	c #226F82",
"D%	c #236C81",
"E%	c #22768C",
"F%	c #236E80",
"G%	c #226878",
"H%	c #227992",
"I%	c #23778B",
"J%	c #227285",
"K%	c #226775",
"L%	c #456236",
"M%	c #505D39",
"N%	c #9EB027",
"O%	c #9DB227",
"P%	c #597920",
"Q%	c #3A4908",
"R%	c #262C10",
"S%	c #1A1705",
"T%	c #769BA2",
"U%	c #62909C",
"V%	c #34606D",
"W%	c #164C5C",
"X%	c #1C5A6A",
"Y%	c #206C7E",
"Z%	c #21697C",
"`%	c #216372",
" &	c #236E7F",
".&	c #236A7D",
"+&	c #226D7E",
"@&	c #237084",
"#&	c #237183",
"$&	c #4A4E3E",
"%&	c #779734",
"&&	c #99B329",
"*&	c #5C7D1D",
"=&	c #29300E",
"-&	c #171911",
";&	c #303531",
">&	c #7BA8B1",
",&	c #3C6876",
"'&	c #245160",
")&	c #195062",
"!&	c #1D5E71",
"~&	c #21758F",
"{&	c #227991",
"]&	c #227388",
"^&	c #216473",
"/&	c #23778E",
"(&	c #207A99",
"_&	c #206777",
":&	c #227286",
"<&	c #22778B",
"[&	c #4E5042",
"}&	c #68902D",
"|&	c #75A424",
"1&	c #5D7B1C",
"2&	c #243910",
"3&	c #191A15",
"4&	c #5D9CAC",
"5&	c #51818F",
"6&	c #376472",
"7&	c #194959",
"8&	c #1C5D6F",
"9&	c #216F84",
"0&	c #22768D",
"a&	c #227588",
"b&	c #236979",
"c&	c #216677",
"d&	c #5C633E",
"e&	c #687535",
"f&	c #5B733B",
"g&	c #82B122",
"h&	c #7CAA26",
"i&	c #546F1D",
"j&	c #3F5110",
"k&	c #4C7C86",
"l&	c #437C8D",
"m&	c #345F6D",
"n&	c #144051",
"o&	c #164858",
"p&	c #195061",
"q&	c #1E5F71",
"r&	c #217388",
"s&	c #206474",
"t&	c #216575",
"u&	c #237588",
"v&	c #236B7C",
"w&	c #21687A",
"x&	c #227892",
"y&	c #62763C",
"z&	c #678D2C",
"A&	c #537235",
"B&	c #587539",
"C&	c #637E25",
"D&	c #567C60",
"E&	c #1E4A59",
"F&	c #144151",
"G&	c #154454",
"H&	c #184A5A",
"I&	c #1A5364",
"J&	c #1D6880",
"K&	c #227591",
"L&	c #226575",
"M&	c #206472",
"N&	c #246B7C",
"O&	c #206371",
"P&	c #22758A",
"Q&	c #237A90",
"R&	c #227C97",
"S&	c #6D7A36",
"T&	c #61733B",
"U&	c #707A39",
"V&	c #63743A",
"W&	c #535D3A",
"X&	c #5D783C",
"Y&	c #7C9D2F",
"Z&	c #647A2F",
"`&	c #134150",
" *	c #1B5768",
".*	c #206679",
"+*	c #216371",
"@*	c #237A8F",
"#*	c #227287",
"$*	c #226472",
"%*	c #23768B",
"&*	c #217A94",
"**	c #819630",
"=*	c #9EAB25",
"-*	c #8BA02A",
";*	c #6C7D3A",
">*	c #7B9B30",
",*	c #81A62D",
"'*	c #61642B",
")*	c #375960",
"!*	c #134151",
"~*	c #174959",
"{*	c #1A596C",
"]*	c #1E6980",
"^*	c #227589",
"/*	c #227083",
"(*	c #206171",
"_*	c #22697A",
":*	c #227890",
"<*	c #227486",
"[*	c #226978",
"}*	c #226C7E",
"|*	c #227791",
"1*	c #206878",
"2*	c #96A727",
"3*	c #64733D",
"4*	c #4D5640",
"5*	c #47493E",
"6*	c #687639",
"7*	c #7FA22F",
"8*	c #688537",
"9*	c #595D30",
"0*	c #335D67",
"a*	c #134253",
"b*	c #1B5D70",
"c*	c #1E728D",
"d*	c #227184",
"e*	c #20687A",
"f*	c #22697B",
"g*	c #226979",
"h*	c #246D81",
"i*	c #536042",
"j*	c #4F5841",
"k*	c #758632",
"l*	c #7B9733",
"m*	c #5E7D3B",
"n*	c #6A742F",
"o*	c #518189",
"p*	c #135268",
"q*	c #164C5B",
"r*	c #1B5A6B",
"s*	c #226677",
"t*	c #227489",
"u*	c #217B95",
"v*	c #22748C",
"w*	c #217C9A",
"x*	c #217C9B",
"y*	c #236C7D",
"  . + @ # $ % & * = - ; > , ' ) ! ~ { ] ^ / ( _ : : < [ } | 1 + ",
"2   3 1 4 5 6 7 8 9 0 a b c d ' e f g h i j k l m : n o p q r s ",
"b t u v w n x y z A B C D E F G H I J K L M N O P Q R b S T U V ",
"V W X Y Z n `  ...B B C E D +.@.#.$.%.&.*.=.-.;.>.,.# '.).!.~.{.",
"].^./.(._.:.a c <.[.}.|.1.).2.3.0 4.5.6.7.8.9.0.a.b.c.w d.e.f.g.",
"h.i.j.k.l.m.n.o.p.m.q.r.s.t.u.U v.w.x.x.y.z.A.B.C.D.E.F.G.H.I.J.",
"K.L.M.N.l.O.P.P.Q.R.S.T.^ U.: V.W.t.X.Y.Z.`. +.+++@+#+$+%+&+*+=+",
"-+;+>+,+'+)+!+~+{+]+^+/+(+_+D :+<+[+}+|+1+2+3+4+5+6+7+8+9+0+a+b+",
"c+'+d+e+f+g+~ h+i+&.j+k+l+m+n+o+p+q+r+s+t+u+v+w+x+y+z+A+B+C+D+E+",
"F+G+H+I+J+K+L+O.&.M+N+O+P+Q+R+S+T+U+V+W+X+Y+Z+`+ @.@+@@@#@$@%@&@",
"*@=@-@;@>@,@'@)@!@~@{@]@^@/@(@_@:@<@[@}@|@1@2@3@4@5@6@7@8@9@0@a@",
"b@c@d@P.e@f@g@{ h@i@j@k@l@m@n@o@p@q@r@s@t@u@v@w@x@y@z@A@B@C@D@E@",
"F@G@O.H@I@J@K@L@M@N@O@P@Q@R@S@T@U@V@W@X@Y@Z@`@ #.#+#@###$#%#&#*#",
"=#-#;#>#J+,#'#, )#!#~#{#]#^#/#(#_#:#<#[#}#|#1#2#3#4#5#6#7#8#9#0#",
"a#b#c#d#e#f#3.g#h#i#j#k#l#m#n#o#p#q#r#s#t#u#v#w#x#y#z#A#B#C#D#E#",
"' F#G#H#I#J#K#L#M#N#O#P#Q#R#S#T#U#V#W#X#Y#Z#`# $.$+$@$#$$$%$&$*$",
"C =$-$;$>$f@,$'$)$!$~${$]$^$/$($_$:$<$[$}$|$1$2$3$3$3$4$5$|$6$7$",
"C 8$9$0$a$b$m.c$d$e$f$g$h$i$j$k$l$m$n$o$p$q$r$[$3$3$3$s$t$u$6$v$",
"w$I#E m x$y$z$A$B$C$D$E$F$G$H$I$l$J$K$L$M$N$3$p$O$P$4$Q$s$3$3$R$",
"S$!.E m T$U$V$W$X$Y$Z$`$ %.%+%@%l$#%l$l$$%%%4$&%*%P$3$3$=%4$-%;%",
">%0 ,%'%)%!%8+~%{%]%^%/%(%_%:%<%l$l$l$l$l$[%N$}%3$3$3$3$P$|%1%2%",
"3%u t b 4%5%6%7%8%9%0%a%b%c%d%e%f%l$l$l$g%h%i%2$3$3$3$3$i%j%R$k%",
"v l%m%n%o%p%q%r%s%t%u%v%w%x%y%[$i%z%A%B%C%D%E%F%G%H%I%J%|$K%G%2$",
"E L%M%N%O%P%Q%R%S%T%U%V%W%X%Y%4$Z%`% &3$.&;%l$B%+&i%@&J%t$u$N$#&",
": : $&%&&&*&=&-&;&>&,&'&)&!&~&{&E%]&^&K$E%E%/&(&7$_&3$3$3$ &:&<&",
": m [&}&|&1&2&3&4&5&6&7&x%8&9&0&E%a&b&-%l$l$-%3$N$N$3$3$3$3$c&<&",
"d&e&f&g&h&i&j&k&l&m&n&o&p&q&r&s&t&4$3$u&#%;%u&O$v&3$3$3$a&F%w&x&",
").I#y&z&A&B&C&D&E&F&G&H&I&J&K&L&3$3$3$3$O$M&N&&%O&4$P&-%Q&a&R&l$",
"S&T&U&V&W&X&Y&Z&`&`&w# $ *.*|$+*@*a&3$3$+*4$3$#*`%$*q$i%$*4$%*&*",
"**=*-*;*R >*,*'*)*!*~*{*]*^*/*(*_*Q&:* &4$3$3$3$<*[*K%}*|*&*:*1*",
"2*3*4*5*6*7*8*9*0*a*~*b*c*K$d*e*^&f*#&[$f%l$J$a&3$g*^&;%l$l$l$h*",
"3*i*m j*k*l*m*n*o*p*q*r*s*_$d*t*3$:*7$6$f%l$l$u*:*v*^*u*w*x*m$y*"};
