/* XPM */
static char * wallwater_reverse_corner_topleft_1_xpm[] = {
"32 32 489 2",
"  	c #667236",
". 	c #779126",
"+ 	c #637231",
"@ 	c #6B7A31",
"# 	c #73862C",
"$ 	c #5D7F38",
"% 	c #6E8D32",
"& 	c #7D982B",
"* 	c #3F5A5C",
"= 	c #085A73",
"- 	c #255E6C",
"; 	c #3B7581",
"> 	c #438A96",
", 	c #408F9E",
"' 	c #3E909F",
") 	c #4091A0",
"! 	c #3D8FA1",
"~ 	c #2F8BA1",
"{ 	c #17809D",
"] 	c #0D7D9B",
"^ 	c #13778D",
"/ 	c #2D6F82",
"( 	c #3F7D88",
"_ 	c #448B99",
": 	c #3F909F",
"< 	c #4091A1",
"[ 	c #3A8D9D",
"} 	c #2888A2",
"| 	c #117E9C",
"1 	c #0F7B97",
"2 	c #127993",
"3 	c #73822C",
"4 	c #5C6B38",
"5 	c #6F7E2C",
"6 	c #677D30",
"7 	c #648532",
"8 	c #6F902A",
"9 	c #617E1F",
"0 	c #35565A",
"a 	c #185D74",
"b 	c #0F495A",
"c 	c #125163",
"d 	c #186C7D",
"e 	c #15768A",
"f 	c #137A93",
"g 	c #0E7C9A",
"h 	c #097EA0",
"i 	c #147589",
"j 	c #125769",
"k 	c #15596A",
"l 	c #167386",
"m 	c #117C98",
"n 	c #0E7C98",
"o 	c #0B7C9C",
"p 	c #6E7D2E",
"q 	c #535A3D",
"r 	c #515642",
"s 	c #5E6C37",
"t 	c #596D3A",
"u 	c #6F8C29",
"v 	c #617626",
"w 	c #3D5805",
"x 	c #437869",
"y 	c #3D7983",
"z 	c #0D495B",
"A 	c #115062",
"B 	c #196272",
"C 	c #167185",
"D 	c #0C7D9D",
"E 	c #0F7B99",
"F 	c #0F586B",
"G 	c #155465",
"H 	c #16697D",
"I 	c #0F7C98",
"J 	c #0A7DA0",
"K 	c #626F33",
"L 	c #474B3E",
"M 	c #4A4C3F",
"N 	c #5D7F2C",
"O 	c #537531",
"P 	c #698825",
"Q 	c #375210",
"R 	c #18280A",
"S 	c #285F6B",
"T 	c #317284",
"U 	c #0F4E61",
"V 	c #145869",
"W 	c #156B81",
"X 	c #186A7B",
"Y 	c #186576",
"Z 	c #186C80",
"` 	c #15758B",
" .	c #166778",
"..	c #116176",
"+.	c #145E70",
"@.	c #156D82",
"#.	c #196878",
"$.	c #177186",
"%.	c #14768B",
"&.	c #14768A",
"*.	c #15697A",
"=.	c #545841",
"-.	c #555D3A",
";.	c #566C34",
">.	c #689B03",
",.	c #568222",
"'.	c #5F8106",
").	c #252D04",
"!.	c #232D20",
"~.	c #48A2B8",
"{.	c #1C5668",
"].	c #105366",
"^.	c #126579",
"/.	c #157184",
"(.	c #186B7C",
"_.	c #196574",
":.	c #196C7E",
"<.	c #186E81",
"[.	c #185F6D",
"}.	c #165E6C",
"|.	c #147087",
"1.	c #11667C",
"2.	c #13697E",
"3.	c #157185",
"4.	c #196776",
"5.	c #186A7A",
"6.	c #186F81",
"7.	c #19687A",
"8.	c #175E6C",
"9.	c #166272",
"0.	c #13758F",
"a.	c #7B882D",
"b.	c #9DAC12",
"c.	c #759E22",
"d.	c #507F0E",
"e.	c #4A6605",
"f.	c #4D5800",
"g.	c #30401C",
"h.	c #4F949B",
"i.	c #3C8699",
"j.	c #07384B",
"k.	c #0E596E",
"l.	c #0F7593",
"m.	c #117896",
"n.	c #15748A",
"o.	c #177084",
"p.	c #157387",
"q.	c #17697B",
"r.	c #196170",
"s.	c #166D7F",
"t.	c #157083",
"u.	c #0F7189",
"v.	c #107696",
"w.	c #107996",
"x.	c #167285",
"y.	c #176D81",
"z.	c #186374",
"A.	c #196474",
"B.	c #157082",
"C.	c #5E6F3C",
"D.	c #8FA525",
"E.	c #7F9108",
"F.	c #325803",
"G.	c #343D00",
"H.	c #4B571D",
"I.	c #51908F",
"J.	c #4692A4",
"K.	c #2C5D6D",
"L.	c #0E4354",
"M.	c #116074",
"N.	c #097D9F",
"O.	c #087EA2",
"P.	c #0E7D9C",
"Q.	c #1A6A7B",
"R.	c #176677",
"S.	c #127891",
"T.	c #0F7C9A",
"U.	c #0E7D9B",
"V.	c #107893",
"W.	c #077EA2",
"X.	c #117A96",
"Y.	c #1A697A",
"Z.	c #1A6B7D",
"`.	c #156A7B",
" +	c #107B97",
".+	c #58763B",
"++	c #547535",
"@+	c #415E0A",
"#+	c #284208",
"$+	c #1E2605",
"%+	c #455C43",
"&+	c #4DA6B4",
"*+	c #396E80",
"=+	c #0D3F51",
"-+	c #0E485B",
";+	c #145868",
">+	c #176C80",
",+	c #13778E",
"'+	c #167087",
")+	c #196475",
"!+	c #186879",
"~+	c #14788E",
"{+	c #126A7F",
"]+	c #177187",
"^+	c #167086",
"/+	c #176E82",
"(+	c #186372",
"_+	c #196A7D",
":+	c #117C95",
"<+	c #819D23",
"[+	c #4C6719",
"}+	c #202210",
"|+	c #191F00",
"1+	c #2F4E46",
"2+	c #4A9CAB",
"3+	c #397D90",
"4+	c #1E4E5E",
"5+	c #0C4658",
"6+	c #104F62",
"7+	c #165D6E",
"8+	c #147991",
"9+	c #176473",
"0+	c #176373",
"a+	c #107997",
"b+	c #0B7D9E",
"c+	c #0C7D9C",
"d+	c #15697E",
"e+	c #167186",
"f+	c #107D9A",
"g+	c #187185",
"h+	c #17606E",
"i+	c #166B7D",
"j+	c #0D7C9D",
"k+	c #0D7D9C",
"l+	c #627912",
"m+	c #354402",
"n+	c #2A3622",
"o+	c #3F8898",
"p+	c #51A4AC",
"q+	c #3C7F90",
"r+	c #1E4C5C",
"s+	c #124859",
"t+	c #114E5F",
"u+	c #126173",
"v+	c #137084",
"w+	c #14788C",
"x+	c #107B96",
"y+	c #157386",
"z+	c #186675",
"A+	c #147388",
"B+	c #117791",
"C+	c #12778F",
"D+	c #196D81",
"E+	c #137A91",
"F+	c #12778E",
"G+	c #166F81",
"H+	c #14758C",
"I+	c #1A6A7C",
"J+	c #28291B",
"K+	c #202800",
"L+	c #4D8D92",
"M+	c #418EA2",
"N+	c #2F6073",
"O+	c #194759",
"P+	c #0E4254",
"Q+	c #0F495B",
"R+	c #116276",
"S+	c #147487",
"T+	c #14758A",
"U+	c #117994",
"V+	c #186776",
"W+	c #1A6979",
"X+	c #1A6777",
"Y+	c #195F6E",
"Z+	c #0F7B98",
"`+	c #0F7C9B",
" @	c #176F81",
".@	c #186877",
"+@	c #196373",
"@@	c #171706",
"#@	c #4E9594",
"$@	c #4996A1",
"%@	c #245466",
"&@	c #0E3E51",
"*@	c #0B4356",
"=@	c #0F4C5E",
"-@	c #145062",
";@	c #137286",
">@	c #107A95",
",@	c #0D7C9A",
"'@	c #137891",
")@	c #0E7B98",
"!@	c #117992",
"~@	c #186878",
"{@	c #196A7C",
"]@	c #187C96",
"^@	c #19687B",
"/@	c #0B3648",
"(@	c #0E4357",
"_@	c #0E4A5F",
":@	c #0E4F61",
"<@	c #135262",
"[@	c #196274",
"}@	c #14748A",
"|@	c #127992",
"1@	c #0C7D9E",
"2@	c #137791",
"3@	c #186778",
"4@	c #196A7A",
"5@	c #1A6879",
"6@	c #0B7D9D",
"7@	c #186676",
"8@	c #196C7D",
"9@	c #196A7B",
"0@	c #157488",
"a@	c #092937",
"b@	c #0A3646",
"c@	c #104457",
"d@	c #0F4C5F",
"e@	c #145A6D",
"f@	c #126578",
"g@	c #146E81",
"h@	c #15778D",
"i@	c #157286",
"j@	c #13768D",
"k@	c #117790",
"l@	c #147488",
"m@	c #167083",
"n@	c #0E4151",
"o@	c #0E4859",
"p@	c #0F4D5F",
"q@	c #145B6D",
"r@	c #147185",
"s@	c #0F7A96",
"t@	c #196B7E",
"u@	c #1B697A",
"v@	c #176F84",
"w@	c #135464",
"x@	c #134E5D",
"y@	c #12596B",
"z@	c #146E82",
"A@	c #177185",
"B@	c #107B99",
"C@	c #107B98",
"D@	c #196E81",
"E@	c #1B6A7B",
"F@	c #0F7A99",
"G@	c #127B94",
"H@	c #147690",
"I@	c #166473",
"J@	c #186373",
"K@	c #127A94",
"L@	c #14778D",
"M@	c #1A6B7C",
"N@	c #186D7F",
"O@	c #186D81",
"P@	c #156575",
"Q@	c #196777",
"R@	c #1A6676",
"S@	c #176E80",
"T@	c #156F82",
"U@	c #196D7F",
"V@	c #16697C",
"W@	c #166575",
"X@	c #196271",
"Y@	c #167286",
"Z@	c #19697B",
"`@	c #166576",
" #	c #117893",
".#	c #0C7E9D",
"+#	c #0F7A98",
"@#	c #147790",
"##	c #196978",
"$#	c #196B7C",
"%#	c #14768F",
"&#	c #186979",
"*#	c #0E7D9A",
"=#	c #12788F",
"-#	c #157285",
";#	c #196372",
">#	c #187083",
",#	c #186E84",
"'#	c #17758A",
")#	c #137A90",
"!#	c #186C7F",
"~#	c #107C98",
"{#	c #186D83",
"]#	c #127995",
"^#	c #1A6677",
"/#	c #196879",
"(#	c #127991",
"_#	c #107C97",
":#	c #166F86",
"<#	c #117993",
"[#	c #0D799A",
"}#	c #18697C",
"|#	c #186677",
"1#	c #156C7F",
"2#	c #165E6B",
"3#	c #176879",
"4#	c #186F82",
"5#	c #097DA0",
"6#	c #107993",
"7#	c #166D80",
"8#	c #186575",
"9#	c #13768F",
"0#	c #186978",
"a#	c #176777",
"b#	c #19697A",
"c#	c #117894",
"d#	c #0A7C9E",
"e#	c #0E7B9A",
"f#	c #167084",
"g#	c #1B6879",
"h#	c #176F82",
"i#	c #177082",
"j#	c #156A7E",
"k#	c #186474",
"l#	c #176C7D",
"m#	c #176475",
"n#	c #117996",
"o#	c #176575",
"p#	c #13778F",
"q#	c #156E82",
"r#	c #176F83",
"s#	c #157388",
"t#	c #167184",
"u#	c #196676",
"v#	c #127796",
"w#	c #14768C",
"x#	c #156576",
"y#	c #137991",
"z#	c #13788E",
"A#	c #165F6E",
"B#	c #186A7C",
"C#	c #166879",
"D#	c #13758A",
"E#	c #1B6979",
"F#	c #196070",
"G#	c #0D7E9D",
"H#	c #117795",
"I#	c #196677",
"J#	c #0C7E9E",
"K#	c #156D84",
"L#	c #176979",
"M#	c #196B7D",
"N#	c #166877",
"O#	c #17606F",
"P#	c #186473",
"Q#	c #137B91",
"R#	c #165F6F",
"S#	c #165E6D",
"T#	c #176D7E",
"U#	c #13798F",
"V#	c #117A95",
"W#	c #147890",
"X#	c #16677B",
"Y#	c #126B83",
"Z#	c #107B95",
"`#	c #166273",
" $	c #176A7C",
".$	c #137B92",
"+$	c #167387",
"@$	c #136175",
"#$	c #11748D",
"$$	c #117B96",
"%$	c #156E83",
"&$	c #127C94",
"*$	c #196E80",
"=$	c #137793",
"-$	c #0F718C",
";$	c #12596D",
">$	c #0B7594",
",$	c #15697C",
"'$	c #176A7D",
")$	c #0F7D9B",
"!$	c #0E576B",
"~$	c #11667E",
"{$	c #0D7A98",
"]$	c #166678",
"^$	c #17687A",
"/$	c #0D718C",
"($	c #115364",
"_$	c #156475",
":$	c #14758B",
"<$	c #127892",
"[$	c #135A6C",
"}$	c #166A7D",
"|$	c #13768C",
"  . + @ # $ % & * = - ; > , ' ) ! ~ { ] ^ / ( _ : : < [ } | 1 2 ",
"3   4 5 6 7 8 9 0 a b c d e e f g g ] h i j k l e e m n ] ] o i ",
"p q r s t u v w x y z A B C i 1 ] 1 D E i F G H l i ] I I J 2 i ",
"K L M N O P Q R S T U V W X Y Z ^ i `  .^ ..+.@.#.Y $.%.&.$.*.2 ",
"=.-.;.>.,.'.).!.~.{.].^./.(._.:.i <.[.}.|.1.2.3.4.5.6.i 7.8.9.0.",
"a.b.c.d.e.f.g.h.i.j.k.l.m.n.o.p.i q.r.s.t.u.v.w.x.y.i i z.A.B.3.",
"C.D.E.F.G.H.I.J.K.L.M.N.O.P.i :.Q.R.S.T.U.V.W.O.X.i Y.Z.`. +T.T.",
".+++@+#+$+%+&+*+=+-+;+>+,+'+p.)+!+~+U.] ] {+]+,+^+/+(+_+:+] ] ] ",
"<+[+}+|+1+2+3+4+5+6+7+>+,+ +8+9+0+a+b+c+g d+e+,+f+g+h+i+j+b+k+a+",
"l+m+n+o+p+q+r+s+t+u+v+w+U.] x+y+z+A+B+C+D+x.E+] ] F+G+z+F+B+H+I+",
"J+K+L+M+N+O+P+Q+R+S+T+U+] ] D ` V+W+X+Y+6.^ Z+] c+`+ @.@Y.+@B l ",
"@@#@$@%@&@*@=@-@;@i &.>@] ] ,@!+Y W+W+X+^ '@)@] c+!@B .@W+~@{@2 ",
"]@^@/@(@_@:@<@[@}@'@|@1@] I 2@3@4@y+y+5@l Z+6@U. +^+7@8@i 6.9@0@",
"a@b@c@d@e@f@g@h@i@j@C+B+,+&.i i o.p.i /.l C+k@,+i i l@y.i i m@0@",
"n@o@p@q@r@s@] ] U.S.t@u@i i i i i :.v@&.i :.:.i i i i i Q.}@i i ",
"w@x@y@z@ +] ] ] ] T.t@u@6.i i i l 4@A@B@C@D@E@y+i i i 6.4@8+F@G@",
"H@I@J@K@k+] g L@i /+i :.M@B.t.N@O@P@Q@Y.R@B.u@S@B.T@U@V@W@5@Y.X@",
"Y@Z@}.`@ #.#+#/+i i 2 @# @h+J@S.U. +Y@##$#0@%#&#8.i+ +*#2 :.##S@",
"=#,+-###$#;#Z.x.i 2 |@] x+:.T+Z+] Z+,+'+>#s@U.,+:.j@] ] U+,+,#C ",
"=#,+x.'#i l l@y.)#2 ] ] 1 !# +] ] )@U.U.~#E ] F+{#T.] ] )@U.U.]#",
"^#/#:.`  +(#l@Z.n.T.] *#T+>+ +D ] ] ] ] ] U._#-#:#T.6@] ] ] ] ] ",
"H@<#1 [#@#}#(.##|#A+,+1#2#3#4#k@T.] ] ] 5#S.P@8.d n.6#U.] ] D k+",
"|@] ] U.7#8#4@:.W+x.9#0#a###:.E@b#c#d#e#f#5.~@~@4@:.g#h#e#d#c#y.",
"O.D  +,+3.$#l i S@9@-#W+W+i#i y+j#k#6.i Z l#W+W+l i C m#3@l x.i@",
"x.0@i i i i y.Y@i i i 6.i i n#K@,+}@o#^ F+&.6.i H+`+p#,+q#B.,+F+",
"u@x.i i i i x.r#2 i i i /+i s#C+,+&.X X.] F+p.p.l@H+C+,+t#t#T.] ",
"Z.u@i i 0@x.u#R@8+v#w#l e+E+,+x#R.l i e E ^ o.y#z#j@A#B#i i ,+Z+",
"x.u@o#o#C#%#D#B.E###F##.,+G#H#I#i i i i {@Y d X.J#K#B#i i i l 3@",
"|@S.L#k#,+U.U.,+M#W+T@N#:.Z O#P#Q#&.i i 9+R#l#!#}#S#T#U#i i t.L#",
"] U.x.x. +] )@U+V#W#X#Y#Z#^ C `# $.$2 6.+$@$#$$$0@%$O#p.&$j@*$l@",
"] *#i@=$] ] ] ] ] ] -$;$>$,+i@,$o#'$x.u@)$!$~${$l@i@]$W@/+:.,#U.",
"f+z@^$H+k+D ] ] ] ] /$($_$>+i@:$i 2 <$x.)$!$[$}$y.i@|$e X.n.:$U."};
