/* XPM */
static char * wallwater_corner_topleft_3_xpm[] = {
"32 32 799 2",
"  	c #67723A",
". 	c #79902F",
"+ 	c #647235",
"@ 	c #6C7A36",
"# 	c #728034",
"$ 	c #58653F",
"% 	c #6A763A",
"& 	c #748133",
"* 	c #66703B",
"= 	c #4D5042",
"- 	c #515543",
"; 	c #5B6640",
"> 	c #5C7139",
", 	c #56663D",
"' 	c #687636",
") 	c #94A02A",
"! 	c #9EA925",
"~ 	c #73892F",
"{ 	c #76A020",
"] 	c #4C5E37",
"^ 	c #4F5442",
"/ 	c #6C7937",
"( 	c #8CA429",
"_ 	c #758038",
": 	c #44473D",
"< 	c #58613F",
"[ 	c #535942",
"} 	c #575D3F",
"| 	c #748234",
"1 	c #707E32",
"2 	c #748233",
"3 	c #5D6B3B",
"4 	c #677437",
"5 	c #606D3A",
"6 	c #677733",
"7 	c #638727",
"8 	c #6D8B32",
"9 	c #43453D",
"0 	c #515443",
"a 	c #667237",
"b 	c #6F7D34",
"c 	c #565C40",
"d 	c #555C42",
"e 	c #91A628",
"f 	c #85A027",
"g 	c #668D22",
"h 	c #4C543B",
"i 	c #45473D",
"j 	c #55603E",
"k 	c #64842D",
"l 	c #76892E",
"m 	c #4B4E40",
"n 	c #687632",
"o 	c #6C7936",
"p 	c #4E5142",
"q 	c #5A5F40",
"r 	c #5F683D",
"s 	c #545F41",
"t 	c #545A3F",
"u 	c #515643",
"v 	c #5F6C3A",
"w 	c #59663E",
"x 	c #4F6F33",
"y 	c #76A120",
"z 	c #779E28",
"A 	c #5D6C3E",
"B 	c #505343",
"C 	c #4E5141",
"D 	c #4F5A41",
"E 	c #4E5341",
"F 	c #43493C",
"G 	c #627539",
"H 	c #729B20",
"I 	c #96A925",
"J 	c #9FA924",
"K 	c #68793A",
"L 	c #4D5A3A",
"M 	c #456834",
"N 	c #6A971A",
"O 	c #7FA820",
"P 	c #75942E",
"Q 	c #5C693F",
"R 	c #5E673D",
"S 	c #727F36",
"T 	c #5B633E",
"U 	c #525743",
"V 	c #636F37",
"W 	c #474B3F",
"X 	c #4A4C40",
"Y 	c #5F7E31",
"Z 	c #526B36",
"` 	c #5E693A",
" .	c #4E6039",
"..	c #46503D",
"+.	c #4F5A40",
"@.	c #587734",
"#.	c #689322",
"$.	c #6F8531",
"%.	c #94A727",
"&.	c #A2AF22",
"*.	c #92A029",
"=.	c #6E8333",
"-.	c #5A822A",
";.	c #708D2A",
">.	c #687532",
",.	c #78902F",
"'.	c #5B693C",
").	c #6C7A32",
"!.	c #697732",
"~.	c #67872D",
"{.	c #6A7833",
"].	c #545842",
"^.	c #565D3C",
"/.	c #576B37",
"(.	c #6B9819",
"_.	c #5F7B31",
":.	c #7F9D2C",
"<.	c #5D673F",
"[.	c #6B7E34",
"}.	c #7C8D31",
"|.	c #86922F",
"1.	c #6E8031",
"2.	c #637137",
"3.	c #525A43",
"4.	c #575E40",
"5.	c #657B32",
"6.	c #6B8B2E",
"7.	c #7B972D",
"8.	c #83AA2D",
"9.	c #8FAD2B",
"0.	c #79932F",
"a.	c #727F33",
"b.	c #6D7134",
"c.	c #717D33",
"d.	c #52663E",
"e.	c #6A9422",
"f.	c #699519",
"g.	c #647C31",
"h.	c #7C8834",
"i.	c #9EA825",
"j.	c #76952D",
"k.	c #607E34",
"l.	c #79872F",
"m.	c #9FAD23",
"n.	c #778E30",
"o.	c #748C30",
"p.	c #879D2B",
"q.	c #839F2B",
"r.	c #88972D",
"s.	c #6A7B35",
"t.	c #5C633F",
"u.	c #50573D",
"v.	c #4F5242",
"w.	c #45483D",
"x.	c #628E20",
"y.	c #5F743D",
"z.	c #729333",
"A.	c #8CA72E",
"B.	c #87AE2C",
"C.	c #A0B327",
"D.	c #9DB027",
"E.	c #7B9A2F",
"F.	c #6A8035",
"G.	c #5F8932",
"H.	c #87B623",
"I.	c #78A825",
"J.	c #546E3C",
"K.	c #5C6440",
"L.	c #8D9631",
"M.	c #909B2E",
"N.	c #657336",
"O.	c #A6B121",
"P.	c #7A942E",
"Q.	c #7C962E",
"R.	c #748631",
"S.	c #667D30",
"T.	c #5D7C34",
"U.	c #44473E",
"V.	c #46493E",
"W.	c #575C41",
"X.	c #55762F",
"Y.	c #567C2F",
"Z.	c #566C3F",
"`.	c #546D3D",
" +	c #58753A",
".+	c #4C671D",
"++	c #517114",
"@+	c #92A825",
"#+	c #A3B827",
"$+	c #ABBE23",
"%+	c #8BAD2D",
"&+	c #85B02A",
"*+	c #567F35",
"=+	c #576F3F",
"-+	c #535C42",
";+	c #555F42",
">+	c #67733A",
",+	c #5F6C3B",
"'+	c #62713B",
")+	c #82902F",
"!+	c #739A22",
"~+	c #82A726",
"{+	c #6E8D27",
"]+	c #728033",
"^+	c #748D31",
"/+	c #689020",
"(+	c #6B7937",
"_+	c #616D36",
":+	c #5E6A39",
"<+	c #768A34",
"[+	c #80A12E",
"}+	c #78992F",
"|+	c #6C8931",
"1+	c #58773F",
"2+	c #4D6739",
"3+	c #415A2C",
"4+	c #2A4611",
"5+	c #223113",
"6+	c #456224",
"7+	c #77982F",
"8+	c #A5BB25",
"9+	c #8EB02D",
"0+	c #9BB628",
"a+	c #95AB2C",
"b+	c #67813C",
"c+	c #83912F",
"d+	c #545A42",
"e+	c #586D3C",
"f+	c #58703B",
"g+	c #6F7F35",
"h+	c #799C1D",
"i+	c #909B2B",
"j+	c #9CAC20",
"k+	c #9EAC25",
"l+	c #7C992E",
"m+	c #6B7D30",
"n+	c #6F7F2F",
"o+	c #738830",
"p+	c #6D8835",
"q+	c #739036",
"r+	c #6F8A38",
"s+	c #5A733F",
"t+	c #57703F",
"u+	c #546D37",
"v+	c #41581D",
"w+	c #1F2E11",
"x+	c #1A2311",
"y+	c #222316",
"z+	c #727D29",
"A+	c #708C25",
"B+	c #4A6326",
"C+	c #708D2C",
"D+	c #99AE21",
"E+	c #9FB422",
"F+	c #89A22A",
"G+	c #768931",
"H+	c #616D39",
"I+	c #56673D",
"J+	c #78A31E",
"K+	c #6B9220",
"L+	c #9DA925",
"M+	c #68852F",
"N+	c #6A991B",
"O+	c #688C37",
"P+	c #648439",
"Q+	c #5F7C35",
"R+	c #445F19",
"S+	c #4A621E",
"T+	c #56723C",
"U+	c #59793F",
"V+	c #57723F",
"W+	c #59773E",
"X+	c #5D6E33",
"Y+	c #3C5015",
"Z+	c #363F09",
"`+	c #1D3209",
" @	c #172D0C",
".@	c #1F2614",
"+@	c #5C6415",
"@@	c #3F4910",
"#@	c #263415",
"$@	c #2C4216",
"%@	c #3D590E",
"&@	c #4D6114",
"*@	c #53593F",
"=@	c #607133",
"-@	c #667A3A",
";@	c #626E3C",
">@	c #6F7F32",
",@	c #7E992D",
"'@	c #94A228",
")@	c #728B2E",
"!@	c #657236",
"~@	c #5D673E",
"{@	c #5A7D34",
"]@	c #618338",
"^@	c #546A38",
"/@	c #506029",
"(@	c #243E0F",
"_@	c #27470C",
":@	c #6C8C29",
"<@	c #678B36",
"[@	c #68883A",
"}@	c #5A7134",
"|@	c #2F3519",
"1@	c #39450A",
"2@	c #394F00",
"3@	c #284500",
"4@	c #293C2D",
"5@	c #3E4D2C",
"6@	c #3D4C04",
"7@	c #292E12",
"8@	c #212112",
"9@	c #3F5400",
"0@	c #2E4309",
"a@	c #1D1F14",
"b@	c #434E3B",
"c@	c #6C912B",
"d@	c #719721",
"e@	c #748432",
"f@	c #6A7B38",
"g@	c #57772F",
"h@	c #618130",
"i@	c #596241",
"j@	c #5E763E",
"k@	c #546F3D",
"l@	c #678431",
"m@	c #455617",
"n@	c #1F2813",
"o@	c #395008",
"p@	c #4E660E",
"q@	c #4F661D",
"r@	c #5E7522",
"s@	c #3E530F",
"t@	c #23330B",
"u@	c #3E5104",
"v@	c #5D886C",
"w@	c #428C9B",
"x@	c #408B9F",
"y@	c #598275",
"z@	c #4A6148",
"A@	c #3F544E",
"B@	c #406566",
"C@	c #388893",
"D@	c #202514",
"E@	c #161710",
"F@	c #494C3E",
"G@	c #7C8734",
"H@	c #7C8C30",
"I@	c #50762E",
"J@	c #51603E",
"K@	c #507034",
"L@	c #77A022",
"M@	c #799D2D",
"N@	c #657B36",
"O@	c #779631",
"P@	c #728F31",
"Q@	c #657D2E",
"R@	c #34391B",
"S@	c #303E0E",
"T@	c #415703",
"U@	c #353F09",
"V@	c #212712",
"W@	c #1B2211",
"X@	c #233D04",
"Y@	c #1F3F31",
"Z@	c #73AFAB",
"`@	c #5A9CA1",
" #	c #104057",
".#	c #0E3E58",
"+#	c #26778E",
"@#	c #398A9E",
"##	c #58A4B2",
"$#	c #5EA5AF",
"%#	c #4E8E9F",
"&#	c #4493A5",
"*#	c #3485A0",
"=#	c #657135",
"-#	c #869B2C",
";#	c #859B2B",
">#	c #516F32",
",#	c #647B31",
"'#	c #5A6341",
")#	c #698D2A",
"!#	c #657A37",
"~#	c #7FA130",
"{#	c #99B629",
"]#	c #576C2E",
"^#	c #333818",
"/#	c #3A4508",
"(#	c #3B4807",
"_#	c #222A11",
":#	c #1B1D12",
"<#	c #14150E",
"[#	c #161E0B",
"}#	c #579FAA",
"|#	c #447884",
"1#	c #07324A",
"2#	c #0E374D",
"3#	c #0F3449",
"4#	c #114055",
"5#	c #3C7183",
"6#	c #40798C",
"7#	c #407589",
"8#	c #2D5D73",
"9#	c #26556A",
"0#	c #285569",
"a#	c #7B932F",
"b#	c #6A7735",
"c#	c #5A6340",
"d#	c #5E673E",
"e#	c #7FA425",
"f#	c #687E3A",
"g#	c #595F40",
"h#	c #798D32",
"i#	c #789332",
"j#	c #708E31",
"k#	c #9BB72B",
"l#	c #4D5B2B",
"m#	c #393F14",
"n#	c #364723",
"o#	c #2D5554",
"p#	c #1E200C",
"q#	c #0F0C00",
"r#	c #185C70",
"s#	c #3188A2",
"t#	c #45889A",
"u#	c #2B667A",
"v#	c #316C80",
"w#	c #2F6575",
"x#	c #468494",
"y#	c #3F8495",
"z#	c #41879A",
"A#	c #34788D",
"B#	c #2C6F82",
"C#	c #1E5565",
"D#	c #144053",
"E#	c #113F52",
"F#	c #586441",
"G#	c #5D6640",
"H#	c #667336",
"I#	c #626F3C",
"J#	c #566241",
"K#	c #5A6540",
"L#	c #7A9130",
"M#	c #7FA428",
"N#	c #6F8E31",
"O#	c #5F7D3C",
"P#	c #658E39",
"Q#	c #4E5021",
"R#	c #345152",
"S#	c #386977",
"T#	c #3B8190",
"U#	c #2B7E90",
"V#	c #1E768E",
"W#	c #196882",
"X#	c #316E84",
"Y#	c #276885",
"Z#	c #2D758D",
"`#	c #2F7385",
" $	c #2E6A76",
".$	c #2C6D7D",
"+$	c #216577",
"@$	c #22748C",
"#$	c #2E82A1",
"$$	c #2E7D95",
"%$	c #246070",
"&$	c #1F647A",
"*$	c #1D6A85",
"=$	c #515A42",
"-$	c #656F3C",
";$	c #6B7932",
">$	c #6F8230",
",$	c #677A3B",
"'$	c #729823",
")$	c #7DAF22",
"!$	c #5C8339",
"~$	c #56733F",
"{$	c #414C2B",
"]$	c #324F59",
"^$	c #123C49",
"/$	c #1B4F5B",
"($	c #1C5A6C",
"_$	c #226F81",
":$	c #236C7D",
"<$	c #236C7E",
"[$	c #206473",
"}$	c #226675",
"|$	c #246878",
"1$	c #236575",
"2$	c #205F6D",
"3$	c #20606D",
"4$	c #226674",
"5$	c #227487",
"6$	c #227284",
"7$	c #206270",
"8$	c #494C3F",
"9$	c #585F41",
"0$	c #667435",
"a$	c #7A9030",
"b$	c #7F9E2C",
"c$	c #8BAB29",
"d$	c #61922D",
"e$	c #91AB2C",
"f$	c #859624",
"g$	c #44530D",
"h$	c #346478",
"i$	c #1E3F4C",
"j$	c #144252",
"k$	c #1A505E",
"l$	c #216271",
"m$	c #22778F",
"n$	c #217C98",
"o$	c #227A94",
"p$	c #237184",
"q$	c #236876",
"r$	c #236A7A",
"s$	c #227182",
"t$	c #226F80",
"u$	c #226676",
"v$	c #205F6C",
"w$	c #226E7F",
"x$	c #788A31",
"y$	c #616E3C",
"z$	c #709721",
"A$	c #779A23",
"B$	c #A1B328",
"C$	c #9AA829",
"D$	c #758C17",
"E$	c #566C01",
"F$	c #485000",
"G$	c #4A7F8D",
"H$	c #1D4352",
"I$	c #134053",
"J$	c #1A5261",
"K$	c #227488",
"L$	c #217A95",
"M$	c #227A95",
"N$	c #22768B",
"O$	c #236F85",
"P$	c #236F81",
"Q$	c #227386",
"R$	c #23697A",
"S$	c #227082",
"T$	c #226576",
"U$	c #6A7939",
"V$	c #62743C",
"W$	c #688E2C",
"X$	c #658734",
"Y$	c #62813C",
"Z$	c #607A2E",
"`$	c #385B06",
" %	c #304B00",
".%	c #3C6870",
"+%	c #6296A1",
"@%	c #1B3F4E",
"#%	c #134454",
"$%	c #1F6274",
"%%	c #217A96",
"&%	c #227B96",
"*%	c #236E83",
"=%	c #226170",
"-%	c #216373",
";%	c #246979",
">%	c #4A4D40",
",%	c #484B3F",
"'%	c #576340",
")%	c #515F3F",
"!%	c #749531",
"~%	c #ABBE22",
"{%	c #667B1C",
"]%	c #344F02",
"^%	c #315328",
"/%	c #5396A9",
"(%	c #3A7D93",
"_%	c #1A3B48",
":%	c #164A5A",
"<%	c #21677B",
"[%	c #217C9A",
"}%	c #227C98",
"|%	c #246A7B",
"1%	c #22768E",
"2%	c #5F6A3A",
"3%	c #637C3D",
"4%	c #6F8B39",
"5%	c #73912A",
"6%	c #839B28",
"7%	c #70751A",
"8%	c #344208",
"9%	c #346865",
"0%	c #3D7C8B",
"a%	c #28596C",
"b%	c #235263",
"c%	c #1C5461",
"d%	c #216675",
"e%	c #236E80",
"f%	c #21768E",
"g%	c #227B97",
"h%	c #207C9D",
"i%	c #22788F",
"j%	c #236878",
"k%	c #236A7B",
"l%	c #47543C",
"m%	c #496B33",
"n%	c #819B2C",
"o%	c #819B33",
"p%	c #5D7531",
"q%	c #45740D",
"r%	c #394C0C",
"s%	c #2A320A",
"t%	c #2C3202",
"u%	c #4097A8",
"v%	c #295E6F",
"w%	c #3A6B7B",
"x%	c #265D6F",
"y%	c #206372",
"z%	c #226876",
"A%	c #236B7C",
"B%	c #227792",
"C%	c #207B9B",
"D%	c #217A97",
"E%	c #226F82",
"F%	c #236C81",
"G%	c #22768C",
"H%	c #226878",
"I%	c #227992",
"J%	c #23778B",
"K%	c #227285",
"L%	c #226775",
"M%	c #456236",
"N%	c #505D39",
"O%	c #9EB027",
"P%	c #9DB227",
"Q%	c #5B7921",
"R%	c #3C5008",
"S%	c #262B10",
"T%	c #1E1B0B",
"U%	c #327381",
"V%	c #317C8D",
"W%	c #285A6C",
"X%	c #336576",
"Y%	c #184E60",
"Z%	c #216474",
"`%	c #236F80",
" &	c #21697C",
".&	c #216372",
"+&	c #236E7F",
"@&	c #236A7D",
"#&	c #227A93",
"$&	c #226D7E",
"%&	c #237084",
"&&	c #4A4E3E",
"*&	c #779734",
"=&	c #99B329",
"-&	c #607F1E",
";&	c #292F0E",
">&	c #171911",
",&	c #253330",
"'&	c #29798F",
")&	c #255568",
"!&	c #438092",
"~&	c #356B7E",
"{&	c #185D72",
"]&	c #217288",
"^&	c #22768D",
"/&	c #226D80",
"(&	c #227991",
"_&	c #207A99",
":&	c #227388",
"<&	c #206878",
"[&	c #236D7E",
"}&	c #227589",
"|&	c #4E5042",
"1&	c #68902D",
"2&	c #75A424",
"3&	c #5D7B1C",
"4&	c #294F0F",
"5&	c #191915",
"6&	c #448E9F",
"7&	c #2F677D",
"8&	c #285C72",
"9&	c #316A7E",
"0&	c #155267",
"a&	c #1E6679",
"b&	c #227489",
"c&	c #216F81",
"d&	c #227184",
"e&	c #5C633E",
"f&	c #687535",
"g&	c #5B733B",
"h&	c #82B122",
"i&	c #7CAA26",
"j&	c #546F1D",
"k&	c #3F5114",
"l&	c #3D6F62",
"m&	c #3F828C",
"n&	c #22546F",
"o&	c #28627B",
"p&	c #286378",
"q&	c #19576A",
"r&	c #20718A",
"s&	c #22778C",
"t&	c #22758B",
"u&	c #1F5E6C",
"v&	c #227890",
"w&	c #236676",
"x&	c #227183",
"y&	c #22758A",
"z&	c #226B7F",
"A&	c #62763C",
"B&	c #678D2C",
"C&	c #537235",
"D&	c #587539",
"E&	c #657F26",
"F&	c #567E5A",
"G&	c #488989",
"H&	c #346E87",
"I&	c #286075",
"J&	c #275A6D",
"K&	c #1E6071",
"L&	c #227892",
"M&	c #217D9B",
"N&	c #216C82",
"O&	c #246B7C",
"P&	c #215E6C",
"Q&	c #216977",
"R&	c #22778D",
"S&	c #6D7A36",
"T&	c #61733B",
"U&	c #707A39",
"V&	c #63743A",
"W&	c #535D3A",
"X&	c #5D783C",
"Y&	c #7C9D2F",
"Z&	c #748138",
"`&	c #33727B",
" *	c #2F6072",
".*	c #326474",
"+*	c #164C5F",
"@*	c #216375",
"#*	c #216371",
"$*	c #237A8F",
"%*	c #227588",
"&*	c #227287",
"**	c #226472",
"=*	c #23768B",
"-*	c #217A94",
";*	c #819630",
">*	c #9EAB25",
",*	c #8BA02A",
"'*	c #6C7D3A",
")*	c #7B9B30",
"!*	c #81A62D",
"~*	c #766C2E",
"{*	c #336471",
"]*	c #3C7285",
"^*	c #124356",
"/*	c #1A647C",
"(*	c #20768E",
"_*	c #227083",
":*	c #20606F",
"<*	c #22697A",
"[*	c #237A90",
"}*	c #227486",
"|*	c #226978",
"1*	c #226C7E",
"2*	c #227791",
"3*	c #96A727",
"4*	c #64733D",
"5*	c #4D5640",
"6*	c #47493E",
"7*	c #687639",
"8*	c #7FA22F",
"9*	c #688537",
"0*	c #5F5F30",
"a*	c #3B6C78",
"b*	c #3B778C",
"c*	c #1B617A",
"d*	c #1E5F70",
"e*	c #216473",
"f*	c #22697B",
"g*	c #237183",
"h*	c #226979",
"i*	c #246D81",
"j*	c #536042",
"k*	c #4F5841",
"l*	c #758632",
"m*	c #7C9832",
"n*	c #5F7E3B",
"o*	c #6D752F",
"p*	c #57838A",
"q*	c #1C5F78",
"r*	c #12495D",
"s*	c #1A5A6E",
"t*	c #226A7B",
"u*	c #206A7C",
"v*	c #1D6273",
"w*	c #217B95",
"x*	c #217C9B",
"  . + @ # $ % & * = - ; > , ' ) ! ~ { ] ^ / ( _ : : < [ } | 1 + ",
"2   3 1 4 5 6 7 8 9 0 a b c d ' e f g h i j k l m : n o p q r s ",
"b t u v w n x y z A B C D E F G H I J K L M N O P Q R b S T U V ",
"V W X Y Z n `  ...B B C E D +.@.#.$.%.&.*.=.-.;.>.,.# '.).!.~.{.",
"].^./.(._.:.a c <.[.}.|.1.).2.3.0 4.5.6.7.8.9.0.a.b.c.w d.e.f.g.",
"h.i.j.k.l.m.n.o.p.m.q.r.s.t.u.U v.w.x.x.y.z.A.B.C.D.E.F.G.H.I.J.",
"K.L.M.N.l.O.P.P.Q.R.S.T.^ U.: V.W.t.X.Y.Z.`. +.+++@+#+$+%+&+*+=+",
"-+;+>+,+'+)+!+~+{+]+^+/+(+_+D :+<+[+}+|+1+2+3+4+5+6+7+8+9+0+a+b+",
"c+'+d+e+f+g+~ h+i+&.j+k+l+m+n+o+p+q+r+s+t+u+v+w+x+y+z+A+B+C+D+E+",
"F+G+H+I+J+K+L+O.&.M+N+O+P+Q+R+S+T+U+V+W+X+Y+Z+`+ @.@+@@@#@$@%@&@",
"*@=@-@;@>@,@'@)@!@~@{@]@^@/@(@_@:@<@[@}@|@1@2@3@4@5@6@7@8@9@0@a@",
"b@c@d@P.e@f@g@{ h@i@j@k@l@m@n@o@p@q@r@s@t@u@v@w@x@y@z@A@B@C@D@E@",
"F@G@O.H@I@J@K@L@M@N@O@P@Q@R@S@T@U@V@W@X@Y@Z@`@ #.#+#@###$#%#&#*#",
"=#-#;#>#J+,#'#, )#!#~#{#]#^#/#(#_#:#<#[#}#|#1#2#3#4#5#6#7#8#9#0#",
"a#b#c#d#e#f#3.g#h#i#j#k#l#m#n#o#p#q#r#s#t#u#v#w#x#y#z#A#B#C#D#E#",
"' F#G#H#I#J#K#L#M#N#O#P#Q#R#S#T#U#V#W#X#Y#Z#`# $.$+$@$#$$$%$&$*$",
"C =$-$;$>$f@,$'$)$!$~${$]$^$/$($_$:$<$[$}$|$1$2$3$4$5$5$5$6$7$2$",
"C 8$9$0$a$b$m.c$d$e$f$g$h$i$j$k$l$m$n$o$p$q$r$s$t$|$5$5$5$u$v$w$",
"x$I#E m y$z$A$B$C$D$E$F$G$H$I$J$K$L$n$M$N$O$P$Q$5$r$R$S$6$T$u$5$",
"U$!.E m V$W$X$Y$Z$`$ %.%+%@%#%$%o$n$n$%%n$n$&%*%6$=%-%S$5$5$;%6$",
">%0 ,%'%)%!%8+~%{%]%^%/%(%_%:%<%o$[%n$n$n$n$n$}%Q$|%5$5$5$5$S$1%",
"2%u t b 3%4%5%6%7%8%9%0%a%b%c%d%e%f%g%n$n$n$h%i%j%4$5$5$5$5$j%k%",
"v l%m%n%o%p%q%r%s%t%u%v%w%x%y%z%A%;%j%B%C%D%E%F%G%e%H%I%J%K%2$L%",
"E M%N%O%P%Q%R%S%T%U%V%W%X%Y%Z%`%5$6$ &.&+&5$@&#&n$D%$&j%%&K%v$w$",
": : &&*&=&-&;&>&,&'&)&!&~&{&]&}%^&G%/&t$N$G%G%(&_&:&<&5$5$5$[&}&",
": m |&1&2&3&4&5&6&7&8&9&0&a&Q$b&G%G%S$S$g%n$n$N$5$6$5$5$5$5$c&d&",
"e&f&g&h&i&j&k&l&m&n&o&p&q&r&s&t&u&R$5$5$G%L$v&5$w&x&5$5$5$y&k%z&",
").I#A&B&C&D&E&F&G&H&I&J&K&L&M&N&R$5$5$5$6$u$d%O&P&Q&5$v&#&R&N$}%",
"S&T&U&V&W&X&Y&Z&`& *.*+*@*@&2$#*$*%*5$5$#*6$5$&*.&**s$j%**6$=*-*",
";*>*,*'*R )*!*~*{*]*^*/*(*y&_*:*<*[*v&+&6$5$5$5$}*|*L%1*2*-*v&<&",
"3*4*5*6*7*8*9*0*a*b*^*c*_&G%d&d*e*f*g*|$g%n$M$%*5$h*e*#&n$n$n$i*",
"4*j*m k*l*m*n*o*p*q*r*s*t*<$u*v*5$v&m$x&g%n$n$w*v&@$}&w*[%x*o$:$"};
