/* XPM */
static char * wallwater_reverse_corner_topright_3_xpm[] = {
"32 32 457 2",
"  	c #186778",
". 	c #167386",
"+ 	c #147589",
"@ 	c #13768C",
"# 	c #0F7B97",
"$ 	c #0D7D9B",
"% 	c #14778D",
"& 	c #0B7D9F",
"* 	c #0F7895",
"= 	c #196A7C",
"- 	c #14768A",
"; 	c #127993",
"> 	c #097DA1",
", 	c #0B7D9E",
"' 	c #157793",
") 	c #487A72",
"! 	c #546A33",
"~ 	c #496535",
"{ 	c #5B7639",
"] 	c #535B40",
"^ 	c #575D3D",
"/ 	c #73822D",
"( 	c #6F7E2C",
"_ 	c #637231",
": 	c #16697B",
"< 	c #0E7C9A",
"[ 	c #0E7D9A",
"} 	c #097EA0",
"| 	c #13738A",
"1 	c #157184",
"2 	c #117B97",
"3 	c #0F7C98",
"4 	c #0B7C9C",
"5 	c #13778E",
"6 	c #117791",
"7 	c #29809C",
"8 	c #436451",
"9 	c #4E6734",
"0 	c #6C8D29",
"a 	c #6D7F30",
"b 	c #4E5141",
"c 	c #595F3F",
"d 	c #5E683A",
"e 	c #535F3F",
"f 	c #156070",
"g 	c #167185",
"h 	c #0C7D9D",
"i 	c #0F7B99",
"j 	c #15687C",
"k 	c #0A7DA0",
"l 	c #147387",
"m 	c #166272",
"n 	c #2C6D7F",
"o 	c #447249",
"p 	c #6C981B",
"q 	c #5F8136",
"r 	c #627F36",
"s 	c #70872C",
"t 	c #717F2F",
"u 	c #5B633C",
"v 	c #525742",
"w 	c #636F33",
"x 	c #146B81",
"y 	c #186A7B",
"z 	c #186576",
"A 	c #186C80",
"B 	c #13778D",
"C 	c #15758B",
"D 	c #166778",
"E 	c #117A96",
"F 	c #146E81",
"G 	c #146C81",
"H 	c #196878",
"I 	c #177186",
"J 	c #14768B",
"K 	c #15697A",
"L 	c #127891",
"M 	c #157082",
"N 	c #247280",
"O 	c #32523C",
"P 	c #4F6519",
"Q 	c #759C20",
"R 	c #73942A",
"S 	c #608135",
"T 	c #6D842B",
"U 	c #68772D",
"V 	c #658725",
"W 	c #69782E",
"X 	c #21788C",
"Y 	c #196C7D",
"Z 	c #196574",
"` 	c #196C7E",
" .	c #186E81",
"..	c #185F6D",
"+.	c #165E6C",
"@.	c #147087",
"#.	c #117A95",
"$.	c #177C96",
"%.	c #1D7689",
"&.	c #196776",
"*.	c #186A7A",
"=.	c #186F81",
"-.	c #19687A",
";.	c #175E6C",
">.	c #13758F",
",.	c #12778D",
"'.	c #176F85",
").	c #255054",
"!.	c #2D3B05",
"~.	c #476910",
"{.	c #698A23",
"].	c #5B7E36",
"^.	c #557B37",
"/.	c #679914",
"(.	c #659605",
"_.	c #637C2B",
":.	c #2684A0",
"<.	c #16758A",
"[.	c #177084",
"}.	c #157387",
"|.	c #17697B",
"1.	c #196170",
"2.	c #166D7F",
"3.	c #157083",
"4.	c #176D81",
"5.	c #1E758C",
"6.	c #1D7F9B",
"7.	c #167285",
"8.	c #186374",
"9.	c #196474",
"0.	c #157185",
"a.	c #1A758D",
"b.	c #205560",
"c.	c #202A00",
"d.	c #2A3D00",
"e.	c #50760F",
"f.	c #5B7D24",
"g.	c #5A8C26",
"h.	c #83B80B",
"i.	c #73A317",
"j.	c #50613C",
"k.	c #0E7D9C",
"l.	c #1A6A7B",
"m.	c #176677",
"n.	c #0F7C9A",
"o.	c #0E7D9B",
"p.	c #127790",
"q.	c #087DA2",
"r.	c #1A697A",
"s.	c #1A6B7D",
"t.	c #156A7B",
"u.	c #107B97",
"v.	c #176777",
"w.	c #166C83",
"x.	c #0D5D75",
"y.	c #1A2008",
"z.	c #2A320E",
"A.	c #455000",
"B.	c #5A7700",
"C.	c #628510",
"D.	c #7FA61D",
"E.	c #548030",
"F.	c #576E3D",
"G.	c #167087",
"H.	c #196475",
"I.	c #186879",
"J.	c #14788E",
"K.	c #137A91",
"L.	c #167086",
"M.	c #176E82",
"N.	c #186372",
"O.	c #196A7D",
"P.	c #117C95",
"Q.	c #0F7D99",
"R.	c #147388",
"S.	c #0F647B",
"T.	c #09718F",
"U.	c #1F7D98",
"V.	c #35656E",
"W.	c #1D2301",
"X.	c #3F4D00",
"Y.	c #426802",
"Z.	c #889C0F",
"`.	c #92AC1C",
" +	c #658237",
".+	c #14758B",
"++	c #117D98",
"@+	c #19697A",
"#+	c #185F6E",
"$+	c #0C7D9E",
"%+	c #0B7D9D",
"&+	c #13728D",
"*+	c #176C7F",
"=+	c #147991",
"-+	c #176473",
";+	c #176373",
">+	c #107997",
",+	c #0C7D9C",
"'+	c #0F7B9A",
")+	c #186A81",
"!+	c #155E70",
"~+	c #104C5E",
"{+	c #0B4C64",
"]+	c #3797B0",
"^+	c #3C5343",
"/+	c #252E00",
"(+	c #213104",
"_+	c #446402",
":+	c #90A807",
"<+	c #A2BA10",
"[+	c #107C98",
"}+	c #147488",
"|+	c #176979",
"1+	c #166B7C",
"2+	c #117790",
"3+	c #14788D",
"4+	c #107B96",
"5+	c #157386",
"6+	c #186675",
"7+	c #12778F",
"8+	c #196D81",
"9+	c #166E81",
"0+	c #106D82",
"a+	c #0E6378",
"b+	c #1B5D74",
"c+	c #258AA6",
"d+	c #435C4B",
"e+	c #253220",
"f+	c #10160A",
"g+	c #0D2306",
"h+	c #385607",
"i+	c #5F6D23",
"j+	c #127890",
"k+	c #127A95",
"l+	c #196978",
"m+	c #1A6979",
"n+	c #196070",
"o+	c #14758A",
"p+	c #117994",
"q+	c #186776",
"r+	c #1A6777",
"s+	c #195F6E",
"t+	c #137387",
"u+	c #116D82",
"v+	c #16677C",
"w+	c #33849B",
"x+	c #2C8DA6",
"y+	c #2F7485",
"z+	c #0A4A5B",
"A+	c #26452B",
"B+	c #1F3606",
"C+	c #2A261A",
"D+	c #127991",
"E+	c #0D7C9A",
"F+	c #157287",
"G+	c #186373",
"H+	c #196877",
"I+	c #127A94",
"J+	c #107A95",
"K+	c #13768D",
"L+	c #0E7894",
"M+	c #116C80",
"N+	c #266B7E",
"O+	c #2D6F84",
"P+	c #347E96",
"Q+	c #065874",
"R+	c #167A91",
"S+	c #13190C",
"T+	c #13150F",
"U+	c #127992",
"V+	c #137791",
"W+	c #196A7A",
"X+	c #1A6879",
"Y+	c #167388",
"Z+	c #186676",
"`+	c #196A7B",
" @	c #157488",
".@	c #0F7B98",
"+@	c #087B9D",
"@@	c #097798",
"#@	c #13627A",
"$@	c #3A7B8D",
"%@	c #367A91",
"&@	c #316D87",
"*@	c #1C5D77",
"=@	c #318D9E",
"-@	c #28869F",
";@	c #167083",
">@	c #176474",
",@	c #136B7E",
"'@	c #267387",
")@	c #2D7388",
"!@	c #3A7A8F",
"~@	c #366B81",
"{@	c #37677C",
"]@	c #196B7E",
"^@	c #1B697A",
"/@	c #176F84",
"(@	c #14748A",
"_@	c #12768D",
":@	c #10758C",
"<@	c #177288",
"[@	c #155363",
"}@	c #114856",
"|@	c #0E4250",
"1@	c #177185",
"2@	c #107B99",
"3@	c #127793",
"4@	c #1B6A7B",
"5@	c #0F7A99",
"6@	c #127B94",
"7@	c #156E83",
"8@	c #165F6C",
"9@	c #186777",
"0@	c #186B7E",
"a@	c #127892",
"b@	c #097EA1",
"c@	c #127792",
"d@	c #155B6C",
"e@	c #135D71",
"f@	c #135C6C",
"g@	c #157286",
"h@	c #166F81",
"i@	c #196E82",
"j@	c #156778",
"k@	c #176675",
"l@	c #1A6B7C",
"m@	c #186D7F",
"n@	c #186D81",
"o@	c #156575",
"p@	c #196777",
"q@	c #1A6677",
"r@	c #17606F",
"s@	c #17616F",
"t@	c #176372",
"u@	c #14768C",
"v@	c #157389",
"w@	c #186473",
"x@	c #185E6D",
"y@	c #147287",
"z@	c #147790",
"A@	c #176F81",
"B@	c #17606E",
"C@	c #167286",
"D@	c #196B7C",
"E@	c #157284",
"F@	c #177082",
"G@	c #16606E",
"H@	c #137991",
"I@	c #187083",
"J@	c #167184",
"K@	c #186678",
"L@	c #14768F",
"M@	c #186C7F",
"N@	c #0E7B98",
"O@	c #196272",
"P@	c #176475",
"Q@	c #127990",
"R@	c #166E82",
"S@	c #137691",
"T@	c #0D7D9C",
"U@	c #176C80",
"V@	c #0F7D9B",
"W@	c #12738D",
"X@	c #186F82",
"Y@	c #12778E",
"Z@	c #147389",
"`@	c #16606F",
" #	c #176271",
".#	c #107B98",
"+#	c #157489",
"@#	c #156C7F",
"##	c #165E6B",
"$#	c #176879",
"%#	c #0F7994",
"&#	c #0E7A98",
"*#	c #127895",
"=#	c #176A7B",
"-#	c #176C7D",
";#	c #137185",
">#	c #18606F",
",#	c #186978",
"'#	c #196B7D",
")#	c #14748B",
"!#	c #0B7C9D",
"~#	c #0D7A99",
"{#	c #166574",
"]#	c #117894",
"^#	c #097C9E",
"/#	c #13778F",
"(#	c #186877",
"_#	c #186C7D",
":#	c #186271",
"<#	c #196879",
"[#	c #156A7E",
"}#	c #186474",
"|#	c #087EA2",
"1#	c #176E80",
"2#	c #117996",
"3#	c #176575",
"4#	c #14758C",
"5#	c #0F7C9B",
"6#	c #156E82",
"7#	c #157388",
"8#	c #13758C",
"9#	c #176F83",
"0#	c #167186",
"a#	c #156576",
"b#	c #15768A",
"c#	c #0F7A98",
"d#	c #13788E",
"e#	c #165F6E",
"f#	c #186A7C",
"g#	c #1B6979",
"h#	c #13768E",
"i#	c #117795",
"j#	c #0D7E9D",
"k#	c #196677",
"l#	c #0C7E9E",
"m#	c #156D84",
"n#	c #166575",
"o#	c #156F82",
"p#	c #166270",
"q#	c #14778C",
"r#	c #176978",
"s#	c #137B91",
"t#	c #137890",
"u#	c #147288",
"v#	c #15697D",
"w#	c #13798E",
"x#	c #127B95",
"y#	c #177183",
"z#	c #147487",
"A#	c #166273",
"B#	c #176A7C",
"C#	c #137B92",
"D#	c #117892",
"E#	c #105668",
"F#	c #0C7C9C",
"G#	c #156F83",
"H#	c #176576",
"I#	c #166677",
"J#	c #137793",
"K#	c #0E718C",
"L#	c #116F87",
"M#	c #15697C",
"N#	c #176A7D",
"O#	c #176E85",
"P#	c #105464",
"Q#	c #196E81",
"R#	c #167084",
"S#	c #127995",
"T#	c #0D718C",
"U#	c #136A7D",
"V#	c #196D7F",
"W#	c #176676",
"X#	c #157188",
"  . + + @ # $ $ % & * = + + - - $ $ # ; > , ' ) ! ~ { ] ^ / ( _ ",
": + + ; < [ $ } + @ | 1 + + 2 3 $ $ 4 + 5 6 7 8 9 ~ 0 a b c d e ",
"f g + # $ # h i + + j j . + $ 3 3 k ; + l m n o p q r s t u v w ",
"x y z A B + C D @ E F G H z I J - I K ; L M N O P Q R S T U V W ",
"X Y Z ` +  ...+.@.#.$.%.&.*.=.+ -.;.m >.2 ,.'.).!.~.{.].^./.(._.",
":.<.[.}.+ |.1.2.3.4.5.6.7.4.+ + 8.9.M 0.A l a.b.c.d.e.f.g.h.i.j.",
"> k.+ ` l.m.L n.o.L p.q.E + r.s.t.u.n.n.B v.w.x.y.z.A.B.C.D.E.F.",
"5 G.}.H.I.J.o.$ $ o.K.5 L.M.N.O.P.$ $ $ Q.R.S.T.U.V.W.X.Y.Z.`. +",
"D .+L ++@+#+| $+%+$ &+*+5 u.=+-+;+>+, ,+'+)+!+~+{+]+^+/+(+_+:+<+",
"- [+$ o.}+|+1+2+2+I ` 3+o.$ 4+5+6+R.6 7+8+9+0+a+b+c+d+e+f+g+h+i+",
"j+< $ h k+*.l+m+n+@+o+p+$ $ h C q+m+r+s+=.@ t+u+v+w+x+y+z+A+B+C+",
"D+E+$ h F+G+l+m+H+7.I+J+$ $ E+I.z m+m+r+K+n.# L+M+N+O+P+Q+R+S+T+",
"U+$+$ 3 V+  W+5+5+X+Y+i %+o.u.L.Z+Y + =.`+ @.@+@@@#@$@%@&@*@=@-@",
"7+6 5 - + + [.}.+ 1 }.2+2+5 + + }+4.+ + ;@ @+ =.>@,@ .'@)@!@~@{@",
"]@^@+ + + + + ` /@- }.l.` + + + + + l.(@+ + }+>@|. @_@:@<@[@}@|@",
"]@^@=.+ + + . W+1@2@3@l.4@5++ + + =.W+=+5@6@7@8@9@0@a@b@c@d@e@f@",
"}.g@7.^@M 3.h@i@j@k@` M.+ ` l@M 3.m@n@o@p@r.q@r@s@q++ + + . t@r@",
"+ ; u@v@w@x@y@n.Q.B ` + ; z@A@B@G+L o.u.C@l+D@E@F@^@+ + +   G@h@",
"K+H@$ n.7.7.L $ < j+@ ; U+$ 4+` o+.@$ .@5 G.I@}++ D@= J@. K@  + ",
"% < $ $ 7.L@o.$ E+< u.; $ $ # M@u.$ $ N@o.o.3 '.. O@P@J@+ + 4@5+",
"u.$ o.Q@R@S@T@,+$ $ < n.$ [ o+U@u.h $ $ $ $ $ V@ @s.+ + + + J@W@",
"X@Y@Z@`@ #` 5 .#$ $ p++#5 @###$#X@2+n.$ $ n.%#T@&#*#= =#-#1+$#;#",
"M >#,#v.,#'#s.r+)#!#~#{#N.,#v.l+` 4@@+]#^#/#o.$ $ D+O@(#4@_#s.a@",
"l@X+l+r.'#}+ @7@:#= . X+<#m+m+F@+ 5+[#}# .; |#h u.5 0.D@5++ 1#`+",
"+ =.+ + 2#I+5 (@3#B B + =.+ 4#5#/#5 6#M 5 7#7. @+ + + + 4.C@+ + ",
"; + M.+ 7#7+5 - y E < @ }.}.}+4#7+5 J@J@5#8#^@7.+ + + + 7.9#; + ",
"; . 0#K.5 a#m.. + b#c#B [.H@d#K+e#f#+ + 5 G.l.` 7. @+ + g#r+h#i#",
"z H 5 j#i#k#+ + + + = z _#E l#m#f#+ + + . . }.+ ^@k#n#n#v@5 o#l@",
"p#` A }#B@q#q#+ + v.r#r#` A r@w@s#- + + -+5+t#H@u.h@:#1 n.$ E  .",
"u## ; . v#G+w#x#. y#z#L # B g A#B#C#; =.. + H@[ $ 5 ` ; $ $ D#E ",
"E#F#4+g@G#H#I#}.^@J#K#L#!#5 g@M#3#N#7.^@n.U+n.$ $ 5 O#o.$ $ $ $ ",
"P#=.Q#R#7#o+% E 7.S#T#U#V#A g@.++ ; a@7.n.D+n.n.j+W#X#u.} $ $ $ "};
