/* XPM */
static char * wallwater_reverse_corner_bottomright_3_xpm[] = {
"32 32 399 2",
"  	c #186778",
". 	c #167386",
"+ 	c #147589",
"@ 	c #13768C",
"# 	c #0F7B97",
"$ 	c #0D7D9B",
"% 	c #14778D",
"& 	c #0B7D9F",
"* 	c #0F7895",
"= 	c #196A7C",
"- 	c #14768A",
"; 	c #127993",
"> 	c #097EA1",
", 	c #156C82",
"' 	c #186F81",
") 	c #13778E",
"! 	c #13788E",
"~ 	c #0F7B99",
"{ 	c #0A7D9F",
"] 	c #16697B",
"^ 	c #0E7C9A",
"/ 	c #0E7D9A",
"( 	c #097EA0",
"_ 	c #13738A",
": 	c #157184",
"< 	c #117B97",
"[ 	c #0F7C98",
"} 	c #0B7C9C",
"| 	c #12778F",
"1 	c #156A7D",
"2 	c #0F7C9A",
"3 	c #0B7D9D",
"4 	c #117790",
"5 	c #156070",
"6 	c #167185",
"7 	c #0C7D9D",
"8 	c #15687C",
"9 	c #0A7DA0",
"0 	c #147387",
"a 	c #156E83",
"b 	c #157488",
"c 	c #12778E",
"d 	c #0D7E9C",
"e 	c #146F84",
"f 	c #146B81",
"g 	c #186A7B",
"h 	c #186576",
"i 	c #186C80",
"j 	c #13778D",
"k 	c #15758B",
"l 	c #166778",
"m 	c #117A96",
"n 	c #146E81",
"o 	c #146C81",
"p 	c #196878",
"q 	c #177186",
"r 	c #14768B",
"s 	c #15697A",
"t 	c #127891",
"u 	c #146B80",
"v 	c #166C80",
"w 	c #186676",
"x 	c #186879",
"y 	c #14758C",
"z 	c #186C7F",
"A 	c #147184",
"B 	c #147287",
"C 	c #21788C",
"D 	c #196C7D",
"E 	c #196574",
"F 	c #196C7E",
"G 	c #186E81",
"H 	c #185F6D",
"I 	c #165E6C",
"J 	c #147087",
"K 	c #117A95",
"L 	c #177C96",
"M 	c #1D7689",
"N 	c #196776",
"O 	c #186A7A",
"P 	c #19687A",
"Q 	c #175E6C",
"R 	c #166272",
"S 	c #13758F",
"T 	c #1F7A90",
"U 	c #1A7284",
"V 	c #196373",
"W 	c #186C7D",
"X 	c #157386",
"Y 	c #196272",
"Z 	c #15697D",
"` 	c #127894",
" .	c #117C98",
"..	c #2684A0",
"+.	c #16758A",
"@.	c #177084",
"#.	c #157387",
"$.	c #17697B",
"%.	c #196170",
"&.	c #166D7F",
"*.	c #157083",
"=.	c #176D81",
"-.	c #1E758C",
";.	c #1D7F9B",
">.	c #167285",
",.	c #186374",
"'.	c #196474",
").	c #157082",
"!.	c #157185",
"~.	c #176C80",
"{.	c #26809B",
"].	c #177A94",
"^.	c #176E82",
"/.	c #186070",
"(.	c #19697A",
"_.	c #167084",
":.	c #186D82",
"<.	c #097DA1",
"[.	c #0E7D9C",
"}.	c #1A6A7B",
"|.	c #176677",
"1.	c #0E7D9B",
"2.	c #127790",
"3.	c #087DA2",
"4.	c #1A697A",
"5.	c #1A6B7D",
"6.	c #156A7B",
"7.	c #107B97",
"8.	c #0C7B9B",
"9.	c #1A6979",
"0.	c #147288",
"a.	c #14758A",
"b.	c #167087",
"c.	c #196475",
"d.	c #14788E",
"e.	c #137A91",
"f.	c #167086",
"g.	c #186372",
"h.	c #196A7D",
"i.	c #117C95",
"j.	c #0F7D99",
"k.	c #13788F",
"l.	c #14748B",
"m.	c #157388",
"n.	c #18697C",
"o.	c #186575",
"p.	c #187084",
"q.	c #14758B",
"r.	c #117D98",
"s.	c #185F6E",
"t.	c #0C7D9E",
"u.	c #13728D",
"v.	c #176C7F",
"w.	c #147991",
"x.	c #176473",
"y.	c #176373",
"z.	c #107997",
"A.	c #0B7D9E",
"B.	c #0C7D9C",
"C.	c #0F7B9A",
"D.	c #15697E",
"E.	c #167186",
"F.	c #107D9A",
"G.	c #187185",
"H.	c #17606E",
"I.	c #166B7D",
"J.	c #0D7C9D",
"K.	c #0D7D9C",
"L.	c #117897",
"M.	c #107C98",
"N.	c #147488",
"O.	c #176979",
"P.	c #166B7C",
"Q.	c #14788D",
"R.	c #107B96",
"S.	c #186675",
"T.	c #147388",
"U.	c #117791",
"V.	c #196D81",
"W.	c #166F81",
"X.	c #1A6A7C",
"Y.	c #127890",
"Z.	c #127A95",
"`.	c #196978",
" +	c #196070",
".+	c #117994",
"++	c #186776",
"@+	c #1A6777",
"#+	c #195F6E",
"$+	c #0F7B98",
"%+	c #0F7C9B",
"&+	c #176F81",
"*+	c #186877",
"=+	c #127991",
"-+	c #0D7C9A",
";+	c #157287",
">+	c #186373",
",+	c #196877",
"'+	c #127A94",
")+	c #107A95",
"!+	c #137891",
"~+	c #0E7B98",
"{+	c #117992",
"]+	c #186878",
"^+	c #127992",
"/+	c #137791",
"(+	c #196A7A",
"_+	c #1A6879",
":+	c #167388",
"<+	c #196A7B",
"[+	c #14768C",
"}+	c #0D7D9D",
"|+	c #186A7D",
"1+	c #1A6B7C",
"2+	c #176F82",
"3+	c #167083",
"4+	c #147487",
"5+	c #167184",
"6+	c #196B7E",
"7+	c #1B697A",
"8+	c #176F84",
"9+	c #14748A",
"0+	c #13768D",
"a+	c #177185",
"b+	c #107B99",
"c+	c #127793",
"d+	c #1B6A7B",
"e+	c #196B7D",
"f+	c #0F7A99",
"g+	c #157286",
"h+	c #196E82",
"i+	c #156778",
"j+	c #176675",
"k+	c #186D7F",
"l+	c #186D81",
"m+	c #156575",
"n+	c #196777",
"o+	c #176E80",
"p+	c #156F82",
"q+	c #196D7F",
"r+	c #16697C",
"s+	c #166575",
"t+	c #157389",
"u+	c #186473",
"v+	c #185E6D",
"w+	c #147790",
"x+	c #14768F",
"y+	c #186979",
"z+	c #137991",
"A+	c #186D83",
"B+	c #127990",
"C+	c #166E82",
"D+	c #137691",
"E+	c #107C97",
"F+	c #166F86",
"G+	c #186F82",
"H+	c #147389",
"I+	c #16606F",
"J+	c #176271",
"K+	c #107B98",
"L+	c #157489",
"M+	c #156C7F",
"N+	c #165E6B",
"O+	c #176879",
"P+	c #186B7D",
"Q+	c #147489",
"R+	c #18606F",
"S+	c #186978",
"T+	c #176777",
"U+	c #0B7C9D",
"V+	c #0D7A99",
"W+	c #166574",
"X+	c #117894",
"Y+	c #0A7C9E",
"Z+	c #0E7B9A",
"`+	c #176D83",
" @	c #18697A",
".@	c #137286",
"+@	c #175F6F",
"@@	c #186271",
"#@	c #196879",
"$@	c #177082",
"%@	c #156A7E",
"&@	c #186474",
"*@	c #186B7F",
"=@	c #117B96",
"-@	c #166E80",
";@	c #145A6D",
">@	c #145769",
",@	c #155465",
"'@	c #117996",
")@	c #176575",
"!@	c #13778F",
"~@	c #156E82",
"{@	c #0C7B9C",
"]@	c #136173",
"^@	c #146A78",
"/@	c #247072",
"(@	c #618842",
"_@	c #4A752F",
":@	c #546D3A",
"<@	c #14667A",
"[@	c #346B6A",
"}@	c #4F7844",
"|@	c #71A03B",
"1@	c #6E9129",
"2@	c #536E3B",
"3@	c #4A6536",
"4@	c #156576",
"5@	c #15768A",
"6@	c #0F7A98",
"7@	c #165F6E",
"8@	c #186A7C",
"9@	c #185E6F",
"0@	c #125767",
"a@	c #729824",
"b@	c #64862E",
"c@	c #80AD1F",
"d@	c #789C28",
"e@	c #485F37",
"f@	c #4A5B39",
"g@	c #0D7E9D",
"h@	c #117795",
"i@	c #196677",
"j@	c #0C7E9E",
"k@	c #156D84",
"l@	c #166677",
"m@	c #124958",
"n@	c #1D625C",
"o@	c #6D902A",
"p@	c #67872E",
"q@	c #80A921",
"r@	c #697F34",
"s@	c #474D3C",
"t@	c #5D6937",
"u@	c #166270",
"v@	c #14778C",
"w@	c #176978",
"x@	c #17606F",
"y@	c #137B91",
"z@	c #126D83",
"A@	c #1E585B",
"B@	c #5E8137",
"C@	c #456131",
"D@	c #69872E",
"E@	c #6D872C",
"F@	c #4A742A",
"G@	c #46513B",
"H@	c #5D6837",
"I@	c #13798E",
"J@	c #127B95",
"K@	c #177183",
"L@	c #166273",
"M@	c #176A7C",
"N@	c #137B92",
"O@	c #137488",
"P@	c #0F6B7F",
"Q@	c #5D7D42",
"R@	c #5A7637",
"S@	c #536D3A",
"T@	c #6F8430",
"U@	c #647432",
"V@	c #608B1E",
"W@	c #5A8027",
"X@	c #575E3F",
"Y@	c #105668",
"Z@	c #0C7C9C",
"`@	c #156F83",
" #	c #176576",
".#	c #137793",
"+#	c #0E718C",
"@#	c #116F87",
"##	c #15697C",
"$#	c #176A7D",
"%#	c #0F7994",
"&#	c #307076",
"*#	c #638729",
"=#	c #5B7C3A",
"-#	c #5B7338",
";#	c #6A7A2C",
">#	c #5E6A37",
",#	c #4C6437",
"'#	c #6D8F1C",
")#	c #9EAA11",
"!#	c #105464",
"~#	c #196E81",
"{#	c #127995",
"]#	c #0D718C",
"^#	c #136A7D",
"/#	c #127892",
"(#	c #0A7692",
"_#	c #58794A",
":#	c #527733",
"<#	c #54713A",
"[#	c #5B7139",
"}#	c #515841",
"|#	c #606D36",
"1#	c #9FAC11",
"2#	c #8F9C1F",
"  . + + @ # $ $ % & * = + + - - $ $ # ; > , ' + + @ ) $ $ ! ~ { ",
"] + + ; ^ / $ ( + @ _ : + + < [ $ $ } + | 1 + + @ 2 [ $ 3 4 - 4 ",
"5 6 + # $ # 7 ~ + + 8 8 . + $ [ [ 9 ; + 0 5 a b c d # ^ & @ + e ",
"f g h i j + k l @ m n o p h q r - q s ; t u v w x y + @ z A m B ",
"C D E F + G H I J K L M N O ' + P Q R S < T U V W . X Y I Z `  .",
"..+.@.#.+ $.%.&.*.=.-.;.>.=.+ + ,.'.).!.~.{.].>.^.+ : /.(.)._.:.",
"<.[.+ F }.|.t 2 1.t 2.3.m + 4.5.6.7.2 2 @ 8.9 ) >.9.g 0.2 1.7.a.",
") b.#.c.x d.1.$ $ 1.e.) f.^.g.h.i.$ $ $ j.k.l.m.n.o.p.j.$ $ $ i.",
"l q.t r.(.s._ t.3 $ u.v.) 7.w.x.y.z.A.B.C.D.E.) F.G.H.I.J.A.K.L.",
"- M.$ 1.N.O.P.4 4 q F Q.1.$ R.X S.T.U.| V.>.e.$ $ c W.S.c U.y X.",
"Y.^ $ 7 Z.O `.9. +(.a..+$ $ 7 k ++9.@+#+' j $+$ B.%+&+*+4.V Y . ",
"=+-+$ 7 ;+>+`.9.,+>.'+)+$ $ -+x h 9.9.@+j !+~+$ B.{+Y *+9.]+= ; ",
"^+t.$ [ /+  (+X X _+:+~ 3 1.7.f.w D + ' <+[+}+B.^ m |+p ' + 1+2+",
"| U.) - + + @.#.+ : #.4 4 ) + + N.=.+ + 3+[+U.| @ + + . ^.+ 4+5+",
"6+7++ + + + + F 8+- #.}.F + + + + + }.9++ ^.7+>.+ + + + >.6+0++ ",
"6+7+' + + + . (+a+b+c+}.d+X + + + ' (+w.~ b.7+5.+ + + + e+D r.f+",
"#.g+>.7+).*.W.h+i+j+F ^.+ F 1+).*.k+l+m+n+>.^.+ 7+o+).p+q+r+s+_+",
"+ ; [+t+u+v+B 2 j.j F + ; w+&+H.>+t 1.7.>.>.j % x+y+Q I.7./ ; F ",
"0+z+$ 2 >.>.t $ ^ Y.@ ; ^+$ R.F a.$+$ $+) a.'+[ 1.) F 0+$ $ .+) ",
"% ^ $ $ >.x+1.$ -+^ 7.; $ $ # z 7.$ $ ~+1.! 7.$ $ c A+2 $ $ ~+1.",
"7.$ 1.B+C+D+K.B.$ $ ^ 2 $ / a.~.7.7 $ $ $ 7.1.1.E+!.F+2 3 $ $ $ ",
"G+c H+I+J+F ) K+$ $ .+L+) M+N+O+G+4 2 $ $ $+9 t P+u+Q+@ 4 c :.:.",
").R+S+T+S+e+5.@+l.U+V+W+g.S+T+`.F d+(.X+Y+Z+_.`+) G+ @Z.Q..@+@x.",
"1+_+`.4.e+N.b a @@= . _+#@9.9.$@+ X %@&@' + *@=@1.C.-@  D.;@>@,@",
"+ ' + + '@'+) 9+)@j j + ' + y %+!@) ~@).) c ) '+{@t+]@^@/@(@_@:@",
"; + ^.+ m.| ) - g m ^ @ #.#.N.y | ) 5+5+2 $ 1.) N.<@[@}@|@1@2@3@",
"; . E.e.) 4@|.. + 5@6@j @.z+! 0+7@8@+ + ) $+; N.9@0@a@b@c@d@e@f@",
"h p ) g@h@i@+ + + + = h W m j@k@8@+ + + .   l@n.m@n@o@p@q@r@s@t@",
"u@F i &@H.v@v@+ + T+w@w@F i x@u+y@- + + x.X + z@A@B@C@D@E@F@G@H@",
"0.# ; . Z >+I@J@. K@4+t # j 6 L@M@N@; ' . + O@P@Q@R@S@T@U@V@W@X@",
"Y@Z@R.g+`@ #l@#.7+.#+#@#U+) g+##)@$#>.7+2 $ %#&#*#=#-#;#>#,#'#)#",
"!#' ~#_.m.a.% m >.{#]#^#q+i g+q.+ ; /#>.2 $ (#_#:#<#[#;#}#|#1#2#"};
