/* XPM */
static char * wallwater_border_right_3_xpm[] = {
"32 32 643 2",
"  	c #167285",
". 	c #127892",
"+ 	c #147690",
"@ 	c #166473",
"# 	c #186373",
"$ 	c #127A94",
"% 	c #0D7D9C",
"& 	c #0D7D9B",
"* 	c #0E7C9A",
"= 	c #14778D",
"- 	c #147589",
"; 	c #176E82",
"> 	c #196C7E",
", 	c #1A6B7C",
"' 	c #126577",
") 	c #1F677C",
"! 	c #19637A",
"~ 	c #0E5C73",
"{ 	c #0B546A",
"] 	c #16546A",
"^ 	c #2F6C7E",
"/ 	c #596B13",
"( 	c #68792F",
"_ 	c #64872B",
": 	c #649E15",
"< 	c #61931C",
"[ 	c #464C3D",
"} 	c #5F6939",
"| 	c #6F7E2C",
"1 	c #627133",
"2 	c #545A3D",
"3 	c #186E80",
"4 	c #167286",
"5 	c #19697B",
"6 	c #165E6C",
"7 	c #166576",
"8 	c #117893",
"9 	c #0C7E9D",
"0 	c #0F7A98",
"a 	c #127993",
"b 	c #147790",
"c 	c #166F82",
"d 	c #136376",
"e 	c #156A81",
"f 	c #21677C",
"g 	c #0D566B",
"h 	c #084963",
"i 	c #155A71",
"j 	c #335F5E",
"k 	c #414916",
"l 	c #484B39",
"m 	c #48533C",
"n 	c #547939",
"o 	c #52822C",
"p 	c #5E6E36",
"q 	c #697730",
"r 	c #5A623C",
"s 	c #484D3D",
"t 	c #4C4F40",
"u 	c #12788F",
"v 	c #13778E",
"w 	c #157285",
"x 	c #196978",
"y 	c #196B7C",
"z 	c #196372",
"A 	c #1A6B7D",
"B 	c #127992",
"C 	c #117B96",
"D 	c #186C7F",
"E 	c #0E6C85",
"F 	c #1A6A81",
"G 	c #0E596E",
"H 	c #08455F",
"I 	c #0D5871",
"J 	c #1F515E",
"K 	c #1C1E13",
"L 	c #3E3F2D",
"M 	c #5E7D37",
"N 	c #57743B",
"O 	c #56773A",
"P 	c #5A7836",
"Q 	c #525F3F",
"R 	c #494C3F",
"S 	c #5D663A",
"T 	c #74882A",
"U 	c #117A96",
"V 	c #17758A",
"W 	c #167386",
"X 	c #147488",
"Y 	c #176D81",
"Z 	c #137A90",
"` 	c #0F7B97",
" .	c #0C718D",
"..	c #0D7089",
"+.	c #0B5F76",
"@.	c #0B495C",
"#.	c #1A566F",
"$.	c #4695AA",
"%.	c #171A10",
"&.	c #232916",
"*.	c #5B7020",
"=.	c #6C872C",
"-.	c #557B37",
";.	c #4B832B",
">.	c #56643E",
",.	c #677137",
"'.	c #73822C",
").	c #6F832A",
"!.	c #0D7E9C",
"~.	c #137A92",
"{.	c #1B697A",
"].	c #15758C",
"^.	c #107B97",
"/.	c #127891",
"(.	c #157488",
"_.	c #15748A",
":.	c #0F7C9A",
"<.	c #0E7D9A",
"[.	c #14758A",
"}.	c #176C80",
"|.	c #0F7995",
"1.	c #0C7998",
"2.	c #0B718E",
"3.	c #074E69",
"4.	c #1D586B",
"5.	c #5BB4B5",
"6.	c #242D26",
"7.	c #19220F",
"8.	c #2F3910",
"9.	c #41590C",
"0.	c #617721",
"a.	c #587438",
"b.	c #607537",
"c.	c #69782C",
"d.	c #667436",
"e.	c #4E5340",
"f.	c #186E82",
"g.	c #196373",
"h.	c #157286",
"i.	c #1B6A7B",
"j.	c #156C7F",
"k.	c #165E6B",
"l.	c #176879",
"m.	c #186F82",
"n.	c #117790",
"o.	c #0D738F",
"p.	c #07526E",
"q.	c #07475E",
"r.	c #46949B",
"s.	c #4C909E",
"t.	c #233A25",
"u.	c #1B2110",
"v.	c #404E08",
"w.	c #9BAA11",
"x.	c #799729",
"y.	c #688630",
"z.	c #5C6D3A",
"A.	c #4C563E",
"B.	c #18697A",
"C.	c #196776",
"D.	c #13768D",
"E.	c #14768A",
"F.	c #157083",
"G.	c #17606F",
"H.	c #166575",
"I.	c #186372",
"J.	c #186978",
"K.	c #176777",
"L.	c #166475",
"M.	c #0B5671",
"N.	c #094F68",
"O.	c #195C77",
"P.	c #4695A9",
"Q.	c #2E91AC",
"R.	c #212924",
"S.	c #1F360C",
"T.	c #627F20",
"U.	c #8BB21B",
"V.	c #6A8A2F",
"W.	c #4B5C3A",
"X.	c #4F543D",
"Y.	c #6E7C30",
"Z.	c #117892",
"`.	c #0F7C98",
" +	c #117B97",
".+	c #167185",
"++	c #177188",
"@+	c #157386",
"#+	c #1A6879",
"$+	c #196879",
"%+	c #1A6979",
"&+	c #177082",
"*+	c #15697D",
"=+	c #115064",
"-+	c #0F4F64",
";+	c #104F65",
">+	c #316B82",
",+	c #217995",
"'+	c #408291",
")+	c #2B4A09",
"!+	c #3E5425",
"~+	c #79A524",
"{+	c #75942B",
"]+	c #649122",
"^+	c #5C8225",
"/+	c #55623A",
"(+	c #167387",
"_+	c #176F81",
":+	c #157183",
"<+	c #175F6D",
"[+	c #176575",
"}+	c #186A7B",
"|+	c #186F81",
"1+	c #14758C",
"2+	c #0F7C9B",
"3+	c #13778F",
"4+	c #166E82",
"5+	c #136579",
"6+	c #0C556D",
"7+	c #094760",
"8+	c #27677D",
"9+	c #3D829A",
"0+	c #4E9EAF",
"a+	c #394737",
"b+	c #303E11",
"c+	c #617B26",
"d+	c #76912B",
"e+	c #6A9621",
"f+	c #4A6139",
"g+	c #4F5241",
"h+	c #196A7D",
"i+	c #117992",
"j+	c #0C7F9D",
"k+	c #0F7B9A",
"l+	c #166E80",
"m+	c #0E7B9A",
"n+	c #0A7C9E",
"o+	c #13768C",
"p+	c #157387",
"q+	c #12778F",
"r+	c #167184",
"s+	c #157184",
"t+	c #0D6C87",
"u+	c #08536E",
"v+	c #18546C",
"w+	c #3C8095",
"x+	c #4CA1AF",
"y+	c #537967",
"z+	c #3D5D20",
"A+	c #3F5B24",
"B+	c #7B8F21",
"C+	c #6C7E2E",
"D+	c #45483C",
"E+	c #196B7E",
"F+	c #196473",
"G+	c #176373",
"H+	c #166776",
"I+	c #057EA4",
"J+	c #0A7DA0",
"K+	c #13778D",
"L+	c #177084",
"M+	c #137991",
"N+	c #13788E",
"O+	c #165F6E",
"P+	c #186A7C",
"Q+	c #13748B",
"R+	c #0C5D79",
"S+	c #0A4C64",
"T+	c #357C8D",
"U+	c #4DA0A4",
"V+	c #4F735C",
"W+	c #60812C",
"X+	c #6A8433",
"Y+	c #80AA1F",
"Z+	c #758929",
"`+	c #44473C",
" @	c #46493D",
".@	c #186776",
"+@	c #186777",
"@@	c #0F7B98",
"#@	c #0A7DA1",
"$@	c #147389",
"%@	c #186575",
"&@	c #186C7D",
"*@	c #0C7E9E",
"=@	c #156D84",
"-@	c #135566",
";@	c #0F4B5A",
">@	c #4E8D8B",
",@	c #619771",
"'@	c #61912B",
")@	c #527B2E",
"!@	c #658531",
"~@	c #7FA622",
"{@	c #677435",
"]@	c #5D6837",
"^@	c #166372",
"/@	c #186677",
"(@	c #147489",
"_@	c #176476",
":@	c #176979",
"<@	c #166675",
"[@	c #176978",
"}@	c #186C80",
"|@	c #186473",
"1@	c #137B91",
"2@	c #166271",
"3@	c #12677C",
"4@	c #0B596C",
"5@	c #547D43",
"6@	c #779B58",
"7@	c #4F6D37",
"8@	c #4C6737",
"9@	c #6A892F",
"0@	c #6D8B2C",
"a@	c #4A742A",
"b@	c #46513B",
"c@	c #166C7F",
"d@	c #156E81",
"e@	c #157287",
"f@	c #156F84",
"g@	c #16606E",
"h@	c #17616F",
"i@	c #1A6777",
"j@	c #1A697A",
"k@	c #176A7A",
"l@	c #166273",
"m@	c #176A7C",
"n@	c #137B92",
"o@	c #136F82",
"p@	c #0D657B",
"q@	c #0A5A6F",
"r@	c #5D834E",
"s@	c #90B65D",
"t@	c #5D7A3A",
"u@	c #53703B",
"v@	c #6F8630",
"w@	c #647432",
"x@	c #608B1E",
"y@	c #5A8027",
"z@	c #575E3F",
"A@	c #156A7C",
"B@	c #12778E",
"C@	c #196170",
"D@	c #186778",
"E@	c #196574",
"F@	c #17697A",
"G@	c #0B7C9D",
"H@	c #15697C",
"I@	c #176A7D",
"J@	c #0D7896",
"K@	c #076B89",
"L@	c #0F6382",
"M@	c #377D7E",
"N@	c #729152",
"O@	c #618237",
"P@	c #5E7A37",
"Q@	c #6C842B",
"R@	c #5E6A37",
"S@	c #4C6437",
"T@	c #6D8F1C",
"U@	c #9EAA11",
"V@	c #196A7B",
"W@	c #1A6A7B",
"X@	c #14748A",
"Y@	c #196D7F",
"Z@	c #14758B",
"`@	c #0E7997",
" #	c #096F8D",
".#	c #186481",
"+#	c #2D7A8D",
"@#	c #4E6C38",
"##	c #54723A",
"$#	c #5C7A38",
"%#	c #6F9029",
"&#	c #515841",
"*#	c #606D36",
"=#	c #9FAC11",
"-#	c #8F9C1F",
";#	c #196A7C",
">#	c #15758B",
",#	c #127991",
"'#	c #166F83",
")#	c #1A6C7D",
"!#	c #097C9F",
"~#	c #097393",
"{#	c #1B6F88",
"]#	c #3A777A",
"^#	c #3F5E2D",
"/#	c #496535",
"(#	c #5C7B37",
"_#	c #56703C",
":#	c #575D3D",
"<#	c #73822D",
"[#	c #637231",
"}#	c #196576",
"|#	c #14768F",
"1#	c #176473",
"2#	c #0B7C9C",
"3#	c #12768E",
"4#	c #0E708A",
"5#	c #1A778F",
"6#	c #36695B",
"7#	c #485F27",
"8#	c #6B8929",
"9#	c #6C7A31",
"0#	c #4E5141",
"a#	c #595F3F",
"b#	c #5E683A",
"c#	c #535F3F",
"d#	c #175E6C",
"e#	c #196A7A",
"f#	c #0E7D9B",
"g#	c #127990",
"h#	c #185E6D",
"i#	c #16697D",
"j#	c #147387",
"k#	c #145C6D",
"l#	c #247381",
"m#	c #37705E",
"n#	c #456C13",
"o#	c #5F7E34",
"p#	c #628036",
"q#	c #70872C",
"r#	c #717F2F",
"s#	c #5B633C",
"t#	c #525742",
"u#	c #636F33",
"v#	c #166D7F",
"w#	c #18687A",
"x#	c #146D82",
"y#	c #196878",
"z#	c #186576",
"A#	c #177186",
"B#	c #14768B",
"C#	c #15697A",
"D#	c #11677B",
"E#	c #2B7686",
"F#	c #437875",
"G#	c #2C4303",
"H#	c #54750F",
"I#	c #708E28",
"J#	c #608235",
"K#	c #6E872B",
"L#	c #68772D",
"M#	c #658725",
"N#	c #69782E",
"O#	c #117995",
"P#	c #137894",
"Q#	c #186A7A",
"R#	c #19687A",
"S#	c #166272",
"T#	c #13758F",
"U#	c #107A96",
"V#	c #106F86",
"W#	c #17697E",
"X#	c #439FB1",
"Y#	c #304622",
"Z#	c #315700",
"`#	c #647A1B",
" $	c #5D8037",
".$	c #547737",
"+$	c #669414",
"@$	c #659605",
"#$	c #637C2B",
"$$	c #1A6373",
"%$	c #196475",
"&$	c #107998",
"*$	c #107996",
"=$	c #186374",
"-$	c #196474",
";$	c #157082",
">$	c #157185",
",$	c #136D81",
"'$	c #115F74",
")$	c #268A99",
"!$	c #506F4B",
"~$	c #436B1E",
"{$	c #50740D",
"]$	c #68882B",
"^$	c #5B8A2A",
"/$	c #7FAC0C",
"($	c #709D16",
"_$	c #50603C",
":$	c #087DA1",
"<$	c #0B7D9D",
"[$	c #0C7D9E",
"}$	c #167084",
"|$	c #196E80",
"1$	c #077EA2",
"2$	c #087EA2",
"3$	c #156A7B",
"4$	c #135D71",
"5$	c #297990",
"6$	c #5CAAAE",
"7$	c #515F1F",
"8$	c #617C05",
"9$	c #9FB30A",
"0$	c #86A11F",
"a$	c #7DA21B",
"b$	c #4E6734",
"c$	c #515442",
"d$	c #0D7D9D",
"e$	c #067EA3",
"f$	c #117993",
"g$	c #166677",
"h$	c #176676",
"i$	c #177187",
"j$	c #167086",
"k$	c #117C95",
"l$	c #0F7D99",
"m$	c #106A7F",
"n$	c #0A5971",
"o$	c #459CB4",
"p$	c #365F61",
"q$	c #958D20",
"r$	c #9FB80E",
"s$	c #89AE1C",
"t$	c #96AA14",
"u$	c #909D1F",
"v$	c #5F6A3B",
"w$	c #157589",
"x$	c #137793",
"y$	c #147287",
"z$	c #186574",
"A$	c #176E80",
"B$	c #147991",
"C$	c #107997",
"D$	c #0B7D9E",
"E$	c #0C7D9C",
"F$	c #176C82",
"G$	c #156577",
"H$	c #185666",
"I$	c #0F627B",
"J$	c #547F5F",
"K$	c #87A41D",
"L$	c #8CAF1D",
"M$	c #668330",
"N$	c #6E8B29",
"O$	c #97A615",
"P$	c #9EAE0E",
"Q$	c #18606F",
"R$	c #14788C",
"S$	c #107B96",
"T$	c #186675",
"U$	c #147388",
"V$	c #117791",
"W$	c #196D81",
"X$	c #127185",
"Y$	c #17667B",
"Z$	c #1C7791",
"`$	c #6C832F",
" %	c #9BB911",
".%	c #789A26",
"+%	c #50623E",
"@%	c #436930",
"#%	c #608F16",
"$%	c #748F24",
"%%	c #117994",
"&%	c #0C7D9D",
"*%	c #195F6E",
"=%	c #276E7E",
"-%	c #117084",
";%	c #186476",
">%	c #2D7480",
",%	c #637E2B",
"'%	c #7CA425",
")%	c #608137",
"!%	c #47513C",
"~%	c #759F1C",
"{%	c #5A8026",
"]%	c #4E5041",
"^%	c #107A95",
"/%	c #0D7C9A",
"(%	c #186879",
"_%	c #177893",
":%	c #0F748F",
"<%	c #276D7F",
"[%	c #708E2E",
"}%	c #6B8C2D",
"|%	c #55673E",
"1%	c #525D41",
"2%	c #567830",
"3%	c #4B553D",
"4%	c #14768C",
"5%	c #107A98",
"6%	c #156B7D",
"7%	c #186B7C",
"8%	c #14788E",
"9%	c #0F7B99",
"0%	c #186676",
"a%	c #196C7D",
"b%	c #317686",
"c%	c #0F5465",
"d%	c #4E806C",
"e%	c #506B39",
"f%	c #516C3A",
"g%	c #648536",
"h%	c #788A2A",
"i%	c #7D9F20",
"j%	c #778C29",
"k%	c #6B7932",
"l%	c #515742",
"m%	c #177083",
"n%	c #156F82",
"o%	c #15778D",
"p%	c #115D6E",
"q%	c #276878",
"r%	c #38616B",
"s%	c #647E32",
"t%	c #4B6736",
"u%	c #6A8832",
"v%	c #7FA621",
"w%	c #87A31C",
"x%	c #72862E",
"y%	c #5D683C",
"z%	c #565F3E",
"A%	c #59623E",
"B%	c #137389",
"C%	c #105466",
"D%	c #2C6273",
"E%	c #40717B",
"F%	c #5F7336",
"G%	c #648235",
"H%	c #77972A",
"I%	c #718830",
"J%	c #58633C",
"K%	c #4B4E3F",
"L%	c #545A41",
"M%	c #71842F",
"N%	c #127894",
"O%	c #196979",
"P%	c #12748C",
"Q%	c #114959",
"R%	c #216F89",
"S%	c #439099",
"T%	c #7AA01F",
"U%	c #6A8E2A",
"V%	c #66931C",
"W%	c #515540",
"X%	c #45473C",
"Y%	c #677532",
"Z%	c #778A2A",
"  . + @ # $ % & * = - ; - > , ' ) ! ~ { ] ^ / ( _ : < [ } | 1 2 ",
"  3 4 5 6 7 8 9 0 ; - - a b c d e f g h i j k l m n o p q r s t ",
"- ; u v w x y z A   - a B & C D E F G H I J K L M N O P Q R S T ",
"U C u v   V - W X Y Z a & & ` D  ...+.@.#.$.%.&.*.=.-.;.>.,.'.).",
"!.~.{.A > ].^./.(.A _.:.& <.[.}.|.1.2.3.4.5.6.7.8.9.0.a.b.c.d.e.",
"f.g.  X - h.> _.(.A i._.v j.k.l.m.n.o.p.q.r.s.t.u.v.w.x.y.z.[ A.",
"B.C.- D.E.E.F.G.8 . - H.I.J.K.x > i.L.M.N.O.P.Q.R.S.T.U.V.W.X.Y.",
"(.  D.Z.`. +.+z ++v @+#+$+%+%+&+- @+*+=+-+;+>+,+'+)+!+~+{+]+^+/+",
"(+_+:.& & ^.:+<+[+}+- - |+- 1+2+3+v 4+5+6+7+8+9+0+a+b+c+d+e+f+g+",
"E.h+i+j+k+m.A l+m+n+^.o+p+p+X 1+q+v r+s+t+u+v+w+x+y+z+A+B+C+g+D+",
":./.E+F+G.G+H+m+I+I+J+K+L+M+N+D.O+P+- - Q+R+S+T+U+V+W+X+Y+Z+`+ @",
"& :.  x #+.@+@@@I+#@$@%@&@U *@=@P+- - - w -@;@>@,@'@)@!@~@{@ @]@",
"/.^@/@W (@_@:@  F.<@O+[@> }@G.|@1@E.- - 2@3@4@5@6@7@8@9@0@a@b@]@",
"%@c@d@e@f@g@h@; i@j@k@/.` K+.+l@m@n@a |+o@p@q@r@s@t@u@v@w@x@y@z@",
"A@B@K+> C@D@E@_.^.v F@. G@v h.H@[+I@  {.J@K@L@M@N@O@P@Q@R@S@T@U@",
"v 2+= > V@  W@X@& :.X X Y@}@h.Z@- a .   `@ #.#+#@###$#%#&#*#=#-#",
"- - - ;#>#,#h.8 . '#I.)#- - E.E.:.& C a !#~#{#]#^#/#(#_#:#<#| [#",
"; - f@G.}#>#- a |#1#+@w - -  +`.& & 2#- 3#4#5#6#7#/#8#9#0#a#b#c#",
"F.d#z D@e#_.:.& f#g#h#i#W - & `.`.J+a - j#k#l#m#n#o#p#q#r#s#t#u#",
", v#w   _.:.& & f#g#w#x#y#z#A#B#E.A#C#a n.D#E#F#G#H#I#J#K#L#M#N#",
"v ^. +E.- O#0 P#W - X   C.Q#|+- R#d#S#T#U#V#W#X#Y#Z#`# $.$+$@$#$",
"f#& &  +- -   $$%$8 &$*$  Y - - =$-$;$>$}@,$'$)$!$~${$]$^$/$($_$",
":$<$<$[$}$p+- - |$. 1$2$U - j@A 3$^.:.:.o+L.4$5$6$7$8$9$0$a$b$c$",
"d$I+e$f$g$- - -   h$i$v j$; I.h+k$& & & l$j#m$n$o$p$q$r$s$t$u$v$",
"C@w$x$y$z$A$- - X X P+}.v ^.B$1#G+C$D$E$* F$G$H$I$J$K$L$M$N$O$P$",
"-$Q$%+i@F.  > &@F@X - R$f#& S$@+T$U$V$q+W$&+X$Y$Z$`$ %.%+%@%#%$%",
"@+> - o+B@v s+C@$@- [.%%& & &%>#.@%+i@*%|+=%-%;%>%,%'%)%!%~%{%]%",
"- - U * & ,#s+C@- - E.^%& & /%(%z#%+%+i@K+_%:%<%!$[%}%|%1%2%3%`+",
"+ (.4%O#5%U#6%T$7%. 8%9%<$f#^.j$0%a%- |+B.b%c%d%e%f%g%h%i%j%k%l%",
"$+  X   > m%n%.+o%X v n.n.v - - X Y - - p%q%r%s%t%u%v%w%x%y%z%A%",
"Y@}@D.|+> D.:.& & :.X@W@> - - - - - W@B%C%D%E%F%G%H%I%J%K%`+L%M%",
"9%`.U - X@:.& & & & N%W@i.@+- - - |+O%P%Q%R%S%T%U%V%W%X%`+K%Y%Z%"};
