/* XPM */
static char * wallwater_corner_topright_3_xpm[] = {
"32 32 807 2",
"  	c #67723A",
". 	c #79902F",
"+ 	c #647235",
"@ 	c #6C7A36",
"# 	c #728034",
"$ 	c #58653F",
"% 	c #6A763A",
"& 	c #727F31",
"* 	c #5F6836",
"= 	c #4A4D3E",
"- 	c #515543",
"; 	c #5B6640",
"> 	c #5C7139",
", 	c #56663D",
"' 	c #687636",
") 	c #94A02A",
"! 	c #9EA925",
"~ 	c #73892F",
"{ 	c #76A020",
"] 	c #4C5E37",
"^ 	c #4F5442",
"/ 	c #6C7937",
"( 	c #8CA429",
"_ 	c #758038",
": 	c #44473D",
"< 	c #58613F",
"[ 	c #535942",
"} 	c #575D3F",
"| 	c #748234",
"1 	c #707E32",
"2 	c #748233",
"3 	c #5D6B3B",
"4 	c #677437",
"5 	c #606D3A",
"6 	c #677733",
"7 	c #638727",
"8 	c #6E8B32",
"9 	c #43453D",
"0 	c #515443",
"a 	c #667237",
"b 	c #6F7D34",
"c 	c #565C40",
"d 	c #555C42",
"e 	c #91A628",
"f 	c #85A027",
"g 	c #668D22",
"h 	c #4C543B",
"i 	c #45473D",
"j 	c #55603E",
"k 	c #64842D",
"l 	c #76892E",
"m 	c #4B4E40",
"n 	c #687632",
"o 	c #6C7936",
"p 	c #4E5142",
"q 	c #5A5F40",
"r 	c #5F683D",
"s 	c #545F41",
"t 	c #545A3F",
"u 	c #515643",
"v 	c #5F6C3A",
"w 	c #59663E",
"x 	c #4F6F33",
"y 	c #76A120",
"z 	c #789E2A",
"A 	c #5D6C3E",
"B 	c #505343",
"C 	c #4E5141",
"D 	c #4F5A41",
"E 	c #4E5341",
"F 	c #43493C",
"G 	c #627539",
"H 	c #729B20",
"I 	c #96A925",
"J 	c #9FA924",
"K 	c #68793A",
"L 	c #4D5A3A",
"M 	c #456834",
"N 	c #6A971A",
"O 	c #7FA820",
"P 	c #75942E",
"Q 	c #5C693F",
"R 	c #5E673D",
"S 	c #727F36",
"T 	c #5B633E",
"U 	c #525743",
"V 	c #636F37",
"W 	c #474B3F",
"X 	c #4A4C40",
"Y 	c #5F7E31",
"Z 	c #526B36",
"` 	c #5E693A",
" .	c #4E6039",
"..	c #46503D",
"+.	c #4F5A40",
"@.	c #587734",
"#.	c #689322",
"$.	c #6F8531",
"%.	c #94A727",
"&.	c #A2AF22",
"*.	c #92A029",
"=.	c #6E8333",
"-.	c #5A822A",
";.	c #708D2A",
">.	c #687532",
",.	c #78902F",
"'.	c #5B693C",
").	c #6C7A32",
"!.	c #697732",
"~.	c #67872D",
"{.	c #6A7833",
"].	c #545842",
"^.	c #565D3C",
"/.	c #576B37",
"(.	c #6B9819",
"_.	c #5F7B31",
":.	c #7F9D2C",
"<.	c #555B40",
"[.	c #5D673F",
"}.	c #6B7E34",
"|.	c #7C8D31",
"1.	c #86922F",
"2.	c #6E8031",
"3.	c #637137",
"4.	c #525A43",
"5.	c #575E40",
"6.	c #657B32",
"7.	c #6B8B2E",
"8.	c #7B972D",
"9.	c #8A9F2B",
"0.	c #758630",
"a.	c #6B7832",
"b.	c #51643E",
"c.	c #699321",
"d.	c #689519",
"e.	c #647C31",
"f.	c #7C8934",
"g.	c #9EA825",
"h.	c #76952D",
"i.	c #607E34",
"j.	c #7A8B2F",
"k.	c #A1B725",
"l.	c #789230",
"m.	c #789A30",
"n.	c #89A52D",
"o.	c #9FAD23",
"p.	c #839F2B",
"q.	c #88972D",
"r.	c #6A7B35",
"s.	c #5C633F",
"t.	c #50573D",
"u.	c #4F5242",
"v.	c #45483D",
"w.	c #628E20",
"x.	c #5D6B3D",
"y.	c #6D8033",
"z.	c #7C962E",
"A.	c #79942E",
"B.	c #788F2F",
"C.	c #677536",
"D.	c #5A7A33",
"E.	c #82AB21",
"F.	c #739C24",
"G.	c #50603E",
"H.	c #60743E",
"I.	c #8D9B2F",
"J.	c #919F2D",
"K.	c #688234",
"L.	c #7E992E",
"M.	c #A9BE23",
"N.	c #7DA32C",
"O.	c #67891F",
"P.	c #607D16",
"Q.	c #5E6F21",
"R.	c #657A2D",
"S.	c #5F7F34",
"T.	c #4F5541",
"U.	c #44473E",
"V.	c #46493E",
"W.	c #575C41",
"X.	c #54752F",
"Y.	c #55762F",
"Z.	c #515642",
"`.	c #535D41",
" +	c #616C3A",
".+	c #769033",
"++	c #93A029",
"@+	c #A0AA24",
"#+	c #A8B220",
"$+	c #879D2C",
"%+	c #7FA129",
"&+	c #4F6738",
"*+	c #59763E",
"=+	c #60773D",
"-+	c #798B38",
";+	c #638238",
">+	c #688839",
",+	c #87A230",
"'+	c #669617",
")+	c #4E7C03",
"!+	c #3A6303",
"~+	c #384409",
"{+	c #576326",
"]+	c #6C9C20",
"^+	c #6E8336",
"/+	c #616D36",
"(+	c #5E6A3A",
"_+	c #748534",
":+	c #7D982E",
"<+	c #748C2F",
"[+	c #667532",
"}+	c #525C42",
"|+	c #47493E",
"1+	c #474A3F",
"2+	c #4B5040",
"3+	c #57623F",
"4+	c #748530",
"5+	c #A1AF23",
"6+	c #88A12A",
"7+	c #97A926",
"8+	c #919C2B",
"9+	c #606A3E",
"0+	c #7D942A",
"a+	c #50681E",
"b+	c #465A1F",
"c+	c #486C28",
"d+	c #5C8136",
"e+	c #6B892D",
"f+	c #496B0C",
"g+	c #436B00",
"h+	c #4E5705",
"i+	c #5B6600",
"j+	c #637113",
"k+	c #9AAF27",
"l+	c #7FA42E",
"m+	c #6D8330",
"n+	c #738233",
"o+	c #738133",
"p+	c #667337",
"q+	c #6E7B37",
"r+	c #6A753A",
"s+	c #5E673E",
"t+	c #4B4F40",
"u+	c #87972D",
"v+	c #637037",
"w+	c #6F8A30",
"x+	c #98A526",
"y+	c #5B680D",
"z+	c #3C4F07",
"A+	c #2C3D0B",
"B+	c #2D4E0C",
"C+	c #547F0B",
"D+	c #446509",
"E+	c #596601",
"F+	c #5F6800",
"G+	c #314606",
"H+	c #506C0D",
"I+	c #698A37",
"J+	c #618538",
"K+	c #5C8138",
"L+	c #657B3B",
"M+	c #5B683D",
"N+	c #545C43",
"O+	c #576241",
"P+	c #566B40",
"Q+	c #556641",
"R+	c #707D33",
"S+	c #575D40",
"T+	c #4F5841",
"U+	c #9AAB25",
"V+	c #4F5B40",
"W+	c #638E22",
"X+	c #768E2D",
"Y+	c #202511",
"Z+	c #293509",
"`+	c #2C3C0E",
" @	c #29330F",
".@	c #343E07",
"+@	c #3F5304",
"@@	c #515C03",
"#@	c #374906",
"$@	c #2E370B",
"%@	c #282F11",
"&@	c #445814",
"*@	c #5F7835",
"=@	c #4E6837",
"-@	c #5C763A",
";@	c #556D3E",
">@	c #546D37",
",@	c #66832D",
"'@	c #566B2F",
")@	c #637C36",
"!@	c #5D7F3E",
"~@	c #5F7D3E",
"{@	c #778E34",
"]@	c #76992D",
"^@	c #5C8726",
"/@	c #485E3A",
"(@	c #6B7738",
"_@	c #7B922F",
":@	c #5C673F",
"<@	c #47513D",
"[@	c #789E29",
"}@	c #5C7F2D",
"|@	c #4E5042",
"1@	c #121A0E",
"2@	c #2E4804",
"3@	c #304B01",
"4@	c #364604",
"5@	c #333E08",
"6@	c #303C0E",
"7@	c #243808",
"8@	c #395701",
"9@	c #2B430A",
"0@	c #252B13",
"a@	c #242A13",
"b@	c #2B361C",
"c@	c #5D7A28",
"d@	c #6D8C30",
"e@	c #58753F",
"f@	c #749632",
"g@	c #527416",
"h@	c #385D04",
"i@	c #5B7812",
"j@	c #6F9F25",
"k@	c #5E8635",
"l@	c #82A82F",
"m@	c #7FA72C",
"n@	c #59713A",
"o@	c #484E3F",
"p@	c #6B7937",
"q@	c #535D43",
"r@	c #587735",
"s@	c #4B553F",
"t@	c #4A98AE",
"u@	c #4897A4",
"v@	c #4C6F5A",
"w@	c #345F5B",
"x@	c #396C69",
"y@	c #3A676B",
"z@	c #22595B",
"A@	c #568B68",
"B@	c #67B2B0",
"C@	c #305B5A",
"D@	c #364406",
"E@	c #354007",
"F@	c #353D0E",
"G@	c #485D2B",
"H@	c #5D782F",
"I@	c #5F711B",
"J@	c #323B10",
"K@	c #272E13",
"L@	c #2D3511",
"M@	c #5A7F15",
"N@	c #4A7B2D",
"O@	c #8BA41E",
"P@	c #7A9E29",
"Q@	c #5F753C",
"R@	c #47533B",
"S@	c #4D5141",
"T@	c #606E3E",
"U@	c #788532",
"V@	c #7F9E2C",
"W@	c #798B31",
"X@	c #515743",
"Y@	c #3E6E80",
"Z@	c #457A8A",
"`@	c #3B7784",
" #	c #19596A",
".#	c #376E76",
"+#	c #346B79",
"@#	c #38768B",
"##	c #2B6974",
"$#	c #1F5768",
"%#	c #3A8791",
"&#	c #384806",
"*#	c #4F5A02",
"=#	c #374806",
"-#	c #323B0D",
";#	c #3B440A",
">#	c #3A440A",
",#	c #242A15",
"'#	c #222315",
")#	c #232614",
"!#	c #3C480C",
"~#	c #445A10",
"{#	c #6C900D",
"]#	c #556824",
"^#	c #526A39",
"/#	c #4C613B",
"(#	c #67743A",
"_#	c #7D992D",
":#	c #89A22A",
"<#	c #738635",
"[#	c #5D683F",
"}#	c #565F40",
"|#	c #596241",
"1#	c #204D61",
"2#	c #36687C",
"3#	c #366D80",
"4#	c #2A5A6D",
"5#	c #235265",
"6#	c #134E65",
"7#	c #1D516B",
"8#	c #346880",
"9#	c #3C7187",
"0#	c #4C8898",
"a#	c #48939D",
"b#	c #3D665D",
"c#	c #505800",
"d#	c #485600",
"e#	c #394300",
"f#	c #28403E",
"g#	c #2B565D",
"h#	c #255360",
"i#	c #202008",
"j#	c #2E3601",
"k#	c #516000",
"l#	c #56580F",
"m#	c #475730",
"n#	c #627C3C",
"o#	c #668139",
"p#	c #789232",
"q#	c #738636",
"r#	c #59643E",
"s#	c #545A42",
"t#	c #728435",
"u#	c #1C6884",
"v#	c #1B6782",
"w#	c #1B6882",
"x#	c #286F82",
"y#	c #296F84",
"z#	c #1C6C88",
"A#	c #428CA2",
"B#	c #41889E",
"C#	c #3F839A",
"D#	c #3A7991",
"E#	c #468498",
"F#	c #4992A2",
"G#	c #519AA2",
"H#	c #3F8991",
"I#	c #3A8792",
"J#	c #2C7385",
"K#	c #2A7387",
"L#	c #2B7990",
"M#	c #2F8097",
"N#	c #316A7D",
"O#	c #4D6C63",
"P#	c #414A00",
"Q#	c #647327",
"R#	c #81A62E",
"S#	c #6C8D32",
"T#	c #6D9C27",
"U#	c #55673F",
"V#	c #45493D",
"W#	c #687536",
"X#	c #788A32",
"Y#	c #227183",
"Z#	c #22778F",
"`#	c #22758D",
" $	c #206371",
".$	c #216271",
"+$	c #227991",
"@$	c #217C99",
"#$	c #217C98",
"$$	c #217B97",
"%$	c #23768B",
"&$	c #227487",
"*$	c #236D80",
"=$	c #246B7C",
"-$	c #236A7A",
";$	c #1E6475",
">$	c #28667A",
",$	c #226278",
"'$	c #195B71",
")$	c #175468",
"!$	c #1D5368",
"~$	c #356B7C",
"{$	c #5B6A1B",
"]$	c #697934",
"^$	c #668632",
"/$	c #689D23",
"($	c #649226",
"_$	c #464C3E",
":$	c #60693C",
"<$	c #236D7E",
"[$	c #227184",
"}$	c #236879",
"|$	c #1F5D6A",
"1$	c #206474",
"2$	c #227790",
"3$	c #217D9A",
"4$	c #217996",
"5$	c #227890",
"6$	c #23768E",
"7$	c #226E80",
"8$	c #1E6274",
"9$	c #21697F",
"0$	c #29667A",
"a$	c #185669",
"b$	c #134961",
"c$	c #1D596F",
"d$	c #375F5D",
"e$	c #424919",
"f$	c #484B3A",
"g$	c #49533E",
"h$	c #57793D",
"i$	c #558232",
"j$	c #5F6E39",
"k$	c #6A7735",
"l$	c #5A623E",
"m$	c #484D3F",
"n$	c #4C4F41",
"o$	c #22778D",
"p$	c #22768C",
"q$	c #236876",
"r$	c #226270",
"s$	c #246A7B",
"t$	c #237183",
"u$	c #227A93",
"v$	c #226B7D",
"w$	c #1D6B83",
"x$	c #24697F",
"y$	c #19596C",
"z$	c #12455D",
"A$	c #19576F",
"B$	c #24515C",
"C$	c #1C1E13",
"D$	c #3E3F2E",
"E$	c #607D3B",
"F$	c #59743E",
"G$	c #58763E",
"H$	c #5B773A",
"I$	c #535F41",
"J$	c #494C40",
"K$	c #5D663C",
"L$	c #768731",
"M$	c #227993",
"N$	c #247488",
"O$	c #227284",
"P$	c #227386",
"Q$	c #236C7F",
"R$	c #23798E",
"S$	c #217A94",
"T$	c #236B7D",
"U$	c #1E708A",
"V$	c #1E6F87",
"W$	c #195F74",
"X$	c #14495A",
"Y$	c #21566D",
"Z$	c #4D94A8",
"`$	c #171A11",
" %	c #232917",
".%	c #5C7026",
"+%	c #6E8633",
"@%	c #577A3C",
"#%	c #4F8231",
"$%	c #576440",
"%%	c #68713A",
"&%	c #718331",
"*%	c #217D99",
"=%	c #237990",
"-%	c #246878",
";%	c #236B7C",
">%	c #23748A",
",%	c #227A94",
"'%	c #22778E",
")%	c #227388",
"!%	c #217C97",
"~%	c #227488",
"{%	c #226B7E",
"]%	c #217892",
"^%	c #207895",
"/%	c #1D708B",
"(%	c #134E67",
"_%	c #235769",
":%	c #62B3B4",
"<%	c #242D27",
"[%	c #192210",
"}%	c #303913",
"|%	c #425813",
"1%	c #627628",
"2%	c #5A743C",
"3%	c #61743B",
"4%	c #6A7832",
"5%	c #226271",
"6%	c #246979",
"7%	c #216B7D",
"8%	c #1F5D69",
"9%	c #216777",
"0%	c #236E80",
"a%	c #21768E",
"b%	c #1F728C",
"c%	c #15526C",
"d%	c #12475C",
"e%	c #4C9399",
"f%	c #528F9C",
"g%	c #243A26",
"h%	c #1C2111",
"i%	c #414E0F",
"j%	c #9CA924",
"k%	c #7B9632",
"l%	c #6A8636",
"m%	c #5D6D3D",
"n%	c #474C3E",
"o%	c #4C5640",
"p%	c #226878",
"q%	c #226674",
"r%	c #22758A",
"s%	c #227588",
"t%	c #226F81",
"u%	c #205F6D",
"v%	c #206473",
"w%	c #216270",
"x%	c #226876",
"y%	c #216675",
"z%	c #206373",
"A%	c #17556E",
"B%	c #144F66",
"C%	c #215C74",
"D%	c #4D94A7",
"E%	c #3990AA",
"F%	c #212925",
"G%	c #20360E",
"H%	c #647F28",
"I%	c #8DB12B",
"J%	c #6C8935",
"K%	c #4C5C3C",
"L%	c #4F543E",
"M%	c #6F7C35",
"N%	c #217790",
"O%	c #217B95",
"P%	c #227A95",
"Q%	c #227083",
"R%	c #237085",
"S%	c #236777",
"T%	c #236877",
"U%	c #246877",
"V%	c #236F80",
"W%	c #20687B",
"X%	c #195062",
"Y%	c #184F62",
"Z%	c #184F63",
"`%	c #366B80",
" &	c #2C7892",
".&	c #45828F",
"+&	c #2D490A",
"@&	c #3F5328",
"#&	c #7CA430",
"$&	c #779334",
"%&	c #66902B",
"&&	c #5E822C",
"*&	c #55623C",
"=&	c #237285",
"-&	c #236E7F",
";&	c #227B97",
">&	c #227081",
",&	c #205E6B",
"'&	c #216473",
")&	c #236979",
"!&	c #227489",
"~&	c #227B98",
"{&	c #22768D",
"]&	c #226D80",
"^&	c #1E6477",
"/&	c #17556B",
"(&	c #13475E",
"_&	c #2E667B",
":&	c #438198",
"<&	c #559DAD",
"[&	c #3A4738",
"}&	c #313E14",
"|&	c #637A2C",
"1&	c #789033",
"2&	c #6D952B",
"3&	c #4B603B",
"4&	c #23697B",
"5&	c #22788F",
"6&	c #217E9A",
"7&	c #217A97",
"8&	c #226D7E",
"9&	c #217A98",
"0&	c #207B9B",
"a&	c #227285",
"b&	c #227082",
"c&	c #1D6B85",
"d&	c #15536C",
"e&	c #1F536A",
"f&	c #427F93",
"g&	c #54A0AD",
"h&	c #557968",
"i&	c #3F5D24",
"j&	c #415B27",
"k&	c #7C8E2B",
"l&	c #6E7E34",
"m&	c #236A7C",
"n&	c #226371",
"o&	c #206674",
"p&	c #1F7DA1",
"q&	c #207C9D",
"r&	c #22768A",
"s&	c #236F82",
"t&	c #23788F",
"u&	c #22778C",
"v&	c #22758B",
"w&	c #1F5E6C",
"x&	c #23697A",
"y&	c #217389",
"z&	c #195D77",
"A&	c #144C62",
"B&	c #3C7C8B",
"C&	c #549FA3",
"D&	c #51725D",
"E&	c #628032",
"F&	c #6C8339",
"G&	c #83A92D",
"H&	c #768931",
"I&	c #217A95",
"J&	c #207C9E",
"K&	c #227287",
"L&	c #226B7B",
"M&	c #217D9B",
"N&	c #216C82",
"O&	c #1B5565",
"P&	c #164B58",
"Q&	c #528C8B",
"R&	c #659672",
"S&	c #649031",
"T&	c #557A33",
"U&	c #678437",
"V&	c #81A52E",
"W&	c #687439",
"X&	c #5E683A",
"Y&	c #206270",
"Z&	c #216575",
"`&	c #227387",
" *	c #216374",
".*	c #216877",
"+*	c #216F81",
"@*	c #206573",
"#*	c #216876",
"$*	c #236B7E",
"%*	c #216371",
"&*	c #237A8F",
"**	c #1F616F",
"=*	c #1E667A",
"-*	c #17586A",
";*	c #577C45",
">*	c #799A5C",
",*	c #516C3A",
"'*	c #4E673A",
")*	c #6C8835",
"!*	c #6F8A33",
"~*	c #4C732F",
"{*	c #226D7F",
"]*	c #227185",
"^*	c #226E82",
"/*	c #205F6C",
"(*	c #20606D",
"_*	c #236675",
":*	c #226978",
"<*	c #206171",
"[*	c #22697A",
"}*	c #237A90",
"|*	c #206E80",
"1*	c #1B6479",
"2*	c #17596D",
"3*	c #608250",
"4*	c #92B562",
"5*	c #5F793E",
"6*	c #55703E",
"7*	c #718536",
"8*	c #657436",
"9*	c #628A27",
"0*	c #585E41",
"a*	c #20697A",
"b*	c #22768B",
"c*	c #21606E",
"d*	c #226676",
"e*	c #226472",
"f*	c #207B9A",
"g*	c #20687A",
"h*	c #22697B",
"i*	c #207793",
"j*	c #1A6A86",
"k*	c #1D627F",
"l*	c #3D7C7D",
"m*	c #749055",
"n*	c #63813C",
"o*	c #5F7A3C",
"p*	c #6E8332",
"q*	c #5F6A3A",
"r*	c #4E633A",
"s*	c #6F8E26",
"t*	c #246C7D",
"u*	c #217894",
"v*	c #1C6E8A",
"w*	c #22647E",
"x*	c #35798B",
"y*	c #506C3B",
"z*	c #56713E",
"A*	c #5E7A3C",
"B*	c #718F31",
"C*	c #515843",
"D*	c #616D39",
"E*	c #A0AB24",
"F*	c #909B2B",
"  . + @ # $ % & * = - ; > , ' ) ! ~ { ] ^ / ( _ : : < [ } | 1 + ",
"2   3 1 4 5 6 7 8 9 0 a b c d ' e f g h i j k l m : n o p q r s ",
"b t u v w n x y z A B C D E F G H I J K L M N O P Q R b S T U V ",
"V W X Y Z n `  ...B B C E D +.@.#.$.%.&.*.=.-.;.>.,.# '.).!.~.{.",
"].^./.(._.:.a <.[.}.|.1.2.).3.4.0 5.6.7.8.:.9.0.a.>.1 w b.c.d.e.",
"f.g.h.i.j.k.l.m.n.o.p.q.r.s.t.U u.v.w.w.x.y.q.p.z.A.B.C.D.E.F.G.",
"H.I.J.K.L.M.N.O.P.Q.R.S.T.U.: V.W.s.X.Y.Z.C `. +.+++@+#+$+%+&+0 ",
"*+=+-+;+>+,+'+)+!+~+{+]+^+/+D (+_+:+<+[+}+|+v.1+2+3+4+5+6+7+8+9+",
"0+a+b+c+d+e+f+g+h+i+j+k+l+m+n+o+p+q+r+].0 c s+t+: p u+9.v+w+x+o.",
"y+z+A+B+C+D+E+F+i+G+H+I+J+K+L+M+N+O+u P+Q+v+R+S+: T+U+0.V+M W+X+",
"Y+Z+`+ @.@+@@@#@$@%@&@*@=@-@;@>@,@'@)@!@~@{@]@^@/@(@_@:@<@[@}@|@",
"1@2@3@4@5@6@7@8@9@0@a@b@c@d@e@f@g@h@i@j@k@l@m@n@o@p@C.[ q@r@s@: ",
"t@u@v@w@x@y@z@A@B@C@D@E@F@G@H@I@J@K@L@M@N@O@P@Q@R@S@T@U@V@W@/ X@",
"Y@Z@`@ #.#+#@###$#%#&#*#=#-#;#>#,#'#)#!#~#{#]#^#/#(#_#:#<#[#}#|#",
"1#2#3#4#5#6#7#8#9#0#a#b#c#d#e#f#g#h#i#j#k#l#m#n#o#p#q#r#m : s#t#",
"u#v#w#x#y#z#A#B#C#D#E#F#G#H#I#J#K#L#M#N#O#P#Q#R#S#T#U#V#: m W#X#",
"Y#Z#`# $.$+$@$#$$$%$&$*$&$=$-$;$>$,$'$)$!$~${$]$^$/$($_$:$1 3.t ",
"Y#<$[$}$|$1$2$3$4$*$&$&$5$6$7$8$9$0$a$b$c$d$e$f$g$h$i$j$k$l$m$n$",
"&$*$o$p$Y#q$-$r$s$t$&$5$5$#$u$v$w$x$y$z$A$B$C$D$E$F$G$H$I$J$K$L$",
"M$u$o$p$t$N$&$O$P$Q$R$5$#$#$S$T$U$V$W$X$Y$Z$`$ %.%+%@%#%$%%%2 &%",
"*%=%-%s$;%>%,%'%P$s$)%$$#$!%~%{%]%^%/%(%_%:%<%[%}%|%1%2%3%4%(#E ",
"*$5%t$P$&$O$=$)%P$s$6%)%p$7%8%9%0%a%b%c%d%e%f%g%h%i%j%k%l%m%n%o%",
"p%q%&$r%s%s%t%u%2$Z#&$v%w%x%y%x%;%6%z%A%B%C%D%E%F%G%H%I%J%K%L%M%",
"P$t$r%N%O%P%Q%r$R%p$O$S%S%T%U%V%&$O$W%X%Y%Z%`% &.&+&@&#&$&%&&&*&",
"=&-&;&#$#$,%>&,&'&)&&$&$-&&$!&~&{&p$]&^&/&(&_&:&<&[&}&|&1&2&3&u.",
"s%4&5&6&7&0%s$8&9&0&S$r%a&a&P$!&p$p$b&b&c&d&e&f&g&h&i&j&k&l&u.v.",
";&Z#m&n&u%.$o&9&p&p&q&r&s&t&u&v&w&x&&$&$y&z&A&B&C&D&E&F&G&H&: V.",
"#$;&t$q$S%q%y%I&p&J&K&'&L&M$M&N&x&&$&$&$Y#O&P&Q&R&S&T&U&V&W&V.X&",
"Z#Y&Z&O$`& *.*Y#+*@*w&#*;%$*u%%*&*s%&$&$**=*-*;*>*,*'*)*!*~*..X&",
"'&v${*]*^*/*(*]&_*-%:*Z#S$r&Q%<*[*}*5$-&|*1*2*3*4*5*6*7*8*9*}@0*",
"a*p$b*;%c*d*e*)%,%b*p%Z#f*p$[$g*'&h*t$-%i*j*k*l*m*n*o*p*q*r*s*J ",
"p$~&%$;%)&Y#)&)%#$;&P$P$t*$*[$!&&$5$Z#Y#u*v*w*x*y*z*A*B*C*D*E*F*"};
