/* XPM */
static char * wallwater_border_left_3_xpm[] = {
"32 32 677 2",
"  	c #4E5140",
". 	c #515A41",
"+ 	c #646F38",
"@ 	c #6A792D",
"# 	c #6D822A",
"$ 	c #697B33",
"% 	c #667A36",
"& 	c #709815",
"* 	c #79B00C",
"= 	c #5A8434",
"- 	c #54743B",
"; 	c #414C28",
"> 	c #2F4F5A",
", 	c #0D3C4A",
"' 	c #154F5C",
") 	c #125A6E",
"! 	c #157083",
"~ 	c #186D7F",
"{ 	c #186D81",
"] 	c #156575",
"^ 	c #196777",
"/ 	c #1A697A",
"( 	c #1A6677",
"_ 	c #17606F",
": 	c #17616F",
"< 	c #186776",
"[ 	c #147589",
"} 	c #167386",
"| 	c #176372",
"1 	c #494C3E",
"2 	c #585F3F",
"3 	c #657430",
"4 	c #799127",
"5 	c #7D9F20",
"6 	c #9EAE0D",
"7 	c #89AC19",
"8 	c #5D9324",
"9 	c #8FAC1E",
"0 	c #83971A",
"a 	c #42540A",
"b 	c #2F657A",
"c 	c #1B3F4D",
"d 	c #0D4254",
"e 	c #125060",
"f 	c #186373",
"g 	c #127891",
"h 	c #0E7D9B",
"i 	c #107B97",
"j 	c #167286",
"k 	c #196978",
"l 	c #196B7C",
"m 	c #157284",
"n 	c #177082",
"o 	c #1B697A",
"p 	c #186778",
"q 	c #16606E",
"r 	c #166F81",
"s 	c #778A2A",
"t 	c #616F38",
"u 	c #4E5340",
"v 	c #4B4E3F",
"w 	c #606E39",
"x 	c #6E9813",
"y 	c #749B15",
"z 	c #A0B416",
"A 	c #99A91A",
"B 	c #738D07",
"C 	c #546D00",
"D 	c #475000",
"E 	c #45808F",
"F 	c #184353",
"G 	c #0C4055",
"H 	c #125363",
"I 	c #14758A",
"J 	c #0F7B98",
"K 	c #0D7D9B",
"L 	c #13778E",
"M 	c #167087",
"N 	c #187083",
"O 	c #147488",
"P 	c #196A7C",
"Q 	c #167184",
"R 	c #186678",
"S 	c #687A34",
"T 	c #68772D",
"U 	c #617539",
"V 	c #658F23",
"W 	c #63882E",
"X 	c #608237",
"Y 	c #5F7B28",
"Z 	c #355C02",
"` 	c #2E4C00",
" .	c #386972",
"..	c #5E97A3",
"+.	c #173F4F",
"@.	c #0B4556",
"#.	c #146376",
"$.	c #0E7B98",
"%.	c #0F7C98",
"&.	c #176F85",
"*.	c #196272",
"=.	c #176475",
"-.	c #1B6A7B",
";.	c #157386",
">.	c #4A4D3F",
",.	c #515442",
"'.	c #474B3E",
").	c #56633D",
"!.	c #505F3D",
"~.	c #729629",
"{.	c #A3BC0C",
"].	c #A9BF02",
"^.	c #657B11",
"/.	c #324F01",
"(.	c #2F5428",
"_.	c #4D97AB",
":.	c #327E95",
"<.	c #173B49",
"[.	c #0E4A5C",
"}.	c #16687D",
"|.	c #0C7D9D",
"1.	c #1A6B7D",
"2.	c #137791",
"3.	c #5E6A37",
"4.	c #515642",
"5.	c #535A3D",
"6.	c #6E7D2E",
"7.	c #617C39",
"8.	c #6E8C32",
"9.	c #719220",
"0.	c #819C1B",
"a.	c #6F750F",
"b.	c #334204",
"c.	c #2F6866",
"d.	c #377D8D",
"e.	c #23596E",
"f.	c #1D5265",
"g.	c #145563",
"h.	c #176777",
"i.	c #186F82",
"j.	c #117790",
"k.	c #0F7C9A",
"l.	c #097DA0",
"m.	c #127992",
"n.	c #19697A",
"o.	c #196B7D",
"p.	c #5E6C36",
"q.	c #47543B",
"r.	c #476B2F",
"s.	c #7F9C21",
"t.	c #7F9C2A",
"u.	c #5B762C",
"v.	c #427502",
"w.	c #384D07",
"x.	c #293206",
"y.	c #2C3200",
"z.	c #3698AA",
"A.	c #225F71",
"B.	c #356C7D",
"C.	c #1F5E71",
"D.	c #176474",
"E.	c #186978",
"F.	c #196C7E",
"G.	c #117894",
"H.	c #0A7C9E",
"I.	c #0E7B9A",
"J.	c #167084",
"K.	c #176D83",
"L.	c #18697A",
"M.	c #127A95",
"N.	c #14788D",
"O.	c #157387",
"P.	c #18606F",
"Q.	c #186877",
"R.	c #436233",
"S.	c #4F5D36",
"T.	c #9CB115",
"U.	c #9CB314",
"V.	c #597A18",
"W.	c #3A5102",
"X.	c #252B0E",
"Y.	c #1E1B09",
"Z.	c #2B7384",
"`.	c #287D8F",
" +	c #235A6E",
".+	c #2F6578",
"++	c #104E62",
"@+	c #176576",
"#+	c #156A7E",
"$+	c #186474",
"%+	c #186F81",
"&+	c #186B7F",
"*+	c #117B96",
"=+	c #0F7B9A",
"-+	c #166E80",
";+	c #167186",
">+	c #44473C",
",+	c #4A4E3D",
"'+	c #75982B",
")+	c #97B416",
"!+	c #5E8013",
"~+	c #282F0B",
"{+	c #171910",
"]+	c #243330",
"^+	c #1D7992",
"/+	c #1F566A",
"(+	c #3D8194",
"_+	c #2F6C80",
":+	c #0B5E74",
"<+	c #13738A",
"[+	c #0F7D9B",
"}+	c #13778F",
"|+	c #156E82",
"1+	c #157082",
"2+	c #12778E",
"3+	c #127A94",
"4+	c #0C7B9C",
"5+	c #14748A",
"6+	c #15697A",
"7+	c #186E80",
"8+	c #14768B",
"9+	c #4E5041",
"0+	c #659125",
"a+	c #72A514",
"b+	c #5B7C11",
"c+	c #264F09",
"d+	c #191915",
"e+	c #3D8FA1",
"f+	c #29687F",
"g+	c #215C74",
"h+	c #2B6A80",
"i+	c #0A5269",
"j+	c #11677B",
"k+	c #14758C",
"l+	c #12778F",
"m+	c #147286",
"n+	c #5B633C",
"o+	c #677530",
"p+	c #5A7337",
"q+	c #7FB20A",
"r+	c #78AB16",
"s+	c #527016",
"t+	c #3E520E",
"u+	c #397062",
"v+	c #39838D",
"w+	c #1C5471",
"x+	c #20627D",
"y+	c #21637A",
"z+	c #0E576C",
"A+	c #11728C",
"B+	c #13788E",
"C+	c #13768D",
"D+	c #165F6E",
"E+	c #186A7C",
"F+	c #127993",
"G+	c #1A6778",
"H+	c #167285",
"I+	c #186B7D",
"J+	c #166C82",
"K+	c #6B7A2C",
"L+	c #617639",
"M+	c #658E23",
"N+	c #517231",
"O+	c #567634",
"P+	c #63801E",
"Q+	c #537F59",
"R+	c #428A89",
"S+	c #2D6F89",
"T+	c #216077",
"U+	c #225B6E",
"V+	c #136073",
"W+	c #107A95",
"X+	c #0C7E9E",
"Y+	c #156D84",
"Z+	c #185F6E",
"`+	c #176A79",
" @	c #127B95",
".@	c #13788F",
"+@	c #6C7A31",
"@@	c #607338",
"#@	c #6F7A35",
"$@	c #627437",
"%@	c #535D38",
"&@	c #5C7938",
"*@	c #799E24",
"=@	c #738233",
"-@	c #2D737C",
";@	c #296074",
">@	c #2D6576",
",@	c #0D4C61",
"'@	c #176477",
")@	c #186473",
"!@	c #137B91",
"~@	c #14768A",
"{@	c #176473",
"]@	c #147389",
"^@	c #186574",
"/@	c #1A6574",
"(@	c #14778D",
"_@	c #809727",
":@	c #9DAC12",
"<@	c #89A01D",
"[@	c #6B7D35",
"}@	c #5E673B",
"|@	c #799C26",
"1@	c #7FA721",
"2@	c #766C28",
"3@	c #2E6472",
"4@	c #367387",
"5@	c #094258",
"6@	c #0B647E",
"7@	c #107791",
"8@	c #13768C",
"9@	c #167185",
"0@	c #176171",
"a@	c #176A7C",
"b@	c #137B92",
"c@	c #147588",
"d@	c #186A7A",
"e@	c #196877",
"f@	c #176D80",
"g@	c #137893",
"h@	c #107B96",
"i@	c #95A817",
"j@	c #627339",
"k@	c #4C563E",
"l@	c #47493D",
"m@	c #677635",
"n@	c #7DA224",
"o@	c #668631",
"p@	c #5F602C",
"q@	c #376C7A",
"r@	c #35778E",
"s@	c #0A4358",
"t@	c #0E627D",
"u@	c #0A7B9B",
"v@	c #157286",
"w@	c #145F71",
"x@	c #176575",
"y@	c #176A7D",
"z@	c #117B97",
"A@	c #176A7B",
"B@	c #196E83",
"C@	c #526040",
"D@	c #4E583F",
"E@	c #74872B",
"F@	c #7A9929",
"G@	c #5D7F36",
"H@	c #6C752A",
"I@	c #53838A",
"J@	c #105F7B",
"K@	c #08495F",
"L@	c #0F5B70",
"M@	c #176B7D",
"N@	c #186D80",
"O@	c #146B7E",
"P@	c #116376",
"Q@	c #127892",
"R@	c #13758E",
"S@	c #13768B",
"T@	c #0C7D9E",
"U@	c #196D7F",
"V@	c #667236",
"W@	c #779126",
"X@	c #637231",
"Y@	c #6B7A31",
"Z@	c #72842C",
"`@	c #5C7C38",
" #	c #688730",
".#	c #506116",
"+#	c #306B76",
"@#	c #3C859B",
"##	c #0A3F55",
"$#	c #135D70",
"%#	c #097DA1",
"&#	c #0B7D9E",
"*#	c #107A97",
"=#	c #127895",
"-#	c #176D81",
";#	c #186E82",
">#	c #177083",
",#	c #73822C",
"'#	c #5C6B38",
")#	c #6F7E2C",
"!#	c #667A31",
"~#	c #638331",
"{#	c #5F7D21",
"]#	c #283D05",
"^#	c #2D6E77",
"/#	c #3A8297",
"(#	c #0A4056",
"_#	c #0F6377",
":#	c #137488",
"<#	c #0B7C9C",
"[#	c #117791",
"}#	c #0D7E9D",
"|#	c #186C7F",
"1#	c #196475",
"2#	c #166879",
"3#	c #0F7D99",
"4#	c #117896",
"5#	c #5E6E36",
"6#	c #5B7738",
"7#	c #698B26",
"8#	c #3A5D15",
"9#	c #294400",
"0#	c #327D83",
"a#	c #3C7E94",
"b#	c #0A3D52",
"c#	c #0C4D64",
"d#	c #11657A",
"e#	c #0A7DA0",
"f#	c #147387",
"g#	c #166272",
"h#	c #1A6A7B",
"i#	c #176E83",
"j#	c #0D7D9D",
"k#	c #0F7B99",
"l#	c #176677",
"m#	c #0B7DA0",
"n#	c #626F33",
"o#	c #4A4E3E",
"p#	c #618A2A",
"q#	c #527E2B",
"r#	c #517115",
"s#	c #282E0B",
"t#	c #141F09",
"u#	c #167B97",
"v#	c #357287",
"w#	c #0B4459",
"x#	c #0B4961",
"y#	c #115468",
"z#	c #177186",
"A#	c #15758A",
"B#	c #077EA2",
"C#	c #057EA4",
"D#	c #077EA3",
"E#	c #196878",
"F#	c #186F83",
"G#	c #545841",
"H#	c #555D3A",
"I#	c #566835",
"J#	c #78941B",
"K#	c #4E6F16",
"L#	c #467300",
"M#	c #2A3100",
"N#	c #1D7285",
"O#	c #0C5A71",
"P#	c #347185",
"Q#	c #1C586C",
"R#	c #0A4A61",
"S#	c #125467",
"T#	c #176979",
"U#	c #19687A",
"V#	c #175E6C",
"W#	c #13758F",
"X#	c #13778D",
"Y#	c #0C7C9E",
"Z#	c #0C7B9B",
"`#	c #165E6C",
" $	c #176373",
".$	c #196677",
"+$	c #196B7E",
"@$	c #7C882D",
"#$	c #9DA913",
"$$	c #749523",
"%$	c #648A2A",
"&$	c #5B7711",
"*$	c #5D7D00",
"=$	c #385E43",
"-$	c #2B7E88",
";$	c #0B3A51",
">$	c #1C5971",
",$	c #347389",
"'$	c #084862",
")$	c #116276",
"!$	c #186374",
"~$	c #196474",
"{$	c #157185",
"]$	c #186C80",
"^$	c #157388",
"/$	c #177084",
"($	c #157488",
"_$	c #5B643D",
":$	c #8C9728",
"<$	c #8F9B23",
"[$	c #67842E",
"}$	c #6B891D",
"|$	c #6B8500",
"1$	c #3D6749",
"2$	c #246771",
"3$	c #0E4459",
"4$	c #0A4E68",
"5$	c #32738A",
"6$	c #044865",
"7$	c #0C6D88",
"8$	c #156A7B",
"9$	c #186878",
"0$	c #127894",
"a$	c #15748A",
"b$	c #117A96",
"c$	c #525C41",
"d$	c #545F40",
"e$	c #627F34",
"f$	c #638431",
"g$	c #59770A",
"h$	c #355713",
"i$	c #408D7A",
"j$	c #0F4E64",
"k$	c #2E677A",
"l$	c #347084",
"m$	c #074861",
"n$	c #14687D",
"o$	c #176E82",
"p$	c #186372",
"q$	c #196A7D",
"r$	c #117C95",
"s$	c #157589",
"t$	c #0E7C9D",
"u$	c #1A697B",
"v$	c #829126",
"w$	c #617138",
"x$	c #545A41",
"y$	c #5B7F36",
"z$	c #5D8832",
"A$	c #678723",
"B$	c #496606",
"C$	c #3B6F46",
"D$	c #327C88",
"E$	c #34768A",
"F$	c #377487",
"G$	c #1E536A",
"H$	c #0E6279",
"I$	c #147991",
"J$	c #107997",
"K$	c #0C7D9C",
"L$	c #0E7C9A",
"M$	c #186C83",
"N$	c #156574",
"O$	c #87A31C",
"P$	c #758929",
"Q$	c #606D36",
"R$	c #576D3B",
"S$	c #7AB307",
"T$	c #6DA40E",
"U$	c #93A50A",
"V$	c #606300",
"W$	c #508F7B",
"X$	c #215D6D",
"Y$	c #206277",
"Z$	c #1F5A70",
"`$	c #095771",
" %	c #0D7795",
".%	c #186675",
"+%	c #147388",
"@%	c #196D81",
"#%	c #167083",
"$%	c #176E80",
"%%	c #53593D",
"&%	c #5F712F",
"*%	c #647A35",
"=%	c #616E39",
"-%	c #739429",
";%	c #80AB21",
">%	c #98AF19",
",%	c #516312",
"'%	c #295A5A",
")%	c #1A5F6D",
"!%	c #1C596E",
"~%	c #3B7F95",
"{%	c #064D67",
"]%	c #0B6E8A",
"^%	c #15758B",
"/%	c #1A6979",
"(%	c #1A6777",
"_%	c #195F6E",
":%	c #117993",
"<%	c #434E3A",
"[%	c #6A9222",
"}%	c #799424",
"|%	c #758E2A",
"1%	c #6E9130",
"2%	c #5F8C27",
"3%	c #6D8E19",
"4%	c #2F5143",
"5%	c #164E5B",
"6%	c #0B3C4B",
"7%	c #37788C",
"8%	c #074C67",
"9%	c #0B5F7A",
"0%	c #0F7A97",
"a%	c #186879",
"b%	c #186576",
"c%	c #0F7B97",
"d%	c #067EA3",
"e%	c #484C3D",
"f%	c #7B872D",
"g%	c #A5B205",
"h%	c #7A8C27",
"i%	c #4D7728",
"j%	c #547438",
"k%	c #54872C",
"l%	c #7AAF11",
"m%	c #698316",
"n%	c #1E484A",
"o%	c #0A3749",
"p%	c #0D5C75",
"q%	c #114C64",
"r%	c #09516D",
"s%	c #0D728E",
"t%	c #167086",
"u%	c #186676",
"v%	c #196C7D",
"w%	c #196A7B",
"x%	c #0B7C9D",
"y%	c #176D84",
"z%	c #147690",
"A%	c #087EA2",
"B%	c #097C9F",
"C%	c #647130",
"D%	c #849C20",
"E%	c #839C20",
"F%	c #4F702E",
"G%	c #75A408",
"H%	c #64802A",
"I%	c #5F7D3A",
"J%	c #5A7F36",
"K%	c #68900E",
"L%	c #335C30",
"M%	c #253931",
"N%	c #0D475B",
"O%	c #1F424E",
"P%	c #074B64",
"Q%	c #11667B",
"R%	c #7A9326",
"S%	c #697730",
"T%	c #59633E",
"U%	c #5D673B",
"V%	c #7CA515",
"W%	c #677E35",
"X%	c #5F783A",
"Y%	c #85992B",
"Z%	c #66881B",
"`%	c #567233",
" &	c #274246",
".&	c #103848",
"+&	c #10465A",
"@&	c #0F5F75",
"#&	c #17697B",
"$&	c #196170",
"%&	c #166575",
"&&	c #677631",
"*&	c #57643E",
"=&	c #5C663D",
"-&	c #657331",
";&	c #607038",
">&	c #56623F",
",&	c #59653D",
"'&	c #7F8C2D",
")&	c #82AD1D",
"!&	c #6C8F28",
"~&	c #5A7B2D",
"{&	c #465837",
"]&	c #0D3A4A",
"^&	c #084258",
"/&	c #0C586E",
"(&	c #137286",
"_&	c #196A7A",
":&	c #0F7A99",
"<&	c #127B94",
"[&	c #156E83",
"}&	c #165F6C",
"|&	c #186777",
"1&	c #186B7E",
"2&	c #137894",
"3&	c #157187",
"4&	c #0F7D98",
"  . + @ # $ % & * = - ; > , ' ) ! ~ { ] ^ / ( _ : < [ [ [ } | _ ",
"  1 2 3 4 5 6 7 8 9 0 a b c d e f g h i j k l m n o [ [ [ p q r ",
"s t u v w x y z A B C D E F G H I J K J L M N O [ l P Q } R p [ ",
"S T u v U V W X Y Z `  ...+.@.#.i K K $.h h %.&.} *.=.Q [ [ -.;.",
">.,.'.).!.~.{.].^./.(._.:.<.[.}.i |.K K K K K h O 1.[ [ [ [ Q 2.",
"3.4.5.6.7.8.9.0.a.b.c.d.e.f.g.h.i.j.k.K K K l.m.n.< [ [ [ [ n.o.",
"p.q.r.s.t.u.v.w.x.y.z.A.B.C.D.E.F.-.n.G.H.I.J.K.L i.L.M.N.O.P.Q.",
"u R.S.T.U.V.W.X.Y.Z.`. +.+++@+n [ ;.#+$+%+[ &+*+h =+-+n.;+O.q r ",
">+>+,+'+)+!+~+{+]+^+/+(+_+:+<+[+}+L |+1+L 2+L 3+4+5+6+[ [ [ 7+8+",
">+v 9+0+a+b+c+d+e+f+g+h+i+j+O k+l+L Q Q k.K h L [ ;.[ [ [ [ ! m+",
"n+o+p+q+r+s+t+u+v+w+x+y+z+A+B+C+D+E+[ [ L J F+[ G+H+[ [ [ C+I+J+",
"K+t L+M+N+O+P+Q+R+S+T+U+V+W+X+Y+E+[ [ [ } p h.F.Z+`+[ F+ @.@L h ",
"+@@@#@$@%@&@*@=@-@;@>@,@'@&+_ )@!@~@[ [ {@;.[ ]@$+^@m n./@} (@i ",
"_@:@<@[@}@|@1@2@3@4@5@6@7@8@9@0@a@b@F+%+} [ [ [ c@d@e@f@g@h@F+6+",
"i@j@k@l@m@n@o@p@q@r@s@t@u@L v@w@x@y@H+o k.K z@~@[ A@x@*+K K h B@",
"j@C@v D@E@F@G@H@I@J@K@L@M@N@O@P@[ F+Q@H+k.K K %.F+R@S@%.|.T@i U@",
"V@W@X@Y@Z@`@ #.#+#@###$#[ [ ~@~@k.K *+F+%#&#K h *#=#[ [ O -#;#>#",
",#V@'#)#!#~#{#]#^#/#(#_#:#[ z@%.K K <#[ L [#}#g |#1#[ [ 2#Q@3#4#",
"6.5.4.5#6#7#8#9#0#a#b#c#d#[ K %.%.e#F+[ f#g#h#i#Q@j#k#i.l#[ g m#",
"n#'.o#p#q#r#s#t#u#v#w#x#y#=.z#8+~@z#6+F+g 1+h#A#B#C#D#}+E#A@F#l+",
"G#H#I#J#K#L#M#N#O#P#Q#R#S#T#%+[ U#V#g#W#z@X#[ O.Y#B#Z#&+`# $.$+$",
"@$#$$$%$&$*$=$-$;$>$,$'$)$-#[ [ !$~$1+{$]$^$} /$m.K O $+I+3+($($",
"_$:$<$[$}$|$1$2$3$4$5$6$7$[ / 1.8$i k.k.X#9$F.0$K K i i.a$k.b$[ ",
"c$d$V@e$f$g$h$i$j$k$l$m$n$o$p$q$r$K K K 3#s$[ C+T@B#t$L u$5+C+o$",
"v$w$x$y$z$A$B$C$D$E$F$G$H$*#I${@ $J$&#K$L$M$E+N$7+O ($+$o$[ [ %+",
"O$P$Q$R$S$T$U$V$W$X$Y$Z$`$ %h@;..%+%[#l+@%n [ [ O O #%$%[ [ (@X#",
"%%&%*%=%-%;%>%,%'%)%!%~%{%]%|.^%< /%(%_%%+C+[ [ [ [ F.h@B+B+h :%",
"<%[%x }%|%1%2%3%4%5%6%7%8%9%0%a%b%/%/%(%C+k.c%b$[ %+} c%B#B#B#d%",
"e%f%g%h%i%j%k%l%m%n%o%p%q%r%s%t%u%v%[ %+w%($J H.x%y%1.z%A%C#C#B%",
"C%D%E%F%G%H%I%J%K%L%M%N%O%P%Q%[ O -#[ [ #%($[ %+x@r H+H+M j.j.i.",
"R%S%T%U%V%W%C@X%Y%Z%`% &.&+&@&O [ [ h#5+[ [ O D.#&($L 2+a$E#$&%&",
"&&*&=&-&;&>&,&'&)&!&~&{&]&^&/&(&[ %+_&I$:&<&[&}&|&1&Q@%#2&*.3&4&"};
