/* XPM */
static char * wallwater_corner_topright_1_xpm[] = {
"32 32 794 2",
"  	c #67723A",
". 	c #79902F",
"+ 	c #647235",
"@ 	c #6C7A36",
"# 	c #728034",
"$ 	c #58653F",
"% 	c #6A763A",
"& 	c #727F31",
"* 	c #5F6836",
"= 	c #4A4D3E",
"- 	c #515543",
"; 	c #5B6640",
"> 	c #5C7139",
", 	c #56663D",
"' 	c #687636",
") 	c #94A02A",
"! 	c #9EA925",
"~ 	c #73892F",
"{ 	c #76A020",
"] 	c #4C5E37",
"^ 	c #4F5442",
"/ 	c #6C7937",
"( 	c #8CA429",
"_ 	c #758038",
": 	c #44473D",
"< 	c #58613F",
"[ 	c #535942",
"} 	c #575D3F",
"| 	c #748234",
"1 	c #707E32",
"2 	c #748233",
"3 	c #5D6B3B",
"4 	c #677437",
"5 	c #606D3A",
"6 	c #677733",
"7 	c #638727",
"8 	c #6E8B32",
"9 	c #43453D",
"0 	c #515443",
"a 	c #667237",
"b 	c #6F7D34",
"c 	c #565C40",
"d 	c #555C42",
"e 	c #91A628",
"f 	c #85A027",
"g 	c #668D22",
"h 	c #4C543B",
"i 	c #45473D",
"j 	c #55603E",
"k 	c #64842D",
"l 	c #76892E",
"m 	c #4B4E40",
"n 	c #687632",
"o 	c #6C7936",
"p 	c #4E5142",
"q 	c #5A5F40",
"r 	c #5F683D",
"s 	c #545F41",
"t 	c #545A3F",
"u 	c #515643",
"v 	c #5F6C3A",
"w 	c #59663E",
"x 	c #4F6F33",
"y 	c #76A120",
"z 	c #779E28",
"A 	c #5D6C3E",
"B 	c #505343",
"C 	c #4E5141",
"D 	c #4F5A41",
"E 	c #4E5341",
"F 	c #43493C",
"G 	c #627539",
"H 	c #729B20",
"I 	c #96A925",
"J 	c #9FA924",
"K 	c #68793A",
"L 	c #4D5A3A",
"M 	c #456834",
"N 	c #6A971A",
"O 	c #7FA820",
"P 	c #75942E",
"Q 	c #5C693F",
"R 	c #5E673D",
"S 	c #727F36",
"T 	c #5B633E",
"U 	c #525743",
"V 	c #636F37",
"W 	c #474B3F",
"X 	c #4A4C40",
"Y 	c #5F7E31",
"Z 	c #526B36",
"` 	c #5E693A",
" .	c #4E6039",
"..	c #46503D",
"+.	c #4F5A40",
"@.	c #587734",
"#.	c #689322",
"$.	c #6F8531",
"%.	c #94A727",
"&.	c #A2AF22",
"*.	c #92A029",
"=.	c #6E8333",
"-.	c #5A822A",
";.	c #708D2A",
">.	c #687532",
",.	c #78902F",
"'.	c #5B693C",
").	c #6C7A32",
"!.	c #697732",
"~.	c #67872D",
"{.	c #6A7833",
"].	c #545842",
"^.	c #565D3C",
"/.	c #576B37",
"(.	c #6B9819",
"_.	c #5F7B31",
":.	c #7F9D2C",
"<.	c #555B40",
"[.	c #5D673F",
"}.	c #6B7E34",
"|.	c #7C8D31",
"1.	c #86922F",
"2.	c #6E8031",
"3.	c #637137",
"4.	c #525A43",
"5.	c #575E40",
"6.	c #657B32",
"7.	c #6B8B2E",
"8.	c #7B972D",
"9.	c #8A9F2B",
"0.	c #758630",
"a.	c #6B7832",
"b.	c #51643E",
"c.	c #699321",
"d.	c #689519",
"e.	c #647C31",
"f.	c #7C8934",
"g.	c #9EA825",
"h.	c #76952D",
"i.	c #607E34",
"j.	c #7A8B2F",
"k.	c #A1B725",
"l.	c #789230",
"m.	c #789A30",
"n.	c #89A52D",
"o.	c #9FAD23",
"p.	c #839F2B",
"q.	c #88972D",
"r.	c #6A7B35",
"s.	c #5C633F",
"t.	c #50573D",
"u.	c #4F5242",
"v.	c #45483D",
"w.	c #628E20",
"x.	c #5D6B3D",
"y.	c #6D8033",
"z.	c #7C962E",
"A.	c #79942E",
"B.	c #788F2F",
"C.	c #677536",
"D.	c #5A7A33",
"E.	c #82AB21",
"F.	c #739C24",
"G.	c #50603E",
"H.	c #60743E",
"I.	c #8D9B2F",
"J.	c #919F2D",
"K.	c #688234",
"L.	c #7E992E",
"M.	c #A9BE23",
"N.	c #7DA32C",
"O.	c #67891F",
"P.	c #607D16",
"Q.	c #5E6F21",
"R.	c #657A2D",
"S.	c #5F7F34",
"T.	c #4F5541",
"U.	c #44473E",
"V.	c #46493E",
"W.	c #575C41",
"X.	c #54752F",
"Y.	c #55762F",
"Z.	c #515642",
"`.	c #535D41",
" +	c #616C3A",
".+	c #769033",
"++	c #93A029",
"@+	c #A0AA24",
"#+	c #A8B220",
"$+	c #879D2C",
"%+	c #7FA129",
"&+	c #4F6738",
"*+	c #59763E",
"=+	c #60773D",
"-+	c #798B38",
";+	c #638238",
">+	c #688839",
",+	c #87A230",
"'+	c #669617",
")+	c #4E7C03",
"!+	c #3A6303",
"~+	c #384409",
"{+	c #576326",
"]+	c #6C9C20",
"^+	c #6E8336",
"/+	c #616D36",
"(+	c #5E6A3A",
"_+	c #748534",
":+	c #7D982E",
"<+	c #748C2F",
"[+	c #667532",
"}+	c #525C42",
"|+	c #47493E",
"1+	c #474A3F",
"2+	c #4B5040",
"3+	c #57623F",
"4+	c #748530",
"5+	c #A1AF23",
"6+	c #88A12A",
"7+	c #97A926",
"8+	c #919C2B",
"9+	c #606A3E",
"0+	c #7D942A",
"a+	c #50681E",
"b+	c #465A1F",
"c+	c #486C28",
"d+	c #5C8136",
"e+	c #6B892D",
"f+	c #496B0C",
"g+	c #436B00",
"h+	c #4E5705",
"i+	c #5B6600",
"j+	c #637113",
"k+	c #9AAF27",
"l+	c #7FA42E",
"m+	c #6D8330",
"n+	c #738233",
"o+	c #738133",
"p+	c #667337",
"q+	c #6E7B37",
"r+	c #6A753A",
"s+	c #5E673E",
"t+	c #4B4F40",
"u+	c #87972D",
"v+	c #637037",
"w+	c #6F8A30",
"x+	c #98A526",
"y+	c #5B680D",
"z+	c #3C4F07",
"A+	c #2C3D0B",
"B+	c #2D4E0C",
"C+	c #547F0B",
"D+	c #446509",
"E+	c #596601",
"F+	c #5F6800",
"G+	c #314606",
"H+	c #506C0D",
"I+	c #698A37",
"J+	c #618538",
"K+	c #5C8138",
"L+	c #657B3B",
"M+	c #5B683D",
"N+	c #545C43",
"O+	c #576241",
"P+	c #566B40",
"Q+	c #556641",
"R+	c #707D33",
"S+	c #575D40",
"T+	c #4F5841",
"U+	c #9AAB25",
"V+	c #4F5B40",
"W+	c #638E22",
"X+	c #768E2D",
"Y+	c #20240F",
"Z+	c #293200",
"`+	c #2C3A05",
" @	c #29330F",
".@	c #343E07",
"+@	c #3F5304",
"@@	c #505C00",
"#@	c #364600",
"$@	c #2D3400",
"%@	c #282F10",
"&@	c #445814",
"*@	c #5F7835",
"=@	c #4E6837",
"-@	c #5C763A",
";@	c #556D3E",
">@	c #546D37",
",@	c #66832D",
"'@	c #566B2F",
")@	c #637C36",
"!@	c #5D7F3E",
"~@	c #5F7D3E",
"{@	c #778E34",
"]@	c #76992D",
"^@	c #5C8726",
"/@	c #485E3A",
"(@	c #6B7738",
"_@	c #7B922F",
":@	c #5C673F",
"<@	c #47513D",
"[@	c #789E29",
"}@	c #5C7F2D",
"|@	c #4E5042",
"1@	c #1A494F",
"2@	c #469791",
"3@	c #41897D",
"4@	c #364500",
"5@	c #333E08",
"6@	c #303C0E",
"7@	c #3C655B",
"8@	c #6FB3A8",
"9@	c #5E9D97",
"0@	c #2F3A29",
"a@	c #242A13",
"b@	c #2B361C",
"c@	c #5D7A28",
"d@	c #6D8C30",
"e@	c #58753F",
"f@	c #749632",
"g@	c #527416",
"h@	c #385D04",
"i@	c #5B7812",
"j@	c #6F9F25",
"k@	c #5E8635",
"l@	c #82A82F",
"m@	c #7FA72C",
"n@	c #59713A",
"o@	c #484E3F",
"p@	c #6B7937",
"q@	c #535D43",
"r@	c #587735",
"s@	c #4B553F",
"t@	c #4C94A9",
"u@	c #3A697A",
"v@	c #568F92",
"w@	c #5BA1A6",
"x@	c #4C9EAC",
"y@	c #519BAD",
"z@	c #539FAA",
"A@	c #285059",
"B@	c #599AA1",
"C@	c #3F6A69",
"D@	c #364406",
"E@	c #354007",
"F@	c #353D0E",
"G@	c #485D2B",
"H@	c #5D782F",
"I@	c #5F711B",
"J@	c #323B10",
"K@	c #272E13",
"L@	c #2D3511",
"M@	c #5A7F15",
"N@	c #4A7B2D",
"O@	c #8AA01E",
"P@	c #78992A",
"Q@	c #5E733C",
"R@	c #47533B",
"S@	c #4D5141",
"T@	c #606E3E",
"U@	c #788532",
"V@	c #7F9E2C",
"W@	c #798B31",
"X@	c #515743",
"Y@	c #193F50",
"Z@	c #194152",
"`@	c #0E3648",
" #	c #0A3044",
".#	c #1F4353",
"+#	c #1E4353",
"@#	c #396777",
"##	c #295565",
"$#	c #3C7081",
"%#	c #5BA0AA",
"&#	c #384806",
"*#	c #4F5A02",
"=#	c #374806",
"-#	c #323B0D",
";#	c #3B440A",
">#	c #3A440A",
",#	c #242A15",
"'#	c #222315",
")#	c #232614",
"!#	c #3C480C",
"~#	c #445B10",
"{#	c #67800C",
"]#	c #526024",
"^#	c #516839",
"/#	c #4C613B",
"(#	c #67743A",
"_#	c #7D992D",
":#	c #89A22A",
"<#	c #738635",
"[#	c #5D683F",
"}#	c #565F40",
"|#	c #596241",
"1#	c #174A5C",
"2#	c #154556",
"3#	c #154354",
"4#	c #144252",
"5#	c #144153",
"6#	c #144354",
"7#	c #123F50",
"8#	c #1A4254",
"9#	c #457C89",
"0#	c #559CA5",
"a#	c #396359",
"b#	c #505800",
"c#	c #485600",
"d#	c #394200",
"e#	c #2E554F",
"f#	c #27535A",
"g#	c #1D4C59",
"h#	c #201F06",
"i#	c #2E3601",
"j#	c #516000",
"k#	c #56580F",
"l#	c #475730",
"m#	c #627C3C",
"n#	c #668139",
"o#	c #789232",
"p#	c #738636",
"q#	c #59643E",
"r#	c #545A42",
"s#	c #728435",
"t#	c #1E7089",
"u#	c #1D657C",
"v#	c #1A5768",
"w#	c #1A5364",
"x#	c #185366",
"y#	c #18556A",
"z#	c #195568",
"A#	c #174D60",
"B#	c #144456",
"C#	c #0F3A4C",
"D#	c #215362",
"E#	c #287182",
"F#	c #388790",
"G#	c #3F8991",
"H#	c #3A8792",
"I#	c #317D8A",
"J#	c #2B7286",
"K#	c #328096",
"L#	c #448FA3",
"M#	c #30697D",
"N#	c #4C6B64",
"O#	c #414A00",
"P#	c #647327",
"Q#	c #81A62E",
"R#	c #6C8D32",
"S#	c #6D9C27",
"T#	c #55673F",
"U#	c #45493D",
"V#	c #687536",
"W#	c #788A32",
"X#	c #22758D",
"Y#	c #206371",
"Z#	c #216271",
"`#	c #227991",
" $	c #217C99",
".$	c #217C98",
"+$	c #217B97",
"@$	c #23768B",
"#$	c #227487",
"$$	c #236D80",
"%$	c #246B7C",
"&$	c #236A7A",
"*$	c #216F80",
"=$	c #226F80",
"-$	c #206A7E",
";$	c #28667A",
">$	c #226278",
",$	c #1A5D73",
"'$	c #165366",
")$	c #1E5569",
"!$	c #356B7C",
"~$	c #5B6A1B",
"{$	c #697934",
"]$	c #668632",
"^$	c #689D23",
"/$	c #649226",
"($	c #464C3E",
"_$	c #60693C",
":$	c #227184",
"<$	c #236879",
"[$	c #1F5D6A",
"}$	c #206474",
"|$	c #227790",
"1$	c #217D9A",
"2$	c #217996",
"3$	c #227890",
"4$	c #23768E",
"5$	c #226E7F",
"6$	c #205F6C",
"7$	c #1F7087",
"8$	c #236C84",
"9$	c #29667A",
"0$	c #196077",
"a$	c #124353",
"b$	c #1E5A6F",
"c$	c #375F5D",
"d$	c #424919",
"e$	c #484B3A",
"f$	c #49533E",
"g$	c #57793D",
"h$	c #558232",
"i$	c #5F6E39",
"j$	c #6A7735",
"k$	c #5A623E",
"l$	c #484D3F",
"m$	c #4C4F41",
"n$	c #22778D",
"o$	c #22768C",
"p$	c #227183",
"q$	c #236876",
"r$	c #226270",
"s$	c #246A7B",
"t$	c #237183",
"u$	c #227A93",
"v$	c #227488",
"w$	c #20768F",
"x$	c #20718B",
"y$	c #1C6B83",
"z$	c #1A5E74",
"A$	c #13495B",
"B$	c #1A596F",
"C$	c #24515C",
"D$	c #1C1E13",
"E$	c #3E3F2E",
"F$	c #607D3B",
"G$	c #59743E",
"H$	c #58763E",
"I$	c #5B773A",
"J$	c #535F41",
"K$	c #494C40",
"L$	c #5D663C",
"M$	c #768731",
"N$	c #247488",
"O$	c #227284",
"P$	c #227386",
"Q$	c #236C7F",
"R$	c #23798E",
"S$	c #217A94",
"T$	c #236B7D",
"U$	c #227A94",
"V$	c #20758F",
"W$	c #19637A",
"X$	c #175569",
"Y$	c #255B6F",
"Z$	c #4D94A8",
"`$	c #171A11",
" %	c #232917",
".%	c #5C7026",
"+%	c #6E8633",
"@%	c #577A3C",
"#%	c #4F8231",
"$%	c #576440",
"%%	c #68713A",
"&%	c #718331",
"*%	c #246878",
"=%	c #236B7C",
"-%	c #23748A",
";%	c #22778E",
">%	c #227388",
",%	c #217C97",
"'%	c #226B7E",
")%	c #217C9A",
"!%	c #227B97",
"~%	c #217A96",
"{%	c #1E7692",
"]%	c #1A657D",
"^%	c #255D74",
"/%	c #5FAAAE",
"(%	c #1E444F",
"_%	c #191D03",
":%	c #303913",
"<%	c #425813",
"[%	c #627628",
"}%	c #5A743C",
"|%	c #61743B",
"1%	c #6A7832",
"2%	c #246979",
"3%	c #216B7D",
"4%	c #1F5D69",
"5%	c #216777",
"6%	c #236E80",
"7%	c #21768E",
"8%	c #207692",
"9%	c #206C89",
"0%	c #3D7684",
"a%	c #29778F",
"b%	c #2C848F",
"c%	c #1C2111",
"d%	c #414E0F",
"e%	c #9CA924",
"f%	c #7B9632",
"g%	c #6A8636",
"h%	c #5D6D3D",
"i%	c #474C3E",
"j%	c #4C5640",
"k%	c #22758A",
"l%	c #227588",
"m%	c #226F81",
"n%	c #205F6D",
"o%	c #22778F",
"p%	c #206473",
"q%	c #216270",
"r%	c #226876",
"s%	c #216675",
"t%	c #236878",
"u%	c #227792",
"v%	c #207B9B",
"w%	c #207895",
"x%	c #206879",
"y%	c #225E73",
"z%	c #13465E",
"A%	c #207089",
"B%	c #427179",
"C%	c #1F3406",
"D%	c #647F28",
"E%	c #8DB12B",
"F%	c #6C8935",
"G%	c #4C5C3C",
"H%	c #4F543E",
"I%	c #6F7C35",
"J%	c #217790",
"K%	c #217B95",
"L%	c #227A95",
"M%	c #227083",
"N%	c #237085",
"O%	c #236777",
"P%	c #236877",
"Q%	c #246877",
"R%	c #236F80",
"S%	c #21697C",
"T%	c #216372",
"U%	c #236E7F",
"V%	c #216375",
"W%	c #1E6B84",
"X%	c #19617D",
"Y%	c #326981",
"Z%	c #488A9B",
"`%	c #2A4600",
" &	c #3F5328",
".&	c #7CA430",
"+&	c #779334",
"@&	c #66902B",
"#&	c #5E822C",
"$&	c #55623C",
"%&	c #236978",
"&&	c #227992",
"*&	c #21606D",
"=&	c #216575",
"-&	c #227893",
";&	c #216473",
">&	c #22768B",
",&	c #217489",
"'&	c #1D6981",
")&	c #38778D",
"!&	c #4B93A5",
"~&	c #253529",
"{&	c #313E14",
"]&	c #637A2C",
"^&	c #789033",
"/&	c #6D952B",
"(&	c #4B603B",
"_&	c #226D7F",
":&	c #227287",
"<&	c #217E9A",
"[&	c #217791",
"}&	c #227286",
"|&	c #236979",
"1&	c #227993",
"2&	c #227C98",
"3&	c #20738D",
"4&	c #24677A",
"5&	c #377786",
"6&	c #427164",
"7&	c #334D0F",
"8&	c #415B27",
"9&	c #7C8E2B",
"0&	c #6E7E34",
"a&	c #236E81",
"b&	c #236676",
"c&	c #20606D",
"d&	c #21616F",
"e&	c #20616F",
"f&	c #22768D",
"g&	c #1F7DA0",
"h&	c #1F7DA1",
"i&	c #237084",
"j&	c #23798F",
"k&	c #237588",
"l&	c #217992",
"m&	c #1E697C",
"n&	c #1C5B6E",
"o&	c #306F73",
"p&	c #487E70",
"q&	c #5A7926",
"r&	c #6C8339",
"s&	c #83A92D",
"t&	c #768931",
"u&	c #236776",
"v&	c #207D9F",
"w&	c #216474",
"x&	c #226776",
"y&	c #217692",
"z&	c #226575",
"A&	c #1C5967",
"B&	c #184F5D",
"C&	c #316765",
"D&	c #497C4F",
"E&	c #648F2D",
"F&	c #547A33",
"G&	c #678437",
"H&	c #81A52E",
"I&	c #687439",
"J&	c #5E683A",
"K&	c #206270",
"L&	c #227387",
"M&	c #216374",
"N&	c #216877",
"O&	c #216F81",
"P&	c #206573",
"Q&	c #1F5E6C",
"R&	c #216876",
"S&	c #236B7E",
"T&	c #216371",
"U&	c #237A8F",
"V&	c #1F616F",
"W&	c #1D687B",
"X&	c #598047",
"Y&	c #62802D",
"Z&	c #516C3A",
"`&	c #4E673A",
" *	c #6C8835",
".*	c #6F8A33",
"+*	c #4C732F",
"@*	c #226B7D",
"#*	c #227185",
"$*	c #226E82",
"%*	c #226D80",
"&*	c #236675",
"**	c #226978",
"=*	c #22768A",
"-*	c #206171",
";*	c #22697A",
">*	c #237A90",
",*	c #206E80",
"'*	c #1B6479",
")*	c #1B5B6D",
"!*	c #618350",
"~*	c #7EA030",
"{*	c #5D773C",
"]*	c #55703E",
"^*	c #718536",
"/*	c #657436",
"(*	c #628A27",
"_*	c #585E41",
":*	c #20697A",
"<*	c #21606E",
"[*	c #226676",
"}*	c #226472",
"|*	c #226878",
"1*	c #207B9A",
"2*	c #20687A",
"3*	c #22697B",
"4*	c #207793",
"5*	c #1A6A86",
"6*	c #1F6984",
"7*	c #3E8182",
"8*	c #637B31",
"9*	c #63813C",
"0*	c #5F7A3C",
"a*	c #6E8332",
"b*	c #5F6A3A",
"c*	c #4E633A",
"d*	c #6F8E26",
"e*	c #227B98",
"f*	c #246C7D",
"g*	c #227489",
"h*	c #217894",
"i*	c #1C6E8A",
"j*	c #1A627F",
"k*	c #30788B",
"l*	c #4C6835",
"m*	c #57713E",
"n*	c #5E7A3C",
"o*	c #718F31",
"p*	c #515843",
"q*	c #616D39",
"r*	c #A0AB24",
"s*	c #909B2B",
"  . + @ # $ % & * = - ; > , ' ) ! ~ { ] ^ / ( _ : : < [ } | 1 + ",
"2   3 1 4 5 6 7 8 9 0 a b c d ' e f g h i j k l m : n o p q r s ",
"b t u v w n x y z A B C D E F G H I J K L M N O P Q R b S T U V ",
"V W X Y Z n `  ...B B C E D +.@.#.$.%.&.*.=.-.;.>.,.# '.).!.~.{.",
"].^./.(._.:.a <.[.}.|.1.2.).3.4.0 5.6.7.8.:.9.0.a.>.1 w b.c.d.e.",
"f.g.h.i.j.k.l.m.n.o.p.q.r.s.t.U u.v.w.w.x.y.q.p.z.A.B.C.D.E.F.G.",
"H.I.J.K.L.M.N.O.P.Q.R.S.T.U.: V.W.s.X.Y.Z.C `. +.+++@+#+$+%+&+0 ",
"*+=+-+;+>+,+'+)+!+~+{+]+^+/+D (+_+:+<+[+}+|+v.1+2+3+4+5+6+7+8+9+",
"0+a+b+c+d+e+f+g+h+i+j+k+l+m+n+o+p+q+r+].0 c s+t+: p u+9.v+w+x+o.",
"y+z+A+B+C+D+E+F+i+G+H+I+J+K+L+M+N+O+u P+Q+v+R+S+: T+U+0.V+M W+X+",
"Y+Z+`+ @.@+@@@#@$@%@&@*@=@-@;@>@,@'@)@!@~@{@]@^@/@(@_@:@<@[@}@|@",
"1@2@3@4@5@6@7@8@9@0@a@b@c@d@e@f@g@h@i@j@k@l@m@n@o@p@C.[ q@r@s@: ",
"t@u@v@w@x@y@z@A@B@C@D@E@F@G@H@I@J@K@L@M@N@O@P@Q@R@S@T@U@V@W@/ X@",
"Y@Z@`@ #.#+#@###$#%#&#*#=#-#;#>#,#'#)#!#~#{#]#^#/#(#_#:#<#[#}#|#",
"1#2#3#4#5#5#6#7#8#9#0#a#b#c#d#e#f#g#h#i#j#k#l#m#n#o#p#q#m : r#s#",
"t#u#v#w#x#y#z#A#B#C#D#E#F#G#H#I#J#K#L#M#N#O#P#Q#R#S#T#U#: m V#W#",
"X#Y#Z#`# $.$+$@$#$$$#$%$&$*$=$-$;$>$,$'$)$!$~${$]$^$/$($_$1 3.t ",
":$<$[$}$|$1$2$$$#$#$3$4$5$6$Z#7$8$9$0$a$b$c$d$e$f$g$h$i$j$k$l$m$",
"n$o$p$q$&$r$s$t$#$3$3$.$u$%$v$w$x$y$z$A$B$C$D$E$F$G$H$I$J$K$L$M$",
"n$o$t$N$#$O$P$Q$R$3$.$.$S$T$U$.$V$x$W$X$Y$Z$`$ %.%+%@%#%$%%%2 &%",
"*%s$=%-%U$;%P$s$>%+$.$,%v$'%U$)%!%~%{%]%^%/%(%_%:%<%[%}%|%1%(#E ",
"t$P$#$O$%$>%P$s$2%>%o$3%4%5%6%7%!%.$.$8%9%0%a%b%c%d%e%f%g%h%i%j%",
"#$k%l%l%m%n%|$o%#$p%q%r%s%r%=%2%t%u%v%w%x%y%z%A%B%C%D%E%F%G%H%I%",
"k%J%K%L%M%r$N%o$O$O%O%P%Q%R%#$O$S%T%U%#$V%W%X%Y%Z%`% &.&+&@&#&$&",
"%&&&.$.$+$k%*&Z#=&O$#$U%#$#$-&`#o$>%;&>&>&,&'&)&!&~&{&]&^&/&(&u.",
"_&:&<&)%>%%$&$[&v%~%3$#$$$#$}&o$o$l%|&1&.$2&3&4&5&6&7&8&9&0&u.v.",
"U$a&b&c&d&e&f&g&h&g&3$O$i&j&>&}$=&O$#$k&~%l&m&n&o&p&q&r&s&t&: V.",
".$o$P%P%u&q%o$v&g&[&w&x&>&1$y&z&#$#$#$#$|&A&B&C&D&E&F&G&H&I&V.J&",
"o%K&=&O$L&M&N&p$O&P&Q&R&=%S&n%T&U&l%#$#$V&W&Q&X&Y&Z&`& *.*+*..J&",
";&@*_&#*$*6$c&%*&**%**o%S$=*M%-*;*>*3$U%,*'*)*!*~*{*]*^*/*(*}@_*",
":*o$>&=%<*[*}*>%U$>&|*o%1*o$:$2*;&3*t$*%4*5*6*7*8*9*0*a*b*c*d*J ",
"o$e*@$=%|&p$|&>%.$!%P$P$f*S&:$g*#$3$o%p$h*i*j*k*l*m*n*o*p*q*r*s*"};
