/* XPM */
static char * wallwater_border_left_1_xpm[] = {
"32 32 650 2",
"  	c #4E5140",
". 	c #515A41",
"+ 	c #646F38",
"@ 	c #6A792D",
"# 	c #6D822A",
"$ 	c #697B33",
"% 	c #667A36",
"& 	c #709815",
"* 	c #79B00C",
"= 	c #5A8434",
"- 	c #54743B",
"; 	c #424D29",
"> 	c #3A5863",
", 	c #0E4556",
"' 	c #185E6D",
") 	c #186675",
"! 	c #186D81",
"~ 	c #1A6979",
"{ 	c #196777",
"] 	c #1A697A",
"^ 	c #1A6677",
"/ 	c #17606F",
"( 	c #17616F",
"_ 	c #186776",
": 	c #147589",
"< 	c #167386",
"[ 	c #176372",
"} 	c #167285",
"| 	c #127892",
"1 	c #494C3E",
"2 	c #585F3F",
"3 	c #657430",
"4 	c #799127",
"5 	c #7D9F20",
"6 	c #9EAE0D",
"7 	c #89AC19",
"8 	c #5D9324",
"9 	c #8FAC1E",
"0 	c #83971A",
"a 	c #424E11",
"b 	c #30647A",
"c 	c #1C4759",
"d 	c #0F5064",
"e 	c #166374",
"f 	c #0E7D9B",
"g 	c #107B97",
"h 	c #196978",
"i 	c #196B7C",
"j 	c #157284",
"k 	c #177082",
"l 	c #1B697A",
"m 	c #186778",
"n 	c #16606E",
"o 	c #166F81",
"p 	c #186E80",
"q 	c #778A2A",
"r 	c #616F38",
"s 	c #4E5340",
"t 	c #4B4E3F",
"u 	c #606E39",
"v 	c #6E9813",
"w 	c #739B15",
"x 	c #A0B416",
"y 	c #96A818",
"z 	c #738D05",
"A 	c #536B00",
"B 	c #3B473A",
"C 	c #45808F",
"D 	c #19495C",
"E 	c #0E4E66",
"F 	c #156577",
"G 	c #0D7D9B",
"H 	c #0F7B98",
"I 	c #13778E",
"J 	c #167087",
"K 	c #187083",
"L 	c #147488",
"M 	c #196A7C",
"N 	c #167184",
"O 	c #186678",
"P 	c #176E82",
"Q 	c #687A34",
"R 	c #68772D",
"S 	c #617539",
"T 	c #658F23",
"U 	c #62872E",
"V 	c #608237",
"W 	c #567727",
"X 	c #365B02",
"Y 	c #2E3E08",
"Z 	c #3F717E",
"` 	c #5E97A3",
" .	c #184457",
"..	c #0A465C",
"+.	c #0E6B85",
"@.	c #0E7B98",
"#.	c #0F7C98",
"$.	c #176F85",
"%.	c #196272",
"&.	c #176475",
"*.	c #1B6A7B",
"=.	c #157386",
"-.	c #117A96",
";.	c #117B96",
">.	c #4A4D3F",
",.	c #515442",
"'.	c #474B3E",
").	c #56633D",
"!.	c #505F3D",
"~.	c #729629",
"{.	c #A3BC0C",
"].	c #A9BF02",
"^.	c #647B10",
"/.	c #314B01",
"(.	c #385455",
"_.	c #529FB7",
":.	c #327E96",
"<.	c #184253",
"[.	c #0E4E65",
"}.	c #0A7291",
"|.	c #1A6B7D",
"1.	c #137791",
"2.	c #0D7E9C",
"3.	c #137A92",
"4.	c #5E6A37",
"5.	c #515642",
"6.	c #535A3D",
"7.	c #6E7D2E",
"8.	c #617C39",
"9.	c #6E8C32",
"0.	c #719220",
"a.	c #819C1B",
"b.	c #6F750F",
"c.	c #334204",
"d.	c #37869D",
"e.	c #417A8C",
"f.	c #254F5E",
"g.	c #0C4054",
"h.	c #10596D",
"i.	c #11738C",
"j.	c #0F7C9A",
"k.	c #097DA0",
"l.	c #127992",
"m.	c #19697A",
"n.	c #196B7D",
"o.	c #186E82",
"p.	c #196373",
"q.	c #5E6C36",
"r.	c #47543B",
"s.	c #476B2F",
"t.	c #7F9C21",
"u.	c #7F9C2A",
"v.	c #5B762C",
"w.	c #3D5B0C",
"x.	c #38430C",
"y.	c #293205",
"z.	c #3A432B",
"A.	c #59A1B6",
"B.	c #356271",
"C.	c #164A5D",
"D.	c #114F61",
"E.	c #155F71",
"F.	c #117894",
"G.	c #0A7C9E",
"H.	c #0E7B9A",
"I.	c #167084",
"J.	c #176D83",
"K.	c #186F82",
"L.	c #18697A",
"M.	c #127A95",
"N.	c #14788D",
"O.	c #157387",
"P.	c #18606F",
"Q.	c #186877",
"R.	c #196776",
"S.	c #436233",
"T.	c #4F5D36",
"U.	c #9CB115",
"V.	c #9CB314",
"W.	c #577A18",
"X.	c #394A02",
"Y.	c #252C0E",
"Z.	c #1B1703",
"`.	c #739CA3",
" +	c #5F919D",
".+	c #31606E",
"++	c #0E4C5E",
"@+	c #135B6C",
"#+	c #136D80",
"$+	c #156A7E",
"%+	c #186474",
"&+	c #186F81",
"*+	c #186B7F",
"=+	c #0F7B9A",
"-+	c #166E80",
";+	c #167186",
">+	c #157488",
",+	c #44473C",
"'+	c #4A4E3D",
")+	c #75982B",
"!+	c #97B416",
"~+	c #5A7E13",
"{+	c #28300B",
"]+	c #171910",
"^+	c #2F3531",
"/+	c #78A9B2",
"(+	c #386878",
"_+	c #205162",
":+	c #105064",
"<+	c #135E73",
"[+	c #117692",
"}+	c #127A94",
"|+	c #14748A",
"1+	c #176575",
"2+	c #13778D",
"3+	c #12778E",
"4+	c #137890",
"5+	c #0C7B9C",
"6+	c #166879",
"7+	c #157388",
"8+	c #13788D",
"9+	c #4E5041",
"0+	c #659125",
"a+	c #72A514",
"b+	c #5B7C11",
"c+	c #23390E",
"d+	c #191A15",
"e+	c #589DAE",
"f+	c #4D8191",
"g+	c #336473",
"h+	c #13495B",
"i+	c #125E71",
"j+	c #137086",
"k+	c #12778F",
"l+	c #14768A",
"m+	c #186A7B",
"n+	c #166778",
"o+	c #5B633C",
"p+	c #677530",
"q+	c #5A7337",
"r+	c #7FB20A",
"s+	c #78AB16",
"t+	c #527016",
"u+	c #3D5109",
"v+	c #487D88",
"w+	c #3E7C8F",
"x+	c #305F6F",
"y+	c #0D4053",
"z+	c #0E485A",
"A+	c #115063",
"B+	c #145F73",
"C+	c #13748A",
"D+	c #156576",
"E+	c #176677",
"F+	c #15768A",
"G+	c #196C7E",
"H+	c #14768B",
"I+	c #186F83",
"J+	c #16697C",
"K+	c #127995",
"L+	c #6B7A2C",
"M+	c #617639",
"N+	c #658E23",
"O+	c #517231",
"P+	c #567634",
"Q+	c #617F1C",
"R+	c #547D60",
"S+	c #194A5B",
"T+	c #0D4153",
"U+	c #0E4456",
"V+	c #104A5C",
"W+	c #115366",
"X+	c #0F6983",
"Y+	c #127694",
"Z+	c #196677",
"`+	c #166574",
" @	c #176473",
".@	c #13768C",
"+@	c #137B92",
"@@	c #107D9A",
"#@	c #6C7A31",
"$@	c #607338",
"%@	c #6F7A35",
"&@	c #627437",
"*@	c #535D38",
"=@	c #5C7938",
"-@	c #7A9E24",
";@	c #627B29",
">@	c #0D4151",
",@	c #0C4152",
"'@	c #0E4658",
")@	c #124D5F",
"!@	c #12576A",
"~@	c #16677B",
"{@	c #186473",
"]@	c #137B91",
"^@	c #147389",
"/@	c #186574",
"(@	c #1A6574",
"_@	c #14778D",
":@	c #809727",
"<@	c #9DAC12",
"[@	c #89A01D",
"}@	c #6B7D35",
"|@	c #5E673B",
"1@	c #799C26",
"2@	c #7FA721",
"3@	c #616427",
"4@	c #345962",
"5@	c #0F495B",
"6@	c #0F5A6E",
"7@	c #106A82",
"8@	c #13768B",
"9@	c #167185",
"0@	c #166273",
"a@	c #176A7C",
"b@	c #127993",
"c@	c #147588",
"d@	c #186A7A",
"e@	c #196877",
"f@	c #176D80",
"g@	c #137893",
"h@	c #107B96",
"i@	c #15697A",
"j@	c #95A817",
"k@	c #627339",
"l@	c #4C563E",
"m@	c #47493D",
"n@	c #677635",
"o@	c #7DA224",
"p@	c #668631",
"q@	c #585D2D",
"r@	c #305D69",
"s@	c #0C4255",
"t@	c #105E72",
"u@	c #0B7390",
"v@	c #157286",
"w@	c #15697C",
"x@	c #176A7D",
"y@	c #117B97",
"z@	c #176A7B",
"A@	c #196E83",
"B@	c #526040",
"C@	c #4E583F",
"D@	c #74872B",
"E@	c #79982A",
"F@	c #5C7E36",
"G@	c #6A742A",
"H@	c #4D828B",
"I@	c #08526A",
"J@	c #0D4C5D",
"K@	c #105B6D",
"L@	c #186779",
"M@	c #186D80",
"N@	c #14758B",
"O@	c #13758E",
"P@	c #0C7D9D",
"Q@	c #0C7D9E",
"R@	c #196D7F",
"S@	c #667236",
"T@	c #779126",
"U@	c #637231",
"V@	c #6B7A31",
"W@	c #72842C",
"X@	c #5C7C38",
"Y@	c #688730",
"Z@	c #506116",
"`@	c #2C7B85",
" #	c #0F5B73",
".#	c #114C5D",
"+#	c #135363",
"@#	c #186172",
"##	c #0B7D9F",
"$#	c #0B7D9E",
"%#	c #0C7D9C",
"&#	c #107A98",
"*#	c #14768C",
"=#	c #186D82",
"-#	c #73822C",
";#	c #5C6B38",
">#	c #6F7E2C",
",#	c #667A31",
"'#	c #638331",
")#	c #5F7D21",
"!#	c #283D05",
"~#	c #1F5F6A",
"{#	c #1F677E",
"]#	c #0F4A5C",
"^#	c #145565",
"/#	c #146073",
"(#	c #147489",
"_#	c #0E7C9A",
":#	c #0E7D9A",
"<#	c #097EA0",
"[#	c #117791",
"}#	c #176F83",
"|#	c #19697B",
"1#	c #157083",
"2#	c #0F7D99",
"3#	c #5E6E36",
"4#	c #5B7738",
"5#	c #698B26",
"6#	c #3A5D15",
"7#	c #294300",
"8#	c #347E83",
"9#	c #1F5B6F",
"0#	c #0F5268",
"a#	c #145567",
"b#	c #155B6E",
"c#	c #0F7B97",
"d#	c #0F7B99",
"e#	c #15697D",
"f#	c #196676",
"g#	c #186C81",
"h#	c #0E7D9D",
"i#	c #15748A",
"j#	c #626F33",
"k#	c #4A4E3E",
"l#	c #618A2A",
"m#	c #527E2B",
"n#	c #517115",
"o#	c #282E08",
"p#	c #16494F",
"q#	c #3F8A9F",
"r#	c #205466",
"s#	c #0E576C",
"t#	c #175E6F",
"u#	c #146B81",
"v#	c #186576",
"w#	c #186C80",
"x#	c #15758B",
"y#	c #157082",
"z#	c #0C7C9D",
"A#	c #057EA4",
"B#	c #0F7A98",
"C#	c #186C7D",
"D#	c #545841",
"E#	c #555D3A",
"F#	c #566835",
"G#	c #78941B",
"H#	c #4E6F16",
"I#	c #467300",
"J#	c #304F45",
"K#	c #428FA1",
"L#	c #376F82",
"M#	c #1A4E60",
"N#	c #12586B",
"O#	c #136E82",
"P#	c #186B7C",
"Q#	c #196574",
"R#	c #186E81",
"S#	c #185F6D",
"T#	c #165E6C",
"U#	c #147087",
"V#	c #117A95",
"W#	c #117B95",
"X#	c #107997",
"Y#	c #077EA2",
"Z#	c #097C9F",
"`#	c #15738C",
" $	c #17606E",
".$	c #7C882D",
"+$	c #9DA913",
"@$	c #749523",
"#$	c #648A2A",
"$$	c #5B7711",
"%$	c #5D7D00",
"&$	c #467362",
"*$	c #397581",
"=$	c #34687A",
"-$	c #114859",
";$	c #11576C",
">$	c #0E7390",
",$	c #117896",
"'$	c #177084",
")$	c #17697B",
"!$	c #196170",
"~$	c #166D7F",
"{$	c #176D81",
"]$	c #177085",
"^$	c #166D80",
"/$	c #196474",
"($	c #13788F",
"_$	c #5B643D",
":$	c #8C9728",
"<$	c #8F9B23",
"[$	c #67842E",
"}$	c #6B891D",
"|$	c #6B8500",
"1$	c #4A745E",
"2$	c #427F87",
"3$	c #3B7786",
"4$	c #225A6A",
"5$	c #105569",
"6$	c #0D7494",
"7$	c #087EA2",
"8$	c #0E7D9C",
"9$	c #1A6A7B",
"0$	c #127891",
"a$	c #167083",
"b$	c #196A7B",
"c$	c #177083",
"d$	c #525C41",
"e$	c #545F40",
"f$	c #627F34",
"g$	c #638431",
"h$	c #59770A",
"i$	c #416730",
"j$	c #68AD9E",
"k$	c #3E7C8C",
"l$	c #215A6B",
"m$	c #115263",
"n$	c #176A7E",
"o$	c #196475",
"p$	c #186879",
"q$	c #14788E",
"r$	c #14798F",
"s$	c #829126",
"t$	c #617138",
"u$	c #545A41",
"v$	c #5B7F36",
"w$	c #5D8832",
"x$	c #678723",
"y$	c #4F6F1B",
"z$	c #5F9573",
"A$	c #569DA7",
"B$	c #215769",
"C$	c #135465",
"D$	c #176B7F",
"E$	c #147991",
"F$	c #176373",
"G$	c #186C83",
"H$	c #186A7C",
"I$	c #156574",
"J$	c #196B7E",
"K$	c #87A31C",
"L$	c #758929",
"M$	c #606D36",
"N$	c #576D3B",
"O$	c #7AB307",
"P$	c #6DA40E",
"Q$	c #93A409",
"R$	c #666D19",
"S$	c #6EAB9E",
"T$	c #285F6C",
"U$	c #135C6E",
"V$	c #147388",
"W$	c #196D81",
"X$	c #176E80",
"Y$	c #53593D",
"Z$	c #5F712F",
"`$	c #647A35",
" %	c #616E39",
".%	c #739429",
"+%	c #80AB21",
"@%	c #98AF19",
"#%	c #516312",
"$%	c #4A7A74",
"%%	c #2B6976",
"&%	c #115668",
"*%	c #107691",
"=%	c #1A6777",
"-%	c #195F6E",
";%	c #13768D",
">%	c #13788E",
",%	c #117993",
"'%	c #434E3A",
")%	c #6A9222",
"!%	c #799424",
"~%	c #758E2A",
"{%	c #6E9130",
"]%	c #5F8C27",
"^%	c #6D8E19",
"/%	c #325549",
"(%	c #1E545F",
"_%	c #0F4858",
":%	c #10738D",
"<%	c #0D7C9A",
"[%	c #067EA3",
"}%	c #484C3D",
"|%	c #7B872D",
"1%	c #A5B205",
"2%	c #7A8C27",
"3%	c #4D7728",
"4%	c #547438",
"5%	c #54872C",
"6%	c #7AAF11",
"7%	c #698316",
"8%	c #1F4A4A",
"9%	c #0F4354",
"0%	c #0D6883",
"a%	c #196A7A",
"b%	c #1A6879",
"c%	c #127692",
"d%	c #1B687A",
"e%	c #157389",
"f%	c #0B7C9E",
"g%	c #087DA1",
"h%	c #647130",
"i%	c #849C20",
"j%	c #839C20",
"k%	c #4F702E",
"l%	c #75A408",
"m%	c #64802A",
"n%	c #5F7D3A",
"o%	c #5A7F36",
"p%	c #68900E",
"q%	c #335C30",
"r%	c #253B31",
"s%	c #0C4558",
"t%	c #106A80",
"u%	c #157184",
"v%	c #14748B",
"w%	c #7A9326",
"x%	c #697730",
"y%	c #59633E",
"z%	c #5D673B",
"A%	c #7CA515",
"B%	c #677E35",
"C%	c #5F783A",
"D%	c #85992B",
"E%	c #66881B",
"F%	c #567233",
"G%	c #274446",
"H%	c #0E4555",
"I%	c #13697E",
"J%	c #137488",
"K%	c #176F84",
"L%	c #186575",
"M%	c #677631",
"N%	c #57643E",
"O%	c #5C663D",
"P%	c #657331",
"Q%	c #607038",
"R%	c #56623F",
"S%	c #59653D",
"T%	c #7F8C2D",
"U%	c #82AD1D",
"V%	c #6C8F28",
"W%	c #5A7B2D",
"X%	c #465837",
"Y%	c #0E3B49",
"Z%	c #0F596C",
"`%	c #127084",
" &	c #177185",
".&	c #107B99",
"+&	c #14758C",
"@&	c #176574",
"#&	c #166A7D",
"$&	c #117C95",
"  . + @ # $ % & * = - ; > , ' ) ! ~ { ] ^ / ( _ : : : < [ / } | ",
"  1 2 3 4 5 6 7 8 9 0 a b c d e f g } h i j k l : : : m n o } p ",
"q r s t u v w x y z A B C D E F G H I J K L : i M N < O m : : P ",
"Q R s t S T U V W X Y Z `  ...+.G @.f f #.$.< %.&.N : : *.=.-.;.",
">.,.'.).!.~.{.].^./.(._.:.<.[.}.G G G G G f L |.: : : : N 1.2.3.",
"4.5.6.7.8.9.0.a.b.c.d.e.f.g.h.i.j.G G G k.l.m._ : : : : m.n.o.p.",
"q.r.s.t.u.v.w.x.y.z.A.B.C.D.E.] m.F.G.H.I.J.I K.L.M.N.O.P.Q.L.R.",
"s S.T.U.V.W.X.Y.Z.`. +.+++@+#+=.$+%+&+: *+;.f =+-+m.;+O.n o >+} ",
",+,+'+)+!+~+{+]+^+/+(+_+:+<+[+}+I |+1+2+3+3+4+5+| 6+: : : &+7+8+",
",+t 9+0+a+b+c+d+e+f+g+h+D.i+j+k+I l+m+-.G G -.: L L : : : : n+8+",
"o+p+q+r+s+t+u+v+w+x+y+z+A+B+C+D+E+< : F+H ;.l+M G+: : : H+I+J+K+",
"L+r M+N+O+P+Q+R+S+T+U+V+W+X+Y+Z+: : : : M `+G+%. @=..@-.+@l+@@G ",
"#@$@%@&@*@=@-@;@>@,@'@)@!@~@/ {@]@l+: :  @=.: ^@%+/@j m.(@< _@g ",
":@<@[@}@|@1@2@3@4@T+5@6@7@8@9@0@a@+@b@&+< : : : c@d@e@f@g@h@b@i@",
"j@k@l@m@n@o@p@q@r@s@5@t@u@3+v@w@1+x@} l j.G y@l+: z@1+;.G G f A@",
"k@B@t C@D@E@F@G@H@I@J@K@L@M@v@N@: b@| } j.G G #.b@O@8@#.P@Q@g R@",
"S@T@U@V@W@X@Y@Z@`@ #.#+#@#< : : .@-.G j._@##$#%#G g &#*#: : I.=#",
"-#S@;#>#,#'#)#!#~#{#]#^#/#(#: b@_#:#G <#: .@[#:#g }#|#1#: i@|+2#",
"7.6.5.3#4#5#6#7#8#9#0#a#b#I.: c#G c#P@d#: : e#f#g#N@h#h#i#%+: l+",
"j#'.k#l#m#n#o#p#q#r#s#t#u#m+v#w#2+: x#n+.@-.y#i }#z#A#A#B#C#O G+",
"D#E#F#G#H#I#J#K#L#M#N#O#v@P#Q#G+: R#S#T#U#V#W#: L X#Y#Z#`# $ $v#",
".$+$@$#$$$%$&$*$=$-$;$>$,$i#'$O.: )$!$~$1#{$]$: p *#G 3+^$/$($2+",
"_$:$<$[$}$|$1$2$3$4$5$6$7$8$: G+9$E+0$j.f 0$a$b$J f G j.i#c$g j.",
"d$e$S@f$g$h$i$j$k$l$m$n$I J O.o$p$q$f G G f r$>+l+d#Y#Q@-.G+}#I ",
"s$t$u$v$w$x$y$z$A$B$C$D$I g E$ @F$X#$#%#_#G$H$I$p L >+J$P : : &+",
"K$L$M$N$O$P$Q$R$S$T$U$H+f G h@=.) V$[#k+W$k : : L L a$X$: : _@2+",
"Y$Z$`$ %.%+%@%#%$%%%&%*%G G P@x#_ ~ =%-%&+;%: : : : G+h@>%>%f ,%",
"'%)%v !%~%{%]%^%/%(%_%:%G G <%p$v#~ ~ =%;%j.c#-.: &+< c#Y#Y#Y#[%",
"}%|%1%2%3%4%5%6%7%8%9%0%d##.1.m a%=.=.b%< b@G.G.c%d%e%f%[%A#g%,$",
"h%i%j%k%l%m%n%o%p%q%r%s%t%V$: : '$O.: u%< : < m 6+} } $.k+[#v%m.",
"w%x%y%z%A%B%B@C%D%E%F%G%H%I%J%: : G+K%l+: : ~$L%;+2+3+I i !$1+m+",
"M%N%O%P%Q%R%S%T%U%V%W%X%Y%Z%`%: < a% &.&g +&n @&m.|+##8$m.#&$&d#"};
