/* XPM */
static char * mushroom_2_xpm[] = {
"32 32 234 2",
"  	c #59750A",
". 	c #538200",
"+ 	c #449B00",
"@ 	c #405B24",
"# 	c #4A4D45",
"$ 	c #65A200",
"% 	c #567B01",
"& 	c #464744",
"* 	c #4C5735",
"= 	c #4A533C",
"- 	c #4D6B18",
"; 	c #516E13",
"> 	c #638E00",
", 	c #4B5C30",
"' 	c #51730B",
") 	c #4A6226",
"! 	c #749C00",
"~ 	c #494C42",
"{ 	c #3E7400",
"] 	c #328A00",
"^ 	c #495334",
"/ 	c #474A42",
"( 	c #3C8200",
"_ 	c #5A8500",
": 	c #4B7402",
"< 	c #4E6521",
"[ 	c #438A00",
"} 	c #465935",
"| 	c #2B6219",
"1 	c #369300",
"2 	c #48A200",
"3 	c #4F9200",
"4 	c #306A0C",
"5 	c #569700",
"6 	c #44523B",
"7 	c #48720D",
"8 	c #308200",
"9 	c #578B00",
"0 	c #347B00",
"a 	c #36631A",
"b 	c #377306",
"c 	c #4D7B00",
"d 	c #5D9E00",
"e 	c #6C4942",
"f 	c #3C7A00",
"g 	c #559B00",
"h 	c #6A9300",
"i 	c #62403C",
"j 	c #78544A",
"k 	c #856051",
"l 	c #99755D",
"m 	c #94705A",
"n 	c #7B574C",
"o 	c #563534",
"p 	c #402126",
"q 	c #82AD00",
"r 	c #639B00",
"s 	c #589400",
"t 	c #6B8400",
"u 	c #7CA900",
"v 	c #6D4A43",
"w 	c #855F52",
"x 	c #A98870",
"y 	c #B59681",
"z 	c #9F7C60",
"A 	c #8C6756",
"B 	c #7D584D",
"C 	c #5C3B38",
"D 	c #4B2C2D",
"E 	c #355B24",
"F 	c #7BA500",
"G 	c #3F1F25",
"H 	c #735047",
"I 	c #7F5A4E",
"J 	c #A5836A",
"K 	c #987563",
"L 	c #876153",
"M 	c #65433E",
"N 	c #422327",
"O 	c #573635",
"P 	c #3E8C00",
"Q 	c #4C6B0D",
"R 	c #72A300",
"S 	c #46631D",
"T 	c #593936",
"U 	c #9F7B60",
"V 	c #9A765E",
"W 	c #6A4741",
"X 	c #432428",
"Y 	c #48292B",
"Z 	c #5B3A37",
"` 	c #417B00",
" .	c #3F2025",
"..	c #6F4C44",
"+.	c #866052",
"@.	c #765249",
"#.	c #613F3C",
"$.	c #5D3B39",
"%.	c #436918",
"&.	c #492A2C",
"*.	c #745047",
"=.	c #805A4F",
"-.	c #9E7A5F",
";.	c #8A6555",
">.	c #6C4A43",
",.	c #613F3B",
"'.	c #4A2B2C",
").	c #755248",
"!.	c #64423D",
"~.	c #3F2026",
"{.	c #452E27",
"].	c #AA8A77",
"^.	c #7F594E",
"/.	c #835E51",
"(.	c #775349",
"_.	c #4B2B2D",
":.	c #1D0C0F",
"<.	c #452F28",
"[.	c #9E7B64",
"}.	c #A1806E",
"|.	c #553433",
"1.	c #1E0D0F",
"2.	c #67493E",
"3.	c #A07D65",
"4.	c #9B7A68",
"5.	c #503030",
"6.	c #30171B",
"7.	c #5E4338",
"8.	c #A58570",
"9.	c #8B6555",
"0.	c #5D3B38",
"a.	c #4A2B2D",
"b.	c #2A1317",
"c.	c #000000",
"d.	c #79594A",
"e.	c #96725A",
"f.	c #9B775E",
"g.	c #8D6756",
"h.	c #8D6856",
"i.	c #593A36",
"j.	c #603F3B",
"k.	c #533432",
"l.	c #361B1F",
"m.	c #422D26",
"n.	c #544030",
"o.	c #815F4E",
"p.	c #523232",
"q.	c #422627",
"r.	c #1D0B0E",
"s.	c #1C0B0E",
"t.	c #472009",
"u.	c #60351B",
"v.	c #5F3419",
"w.	c #5F3318",
"x.	c #337200",
"y.	c #3F522E",
"z.	c #974C1F",
"A.	c #B36739",
"B.	c #D48461",
"C.	c #DE8D6B",
"D.	c #B46839",
"E.	c #954A1C",
"F.	c #CE7F5B",
"G.	c #EDA080",
"H.	c #F1AC8A",
"I.	c #F9C19D",
"J.	c #F5B794",
"K.	c #EA9676",
"L.	c #DD8C6B",
"M.	c #B26638",
"N.	c #964B1F",
"O.	c #8BB100",
"P.	c #CC7E5E",
"Q.	c #F8BF9B",
"R.	c #EDA07F",
"S.	c #E79574",
"T.	c #BF724A",
"U.	c #A85D30",
"V.	c #61A000",
"W.	c #D78868",
"X.	c #F9C3A1",
"Y.	c #F9C3A0",
"Z.	c #FAC9AA",
"`.	c #FACEB3",
" +	c #EA9777",
".+	c #C3764F",
"++	c #AC6033",
"@+	c #479900",
"#+	c #AF6442",
"$+	c #E69474",
"%+	c #FBD7C1",
"&+	c #FAC8AA",
"*+	c #FBDCC9",
"=+	c #B16638",
"-+	c #9D5327",
";+	c #376B0D",
">+	c #4F9A00",
",+	c #B06543",
"'+	c #EEA180",
")+	c #FAC8A9",
"!+	c #FBDCC8",
"~+	c #9E5327",
"{+	c #509B00",
"]+	c #408300",
"^+	c #DD8C6C",
"/+	c #F5B895",
"(+	c #AE6235",
"_+	c #3F6123",
":+	c #974B1F",
"<+	c #EA9677",
"[+	c #50250C",
"}+	c #88B000",
"|+	c #D5886B",
"1+	c #F6B895",
"2+	c #EEA382",
"3+	c #A35D33",
"4+	c #7E4F3D",
"5+	c #F6BA97",
"6+	c #EB9A7A",
"7+	c #AF6335",
"8+	c #52280F",
"9+	c #B7755C",
"0+	c #E1AC8C",
"a+	c #F7B895",
"b+	c #E89575",
"c+	c #C0734A",
"d+	c #A25D33",
"e+	c #743916",
"f+	c #7F4F3D",
"g+	c #7F503E",
"h+	c #784A37",
"i+	c #3F493C",
"j+	c #3C3C3C",
"k+	c #334326",
"  . + @ #   $ % & & * = * %   - ; > -   % , ' % ; # # ) - , ' ! ",
"~ { ] ^ / * ( _ / / :   # , < * % ; < % ; < ' ( [ & # ;   } } ' ",
"_ <   ; @ | 1 2 3 ) )   % , # ;   = = < ) : 4 + 5 < # / = 6 & 7 ",
"  ' = % ! % 8 [ ' 9 % )   ' (   - & # 0 a ' < @ ~ # # # # = = b ",
"# # / , c 5 d .   '   , } 1 1 e e * ) 1 f g - * ) c 9 >   ' - } ",
"< = ^   )   h d 3 3 9 ' i j k l m n o p _ q 9 9 r q d h c , ^ # ",
"< ~ | s t < < - 9 $ u v w w x y z A B C D q 3 3 s _ : 0 # & / & ",
"~ E @ F F   % ^ G H I w w w J K A L M N D O o p [ % 9 P ' Q = < ",
"& & ~ [ R % S T L A U U V L B B B W D X p p Y Z D q u u 3 ` % % ",
"& ~ # `  ...n +.V U U U U A @.#.i i i $.p p p p D O o p %.) - , ",
", ' %.&.*.=.w w V U U U -.;.w >.i i i i $.X p p p p Y ,.'.^ # ~ ",
"' - &.).=.!.w w L V U U ;.w w >.i i i i i D p p p p p Y Z ~.= _ ",
"' - {.].^.!.W /.w w w w w w (.i i i i i i _.p p p p p p Z :.' g ",
"5 q <.[.}.^.i W *.w w w I e i i i i i i i _.p p p p p |.Y 1._ _ ",
"F ; = 2.3.4.^.e i i i i i i i i i i i i |.p p p p p 5.Y 6.9 % < ",
"- } # = 7.3.8.9.B B i i i i i i i i 0.a.p p p p Y Z Y b.t 5 s % ",
"' 9 ; c % c.d.e.f.g.h.L I v v v i.i._.D D D j.Z k.l.c.# # < - % ",
"_ - -   ; < : m.n.o.h.L I v v v v v i p.D D q.r.s.d ! 3 _ - = } ",
"% } = ) ) : 4 + s c.c.t.u.v.w.w.w.w.u.u.t.c.c.u u u u ! R ' %.* ",
"x./ y.x.@ : < @ ~ # # z.A.B.C.C.C.C.D.D.z.[ < < - [ + 0 a = % ' ",
"- @ 4 ] { r - * ) c 9 E.F.G.H.I.J.K.L.M.N.. q O._ + 2 + ` % . ) ",
"t > ( 0 ` F _ [ r u r P.G.Q.I.I.Q.R.S.T.U.  % > V.5 8 8   ` x.Q ",
"- . > Q ` q 3 3 3 [ : W.X.Y.Z.`.I.I. +.+++# } - - 9 % < - ) _ F ",
"- a Q S < 9 @+V.P   #+$+Z.%+&+*+I.I. +.+=+-+& # / ) 1 ;+< 9 q >+",
"> - 6 %.4 % [ @+! q ,+'+)+!+)+!+I.I. +.+A.~+< ~ & = < ' . 3   ) ",
"{+]+S - + P u q q N.^+/+%+!+%+!+I.I. +.+A.(+N.^ & ) _ g 9 ] _+# ",
"^ x.{ - % s ! [ 7 :+<+J.!+!+%+!+I.I. +.+A.A.:+8 @ ' _ - %.+ {+' ",
"/ P @+9 c ' x.>+` [+<+J.!+!+)+!+I.I. +.+A.A.[+S / ' ; = } %.. 9 ",
"~ _ }+> x.@ 4 + s c.|+1+%+!+Z.%+I.2+C.M.A.3+c.^ & ~ < _ 3 ' f + ",
"; {+r %.2 0 , a P - 4+'+&+`.X.Y.5+6+T.A.7+8+- / / ; s d c c ( ) ",
"9 ' , - 2 % } * _ . ' 9+0+a+1+'+b+c+D.d+e+> , , < %   , / y.: ' ",
"' * ) ; - , , 9 {+' , , _ f+f+g+h+v.u.[ O.t . s ' ( ^ y.i+j+k+Q "};
