/* XPM */
static char * mushroom_3_xpm[] = {
"32 32 212 2",
"  	c #59750A",
". 	c #538200",
"+ 	c #449B00",
"@ 	c #405B24",
"# 	c #4A4D45",
"$ 	c #65A200",
"% 	c #567B01",
"& 	c #464744",
"* 	c #4C5735",
"= 	c #4A533C",
"- 	c #6C4942",
"; 	c #638E00",
"> 	c #4D6B18",
", 	c #4B5C30",
"' 	c #51730B",
") 	c #516E13",
"! 	c #4A6226",
"~ 	c #749C00",
"{ 	c #494C42",
"] 	c #3E7400",
"^ 	c #328A00",
"/ 	c #495334",
"( 	c #474A42",
"_ 	c #3C8200",
": 	c #5A8500",
"< 	c #4B7402",
"[ 	c #62403C",
"} 	c #78544A",
"| 	c #856051",
"1 	c #99755D",
"2 	c #94705A",
"3 	c #7B574C",
"4 	c #563534",
"5 	c #402126",
"6 	c #4E6521",
"7 	c #438A00",
"8 	c #465935",
"9 	c #2B6219",
"0 	c #369300",
"a 	c #48A200",
"b 	c #4F9200",
"c 	c #6D4A43",
"d 	c #855F52",
"e 	c #A98870",
"f 	c #B59681",
"g 	c #9F7C60",
"h 	c #8C6756",
"i 	c #7D584D",
"j 	c #5C3B38",
"k 	c #4B2C2D",
"l 	c #306A0C",
"m 	c #569700",
"n 	c #44523B",
"o 	c #48720D",
"p 	c #308200",
"q 	c #7F5A4E",
"r 	c #A5836A",
"s 	c #987563",
"t 	c #876153",
"u 	c #65433E",
"v 	c #422327",
"w 	c #573635",
"x 	c #377306",
"y 	c #4D7B00",
"z 	c #5D9E00",
"A 	c #815E4F",
"B 	c #9F7B60",
"C 	c #9A765E",
"D 	c #835D51",
"E 	c #6A4741",
"F 	c #4B2B2D",
"G 	c #578B00",
"H 	c #6A9300",
"I 	c #7B564B",
"J 	c #613F3B",
"K 	c #432428",
"L 	c #82AD00",
"M 	c #589400",
"N 	c #6B8400",
"O 	c #9E7A5F",
"P 	c #8A6555",
"Q 	c #6C4A43",
"R 	c #5D3B39",
"S 	c #347B00",
"T 	c #355B24",
"U 	c #7BA500",
"V 	c #3E8C00",
"W 	c #4C6B0D",
"X 	c #72A300",
"Y 	c #765249",
"Z 	c #775349",
"` 	c #5D3C39",
" .	c #7CA900",
"..	c #417B00",
"+.	c #845E51",
"@.	c #745047",
"#.	c #523232",
"$.	c #436918",
"%.	c #000000",
"&.	c #947161",
"*.	c #937161",
"=.	c #7F594E",
"-.	c #64423D",
";.	c #553433",
">.	c #8E6A59",
",.	c #A88873",
"'.	c #A1806E",
").	c #5D3B38",
"!.	c #4A2B2D",
"~.	c #422D26",
"{.	c #916D58",
"].	c #9E7B64",
"^.	c #AA8A76",
"/.	c #8D6856",
"(.	c #593A36",
"_.	c #5B3A37",
":.	c #48292B",
"<.	c #3E2025",
"[.	c #1D0C0E",
"}.	c #559B00",
"|.	c #442E27",
"1.	c #785549",
"2.	c #391C21",
"3.	c #1E0C0F",
"4.	c #472009",
"5.	c #60351B",
"6.	c #5F3419",
"7.	c #5F3318",
"8.	c #974C1F",
"9.	c #B36739",
"0.	c #D48461",
"a.	c #DE8D6B",
"b.	c #B46839",
"c.	c #509B00",
"d.	c #964B1F",
"e.	c #CE7F5B",
"f.	c #EDA080",
"g.	c #F1AC8A",
"h.	c #F9C19D",
"i.	c #F5B794",
"j.	c #EA9676",
"k.	c #DD8C6B",
"l.	c #B26638",
"m.	c #3F6123",
"n.	c #EA9777",
"o.	c #F5B895",
"p.	c #F8BF9B",
"q.	c #EDA07F",
"r.	c #61A000",
"s.	c #46631D",
"t.	c #AF6442",
"u.	c #EEA382",
"v.	c #FBD6BE",
"w.	c #FAC8AA",
"x.	c #FBDCC8",
"y.	c #9E5327",
"z.	c #419500",
"A.	c #4A8F00",
"B.	c #337200",
"C.	c #3F522E",
"D.	c #D88868",
"E.	c #AC6134",
"F.	c #36631A",
"G.	c #639B00",
"H.	c #D78868",
"I.	c #EEA281",
"J.	c #FAC8A9",
"K.	c #AC6033",
"L.	c #8BB100",
"M.	c #E69474",
"N.	c #F7C0A0",
"O.	c #FBDBC6",
"P.	c #FBD7C1",
"Q.	c #B16638",
"R.	c #9D5327",
"S.	c #B16644",
"T.	c #EB9878",
"U.	c #9E5328",
"V.	c #479900",
"W.	c #FACEB2",
"X.	c #376B0D",
"Y.	c #4F9A00",
"Z.	c #80503E",
"`.	c #FAC9AA",
" +	c #FBDCC9",
".+	c #F6BA97",
"++	c #D38461",
"@+	c #B26738",
"#+	c #408300",
"$+	c #D4896B",
"%+	c #F9C3A0",
"&+	c #FACEB3",
"*+	c #A25D33",
"=+	c #B7755C",
"-+	c #EFA482",
";+	c #FBD1B7",
">+	c #F3B08E",
",+	c #E18F6E",
"'+	c #AF6335",
")+	c #743916",
"!+	c #805644",
"~+	c #D99778",
"{+	c #EB9A7A",
"]+	c #B66A3E",
"^+	c #A35D33",
"/+	c #52280F",
"(+	c #88B000",
"_+	c #3C7A00",
":+	c #7D9E00",
"<+	c #3F493C",
"[+	c #3C3C3C",
"}+	c #334326",
"  . + @ #   $ % & & * = * %   - - ; >   % , ' % ) # # ! > , ' ~ ",
"{ ] ^ / ( * _ : ( ( <   [ } | 1 2 3 4 5 ) 6 ' _ 7 & # )   8 8 ' ",
": 6   ) @ 9 0 a b ! ! c d d e f g h i j k < l + m 6 # ( = n & o ",
"  ' = % ~ % p 7 ' 5 q d d d r s h t u v k w 5 @ { # # # # = = x ",
"# # ( , y m z .   A B B C t D i i E F F 5 5 w * ! y G ;   ' > 8 ",
"6 = /   !   H 5 I 1 B B B h i J [ [ [ [ 5 5 K w 5 L z H y , / # ",
"6 { 9 M N 6 6 3 h g B B O P d Q [ [ [ [ R K 5 5 w : < S # & ( & ",
"{ T @ U U 5 3 d t h B B P d d Q [ [ [ [ [ k 5 5 K w 5 V ' W = 6 ",
"& & { 7 X u Y Y d d d d d d Z [ [ [ [ [ [ F 5 5 5 5 `  .b ..% % ",
"& { # 5 u +.[ [ @.d d d q - [ [ [ [ [ [ [ F 5 5 5 5 #.k 5 ! > , ",
", ' $.%.&.*.=.-.[ [ [ [ [ [ [ [ [ [ [ [ ;.5 5 5 5 5 k k %./ # { ",
"' > o %.>.,.'.=.Z [ [ [ [ [ [ [ [ [ ).!.5 5 5 5 5 ;.w K %.< = : ",
"' >   > ~.{.].^./././.t q c c c (.(.F k k k k k _.:.<.[.< , ' }.",
"m L z ' ! ~.|.1./././.t q c c c c c [ #.k k k k 2.3.[.U : ' : : ",
"U ) = # ) M ) %.%.%.%.4.5.6.7.7.7.7.5.5.4.%.%.%.%..   ~ L G % 6 ",
"> 8 # = . . , ) % ) # 8.9.0.a.a.a.a.b.b.8., , G c.' , ! N m M % ",
"' G ) y % * ' % ) { # d.e.f.g.h.i.j.k.l.d.  ' + + m.# # # 6 > % ",
": > >   ) 6 < _ 7 & # d.n.o.h.h.p.q.k.l.d.c.L r.S z ~ b : > = 8 ",
"% 8 = ! ! < l + M s.# t.u.v.w.x.h.h.k.l.y.z.A. . . . .~ X ' $.* ",
"B.( C.B.@ < 6 @ { # # D.u.v.w.x.h.h.k.l.E.7 6 6 > 7 + S F.= % ' ",
"> @ l ^ ] G.> * ! y G H.I.v.J.x.h.h.k.l.K.. L L.: + a + ..% . ! ",
"N ; _ S ..U : 7 G. .t.M.N.O.P.x.h.h.k.l.Q.R.% ; r.m p p   ..B.W ",
"> . ; W ..L b b b 7 S.T.w.x.x.x.h.h.k.l.9.U.8 > > G % 6 > ! : U ",
"> F.W s.6 G V.r.V   S.T.w.x.W.x.h.h.k.l.9.U.& # ( ! 0 X.6 G L Y.",
"; > n $.l % 7 V.~ L Z.T.`.x.w. +h..+++@+b.5.6 { & = 6 ' . b   ! ",
"c.#+s.> + V  .L L #+0 $+%+P.`.&+h.u.@+9.*+> ' / & ! : }.G ^ m.# ",
"/ B.] > % M ~ 7 o ! B.=+-+;+h..+>+,+9.'+)+: b p @ ' : > $.+ c.' ",
"( V V.G y ' B.Y..., * { !+~+u.{+,+]+^+/+$.m b s.( ' ) = 8 $.. G ",
"{ : (+; B.@ l + M > % % o %.%.%.%.%.%._+l X G / & { 6 : b ' _++ ",
") c.G.$.a S , F.V > G X G   . G , # # 8 . X > ( ( ) M z y y _ ! ",
"G ' , > a % 8 * : . ' :+%.b % 6 # # # %.X ; , , 6 %   , ( C.< ' ",
"' * ! ) > , , G c.' , , : %.; % ' 8 %.7 L.N . M ' _ / C.<+[+}+W "};
