/* XPM */
static char * mushroom_1_xpm[] = {
"32 32 235 2",
"  	c #59750A",
". 	c #538200",
"+ 	c #449B00",
"@ 	c #405B24",
"# 	c #4A4D45",
"$ 	c #65A200",
"% 	c #567B01",
"& 	c #464744",
"* 	c #4C5735",
"= 	c #4A533C",
"- 	c #4D6B18",
"; 	c #516E13",
"> 	c #638E00",
", 	c #4B5C30",
"' 	c #51730B",
") 	c #4A6226",
"! 	c #749C00",
"~ 	c #494C42",
"{ 	c #3E7400",
"] 	c #328A00",
"^ 	c #495334",
"/ 	c #474A42",
"( 	c #3C8200",
"_ 	c #5A8500",
": 	c #4B7402",
"< 	c #4E6521",
"[ 	c #438A00",
"} 	c #465935",
"| 	c #2B6219",
"1 	c #369300",
"2 	c #48A200",
"3 	c #4F9200",
"4 	c #306A0C",
"5 	c #569700",
"6 	c #44523B",
"7 	c #48720D",
"8 	c #308200",
"9 	c #578B00",
"0 	c #347B00",
"a 	c #36631A",
"b 	c #377306",
"c 	c #4D7B00",
"d 	c #5D9E00",
"e 	c #3C7A00",
"f 	c #559B00",
"g 	c #6A9300",
"h 	c #337200",
"i 	c #4FA900",
"j 	c #7CA900",
"k 	c #82AD00",
"l 	c #639B00",
"m 	c #589400",
"n 	c #6B8400",
"o 	c #88B000",
"p 	c #509B00",
"q 	c #355B24",
"r 	c #7BA500",
"s 	c #61A000",
"t 	c #56A400",
"u 	c #3E8C00",
"v 	c #4C6B0D",
"w 	c #72A300",
"x 	c #46631D",
"y 	c #436918",
"z 	c #4F9A00",
"A 	c #417B00",
"B 	c #62403C",
"C 	c #573734",
"D 	c #593936",
"E 	c #6C4942",
"F 	c #755248",
"G 	c #8C6756",
"H 	c #8B6555",
"I 	c #66453E",
"J 	c #492A2C",
"K 	c #4B2C2D",
"L 	c #402126",
"M 	c #63413C",
"N 	c #825D50",
"O 	c #855F52",
"P 	c #926E59",
"Q 	c #7C584D",
"R 	c #7D584D",
"S 	c #835D51",
"T 	c #9F7C65",
"U 	c #AF8F79",
"V 	c #9E7A5F",
"W 	c #5A3937",
"X 	c #573635",
"Y 	c #5B3A37",
"Z 	c #4A2B2C",
"` 	c #62413B",
" .	c #886659",
"..	c #613F3B",
"+.	c #99755D",
"@.	c #9F7B60",
"#.	c #9A765D",
"$.	c #AB8B77",
"%.	c #47282B",
"&.	c #48292B",
"*.	c #603F3B",
"=.	c #735246",
"-.	c #A88976",
";.	c #694640",
">.	c #735047",
",.	c #8A6555",
"'.	c #876252",
").	c #6E4B43",
"!.	c #603E3B",
"~.	c #5A3A37",
"{.	c #3F2026",
"].	c #391D21",
"^.	c #735247",
"/.	c #9D7961",
"(.	c #78564C",
"_.	c #694741",
":.	c #835E51",
"<.	c #9A765E",
"[.	c #946F5A",
"}.	c #866052",
"|.	c #6D4A43",
"1.	c #4B2B2D",
"2.	c #432428",
"3.	c #573735",
"4.	c #371B20",
"5.	c #432E27",
"6.	c #94705C",
"7.	c #8F6A59",
"8.	c #775349",
"9.	c #876153",
"0.	c #65433E",
"a.	c #1D0C0F",
"b.	c #412C25",
"c.	c #A3836F",
"d.	c #906D5E",
"e.	c #6A4741",
"f.	c #3E2025",
"g.	c #1D0C0E",
"h.	c #503C2D",
"i.	c #957260",
"j.	c #856151",
"k.	c #503030",
"l.	c #412D26",
"m.	c #96735B",
"n.	c #8D6856",
"o.	c #613F3C",
"p.	c #543433",
"q.	c #3F2025",
"r.	c #523232",
"s.	c #5D3C39",
"t.	c #533432",
"u.	c #1C0B0E",
"v.	c #3F522E",
"w.	c #513D2E",
"x.	c #674D3D",
"y.	c #906B58",
"z.	c #8B6655",
"A.	c #775449",
"B.	c #4F3030",
"C.	c #2E181A",
"D.	c #000000",
"E.	c #6B4B42",
"F.	c #523533",
"G.	c #533633",
"H.	c #3D2325",
"I.	c #351B20",
"J.	c #8BB100",
"K.	c #7C3D16",
"L.	c #9C5930",
"M.	c #7D3D18",
"N.	c #B86C46",
"O.	c #CF835F",
"P.	c #EEA483",
"Q.	c #EEA382",
"R.	c #EDA07F",
"S.	c #EA9676",
"T.	c #E18F6E",
"U.	c #B66A3E",
"V.	c #AC6033",
"W.	c #479900",
"X.	c #AF6442",
"Y.	c #E69474",
"Z.	c #F7BA97",
"`.	c #F9C19D",
" +	c #F8BF9B",
".+	c #F5B794",
"++	c #EA9777",
"@+	c #B16638",
"#+	c #9D5327",
"$+	c #376B0D",
"%+	c #C27454",
"&+	c #F6B794",
"*+	c #FBD7C1",
"=+	c #F9C3A0",
"-+	c #FBDCC8",
";+	c #EA9677",
">+	c #B36739",
",+	c #A4592D",
"'+	c #408300",
")+	c #964B1F",
"!+	c #EDA080",
"~+	c #FAC9AA",
"{+	c #3F6123",
"]+	c #D88868",
"^+	c #FBD6BE",
"/+	c #AC6133",
"(+	c #CF8467",
"_+	c #FACEB2",
":+	c #A05B31",
"<+	c #B8765C",
"[+	c #FAD1B7",
"}+	c #EB9878",
"|+	c #C3764F",
"1+	c #8C4F2B",
"2+	c #EB9A7A",
"3+	c #F6BA96",
"4+	c #F6BA97",
"5+	c #B76B3F",
"6+	c #7A4C3A",
"7+	c #D69F81",
"8+	c #F6B895",
"9+	c #EEA180",
"0+	c #E89575",
"a+	c #DE8D6B",
"b+	c #B46839",
"c+	c #96532C",
"d+	c #4B220A",
"e+	c #7F4F3D",
"f+	c #7F503E",
"g+	c #784A37",
"h+	c #5E3317",
"i+	c #60351B",
"j+	c #3F493C",
"k+	c #3C3C3C",
"l+	c #334326",
"  . + @ #   $ % & & * = * %   - ; > -   % , ' % ; # # ) - , ' ! ",
"~ { ] ^ / * ( _ / / :   # , < * % ; < % ; < ' ( [ & # ;   } } ' ",
"_ <   ; @ | 1 2 3 ) )   % , # ;   = = < ) : 4 + 5 < # / = 6 & 7 ",
"  ' = % ! % 8 [ ' 9 % )   ' (   - & # 0 a ' < @ ~ # # # # = = b ",
"# # / , c 5 d .   '   , } 1 1 : = * ) 1 e f - * ) c 9 >   ' - } ",
"< = ^   )   g d 3 3 9 ' h i + } _ j 3 ' _ k 9 9 l k d g c , ^ # ",
"< ~ | m n < < - 9 $ j o d p , # , g ! ; _ k 3 3 m _ : 0 # & / & ",
"~ q @ r r   % ^ # , . k s j ! ) } * ; < - > + t [ % 9 u ' v = < ",
"& & ~ [ w % x & & # g l - [ r j > - = y y % . z ! k j j 3 A % % ",
"& ~ # A 3 % ~ ~ < - j % 6 | ] B B [ < ) 2 u j o k c 1 7 y ) - , ",
", ' y i + C D D D j . , / E F G H I J - c 5 $ K K K b y ~ ^ # ~ ",
"' - 7 L M N O O P Q R R R S T U V H F W W W X K K K Y Z v : = _ ",
"' -   `  ...O +.@.@.#.G O O U $.+.H F %.L L L L L L &.*.L , ' f ",
"5 k d =.-.;.>.H @.@.@.@.+.,.'.).E E !.~.L L L L L L {.Y ].' _ _ ",
"r ; = ^./.(._.:.,.+.<.@.[.O }.|.B B B B B 1.L L L L 2.3.4.9 % < ",
"- } # 5.6.7.8._.O O 9.G O O |.0.B B B B B 1.L L L L 3.2.a.5 m % ",
"' 9 ; c b.c.d.E B B e.R 8.B B B B B B B ..&.L L L &.f.g.# < - % ",
"_ - -   ; h.i.j.R e.B B B B B B B B B B &.L L L &.k.g.3 _ - = } ",
"% } = ) ) : l.m.n.n.j.E e.o.B B W W p.q.{.&.r.s.t.u.j ! w ' y * ",
"h / v.h @ : < w.x.n.y.z.S R R R A.A.W Y Y B.K C.u.[ + 0 a = % ' ",
"- @ 4 ] { l - * ) D.5.^.E.F.G.G.G.G.G.H.I.a.D.J._ + 2 + A % . ) ",
"n > ( 0 A r _ [ l j l K.L.L.L.L.L.L.L.L.M.  % > s 5 8 8   A h v ",
"- . > v A k 3 3 3 [ : N.O.P.Q.Q.R.S.T.U.V.# } - - 9 % < - ) _ r ",
"- a v x < 9 W.s u   X.Y.Z.`.`.`. +.+++T.@+#+& # / ) 1 $+< 9 k z ",
"> - 6 y 4 % [ W.! k %+&+*+=+-+-+`.`..+;+>+,+< ~ & = < ' . 3   ) ",
"p '+x - + u j k k )+!+ +-+~+-+-+`.`..+;+>+>+)+^ & ) _ f 9 ] {+# ",
"^ h { - % m ! [ 7 ]+Q.^+-+-+-+-+`.`..+;+>+>+/+8 @ ' _ - y + p ' ",
"/ u W.9 c ' h z A (+Q.^+-+_+-+-+`.`..+;+>+>+:+x / ' ; = } y . 9 ",
"~ _ o > h @ 4 + m <+Q.[+-+~+-+*+`.`.}+|+>+>+1+^ & ~ < _ 3 ' e + ",
"; p l y 2 0 , a u D.2+3+*+=+~+=+4+Q.T.5+>+,+D./ / ; m d c c ( ) ",
"9 ' , - 2 % } * _ . 6+7+8+8+8+9+0+a+b+b+c+d+, , < %   , / v.: ' ",
"' * ) ; - , , 9 p ' , , e+e+e+f+g+h+i+i+J.n . m ' ( ^ v.j+k+l+v "};
