/* XPM */
static char *result[] = {
/* columns rows colors chars-per-pixel */
"64 64 236 2 ",
"   c black",
".  c #070C02",
"X  c #161D07",
"o  c #0B1202",
"O  c #2A1E19",
"+  c #261C17",
"@  c #1B2707",
"#  c #202C0B",
"$  c #25330B",
"%  c #27380B",
"&  c #2D221A",
"*  c #292515",
"=  c #32261D",
"-  c #332A1E",
";  c #2D3D12",
":  c #273510",
">  c #35331C",
",  c #353A18",
"<  c #333D09",
"1  c #352A21",
"2  c #3A2D24",
"3  c #342721",
"4  c #3D3225",
"5  c #3E3128",
"6  c #413E1D",
"7  c #44362C",
"8  c #46392D",
"9  c #473A28",
"0  c #4C3C32",
"q  c #513C2C",
"w  c #2C420D",
"e  c #36470E",
"r  c #2E4014",
"t  c #334313",
"y  c #374A15",
"u  c #394C15",
"i  c #3A4D1B",
"p  c #374719",
"a  c #3D511A",
"s  c #3D5216",
"d  c #3C4B21",
"f  c #42561C",
"g  c #455B1C",
"h  c #475B18",
"j  c #464C1C",
"k  c #4B631D",
"l  c #49671C",
"z  c #556A1E",
"x  c #4A4629",
"c  c #58482D",
"v  c #455A21",
"b  c #4A5426",
"n  c #53542D",
"m  c #515B2B",
"M  c #534335",
"N  c #5C4A3B",
"B  c #574837",
"V  c #5C5233",
"C  c #5C5937",
"Z  c #634D3D",
"A  c #664935",
"S  c #6B533D",
"D  c #665938",
"F  c #785A3C",
"G  c #675F2F",
"H  c #4C6424",
"J  c #4D6A24",
"K  c #536C25",
"L  c #5A642A",
"P  c #566728",
"I  c #557225",
"U  c #5A742B",
"Y  c #5D7A2D",
"T  c #587527",
"R  c #596A32",
"E  c #5E7B32",
"W  c #5C7337",
"Q  c #617E2C",
"!  c #64752A",
"~  c #636A34",
"^  c #676838",
"/  c #746A3C",
"(  c #677A38",
")  c #767639",
"_  c #616827",
"`  c #5F4D40",
"'  c #634E42",
"]  c #655243",
"[  c #6C5443",
"{  c #6C5946",
"}  c #745A43",
"|  c #725B4B",
" . c #7A5D47",
".. c #7C624C",
"X. c #786546",
"o. c #7E7543",
"O. c #7B6150",
"+. c #6A6F44",
"@. c #835F3F",
"#. c #89713B",
"$. c #805F48",
"%. c #83634B",
"&. c #876947",
"*. c #926C49",
"=. c #897648",
"-. c #92734D",
";. c #9A794B",
":. c #846652",
">. c #8A6C53",
",. c #916D52",
"<. c #947252",
"1. c #9B7553",
"2. c #9A7B55",
"3. c #8B7452",
"4. c #A37C4A",
"5. c #A47B54",
"6. c #A87E57",
"7. c #5F812A",
"8. c #63822C",
"9. c #698A2D",
"0. c #658334",
"q. c #6A8A33",
"w. c #6C8C3A",
"e. c #6A8437",
"r. c #768839",
"t. c #74953D",
"y. c #7A9C3A",
"u. c #789738",
"i. c #718B30",
"p. c #7DA33E",
"a. c #6B8642",
"s. c #718A46",
"d. c #7A9847",
"f. c #7D9855",
"g. c #7F8F51",
"h. c #7FA445",
"j. c #84963C",
"k. c #84A93D",
"l. c #858947",
"z. c #97884A",
"x. c #87984A",
"c. c #97964A",
"v. c #998852",
"b. c #839C53",
"n. c #879B59",
"m. c #979D57",
"M. c #838D50",
"N. c #B5964E",
"B. c #AB8254",
"V. c #AA8459",
"C. c #A88957",
"Z. c #BA8D5C",
"A. c #B48959",
"S. c #A59654",
"D. c #BA975A",
"F. c #AB894C",
"G. c #87A649",
"H. c #95AA4D",
"J. c #84A353",
"K. c #8AA555",
"L. c #8AA858",
"P. c #95A859",
"I. c #9BB45C",
"U. c #98B356",
"Y. c #93B24E",
"T. c #A7A957",
"R. c #B0AF5C",
"E. c #889C66",
"W. c #8E9F71",
"Q. c #AB8B62",
"!. c #BB9B65",
"~. c #B69767",
"^. c #A59D60",
"/. c #8CA464",
"(. c #8CA269",
"). c #95A968",
"_. c #9AB369",
"`. c #97AA72",
"'. c #9BB171",
"]. c #A6A768",
"[. c #B9A967",
"{. c #A4B867",
"}. c #A9B875",
"|. c #BAB87A",
" X c #A8AF6B",
".X c #C59C5A",
"XX c #CC9A4E",
"oX c #CBA45C",
"OX c #D3A458",
"+X c #C99D65",
"@X c #C59B67",
"#X c #CBAB64",
"$X c #C3A36E",
"%X c #C8A567",
"&X c #D1A564",
"*X c #D3AD6B",
"=X c #D6AB67",
"-X c #DDB36B",
";X c #D8B56C",
":X c #CBAA76",
">X c #D4AD74",
",X c #C7B97A",
"<X c #D3B374",
"1X c #DAB977",
"2X c #CEB46C",
"3X c #E1B76A",
"4X c #E2BC76",
"5X c #ACC378",
"6X c #B6C67B",
"7X c #ABC26E",
"8X c #DCC279",
"9X c #E3C179",
"0X c #E0C16F",
"qX c #D8B983",
"wX c #E0BE89",
"eX c #BCC281",
"rX c #C5C583",
"tX c #D7C887",
"yX c #D7D193",
"uX c #E5C484",
"iX c #EACB83",
"pX c #E6C788",
"aX c #EDD48B",
"sX c #E7D38A",
"dX c #F2D58D",
"fX c #F5DB8E",
"gX c #E8CD93",
"hX c #EAD696",
"jX c #F4DC94",
"kX c #F4DA96",
"lX c #FAE49D",
"zX c #F8E199",
"xX c #EAE098",
"cX c #F0D6A2",
"vX c #FAE6A1",
"bX c None",
/* pixels */
"bXbXbXbXbXbXbXbXbXbXbXbXbXbXbXbXbXbXbXbXbXbXbXbXbXbXbXbXbXbXbXbXbXbXbXbXbXbXbXbXbXbXbXbXbXbXbXbXbXbXbXbXbXbXbXbXbXbXbXbXbXbXbXbX",
"bXbXbXbXbXbXbXbXbXbXbXbXbXbXbXbXbXbXbXbXbXbXbXbXbXbXbXbXbXbXbXbXbXbXbXbXbXbXbXbXbXbXbXbXbXbXbXbXbXbXbXbXbXbXbXbXbXbXbXbXbXbXbXbX",
"bXbXbXbXbXbXbXbXbXbXbXbXbXbXbXbXbXbXbXbXbXbXbXbXbXbXbXbXbXbXbXbXbXbXbXbXbXbXbXbXbXbXbXbXbXbXbXbXbXbXbXbXbXbXbXbXbXbXbXbXbXbXbXbX",
"bXbXbXbXbXbXbXbXbXbXbXbXbXbXbXbXbXbXbXbXbXbXbXbXbXbXbXbXbXbXbXbXbXbXbXbXbXbXbXbXbXbXbXbXbXbXbXbXbXbXbXbXbXbXbXbXbXbXbXbXbXbXbXbX",
"bXbXbXbXbXbXbXbXbXbXbXbXbXbXbXbXbXbXbXbXbXbX( ~ bXbXbXbXbXbXbXbXbXbXbXbXbXbXbXbXbXbXbXbXbXbXbXbXbXbXbXbXbXbXbXbXbXbXbXbXbXbXbXbX",
"bXbXbXbXbXbXbXbXbXbXbXbXbXbXbXbXbXbXbXbXc.P.m.r.b , bXbXbXbXbXbXbXbXbXbXbXbXbXbXbXbXbXbXbXbXbXbXbXbXbXbXbXbXbXbXbXbXbXbXbXbXbXbX",
"bXbXbXbXbXbXbXbXbXbXbXbXbXbXbXbXbXbXbXbXc.[.].c.m , X bXbXbXbXbXbXbXbXbXbXbXbXbXbXbXbXbXbXbXbXbXbXbXbXbXbXbXbXbXbXbXbXbXbXbXbXbX",
"bXbXbXbXbXbXbXbXbXbXbXbXbXbXbXbXbXbXbXS. X%XS.c./ x > bXbXbXbXbXbXbXbXbXbXbXbXbXbXbXbXbXbXbXbXbXbXbXbXbXbXbXbXbXbXbXbXbXbXbXbXbX",
"bXbXbXbXbXbXbXbXbXbXbXbXbXbXbXbXbXbXbXtXyXsXD.D.S./ V 6 bXbXbXbXbXbXbXbXbXbXbXbXbXbXbXbXbXbXbXbXbXbXbXbXbXbXbXbXbXbXbXbXbXbXbXbX",
"bXbXbXbXbXbXbXbXbXbXbXbXbXbXbXbXbXF.tXxXxX8X#X;X=XF.V > bXbXbXbXbXbXbXbXbXbXbXbXbXbXbXbXbXbXbXbXbXbXbXbXbXbXbXbXbXbXbXbXbXbXbXbX",
"bXbXbXbXbXbXbXbXbXbXbXbXbXbXbXbXbXN.hXxXsX2X,XtXtX1XM - bXbXbXbXbXbXbXbXbXbXbXbXbXbXbXbXbXbXbXbXbXbXbXbXbXbXbXbXbXbXbXbXbXbXbXbX",
"bXbXbXbXbXbXbXbXbXbXbXbXbXbXbXbXbXN.8X9X2XD.fXhXhX~.2 & bXbXbXbXbXbXbXbXbXbXbXbXbXbXbXbXbXbXbXbXbXbXbXbXbXbXbXbXbXbXbXbXbXbXbXbX",
"bXbXbXbXbXbXbXbXbXbXbXbXbXbXbXbXbX#X0X;X#XC.!.pX:XB 1 = O bXbXbXbXbXbXbXbXbXbXbXbXbXbXbXbXbXbXbXbXbXbXbXbXbXbXbXbXbXbXbXbXbXbXbX",
"bXbXbXbXbXbXbXbXbXbXbXbXbXbXbXbXoX9XfXfXiX!.B.5.Z 4 4 1 + bXbXbXbXbXbXbXbXbXbXbXbXbXbXbXbXbXbXbXbXbXbXbXbXbXbXbXbXbXbXbXbXbXbXbX",
"bXbXbXbXbXbXbXbXbXbXbXbXbXbXbXbX=XzXvXkXkXpXA.[ 8 7 4 1 & bXbXbXbXbXbXbXbXbXbXbXbXbXbXbXbXbXbXbXbXbXbXbXbXbXbXbXbXbXbXbXbXbXbXbX",
"bXbXbXbXbXbXbXbXbXbXbXbXbXbXbXbX&XkXvXlXzXgXB.N N 8 1 & 4 - bXbXbXbXbXbXbXbXbXbXbXbXbXbXbXbXbXbXbXbXbXbXbXbXbXbXbXbXbXbXbXbXbXbX",
"bXbXbXbXbXbXbXbXbXbXbXbXbXbXbXbXOX-XdXdXpXQ. .[ %.| 3 O 2 = bXbXbXbXbXbXbXbXbXbXbXbXbXbXbXbXbXbXbXbXbXbXbXbXbXbXbXbXbXbXbXbXbXbX",
"bXbXbXbXbXbXbXbXbXbXbXbXbXbXbXXXoX&X&X%XZ.:.| <.6.} 3 O = O bXbXbXbXbXbXbXbXbXbXbXbXbXbXbXbXbXbXbXbXbXbXbXbXbXbXbXbXbXbXbXbXbXbX",
"bXbXbXbXbXbXbXbXbXbXbXbXbXbXbX.X&X&X&XZ.A.%.O.Q.$X[ 3 2 O + bXbXbXbXbXbXbXbXbXbXbXbXbXbXbXbXbXbXbXbXbXbXbXbXbXbXbXbXbXbXbXbXbXbX",
"bXbXbXbXbXbXbXbXbXbXbXbXbXbX4.9XiXdXuX=X>X@X:.Q.Q.q 7 q 1 * * bXbXbXbXbXbXbXbXbXbXbXbXbXbXbXbXbXbXbXbXbXbXbXbXbXbXbXbXbXbXbXbXbX",
"bXbXbXbXbXbXbXbXbXbXbXbXbXbX!.fXjXdXkXdXwX@X5.$.Z 8 q q 4 1 > bXbXbXbXbXbXbXbXbXbXbXbXbXbXbXbXbXbXbXbXbXbXbXbXbXbXbXbXbXbXbXbXbX",
"bXbXbXbXbXbXbXbXbXbXbXbXbXF %XzXlXkXkXpX@X1.$.[ N [ } [ 7 9 q > bXbXbXbXbXbXbXbXbXbXbXbXbXbXbXbXbXbXbXbXbXbXbXbXbXbXbXbXbXbXbXbX",
"bXbXbXbXbXbXbXbXbXbXbXbXbXA XXdXvXlXcXdX@X$.[ ' %.Z.@X@X4.B 9 1 bXbXbXbXbXbXbXbXbXbXbXbXbXbXbXbXbXbXbXbXbXbXbXbXbXbXbXbXbXbXbXbX",
"bXbXbXbXbXbXbXbXbXbXbXbXbXc XX=X>X4X>X+X1.' q 4.*X1XpX1X$X*.9 1 bXbXbXbXbXbXbXbXbXbXbXbXbXbXbXbXbXbXbXbXbXbXbXbXbXbXbXbXbXbXbXbX",
"bXbXbXbXbXbXbXbXbXbXbXbXbX4.XXXX+X<.1.6.| 0 A >XgXgXgXwX&X>.0 & bXbXbXbXbXbXbXbXbXbXbXbXbXbXbXbXbXbXbXbXbXbXbXbXbXbXbXbXbXbXbXbX",
"bXbXbXbXbXbXbXbXbXbXbXbXA oX3X-X+X5.>.,.[ 7 N Z.gXcXcXgX6.' 0 3 bXbXbXbXbXbXbXbXbXbXbXbXbXbXbXbXbXbXbXbXbXbXbXbXbXbXbXbXbXbXbXbX",
"bXbXbXbXbXbXbXbXbXbXbXbXM Z.&X-X>X2.O.:.' :.:.| .X>X>XQ.' 7 2 + + bXbXbXbXbXbXbXbXbXbXbXbXbXbXbXbXbXbXbXbXbXbXbXbXbXbXbXbXbXbXbX",
"bXbXbXbXbXbXbXbXbXbXbXbX7 ..V.!.~.O.[ :.Q.qX:X6. .1.| [ 0 0 & O + bXbXbXbXbXbXbXbXbXbXbXbXbXbXbXbXbXbXbXbXbXbXbXbXbXbXbXbXbXbXbX",
"bXbXbXbXbXbXbXbXbXbXbXbX7 B =.V.6. .` O.qXqXqXQ.N ' ' [ ' 0 & 3 & * bXbXbXbXbXbXbXbXbXbXbXbXbXbXbXbXbXbXbXbXbXbXbXbXbXbXbXbXbXbX",
"bXbXbXbXbXbXbXbXbXbXbX4 S N [ Z.Q.:.| :.Q.qX:X,.0 ' [ A [ 0 = 1 2 * = bX4.#.bXbXbXbXbXbXbXbXbXbXbXbXbXbXbXbXbXbXbXbXbXbXbXbXbXbX",
"bXbXbXbXbXbXbXbXbXbXbXM { M N V.1.>.,.:.,.6.:.|  .*.F A | ' B 1 = 1 #..X=XN.S bXbXbXbXbXbXbXbXbXbXbXbXbXbXbXbXbXbXbXbXbXbXbXbXbX",
"bXbXbXbXbXbXbXbXbXbXbXM B M M <.6.5.6.| 6.6.6.6.,.6.4.$.&XB.[ 0 2 - .X1X1X.XF q = bXbXbXbXbXbXbXbXbXbXbXbXbXbXbXbXbXbXbXbXbXbXbX",
"bXbXbXbXbXbXbXbXbXbXV ) { M N %.6.1.,.6.Z.@X:X$X.X2X..#X-X.X' 7 0 F oX3XoXB.X.q - bXbXbXbXbXbXbXbXbXbXbXbXbXbXbXbXbXbXbXbXbXbXbX",
"bXbXbXbXbXbXbXbXbXbXG =.] | :.3.>.,.S $.~.uXdXdXkX~.S .X!.[ 7 ' 2.9XzXaXD.Z.B. .M 9 bXbXbXbXbXbXbXbXbXbXbXbXbXbXbXbXbXbXbXbXbXbX",
"bXbXbXbXbXbXbXbXbXbX( #.+.#X8X*X,.Z 0 ' ,.%X*XqXqXC.` | [ 8 $.*.1XlXlXdX&X-X=XF.S 7 bXbXbXbXbXbXbXbXbXbXbXbXbXbXbXbXbXbXbXbXbXbX",
"bXbXbXbXbXbXbXbXbXbX) / / 2XgXgX*X} 7 0 Z  .$.&.@.F S | N 0 &.N.jXlXzX4X4XiX9X1XZ 2 bXbXbXbXbXbXbXbXbXbXbXbXbXbXbXbXbXbXbXbXbXbX",
"bXbXbXbXbXbXbXbXbXbX) G ^ v.tXhXgX2.,.5.1.| } @.&.@.-.3.....*.N.dXdX4X*XdXkXdX1Xq O bXbXbXbXbXbXbXbXbXbXbXbXbXbXbXbXbXbXbXbXbXbX",
"bXbXbXbXbXbXbXbXbXbXbX_ L &.v.qX,X2.$X:X>X$X*.*.5.~.[.2X:XC.&.oX4X-X&XA.1XkXpX| 3 = O bXbXbXbXbXbXbXbXbXbXbXbXbXbXbXbXbXbXbXbXbX",
"bXbXbXbXbXbXbXbXbXbXbXi.) o.+.X.:.&.<XpXpX:X-.-.C.!.~.!.3.&.z.8XdXaXuXZ.6.V. .5 2 1 = bXbXbXbXbXbXbXbXbXbXbXbXbXbXbXbXbXbXbXbXbX",
"bXbXbXbXbXbXbXbXbXbXT.H.x.) m D n ] !.pXuXC.Z S *.&.X.X.2.<XOXsXxXzXkX<XA. .0 7 7 1 + bXbXbXbXbXbXbXbXbXbXbXbXbXbXbXbXbXbXbXbXbX",
"bXbXbXbXbXbXbXbXbXc._. X Xo.n C M o.=.2.;.} Z V F D B 5 %XuXoXxXkXjXxXcXA.N 7 8 5 3 5 bXbXbXbXbXbXbXbXbXbXbXbXbXbXbXbXbXbXbXbXbX",
"bXbXbXbXbXbXbXbXbXp.'.|.P.) x d D S.=.&.&.] D v.5.=.Z x S.9XoX8XjXzXkX!.,.' [ ' 1 O 4 = bXbXbXbXbXbXbXbXbXbXbXbXbXbXbXbXbXbXbXbX",
"bXbXbXbXbXbXbXbXbXj.m.x.r.~ n V V v.C.X.V c B.[.A.S.=.B =.N.R.oX*X<X!.,.| :.5.%.= & 1 = bXbXbXbXbXbXbXbXbXbXbXbXbXbXbXbXbXbXbXbX",
"bXbXbXbXbXbXbXbXbXQ Q e.e.L S.[.o./ X.X.B x =.[.[.^.l.D =.N.D.D.oXA.V... .5.!.{ = = & * 9 bXbXbXbXbXbXbXbXbXbXbXbXbXbXbXbXbXbXbX",
"bXbXbXbXbXbXbXbXv P ! P P  XrXrXv.^ { F D G X.l.=.) D x / oX<XtX<X&X+X5.O.~.~.N 1 4 - * * bXbXbXbXbXbXbXbXbXbXbXbXbXbXbXbXbXbXbX",
"bXbXbXbXbXbXbXv T K f v P P.eX].^ C o.S.S.c.j.D ) ^ ^ n l.tXtXtXsXuXwX+X1.,.X.5 x c > * * @ bXbXbXbXbXbXbXbXbXbXbXbXbXbXbXbXbXbX",
"bXbXbXbXbXbXbXE G.G.g b m ( o.R n n z.m.T.R.#.m ~ m ( U M.qXrXtXhXsX:X5.&.[ N c V n > - > # X bXbXbXbXbXbXbXbXbXbXbXbXbXbXbXbXbX",
"bXbXbXbXbXd.G.U.{.J.q.T j.G.t.m n d ^ x.T.c.L ~ R a.m.m.R |.yXyXyXqX!.%.} V D z.z.z.) b j ; X bXbXbXbXbXbXbXbXbXbXbXbXbXbXbXbXbX",
"bXbXbXbX0.f.L.h.Y.I.u.7.i.i.T i p d b L ( m R M.x.n.m.(.o.M.qX|.|.[.;.V 9 ^ v.R.,X XS.! j e % bXbXbXbXbXbXbXbXbXbXbXbXbXbXbXbXbX",
"bXbXbXbXW W.5X/.d.d.7.7.l J a K K H m L P j d.m.m.K.x.M.) R ( r.r.l.L , t M.}.}.}.].H.i.e # @ @ bXbXbXbXbXbXbXbXbXbXbXbXbXbXbXbX",
"bXbXbXbXR f.`.5X7XI.L.h.7.T w.d.h.f.h.t.I u.t.`.`.).I.H.e.^ ~ ~ ^ ( R b m g.'.6X6X|.x.I e % # $ @ bXbXbXbXbXbXbXbXbXbXbXbXbXbXbX",
"bXbXbXbXT d.f.`._.'.I.w.l w.P./.)._.I.d.q.x.u.b.W.(.'.{.I.l.~ ^ c.T./.b.d.Y b.).{.Y.I e w $ % @ @ bXbXbXbXbXbXbXbXbXbXbXbXbXbXbX",
"bXbXbXbXT u.U f././.d.H u f.`.'.5X7Xf.d.8.T I q.( E.(.(.{.e.d +.).`.E./.L.G.U E H f u f a $ @ $ < < d bXbXbXbXbXbXbXbXbXbXbXbXbX",
"bXbXbX0.u.y.g k Y Y v a l E '.5X5X5Xh.I T H i Y H +.d.d.w.v f J.(.W.E.(._.y.J I f ; t f s @ y k e % y bXbXbXbXbXbXbXbXbXbXbXbXbX",
"bXbXbXs.K.U.8.a i a ; : i I L.'./.d.J a u t W w.a r v E i i k I (.W.W.W.e.z H v a E H % $ e g g < @ bXbXbXbXbXbXbXbXbXbXbXbXbXbX",
"bXbXbXR b.L.8.v v H I Y 7.I 7.7.J i y p w +.L.L.7.i H a t y s f a.s.+.R y h f p H U k t s g w w X X bXbXbXbXbXbXbXbXbXbXbXbXbXbX",
"bXbXbXv i.7.k i U G.I.).J.0.T i.T k y $ i H L.d.v H 7.w.q.t.t.J H J J i l g ; s f T k h U Q T k # @ bXbXbXbXbXbXbXbXbXbXbXbXbXbX",
"bXbXbXbXbXa y t K I._.(.E.w.7.p.p.k.9.h e.H Y I a a 0.h.J._.).0.U q.q.J l w r J Y ! k Q w.w.Q u $ . bXbXbXbXbXbXbXbXbXbXbXbXbXbX",
"bXbXbXbXbXbX$ t g w.E.L.q.8.G.d.h.p.u.z G.{.J.+.y t i a.W._.f.0.0.y.t.u.8.y v q.q.J H t.h.y.g $ $ bXbXbXbXbXbXbXbXbXbXbXbXbXbXbX",
"bXbXbXbXbXbXbXbXbXv w.9.J k G.U.J.d.8.u ( }.5X'.n.J.r U f.s.7.l f.f.Y.G.y.a v 9.Y t H q.U H h e bX  bXbXbXbXbXbXbXbXbXbXbXbXbXbX",
"bXbXbXbXbXbXbXbXbXy Y K ; : z p.y.J k f r J.5X}.f.W v y d.Q i s t.U.K.s.H r f K ; : y H i % % bXbXbXbXbXbXbXbXbXbXbXbXbXbXbXbXbX",
"bXbXbXbXbXbXbXbXbXbXbX: X @ s I i.I k < @ R a.s.P d a : T g ; s z q.e.v i t y : @ o X @ X . bXbXbXbXbXbXbXbXbXbXbXbXbXbXbXbXbXbX",
"bXbXbXbXbXbXbXbXbXbXbXbXbXbXbXy h h y t r i H U I t : bX* bXbXbX; h J h y y       bXbXbXbXbXbXbXbXbXbXbXbXbXbXbXbXbXbXbXbXbXbXbX",
"bXbXbXbXbXbXbXbXbXbXbXbXbXbXbXbXbXbXbXbXbXbXbXbXbXbXbXbXbXbXbXbXbXbXbXbXbXbXbXbXbXbXbXbXbXbXbXbXbXbXbXbXbXbXbXbXbXbXbXbXbXbXbXbX"
};
