/* XPM */
static char *result[] = {
/* columns rows colors chars-per-pixel */
"32 64 229 2 ",
"   c black",
".  c #0C1404",
"X  c #131708",
"o  c #2A1E19",
"O  c #1B230A",
"+  c #1F2A0B",
"@  c #1A2406",
"#  c #1E300C",
"$  c #232E0A",
"%  c #21280B",
"&  c #25320B",
"*  c #29340D",
"=  c #2D3C0F",
"-  c #262313",
";  c #2B2B12",
":  c #2E241C",
">  c #2A2415",
",  c #31241E",
"<  c #332C1D",
"1  c #302A14",
"2  c #2B3414",
"3  c #2D3B12",
"4  c #263211",
"5  c #353C1A",
"6  c #343819",
"7  c #323F0C",
"8  c #362A22",
"9  c #3B2D25",
"0  c #3E2F28",
"q  c #3D3225",
"w  c #3C3C22",
"e  c #3E3128",
"r  c #44342C",
"t  c #45392C",
"y  c #4C3B2C",
"u  c #453726",
"i  c #533C2E",
"p  c #4C3D32",
"a  c #513E32",
"s  c #35470F",
"d  c #2F4415",
"f  c #334314",
"g  c #344518",
"h  c #3D451D",
"j  c #3A4C1B",
"k  c #384B15",
"l  c #3D521D",
"z  c #3E5716",
"x  c #2D450B",
"c  c #3E4320",
"v  c #41551C",
"b  c #455C1D",
"n  c #495E1D",
"m  c #475618",
"M  c #404B1B",
"N  c #4C621D",
"B  c #47611E",
"V  c #56681F",
"C  c #4B432B",
"Z  c #474726",
"A  c #55462C",
"S  c #445A21",
"D  c #485822",
"F  c #555B2A",
"G  c #4D4432",
"H  c #534234",
"J  c #564339",
"K  c #5C4B3C",
"L  c #584935",
"P  c #5C5335",
"I  c #5A5237",
"U  c #624A3A",
"Y  c #684D37",
"T  c #6B513D",
"R  c #655C3C",
"E  c #665639",
"W  c #78593B",
"Q  c #61582D",
"!  c #4C6323",
"~  c #4C6724",
"^  c #536C24",
"/  c #546B29",
"(  c #576828",
")  c #5B7525",
"_  c #5B772A",
"`  c #5E7B2C",
"'  c #587426",
"]  c #5D7630",
"[  c #66682C",
"{  c #627927",
"}  c #696737",
"|  c #71633E",
" . c #77663F",
".. c #6B7734",
"X. c #767B38",
"o. c #70672A",
"O. c #5F4C40",
"+. c #634E42",
"@. c #655342",
"#. c #6C5343",
"$. c #695944",
"%. c #755A44",
"&. c #7B5C44",
"*. c #7B5E4B",
"=. c #735845",
"-. c #785F51",
";. c #6E6440",
":. c #796146",
">. c #7E614B",
",. c #79674A",
"<. c #7F7442",
"1. c #7A6251",
"2. c #835D3C",
"3. c #84733C",
"4. c #846245",
"5. c #8B6443",
"6. c #83634B",
"7. c #8C6A4B",
"8. c #8A6A49",
"9. c #926C4A",
"0. c #867248",
"q. c #9A734B",
"w. c #99784A",
"e. c #8B6B51",
"r. c #856751",
"t. c #916E52",
"y. c #8D7251",
"u. c #947353",
"i. c #9A7856",
"p. c #A3754C",
"a. c #A47C53",
"s. c #A97E55",
"d. c #A07754",
"f. c #64822C",
"g. c #698229",
"h. c #6B8B2E",
"j. c #75882E",
"k. c #6A8A33",
"l. c #678636",
"z. c #758A37",
"x. c #6E9039",
"c. c #76973A",
"v. c #7AA13B",
"b. c #6E8B42",
"n. c #758C46",
"m. c #7B9D44",
"M. c #7EA342",
"N. c #828D3B",
"B. c #849238",
"V. c #8C8546",
"C. c #958A4A",
"Z. c #879646",
"A. c #9A964A",
"S. c #9B8656",
"D. c #829E57",
"F. c #9F9C52",
"G. c #A58356",
"H. c #AC8156",
"J. c #AC865A",
"K. c #A78758",
"L. c #B38C5A",
"P. c #B68958",
"I. c #A8985A",
"U. c #B49859",
"Y. c #B28E47",
"T. c #86A948",
"R. c #87A854",
"E. c #94B256",
"W. c #94AD4D",
"Q. c #ABA757",
"!. c #9E8062",
"~. c #A88861",
"^. c #BA8E61",
"/. c #BA9363",
"(. c #B89869",
"). c #AD9F61",
"_. c #8CA368",
"`. c #96AE6B",
"'. c #99B666",
"]. c #A6A862",
"[. c #B9A863",
"{. c #A5AD77",
"}. c #A6B876",
"|. c #B6B870",
" X c #C89B59",
".X c #C99C53",
"XX c #C8A25A",
"oX c #D3A65B",
"OX c #C29563",
"+X c #C49E6B",
"@X c #CA9E6B",
"#X c #C79D63",
"$X c #CDA363",
"%X c #C9A56B",
"&X c #D5AA6A",
"*X c #DAB26C",
"=X c #D7B66D",
"-X c #CCA974",
";X c #C9A875",
":X c #D1AC73",
">X c #D5AE78",
",X c #D8B576",
"<X c #C4B172",
"1X c #E3B76D",
"2X c #E4BD73",
"3X c #E1BB79",
"4X c #B2C774",
"5X c #EAC77A",
"6X c #D9B983",
"7X c #C8AB80",
"8X c #E1BD86",
"9X c #D9C285",
"0X c #D0CC87",
"qX c #EBCD8A",
"wX c #E7C786",
"eX c #F0CC88",
"rX c #EED388",
"tX c #F6DD8F",
"yX c #F3D68A",
"uX c #E6CC92",
"iX c #EBD295",
"pX c #F3D594",
"aX c #F7DC93",
"sX c #F8DC98",
"dX c #FAE49B",
"fX c #FCE49A",
"gX c #EED6A2",
"hX c #FBE6A4",
"jX c None",
/* pixels */
"jXjXjXjXjXjXjXjXjXjXjXjXjXjXjXjXjXjXjXjXjXjXjXjXjXjXjXjXjXjXjXjX",
"jXjXjXjXjXjXjXjXjXjXjXjXjXjXjXjXjXjXjXjXjXjXjXjXjXjXjXjXjXjXjXjX",
"jXjXjXjXjXjXjXjXjXjXjXjXjXjXjXjXjXjXjXjXjXjXjXjXjXjXjXjXjXjXjXjX",
"jXjXjXjXjXjXjXjXjXjXjXjXjXjXjXjXjXjXjXjXjXjXjXjXjXjXjXjXjXjXjXjX",
"jXjXjXjXjXjXjXjXjXjXjXjXjXjXjXC.X.jXjXjXjXjXjXjXjXjXjXjXjXjXjXjX",
"jXjXjXjXjXjXjXjXjXjXjXjXjXA.XX<XU.3.A jXjXjXjXjXjXjXjXjXjXjXjXjX",
"jXjXjXjXjXjXjXjXjXjXjXjXjXY.=X=X%X9.A , jXjXjXjXjXjXjXjXjXjXjXjX",
"jXjXjXjXjXjXjXjXjXjXjXjXjX,X5XXXL.a.T a , jXjXjXjXjXjXjXjXjXjXjX",
"jXjXjXjXjXjXjXjXjXjXjXjXrXdXdX=XL. Xd.T Y jXjXjXjXjXjXjXjXjXjXjX",
"jXjXjXjXjXjXjXjXjXjXjX,XfXfXaX*X2X1X$X4.H jXjXjXjXjXjXjXjXjXjXjX",
"jXjXjXjXjXjXjXjXjXjXjX5XfXfX2X2XqXqXwXu.r jXjXjXjXjXjXjXjXjXjXjX",
"jXjXjXjXjXjXjXjXjXjXU.2X5X,X$XwXsXsXwX+., jXjXjXjXjXjXjXjXjXjXjX",
"jXjXjXjXjXjXjXjXjXjXoX2X5X*X XJ.qX8X*.9 9 o jXjXjXjXjXjXjXjXjXjX",
"jXjXjXjXjXjXjXjXjX.X5XaXtXyX:XH.a.*.r 0 9 : jXjXjXjXjXjXjXjXjXjX",
"jXjXjXjXjXjXjXjXjXoXyXhXsXhXpX@X*.a r r 8 8 jXjXjXjXjXjXjXjXjXjX",
"jXjXjXjXjXjXjXjXjX.XrXfXhXsXsX@X=.O.a 9 8 9 0 jXjXjXjXjXjXjXjXjX",
"jXjXjXjXjXjXjXjXjXoX&X5XaXrX;Xr.+.*.-.a , 9 8 jXjXjXjXjXjXjXjXjX",
"jXjXjXjXjXjXjXjXjXoXoX&X%XOXt.-.6.s.t.0 o 8 8 jXjXjXjXjXjXjXjXjX",
"jXjXjXjXjXjXjXjXw.oX&X$X XP.i.-.t.+Xi.8 9 o , jXjXjXjXjXjXjXjXjX",
"jXjXjXjXjXjXjX9.:X5XrXwX3X>XOXu.i.(.-.0 a 9 8 o jXjXjXjXjXjXjXjX",
"jXjXjXjXjXjXjXG.eXtXtXyXgXeX>Xs.7.=.p a J r 9 r jXjXjXjXjXjXjXjX",
"jXjXjXjXjXjXjXG.yXfXfXfXpX&Xs.r.=.+.U =.T a r i u jXjXjXjXjXjXjX",
"jXjXjXjXjXjXjXw.5XfXhXsXpX>Xe.#.#.#.H.OX@XP.Y y u jXjXjXjXjXjXjX",
"jXjXjXjXjXjXjXY.oX*X>X>X&XP.#.a 5.#X3XwXwX>Xs.i < jXjXjXjXjXjXjX",
"jXjXjXjXjXjX| .X.XXXS.u.s.t.a r P.qXuXiXiX1Xa.L < jXjXjXjXjXjXjX",
"jXjXjXjXjXC w.oX*XXX/.r.t.-.r r i.8XgXgXgX(.W G , jXjXjXjXjXjXjX",
"jXjXjXjXjXq 0.[.=X*X^.1.r.=.-.r.@.P.%X>X%X=.H e , jXjXjXjXjXjXjX",
"jXjXjXjXjX< Q w.J./.u.@.-.~.;X;X^.6.t.6.#.H a r e < jXjXjXjXjXjX",
"jXjXjXjXjX6 C | S.G.e.@.#.;X6X6X7X#.+.@.a a a i u q < jXjXjXjXjX",
"jXjXjXjXjXE K G G.L.r.-.#.!.>X6Xi.K U T #.+.a i 9 q q jXjXjXjXjX",
"jXjXjXjX5 } C t u.G.e.u.1.r.s.t.-.&.4.4.5.5.2.Y u > 9 jXjXjXjXjX",
"jXjXjXjXh I t y :.J.i.s.r.d.H.H.s.t.p.P.d.s.q.2.u , > jXjXjXjXjX",
"jXjXjXg F } C A R a.s.i.r.P.OX-X@X#X*X,X+X^.p.T u , - jXjXjXjXjX",
"jXjXjXS ....P ,.y.8.y.=.#.s.6XiXyXpXeX:X+Xs.&.K U y < ; jXjXjXjX",
"jXjXjXF z.( C.=X=XJ.#.a a 6.^.&X6XwX:Xq.5.T &.9.9.A : - jXjXjXjX",
"jXjXjX} ..F Q.uXuX,Xi.p r U =.&.4.2.W 2.5.p.P.OX5.9 o > jXjXjXjX",
"jXjXjXj.Q F V.0XuXuX|.r.s.a.6.=.&.5.2.q.~.OX-X(.U 9 , < 1 jXjXjX",
"jXjXjXjXo.Q :.G.<XuX~.(.-X>X;Xs.5.a.~.;X>X>X-X*.a Y Y u > jXjXjX",
"jXjXjXjXX.o.;.0.,.r.7.;X8XeX8XJ.>.a.+X%X%Xi.d.@.U 9.w.A 1 jXjXjX",
"jXjXjXF.F.Q.V.;.,.$.O.J.eXeX-X&.U 5.p.9.%.6.r.>.K 8.,.1 ; jXjXjX",
"jXjXjX].4X|.U.| ;.J ,.e.a.s.6.#.L %.%.T r J 6.e.O.;.G -   jXjXjX",
"jXjXjX'.0X|.A.R Z C L.G.e.e.#.K p.s.a.&.J r 8.&.O.K < -     jXjX",
"jXjXjXQ.Q.z...P P A y.~.u.E #.8.%X#XOXJ.:.t %.L J e , O X   jXjX",
"jXjXjXB.z.X.( S.[.C.R <.,.E K >.@X:X-X@X6.r p G t q 8 6 4 jX  jX",
"jXjXjX( ( ( n.{.7X].} ;.<. .W :.7.s.d.8.T r e e G w w 6 % jX  jX",
"jXjXjXl D ! n.{.}.X.F R K.I.L.K.$.6.6.K p r e t $.F 6 2 X jX    ",
"jXjXjXg m ^ l.z.` ^ D <.F.).U.S.P $.>.,.=.P u F P L Z 3 X jX    ",
"jXjXjXjXl l.W.T.g.~ D | A.Q.U.| I | 0.<.<.V.P Z P C 6 + jX      ",
"jXjXjXjXS n.M.M.` ^ m F [ X.Q C A ..X.V.C.V.} 6 w w 2 2 @ jX    ",
"jXjXjX+ l b.E.k.! l f z k M 5 5 Z } Z.A.Z...D h 6 h h 2 + .     ",
"jXjXjX+ 3 ] m.k.{ V ' f.V F Z 5 w F z.N.^ ' D g 2 h F D 6 O     ",
"jXjXjXd B / / / N ) h.h.z.) ( k 7 { z.' l j m = 2 h D [ m *     ",
"jXjXjX~ l.x.{ / ~ ! k.m.c.x._ ! N m s s n k x $ - g D ! ( &     ",
"jXjXl l.v.W.x.` ^ l l.v.v.x.c.h.g.z x s x @ @ + 4 4 j D M =     ",
"jXjXS n.R.E.M._ l l ~ x.c.x.c.f./ v s = & @ X + $ 3 3 f ; *   jX",
"jXjXg n.D.R.v.v d j ^ _ f.) ^ ! v M g g = = & + 2 S / n % 6   jX",
"jXjXk / v.h.! n ! _ ) N n S ' ' S n S j l l m & f ! ` { 7 5   jX",
"jXjXjXS h.~ l k ' { n g _ k.l.h._ f.g.f./ D N * f n ^ ! % $ jXjX",
"jXjXjXjXd d & f _ ~ j k T.'.`.R.T.m.c.c.c.) s $ * k g O X jXjXjX",
"jXjXjXjXjXjXO * v j k ' c.'.4X}.`._.R.M.' m s * $ f * . jXjXjXjX",
"jXjXjXjXjXjXjXjXjX2 v ~ l b.'.}.}._.c.' g 7 s @     jXjXjXjXjXjX",
"jXjXjXjXjXjXjXjXjXjXjX3 g l k.b.Z.f._ B 3 $ jXjXjXjXjXjXjXjXjXjX",
"jXjXjXjXjXjXjXjXjXjXjXjXjXl B ~ _ { S n jXX jXjXjXjXjXjXjXjXjXjX",
"jXjXjXjXjXjXjXjXjXjXjXjXjXjXjXjXjXjXjXjXjXjXjXjXjXjXjXjXjXjXjXjX"
};
