/* XPM */
static char * stone_xpm[] = {
"32 32 271 2",
"  	c #59750A",
". 	c #538200",
"+ 	c #449B00",
"@ 	c #405B24",
"# 	c #4A4D45",
"$ 	c #65A200",
"% 	c #567B01",
"& 	c #464744",
"* 	c #4C5735",
"= 	c #4A533C",
"- 	c #4D6B18",
"; 	c #516E13",
"> 	c #638E00",
", 	c #4B5C30",
"' 	c #51730B",
") 	c #4A6226",
"! 	c #749C00",
"~ 	c #494C42",
"{ 	c #3E7400",
"] 	c #328A00",
"^ 	c #495334",
"/ 	c #474A42",
"( 	c #3C8200",
"_ 	c #5A8500",
": 	c #4B7402",
"< 	c #4E6521",
"[ 	c #438A00",
"} 	c #465935",
"| 	c #2B6219",
"1 	c #369300",
"2 	c #48A200",
"3 	c #4F9200",
"4 	c #306A0C",
"5 	c #569700",
"6 	c #44523B",
"7 	c #48720D",
"8 	c #308200",
"9 	c #578B00",
"0 	c #A07C50",
"a 	c #B3865A",
"b 	c #A88457",
"c 	c #8C6D4C",
"d 	c #68573B",
"e 	c #347B00",
"f 	c #36631A",
"g 	c #377306",
"h 	c #4D7B00",
"i 	c #5D9E00",
"j 	c #C39A63",
"k 	c #AD8354",
"l 	c #9D7654",
"m 	c #866549",
"n 	c #463828",
"o 	c #3C7A00",
"p 	c #559B00",
"q 	c #6A9300",
"r 	c #DBBA7A",
"s 	c #CDAE74",
"t 	c #C8A36C",
"u 	c #94744E",
"v 	c #5C4634",
"w 	c #35281E",
"x 	c #82AD00",
"y 	c #639B00",
"z 	c #589400",
"A 	c #6B8400",
"B 	c #7CA900",
"C 	c #D8AE6F",
"D 	c #F5D189",
"E 	c #EECE86",
"F 	c #E3BC7C",
"G 	c #BB9867",
"H 	c #755A3E",
"I 	c #2D221B",
"J 	c #2A1D19",
"K 	c #355B24",
"L 	c #7BA500",
"M 	c #F3CD88",
"N 	c #F5D586",
"O 	c #E5C57B",
"P 	c #866751",
"Q 	c #493731",
"R 	c #241B16",
"S 	c #56A400",
"T 	c #3E8C00",
"U 	c #4C6B0D",
"V 	c #72A300",
"W 	c #46631D",
"X 	c #F3CD86",
"Y 	c #F9DD84",
"Z 	c #FAE086",
"` 	c #FAE07F",
" .	c #E5C474",
"..	c #654E41",
"+.	c #4B3C33",
"@.	c #352B22",
"#.	c #4F9A00",
"$.	c #417B00",
"%.	c #99784C",
"&.	c #624B3D",
"*.	c #725B4B",
"=.	c #392C24",
"-.	c #2B2416",
";.	c #436918",
">.	c #4FA900",
",.	c #B08F62",
"'.	c #E1B668",
").	c #DAB876",
"!.	c #624935",
"~.	c #6B5344",
"{.	c #695646",
"].	c #D3AC64",
"^.	c #43352C",
"/.	c #402E21",
"(.	c #564029",
"_.	c #5A4838",
":.	c #80613E",
"<.	c #DFBB67",
"[.	c #725A43",
"}.	c #55443B",
"|.	c #3C3323",
"1.	c #726345",
"2.	c #4B432D",
"3.	c #EBD07A",
"4.	c #765942",
"5.	c #937153",
"6.	c #7A6444",
"7.	c #6B6A3C",
"8.	c #8A7C4A",
"9.	c #534333",
"0.	c #B98C5C",
"a.	c #5A4A3E",
"b.	c #896A51",
"c.	c #7B604B",
"d.	c #32281E",
"e.	c #22200F",
"f.	c #676738",
"g.	c #7D7441",
"h.	c #BAA469",
"i.	c #C8B773",
"j.	c #C2905F",
"k.	c #765E51",
"l.	c #1B240B",
"m.	c #6F813B",
"n.	c #8F9757",
"o.	c #9E8F4B",
"p.	c #C3AD6C",
"q.	c #895E41",
"r.	c #292517",
"s.	c #1A1D0C",
"t.	c #798D4C",
"u.	c #9BA866",
"v.	c #91AD5C",
"w.	c #ABA55B",
"x.	c #988755",
"y.	c #9C824F",
"z.	c #5F4E43",
"A.	c #32361A",
"B.	c #121D08",
"C.	c #A7AD76",
"D.	c #AEB178",
"E.	c #B4B874",
"F.	c #9D7B54",
"G.	c #9E7E5B",
"H.	c #7F6847",
"I.	c #5B5637",
"J.	c #5A5C34",
"K.	c #3A4B19",
"L.	c #2A3613",
"M.	c #0F1605",
"N.	c #337200",
"O.	c #3F522E",
"P.	c #658435",
"Q.	c #BCB97A",
"R.	c #C2BC7A",
"S.	c #D1C07B",
"T.	c #BEB76B",
"U.	c #C3A75A",
"V.	c #CCBF7B",
"W.	c #B59A54",
"X.	c #AF9754",
"Y.	c #53642A",
"Z.	c #2D3D13",
"`.	c #363B0F",
" +	c #2B340D",
".+	c #1B2506",
"++	c #789342",
"@+	c #C6BC74",
"#+	c #A8AB64",
"$+	c #46472A",
"%+	c #5D6532",
"&+	c #39451D",
"*+	c #1D290B",
"=+	c #384010",
"-+	c #222D0C",
";+	c #3F4723",
">+	c #50692B",
",+	c #6C832D",
"'+	c #637F2B",
")+	c #969853",
"!+	c #C2C575",
"~+	c #BDC47D",
"{+	c #AEB465",
"]+	c #74783B",
"^+	c #414D21",
"/+	c #3A3F20",
"(+	c #27320E",
"_+	c #36441A",
":+	c #43591E",
"<+	c #6A863A",
"[+	c #677735",
"}+	c #536B24",
"|+	c #878C4D",
"1+	c #A9C06C",
"2+	c #495423",
"3+	c #7D9753",
"4+	c #799649",
"5+	c #4C5C23",
"6+	c #545E2B",
"7+	c #363B1A",
"8+	c #7FA04B",
"9+	c #6D8745",
"0+	c #3E511A",
"a+	c #2D3B0E",
"b+	c #445C22",
"c+	c #667F38",
"d+	c #5D7A2C",
"e+	c #86A642",
"f+	c #5B762D",
"g+	c #5B7A25",
"h+	c #324214",
"i+	c #475620",
"j+	c #6F9135",
"k+	c #567225",
"l+	c #354C11",
"m+	c #000000",
"n+	c #509B00",
"o+	c #408300",
"p+	c #4B6424",
"q+	c #5F7933",
"r+	c #65832E",
"s+	c #52651B",
"t+	c #465413",
"u+	c #799C3D",
"v+	c #1F2907",
"w+	c #2F4515",
"x+	c #273410",
"y+	c #95B258",
"z+	c #889D67",
"A+	c #79A138",
"B+	c #78983A",
"C+	c #4A611B",
"D+	c #739333",
"E+	c #6B8C36",
"F+	c #131C05",
"G+	c #479900",
"H+	c #47611E",
"I+	c #738C4A",
"J+	c #608527",
"K+	c #637B26",
"L+	c #394A15",
"M+	c #88B000",
"N+	c #8CAC55",
"O+	c #3A5111",
"P+	c #495F1C",
"Q+	c #41551E",
"R+	c #7D9E00",
"S+	c #8BB100",
"T+	c #3F493C",
"U+	c #3C3C3C",
"V+	c #334326",
"  . + @ #   $ % & & * = * %   - ; > -   % , ' % ; # # ) - , ' ! ",
"~ { ] ^ / * ( _ / / :   # , < * % ; < % ; < ' ( [ & # ;   } } ' ",
"_ <   ; @ | 1 2 3 ) )   % , # ;   = = < ) : 4 + 5 < # / = 6 & 7 ",
"  ' = % ! % 8 [ ' 9 % )   ' 0 a b c d e f ' < @ ~ # # # # = = g ",
"# # / , h 5 i .   '   , } b j j k l m n o p - * ) h 9 >   ' - } ",
"< = ^   )   q i 3 3 9 ' j r r s t k u v w x 9 9 y x i q h , ^ # ",
"< ~ | z A < < - 9 $ B C D E D F s G H I J x 3 3 z _ : e # & / & ",
"~ K @ L L   % ^ # r M D D E N O t P Q J J R + S [ % 9 T ' U = < ",
"& & ~ [ V % W & & O X N Y Z `  .l ..+.I @.J J #.! x B B 3 $.% % ",
"& ~ # $.3 % ~ ~ < r D N Y Y  .%.&.*.=.I =.@.-.-.x h 1 7 ;.) - , ",
", ' ;.>.+ ; ; ' V ,.F '.).t m !.~.....Q @.-.=.=.- ) g ;.~ ^ # ~ ",
"' - 7 [ } , % 5 d b G 0 l c ..{.l ].l ..^.@./.(.n /.* # U : = _ ",
"' -   - * , 9 _.+.:.G F O <.k [.F '.0 }.Q +.[.[.v |.. h : , ' p ",
"5 x i ' ) 9 d 1.2.!.t N 3.].4.H ].k v +.*...5.0 6.|.R L _ ' _ _ ",
"L ; = # ; z 7.8.d 9.0.t k [.a.a.P +...P 5.b.c.1...d.e.! x 9 % < ",
"- } # = f.g.h.i.G [.c j.0.d +.}.k.+.v 5.0.5.9.n @.R e.l.A 5 z % ",
"' 9 ; m.n.o.p.i.p.5.c.G 0.&.^.}.}...~.q.m _.^.@.-.I r.s.# < - % ",
"_ - - t.u.v.w.w.x.5.1.y.k.z.}.z.~.~...Q |.=.^.d.|.A.A.e.B.- = } ",
"% } = t.C.D.E.h.h.x.c P P P F.G.G.5.*.q.H.6.I.d J.J.K.L.s.M.;.* ",
"N./ O.P.u.Q.R.S.i.T.%.1.y.U.C V.p.h.b b W.X.f.f.f.Y.Z.`. +.+% ' ",
"- @ 4 P.++h.@+R.E.#+d f.w.@+S.@+@+i.o.o.h.8.$+J.%+&+*+*+=+-+s.;+",
"A > ( >+,+'+)+w.)+f.$+%+T.S.R.!+~+{+]+7.f.^+/+&+^+(+-+Z._+ +s.:+",
"- . <+t.[+}+:+7.%+$+2.J.|+E.~+1+u.[+2+Y.2+[+]+:+(+-+L.K._+ +.+L ",
"- >+t.3+4+'+5+6+&+A.7+2+P.v.8+9+Y._+_+&+^+m.[+0+-+7+K.a+(+ +-+#.",
"> b+c+3+++d+5+d+P.++e+P.}+f+g+g+K.0+h+(+&+b+}+h+i+d+j+k+l+a+m+) ",
"n+o+}+p+g+:+h+++v.1+v.3+q+f+r+j+}+s+t+s+}+p+s+}+P.u+u+g+-+v+m+# ",
"^ N.{ Z.w+h+x+}+y+u.z+4+j+8+A+B+A+k+C+u+D+,+p+E+4+A+q+L.*+F+m+' ",
"/ T G+9 h ' N.H+++I+<+J+f+v.y+e+B+f+h+}+P.K+C+r+q+d+L+*+*+;.. 9 ",
"~ _ M+> N.@ 4 a+>+P.d+K.K.I+N+N+++H+O+s+b+L+L+P+b+K.a+F+m+' o + ",
"; n+y ;.2 e , f Q+d+Q+L.x+p+A+r+K+C+l+w+.+*+- -+.+B.z i h h ( ) ",
"9 ' , - 2 % } * _ . ' R+F+Z.C+b+C+s+a+m+m+m+, , < %   , / O.: ' ",
"' * ) ; - , , 9 n+' , , _ 5 > % ' } # [ S+A . z ' ( ^ O.T+U+V+U "};
