/* XPM */
static char *result[] = {
/* columns rows colors chars-per-pixel */
"32 32 206 2 ",
"   c black",
".  c #0F1605",
"X  c #131C05",
"o  c #1A1D0C",
"O  c #121D08",
"+  c #1F1A11",
"@  c #241B16",
"#  c #271D19",
"$  c #2A1D19",
"%  c #1F2907",
"&  c #1B240B",
"*  c #1D290B",
"=  c #1B2506",
"-  c #222D0C",
";  c #22200F",
":  c #2B340D",
">  c #2D3B0E",
",  c #27320E",
"<  c #363B0F",
"1  c #2B2416",
"2  c #2D221B",
"3  c #292517",
"4  c #32281E",
"5  c #35281E",
"6  c #273410",
"7  c #2A3613",
"8  c #2D3D13",
"9  c #32361A",
"0  c #363B1A",
"q  c #352B22",
"w  c #392C24",
"e  c #3C3323",
"r  c #3A3F20",
"t  c #402E21",
"y  c #43352C",
"u  c #463828",
"i  c #493731",
"p  c #4B3C33",
"a  c #2F4515",
"s  c #324214",
"d  c #354C11",
"f  c #394A15",
"g  c #36441A",
"h  c #39451D",
"j  c #3A4B19",
"k  c #384010",
"l  c #3E511A",
"z  c #3A5111",
"x  c #3F4723",
"c  c #41551E",
"v  c #43591E",
"b  c #495F1C",
"n  c #465413",
"m  c #4A611B",
"M  c #47611E",
"N  c #52651B",
"B  c #414D21",
"V  c #4B432D",
"C  c #46472A",
"Z  c #564029",
"A  c #495423",
"S  c #445C22",
"D  c #4C5C23",
"F  c #475620",
"G  c #545E2B",
"H  c #534333",
"J  c #5C4634",
"K  c #55443B",
"L  c #5A4A3E",
"P  c #5A4838",
"I  c #5A5C34",
"U  c #5B5637",
"Y  c #624B3D",
"T  c #624935",
"R  c #68573B",
"E  c #755A3E",
"W  c #4B6424",
"Q  c #536B24",
"!  c #50692B",
"~  c #53642A",
"^  c #5B7A25",
"/  c #5B762D",
"(  c #5D7A2C",
")  c #567225",
"_  c #5D6532",
"`  c #5F7933",
"'  c #637B26",
"]  c #637F2B",
"[  c #6B6A3C",
"{  c #676738",
"}  c #667F38",
"|  c #677735",
" . c #74783B",
".. c #5F4E43",
"X. c #654E41",
"o. c #6B5344",
"O. c #695646",
"+. c #725A43",
"@. c #725B4B",
"#. c #765942",
"$. c #765E51",
"%. c #726345",
"&. c #7A6444",
"*. c #7B604B",
"=. c #7F6847",
"-. c #7D7441",
";. c #80613E",
":. c #895E41",
">. c #8C6D4C",
",. c #866549",
"<. c #8A7C4A",
"1. c #94744E",
"2. c #99784C",
"3. c #866751",
"4. c #896A51",
"5. c #937153",
"6. c #9D7654",
"7. c #9D7B54",
"8. c #9E7E5B",
"9. c #A07C50",
"0. c #65832E",
"q. c #6C832D",
"w. c #608527",
"e. c #658435",
"r. c #6B8C36",
"t. c #6F813B",
"y. c #6A863A",
"u. c #6F9135",
"i. c #739333",
"p. c #799C3D",
"a. c #78983A",
"s. c #79A138",
"d. c #798D4C",
"f. c #738C4A",
"g. c #789342",
"h. c #799649",
"j. c #7D9753",
"k. c #6D8745",
"l. c #7FA04B",
"z. c #9E8F4B",
"x. c #9C824F",
"c. c #988755",
"v. c #8F9757",
"b. c #969853",
"n. c #878C4D",
"m. c #A48D4E",
"M. c #AD8354",
"N. c #A88457",
"B. c #B98C5C",
"V. c #B3865A",
"C. c #AF9754",
"Z. c #B59A54",
"A. c #86A642",
"S. c #8CAC55",
"D. c #91AD5C",
"F. c #95B258",
"G. c #ABA55B",
"H. c #B4A45E",
"J. c #959F60",
"K. c #889D67",
"L. c #B08F62",
"P. c #BB9867",
"I. c #9BA866",
"U. c #A8AB64",
"Y. c #BAA469",
"T. c #AEB465",
"R. c #BEB76B",
"E. c #AEB178",
"W. c #BCB97A",
"Q. c #B4B874",
"!. c #A7AD76",
"~. c #C2905F",
"^. c #C3A75A",
"/. c #C39A63",
"(. c #CD9F64",
"). c #C3AD6C",
"_. c #C8A36C",
"`. c #D3AC64",
"'. c #D8AE6F",
"]. c #DFBB67",
"[. c #CDAE74",
"{. c #C8AA71",
"}. c #C6BC74",
"|. c #C2BC7A",
" X c #CCBF7B",
".X c #C8B773",
"XX c #DBBA7A",
"oX c #DAB876",
"OX c #E3BC7C",
"+X c #E1B668",
"@X c #A9C06C",
"#X c #BDC47D",
"$X c #C2C575",
"%X c #D1C07B",
"&X c #E5C474",
"*X c #E5C57B",
"=X c #EBD07A",
"-X c #FAE07F",
";X c #EECE86",
":X c #F3CD86",
">X c #F3CD88",
",X c #F5D586",
"<X c #F9DD84",
"1X c #F5D189",
"2X c #FAE086",
"3X c None",
/* pixels */
"3X3X3X3X3X3X3X3X3X3X3X3X3X3X3X3X3X3X3X3X3X3X3X3X3X3X3X3X3X3X3X3X",
"3X3X3X3X3X3X3X3X3X3X3X3X3X3X3X3X3X3X3X3X3X3X3X3X3X3X3X3X3X3X3X3X",
"3X3X3X3X3X3X3X3X3X3X3X3X3X3X3X3X3X3X3X3X3X3X3X3X3X3X3X3X3X3X3X3X",
"3X3X3X3X3X3X3X3X3X3X3X3X3X3X9.V.N.>.R 3X3X3X3X3X3X3X3X3X3X3X3X3X",
"3X3X3X3X3X3X3X3X3X3X3X3X3XN././.M.6.,.u 3X3X3X3X3X3X3X3X3X3X3X3X",
"3X3X3X3X3X3X3X3X3X3X3X3X/.XXXX[._.M.1.J 5 3X3X3X3X3X3X3X3X3X3X3X",
"3X3X3X3X3X3X3X3X3X3X3X'.1X;X1XOX[.P.E 2 $ 3X3X3X3X3X3X3X3X3X3X3X",
"3X3X3X3X3X3X3X3X3XXX>X1X1X;X,X*X_.3.i $ $ @ 3X3X3X3X3X3X3X3X3X3X",
"3X3X3X3X3X3X3X3X3X*X:X,X<X2X-X&X6.X.p 2 q $ $ 3X3X3X3X3X3X3X3X3X",
"3X3X3X3X3X3X3X3X3XXX1X,X<X<X&X2.Y @.w 2 w q 1 1 3X3X3X3X3X3X3X3X",
"3X3X3X3X3X3X3X3X3XL.OX+XoX_.,.T o.X.X.i q 1 w w 3X3X3X3X3X3X3X3X",
"3X3X3X3X3X3X3X3XR N.P.9.6.>.X.O.6.`.6.X.y q t Z u t 3X3X3X3X3X3X",
"3X3X3X3X3X3X3XP p ;.P.OX*X].M.+.OX+X9.K i p +.+.J e 3X3X3X3X3X3X",
"3X3X3X3X3X3XR %.V T _.,X=X`.#.E `.M.J p @.X.5.9.&.e @ 3X3X3X3X3X",
"3X3X3X3X3X3X[ <.R H B._.M.+.L L 3.p X.3.5.4.*.%.X.4 ; 3X3X3X3X3X",
"3X3X3X3X{ -.Y..XP.+.>.~.B.R p K $.p J 5.B.5.H u q @ ; & 3X3X3X3X",
"3X3X3Xt.v.z.)..X).5.*.P.B.Y y K K X.o.:.,.P y q 1 2 3 o 3X3X3X3X",
"3X3X3Xd.I.D.G.G.c.5.%.x.$...K ..o.o.X.i e w y 4 e 9 9 ; O 3X3X3X",
"3X3X3Xd.!.E.Q.Y.Y.c.>.3.3.3.7.8.8.5.@.:.=.&.U R I I j 7 o . 3X3X",
"3X3X3Xe.I.W.|.%X.XR.2.%.x.^.'. X).Y.N.N.Z.C.{ { { ~ 8 < : = 3X3X",
"3X3X3Xe.g.Y.}.|.Q.U.R { G.}.%X}.}..Xz.z.Y.<.C I _ h * * k - o x ",
"3X3X3X! q.] b.G.b.{ C _ R.%X|.$X#XT. .[ { B r h B , - 8 g : o v ",
"3X3Xy.d.| Q v [ _ C V I n.Q.#X@XI.| A ~ A |  .v , - 7 j g : = 3X",
"3X! d.j.h.] D G h 9 0 A e.D.l.k.~ g g h B t.| l - 0 j > , : - 3X",
"3XS } j.g.( D ( e.g.A.e.Q / ^ ^ j l s , h S Q s F ( u.) d >   3X",
"3X3XQ W ^ v s g.D.@XD.j.` / 0.u.Q N n N Q W N Q e.p.p.^ - %   3X",
"3X3X3X8 a s 6 Q F.I.K.h.u.l.s.a.s.) m p.i.q.W r.h.s.` 7 * X   3X",
"3X3X3X3X3X3X3XM g.f.y.w./ D.F.A.a./ s Q e.' m 0.` ( f * * 3X3X3X",
"3X3X3X3X3X3X3X> ! e.( j j f.S.S.g.M z N S f f b S j > X   3X3X3X",
"3X3X3X3X3X3X3X3Xc ( c 7 6 W s.0.' m d a = * 3X- = O 3X3X3X3X3X3X",
"3X3X3X3X3X3X3X3X3X3X3X3XX 8 m S m N >       3X3X3X3X3X3X3X3X3X3X",
"3X3X3X3X3X3X3X3X3X3X3X3X3X3X3X3X3X3X3X3X3X3X3X3X3X3X3X3X3X3X3X3X"
};
