/* XPM */
static char *result[] = {
/* columns rows colors chars-per-pixel */
"32 96 236 2 ",
"   c #020201",
".  c #060C02",
"X  c #090E03",
"o  c #0C1403",
"O  c #0B1902",
"+  c #131C05",
"@  c #18180B",
"#  c #1F1611",
"$  c #251D15",
"%  c #2A1E18",
"&  c #1A2305",
"*  c #1C240A",
"=  c #1E290A",
"-  c #192404",
";  c #1E3105",
":  c #212D0B",
">  c #22290A",
",  c #25320B",
"<  c #28340D",
"1  c #2D3B0E",
"2  c #243609",
"3  c #313E0D",
"4  c #2D221B",
"5  c #282913",
"6  c #30251D",
"7  c #332C1B",
"8  c #2B3512",
"9  c #2C3B12",
"0  c #2A3514",
"q  c #313B14",
"w  c #34331C",
"e  c #353B1A",
"r  c #3A3D1B",
"t  c #38361A",
"y  c #362B21",
"u  c #3B2D24",
"i  c #382B25",
"p  c #3C3523",
"a  c #3B3C21",
"s  c #3A3425",
"d  c #43352B",
"f  c #453A2D",
"g  c #483B28",
"h  c #4E3D32",
"j  c #523F36",
"k  c #523C2D",
"l  c #33430E",
"z  c #394A0F",
"x  c #2F4412",
"c  c #334314",
"v  c #3A4516",
"b  c #364A14",
"n  c #3B4C15",
"m  c #354518",
"M  c #3C441D",
"N  c #374919",
"B  c #3B4C1B",
"V  c #3C5115",
"C  c #3E531C",
"Z  c #3E581A",
"A  c #2C420D",
"S  c #3C4421",
"D  c #41491B",
"F  c #42551B",
"G  c #445B1C",
"H  c #4A5D1C",
"J  c #475816",
"K  c #50581D",
"L  c #4B631D",
"P  c #49631B",
"I  c #54671D",
"U  c #454C22",
"Y  c #4C4C2A",
"T  c #474527",
"R  c #53472C",
"E  c #445422",
"W  c #455B22",
"Q  c #4B5C24",
"!  c #4C5426",
"~  c #55572A",
"^  c #544234",
"/  c #5A4B35",
"(  c #5B4B3A",
")  c #5A4737",
"_  c #5A5635",
"`  c #4E4032",
"'  c #634C3B",
"]  c #65523D",
"[  c #6C533E",
"{  c #6C5B3C",
"}  c #665A35",
"|  c #745D3D",
" . c #62542C",
".. c #4C6423",
"X. c #4D6B23",
"o. c #4C6727",
"O. c #516424",
"+. c #526B24",
"@. c #5A632D",
"#. c #526C2A",
"$. c #5A6D29",
"%. c #546628",
"&. c #557224",
"*. c #5B7425",
"=. c #5C7B26",
"-. c #56722B",
";. c #5B752B",
":. c #5D7A2C",
">. c #567822",
",. c #5D6332",
"<. c #5C6E33",
"1. c #5D7B31",
"2. c #5C7532",
"3. c #626B2C",
"4. c #637D2B",
"5. c #647728",
"6. c #646534",
"7. c #6C643B",
"8. c #676937",
"9. c #78683C",
"0. c #637D34",
"q. c #6A7636",
"w. c #77753C",
"e. c #614E41",
"r. c #695743",
"t. c #745C46",
"y. c #7B6345",
"u. c #786448",
"i. c #786A47",
"p. c #876A3D",
"a. c #866848",
"s. c #877748",
"d. c #95784B",
"f. c #896A51",
"g. c #887253",
"h. c #997853",
"j. c #926E51",
"k. c #A57E55",
"l. c #63822C",
"z. c #6A842A",
"x. c #6C8C2E",
"c. c #728C2E",
"v. c #658332",
"b. c #6A8535",
"n. c #6B8B33",
"m. c #66833A",
"M. c #6C8C3B",
"N. c #6A833D",
"B. c #758939",
"V. c #6F9334",
"C. c #6D913A",
"Z. c #739234",
"A. c #73943B",
"S. c #7B9C3C",
"D. c #799838",
"F. c #7BA13B",
"G. c #5E8029",
"H. c #6C8841",
"J. c #748D4B",
"K. c #748A45",
"L. c #7C9D42",
"P. c #789647",
"I. c #788D52",
"U. c #7C9653",
"Y. c #7EA247",
"T. c #82983C",
"R. c #8F8C3B",
"E. c #84A63D",
"W. c #878A47",
"Q. c #97834D",
"!. c #869749",
"~. c #98924C",
"^. c #998853",
"/. c #829B55",
"(. c #879B58",
"). c #9A9458",
"_. c #898B50",
"`. c #A68858",
"'. c #B88B5B",
"]. c #A79957",
"[. c #B6965C",
"{. c #A2824F",
"}. c #82A34C",
"|. c #8CAB4C",
" X c #85A646",
".X c #91AC4A",
"XX c #95B448",
"oX c #85A253",
"OX c #89A554",
"+X c #8CAB54",
"@X c #8BA65B",
"#X c #96A958",
"$X c #8EB154",
"%X c #94B35A",
"&X c #99B458",
"*X c #8EB34D",
"=X c #A5A355",
"-X c #A1B95E",
";X c #889C67",
":X c #AC9B65",
">X c #BB9964",
",X c #B08E61",
"<X c #8EA36C",
"1X c #8EA866",
"2X c #94AC6C",
"3X c #96AB65",
"4X c #9CB56B",
"5X c #98B467",
"6X c #96AB71",
"7X c #98A97A",
"8X c #9FB575",
"9X c #8EA171",
"0X c #A6A569",
"qX c #B7AD65",
"wX c #A5B969",
"eX c #B1B566",
"rX c #A3BC75",
"tX c #A4B978",
"yX c #BDB77A",
"uX c #ADAE71",
"iX c #C4945F",
"pX c #C49B66",
"aX c #C5A66B",
"sX c #CCAA73",
"dX c #CFB471",
"fX c #ACC378",
"gX c #B1C476",
"hX c #C6C47B",
"jX c #AEB381",
"kX c #D1BE80",
"lX c #B2C682",
"zX c #CAC688",
"xX c #DAC58B",
"cX c #DCCC97",
"vX c #EDD192",
"bX c None",
/* pixels */
"bXbXbXbXbXbXbXbXbXbXbXbXbXbXbXS e bXbXbXbXbXbXbXbXbXbXbXbXbXbXbX",
"bXbXbXbXbXbXbXbXbXbXbXbXbXB C N C +...G bXbXbXbXbXbXbXbXbXbXbXbX",
"bXbXbXbXbXbXbXbX-.O...n O.:.#.C ..-.#...Z ..b.bXbXbXbXbXbXbXbXbX",
"bXbXbXbXbXbXE. XA.V.Z.L =.l...& ..m.m.V.=.Z n bXbXbXbXbXbXbXbXbX",
"bXbXbXbXbXK.&X%X}.S.x.c 1 1 o   9 2.C.V.V.o.S , > 1 c bXbXbXbXbX",
"bXbXbXbXY.<X4X5X&X|.z.3 + +     & #.S.S.n.:...q + 9 m , 1 bXbXbX",
"bXbXbX1X9X2X6X8X%XY.I , &       . < ..#.C N c < > B S P z bXbXbX",
"bXE.4X6X6XtXtXfX.XI > .         .   . o o o + & , C ..4.z , bXbX",
"bX1.2X6X6XtXtX5X+.+             .             - 2 G ..L , = bXbX",
"bX..U.%XOX+XP.W ; o                         . = , = , m , = bXbX",
"bXbXP L z 2 = + o                         . = l 9 = + B B l bXbX",
"bXO.+.G - X o             .             @ , J ..W x & +.L < bXbX",
"bX|.L.X., , -           . o @ X       + c *.c.v.o., : n m = bXbX",
"P.@X(.M.-.F 9 O       . * B 3 ,   & , C ;.E..XL...1 , : 0 bXbXbX",
"i.;X9X<XoXL.0.n + - , m #.m.0.n = n 4.0.Y.&X&X;.b 3 c A * bXbXbX",
"bXI.9X<X2X3X%Xc.3 A C..X5X3XOX<., G.P.U.%X XD.F & 5 6.U $ bXbXbX",
"bXA.K.<X;X<X+X#.D T.fXfXwXwX1X-.N o.l.=.4.=.+.: * 4 _ y @ bXbXbX",
"bXbX;.H.J.J.A.C b U.%X4X1X1XU.-.b C W I I P N 5 i ^ y 4 $ bXbXbX",
"bXbXbXq W -.Z L 5.z.2XfXfX4XH.Z G W *.D.X.b b p ^ ( d % % bXbXbX",
"bXbXbXbX..F m l F =.}.oXP.v.Z b N H x.v.P 2 T / i d 4 % 4 bXbXbX",
"bXbXbXbX&.Z.0.H.b.+.;.4...B b b J I C O.F ~ w.Q.f.) i y 4 bXbXbX",
"bXbXbXbXb.&X1X3X1X0.-.Z.V.X.F J J 4.;.$.6.Q.'.pXk.^ d u 4 bXbXbX",
"bXbXbXbXJ OXwX4X(.b.m.A.A.S.x.Z O.B.B.,.w.>X[.'.e.u f d % bXbXbX",
"bXbXbXbXbXB.#X_.i.! #XOX$XF.D.Z U i.q.T u.h.g.e.j j h u $ bXbXbX",
"bXbXbXbXF q.).s._ Y !.#X(.K.G.H D { T p R t.[ d ) e.j 4 # bXbXbX",
"bXbXbXbXi.~.s.{ T T ! q.m.H F v U ~ g k k ] | d ) ) d u $ bXbXbX",
"bXbXbXbXt.[.aX`.i.,.M Q O.*.D r D s.d.p.j.h.e.( ) f k i $ bXbXbX",
"bXbXbX .( ).sXQ.g.0X).~ ~ L J q M } ~.{.g.t.e.) h ^ j 6 $ bXbXbX",
"bXbXbXp.| p.j.u.0XuXs.q E Q P F M 8.s.w.{ r.T s d ' 4 $ bXbXbXbX",
"bXbXbX9.s.d.h.s.qXW.~ e E b.l.Q K ~ @.Y T a T w 7 k 5 # bXbXbXbX",
"bXbXbX} s.~.s.8.q.;.%.E ! m.V.;.*.I v v , * > e r w $ @ bXbXbXbX",
"bXbXbXT 3.8.D n G V.q.<.@.A.M.M.n.D.z.+.= + : m M > + bXbXbXbXbX",
"bXbXbXbX9 B c 1 &.A.v.1.W -.1.-.;.l.c.E.l.0.X.I n l = bXbXbXbXbX",
"bXbXbXbX9 P n 1 #.;.o.X.E ..2.o.G +.X.*.z.l.+.Z l < 9 bXbXbXbXbX",
"bXbXbXbXbXZ P J 1.b.&.O...n.OXOX2.m m W G L F F l 3 q bXbXbXbXbX",
"bXbXbXbXbX9 K =.v.V.c.+.I oX/.(.I.B M Q D m B n F r e bXbXbXbXbX",
"bXbXbXbXbX1 *.Z.A.Y.l.G +.0.J.I.K._ 8.@.Q S a w w w bXbXbXbXbXbX",
"bXbXbXbXbX1 l. X%X$XA.*.&...Q 7./ W.#XeX].} ` y $ bXbXbXbXbXbXbX",
"bXbXbXbXbXc m.+X$X|. Xz.c.*.a p i.uXzXzXcXpX[ ^ 4 bXbXbXbXbXbXbX",
"bXbXbXbXbXbX&. XXXXXc.l.n.%.m w K.kXjXxXxXdXk.( y bXbXbXbXbXbXbX",
"bXbXbXbXbXbXbXS.Y.@XU.J.Y.1.B q } ].dXdXzXaX{.) i bXbXbXbXbXbXbX",
"bXbXbXbXbXbXbX;.5XlXjXjX9XU.$.K ~ _ {.[.aX`.[ k g bXbXbXbXbXbXbX",
"bXbXbXbXbXbXbXl.8XlX7XtX8XY.N.} 6._ ) r.[ k d k g bXbXbXbXbXbXbX",
"bXbXbXbXbXbXbXv.<XtX7XrXlXrX3XW.9.} f ` ) d i u bXbXbXbXbXbXbXbX",
"bXbXbXbXbXbXbXo.I.5X8X2X-XeX].s.g.,X| u k u 6 % bXbXbXbXbXbXbXbX",
"bXbXbXbXbXbXbXbXl.*XY.U.W.!.i.u.g.>X^.6 y 4 6 bXbXbXbXbXbXbXbXbX",
"bXbXbXbXbXbXbXbXbX|.!.!.!.~.s.r.u.{.j.d % 6 6 bXbXbXbXbXbXbXbXbX",
"bXbXbXbXbXbXbXbXbXS.$XhXlXzXyXQ.( u.t.h 6 u i bXbXbXbXbXbXbXbXbX",
"bXbXbXbXbXbXbXbXbX.X&XgXgXhX0Xa.Y r.( p 6 u u bXbXbXbXbXbXbXbXbX",
"bXbXbXbXbXbXbXbXbXP.Y.$X}.~.8.8.u.s.y.d i y 6 bXbXbXbXbXbXbXbXbX",
"bXbXbXbXbXbXbXbXD.|.}.*X X~.q.8.s.[._.t 6 4 6 bXbXbXbXbXbXbXbXbX",
"bXbXbXbXbXbXbX&.OXwXrX2XeX).!.q.s.].8.q p % 4 % bXbXbXbXbXbXbXbX",
"bXbXbXbXbXbXbXv.6X9XtXtXtXuX).n.p.3.c M R d y 7 bXbXbXbXbXbXbXbX",
"bXbXbXbXbXbXbXM.7XjX7XtXtX(.b.q.3.Q G @.6.g w g t bXbXbXbXbXbXbX",
"bXbXbXbXbXbXbX;.;X7X7X7X6XOX4.L F W D.!.).W.U D p bXbXbXbXbXbXbX",
"bXbXbXbXbXbXbX1.J.U./.+X+XZ.P c E J.#X3X0X(.B.D 5 bXbXbXbXbXbXbX",
"bXbXbXbXbXbXL P.H.*XZ.l.x.X.V V M.2X<X;X;X(.Z.U > bXbXbXbXbXbXbX",
"bXbXbXbXbXA 2.oX$X*XP...O.W 1 c v.wXgXrX7XJ.O.n = bXbXbXbXbXbXbX",
"bXbXbXbXbX, #. X%XOXm...*.&.+.O.P S.+X&X.X*.n 3 : bXbXbXbXbXbXbX",
"bXbXbXbXbX0 G n.C.H.#.P L A.&XOXM.Q #.X.H H J v 1 c bXbXbXbXbXbX",
"bXbXbXbXbX1 V +.1.l.;.B C P.$X3XOXF L I c n F n 8 8 1 bXbXbXbXbX",
"bXbXbXbXbXH G m v.A.&.W N 1.$X+XD.P P C B b n V , : : bXbXbXbXbX",
"bXbXbXbX9 +.N c l.v.o.o...o.l.#.&.5.&.>.&.W W L n & = bXbXbXbXbX",
"bXbXbXbXb G 9 c X.V.o.2...l.v.1.:.l.V.D.;.2.%...b = & bXbXbXbXbX",
"bXbXbXc Q o.b b L V.n.#.Q m.m.J.K.Y.%X-XY.b.-.Z V A - bXbXbXbXbX",
"bXbXbXC ;.X.G X.#...X.C B -.;X<X1X8X2X$XXXD.X.V P x < 2 bXbXbXbX",
"bXbXbXW x.I P.1X(.0.G n F +.A.U.U.U.I.:.X.I &.z.G.n : > bXbXbXbX",
"bXbXbX;.=.G |.gX6X5XZ.J V F G E o.W C P >.;.C.S.G.l < , bXbXbXbX",
"bXbXbXc.....Z.4X8XfX@X$.n.1.E n S o.Q -.n.M.I.H.v 3 3 t 7 bXbXbX",
"bXbXbXbXX.Z *.Z.&X5XK.!.#X=X(.q.o.m.S.|.oX/.J.G 9 r K t < bXbXbX",
"bXbXbXbX$.+.+.4.;.q.i.eXdXzXeXK.$.b.!.(._.<.<.D M @.q.g 7 bXbXbX",
"bXbXbXY.!.#XB.6.8.6._ ^.xXdX0X} T 6.w.,.W Q o.#.Y ,.6.7 5 bXbXbX",
"bXbXbX3XdXeX#X8.r.( y.g.k.d.t.] R | } R r m +.4.E _ a 4   bXbXbX",
"bXbXbXeXhXhX[.{ ^ f iXk.f.j.{ ) d.`.h.| Y w 5.5.E U 7 5     bXbX",
"bXbXbX=XaX^.f.e.[ j h.'.j.[ ' a.pXpX>X^.{ a O.Q S w * @ +   bXbX",
"bXbXbXR.d.j.t.,XdX,Xt.j.f.' ' a.pXsXsXpX7.e J n 0 = 0 0 , bX  bX",
"bXbXbXp.a.| `.vXvXsXt.f.f.t.t.t.j.k.k.y./ v z < m 9 r e > bX  bX",
"bXbXbX} [ a.,XvXcXh.r.t.iXiX'.'.t.a.y.) T D D e ,.Y r p $ bX    ",
"bXbXbX' ' f.k.,Xj.r.e.j.kXsXiX`.e.r.y.7.@.~ D ~ _ ( j 7 # bX    ",
"bXbXbXbX' k.sXiXf.t.) a.k.pX>Xt.] t.s.w.w.T._ ` [ ' h 4 bX      ",
"bXbXbXbXa.pXpXpXu.e.g ' 7.p._ Y Y w.w.B.T.R.7.f ` ^ d d 4 bX    ",
"bXbXbX7 t.>XsX`.u./ g T U D r e T @.A.!.!.q._ ^ ^ h k d d #     ",
"bXbXbX7 a s.0Xd.7._ 8.q.$.H b c q Q Z.D.,.8.~ h f ( ' ' g %     ",
"bXbXbX9 Q q.8.,.~ 4.c.B.B.$.+.b 3 5.c.$.E Y ` s s ' r.[ R u     ",
"bXbXbX..l.D.0.$.%.O.M.L.P.C.;.L L J b c ! M p 7 7 ^ [ 9. .5     ",
"bXbXW m.F.XXM.=.#.F v.F.F.C.A.c.z.J A c 3 > * > w w Y ~ T q     ",
"bXbXW H.oX$XY.;.B C %.M.A.V.V.l.+.G l 9 , & @ = 0 e w M 8 1   bX",
"bXbXS J./.$XS.E c B X.;.l.=.X...C n b m q 9 < > 9 E $.F = 1   bX",
"bXbXN -.F.x...P ..=.5.L W W I >.L G F B C B F , m ..=.=.A l   bX",
"bXbXbXW x.X.C b &.5.H c ;.M.n.M.;.z.z.l.#...L < q H ....= , bXbX",
"bXbXbXbXx 9 , c =.O.N b Y.%X5X@X XL.F.F.D.*.3 , < n m & + bXbXbX",
"bXbXbXbXbXbX* , C N C &.L.5XgXtX2X<XU.!.&.J z , , l 1 o bXbXbXbX",
"bXbXbXbXbXbXbXbXbX0 F ..Z H.5XtXtX<XS.&.m c l -     bXbXbXbXbXbX",
"bXbXbXbXbXbXbXbXbXbXbX9 x W x.H.L.4.=.W 9 = bXbXbXbXbXbXbXbXbXbX",
"bXbXbXbXbXbXbXbXbXbXbXbXbXC P ..*.5.H G bX@ bXbXbXbXbXbXbXbXbXbX",
"bXbXbXbXbXbXbXbXbXbXbXbXbXbXbXbXbXbXbXbXbXbXbXbXbXbXbXbXbXbXbXbX"
};
